<svg width="29" height="26" viewBox="0 0 29 26" fill="none" xmlns="http://www.w3.org/2000/svg">
<path d="M9.54723 13.3131C9.37673 13.3132 9.21004 13.3585 9.06796 13.4433C8.92587 13.5281 8.81468 13.6487 8.74827 13.79C8.68185 13.9313 8.66314 14.0871 8.69448 14.2379C8.72581 14.3887 8.8058 14.5279 8.92447 14.6381L13.5547 18.9349C13.6356 19.0099 13.7324 19.0695 13.8394 19.1102C13.9463 19.1509 14.0613 19.1719 14.1774 19.1719C14.2936 19.1719 14.4085 19.1509 14.5155 19.1102C14.6225 19.0695 14.7193 19.0099 14.8002 18.9349L19.4304 14.6381C19.549 14.5279 19.629 14.3887 19.6604 14.2379C19.6917 14.0871 19.673 13.9313 19.6066 13.79C19.5402 13.6487 19.429 13.5281 19.2869 13.4433C19.1448 13.3585 18.9781 13.3132 18.8076 13.3131H15.0456L15.0456 5.8912C15.0456 5.684 14.9541 5.48528 14.7913 5.33877C14.6285 5.19226 14.4077 5.10995 14.1774 5.10995C13.9472 5.10995 13.7264 5.19226 13.5635 5.33877C13.4007 5.48528 13.3093 5.684 13.3093 5.8912L13.3093 13.3131H9.54723Z" fill="white"/>
</svg>
