<svg width="38" height="39" viewBox="0 0 38 39" fill="none" xmlns="http://www.w3.org/2000/svg">
<g id="basil:file-download-outline">
<path id="Vector" d="M21.8239 21.3114C22.0657 21.1179 22.3744 21.0284 22.6821 21.0625C22.9899 21.0967 23.2715 21.2517 23.465 21.4934C23.6585 21.7352 23.748 22.0439 23.7139 22.3517C23.6798 22.6594 23.5248 22.941 23.283 23.1345L19.4034 26.2379C19.1959 26.4078 18.9359 26.5007 18.6677 26.5008H18.6552C18.3918 26.4992 18.1368 26.4081 17.9319 26.2425L14.0477 23.1345C13.8059 22.9413 13.6508 22.6598 13.6166 22.3522C13.5823 22.0446 13.6716 21.736 13.8649 21.4942C14.0582 21.2524 14.3396 21.0974 14.6472 21.0631C14.9548 21.0288 15.2635 21.1181 15.5052 21.3114L17.4979 22.9074V17.5563C17.4979 17.4031 17.5281 17.2514 17.5867 17.1099C17.6453 16.9683 17.7313 16.8397 17.8396 16.7314C17.9479 16.623 18.0765 16.5371 18.2181 16.4785C18.3596 16.4198 18.5114 16.3896 18.6646 16.3896C18.8178 16.3896 18.9695 16.4198 19.111 16.4785C19.2526 16.5371 19.3812 16.623 19.4895 16.7314C19.5979 16.8397 19.6838 16.9683 19.7424 17.1099C19.801 17.2514 19.8312 17.4031 19.8312 17.5563V22.9074L21.8239 21.3114Z" fill="#26435F"/>
<path id="Vector_2" fill-rule="evenodd" clip-rule="evenodd" d="M10.8872 4.33496C9.75262 4.33496 8.66455 4.78565 7.86231 5.58789C7.06007 6.39013 6.60938 7.4782 6.60938 8.61274V30.3905C6.60938 31.5251 7.06007 32.6131 7.86231 33.4154C8.66455 34.2176 9.75262 34.6683 10.8872 34.6683H26.4427C27.5772 34.6683 28.6653 34.2176 29.4676 33.4154C30.2698 32.6131 30.7205 31.5251 30.7205 30.3905V13.5874C30.7205 13.0182 30.542 12.4633 30.2103 12.0007L25.5218 5.47052C25.27 5.11938 24.9381 4.83325 24.5537 4.63579C24.1694 4.43833 23.7435 4.33521 23.3114 4.33496H10.8872ZM8.94271 8.61274C8.94271 7.53941 9.81382 6.66829 10.8872 6.66829H22.1649V13.5081C22.1649 14.1521 22.6876 14.6747 23.3316 14.6747H28.3872V30.3905C28.3872 31.4639 27.516 32.335 26.4427 32.335H10.8872C9.81382 32.335 8.94271 31.4639 8.94271 30.3905V8.61274Z" fill="#26435F"/>
</g>
</svg>
