<svg width="22" height="23" viewBox="0 0 22 23" fill="none" xmlns="http://www.w3.org/2000/svg">
<g id="Calendar 1">
<g id="Group">
<path id="Vector" d="M19.24 2.08984H17.3577V3.9722C17.3577 4.34867 17.0439 4.59965 16.7302 4.59965C16.4165 4.59965 16.1028 4.34867 16.1028 3.9722V2.08984H6.06355V3.9722C6.06355 4.34867 5.74982 4.59965 5.4361 4.59965C5.12237 4.59965 4.80865 4.34867 4.80865 3.9722V2.08984H2.92629C1.98512 2.08984 1.29492 2.90553 1.29492 3.9722V6.23102H21.3734V3.9722C21.3734 2.90553 20.2439 2.08984 19.24 2.08984ZM1.29492 7.54867V19.031C1.29492 20.1604 1.98512 20.9134 2.98904 20.9134H19.3028C20.3067 20.9134 21.4361 20.0977 21.4361 19.031V7.54867H1.29492ZM6.87923 18.0898H5.37335C5.12237 18.0898 4.87139 17.9016 4.87139 17.5879V16.0193C4.87139 15.7683 5.05963 15.5173 5.37335 15.5173H6.94198C7.19296 15.5173 7.44394 15.7055 7.44394 16.0193V17.5879C7.3812 17.9016 7.19296 18.0898 6.87923 18.0898ZM6.87923 12.4428H5.37335C5.12237 12.4428 4.87139 12.2546 4.87139 11.9408V10.3722C4.87139 10.1212 5.05963 9.87024 5.37335 9.87024H6.94198C7.19296 9.87024 7.44394 10.0585 7.44394 10.3722V11.9408C7.3812 12.2546 7.19296 12.4428 6.87923 12.4428ZM11.8988 18.0898H10.3302C10.0792 18.0898 9.82825 17.9016 9.82825 17.5879V16.0193C9.82825 15.7683 10.0165 15.5173 10.3302 15.5173H11.8988C12.1498 15.5173 12.4008 15.7055 12.4008 16.0193V17.5879C12.4008 17.9016 12.2126 18.0898 11.8988 18.0898ZM11.8988 12.4428H10.3302C10.0792 12.4428 9.82825 12.2546 9.82825 11.9408V10.3722C9.82825 10.1212 10.0165 9.87024 10.3302 9.87024H11.8988C12.1498 9.87024 12.4008 10.0585 12.4008 10.3722V11.9408C12.4008 12.2546 12.2126 12.4428 11.8988 12.4428ZM16.9185 18.0898H15.3498C15.0988 18.0898 14.8479 17.9016 14.8479 17.5879V16.0193C14.8479 15.7683 15.0361 15.5173 15.3498 15.5173H16.9185C17.1694 15.5173 17.4204 15.7055 17.4204 16.0193V17.5879C17.4204 17.9016 17.2322 18.0898 16.9185 18.0898ZM16.9185 12.4428H15.3498C15.0988 12.4428 14.8479 12.2546 14.8479 11.9408V10.3722C14.8479 10.1212 15.0361 9.87024 15.3498 9.87024H16.9185C17.1694 9.87024 17.4204 10.0585 17.4204 10.3722V11.9408C17.4204 12.2546 17.2322 12.4428 16.9185 12.4428Z" fill="#FFA28D"/>
</g>
</g>
</svg>
