<svg width="22" height="23" viewBox="0 0 22 23" fill="none" xmlns="http://www.w3.org/2000/svg">
<g id="material-symbols:content-copy">
<path id="Vector" d="M4.44379 19.7797C3.95491 19.7797 3.53624 19.6055 3.18779 19.2571C2.83935 18.9086 2.66542 18.4902 2.66602 18.002V5.55751H4.44379V18.002H14.2216V19.7797H4.44379ZM7.99935 16.2242C7.51046 16.2242 7.09179 16.05 6.74335 15.7015C6.39491 15.3531 6.22098 14.9347 6.22157 14.4464V3.77973C6.22157 3.29084 6.39579 2.87218 6.74424 2.52373C7.09268 2.17529 7.51105 2.00136 7.99935 2.00195H15.9993C16.4882 2.00195 16.9069 2.17618 17.2554 2.52462C17.6038 2.87307 17.7777 3.29144 17.7771 3.77973V14.4464C17.7771 14.9353 17.6029 15.354 17.2545 15.7024C16.906 16.0508 16.4876 16.2248 15.9993 16.2242H7.99935Z" fill="#FFA28D"/>
</g>
</svg>
