<svg width="22" height="22" viewBox="0 0 22 22" fill="none" xmlns="http://www.w3.org/2000/svg">
<g id="Dashboard 1" clip-path="url(#clip0_9896_39686)">
<g id="Group">
<path id="Vector" d="M8.22217 0.662109H1.5555C0.69775 0.662109 0 1.35986 0 2.21761V6.21761C0 7.07553 0.69775 7.77328 1.5555 7.77328H8.22217C9.08008 7.77328 9.77783 7.07553 9.77783 6.21761V2.21761C9.77783 1.35986 9.08008 0.662109 8.22217 0.662109ZM8.22217 9.55094H1.5555C0.69775 9.55094 0 10.2487 0 11.1066V20.4399C0 21.2977 0.69775 21.9954 1.5555 21.9954H8.22217C9.08008 21.9954 9.77783 21.2977 9.77783 20.4399V11.1066C9.77783 10.2487 9.08008 9.55094 8.22217 9.55094ZM19.7778 14.8843H13.1112C12.2533 14.8843 11.5555 15.582 11.5555 16.4399V20.4399C11.5555 21.2977 12.2533 21.9954 13.1112 21.9954H19.7778C20.6356 21.9954 21.3333 21.2977 21.3333 20.4399V16.4399C21.3333 15.582 20.6356 14.8843 19.7778 14.8843ZM19.7778 0.662109H13.1112C12.2533 0.662109 11.5555 1.35986 11.5555 2.21761V11.5509C11.5555 12.4089 12.2533 13.1066 13.1112 13.1066H19.7778C20.6356 13.1066 21.3333 12.4089 21.3333 11.5509V2.21761C21.3333 1.35986 20.6356 0.662109 19.7778 0.662109Z" fill="white"/>
</g>
</g>
<defs>
<clipPath id="clip0_9896_39686">
<rect width="21.3333" height="21.3333" fill="white" transform="translate(0 0.664062)"/>
</clipPath>
</defs>
</svg>
