<svg width="22" height="23" viewBox="0 0 22 23" fill="none" xmlns="http://www.w3.org/2000/svg">
<g clip-path="url(#clip0_11041_35992)">
<path d="M8.22217 0.838135H1.5555C0.69775 0.838135 0 1.53588 0 2.39363V6.39363C0 7.25155 0.69775 7.9493 1.5555 7.9493H8.22217C9.08008 7.9493 9.77783 7.25155 9.77783 6.39363V2.39363C9.77783 1.53588 9.08008 0.838135 8.22217 0.838135ZM8.22217 9.72697H1.5555C0.69775 9.72697 0 10.4247 0 11.2826V20.616C0 21.4737 0.69775 22.1715 1.5555 22.1715H8.22217C9.08008 22.1715 9.77783 21.4737 9.77783 20.616V11.2826C9.77783 10.4247 9.08008 9.72697 8.22217 9.72697ZM19.7778 15.0603H13.1112C12.2533 15.0603 11.5555 15.7581 11.5555 16.616V20.616C11.5555 21.4737 12.2533 22.1715 13.1112 22.1715H19.7778C20.6356 22.1715 21.3333 21.4737 21.3333 20.616V16.616C21.3333 15.7581 20.6356 15.0603 19.7778 15.0603ZM19.7778 0.838135H13.1112C12.2533 0.838135 11.5555 1.53588 11.5555 2.39363V11.727C11.5555 12.5849 12.2533 13.2826 13.1112 13.2826H19.7778C20.6356 13.2826 21.3333 12.5849 21.3333 11.727V2.39363C21.3333 1.53588 20.6356 0.838135 19.7778 0.838135Z" fill="#FFA28D"/>
</g>
<defs>
<clipPath id="clip0_11041_35992">
<rect width="21.3333" height="21.3333" fill="white" transform="translate(0 0.837646)"/>
</clipPath>
</defs>
</svg>
