<svg xmlns="http://www.w3.org/2000/svg" width="15" height="20" viewBox="0 0 15 20" fill="none">
  <g clip-path="url(#clip0_19667_91092)">
    <path d="M2.77648 0.169922C1.42821 0.169922 0.332031 1.26612 0.332031 2.6144V17.2812C0.332031 18.6295 1.42821 19.7257 2.77648 19.7257H12.5543C13.9025 19.7257 14.9987 18.6295 14.9987 17.2812V6.28111H10.1098C9.43377 6.28111 8.88759 5.73492 8.88759 5.05887V0.169922H2.77648ZM10.1098 0.169922V5.05887H14.9987L10.1098 0.169922ZM2.77648 3.22551C2.77648 2.8894 3.05148 2.6144 3.38759 2.6144H5.83203C6.16814 2.6144 6.44314 2.8894 6.44314 3.22551C6.44314 3.56163 6.16814 3.83663 5.83203 3.83663H3.38759C3.05148 3.83663 2.77648 3.56163 2.77648 3.22551ZM2.77648 5.66999C2.77648 5.33387 3.05148 5.05887 3.38759 5.05887H5.83203C6.16814 5.05887 6.44314 5.33387 6.44314 5.66999C6.44314 6.0061 6.16814 6.28111 5.83203 6.28111H3.38759C3.05148 6.28111 2.77648 6.0061 2.77648 5.66999ZM7.66536 8.42002C8.00148 8.42002 8.27648 8.69503 8.27648 9.03114V9.69191C8.60113 9.73775 8.91432 9.81032 9.19696 9.88671C9.52162 9.97456 9.71641 10.3069 9.62856 10.6353C9.54071 10.9638 9.20842 11.1548 8.87995 11.0669C8.45599 10.9523 8.03967 10.8683 7.65391 10.8645C7.33307 10.8607 6.98932 10.9332 6.75252 11.0746C6.53481 11.2044 6.44314 11.3534 6.44314 11.5635C6.44314 11.7048 6.49279 11.8117 6.72196 11.9492C6.9855 12.1058 7.35599 12.2204 7.83724 12.3656L7.85634 12.3694C8.28793 12.4992 8.82266 12.6597 9.24279 12.927C9.70495 13.2173 10.0984 13.6795 10.1098 14.3861C10.1213 15.1232 9.74314 15.658 9.23516 15.975C8.94106 16.1583 8.60877 16.2653 8.27648 16.3225V16.9757C8.27648 17.3118 8.00148 17.5868 7.66536 17.5868C7.32925 17.5868 7.05425 17.3118 7.05425 16.9757V16.2958C6.62648 16.2156 6.22543 16.0781 5.87405 15.9559C5.79384 15.9291 5.71363 15.9024 5.63724 15.8757C5.31641 15.7687 5.14453 15.4211 5.25148 15.1041C5.35842 14.7871 5.70599 14.6114 6.023 14.7184C6.11849 14.7489 6.20634 14.7795 6.29418 14.81C6.81363 14.9857 7.23377 15.1309 7.68064 15.1423C8.02821 15.1538 8.36432 15.0774 8.58585 14.9399C8.78064 14.8177 8.88759 14.6611 8.88377 14.4052C8.87995 14.2295 8.81502 14.1072 8.58967 13.9621C8.32995 13.7979 7.95946 13.6795 7.48203 13.5343L7.42092 13.5152C7.00078 13.3892 6.49279 13.2364 6.09175 12.992C5.63342 12.717 5.22856 12.2701 5.22474 11.5673C5.22092 10.8263 5.63724 10.3145 6.13377 10.0204C6.42023 9.85233 6.73724 9.74539 7.05425 9.68809V9.03114C7.05425 8.69503 7.32925 8.42002 7.66536 8.42002Z" fill="white"/>
  </g>
  <defs>
    <clipPath id="clip0_19667_91092">
      <rect width="14.6667" height="19.5558" fill="white" transform="translate(0.332031 0.169922)"/>
    </clipPath>
  </defs>
</svg>