<svg width="15" height="20" viewBox="0 0 15 20" fill="none" xmlns="http://www.w3.org/2000/svg">
<g id="fa6-solid:file-invoice-dollar" clip-path="url(#clip0_9896_39570)">
<path id="Vector" d="M2.77648 -0.00195312C1.42821 -0.00195312 0.332031 1.09424 0.332031 2.44252V17.1094C0.332031 18.4576 1.42821 19.5538 2.77648 19.5538H12.5543C13.9025 19.5538 14.9987 18.4576 14.9987 17.1094V6.10923H10.1098C9.43377 6.10923 8.88759 5.56305 8.88759 4.887V-0.00195312H2.77648ZM10.1098 -0.00195312V4.887H14.9987L10.1098 -0.00195312ZM2.77648 3.05364C2.77648 2.71752 3.05148 2.44252 3.38759 2.44252H5.83203C6.16814 2.44252 6.44314 2.71752 6.44314 3.05364C6.44314 3.38975 6.16814 3.66476 5.83203 3.66476H3.38759C3.05148 3.66476 2.77648 3.38975 2.77648 3.05364ZM2.77648 5.49811C2.77648 5.162 3.05148 4.887 3.38759 4.887H5.83203C6.16814 4.887 6.44314 5.162 6.44314 5.49811C6.44314 5.83423 6.16814 6.10923 5.83203 6.10923H3.38759C3.05148 6.10923 2.77648 5.83423 2.77648 5.49811ZM7.66536 8.24815C8.00148 8.24815 8.27648 8.52315 8.27648 8.85927V9.52004C8.60113 9.56587 8.91432 9.63844 9.19696 9.71483C9.52162 9.80268 9.71641 10.135 9.62856 10.4635C9.54071 10.7919 9.20842 10.9829 8.87995 10.8951C8.45599 10.7805 8.03967 10.6964 7.65391 10.6926C7.33307 10.6888 6.98932 10.7614 6.75252 10.9027C6.53481 11.0326 6.44314 11.1815 6.44314 11.3916C6.44314 11.5329 6.49279 11.6399 6.72196 11.7774C6.9855 11.934 7.35599 12.0485 7.83724 12.1937L7.85634 12.1975C8.28793 12.3274 8.82266 12.4878 9.24279 12.7551C9.70495 13.0454 10.0984 13.5076 10.1098 14.2142C10.1213 14.9514 9.74314 15.4861 9.23516 15.8031C8.94106 15.9864 8.60877 16.0934 8.27648 16.1507V16.8038C8.27648 17.1399 8.00148 17.4149 7.66536 17.4149C7.32925 17.4149 7.05425 17.1399 7.05425 16.8038V16.1239C6.62648 16.0437 6.22543 15.9062 5.87405 15.784C5.79384 15.7573 5.71363 15.7305 5.63724 15.7038C5.31641 15.5968 5.14453 15.2493 5.25148 14.9323C5.35842 14.6152 5.70599 14.4395 6.023 14.5465C6.11849 14.577 6.20634 14.6076 6.29418 14.6382C6.81363 14.8139 7.23377 14.959 7.68064 14.9705C8.02821 14.9819 8.36432 14.9055 8.58585 14.768C8.78064 14.6458 8.88759 14.4892 8.88377 14.2333C8.87995 14.0576 8.81502 13.9354 8.58967 13.7902C8.32995 13.626 7.95946 13.5076 7.48203 13.3624L7.42092 13.3433C7.00078 13.2173 6.49279 13.0645 6.09175 12.8201C5.63342 12.5451 5.22856 12.0982 5.22474 11.3954C5.22092 10.6544 5.63724 10.1426 6.13377 9.84851C6.42023 9.68046 6.73724 9.57351 7.05425 9.51622V8.85927C7.05425 8.52315 7.32925 8.24815 7.66536 8.24815Z" fill="#FFA28D"/>
</g>
<defs>
<clipPath id="clip0_9896_39570">
<rect width="14.6667" height="19.5558" fill="white" transform="translate(0.332031 -0.00195312)"/>
</clipPath>
</defs>
</svg>
