<svg width="21" height="20" viewBox="0 0 21 20" fill="none" xmlns="http://www.w3.org/2000/svg">
<path id="Vector" d="M20.249 10.0003C20.249 15.5232 15.7719 20.0007 10.249 20.0007C4.72616 20.0007 0.249023 15.5239 0.249023 10.0003C0.249023 4.47714 4.72583 0 10.249 0C15.7719 0 20.249 4.47746 20.249 10.0003ZM10.249 2.23544C5.96035 2.23544 2.4838 5.71198 2.4838 10.0007C2.4838 14.289 5.96002 17.7662 10.249 17.7662C14.5377 17.7662 18.0142 14.289 18.0142 10.0007C18.0146 5.71231 14.5377 2.23544 10.249 2.23544ZM8.20204 7.67659C8.20204 6.0991 9.21384 5.54527 10.225 5.54527C10.8269 5.54527 11.3422 5.60095 11.754 6.11096C12.7174 7.30331 11.6423 8.4604 10.4174 9.07288C9.55056 9.50646 9.14103 10.2412 9.14103 11.2642V13.5526H11.4285V12.2038C11.4285 10.1446 12.753 10.6622 13.7163 9.37434C15.0191 7.63212 14.7374 5.66816 12.9694 4.26891C10.9472 2.66737 8.65869 3.46204 8.02084 3.89562C7.49072 4.25573 5.61276 5.59337 5.97385 8.47094L8.19677 8.47555C8.19677 8.47555 8.20138 8.20638 8.20138 7.67659H8.20204ZM11.4292 16.6832V14.3355H9.14169V16.6832H11.4292Z" fill="#24A3D9"/>
</svg>
