<svg width="22" height="23" viewBox="0 0 22 23" fill="none" xmlns="http://www.w3.org/2000/svg">
<g id="Settings 1" clip-path="url(#clip0_9896_39673)">
<g id="Group">
<path id="Vector" d="M21.3608 14.0045L19.3999 12.4711C19.4248 12.2347 19.4462 11.9583 19.4462 11.6658C19.4462 11.3733 19.4257 11.0969 19.3999 10.8605L21.3626 9.32625C21.7271 9.03825 21.8266 8.52713 21.5946 8.10138L19.5555 4.57333C19.3377 4.17513 18.8604 3.97067 18.3759 4.14933L16.0622 5.07821C15.6186 4.75821 15.1537 4.488 14.6728 4.272L14.3208 1.81779C14.263 1.352 13.8577 1 13.3786 1H9.28974C8.81061 1 8.4062 1.352 8.34928 1.81067L7.9964 4.27379C7.53061 4.48358 7.07286 4.75025 6.60974 5.08L4.28974 4.14846C3.85503 3.98046 3.33503 4.16888 3.11903 4.56533L1.07728 8.09779C0.836403 8.50492 0.935945 9.03379 1.3084 9.32892L3.26928 10.8623C3.23815 11.1618 3.22307 11.4223 3.22307 11.6667C3.22307 11.9112 3.23819 12.1716 3.26928 12.472L1.30661 14.0063C0.942153 14.2951 0.843486 14.8063 1.07549 15.2311L3.11461 18.7591C3.3324 19.1565 3.80528 19.3627 4.29415 19.1831L6.60794 18.2542C7.05061 18.5734 7.51549 18.8436 7.9964 19.0605L8.3484 21.5138C8.40615 21.9813 8.81061 22.3333 9.29061 22.3333H13.3795C13.8586 22.3333 14.2639 21.9813 14.3208 21.5227L14.6737 19.0605C15.1395 18.8498 15.5964 18.584 16.0604 18.2533L18.3804 19.1849C18.4914 19.2284 18.6096 19.2507 18.7288 19.2507C19.0737 19.2507 19.391 19.0622 19.551 18.7689L21.599 15.2222C21.8266 14.8062 21.727 14.2951 21.3608 14.0045ZM11.3342 15.2222C9.37328 15.2222 7.77861 13.6275 7.77861 11.6667C7.77861 9.70579 9.37328 8.11113 11.3342 8.11113C13.295 8.11113 14.8897 9.70579 14.8897 11.6667C14.8897 13.6275 13.295 15.2222 11.3342 15.2222Z" fill="#FFA28D"/>
</g>
</g>
<defs>
<clipPath id="clip0_9896_39673">
<rect width="21.3333" height="21.3333" fill="white" transform="translate(0.666992 0.998047)"/>
</clipPath>
</defs>
</svg>
