<svg width="27" height="26" viewBox="0 0 27 26" fill="none" xmlns="http://www.w3.org/2000/svg">
<g id="solar:sort-horizontal-bold-duotone">
<g id="Group">
<path id="Vector" d="M9.35616 13.4537C9.1998 13.4538 9.04693 13.4991 8.91662 13.5839C8.78632 13.6687 8.68435 13.7893 8.62344 13.9306C8.56253 14.0719 8.54537 14.2277 8.57411 14.3785C8.60285 14.5293 8.67621 14.6685 8.78504 14.7787L13.0313 19.0756C13.1055 19.1505 13.1943 19.2101 13.2924 19.2508C13.3905 19.2915 13.4959 19.3125 13.6024 19.3125C13.709 19.3125 13.8144 19.2915 13.9125 19.2508C14.0106 19.2101 14.0994 19.1505 14.1736 19.0756L18.4199 14.7787C18.5287 14.6685 18.602 14.5293 18.6308 14.3785C18.6595 14.2277 18.6424 14.0719 18.5815 13.9306C18.5205 13.7893 18.4186 13.6687 18.2883 13.5839C18.158 13.4991 18.0051 13.4538 17.8487 13.4537H14.3986L14.3986 6.03182C14.3986 5.82462 14.3147 5.62591 14.1654 5.47939C14.0161 5.33288 13.8136 5.25057 13.6024 5.25057C13.3913 5.25057 13.1888 5.33288 13.0395 5.47939C12.8902 5.62591 12.8063 5.82462 12.8063 6.03182L12.8063 13.4537H9.35616Z" fill="white"/>
</g>
</g>
</svg>
