<svg width="22" height="22" viewBox="0 0 22 22" fill="none" xmlns="http://www.w3.org/2000/svg">
<path id="Vector" d="M19.7865 0.333984H2.20312C1.16921 0.333984 0.328125 1.17507 0.328125 2.20898V14.7923C0.328125 15.8262 1.16921 16.6673 2.20312 16.6673H7.82812V17.9173H14.1198V16.6673H19.7865C20.8204 16.6673 21.6615 15.8262 21.6615 14.7923V2.20898C21.6615 1.17507 20.8204 0.333984 19.7865 0.333984ZM7.64504 11.4425L5.14504 13.9425C4.90092 14.1867 4.50537 14.1867 4.26125 13.9425L3.01125 12.6925C2.76708 12.4484 2.76708 12.0529 3.01125 11.8088C3.25537 11.5647 3.65092 11.5647 3.89504 11.8088L4.70312 12.6169L6.76125 10.5587C7.00538 10.3146 7.40092 10.3146 7.64504 10.5587C7.88917 10.8029 7.88917 11.1984 7.64504 11.4425ZM7.64504 7.69253L5.14504 10.1925C4.90092 10.4367 4.50537 10.4367 4.26125 10.1925L3.01125 8.94253C2.76708 8.6984 2.76708 8.3029 3.01125 8.05878C3.25537 7.81465 3.65092 7.81465 3.89504 8.05878L4.70312 8.86686L6.76125 6.80873C7.00538 6.56461 7.40092 6.56461 7.64504 6.80873C7.88917 7.05286 7.88917 7.4484 7.64504 7.69253ZM7.64504 3.94253L5.14504 6.44253C4.90092 6.68665 4.50537 6.68665 4.26125 6.44253L3.01125 5.19253C2.76708 4.9484 2.76708 4.5529 3.01125 4.30878C3.25537 4.06465 3.65092 4.06465 3.89504 4.30878L4.70312 5.11686L6.76125 3.05873C7.00538 2.81461 7.40092 2.81461 7.64504 3.05873C7.88917 3.30286 7.88917 3.6984 7.64504 3.94253ZM18.5365 12.8757H9.70312C9.35767 12.8757 9.07812 12.5961 9.07812 12.2507C9.07812 11.9052 9.35767 11.6257 9.70312 11.6257H18.5365C18.8819 11.6257 19.1615 11.9052 19.1615 12.2507C19.1615 12.5961 18.8819 12.8757 18.5365 12.8757ZM18.5365 9.12565H9.70312C9.35767 9.12565 9.07812 8.84611 9.07812 8.50065C9.07812 8.15519 9.35767 7.87565 9.70312 7.87565H18.5365C18.8819 7.87565 19.1615 8.15519 19.1615 8.50065C19.1615 8.84611 18.8819 9.12565 18.5365 9.12565ZM18.5365 5.37565H9.70312C9.35767 5.37565 9.07812 5.09611 9.07812 4.75065C9.07812 4.40519 9.35767 4.12565 9.70312 4.12565H18.5365C18.8819 4.12565 19.1615 4.40519 19.1615 4.75065C19.1615 5.09611 18.8819 5.37565 18.5365 5.37565ZM15.3698 19.1673H6.61979C5.241 19.1673 4.11979 20.2885 4.11979 21.6673H17.8698C17.8698 20.2885 16.7486 19.1673 15.3698 19.1673Z" fill="#FFA28D"/>
</svg>
