<svg width="20" height="21" viewBox="0 0 20 21" fill="none" xmlns="http://www.w3.org/2000/svg">
<path id="Vector" d="M20 10.3363C20 15.8591 15.5229 20.3366 10 20.3366C4.47714 20.3366 0 15.8598 0 10.3363C0 4.81307 4.47681 0.335938 10 0.335938C15.5229 0.335938 20 4.8134 20 10.3363ZM10 2.57137C5.71132 2.57137 2.23478 6.04792 2.23478 10.3366C2.23478 14.6249 5.71099 18.1021 10 18.1021C14.2887 18.1021 17.7652 14.6249 17.7652 10.3366C17.7656 6.04825 14.2887 2.57137 10 2.57137ZM7.95302 8.01253C7.95302 6.43504 8.96481 5.88121 9.97595 5.88121C10.5779 5.88121 11.0932 5.93689 11.505 6.4469C12.4684 7.63925 11.3933 8.79634 10.1684 9.40882C9.30153 9.84239 8.892 10.5771 8.892 11.6001V13.8886H11.1795V12.5397C11.1795 10.4806 12.504 10.9982 13.4673 9.71028C14.77 7.96805 14.4883 6.0041 12.7204 4.60485C10.6981 3.00331 8.40966 3.79798 7.77181 4.23156C7.2417 4.59167 5.36373 5.92931 5.72483 8.80688L7.94775 8.81149C7.94775 8.81149 7.95236 8.54232 7.95236 8.01253H7.95302ZM11.1802 17.0192V14.6714H8.89266V17.0192H11.1802Z" fill="#24A3D9"/>
</svg>
