<svg width="17" height="17" viewBox="0 0 17 17" fill="none" xmlns="http://www.w3.org/2000/svg">
<path d="M16.3281 8.83667C16.3281 13.2548 12.7464 16.8367 8.32812 16.8367C3.90983 16.8367 0.328125 13.2553 0.328125 8.83667C0.328125 4.41826 3.90957 0.83667 8.32812 0.83667C12.7464 0.83667 16.3281 4.41852 16.3281 8.83667ZM8.32812 2.62496C4.89718 2.62496 2.11595 5.4061 2.11595 8.83693C2.11595 12.2675 4.89692 15.0492 8.32812 15.0492C11.7591 15.0492 14.5403 12.2675 14.5403 8.83693C14.5406 5.40637 11.7591 2.62496 8.32812 2.62496ZM6.69054 6.97774C6.69054 5.71579 7.49998 5.27274 8.30888 5.27274C8.79043 5.27274 9.20266 5.31728 9.53213 5.72528C10.3028 6.67912 9.44278 7.60477 8.46281 8.09473C7.76935 8.44159 7.44172 9.02934 7.44172 9.84771V11.6784H9.27172V10.5994C9.27172 8.95211 10.3313 9.36617 11.102 8.3359C12.1441 6.94216 11.9188 5.37105 10.5045 4.25169C8.88664 2.9705 7.05585 3.60622 6.54557 3.95307C6.12148 4.24114 4.61911 5.31122 4.90799 7.6132L6.68632 7.61689C6.68632 7.61689 6.69001 7.40156 6.69001 6.97774H6.69054ZM9.27225 14.1828V12.3047H7.44225V14.1828H9.27225Z" fill="#24A3D9"/>
</svg>
