<svg width="17" height="17" viewBox="0 0 17 17" fill="none" xmlns="http://www.w3.org/2000/svg">
<path d="M11.8845 12.6364C11.7176 12.4438 11.6342 12.2255 11.6342 11.9813C11.6342 11.7372 11.7176 11.5333 11.8845 11.3698L13.5687 9.72531H7.03675C6.7788 9.72531 6.56244 9.63998 6.38764 9.46931C6.21285 9.29865 6.12576 9.08768 6.12636 8.83642C6.12636 8.58457 6.21376 8.37331 6.38855 8.20265C6.56335 8.03198 6.77941 7.94694 7.03675 7.94754H13.5687L11.8845 6.30309C11.7025 6.12531 11.6114 5.91406 11.6114 5.66931C11.6114 5.42457 11.7025 5.21361 11.8845 5.03643C12.0514 4.85865 12.2602 4.76976 12.5109 4.76976C12.7615 4.76976 12.97 4.85124 13.1363 5.0142L16.4137 8.2142C16.5047 8.30309 16.5694 8.39939 16.6076 8.50309C16.6458 8.6068 16.6647 8.71791 16.664 8.83642C16.664 8.95494 16.6452 9.06605 16.6076 9.16976C16.57 9.27346 16.5053 9.36976 16.4137 9.45865L13.1363 12.6586C12.9391 12.8512 12.7227 12.9366 12.4872 12.9146C12.2517 12.8927 12.0508 12.8 11.8845 12.6364ZM2.48483 16.8364C1.98412 16.8364 1.55533 16.6622 1.19846 16.3138C0.841589 15.9653 0.663457 15.5469 0.664064 15.0586V2.6142C0.664064 2.12532 0.842499 1.70665 1.19937 1.3582C1.55624 1.00976 1.98473 0.835835 2.48483 0.836427H7.94713C8.20507 0.836427 8.42144 0.921761 8.59623 1.09243C8.77103 1.26309 8.85812 1.47406 8.85751 1.72532C8.85751 1.97717 8.77012 2.18843 8.59532 2.35909C8.42053 2.52976 8.20446 2.6148 7.94713 2.6142H2.48483V15.0586H7.94713C8.20507 15.0586 8.42144 15.144 8.59623 15.3146C8.77103 15.4853 8.85812 15.6963 8.85751 15.9475C8.85751 16.1994 8.77012 16.4106 8.59532 16.5813C8.42053 16.752 8.20446 16.837 7.94713 16.8364H2.48483Z" fill="#24A3D9"/>
</svg>
