<svg width="19" height="19" viewBox="0 0 19 19" fill="none" xmlns="http://www.w3.org/2000/svg">
<path d="M18.5571 13.7765C18.5567 14.9921 18.1412 16.1711 17.3793 17.1184C16.6175 18.0657 15.555 18.7243 14.3677 18.9854L13.8006 17.2841C14.3199 17.1985 14.8138 16.9989 15.2467 16.6994C15.6795 16.4 16.0405 16.0083 16.3037 15.5525H14.1126C13.6411 15.5525 13.1889 15.3652 12.8556 15.0318C12.5222 14.6984 12.3349 14.2462 12.3349 13.7747V10.2192C12.3349 9.74769 12.5222 9.2955 12.8556 8.96211C13.1889 8.62871 13.6411 8.44141 14.1126 8.44141H16.7242C16.5073 6.72309 15.6708 5.14298 14.3717 3.99756C13.0726 2.85214 11.4001 2.22014 9.66819 2.22014C7.93623 2.22014 6.2638 2.85214 4.96469 3.99756C3.66559 5.14298 2.8291 6.72309 2.61219 8.44141H5.22374C5.69524 8.44141 6.14742 8.62871 6.48082 8.96211C6.81422 9.2955 7.00152 9.74769 7.00152 10.2192V13.7747C7.00152 14.2462 6.81422 14.6984 6.48082 15.0318C6.14742 15.3652 5.69524 15.5525 5.22374 15.5525H2.55707C2.08558 15.5525 1.63339 15.3652 1.3 15.0318C0.966598 14.6984 0.779297 14.2462 0.779297 13.7747V9.3303C0.779297 4.42096 4.75885 0.441406 9.66819 0.441406C14.5775 0.441406 18.5571 4.42096 18.5571 9.3303V13.7765Z" fill="#FFA28D"/>
</svg>
