<svg xmlns="http://www.w3.org/2000/svg" width="195" height="122" viewBox="0 0 195 122" fill="none">
  <path d="M127.648 80.0852L129.208 80.371L129.556 82.0152L129.904 80.371L131.463 80.0823L129.91 79.7031L129.556 78.1523L129.199 79.7031L127.648 80.0852Z" fill="white"/>
  <path d="M63.3242 71.2073L64.8835 71.496L65.2316 73.1402L65.5797 71.496L67.1389 71.2073L65.5881 70.8281L65.2316 69.2773L64.8778 70.8281L63.3242 71.2073Z" fill="white"/>
  <path d="M111.723 53.6438L113.282 53.9324L113.63 55.5738L113.978 53.9324L115.537 53.6438L113.987 53.2617L113.63 51.7109L113.276 53.2617L111.723 53.6438Z" fill="white"/>
  <path d="M142.461 70.4102L143.333 70.5715L143.528 71.4913L143.723 70.5715L144.592 70.4102L143.726 70.198L143.528 69.332L143.33 70.198L142.461 70.4102Z" fill="white"/>
  <path d="M76.3477 105.359L77.2164 105.521L77.4117 106.44L77.607 105.521L78.4786 105.359L77.6098 105.147L77.4117 104.281L77.2136 105.147L76.3477 105.359Z" fill="white"/>
  <path d="M140.336 29.0654L141.208 29.2267L141.403 30.1436L141.595 29.2267L142.467 29.0626L141.601 28.8532L141.403 27.9844L141.202 28.8532L140.336 29.0654Z" fill="white"/>
  <path d="M37.5547 48.8193L38.4263 48.9806L38.6216 49.8975L38.814 48.9806L39.6856 48.8193L38.8197 48.6071L38.6216 47.7383L38.4235 48.6071L37.5547 48.8193Z" fill="white"/>
  <path d="M42.2227 95.5693L43.0943 95.7306L43.2895 96.6475L43.482 95.7306L44.3536 95.5693L43.4876 95.3571L43.2895 94.4883L43.0886 95.3571L42.2227 95.5693Z" fill="white"/>
  <path d="M136.973 52.331L137.844 52.4923L138.037 53.4092L138.232 52.4923L139.104 52.331L138.238 52.1188L138.037 51.25L137.839 52.1188L136.973 52.331Z" fill="white"/>
  <path d="M100.223 82.0118L101.094 82.1731L101.29 83.0928L101.485 82.1731L102.356 82.0118L101.488 81.7995L101.29 80.9336L101.091 81.7995L100.223 82.0118Z" fill="white"/>
  <path d="M68.5117 8.26071L69.3833 8.42202L69.5786 9.33891L69.7739 8.42202L70.6426 8.26071L69.7767 8.04847L69.5786 7.17969L69.3805 8.04847L68.5117 8.26071Z" fill="white"/>
  <path d="M102.617 78.6787L103.489 78.84L103.684 79.7597L103.879 78.84L104.751 78.6787L103.882 78.4664L103.684 77.5977L103.486 78.4664L102.617 78.6787Z" fill="white"/>
  <path d="M74.2826 107.344C74.3451 107.35 74.403 107.38 74.4451 107.427C74.4872 107.473 74.5104 107.534 74.5104 107.597C74.5104 107.66 74.4872 107.721 74.4451 107.767C74.403 107.814 74.3451 107.844 74.2826 107.85C74.22 107.844 74.1621 107.814 74.12 107.767C74.078 107.721 74.0547 107.66 74.0547 107.597C74.0547 107.534 74.078 107.473 74.12 107.427C74.1621 107.38 74.22 107.35 74.2826 107.344Z" fill="white"/>
  <path d="M119.333 59.9727C119.396 59.9793 119.454 60.0088 119.496 60.0556C119.538 60.1023 119.561 60.163 119.561 60.2259C119.561 60.2888 119.538 60.3495 119.496 60.3963C119.454 60.4431 119.396 60.4726 119.333 60.4792C119.271 60.4726 119.213 60.4431 119.171 60.3963C119.129 60.3495 119.105 60.2888 119.105 60.2259C119.105 60.163 119.129 60.1023 119.171 60.0556C119.213 60.0088 119.271 59.9793 119.333 59.9727Z" fill="white"/>
  <path d="M97.787 81.2539C97.8538 81.2539 97.9179 81.2804 97.9651 81.3277C98.0123 81.3749 98.0389 81.439 98.0389 81.5058C98.0389 81.5726 98.0123 81.6366 97.9651 81.6839C97.9179 81.7311 97.8538 81.7576 97.787 81.7576C97.7202 81.7576 97.6562 81.7311 97.6089 81.6839C97.5617 81.6366 97.5352 81.5726 97.5352 81.5058C97.5352 81.439 97.5617 81.3749 97.6089 81.3277C97.6562 81.2804 97.7202 81.2539 97.787 81.2539Z" fill="white"/>
  <path d="M60.3261 105.449C60.3929 105.449 60.4569 105.476 60.5042 105.523C60.5514 105.57 60.5779 105.634 60.5779 105.701C60.5779 105.768 60.5514 105.832 60.5042 105.879C60.4569 105.926 60.3929 105.953 60.3261 105.953C60.2593 105.953 60.1952 105.926 60.148 105.879C60.1008 105.832 60.0742 105.768 60.0742 105.701C60.0742 105.634 60.1008 105.57 60.148 105.523C60.1952 105.476 60.2593 105.449 60.3261 105.449Z" fill="white"/>
  <path d="M144.646 108.797C144.708 108.803 144.766 108.833 144.808 108.88C144.85 108.927 144.874 108.987 144.874 109.05C144.874 109.113 144.85 109.174 144.808 109.221C144.766 109.267 144.708 109.297 144.646 109.303C144.583 109.297 144.525 109.267 144.483 109.221C144.441 109.174 144.418 109.113 144.418 109.05C144.418 108.987 144.441 108.927 144.483 108.88C144.525 108.833 144.583 108.803 144.646 108.797Z" fill="white"/>
  <path d="M131.357 63.2852C131.424 63.2852 131.488 63.3117 131.535 63.3589C131.583 63.4062 131.609 63.4702 131.609 63.537C131.609 63.6038 131.583 63.6679 131.535 63.7151C131.488 63.7623 131.424 63.7889 131.357 63.7889C131.291 63.7889 131.226 63.7623 131.179 63.7151C131.132 63.6679 131.105 63.6038 131.105 63.537C131.105 63.4702 131.132 63.4062 131.179 63.3589C131.226 63.3117 131.291 63.2852 131.357 63.2852Z" fill="white"/>
  <path d="M80.608 102.801C80.6553 102.801 80.7006 102.82 80.734 102.853C80.7675 102.886 80.7863 102.932 80.7863 102.979C80.7863 103.026 80.7675 103.072 80.734 103.105C80.7006 103.139 80.6553 103.157 80.608 103.157C80.5607 103.157 80.5153 103.139 80.4819 103.105C80.4485 103.072 80.4297 103.026 80.4297 102.979C80.4297 102.932 80.4485 102.886 80.4819 102.853C80.5153 102.82 80.5607 102.801 80.608 102.801Z" fill="white"/>
  <path d="M44.932 10.0273C44.9757 10.0328 45.016 10.0541 45.0452 10.0872C45.0744 10.1203 45.0905 10.1629 45.0905 10.207C45.0905 10.2512 45.0744 10.2938 45.0452 10.3269C45.016 10.3599 44.9757 10.3812 44.932 10.3867C44.8882 10.3812 44.8479 10.3599 44.8187 10.3269C44.7895 10.2938 44.7734 10.2512 44.7734 10.207C44.7734 10.1629 44.7895 10.1203 44.8187 10.0872C44.8479 10.0541 44.8882 10.0328 44.932 10.0273Z" fill="white"/>
  <path d="M113.846 67.457C113.894 67.457 113.939 67.4758 113.972 67.5092C114.006 67.5427 114.025 67.588 114.025 67.6353C114.025 67.6826 114.006 67.7279 113.972 67.7614C113.939 67.7948 113.894 67.8136 113.846 67.8136C113.799 67.8136 113.754 67.7948 113.72 67.7614C113.687 67.7279 113.668 67.6826 113.668 67.6353C113.668 67.588 113.687 67.5427 113.72 67.5092C113.754 67.4758 113.799 67.457 113.846 67.457Z" fill="white"/>
  <path d="M105.213 82.918C105.261 82.918 105.306 82.9367 105.34 82.9702C105.373 83.0036 105.392 83.049 105.392 83.0963C105.392 83.1435 105.373 83.1889 105.34 83.2223C105.306 83.2558 105.261 83.2745 105.213 83.2745C105.166 83.2745 105.121 83.2558 105.087 83.2223C105.054 83.1889 105.035 83.1435 105.035 83.0963C105.035 83.049 105.054 83.0036 105.087 82.9702C105.121 82.9367 105.166 82.918 105.213 82.918Z" fill="white"/>
  <path d="M91.0687 79.9023C91.1125 79.9078 91.1527 79.9291 91.1819 79.9622C91.2111 79.9953 91.2272 80.0379 91.2272 80.082C91.2272 80.1262 91.2111 80.1688 91.1819 80.2019C91.1527 80.2349 91.1125 80.2562 91.0687 80.2617C91.0249 80.2562 90.9846 80.2349 90.9555 80.2019C90.9263 80.1688 90.9102 80.1262 90.9102 80.082C90.9102 80.0379 90.9263 79.9953 90.9555 79.9622C90.9846 79.9291 91.0249 79.9078 91.0687 79.9023Z" fill="white"/>
  <path d="M107.789 64.2109C107.917 64.2109 108.04 64.2619 108.131 64.3527C108.222 64.4434 108.273 64.5665 108.273 64.6948C108.273 64.8232 108.222 64.9463 108.131 65.037C108.04 65.1278 107.917 65.1788 107.789 65.1788C107.66 65.1788 107.537 65.1278 107.446 65.037C107.356 64.9463 107.305 64.8232 107.305 64.6948C107.305 64.5665 107.356 64.4434 107.446 64.3527C107.537 64.2619 107.66 64.2109 107.789 64.2109Z" fill="white"/>
  <path d="M83.0039 15.3078L84.5632 15.5965L84.9113 17.2378L85.2593 15.5965L86.8186 15.3078L85.265 14.9286L84.9113 13.375L84.5547 14.9286L83.0039 15.3078Z" fill="white"/>
  <path d="M88.9414 1.08103L89.813 1.24233L90.0083 2.15922L90.2035 1.24233L91.0723 1.08103L90.2064 0.868782L90.0083 0L89.8102 0.868782L88.9414 1.08103Z" fill="white"/>
  <path d="M36.119 24.6523C36.1858 24.6523 36.2499 24.6789 36.2971 24.7261C36.3444 24.7733 36.3709 24.8374 36.3709 24.9042C36.3709 24.971 36.3444 25.0351 36.2971 25.0823C36.2499 25.1295 36.1858 25.1561 36.119 25.1561C36.0523 25.1561 35.9882 25.1295 35.941 25.0823C35.8937 25.0351 35.8672 24.971 35.8672 24.9042C35.8672 24.8374 35.8937 24.7733 35.941 24.7261C35.9882 24.6789 36.0523 24.6523 36.119 24.6523Z" fill="white"/>
  <path d="M40.0951 91.6367C40.1576 91.6433 40.2155 91.6729 40.2576 91.7196C40.2997 91.7664 40.323 91.8271 40.323 91.89C40.323 91.9529 40.2997 92.0136 40.2576 92.0603C40.2155 92.1071 40.1576 92.1366 40.0951 92.1433C40.0325 92.1366 39.9746 92.1071 39.9325 92.0603C39.8905 92.0136 39.8672 91.9529 39.8672 91.89C39.8672 91.8271 39.8905 91.7664 39.9325 91.7196C39.9746 91.6729 40.0325 91.6433 40.0951 91.6367Z" fill="white"/>
  <path d="M33.2513 104.176C33.3139 104.182 33.3718 104.212 33.4138 104.259C33.4559 104.305 33.4792 104.366 33.4792 104.429C33.4792 104.492 33.4559 104.553 33.4138 104.599C33.3718 104.646 33.3139 104.676 33.2513 104.682C33.1888 104.676 33.1309 104.646 33.0888 104.599C33.0467 104.553 33.0234 104.492 33.0234 104.429C33.0234 104.366 33.0467 104.305 33.0888 104.259C33.1309 104.212 33.1888 104.182 33.2513 104.176Z" fill="white"/>
  <path d="M46.1888 45.8281C46.2514 45.8347 46.3093 45.8643 46.3513 45.911C46.3934 45.9578 46.4167 46.0185 46.4167 46.0814C46.4167 46.1443 46.3934 46.205 46.3513 46.2518C46.3093 46.2985 46.2514 46.3281 46.1888 46.3347C46.1263 46.3281 46.0684 46.2985 46.0263 46.2518C45.9842 46.205 45.9609 46.1443 45.9609 46.0814C45.9609 46.0185 45.9842 45.9578 46.0263 45.911C46.0684 45.8643 46.1263 45.8347 46.1888 45.8281Z" fill="white"/>
  <path d="M33.2513 2.23438C33.3139 2.241 33.3718 2.27054 33.4138 2.3173C33.4559 2.36406 33.4792 2.42475 33.4792 2.48765C33.4792 2.55056 33.4559 2.61124 33.4138 2.658C33.3718 2.70477 33.3139 2.73431 33.2513 2.74093C33.1888 2.73431 33.1309 2.70477 33.0888 2.658C33.0467 2.61124 33.0234 2.55056 33.0234 2.48765C33.0234 2.42475 33.0467 2.36406 33.0888 2.3173C33.1309 2.27054 33.1888 2.241 33.2513 2.23438Z" fill="white"/>
  <path d="M56.182 79.5977C56.2257 79.6032 56.266 79.6245 56.2952 79.6575C56.3244 79.6906 56.3405 79.7332 56.3405 79.7774C56.3405 79.8215 56.3244 79.8641 56.2952 79.8972C56.266 79.9303 56.2257 79.9516 56.182 79.9571C56.1382 79.9516 56.0979 79.9303 56.0687 79.8972C56.0395 79.8641 56.0234 79.8215 56.0234 79.7774C56.0234 79.7332 56.0395 79.6906 56.0687 79.6575C56.0979 79.6245 56.1382 79.6032 56.182 79.5977Z" fill="white"/>
  <path d="M93.8697 102.5C93.917 102.5 93.9623 102.519 93.9958 102.552C94.0292 102.586 94.048 102.631 94.048 102.678C94.048 102.726 94.0292 102.771 93.9958 102.804C93.9623 102.838 93.917 102.857 93.8697 102.857C93.8224 102.857 93.7771 102.838 93.7436 102.804C93.7102 102.771 93.6914 102.726 93.6914 102.678C93.6914 102.631 93.7102 102.586 93.7436 102.552C93.7771 102.519 93.8224 102.5 93.8697 102.5Z" fill="white"/>
  <path d="M120.401 20.7578C120.444 20.7633 120.485 20.7846 120.514 20.8177C120.543 20.8508 120.559 20.8934 120.559 20.9375C120.559 20.9816 120.543 21.0242 120.514 21.0573C120.485 21.0904 120.444 21.1117 120.401 21.1172C120.357 21.1117 120.317 21.0904 120.287 21.0573C120.258 21.0242 120.242 20.9816 120.242 20.9375C120.242 20.8934 120.258 20.8508 120.287 20.8177C120.317 20.7846 120.357 20.7633 120.401 20.7578Z" fill="white"/>
  <path d="M88.1275 9.81641C88.1748 9.81641 88.2201 9.83519 88.2536 9.86863C88.287 9.90206 88.3058 9.94741 88.3058 9.99469C88.3058 10.042 88.287 10.0873 88.2536 10.1208C88.2201 10.1542 88.1748 10.173 88.1275 10.173C88.0802 10.173 88.0349 10.1542 88.0014 10.1208C87.968 10.0873 87.9492 10.042 87.9492 9.99469C87.9492 9.94741 87.968 9.90206 88.0014 9.86863C88.0349 9.83519 88.0802 9.81641 88.1275 9.81641Z" fill="white"/>
  <path d="M77.4136 73.25C77.5419 73.25 77.665 73.301 77.7558 73.3917C77.8465 73.4825 77.8975 73.6056 77.8975 73.7339C77.8975 73.8623 77.8465 73.9853 77.7558 74.0761C77.665 74.1668 77.5419 74.2178 77.4136 74.2178C77.2853 74.2178 77.1622 74.1668 77.0714 74.0761C76.9807 73.9853 76.9297 73.8623 76.9297 73.7339C76.9297 73.6056 76.9807 73.4825 77.0714 73.3917C77.1622 73.301 77.2853 73.25 77.4136 73.25Z" fill="white"/>
  <path d="M141.18 36.668C141.302 36.6773 141.417 36.7325 141.5 36.8225C141.583 36.9125 141.63 37.0306 141.63 37.1533C141.63 37.276 141.583 37.3941 141.5 37.4841C141.417 37.5741 141.302 37.6293 141.18 37.6386C141.058 37.6293 140.944 37.5741 140.86 37.4841C140.777 37.3941 140.73 37.276 140.73 37.1533C140.73 37.0306 140.777 36.9125 140.86 36.8225C140.944 36.7325 141.058 36.6773 141.18 36.668Z" fill="white"/>
  <path d="M42.1011 79.1133C42.2294 79.1133 42.3525 79.1643 42.4433 79.255C42.534 79.3458 42.585 79.4689 42.585 79.5972C42.585 79.7255 42.534 79.8486 42.4433 79.9394C42.3525 80.0301 42.2294 80.0811 42.1011 80.0811C41.9728 80.0811 41.8497 80.0301 41.7589 79.9394C41.6682 79.8486 41.6172 79.7255 41.6172 79.5972C41.6172 79.4689 41.6682 79.3458 41.7589 79.255C41.8497 79.1643 41.9728 79.1133 42.1011 79.1133Z" fill="white"/>
  <path d="M82.7734 60.4834L83.6451 60.6447L83.8403 61.5616L84.0356 60.6447L84.9072 60.4834L84.0384 60.2711L83.8403 59.4023L83.6422 60.2711L82.7734 60.4834Z" fill="white"/>
  <path d="M101.285 104.421L102.157 104.582L102.352 105.499L102.544 104.582L103.416 104.418L102.55 104.209L102.352 103.34L102.151 104.209L101.285 104.421Z" fill="white"/>
  <path d="M105.146 93.1055C105.208 93.1121 105.266 93.1416 105.308 93.1884C105.35 93.2352 105.374 93.2958 105.374 93.3587C105.374 93.4216 105.35 93.4823 105.308 93.5291C105.266 93.5759 105.208 93.6054 105.146 93.612C105.083 93.6054 105.025 93.5759 104.983 93.5291C104.941 93.4823 104.918 93.4216 104.918 93.3587C104.918 93.2958 104.941 93.2352 104.983 93.1884C105.025 93.1416 105.083 93.1121 105.146 93.1055Z" fill="white"/>
  <path d="M114.982 86.3867C115.044 86.3933 115.102 86.4229 115.144 86.4696C115.186 86.5164 115.21 86.5771 115.21 86.64C115.21 86.7029 115.186 86.7636 115.144 86.8103C115.102 86.8571 115.044 86.8866 114.982 86.8933C114.919 86.8866 114.861 86.8571 114.819 86.8103C114.777 86.7636 114.754 86.7029 114.754 86.64C114.754 86.5771 114.777 86.5164 114.819 86.4696C114.861 86.4229 114.919 86.3933 114.982 86.3867Z" fill="white"/>
  <path d="M83.8477 97.9834L84.7193 98.1447L84.9145 99.0644L85.1098 98.1447L85.9814 97.9834L85.1126 97.7711L84.9145 96.9023L84.7164 97.7711L83.8477 97.9834Z" fill="white"/>
  <path d="M119.708 16.6406C119.771 16.6472 119.829 16.6768 119.871 16.7235C119.913 16.7703 119.936 16.831 119.936 16.8939C119.936 16.9568 119.913 17.0175 119.871 17.0643C119.829 17.111 119.771 17.1406 119.708 17.1472C119.646 17.1406 119.588 17.111 119.546 17.0643C119.504 17.0175 119.48 16.9568 119.48 16.8939C119.48 16.831 119.504 16.7703 119.546 16.7235C119.588 16.6768 119.646 16.6472 119.708 16.6406Z" fill="white"/>
  <path d="M125.784 87.1953C125.831 87.1953 125.876 87.2141 125.91 87.2475C125.943 87.281 125.962 87.3263 125.962 87.3736C125.962 87.4209 125.943 87.4662 125.91 87.4997C125.876 87.5331 125.831 87.5519 125.784 87.5519C125.736 87.5519 125.691 87.5331 125.658 87.4997C125.624 87.4662 125.605 87.4209 125.605 87.3736C125.605 87.3263 125.624 87.281 125.658 87.2475C125.691 87.2141 125.736 87.1953 125.784 87.1953Z" fill="white"/>
  <path d="M49.7617 56.8076L50.6333 56.9689L50.8258 57.8858L51.021 56.9689L51.8926 56.8076L51.0267 56.5953L50.8258 55.7266L50.6277 56.5953L49.7617 56.8076Z" fill="white"/>
  <path d="M39.6815 70.707C39.7483 70.707 39.8124 70.7336 39.8596 70.7808C39.9069 70.828 39.9334 70.8921 39.9334 70.9589C39.9334 71.0257 39.9069 71.0898 39.8596 71.137C39.8124 71.1842 39.7483 71.2108 39.6815 71.2108C39.6148 71.2108 39.5507 71.1842 39.5035 71.137C39.4562 71.0898 39.4297 71.0257 39.4297 70.9589C39.4297 70.8921 39.4562 70.828 39.5035 70.7808C39.5507 70.7336 39.6148 70.707 39.6815 70.707Z" fill="white"/>
  <path d="M74.5136 52.1055C74.5804 52.1055 74.6444 52.132 74.6917 52.1792C74.7389 52.2265 74.7654 52.2905 74.7654 52.3573C74.7654 52.4241 74.7389 52.4882 74.6917 52.5354C74.6444 52.5827 74.5804 52.6092 74.5136 52.6092C74.4468 52.6092 74.3827 52.5827 74.3355 52.5354C74.2883 52.4882 74.2617 52.4241 74.2617 52.3573C74.2617 52.2905 74.2883 52.2265 74.3355 52.1792C74.3827 52.132 74.4468 52.1055 74.5136 52.1055Z" fill="white"/>
  <path d="M44.932 26.5898C44.9757 26.5953 45.016 26.6166 45.0452 26.6497C45.0744 26.6828 45.0905 26.7254 45.0905 26.7695C45.0905 26.8137 45.0744 26.8563 45.0452 26.8894C45.016 26.9224 44.9757 26.9437 44.932 26.9492C44.8882 26.9437 44.8479 26.9224 44.8187 26.8894C44.7895 26.8563 44.7734 26.8137 44.7734 26.7695C44.7734 26.7254 44.7895 26.6828 44.8187 26.6497C44.8479 26.6166 44.8882 26.5953 44.932 26.5898Z" fill="white"/>
  <path d="M42.6441 24.9375C42.7724 24.9375 42.8955 24.9885 42.9862 25.0792C43.077 25.17 43.128 25.2931 43.128 25.4214C43.128 25.5498 43.077 25.6728 42.9862 25.7636C42.8955 25.8543 42.7724 25.9053 42.6441 25.9053C42.5157 25.9053 42.3926 25.8543 42.3019 25.7636C42.2111 25.6728 42.1602 25.5498 42.1602 25.4214C42.1602 25.2931 42.2111 25.17 42.3019 25.0792C42.3926 24.9885 42.5157 24.9375 42.6441 24.9375Z" fill="white"/>
  <path d="M141.652 3.56641C141.78 3.56641 141.903 3.61739 141.994 3.70814C142.085 3.79889 142.136 3.92198 142.136 4.05032C142.136 4.17866 142.085 4.30175 141.994 4.3925C141.903 4.48325 141.78 4.53424 141.652 4.53424C141.524 4.53424 141.4 4.48325 141.31 4.3925C141.219 4.30175 141.168 4.17866 141.168 4.05032C141.168 3.92198 141.219 3.79889 141.31 3.70814C141.4 3.61739 141.524 3.56641 141.652 3.56641Z" fill="white"/>
  <path d="M182.516 101.748C186.22 98.2517 186.389 92.4147 182.893 88.7102C179.398 85.0057 173.561 84.8365 169.856 88.3323C166.152 91.8282 165.982 97.6652 169.478 101.37C172.974 105.074 178.811 105.243 182.516 101.748Z" fill="#26435F"/>
  <path d="M167.605 98.4299C168.402 97.6175 169.322 96.9357 170.331 96.4093C172.088 95.4584 176.972 94.1822 179.174 92.838C182.27 90.9504 182.53 89.1591 182.44 88.2592C181.565 87.4576 180.545 86.8312 179.434 86.4141C179.279 87.3621 178.648 90.3307 173.443 92.6399C170.755 93.8369 168.067 93.3983 167.138 93.2511C166.792 94.9863 166.955 96.7845 167.605 98.4299Z" fill="#26435F"/>
  <path d="M171.762 103.139C173.619 104.151 175.766 104.496 177.847 104.115C179.927 103.734 181.814 102.652 183.192 101.048C182.649 100.805 182.079 100.63 181.494 100.524C178.972 100.122 176.346 101.526 175.398 102.163C174.342 102.913 173.052 103.259 171.762 103.139Z" fill="#26435F"/>
  <path d="M168.262 99.7673L168.395 99.9824L168.519 100.172C168.615 100.316 168.712 100.455 168.802 100.594C168.893 100.732 168.992 100.837 169.085 100.953L169.196 101.083L169.323 101.228C169.365 101.276 169.408 101.324 169.453 101.369L169.612 101.533L169.77 101.692L169.912 101.825C170.016 101.921 170.124 102.014 170.231 102.108C170.817 102.235 171.578 102.108 172.662 101.564C174.281 100.775 175.953 99.0542 179.086 97.6336C181.022 96.774 183.158 96.4646 185.258 96.7393C185.609 94.8669 185.37 92.9317 184.573 91.2012C183.985 91.2266 182.114 91.6483 178.348 95.2989C177.18 96.4653 175.895 97.5085 174.513 98.4118C171.216 100.492 169.181 100.11 168.318 99.7673H168.262Z" fill="#26435F"/>
  <path d="M176.631 89.7276C176.829 90.087 177.412 90.1465 177.936 89.8606C178.459 89.5748 178.72 89.0484 178.524 88.6891C178.329 88.3297 177.743 88.2731 177.22 88.5589C176.696 88.8447 176.436 89.3541 176.631 89.7276Z" fill="#26435F"/>
  <path d="M179.289 90.1346C179.399 90.3355 179.744 90.361 180.058 90.1883C180.372 90.0157 180.534 89.7129 180.423 89.512C180.313 89.3111 179.968 89.2828 179.654 89.4554C179.34 89.628 179.178 89.9308 179.289 90.1346Z" fill="#26435F"/>
  <path d="M173.19 102.061C173.36 102.369 173.867 102.414 174.322 102.162C174.778 101.911 175.013 101.461 174.846 101.152C174.679 100.844 174.17 100.801 173.714 101.05C173.258 101.299 173.024 101.755 173.19 102.061Z" fill="#26435F"/>
  <path d="M174.91 102.224C174.932 102.318 174.982 102.402 175.055 102.466C175.127 102.53 175.218 102.569 175.314 102.579C175.41 102.588 175.507 102.567 175.59 102.519C175.674 102.47 175.74 102.397 175.78 102.309C175.819 102.221 175.83 102.122 175.811 102.028C175.792 101.933 175.744 101.847 175.673 101.781C175.602 101.716 175.513 101.674 175.417 101.662C175.321 101.65 175.224 101.668 175.139 101.714C175.043 101.753 174.965 101.828 174.922 101.923C174.88 102.018 174.875 102.125 174.91 102.224Z" fill="#26435F"/>
  <path d="M175.104 101.348C175.146 101.397 175.205 101.429 175.269 101.437C175.333 101.445 175.397 101.428 175.45 101.39C175.588 101.314 175.656 101.172 175.602 101.076C175.561 101.026 175.501 100.994 175.437 100.986C175.372 100.978 175.307 100.995 175.254 101.033C175.119 101.11 175.051 101.251 175.104 101.348Z" fill="#26435F"/>
  <path d="M180.839 100.801C180.989 101.084 181.405 101.135 181.773 100.934C182.141 100.733 182.314 100.348 182.164 100.085C182.014 99.8216 181.598 99.7508 181.23 99.9518C180.862 100.153 180.689 100.526 180.839 100.801Z" fill="#26435F"/>
  <path d="M180.505 99.571C180.533 99.6394 180.581 99.6978 180.643 99.7384C180.705 99.7791 180.777 99.8 180.851 99.7984C180.925 99.7968 180.997 99.7729 181.057 99.7297C181.117 99.6865 181.162 99.6261 181.187 99.5565C181.212 99.4869 181.215 99.4114 181.196 99.3399C181.177 99.2684 181.137 99.2044 181.081 99.1563C181.025 99.1082 180.956 99.0782 180.882 99.0704C180.809 99.0626 180.734 99.0773 180.67 99.1125C180.587 99.1517 180.524 99.222 180.493 99.3079C180.462 99.3938 180.467 99.4884 180.505 99.571Z" fill="#26435F"/>
  <path d="M168.814 100.592C174.53 99.382 180.096 97.5466 185.411 95.1193C189.543 93.1779 192.093 91.3187 191.747 90.2688C191.402 89.2189 188.303 89.2047 183.937 90.0452C184.056 90.2292 184.166 90.4159 184.274 90.6112C184.313 90.6848 184.35 90.7584 184.39 90.8291C186.713 90.532 188.252 90.6678 188.462 91.3074C188.671 91.9469 187.477 93.0053 185.369 94.1599C182.704 95.5592 179.921 96.7202 177.052 97.6294C174.196 98.5987 171.26 99.3137 168.279 99.766C165.905 100.08 164.317 99.9471 164.113 99.299C163.91 98.651 165.061 97.6435 167.096 96.5087C167.045 96.1995 167.011 95.8878 166.994 95.5749C162.868 97.5105 160.282 99.4349 160.638 100.482C160.995 101.529 164.224 101.518 168.814 100.592Z" fill="#26435F"/>
  <path d="M169.341 101.224C172.096 100.634 174.82 99.9008 177.499 99.0283C180.169 98.174 182.793 97.1832 185.361 96.0597C191.1 93.5128 194.765 90.9178 194.286 89.4293C193.808 87.9407 189.396 87.9719 183.352 89.2312C183.439 89.3415 183.527 89.4547 183.612 89.5708C188.689 88.5973 192.328 88.651 192.738 89.9273C193.149 91.2036 190.172 93.4194 185.398 95.6211C182.791 96.8033 180.118 97.8333 177.392 98.7057C174.657 99.5962 171.872 100.326 169.052 100.89C163.916 101.887 160.226 101.838 159.812 100.551C159.399 99.2632 162.303 97.1181 166.966 94.9476C166.966 94.8033 166.966 94.6646 166.983 94.5146C161.363 97.0191 157.792 99.5802 158.264 101.052C158.737 102.523 163.225 102.509 169.341 101.224Z" fill="#26435F"/>
  <path d="M9.65871 71.0985C12.503 70.1275 14.0216 67.0345 13.0505 64.1902C12.0795 61.3459 8.98653 59.8274 6.14224 60.7984C3.29794 61.7695 1.77938 64.8624 2.75042 67.7067C3.72147 70.551 6.81442 72.0696 9.65871 71.0985Z" fill="#EBEBEB"/>
  <path d="M13.1102 67.527C12.6032 67.0874 12.0302 66.7303 11.4122 66.4687C10.334 65.9932 7.39941 65.4725 6.03539 64.7849C4.1252 63.8227 3.88749 62.7841 3.89881 62.2379C4.37385 61.7243 4.94367 61.3072 5.57694 61.0098C5.71278 61.5588 6.22499 63.2737 9.39732 64.4057C11.0358 64.9716 12.6036 64.5981 13.1356 64.4679C13.4214 65.4689 13.4126 66.531 13.1102 67.527Z" fill="#DBDBDB"/>
  <path d="M10.8893 70.4974C9.84588 71.1828 8.59864 71.4887 7.35651 71.364C6.11438 71.2394 4.95282 70.6916 4.06641 69.8126C4.37467 69.6437 4.70259 69.5135 5.04272 69.4249C6.50579 69.0683 8.11601 69.7673 8.70463 70.0984C9.3618 70.4882 10.1368 70.6297 10.8893 70.4974Z" fill="#DBDBDB"/>
  <path d="M12.776 68.3443L12.7081 68.4744C12.6883 68.5169 12.6657 68.5537 12.643 68.5933C12.594 68.6838 12.543 68.7716 12.4902 68.8565C12.4421 68.9329 12.3912 69.0065 12.3402 69.08L12.2808 69.1621L12.2101 69.2442L12.1393 69.3347C12.1129 69.3687 12.0846 69.4026 12.0544 69.4366C12.0242 69.4706 11.9959 69.5045 11.9695 69.5385L11.8903 69.6234C11.8337 69.6856 11.7771 69.7451 11.7177 69.8045C11.3809 69.9092 10.9253 69.8639 10.2631 69.6007C9.27261 69.213 8.20857 68.2792 6.30121 67.5943C5.1251 67.1823 3.85842 67.101 2.6393 67.3594C2.34423 66.2752 2.39368 65.126 2.7808 64.0711C3.12605 64.0569 4.24669 64.2154 6.62948 66.185C7.37252 66.8131 8.17753 67.364 9.03207 67.8292C11.0724 68.8961 12.2497 68.5791 12.7421 68.3329H12.776V68.3443Z" fill="#DBDBDB"/>
  <path d="M7.61173 70.3918C7.70795 70.171 8.04754 70.1088 8.37015 70.2474C8.69276 70.3861 8.87387 70.6804 8.77765 70.9012C8.68144 71.1219 8.34185 71.1841 8.01924 71.0483C7.69663 70.9125 7.51552 70.6153 7.61173 70.3918Z" fill="white"/>
  <path d="M9.14911 70.0033C9.20288 69.8788 9.40381 69.8476 9.59907 69.9325C9.79434 70.0174 9.9047 70.1844 9.85094 70.3089C9.79717 70.4334 9.59341 70.4674 9.40098 70.3825C9.20855 70.2976 9.09818 70.1306 9.14911 70.0033Z" fill="white"/>
  <path d="M4.92974 63.3181C5.01181 63.1313 5.30612 63.0747 5.58911 63.1993C5.8721 63.3238 6.03341 63.5756 5.94851 63.7652C5.86361 63.9548 5.57213 64.0086 5.28914 63.8841C5.00615 63.7596 4.85334 63.5077 4.92974 63.3181Z" fill="white"/>
  <path d="M5.92978 63.1333C5.96249 63.0813 6.01429 63.0442 6.07408 63.0299C6.13386 63.0156 6.19687 63.0253 6.24957 63.0569C6.30743 63.0747 6.35633 63.1139 6.38631 63.1665C6.41628 63.2191 6.42506 63.2811 6.41087 63.3399C6.37063 63.3794 6.31952 63.406 6.26408 63.4162C6.20865 63.4265 6.15142 63.4199 6.09973 63.3974C6.04804 63.3749 6.00425 63.3375 5.97398 63.2899C5.9437 63.2424 5.92831 63.1869 5.92978 63.1305V63.1333Z" fill="white"/>
  <path d="M6.10159 63.6346C6.1234 63.6033 6.15632 63.5814 6.19364 63.5736C6.23097 63.5657 6.2699 63.5723 6.30251 63.5921C6.38741 63.6289 6.43269 63.7081 6.40722 63.7676C6.38631 63.7999 6.35356 63.8227 6.31599 63.8312C6.27843 63.8397 6.23905 63.8331 6.20629 63.8128C6.1693 63.8022 6.1378 63.7778 6.11831 63.7446C6.09882 63.7114 6.09283 63.672 6.10159 63.6346Z" fill="white"/>
  <path d="M9.49225 63.6511C9.50382 63.5545 9.5454 63.4641 9.61113 63.3925C9.67687 63.3209 9.76343 63.2717 9.85861 63.2519C9.95379 63.2321 10.0528 63.2427 10.1416 63.2822C10.2304 63.3217 10.3046 63.3881 10.3537 63.472C10.4028 63.5559 10.4242 63.6531 10.4151 63.7499C10.406 63.8467 10.3667 63.9382 10.3028 64.0114C10.2389 64.0847 10.1536 64.136 10.0589 64.1582C9.96426 64.1803 9.86504 64.1722 9.77524 64.135C9.67433 64.1071 9.58828 64.0409 9.53543 63.9505C9.48258 63.8601 9.46708 63.7527 9.49225 63.6511Z" fill="white"/>
  <path d="M9.36157 64.392C9.3863 64.3427 9.429 64.3049 9.48085 64.2862C9.53269 64.2675 9.58974 64.2694 9.6402 64.2916C9.69067 64.3137 9.73071 64.3544 9.75206 64.4052C9.77341 64.456 9.77443 64.5131 9.75493 64.5646C9.7302 64.6139 9.6875 64.6518 9.63566 64.6704C9.58381 64.6891 9.52677 64.6872 9.4763 64.665C9.42583 64.6429 9.3858 64.6022 9.36445 64.5514C9.3431 64.5006 9.34207 64.4435 9.36157 64.392Z" fill="white"/>
  <path d="M103.35 31.1788C103.149 30.9383 91.5065 25.5388 80.9623 33.5843C71.2698 40.9817 67.9051 54.885 69.1927 55.2189C70.7689 55.6264 75.0874 48.9931 83.3762 45.3454C86.3165 44.0521 90.9943 45.3454 90.9943 45.3454L103.35 31.1788Z" fill="#26435F"/>
  <path opacity="0.1" d="M91.0105 45.3426C89.6224 44.9895 88.1978 44.7995 86.7656 44.7766C88.5937 40.9506 92.0066 33.8135 94.2224 29.1895C99.438 29.2376 103.258 31.0459 103.374 31.1704L91.0105 45.3426Z" fill="#26435F"/>
  <path d="M122.528 53.7988C122.732 54.0365 126.156 66.4061 116.492 75.4901C107.609 83.844 93.3436 84.8882 93.2248 83.5638C93.0805 81.9423 100.334 78.7671 105.286 71.1858C107.04 68.4974 106.534 63.6695 106.534 63.6695L122.528 53.7988Z" fill="#26435F"/>
  <path opacity="0.1" d="M122.979 63.2168L106.379 68.0474C106.601 66.5991 106.649 65.1294 106.523 63.6695L122.518 53.7988C122.645 53.9347 123.828 58.0352 122.979 63.2168Z" fill="#26435F"/>
  <path d="M95.4253 68.9218L84.0547 55.5108C84.0547 55.5108 89.9975 39.6096 104.079 28.9295C111.117 23.6008 119.361 19.6135 126.767 16.976C136.968 13.3197 145.503 12.267 146.825 13.8178C148.146 15.3686 145.693 23.6263 140.435 33.098C136.617 39.9492 131.331 47.4428 124.924 53.5158C112.082 65.6731 95.4253 68.9218 95.4253 68.9218Z" fill="white"/>
  <path d="M123.048 47.7706C121.519 49.0686 119.639 49.8838 117.646 50.1131C115.653 50.3424 113.637 49.9754 111.853 49.0587C110.069 48.1419 108.597 46.7166 107.623 44.9629C106.649 43.2093 106.217 41.2062 106.382 39.207C106.547 37.2079 107.301 35.3025 108.549 33.732C109.797 32.1615 111.482 30.9964 113.392 30.3842C115.303 29.772 117.352 29.7401 119.28 30.2926C121.208 30.8451 122.929 31.9571 124.226 33.488C125.961 35.5391 126.812 38.195 126.591 40.8728C126.371 43.5506 125.096 46.0314 123.048 47.7706Z" fill="#A6A6A6"/>
  <path d="M123.607 46.8288C122.077 48.1256 120.197 48.9398 118.205 49.1682C116.212 49.3967 114.197 49.0292 112.414 48.1122C110.63 47.1952 109.158 45.77 108.185 44.0167C107.211 42.2634 106.78 40.2609 106.944 38.2622C107.109 36.2636 107.863 34.3586 109.11 32.7883C110.357 31.2179 112.042 30.0527 113.952 29.44C115.861 28.8272 117.91 28.7945 119.838 29.3459C121.766 29.8973 123.487 31.0081 124.784 32.5377C126.522 34.5893 127.375 37.2471 127.154 39.927C126.933 42.6068 125.657 45.0894 123.607 46.8288Z" fill="#26435F"/>
  <path d="M121.603 44.4544C120.543 45.3556 119.24 45.9222 117.858 46.0823C116.476 46.2425 115.077 45.9891 113.839 45.3543C112.601 44.7194 111.579 43.7315 110.903 42.5157C110.226 41.2999 109.926 39.9107 110.039 38.524C110.152 37.1374 110.674 35.8154 111.539 34.7256C112.404 33.6357 113.573 32.8268 114.897 32.4014C116.222 31.9759 117.643 31.9529 118.981 32.3353C120.319 32.7177 121.513 33.4884 122.412 34.5497C123.617 35.9711 124.209 37.8125 124.057 39.6695C123.905 41.5266 123.023 43.2475 121.603 44.4544Z" fill="white"/>
  <path d="M121.601 44.4551C120.937 45.0201 120.174 45.4568 119.351 45.7427L113.691 45.2815C112.925 44.8663 112.244 44.3115 111.682 43.6458C111.269 43.1624 110.925 42.6244 110.66 42.0469L122.857 43.0402C122.505 43.5671 122.082 44.0431 121.601 44.4551Z" fill="#EBEBEB"/>
  <path d="M123.011 35.3796L111.754 34.4627C111.981 34.2021 112.227 33.959 112.49 33.7354C113.911 32.5299 115.752 31.938 117.61 32.0898C119.467 32.2415 121.188 33.1246 122.394 34.5448C122.621 34.807 122.827 35.086 123.011 35.3796Z" fill="#EBEBEB"/>
  <path d="M123.624 41.5817L110.154 40.4809C110.109 40.2744 110.076 40.0656 110.055 39.8555L123.819 40.9874C123.766 41.1799 123.698 41.3808 123.624 41.5817Z" fill="#EBEBEB"/>
  <path d="M140.434 33.0943L126.766 16.9638C136.967 13.3161 145.502 12.2633 146.824 13.8141C148.146 15.3649 145.703 23.6226 140.434 33.0943Z" fill="#26435F"/>
  <path d="M130.78 18.3326C130.691 18.4085 130.581 18.4563 130.465 18.4699C130.349 18.4835 130.231 18.4623 130.127 18.4089C130.022 18.3556 129.936 18.2725 129.879 18.1702C129.822 18.0679 129.797 17.951 129.807 17.8343C129.816 17.7177 129.86 17.6064 129.933 17.5147C130.006 17.423 130.104 17.355 130.216 17.3193C130.327 17.2835 130.447 17.2817 130.559 17.3139C130.672 17.3462 130.772 17.4112 130.848 17.5006C130.949 17.62 130.998 17.7747 130.986 17.9306C130.973 18.0865 130.899 18.2311 130.78 18.3326Z" fill="white"/>
  <path d="M133.216 21.2035C133.157 21.2555 133.089 21.2951 133.014 21.3201C132.94 21.3451 132.861 21.355 132.782 21.3493C132.704 21.3435 132.628 21.3222 132.557 21.2865C132.487 21.2508 132.425 21.2015 132.374 21.1415C132.324 21.0815 132.285 21.012 132.262 20.937C132.238 20.862 132.23 20.7831 132.237 20.7048C132.244 20.6265 132.267 20.5505 132.304 20.4811C132.341 20.4117 132.391 20.3504 132.452 20.3008C132.572 20.203 132.726 20.1562 132.88 20.1705C133.035 20.1848 133.177 20.2591 133.277 20.3773C133.377 20.4956 133.427 20.6484 133.416 20.8029C133.404 20.9574 133.333 21.1012 133.216 21.2035Z" fill="white"/>
  <path d="M135.645 24.0695C135.555 24.1428 135.445 24.188 135.33 24.1995C135.214 24.211 135.098 24.1883 134.995 24.1342C134.893 24.0801 134.808 23.9969 134.752 23.8952C134.697 23.7934 134.672 23.6775 134.682 23.5619C134.691 23.4462 134.735 23.336 134.807 23.2449C134.878 23.1537 134.976 23.0857 135.086 23.0494C135.196 23.013 135.314 23.0098 135.426 23.0403C135.538 23.0707 135.639 23.1334 135.715 23.2206C135.768 23.2801 135.809 23.3498 135.834 23.4254C135.859 23.5009 135.868 23.5808 135.862 23.6602C135.855 23.7396 135.833 23.8168 135.795 23.8871C135.758 23.9575 135.707 24.0196 135.645 24.0695Z" fill="white"/>
  <path d="M138.084 26.9393C137.994 27.0129 137.885 27.0585 137.769 27.0704C137.654 27.0823 137.537 27.06 137.435 27.0062C137.332 26.9524 137.247 26.8696 137.191 26.768C137.135 26.6664 137.11 26.5506 137.119 26.4349C137.128 26.3192 137.171 26.2088 137.243 26.1175C137.314 26.0261 137.411 25.9578 137.521 25.921C137.632 25.8843 137.75 25.8808 137.862 25.9109C137.974 25.941 138.075 26.0034 138.152 26.0903C138.204 26.1499 138.245 26.2194 138.27 26.2949C138.295 26.3703 138.305 26.45 138.298 26.5292C138.292 26.6085 138.27 26.6856 138.233 26.7561C138.196 26.8266 138.145 26.8889 138.084 26.9393Z" fill="white"/>
  <path d="M140.528 29.8103C140.439 29.8859 140.33 29.9333 140.214 29.9466C140.097 29.9599 139.98 29.9385 139.876 29.8851C139.772 29.8317 139.686 29.7487 139.629 29.6465C139.572 29.5443 139.547 29.4276 139.557 29.3111C139.566 29.1945 139.61 29.0834 139.682 28.9918C139.755 28.9002 139.853 28.8321 139.964 28.7962C140.076 28.7603 140.195 28.7581 140.308 28.79C140.42 28.822 140.521 28.8865 140.596 28.9755C140.647 29.0347 140.685 29.1033 140.709 29.1774C140.733 29.2514 140.742 29.3294 140.736 29.407C140.729 29.4845 140.708 29.5601 140.672 29.6293C140.637 29.6985 140.588 29.76 140.528 29.8103Z" fill="white"/>
  <path d="M87.3243 55.1946C87.2042 55.2924 87.0505 55.3392 86.8962 55.3249C86.7419 55.3106 86.5995 55.2363 86.4994 55.1181C86.3993 54.9998 86.3496 54.847 86.361 54.6925C86.3724 54.538 86.4439 54.3942 86.5602 54.2919C86.6193 54.2399 86.688 54.2003 86.7626 54.1753C86.8371 54.1503 86.9159 54.1404 86.9943 54.1461C87.0727 54.1519 87.1491 54.1732 87.2192 54.2089C87.2892 54.2446 87.3515 54.2939 87.4023 54.3539C87.4531 54.4139 87.4914 54.4834 87.515 54.5584C87.5386 54.6334 87.547 54.7123 87.5397 54.7906C87.5325 54.8689 87.5097 54.9449 87.4727 55.0143C87.4357 55.0837 87.3853 55.145 87.3243 55.1946Z" fill="#A6A6A6"/>
  <path d="M89.7713 58.0643C89.6816 58.1379 89.5722 58.1835 89.4568 58.1954C89.3413 58.2073 89.225 58.185 89.1221 58.1312C89.0193 58.0774 88.9345 57.9946 88.8784 57.893C88.8223 57.7914 88.7973 57.6756 88.8066 57.5599C88.8158 57.4442 88.8589 57.3338 88.9305 57.2424C89.002 57.1511 89.0988 57.0828 89.2089 57.046C89.319 57.0093 89.4375 57.0058 89.5495 57.0359C89.6616 57.066 89.7624 57.1284 89.8392 57.2153C89.8919 57.2749 89.932 57.3444 89.9572 57.4199C89.9823 57.4953 89.992 57.575 89.9857 57.6542C89.9794 57.7335 89.9571 57.8106 89.9203 57.8811C89.8834 57.9516 89.8328 58.0139 89.7713 58.0643Z" fill="#A6A6A6"/>
  <path d="M92.1964 60.9373C92.1072 61.0128 91.9976 61.0603 91.8815 61.0736C91.7653 61.0869 91.6478 61.0655 91.5438 61.0121C91.4399 60.9587 91.354 60.8756 91.2972 60.7734C91.2404 60.6713 91.2151 60.5545 91.2246 60.438C91.2341 60.3215 91.2779 60.2104 91.3505 60.1188C91.4231 60.0271 91.5212 59.959 91.6324 59.9231C91.7437 59.8872 91.8631 59.8851 91.9756 59.917C92.088 59.9489 92.1885 60.0134 92.2643 60.1024C92.3148 60.1617 92.3531 60.2303 92.377 60.3043C92.4009 60.3784 92.4099 60.4564 92.4036 60.5339C92.3973 60.6115 92.3758 60.687 92.3402 60.7562C92.3046 60.8255 92.2558 60.887 92.1964 60.9373Z" fill="#A6A6A6"/>
  <path d="M94.6268 63.8006C94.5371 63.8742 94.4277 63.9198 94.3123 63.9317C94.1968 63.9436 94.0804 63.9213 93.9776 63.8675C93.8747 63.8138 93.79 63.7309 93.7339 63.6294C93.6778 63.5278 93.6528 63.4119 93.662 63.2962C93.6713 63.1806 93.7144 63.0702 93.7859 62.9788C93.8575 62.8874 93.9543 62.8191 94.0644 62.7824C94.1745 62.7456 94.2929 62.7421 94.405 62.7722C94.5171 62.8023 94.6178 62.8647 94.6947 62.9517C94.7474 63.0112 94.7875 63.0808 94.8126 63.1562C94.8378 63.2316 94.8475 63.3113 94.8412 63.3906C94.8348 63.4698 94.8126 63.547 94.7758 63.6174C94.7389 63.6879 94.6883 63.7502 94.6268 63.8006Z" fill="#A6A6A6"/>
  <path d="M97.0627 66.6672C96.9727 66.7405 96.8631 66.7857 96.7477 66.7972C96.6322 66.8087 96.5159 66.7859 96.4133 66.7318C96.3106 66.6777 96.2262 66.5946 96.1704 66.4928C96.1147 66.3911 96.0901 66.2752 96.0997 66.1595C96.1093 66.0439 96.1528 65.9336 96.2246 65.8425C96.2964 65.7514 96.3935 65.6834 96.5037 65.647C96.6139 65.6106 96.7323 65.6075 96.8443 65.6379C96.9563 65.6684 97.0568 65.7311 97.1334 65.8182C97.1863 65.8778 97.2265 65.9475 97.2517 66.023C97.2768 66.0986 97.2864 66.1785 97.2798 66.2579C97.2732 66.3372 97.2505 66.4144 97.2132 66.4848C97.1759 66.5552 97.1247 66.6172 97.0627 66.6672Z" fill="#A6A6A6"/>
  <path opacity="0.2" d="M146.185 13.4158C138.313 13.9818 124.678 18.7474 110.333 29.9991C99.7324 38.3105 91.9982 52.8563 88.3929 60.6244L84.0547 55.5079C84.0547 55.5079 89.9975 39.6066 104.079 28.9265C111.117 23.5978 119.361 19.6105 126.767 16.973C135.91 13.6931 143.712 12.5046 146.185 13.4158Z" fill="white"/>
  <path d="M90.343 71.1028L81.0977 60.1964L84.6945 56.2656L94.8086 68.1965L90.343 71.1028Z" fill="#26435F"/>
  <path opacity="0.1" d="M94.8176 68.1976L92.6414 69.6126L83.3281 57.7694L84.7035 56.2695L94.8176 68.1976Z" fill="#26435F"/>
  <path d="M140.295 34.5527L136.07 34.2697L134.084 38.2939L134.265 33.8113L130.422 32.0341L134.689 32.0766L136.631 28.293L136.529 32.5435L140.295 34.5527Z" fill="#26435F"/>
  <path d="M139.253 18.945L136.89 18.7894L135.78 21.0392L135.882 18.5319L133.734 17.5386L136.12 17.5612L137.204 15.4473L137.147 17.8244L139.253 18.945Z" fill="#26435F"/>
  <path d="M120.147 66.9196L117.787 66.7612L116.678 69.0109L116.777 66.5065L114.629 65.5132L117.015 65.5358L118.101 63.4219L118.042 65.799L120.147 66.9196Z" fill="#26435F"/>
  <path d="M78.116 46.0466L75.753 45.8881L74.6437 48.1379L74.7456 45.6334L72.5977 44.6401L74.9833 44.6628L76.0671 42.5488L76.0105 44.9231L78.116 46.0466Z" fill="#26435F"/>
  <path opacity="0.6" d="M88.3145 68.6717C84.0272 71.561 80.2436 75.2484 77.4816 79.6546C74.6477 84.0829 73.0466 89.1872 72.8434 94.4408C72.7755 97.1039 73.1007 99.7624 73.8084 102.331C74.5367 104.947 75.6385 107.444 77.0798 109.745C78.5557 112.087 80.3256 114.231 82.3463 116.124C84.4029 118.048 86.6523 119.755 89.0588 121.217C86.4632 120.031 83.9974 118.579 81.701 116.885C79.3771 115.162 77.2846 113.148 75.4752 110.891C71.7245 106.221 69.4383 100.546 68.9042 94.5795C68.3722 88.549 69.6456 82.3599 72.2831 76.8388C74.9206 71.3176 78.8626 66.4134 83.5207 62.4062L88.3145 68.6717Z" fill="#26435F"/>
  <path d="M80.9854 75.2436L79.2988 75.5549L78.9224 77.3321L78.546 75.5549L76.8594 75.2408L78.5403 74.8305L78.9224 73.1523L79.3072 74.8305L80.9854 75.2436Z" fill="white"/>
  <path d="M74.779 108.533L73.8367 108.709L73.6273 109.702L73.415 108.709L72.4727 108.533L73.4122 108.304L73.6273 107.367L73.8423 108.304L74.779 108.533Z" fill="white"/>
  <path d="M74.2673 99.907L73.325 100.08L73.1155 101.076L72.9061 100.08L71.9609 99.907L72.9005 99.6778L73.1155 98.7383L73.3306 99.6778L74.2673 99.907Z" fill="white"/>
  <path d="M79.7361 69.7011L78.7937 69.8765L78.5815 70.8698L78.372 69.8765L77.4297 69.7011L78.3692 69.4719L78.5815 68.5352L78.7965 69.4719L79.7361 69.7011Z" fill="white"/>
  <path d="M77.0057 110.682C76.9457 110.698 76.8928 110.733 76.855 110.783C76.8173 110.832 76.7969 110.893 76.7969 110.955C76.7969 111.017 76.8173 111.077 76.855 111.127C76.8928 111.176 76.9457 111.212 77.0057 111.228C77.0656 111.212 77.1185 111.176 77.1563 111.127C77.194 111.077 77.2144 111.017 77.2144 110.955C77.2144 110.893 77.194 110.832 77.1563 110.783C77.1185 110.733 77.0656 110.698 77.0057 110.682Z" fill="white"/>
  <path d="M84.8064 68.3691C84.7465 68.3854 84.6936 68.421 84.6558 68.4704C84.6181 68.5197 84.5977 68.5801 84.5977 68.6422C84.5977 68.7044 84.6181 68.7648 84.6558 68.8141C84.6936 68.8635 84.7465 68.899 84.8064 68.9153C84.8664 68.899 84.9193 68.8635 84.957 68.8141C84.9948 68.7648 85.0152 68.7044 85.0152 68.6422C85.0152 68.5801 84.9948 68.5197 84.957 68.4704C84.9193 68.421 84.8664 68.3854 84.8064 68.3691Z" fill="white"/>
  <path d="M70.0994 92.7383C70.0395 92.7546 69.9865 92.7901 69.9488 92.8395C69.9111 92.8889 69.8906 92.9492 69.8906 93.0114C69.8906 93.0735 69.9111 93.1339 69.9488 93.1832C69.9865 93.2326 70.0395 93.2682 70.0994 93.2845C70.1594 93.2682 70.2123 93.2326 70.25 93.1832C70.2877 93.1339 70.3082 93.0735 70.3082 93.0114C70.3082 92.9492 70.2877 92.8889 70.25 92.8395C70.2123 92.7901 70.1594 92.7546 70.0994 92.7383Z" fill="white"/>
  <path d="M76.5195 109.26C76.4721 109.266 76.4284 109.288 76.3968 109.324C76.3651 109.36 76.3477 109.406 76.3477 109.454C76.3477 109.501 76.3651 109.547 76.3968 109.583C76.4284 109.619 76.4721 109.642 76.5195 109.647C76.5668 109.642 76.6105 109.619 76.6421 109.583C76.6738 109.547 76.6913 109.501 76.6913 109.454C76.6913 109.406 76.6738 109.36 76.6421 109.324C76.6105 109.288 76.5668 109.266 76.5195 109.26Z" fill="white"/>
  <path d="M69.9971 83.1914C69.9461 83.1914 69.8971 83.2117 69.8611 83.2478C69.825 83.2839 69.8047 83.3328 69.8047 83.3838C69.8047 83.4349 69.825 83.4838 69.8611 83.5199C69.8971 83.556 69.9461 83.5763 69.9971 83.5763C70.0482 83.5763 70.0971 83.556 70.1332 83.5199C70.1693 83.4838 70.1896 83.4349 70.1896 83.3838C70.1896 83.3328 70.1693 83.2839 70.1332 83.2478C70.0971 83.2117 70.0482 83.1914 69.9971 83.1914Z" fill="white"/>
  <path d="M71.9605 102.961C71.8279 102.971 71.7039 103.03 71.6134 103.128C71.5229 103.225 71.4727 103.353 71.4727 103.486C71.4727 103.619 71.5229 103.747 71.6134 103.844C71.7039 103.942 71.8279 104.001 71.9605 104.011C72.093 104.001 72.217 103.942 72.3075 103.844C72.398 103.747 72.4482 103.619 72.4482 103.486C72.4482 103.353 72.398 103.225 72.3075 103.128C72.217 103.03 72.093 102.971 71.9605 102.961Z" fill="white"/>
  <path d="M72.4767 81.4141C72.3378 81.4141 72.2046 81.4692 72.1065 81.5674C72.0083 81.6656 71.9531 81.7987 71.9531 81.9376C71.9531 82.0764 72.0083 82.2096 72.1065 82.3078C72.2046 82.406 72.3378 82.4611 72.4767 82.4611C72.6155 82.4611 72.7487 82.406 72.8469 82.3078C72.945 82.2096 73.0002 82.0764 73.0002 81.9376C73.0002 81.7987 72.945 81.6656 72.8469 81.5674C72.7487 81.4692 72.6155 81.4141 72.4767 81.4141Z" fill="white"/>
</svg>