<svg xmlns="http://www.w3.org/2000/svg" width="183" height="114" viewBox="0 0 183 114" fill="none">
  <path d="M119.719 75.3804L121.181 75.6483L121.507 77.1898L121.833 75.6483L123.295 75.3777L121.839 75.0222L121.507 73.5684L121.173 75.0222L119.719 75.3804Z" fill="white"/>
  <path d="M59.418 67.0613L60.8798 67.3319L61.2061 68.8734L61.5324 67.3319L62.9943 67.0613L61.5404 66.7058L61.2061 65.252L60.8745 66.7058L59.418 67.0613Z" fill="white"/>
  <path d="M104.789 50.5933L106.251 50.8639L106.577 52.4026L106.904 50.8639L108.365 50.5933L106.911 50.2351L106.577 48.7812L106.246 50.2351L104.789 50.5933Z" fill="white"/>
  <path d="M133.605 66.3116L134.423 66.4628L134.606 67.3251L134.789 66.4628L135.603 66.3116L134.791 66.1126L134.606 65.3008L134.42 66.1126L133.605 66.3116Z" fill="white"/>
  <path d="M71.625 99.0772L72.4395 99.2284L72.6225 100.091L72.8056 99.2284L73.6227 99.0772L72.8083 98.8782L72.6225 98.0664L72.4368 98.8782L71.625 99.0772Z" fill="white"/>
  <path d="M131.613 27.5525L132.43 27.7037L132.613 28.5633L132.794 27.7037L133.611 27.5499L132.799 27.3535L132.613 26.5391L132.425 27.3535L131.613 27.5525Z" fill="white"/>
  <path d="M35.2578 46.0721L36.0749 46.2233L36.258 47.0829L36.4384 46.2233L37.2556 46.0721L36.4437 45.8731L36.258 45.0586L36.0723 45.8731L35.2578 46.0721Z" fill="white"/>
  <path d="M39.6328 89.9002L40.4499 90.0514L40.633 90.911L40.8134 90.0514L41.6306 89.9002L40.8187 89.7012L40.633 88.8867L40.4446 89.7012L39.6328 89.9002Z" fill="white"/>
  <path d="M128.461 49.3631L129.278 49.5143L129.458 50.3739L129.642 49.5143L130.459 49.3631L129.647 49.1641L129.458 48.3496L129.273 49.1641L128.461 49.3631Z" fill="white"/>
  <path d="M94.0078 77.1905L94.825 77.3417L95.008 78.204L95.1911 77.3417L96.0082 77.1905L95.1937 76.9915L95.008 76.1797L94.8223 76.9915L94.0078 77.1905Z" fill="white"/>
  <path d="M64.2812 8.04666L65.0984 8.19789L65.2814 9.05747L65.4645 8.19789L66.279 8.04666L65.4672 7.84769L65.2814 7.0332L65.0957 7.84769L64.2812 8.04666Z" fill="white"/>
  <path d="M96.25 74.0623L97.0671 74.2135L97.2502 75.0758L97.4333 74.2135L98.2504 74.0623L97.4359 73.8633L97.2502 73.0488L97.0645 73.8633L96.25 74.0623Z" fill="white"/>
  <path d="M69.6902 100.938C69.7488 100.944 69.8031 100.971 69.8426 101.015C69.882 101.059 69.9038 101.116 69.9038 101.175C69.9038 101.234 69.882 101.291 69.8426 101.335C69.8031 101.378 69.7488 101.406 69.6902 101.412C69.6316 101.406 69.5773 101.378 69.5378 101.335C69.4984 101.291 69.4766 101.234 69.4766 101.175C69.4766 101.116 69.4984 101.059 69.5378 101.015C69.5773 100.971 69.6316 100.944 69.6902 100.938Z" fill="white"/>
  <path d="M111.925 56.5273C111.983 56.5336 112.037 56.5612 112.077 56.6051C112.116 56.6489 112.138 56.7058 112.138 56.7648C112.138 56.8238 112.116 56.8807 112.077 56.9245C112.037 56.9683 111.983 56.996 111.925 57.0022C111.866 56.996 111.812 56.9683 111.772 56.9245C111.733 56.8807 111.711 56.8238 111.711 56.7648C111.711 56.7058 111.733 56.6489 111.772 56.6051C111.812 56.5612 111.866 56.5336 111.925 56.5273Z" fill="white"/>
  <path d="M91.7244 76.4766C91.787 76.4766 91.8471 76.5014 91.8914 76.5457C91.9356 76.59 91.9605 76.6501 91.9605 76.7127C91.9605 76.7753 91.9356 76.8354 91.8914 76.8796C91.8471 76.9239 91.787 76.9488 91.7244 76.9488C91.6618 76.9488 91.6017 76.9239 91.5574 76.8796C91.5132 76.8354 91.4883 76.7753 91.4883 76.7127C91.4883 76.6501 91.5132 76.59 91.5574 76.5457C91.6017 76.5014 91.6618 76.4766 91.7244 76.4766Z" fill="white"/>
  <path d="M56.6072 99.1621C56.6698 99.1621 56.7299 99.187 56.7742 99.2313C56.8185 99.2755 56.8433 99.3356 56.8433 99.3982C56.8433 99.4608 56.8185 99.5209 56.7742 99.5652C56.7299 99.6095 56.6698 99.6344 56.6072 99.6344C56.5446 99.6344 56.4845 99.6095 56.4403 99.5652C56.396 99.5209 56.3711 99.4608 56.3711 99.3982C56.3711 99.3356 56.396 99.2755 56.4403 99.2313C56.4845 99.187 56.5446 99.1621 56.6072 99.1621Z" fill="white"/>
  <path d="M135.655 102.301C135.714 102.307 135.768 102.335 135.807 102.379C135.847 102.422 135.869 102.479 135.869 102.538C135.869 102.597 135.847 102.654 135.807 102.698C135.768 102.742 135.714 102.769 135.655 102.776C135.596 102.769 135.542 102.742 135.503 102.698C135.463 102.654 135.441 102.597 135.441 102.538C135.441 102.479 135.463 102.422 135.503 102.379C135.542 102.335 135.596 102.307 135.655 102.301Z" fill="white"/>
  <path d="M123.197 59.6328C123.26 59.6328 123.32 59.6577 123.364 59.702C123.408 59.7462 123.433 59.8063 123.433 59.8689C123.433 59.9316 123.408 59.9916 123.364 60.0359C123.32 60.0802 123.26 60.1051 123.197 60.1051C123.134 60.1051 123.074 60.0802 123.03 60.0359C122.986 59.9916 122.961 59.9316 122.961 59.8689C122.961 59.8063 122.986 59.7462 123.03 59.702C123.074 59.6577 123.134 59.6328 123.197 59.6328Z" fill="white"/>
  <path d="M75.6203 96.6797C75.6646 96.6797 75.7071 96.6973 75.7385 96.7286C75.7698 96.76 75.7874 96.8025 75.7874 96.8468C75.7874 96.8912 75.7698 96.9337 75.7385 96.965C75.7071 96.9964 75.6646 97.014 75.6203 97.014C75.5759 97.014 75.5334 96.9964 75.5021 96.965C75.4707 96.9337 75.4531 96.8912 75.4531 96.8468C75.4531 96.8025 75.4707 96.76 75.5021 96.7286C75.5334 96.6973 75.5759 96.6797 75.6203 96.6797Z" fill="white"/>
  <path d="M42.172 9.70508C42.2131 9.71024 42.2508 9.7302 42.2782 9.76122C42.3056 9.79224 42.3207 9.83218 42.3207 9.87355C42.3207 9.91491 42.3056 9.95485 42.2782 9.98587C42.2508 10.0169 42.2131 10.0369 42.172 10.042C42.131 10.0369 42.0933 10.0169 42.0659 9.98587C42.0385 9.95485 42.0234 9.91491 42.0234 9.87355C42.0234 9.83218 42.0385 9.79224 42.0659 9.76122C42.0933 9.7302 42.131 9.71024 42.172 9.70508Z" fill="white"/>
  <path d="M106.78 63.5449C106.825 63.5449 106.867 63.5625 106.899 63.5939C106.93 63.6252 106.948 63.6677 106.948 63.7121C106.948 63.7564 106.93 63.7989 106.899 63.8302C106.867 63.8616 106.825 63.8792 106.78 63.8792C106.736 63.8792 106.694 63.8616 106.662 63.8302C106.631 63.7989 106.613 63.7564 106.613 63.7121C106.613 63.6677 106.631 63.6252 106.662 63.5939C106.694 63.5625 106.736 63.5449 106.78 63.5449Z" fill="white"/>
  <path d="M98.6867 78.0371C98.731 78.0371 98.7735 78.0547 98.8049 78.0861C98.8362 78.1174 98.8538 78.1599 98.8538 78.2043C98.8538 78.2486 98.8362 78.2911 98.8049 78.3224C98.7735 78.3538 98.731 78.3714 98.6867 78.3714C98.6423 78.3714 98.5998 78.3538 98.5685 78.3224C98.5371 78.2911 98.5195 78.2486 98.5195 78.2043C98.5195 78.1599 98.5371 78.1174 98.5685 78.0861C98.5998 78.0547 98.6423 78.0371 98.6867 78.0371Z" fill="white"/>
  <path d="M85.426 75.209C85.467 75.2141 85.5047 75.2341 85.5321 75.2651C85.5595 75.2961 85.5746 75.3361 85.5746 75.3774C85.5746 75.4188 85.5595 75.4588 85.5321 75.4898C85.5047 75.5208 85.467 75.5408 85.426 75.5459C85.3849 75.5408 85.3472 75.5208 85.3198 75.4898C85.2924 75.4588 85.2773 75.4188 85.2773 75.3774C85.2773 75.3361 85.2924 75.2961 85.3198 75.2651C85.3472 75.2341 85.3849 75.2141 85.426 75.209Z" fill="white"/>
  <path d="M101.102 60.5C101.222 60.5 101.338 60.5478 101.423 60.6329C101.508 60.718 101.556 60.8333 101.556 60.9537C101.556 61.074 101.508 61.1894 101.423 61.2745C101.338 61.3595 101.222 61.4073 101.102 61.4073C100.982 61.4073 100.866 61.3595 100.781 61.2745C100.696 61.1894 100.648 61.074 100.648 60.9537C100.648 60.8333 100.696 60.718 100.781 60.6329C100.866 60.5478 100.982 60.5 101.102 60.5Z" fill="white"/>
  <path d="M77.8633 14.6538L79.3251 14.9244L79.6514 16.4632L79.9778 14.9244L81.4396 14.6538L79.9831 14.2983L79.6514 12.8418L79.3171 14.2983L77.8633 14.6538Z" fill="white"/>
  <path d="M83.4297 1.3162L84.2468 1.46742L84.4299 2.327L84.6129 1.46742L85.4274 1.3162L84.6156 1.11722L84.4299 0.302734L84.2442 1.11722L83.4297 1.3162Z" fill="white"/>
  <path d="M33.908 23.416C33.9706 23.416 34.0307 23.4409 34.075 23.4852C34.1192 23.5295 34.1441 23.5895 34.1441 23.6521C34.1441 23.7148 34.1192 23.7748 34.075 23.8191C34.0307 23.8634 33.9706 23.8883 33.908 23.8883C33.8454 23.8883 33.7853 23.8634 33.741 23.8191C33.6968 23.7748 33.6719 23.7148 33.6719 23.6521C33.6719 23.5895 33.6968 23.5295 33.741 23.4852C33.7853 23.4409 33.8454 23.416 33.908 23.416Z" fill="white"/>
  <path d="M37.6355 86.2129C37.6942 86.2191 37.7484 86.2468 37.7879 86.2906C37.8273 86.3345 37.8492 86.3914 37.8492 86.4503C37.8492 86.5093 37.8273 86.5662 37.7879 86.61C37.7484 86.6539 37.6942 86.6816 37.6355 86.6878C37.5769 86.6816 37.5226 86.6539 37.4831 86.61C37.4437 86.5662 37.4219 86.5093 37.4219 86.4503C37.4219 86.3914 37.4437 86.3345 37.4831 86.2906C37.5226 86.2468 37.5769 86.2191 37.6355 86.2129Z" fill="white"/>
  <path d="M31.2215 97.9668C31.2801 97.973 31.3344 98.0007 31.3738 98.0445C31.4133 98.0884 31.4351 98.1453 31.4351 98.2042C31.4351 98.2632 31.4133 98.3201 31.3738 98.364C31.3344 98.4078 31.2801 98.4355 31.2215 98.4417C31.1628 98.4355 31.1085 98.4078 31.0691 98.364C31.0296 98.3201 31.0078 98.2632 31.0078 98.2042C31.0078 98.1453 31.0296 98.0884 31.0691 98.0445C31.1085 98.0007 31.1628 97.973 31.2215 97.9668Z" fill="white"/>
  <path d="M43.3504 43.2656C43.409 43.2718 43.4633 43.2995 43.5027 43.3434C43.5422 43.3872 43.564 43.4441 43.564 43.5031C43.564 43.562 43.5422 43.6189 43.5027 43.6628C43.4633 43.7066 43.409 43.7343 43.3504 43.7405C43.2917 43.7343 43.2374 43.7066 43.198 43.6628C43.1585 43.6189 43.1367 43.562 43.1367 43.5031C43.1367 43.4441 43.1585 43.3872 43.198 43.3434C43.2374 43.2995 43.2917 43.2718 43.3504 43.2656Z" fill="white"/>
  <path d="M31.2215 2.39844C31.2801 2.40465 31.3344 2.43234 31.3738 2.47618C31.4133 2.52002 31.4351 2.57691 31.4351 2.63589C31.4351 2.69486 31.4133 2.75175 31.3738 2.79559C31.3344 2.83943 31.2801 2.86712 31.2215 2.87333C31.1628 2.86712 31.1085 2.83943 31.0691 2.79559C31.0296 2.75175 31.0078 2.69486 31.0078 2.63589C31.0078 2.57691 31.0296 2.52002 31.0691 2.47618C31.1085 2.43234 31.1628 2.40465 31.2215 2.39844Z" fill="white"/>
  <path d="M52.7189 74.9238C52.76 74.929 52.7977 74.949 52.8251 74.98C52.8524 75.011 52.8675 75.0509 52.8675 75.0923C52.8675 75.1337 52.8524 75.1736 52.8251 75.2046C52.7977 75.2356 52.76 75.2556 52.7189 75.2608C52.6779 75.2556 52.6401 75.2356 52.6128 75.2046C52.5854 75.1736 52.5703 75.1337 52.5703 75.0923C52.5703 75.0509 52.5854 75.011 52.6128 74.98C52.6401 74.949 52.6779 74.929 52.7189 74.9238Z" fill="white"/>
  <path d="M88.05 96.3965C88.0943 96.3965 88.1368 96.4141 88.1681 96.4454C88.1995 96.4768 88.2171 96.5193 88.2171 96.5636C88.2171 96.608 88.1995 96.6505 88.1681 96.6818C88.1368 96.7132 88.0943 96.7308 88.05 96.7308C88.0056 96.7308 87.9631 96.7132 87.9318 96.6818C87.9004 96.6505 87.8828 96.608 87.8828 96.5636C87.8828 96.5193 87.9004 96.4768 87.9318 96.4454C87.9631 96.4141 88.0056 96.3965 88.05 96.3965Z" fill="white"/>
  <path d="M112.922 19.7637C112.963 19.7688 113.001 19.7888 113.028 19.8198C113.056 19.8508 113.071 19.8908 113.071 19.9321C113.071 19.9735 113.056 20.0134 113.028 20.0445C113.001 20.0755 112.963 20.0954 112.922 20.1006C112.881 20.0954 112.843 20.0755 112.816 20.0445C112.789 20.0134 112.773 19.9735 112.773 19.9321C112.773 19.8908 112.789 19.8508 112.816 19.8198C112.843 19.7888 112.881 19.7688 112.922 19.7637Z" fill="white"/>
  <path d="M82.671 9.50586C82.7154 9.50586 82.7579 9.52347 82.7892 9.55481C82.8206 9.58616 82.8382 9.62867 82.8382 9.673C82.8382 9.71733 82.8206 9.75984 82.7892 9.79119C82.7579 9.82253 82.7154 9.84014 82.671 9.84014C82.6267 9.84014 82.5842 9.82253 82.5529 9.79119C82.5215 9.75984 82.5039 9.71733 82.5039 9.673C82.5039 9.62867 82.5215 9.58616 82.5529 9.55481C82.5842 9.52347 82.6267 9.50586 82.671 9.50586Z" fill="white"/>
  <path d="M72.6255 68.9746C72.7459 68.9746 72.8613 69.0224 72.9463 69.1075C73.0314 69.1926 73.0792 69.308 73.0792 69.4283C73.0792 69.5486 73.0314 69.664 72.9463 69.7491C72.8613 69.8342 72.7459 69.882 72.6255 69.882C72.5052 69.882 72.3898 69.8342 72.3047 69.7491C72.2197 69.664 72.1719 69.5486 72.1719 69.4283C72.1719 69.308 72.2197 69.1926 72.3047 69.1075C72.3898 69.0224 72.5052 68.9746 72.6255 68.9746Z" fill="white"/>
  <path d="M132.406 34.6777C132.521 34.6865 132.628 34.7382 132.706 34.8226C132.784 34.907 132.827 35.0177 132.827 35.1327C132.827 35.2477 132.784 35.3585 132.706 35.4429C132.628 35.5272 132.521 35.579 132.406 35.5877C132.291 35.579 132.184 35.5272 132.106 35.4429C132.028 35.3585 131.984 35.2477 131.984 35.1327C131.984 35.0177 132.028 34.907 132.106 34.8226C132.184 34.7382 132.291 34.6865 132.406 34.6777Z" fill="white"/>
  <path d="M39.5162 74.4707C39.6365 74.4707 39.7519 74.5185 39.837 74.6036C39.922 74.6887 39.9698 74.804 39.9698 74.9244C39.9698 75.0447 39.922 75.1601 39.837 75.2452C39.7519 75.3302 39.6365 75.378 39.5162 75.378C39.3958 75.378 39.2805 75.3302 39.1954 75.2452C39.1103 75.1601 39.0625 75.0447 39.0625 74.9244C39.0625 74.804 39.1103 74.6887 39.1954 74.6036C39.2805 74.5185 39.3958 74.4707 39.5162 74.4707Z" fill="white"/>
  <path d="M77.6484 57.0037L78.4656 57.1549L78.6486 58.0145L78.8317 57.1549L79.6488 57.0037L78.8343 56.8047L78.6486 55.9902L78.4629 56.8047L77.6484 57.0037Z" fill="white"/>
  <path d="M95.0039 98.1951L95.821 98.3463L96.0041 99.2059L96.1845 98.3463L97.0016 98.1924L96.1898 97.9961L96.0041 97.1816L95.8157 97.9961L95.0039 98.1951Z" fill="white"/>
  <path d="M98.6238 87.5879C98.6824 87.5941 98.7367 87.6218 98.7762 87.6656C98.8156 87.7095 98.8374 87.7664 98.8374 87.8253C98.8374 87.8843 98.8156 87.9412 98.7762 87.985C98.7367 88.0289 98.6824 88.0566 98.6238 88.0628C98.5651 88.0566 98.5109 88.0289 98.4714 87.985C98.432 87.9412 98.4102 87.8843 98.4102 87.8253C98.4102 87.7664 98.432 87.7095 98.4714 87.6656C98.5109 87.6218 98.5651 87.5941 98.6238 87.5879Z" fill="white"/>
  <path d="M107.843 81.2891C107.901 81.2953 107.955 81.323 107.995 81.3668C108.034 81.4106 108.056 81.4675 108.056 81.5265C108.056 81.5855 108.034 81.6424 107.995 81.6862C107.955 81.7301 107.901 81.7577 107.843 81.764C107.784 81.7577 107.73 81.7301 107.69 81.6862C107.651 81.6424 107.629 81.5855 107.629 81.5265C107.629 81.4675 107.651 81.4106 107.69 81.3668C107.73 81.323 107.784 81.2953 107.843 81.2891Z" fill="white"/>
  <path d="M78.6562 92.1639L79.4734 92.3151L79.6564 93.1773L79.8395 92.3151L80.6566 92.1639L79.8422 91.9649L79.6564 91.1504L79.4707 91.9649L78.6562 92.1639Z" fill="white"/>
  <path d="M112.276 15.9023C112.335 15.9086 112.389 15.9362 112.429 15.9801C112.468 16.0239 112.49 16.0808 112.49 16.1398C112.49 16.1988 112.468 16.2557 112.429 16.2995C112.389 16.3433 112.335 16.371 112.276 16.3772C112.217 16.371 112.163 16.3433 112.124 16.2995C112.084 16.2557 112.062 16.1988 112.062 16.1398C112.062 16.0808 112.084 16.0239 112.124 15.9801C112.163 15.9362 112.217 15.9086 112.276 15.9023Z" fill="white"/>
  <path d="M117.972 82.0488C118.016 82.0488 118.059 82.0664 118.09 82.0978C118.121 82.1291 118.139 82.1716 118.139 82.216C118.139 82.2603 118.121 82.3028 118.09 82.3342C118.059 82.3655 118.016 82.3831 117.972 82.3831C117.928 82.3831 117.885 82.3655 117.854 82.3342C117.822 82.3028 117.805 82.2603 117.805 82.216C117.805 82.1716 117.822 82.1291 117.854 82.0978C117.885 82.0664 117.928 82.0488 117.972 82.0488Z" fill="white"/>
  <path d="M46.7031 53.5603L47.5203 53.7116L47.7007 54.5711L47.8837 53.7116L48.7009 53.5603L47.889 53.3614L47.7007 52.5469L47.515 53.3614L46.7031 53.5603Z" fill="white"/>
  <path d="M37.2517 66.5898C37.3144 66.5898 37.3744 66.6147 37.4187 66.659C37.463 66.7033 37.4879 66.7633 37.4879 66.826C37.4879 66.8886 37.463 66.9486 37.4187 66.9929C37.3744 67.0372 37.3144 67.0621 37.2517 67.0621C37.1891 67.0621 37.1291 67.0372 37.0848 66.9929C37.0405 66.9486 37.0156 66.8886 37.0156 66.826C37.0156 66.7633 37.0405 66.7033 37.0848 66.659C37.1291 66.6147 37.1891 66.5898 37.2517 66.5898Z" fill="white"/>
  <path d="M69.908 49.1504C69.9706 49.1504 70.0307 49.1753 70.075 49.2196C70.1192 49.2638 70.1441 49.3239 70.1441 49.3865C70.1441 49.4491 70.1192 49.5092 70.075 49.5535C70.0307 49.5978 69.9706 49.6226 69.908 49.6226C69.8454 49.6226 69.7853 49.5978 69.741 49.5535C69.6968 49.5092 69.6719 49.4491 69.6719 49.3865C69.6719 49.3239 69.6968 49.2638 69.741 49.2196C69.7853 49.1753 69.8454 49.1504 69.908 49.1504Z" fill="white"/>
  <path d="M42.172 25.2285C42.2131 25.2337 42.2508 25.2536 42.2782 25.2847C42.3056 25.3157 42.3207 25.3556 42.3207 25.397C42.3207 25.4383 42.3056 25.4783 42.2782 25.5093C42.2508 25.5403 42.2131 25.5603 42.172 25.5655C42.131 25.5603 42.0933 25.5403 42.0659 25.5093C42.0385 25.4783 42.0234 25.4383 42.0234 25.397C42.0234 25.3556 42.0385 25.3157 42.0659 25.2847C42.0933 25.2536 42.131 25.2337 42.172 25.2285Z" fill="white"/>
  <path d="M40.0279 23.6816C40.1482 23.6816 40.2636 23.7294 40.3487 23.8145C40.4338 23.8996 40.4816 24.015 40.4816 24.1353C40.4816 24.2556 40.4338 24.371 40.3487 24.4561C40.2636 24.5412 40.1482 24.589 40.0279 24.589C39.9076 24.589 39.7922 24.5412 39.7071 24.4561C39.622 24.371 39.5742 24.2556 39.5742 24.1353C39.5742 24.015 39.622 23.8996 39.7071 23.8145C39.7922 23.7294 39.9076 23.6816 40.0279 23.6816Z" fill="white"/>
  <path d="M132.848 3.64648C132.969 3.64648 133.084 3.69428 133.169 3.77936C133.254 3.86444 133.302 3.97983 133.302 4.10015C133.302 4.22047 133.254 4.33587 133.169 4.42095C133.084 4.50603 132.969 4.55383 132.848 4.55383C132.728 4.55383 132.612 4.50603 132.527 4.42095C132.442 4.33587 132.395 4.22047 132.395 4.10015C132.395 3.97983 132.442 3.86444 132.527 3.77936C132.612 3.69428 132.728 3.64648 132.848 3.64648Z" fill="white"/>
  <path d="M171.157 95.6914C174.63 92.4141 174.788 86.9419 171.511 83.4689C168.234 79.9959 162.761 79.8373 159.288 83.1147C155.815 86.392 155.657 91.8642 158.934 95.3372C162.211 98.8102 167.684 98.9687 171.157 95.6914Z" fill="#26435F"/>
  <path d="M157.182 92.5812C157.929 91.8197 158.791 91.1804 159.737 90.6869C161.385 89.7955 165.964 88.599 168.028 87.3388C170.93 85.5692 171.174 83.8899 171.09 83.0462C170.27 82.2947 169.313 81.7075 168.272 81.3164C168.126 82.2052 167.534 84.9882 162.656 87.1531C160.135 88.2753 157.615 87.8641 156.745 87.7262C156.42 89.3529 156.572 91.0387 157.182 92.5812Z" fill="#26435F"/>
  <path d="M161.078 96.9966C162.819 97.9454 164.833 98.2684 166.783 97.9116C168.733 97.5548 170.502 96.5398 171.794 95.036C171.285 94.8087 170.75 94.6439 170.202 94.5452C167.838 94.1685 165.376 95.4844 164.487 96.0813C163.497 96.7843 162.287 97.109 161.078 96.9966Z" fill="#26435F"/>
  <path d="M157.797 93.8354L157.922 94.0371L158.038 94.2148C158.129 94.3501 158.219 94.4801 158.304 94.6101C158.389 94.7401 158.481 94.8383 158.569 94.9471L158.672 95.0691L158.792 95.2044C158.832 95.2495 158.871 95.2946 158.914 95.3371L159.062 95.4909L159.211 95.6395L159.344 95.7642C159.442 95.8544 159.543 95.9419 159.643 96.0295C160.193 96.1489 160.906 96.0295 161.922 95.5201C163.44 94.7799 165.008 93.1669 167.945 91.835C169.76 91.0292 171.762 90.7391 173.731 90.9967C174.06 89.2413 173.836 87.4271 173.089 85.8047C172.537 85.8286 170.784 86.2239 167.252 89.6463C166.157 90.7398 164.953 91.7178 163.657 92.5646C160.567 94.5146 158.659 94.1565 157.85 93.8354H157.797Z" fill="#26435F"/>
  <path d="M165.643 84.4245C165.828 84.7614 166.375 84.8171 166.866 84.5492C167.357 84.2812 167.601 83.7877 167.418 83.4508C167.235 83.1139 166.685 83.0608 166.195 83.3288C165.704 83.5967 165.46 84.0743 165.643 84.4245Z" fill="#26435F"/>
  <path d="M168.134 84.8038C168.238 84.9921 168.561 85.016 168.856 84.8542C169.15 84.6923 169.301 84.4085 169.198 84.2201C169.094 84.0317 168.771 84.0052 168.476 84.167C168.182 84.3289 168.031 84.6127 168.134 84.8038Z" fill="#26435F"/>
  <path d="M162.418 95.9854C162.577 96.2745 163.052 96.317 163.479 96.0809C163.906 95.8448 164.126 95.4229 163.97 95.1337C163.813 94.8446 163.336 94.8048 162.908 95.0382C162.481 95.2717 162.261 95.6988 162.418 95.9854Z" fill="#26435F"/>
  <path d="M164.029 96.1394C164.05 96.2275 164.097 96.3071 164.165 96.3668C164.233 96.4265 164.318 96.4634 164.409 96.4722C164.499 96.481 164.589 96.4614 164.667 96.416C164.746 96.3706 164.808 96.3018 164.845 96.2193C164.882 96.1367 164.892 96.0446 164.875 95.9559C164.857 95.8672 164.811 95.7864 164.745 95.7248C164.678 95.6633 164.595 95.6241 164.505 95.6128C164.415 95.6015 164.324 95.6186 164.244 95.6618C164.154 95.6985 164.081 95.7686 164.041 95.8576C164.001 95.9465 163.997 96.0474 164.029 96.1394Z" fill="#26435F"/>
  <path d="M164.213 95.317C164.251 95.3635 164.307 95.3934 164.367 95.4008C164.427 95.4082 164.487 95.3925 164.536 95.3568C164.666 95.2852 164.73 95.1526 164.68 95.0624C164.64 95.0157 164.585 94.9857 164.524 94.9783C164.464 94.971 164.403 94.9868 164.353 95.0226C164.226 95.0942 164.162 95.2268 164.213 95.317Z" fill="#26435F"/>
  <path d="M169.586 94.8049C169.726 95.0702 170.116 95.1179 170.461 94.9296C170.806 94.7412 170.968 94.3804 170.827 94.1337C170.687 93.8869 170.297 93.8206 169.952 94.009C169.607 94.1973 169.445 94.5475 169.586 94.8049Z" fill="#26435F"/>
  <path d="M169.273 93.6509C169.299 93.7151 169.344 93.7698 169.402 93.8079C169.46 93.846 169.528 93.8656 169.597 93.8641C169.666 93.8626 169.734 93.8401 169.79 93.7996C169.846 93.7592 169.889 93.7025 169.912 93.6373C169.935 93.572 169.938 93.5012 169.921 93.4343C169.903 93.3673 169.865 93.3072 169.813 93.2621C169.76 93.217 169.695 93.1889 169.626 93.1816C169.557 93.1743 169.488 93.188 169.427 93.2211C169.35 93.2578 169.29 93.3237 169.261 93.4042C169.232 93.4848 169.237 93.5734 169.273 93.6509Z" fill="#26435F"/>
  <path d="M158.316 94.6085C163.676 93.4738 168.894 91.7531 173.876 89.4775C177.75 87.6575 180.14 85.9145 179.817 84.9302C179.493 83.9459 176.588 83.9327 172.494 84.7206C172.606 84.8931 172.709 85.0682 172.81 85.2512C172.847 85.3202 172.882 85.3892 172.919 85.4555C175.097 85.177 176.54 85.3043 176.736 85.9039C176.933 86.5035 175.813 87.4957 173.837 88.5781C171.339 89.89 168.729 90.9784 166.039 91.8308C163.362 92.7395 160.61 93.4098 157.815 93.8338C155.589 94.1283 154.101 94.0036 153.91 93.3961C153.719 92.7885 154.798 91.844 156.706 90.7802C156.658 90.4903 156.626 90.198 156.61 89.9047C152.742 91.7193 150.317 93.5234 150.652 94.505C150.986 95.4867 154.013 95.4761 158.316 94.6085Z" fill="#26435F"/>
  <path d="M158.806 95.2016C161.389 94.648 163.942 93.9608 166.455 93.1429C168.957 92.342 171.417 91.4131 173.825 90.3598C179.205 87.9721 182.641 85.5393 182.193 84.1438C181.744 82.7483 177.608 82.7775 171.941 83.9581C172.023 84.0615 172.106 84.1677 172.185 84.2764C176.945 83.3638 180.357 83.4142 180.741 84.6107C181.126 85.8072 178.335 87.8846 173.859 89.9486C171.416 91.0569 168.91 92.0225 166.354 92.8404C163.79 93.6753 161.179 94.3592 158.535 94.8886C153.72 95.8225 150.261 95.7774 149.873 94.5702C149.486 93.3631 152.208 91.3521 156.58 89.3172C156.58 89.1819 156.58 89.0519 156.596 88.9113C151.327 91.2592 147.979 93.6602 148.422 95.0398C148.865 96.4194 153.073 96.4061 158.806 95.2016Z" fill="#26435F"/>
  <path d="M9.10534 66.9592C11.7719 66.0488 13.1955 63.1492 12.2852 60.4827C11.3748 57.8161 8.47517 56.3925 5.80864 57.3028C3.14211 58.2132 1.71846 61.1128 2.62882 63.7793C3.53917 66.4459 6.43881 67.8695 9.10534 66.9592Z" fill="#FEC6B9"/>
  <path d="M12.3391 63.61C11.8638 63.1978 11.3266 62.863 10.7473 62.6177C9.73649 62.172 6.98528 61.6838 5.70652 61.0392C3.91572 60.1371 3.69286 59.1635 3.70347 58.6514C4.14882 58.1699 4.68303 57.7789 5.27672 57.5C5.40407 58.0147 5.88427 59.6224 8.85833 60.6836C10.3944 61.2143 11.8642 60.8641 12.363 60.742C12.6309 61.6804 12.6226 62.6762 12.3391 63.61Z" fill="#FFA08B"/>
  <path d="M10.2598 66.3949C9.28154 67.0374 8.11225 67.3243 6.94775 67.2074C5.78326 67.0905 4.6943 66.577 3.86328 65.7529C4.15228 65.5946 4.4597 65.4725 4.77858 65.3894C6.1502 65.0552 7.65978 65.7105 8.21161 66.0209C8.82772 66.3862 9.55428 66.5189 10.2598 66.3949Z" fill="#FFA08B"/>
  <path d="M12.0291 64.376L11.9654 64.498C11.9468 64.5378 11.9256 64.5723 11.9044 64.6094C11.8584 64.6943 11.8106 64.7766 11.7611 64.8562C11.716 64.9278 11.6682 64.9968 11.6205 65.0658L11.5648 65.1427L11.4984 65.2196L11.4321 65.3045C11.4074 65.3364 11.3808 65.3682 11.3525 65.4C11.3242 65.4319 11.2977 65.4637 11.2729 65.4955L11.1987 65.5751C11.1456 65.6335 11.0925 65.6892 11.0368 65.7449C10.7211 65.8431 10.294 65.8006 9.67315 65.5539C8.74459 65.1904 7.74705 64.3149 5.9589 63.6729C4.85629 63.2866 3.66878 63.2104 2.52586 63.4527C2.24923 62.4362 2.29559 61.3588 2.65851 60.3699C2.98218 60.3566 4.03279 60.5052 6.26665 62.3517C6.96325 62.9405 7.71795 63.457 8.51908 63.8931C10.4319 64.8933 11.5356 64.5962 11.9972 64.3654H12.0291V64.376Z" fill="#FFA08B"/>
  <path d="M7.18825 66.2961C7.27845 66.0892 7.59681 66.0308 7.89926 66.1608C8.2017 66.2908 8.3715 66.5667 8.2813 66.7737C8.19109 66.9806 7.87273 67.039 7.57028 66.9116C7.26783 66.7843 7.09804 66.5057 7.18825 66.2961Z" fill="white"/>
  <path d="M8.62881 65.9314C8.67922 65.8147 8.86759 65.7855 9.05064 65.8651C9.2337 65.9447 9.33717 66.1012 9.28677 66.2179C9.23636 66.3347 9.04534 66.3665 8.86493 66.2869C8.68453 66.2073 8.58105 66.0508 8.62881 65.9314Z" fill="white"/>
  <path d="M4.67071 59.6639C4.74765 59.4888 5.02356 59.4358 5.28887 59.5525C5.55417 59.6693 5.70539 59.9054 5.6258 60.0831C5.54621 60.2609 5.27294 60.3113 5.00764 60.1946C4.74234 60.0778 4.59907 59.8417 4.67071 59.6639Z" fill="white"/>
  <path d="M5.60947 59.4917C5.64013 59.4429 5.68869 59.4081 5.74474 59.3947C5.80079 59.3813 5.85985 59.3904 5.90926 59.4201C5.96351 59.4367 6.00936 59.4735 6.03746 59.5228C6.06556 59.5721 6.07379 59.6302 6.06048 59.6854C6.02276 59.7224 5.97484 59.7473 5.92287 59.7569C5.8709 59.7665 5.81725 59.7604 5.76879 59.7393C5.72033 59.7182 5.67928 59.6831 5.6509 59.6385C5.62251 59.5939 5.60808 59.5419 5.60947 59.4891V59.4917Z" fill="white"/>
  <path d="M5.76931 59.9606C5.78976 59.9313 5.82062 59.9108 5.85561 59.9034C5.89061 59.896 5.9271 59.9023 5.95767 59.9208C6.03727 59.9553 6.07972 60.0296 6.05584 60.0853C6.03624 60.1156 6.00553 60.137 5.97032 60.145C5.9351 60.1529 5.89818 60.1467 5.86747 60.1278C5.83279 60.1178 5.80326 60.0949 5.78499 60.0638C5.76672 60.0327 5.7611 59.9958 5.76931 59.9606Z" fill="white"/>
  <path d="M8.95245 59.9771C8.9633 59.8866 9.00228 59.8018 9.06391 59.7346C9.12553 59.6675 9.20668 59.6214 9.29591 59.6029C9.38514 59.5843 9.47794 59.5942 9.56122 59.6313C9.64449 59.6683 9.71404 59.7305 9.76005 59.8092C9.80606 59.8879 9.8262 59.979 9.81763 60.0697C9.80907 60.1605 9.77223 60.2462 9.71231 60.3149C9.6524 60.3836 9.57243 60.4317 9.48369 60.4525C9.39496 60.4733 9.30194 60.4657 9.21776 60.4307C9.12315 60.4046 9.04248 60.3425 8.99293 60.2578C8.94338 60.1731 8.92886 60.0724 8.95245 59.9771Z" fill="white"/>
  <path d="M8.82555 60.6717C8.84873 60.6255 8.88876 60.59 8.93737 60.5725C8.98597 60.555 9.03945 60.5568 9.08676 60.5775C9.13407 60.5983 9.17161 60.6364 9.19163 60.6841C9.21164 60.7317 9.2126 60.7852 9.19432 60.8335C9.17113 60.8797 9.13111 60.9152 9.0825 60.9327C9.03389 60.9503 8.98042 60.9484 8.9331 60.9277C8.88579 60.9069 8.84826 60.8688 8.82824 60.8212C8.80823 60.7735 8.80726 60.72 8.82555 60.6717Z" fill="white"/>
  <path d="M96.9367 29.5327C96.7483 29.3071 85.8337 24.2451 75.9485 31.7877C66.8619 38.7228 63.7074 51.7572 64.9145 52.0702C66.3923 52.4523 70.4408 46.2335 78.2116 42.8138C80.9681 41.6013 85.3535 42.8138 85.3535 42.8138L96.9367 29.5327Z" fill="#26435F"/>
  <path opacity="0.1" d="M85.3663 42.8115C84.0649 42.4805 82.7294 42.3024 81.3867 42.2809C83.1006 38.694 86.3002 32.003 88.3775 27.668C93.267 27.7131 96.8486 29.4084 96.9574 29.5251L85.3663 42.8115Z" fill="#26435F"/>
  <path d="M114.916 50.7383C115.107 50.9611 118.317 62.5576 109.257 71.0738C100.929 78.9056 87.5548 79.8846 87.4434 78.643C87.3081 77.1228 94.1078 74.146 98.7507 67.0386C100.396 64.5182 99.9206 59.9921 99.9206 59.9921L114.916 50.7383Z" fill="#26435F"/>
  <path opacity="0.1" d="M115.336 59.5676L99.7734 64.0963C99.9815 62.7385 100.027 61.3607 99.9087 59.9921L114.904 50.7383C115.023 50.8656 116.132 54.7099 115.336 59.5676Z" fill="#26435F"/>
  <path d="M89.5076 64.9169L78.8477 52.3442C78.8477 52.3442 84.419 37.4367 97.6206 27.4242C104.219 22.4285 111.947 18.6903 118.89 16.2177C128.454 12.79 136.456 11.8031 137.695 13.2569C138.934 14.7108 136.634 22.4524 131.704 31.3321C128.125 37.7551 123.169 44.7803 117.163 50.4738C105.123 61.8712 89.5076 64.9169 89.5076 64.9169Z" fill="white"/>
  <path d="M115.403 45.0873C113.969 46.3041 112.207 47.0684 110.339 47.2834C108.47 47.4983 106.58 47.1543 104.908 46.2949C103.235 45.4354 101.855 44.0991 100.942 42.4551C100.029 40.8111 99.6237 38.9332 99.7782 37.059C99.9327 35.1847 100.64 33.3985 101.81 31.9261C102.979 30.4538 104.56 29.3615 106.351 28.7876C108.141 28.2136 110.062 28.1837 111.87 28.7017C113.678 29.2196 115.292 30.2621 116.507 31.6974C118.134 33.6202 118.931 36.1102 118.725 38.6206C118.518 41.131 117.323 43.4568 115.403 45.0873Z" fill="#A6A6A6"/>
  <path d="M115.926 44.2039C114.492 45.4197 112.73 46.1829 110.862 46.3971C108.994 46.6112 107.105 46.2667 105.433 45.4071C103.761 44.5474 102.381 43.2113 101.469 41.5676C100.556 39.9239 100.151 38.0464 100.306 36.1727C100.46 34.299 101.166 32.5131 102.336 31.0409C103.505 29.5687 105.085 28.4763 106.875 27.9018C108.665 27.3274 110.585 27.2967 112.393 27.8136C114.201 28.3306 115.814 29.3719 117.03 30.806C118.66 32.7293 119.459 35.2211 119.252 37.7334C119.045 40.2458 117.849 42.5732 115.926 44.2039Z" fill="#26435F"/>
  <path d="M114.047 41.9789C113.053 42.8238 111.831 43.3549 110.535 43.5051C109.24 43.6552 107.929 43.4177 106.768 42.8225C105.607 42.2273 104.649 41.3012 104.015 40.1613C103.381 39.0215 103.099 37.7192 103.205 36.4192C103.312 35.1191 103.801 33.8798 104.612 32.8581C105.423 31.8363 106.518 31.078 107.76 30.6791C109.002 30.2802 110.334 30.2587 111.589 30.6172C112.843 30.9757 113.962 31.6982 114.806 32.6932C115.935 34.0257 116.49 35.752 116.347 37.493C116.205 39.234 115.378 40.8474 114.047 41.9789Z" fill="white"/>
  <path d="M114.046 41.9784C113.424 42.5081 112.708 42.9175 111.937 43.1856L106.63 42.7531C105.912 42.3639 105.274 41.8438 104.747 41.2197C104.36 40.7665 104.038 40.2621 103.789 39.7207L115.224 40.6519C114.894 41.1459 114.497 41.5922 114.046 41.9784Z" fill="#EBEBEB"/>
  <path d="M115.366 33.4713L104.812 32.6117C105.025 32.3675 105.256 32.1395 105.502 31.9299C106.835 30.7998 108.561 30.2449 110.302 30.3871C112.043 30.5294 113.657 31.3573 114.788 32.6887C115 32.9345 115.194 33.1961 115.366 33.4713Z" fill="#EBEBEB"/>
  <path d="M115.944 39.2863L103.316 38.2543C103.274 38.0607 103.243 37.865 103.223 37.668L116.127 38.7292C116.077 38.9096 116.013 39.098 115.944 39.2863Z" fill="#EBEBEB"/>
  <path d="M131.701 31.3284L118.887 16.2061C128.451 12.7863 136.452 11.7994 137.691 13.2532C138.93 14.7071 136.641 22.4487 131.701 31.3284Z" fill="#26435F"/>
  <path d="M122.652 17.4882C122.569 17.5594 122.466 17.6042 122.357 17.6169C122.248 17.6297 122.138 17.6098 122.04 17.5598C121.942 17.5098 121.862 17.4319 121.808 17.336C121.755 17.2401 121.731 17.1305 121.74 17.0211C121.749 16.9117 121.79 16.8074 121.858 16.7214C121.927 16.6355 122.019 16.5717 122.123 16.5382C122.228 16.5047 122.34 16.5029 122.446 16.5332C122.551 16.5635 122.645 16.6244 122.716 16.7082C122.811 16.8202 122.857 16.9651 122.845 17.1113C122.833 17.2575 122.764 17.393 122.652 17.4882Z" fill="white"/>
  <path d="M124.932 20.1818C124.877 20.2305 124.813 20.2676 124.743 20.2911C124.673 20.3145 124.599 20.3238 124.525 20.3184C124.452 20.313 124.38 20.293 124.315 20.2595C124.249 20.2261 124.191 20.1799 124.143 20.1236C124.095 20.0674 124.059 20.0022 124.037 19.9319C124.015 19.8616 124.007 19.7876 124.014 19.7142C124.021 19.6408 124.042 19.5695 124.077 19.5045C124.112 19.4395 124.159 19.382 124.216 19.3355C124.329 19.2438 124.473 19.1999 124.617 19.2133C124.762 19.2267 124.896 19.2963 124.989 19.4072C125.083 19.5181 125.13 19.6613 125.119 19.8061C125.109 19.951 125.041 20.0859 124.932 20.1818Z" fill="white"/>
  <path d="M127.213 22.8692C127.129 22.9379 127.026 22.9802 126.918 22.991C126.81 23.0018 126.701 22.9805 126.604 22.9297C126.508 22.879 126.429 22.8011 126.377 22.7057C126.325 22.6103 126.301 22.5016 126.311 22.3932C126.32 22.2848 126.36 22.1814 126.428 22.096C126.495 22.0106 126.586 21.9468 126.689 21.9127C126.793 21.8786 126.904 21.8756 127.009 21.9042C127.114 21.9327 127.208 21.9915 127.28 22.0732C127.329 22.1291 127.367 22.1944 127.39 22.2652C127.414 22.3361 127.423 22.411 127.417 22.4854C127.411 22.5598 127.389 22.6322 127.354 22.6981C127.319 22.7641 127.271 22.8223 127.213 22.8692Z" fill="white"/>
  <path d="M129.5 25.5573C129.416 25.6264 129.313 25.6691 129.205 25.6803C129.097 25.6914 128.988 25.6705 128.891 25.6201C128.795 25.5697 128.715 25.492 128.663 25.3968C128.61 25.3015 128.587 25.1929 128.596 25.0845C128.604 24.976 128.645 24.8725 128.712 24.7869C128.779 24.7012 128.87 24.6372 128.973 24.6027C129.076 24.5683 129.187 24.565 129.292 24.5932C129.397 24.6214 129.492 24.6799 129.564 24.7614C129.613 24.8173 129.651 24.8825 129.674 24.9532C129.698 25.0239 129.707 25.0986 129.701 25.1729C129.695 25.2472 129.674 25.3196 129.64 25.3856C129.605 25.4517 129.558 25.5101 129.5 25.5573Z" fill="white"/>
  <path d="M131.792 28.249C131.708 28.3199 131.605 28.3644 131.497 28.3768C131.388 28.3893 131.278 28.3693 131.18 28.3192C131.083 28.2691 131.002 28.1912 130.949 28.0955C130.896 27.9997 130.872 27.8902 130.881 27.781C130.89 27.6718 130.931 27.5676 130.999 27.4817C131.067 27.3958 131.159 27.332 131.263 27.2983C131.367 27.2646 131.479 27.2626 131.585 27.2925C131.69 27.3225 131.784 27.383 131.855 27.4664C131.903 27.5219 131.939 27.5862 131.961 27.6557C131.983 27.7251 131.992 27.7982 131.986 27.8709C131.98 27.9436 131.96 28.0145 131.927 28.0793C131.893 28.1442 131.847 28.2019 131.792 28.249Z" fill="white"/>
  <path d="M81.9085 52.0489C81.7959 52.1406 81.6518 52.1845 81.5072 52.1711C81.3626 52.1576 81.229 52.088 81.1352 51.9772C81.0413 51.8663 80.9947 51.7231 81.0054 51.5782C81.0161 51.4334 81.0831 51.2985 81.1922 51.2026C81.2475 51.1539 81.312 51.1168 81.3819 51.0933C81.4518 51.0698 81.5256 51.0605 81.5991 51.066C81.6726 51.0714 81.7443 51.0914 81.81 51.1248C81.8757 51.1583 81.934 51.2045 81.9816 51.2607C82.0292 51.317 82.0652 51.3822 82.0873 51.4525C82.1094 51.5228 82.1173 51.5968 82.1105 51.6702C82.1037 51.7435 82.0823 51.8148 82.0477 51.8799C82.013 51.9449 81.9657 52.0024 81.9085 52.0489Z" fill="#A6A6A6"/>
  <path d="M84.207 54.737C84.1229 54.806 84.0203 54.8488 83.9121 54.86C83.8039 54.8711 83.6948 54.8502 83.5984 54.7998C83.502 54.7494 83.4225 54.6717 83.3699 54.5765C83.3173 54.4812 83.2939 54.3726 83.3025 54.2642C83.3112 54.1557 83.3516 54.0522 83.4187 53.9666C83.4858 53.8809 83.5766 53.8169 83.6798 53.7824C83.783 53.748 83.894 53.7447 83.9991 53.7729C84.1042 53.8011 84.1986 53.8596 84.2707 53.9411C84.32 53.997 84.3576 54.0622 84.3812 54.1329C84.4048 54.2036 84.4139 54.2783 84.408 54.3526C84.402 54.4269 84.3812 54.4992 84.3466 54.5653C84.3121 54.6313 84.2646 54.6898 84.207 54.737Z" fill="#A6A6A6"/>
  <path d="M86.4793 57.4326C86.3957 57.5035 86.2929 57.548 86.184 57.5604C86.0752 57.5729 85.965 57.5529 85.8675 57.5028C85.77 57.4527 85.6896 57.3748 85.6363 57.2791C85.583 57.1833 85.5593 57.0738 85.5682 56.9646C85.5771 56.8554 85.6182 56.7512 85.6862 56.6653C85.7543 56.5794 85.8463 56.5155 85.9506 56.4819C86.0549 56.4482 86.1668 56.4462 86.2723 56.4761C86.3777 56.5061 86.4719 56.5666 86.543 56.65C86.5903 56.7055 86.6262 56.7698 86.6486 56.8392C86.671 56.9087 86.6795 56.9818 86.6735 57.0545C86.6676 57.1272 86.6474 57.1981 86.6141 57.2629C86.5808 57.3278 86.535 57.3855 86.4793 57.4326Z" fill="#A6A6A6"/>
  <path d="M88.7578 60.1159C88.6737 60.185 88.5711 60.2277 88.4629 60.2389C88.3547 60.25 88.2456 60.2291 88.1491 60.1787C88.0527 60.1283 87.9733 60.0506 87.9207 59.9554C87.8681 59.8601 87.8447 59.7515 87.8533 59.6431C87.862 59.5346 87.9024 59.4311 87.9695 59.3455C88.0365 59.2598 88.1273 59.1958 88.2305 59.1613C88.3337 59.1269 88.4448 59.1236 88.5499 59.1518C88.6549 59.18 88.7494 59.2385 88.8215 59.32C88.8708 59.3759 88.9084 59.4411 88.932 59.5118C88.9556 59.5825 88.9647 59.6572 88.9588 59.7315C88.9528 59.8058 88.932 59.8781 88.8974 59.9442C88.8629 60.0103 88.8154 60.0687 88.7578 60.1159Z" fill="#A6A6A6"/>
  <path d="M91.0414 62.8027C90.9571 62.8715 90.8544 62.9138 90.7461 62.9246C90.6379 62.9354 90.5288 62.9141 90.4326 62.8633C90.3364 62.8126 90.2572 62.7347 90.2049 62.6393C90.1527 62.5439 90.1296 62.4352 90.1386 62.3268C90.1477 62.2184 90.1884 62.115 90.2557 62.0296C90.3231 61.9442 90.4141 61.8804 90.5174 61.8463C90.6207 61.8122 90.7317 61.8092 90.8367 61.8378C90.9417 61.8663 91.0359 61.9251 91.1077 62.0068C91.1573 62.0627 91.195 62.128 91.2186 62.1988C91.2422 62.2697 91.2512 62.3446 91.245 62.419C91.2388 62.4934 91.2175 62.5658 91.1825 62.6317C91.1475 62.6977 91.0995 62.7559 91.0414 62.8027Z" fill="#A6A6A6"/>
  <path opacity="0.2" d="M137.095 12.8797C129.714 13.4103 116.932 17.878 103.484 28.4265C93.5455 36.2185 86.2947 49.8551 82.9148 57.1377L78.8477 52.341C78.8477 52.341 84.419 37.4336 97.6206 27.421C104.219 22.4253 111.947 18.6872 118.89 16.2146C127.462 13.1397 134.776 12.0254 137.095 12.8797Z" fill="white"/>
  <path d="M84.7417 66.9607L76.0742 56.7359L79.4462 53.0508L88.9282 64.236L84.7417 66.9607Z" fill="#26435F"/>
  <path opacity="0.1" d="M88.9354 64.2392L86.8952 65.5657L78.1641 54.4628L79.4534 53.0566L88.9354 64.2392Z" fill="#26435F"/>
  <path d="M131.569 32.6966L127.608 32.4313L125.746 36.204L125.915 32.0016L122.312 30.3354L126.313 30.3752L128.133 26.8281L128.038 30.813L131.569 32.6966Z" fill="#26435F"/>
  <path d="M130.591 18.0643L128.376 17.9184L127.336 20.0276L127.432 17.677L125.418 16.7458L127.654 16.767L128.671 14.7852L128.618 17.0137L130.591 18.0643Z" fill="#26435F"/>
  <path d="M112.681 63.0389L110.469 62.8904L109.429 64.9995L109.521 62.6516L107.508 61.7204L109.744 61.7416L110.763 59.7598L110.707 61.9883L112.681 63.0389Z" fill="#26435F"/>
  <path d="M73.2789 43.4706L71.0636 43.322L70.0236 45.4312L70.1191 43.0832L68.1055 42.152L70.342 42.1732L71.3581 40.1914L71.305 42.4173L73.2789 43.4706Z" fill="#26435F"/>
  <path opacity="0.6" d="M82.84 64.6824C78.8207 67.3912 75.2736 70.8481 72.6842 74.9789C70.0274 79.1305 68.5263 83.9157 68.3359 88.841C68.2722 91.3376 68.577 93.83 69.2406 96.2377C69.9233 98.6901 70.9562 101.031 72.3075 103.189C73.6911 105.385 75.3504 107.394 77.2448 109.169C79.1729 110.972 81.2817 112.573 83.5378 113.944C81.1044 112.832 78.7927 111.471 76.6399 109.882C74.4612 108.268 72.4995 106.379 70.8032 104.263C67.2869 99.8846 65.1436 94.5643 64.6428 88.971C64.1441 83.3174 65.3379 77.5152 67.8106 72.3391C70.2832 67.163 73.9789 62.5653 78.3458 58.8086L82.84 64.6824Z" fill="#26435F"/>
  <path d="M75.9658 70.8434L74.3846 71.1352L74.0317 72.8014L73.6789 71.1352L72.0977 70.8408L73.6736 70.4561L74.0317 68.8828L74.3925 70.4561L75.9658 70.8434Z" fill="white"/>
  <path d="M70.1505 102.052L69.267 102.217L69.0707 103.148L68.8717 102.217L67.9883 102.052L68.8691 101.837L69.0707 100.959L69.2724 101.837L70.1505 102.052Z" fill="white"/>
  <path d="M69.67 93.9668L68.7866 94.1286L68.5903 95.0625L68.3939 94.1286L67.5078 93.9668L68.3886 93.7519L68.5903 92.8711L68.7919 93.7519L69.67 93.9668Z" fill="white"/>
  <path d="M74.7989 65.6477L73.9155 65.8122L73.7165 66.7434L73.5202 65.8122L72.6367 65.6477L73.5175 65.4328L73.7165 64.5547L73.9181 65.4328L74.7989 65.6477Z" fill="white"/>
  <path d="M72.2348 104.066C72.1786 104.082 72.129 104.115 72.0936 104.161C72.0582 104.208 72.0391 104.264 72.0391 104.322C72.0391 104.381 72.0582 104.437 72.0936 104.484C72.129 104.53 72.1786 104.563 72.2348 104.578C72.291 104.563 72.3406 104.53 72.376 104.484C72.4114 104.437 72.4305 104.381 72.4305 104.322C72.4305 104.264 72.4114 104.208 72.376 104.161C72.3406 104.115 72.291 104.082 72.2348 104.066Z" fill="white"/>
  <path d="M79.5512 64.3984C79.495 64.4137 79.4454 64.4471 79.41 64.4933C79.3746 64.5396 79.3555 64.5962 79.3555 64.6545C79.3555 64.7127 79.3746 64.7693 79.41 64.8156C79.4454 64.8619 79.495 64.8952 79.5512 64.9105C79.6074 64.8952 79.657 64.8619 79.6924 64.8156C79.7278 64.7693 79.7469 64.7127 79.7469 64.6545C79.7469 64.5962 79.7278 64.5396 79.6924 64.4933C79.657 64.4471 79.6074 64.4137 79.5512 64.3984Z" fill="white"/>
  <path d="M65.7621 87.2461C65.7059 87.2614 65.6563 87.2947 65.6209 87.341C65.5856 87.3873 65.5664 87.4439 65.5664 87.5021C65.5664 87.5604 65.5856 87.617 65.6209 87.6632C65.6563 87.7095 65.7059 87.7429 65.7621 87.7581C65.8183 87.7429 65.868 87.7095 65.9033 87.6632C65.9387 87.617 65.9579 87.5604 65.9579 87.5021C65.9579 87.4439 65.9387 87.3873 65.9033 87.341C65.868 87.2947 65.8183 87.2614 65.7621 87.2461Z" fill="white"/>
  <path d="M71.7822 102.734C71.7377 102.74 71.6968 102.761 71.6672 102.795C71.6375 102.828 71.6211 102.871 71.6211 102.916C71.6211 102.961 71.6375 103.004 71.6672 103.038C71.6968 103.071 71.7377 103.092 71.7822 103.098C71.8266 103.092 71.8675 103.071 71.8972 103.038C71.9268 103.004 71.9432 102.961 71.9432 102.916C71.9432 102.871 71.9268 102.828 71.8972 102.795C71.8675 102.761 71.8266 102.74 71.7822 102.734Z" fill="white"/>
  <path d="M65.6687 78.2949C65.6208 78.2949 65.575 78.3139 65.5411 78.3478C65.5073 78.3816 65.4883 78.4275 65.4883 78.4753C65.4883 78.5232 65.5073 78.5691 65.5411 78.6029C65.575 78.6367 65.6208 78.6557 65.6687 78.6557C65.7165 78.6557 65.7624 78.6367 65.7963 78.6029C65.8301 78.5691 65.8491 78.5232 65.8491 78.4753C65.8491 78.4275 65.8301 78.3816 65.7963 78.3478C65.7624 78.3139 65.7165 78.2949 65.6687 78.2949Z" fill="white"/>
  <path d="M67.5081 96.8281C67.3838 96.8373 67.2676 96.8931 67.1828 96.9844C67.0979 97.0756 67.0508 97.1957 67.0508 97.3203C67.0508 97.4449 67.0979 97.5649 67.1828 97.6562C67.2676 97.7475 67.3838 97.8033 67.5081 97.8124C67.6324 97.8033 67.7486 97.7475 67.8334 97.6562C67.9182 97.5649 67.9654 97.4449 67.9654 97.3203C67.9654 97.1957 67.9182 97.0756 67.8334 96.9844C67.7486 96.8931 67.6324 96.8373 67.5081 96.8281Z" fill="white"/>
  <path d="M67.9908 76.627C67.8606 76.627 67.7358 76.6787 67.6438 76.7707C67.5517 76.8628 67.5 76.9876 67.5 77.1178C67.5 77.2479 67.5517 77.3728 67.6438 77.4648C67.7358 77.5569 67.8606 77.6086 67.9908 77.6086C68.121 77.6086 68.2458 77.5569 68.3379 77.4648C68.4299 77.3728 68.4816 77.2479 68.4816 77.1178C68.4816 76.9876 68.4299 76.8628 68.3379 76.7707C68.2458 76.6787 68.121 76.627 67.9908 76.627Z" fill="white"/>
</svg>