<svg width="146" height="91" viewBox="0 0 146 91" fill="none" xmlns="http://www.w3.org/2000/svg">
<path d="M94.9922 60.0629L96.1616 60.2773L96.4227 61.5104L96.6838 60.2773L97.8532 60.0608L96.688 59.7764L96.4227 58.6133L96.1553 59.7764L94.9922 60.0629Z" fill="white"/>
<path d="M46.752 53.4065L47.9214 53.623L48.1825 54.8561L48.4435 53.623L49.613 53.4065L48.4499 53.1221L48.1825 51.959L47.9172 53.1221L46.752 53.4065Z" fill="white"/>
<path d="M83.0488 40.2328L84.2183 40.4493L84.4793 41.6803L84.7404 40.4493L85.9099 40.2328L84.7468 39.9463L84.4793 38.7832L84.214 39.9463L83.0488 40.2328Z" fill="white"/>
<path d="M106.105 52.8062L106.759 52.9272L106.906 53.617L107.052 52.9272L107.704 52.8062L107.054 52.647L106.906 51.9976L106.757 52.647L106.105 52.8062Z" fill="white"/>
<path d="M56.5156 79.0186L57.1672 79.1396L57.3137 79.8294L57.4601 79.1396L58.1138 79.0186L57.4622 78.8594L57.3137 78.21L57.1651 78.8594L56.5156 79.0186Z" fill="white"/>
<path d="M104.508 21.7995L105.162 21.9205L105.308 22.6082L105.452 21.9205L106.106 21.7974L105.457 21.6404L105.308 20.9888L105.157 21.6404L104.508 21.7995Z" fill="white"/>
<path d="M27.4219 36.6164L28.0756 36.7374L28.222 37.4251L28.3664 36.7374L29.0201 36.6164L28.3706 36.4572L28.222 35.8057L28.0735 36.4572L27.4219 36.6164Z" fill="white"/>
<path d="M30.9277 71.677L31.5814 71.798L31.7279 72.4856L31.8722 71.798L32.5259 71.677L31.8765 71.5178L31.7279 70.8662L31.5772 71.5178L30.9277 71.677Z" fill="white"/>
<path d="M101.986 39.2483L102.64 39.3692L102.784 40.0569L102.931 39.3692L103.585 39.2483L102.935 39.0891L102.784 38.4375L102.636 39.0891L101.986 39.2483Z" fill="white"/>
<path d="M74.4219 61.5103L75.0756 61.6313L75.222 62.3211L75.3685 61.6313L76.0222 61.5103L75.3706 61.3511L75.222 60.7017L75.0735 61.3511L74.4219 61.5103Z" fill="white"/>
<path d="M50.6406 6.19553L51.2943 6.31651L51.4408 7.00418L51.5872 6.31651L52.2388 6.19553L51.5894 6.03635L51.4408 5.38477L51.2922 6.03635L50.6406 6.19553Z" fill="white"/>
<path d="M76.2246 59.008L76.8783 59.129L77.0248 59.8188L77.1712 59.129L77.8249 59.008L77.1733 58.8489L77.0248 58.1973L76.8762 58.8489L76.2246 59.008Z" fill="white"/>
<path d="M54.9697 80.5078C55.0167 80.5128 55.0601 80.5349 55.0916 80.57C55.1232 80.6051 55.1406 80.6506 55.1406 80.6978C55.1406 80.7449 55.1232 80.7905 55.0916 80.8255C55.0601 80.8606 55.0167 80.8828 54.9697 80.8877C54.9228 80.8828 54.8794 80.8606 54.8478 80.8255C54.8163 80.7905 54.7988 80.7449 54.7988 80.6978C54.7988 80.6506 54.8163 80.6051 54.8478 80.57C54.8794 80.5349 54.9228 80.5128 54.9697 80.5078Z" fill="white"/>
<path d="M88.7608 44.981C88.8077 44.9859 88.8511 45.0081 88.8826 45.0432C88.9142 45.0782 88.9317 45.1237 88.9317 45.1709C88.9317 45.2181 88.9142 45.2636 88.8826 45.2987C88.8511 45.3338 88.8077 45.3559 88.7608 45.3609C88.7138 45.3559 88.6704 45.3338 88.6389 45.2987C88.6073 45.2636 88.5898 45.2181 88.5898 45.1709C88.5898 45.1237 88.6073 45.0782 88.6389 45.0432C88.6704 45.0081 88.7138 44.9859 88.7608 44.981Z" fill="white"/>
<path d="M72.599 60.939C72.6491 60.939 72.6972 60.9589 72.7326 60.9943C72.768 61.0297 72.7879 61.0778 72.7879 61.1279C72.7879 61.178 72.768 61.226 72.7326 61.2614C72.6972 61.2969 72.6491 61.3168 72.599 61.3168C72.549 61.3168 72.5009 61.2969 72.4655 61.2614C72.4301 61.226 72.4102 61.178 72.4102 61.1279C72.4102 61.0778 72.4301 61.0297 72.4655 60.9943C72.5009 60.9589 72.549 60.939 72.599 60.939Z" fill="white"/>
<path d="M44.5053 79.0884C44.5554 79.0884 44.6034 79.1083 44.6389 79.1437C44.6743 79.1791 44.6942 79.2272 44.6942 79.2773C44.6942 79.3274 44.6743 79.3754 44.6389 79.4108C44.6034 79.4463 44.5554 79.4662 44.5053 79.4662C44.4552 79.4662 44.4072 79.4463 44.3717 79.4108C44.3363 79.3754 44.3164 79.3274 44.3164 79.2773C44.3164 79.2272 44.3363 79.1791 44.3717 79.1437C44.4072 79.1083 44.4552 79.0884 44.5053 79.0884Z" fill="white"/>
<path d="M107.741 81.5967C107.788 81.6016 107.832 81.6238 107.863 81.6589C107.895 81.6939 107.912 81.7395 107.912 81.7866C107.912 81.8338 107.895 81.8793 107.863 81.9144C107.832 81.9495 107.788 81.9716 107.741 81.9766C107.694 81.9716 107.651 81.9495 107.619 81.9144C107.588 81.8793 107.57 81.8338 107.57 81.7866C107.57 81.7395 107.588 81.6939 107.619 81.6589C107.651 81.6238 107.694 81.6016 107.741 81.5967Z" fill="white"/>
<path d="M97.7748 47.4644C97.8249 47.4644 97.873 47.4843 97.9084 47.5197C97.9438 47.5551 97.9637 47.6032 97.9637 47.6532C97.9637 47.7033 97.9438 47.7514 97.9084 47.7868C97.873 47.8222 97.8249 47.8421 97.7748 47.8421C97.7247 47.8421 97.6767 47.8222 97.6413 47.7868C97.6058 47.7514 97.5859 47.7033 97.5859 47.6532C97.5859 47.6032 97.6058 47.5551 97.6413 47.5197C97.6767 47.4843 97.7247 47.4644 97.7748 47.4644Z" fill="white"/>
<path d="M59.7157 77.1021C59.7512 77.1021 59.7852 77.1161 59.8103 77.1412C59.8354 77.1663 59.8495 77.2003 59.8495 77.2358C59.8495 77.2712 59.8354 77.3052 59.8103 77.3303C59.7852 77.3554 59.7512 77.3695 59.7157 77.3695C59.6803 77.3695 59.6463 77.3554 59.6212 77.3303C59.5961 77.3052 59.582 77.2712 59.582 77.2358C59.582 77.2003 59.5961 77.1663 59.6212 77.1412C59.6463 77.1161 59.6803 77.1021 59.7157 77.1021Z" fill="white"/>
<path d="M32.9568 7.52197C32.9896 7.5261 33.0198 7.54207 33.0417 7.56689C33.0636 7.5917 33.0757 7.62366 33.0757 7.65675C33.0757 7.68984 33.0636 7.72179 33.0417 7.74661C33.0198 7.77142 32.9896 7.78739 32.9568 7.79152C32.9239 7.78739 32.8938 7.77142 32.8719 7.74661C32.85 7.72179 32.8379 7.68984 32.8379 7.65675C32.8379 7.62366 32.85 7.5917 32.8719 7.56689C32.8938 7.54207 32.9239 7.5261 32.9568 7.52197Z" fill="white"/>
<path d="M84.6454 50.5928C84.6809 50.5928 84.7149 50.6069 84.74 50.6319C84.7651 50.657 84.7791 50.691 84.7791 50.7265C84.7791 50.762 84.7651 50.796 84.74 50.821C84.7149 50.8461 84.6809 50.8602 84.6454 50.8602C84.61 50.8602 84.576 50.8461 84.5509 50.821C84.5258 50.796 84.5117 50.762 84.5117 50.7265C84.5117 50.691 84.5258 50.657 84.5509 50.6319C84.576 50.6069 84.61 50.5928 84.6454 50.5928Z" fill="white"/>
<path d="M78.163 62.1875C78.1985 62.1875 78.2325 62.2016 78.2576 62.2267C78.2826 62.2517 78.2967 62.2858 78.2967 62.3212C78.2967 62.3567 78.2826 62.3907 78.2576 62.4158C78.2325 62.4408 78.1985 62.4549 78.163 62.4549C78.1275 62.4549 78.0935 62.4408 78.0685 62.4158C78.0434 62.3907 78.0293 62.3567 78.0293 62.3212C78.0293 62.2858 78.0434 62.2517 78.0685 62.2267C78.0935 62.2016 78.1275 62.1875 78.163 62.1875Z" fill="white"/>
<path d="M67.5623 59.9268C67.5951 59.9309 67.6253 59.9469 67.6472 59.9717C67.6691 59.9965 67.6811 60.0284 67.6811 60.0615C67.6811 60.0946 67.6691 60.1266 67.6472 60.1514C67.6253 60.1762 67.5951 60.1922 67.5623 60.1963C67.5294 60.1922 67.4992 60.1762 67.4773 60.1514C67.4554 60.1266 67.4434 60.0946 67.4434 60.0615C67.4434 60.0284 67.4554 59.9965 67.4773 59.9717C67.4992 59.9469 67.5294 59.9309 67.5623 59.9268Z" fill="white"/>
<path d="M80.0954 48.1582C80.1916 48.1582 80.2839 48.1964 80.352 48.2645C80.4201 48.3326 80.4583 48.4249 80.4583 48.5211C80.4583 48.6174 80.4201 48.7097 80.352 48.7778C80.2839 48.8458 80.1916 48.8841 80.0954 48.8841C79.9991 48.8841 79.9068 48.8458 79.8387 48.7778C79.7707 48.7097 79.7324 48.6174 79.7324 48.5211C79.7324 48.4249 79.7707 48.3326 79.8387 48.2645C79.9068 48.1964 79.9991 48.1582 80.0954 48.1582Z" fill="white"/>
<path d="M61.5098 11.4799L62.6792 11.6964L62.9403 12.9274L63.2013 11.6964L64.3708 11.4799L63.2056 11.1955L62.9403 10.0303L62.6729 11.1955L61.5098 11.4799Z" fill="white"/>
<path d="M65.9629 0.810769L66.6166 0.931747L66.763 1.61942L66.9095 0.931747L67.5611 0.810769L66.9116 0.651587L66.763 0L66.6145 0.651587L65.9629 0.810769Z" fill="white"/>
<path d="M26.351 18.4907C26.4011 18.4907 26.4492 18.5106 26.4846 18.5461C26.52 18.5815 26.5399 18.6295 26.5399 18.6796C26.5399 18.7297 26.52 18.7778 26.4846 18.8132C26.4492 18.8486 26.4011 18.8685 26.351 18.8685C26.3009 18.8685 26.2529 18.8486 26.2174 18.8132C26.182 18.7778 26.1621 18.7297 26.1621 18.6796C26.1621 18.6295 26.182 18.5815 26.2174 18.5461C26.2529 18.5106 26.3009 18.4907 26.351 18.4907Z" fill="white"/>
<path d="M29.3272 68.7285C29.3741 68.7335 29.4175 68.7556 29.4491 68.7907C29.4806 68.8258 29.4981 68.8713 29.4981 68.9185C29.4981 68.9657 29.4806 69.0112 29.4491 69.0462C29.4175 69.0813 29.3741 69.1035 29.3272 69.1084C29.2802 69.1035 29.2368 69.0813 29.2053 69.0462C29.1737 69.0112 29.1562 68.9657 29.1562 68.9185C29.1562 68.8713 29.1737 68.8258 29.2053 68.7907C29.2368 68.7556 29.2802 68.7335 29.3272 68.7285Z" fill="white"/>
<path d="M24.1963 78.1309C24.2432 78.1358 24.2866 78.158 24.3182 78.1931C24.3498 78.2281 24.3672 78.2736 24.3672 78.3208C24.3672 78.368 24.3498 78.4135 24.3182 78.4486C24.2866 78.4837 24.2432 78.5058 24.1963 78.5108C24.1494 78.5058 24.106 78.4837 24.0744 78.4486C24.0429 78.4135 24.0254 78.368 24.0254 78.3208C24.0254 78.2736 24.0429 78.2281 24.0744 78.1931C24.106 78.158 24.1494 78.1358 24.1963 78.1309Z" fill="white"/>
<path d="M33.8975 34.3706C33.9444 34.3756 33.9878 34.3977 34.0194 34.4328C34.0509 34.4679 34.0684 34.5134 34.0684 34.5606C34.0684 34.6077 34.0509 34.6533 34.0194 34.6883C33.9878 34.7234 33.9444 34.7456 33.8975 34.7505C33.8506 34.7456 33.8071 34.7234 33.7756 34.6883C33.744 34.6533 33.7266 34.6077 33.7266 34.5606C33.7266 34.5134 33.744 34.4679 33.7756 34.4328C33.8071 34.3977 33.8506 34.3756 33.8975 34.3706Z" fill="white"/>
<path d="M24.1963 1.6748C24.2432 1.67977 24.2866 1.70193 24.3182 1.737C24.3498 1.77207 24.3672 1.81758 24.3672 1.86476C24.3672 1.91194 24.3498 1.95745 24.3182 1.99253C24.2866 2.0276 24.2432 2.04975 24.1963 2.05472C24.1494 2.04975 24.106 2.0276 24.0744 1.99253C24.0429 1.95745 24.0254 1.91194 24.0254 1.86476C24.0254 1.81758 24.0429 1.77207 24.0744 1.737C24.106 1.70193 24.1494 1.67977 24.1963 1.6748Z" fill="white"/>
<path d="M41.3923 59.6978C41.4252 59.7019 41.4554 59.7179 41.4772 59.7427C41.4991 59.7675 41.5112 59.7994 41.5112 59.8325C41.5112 59.8656 41.4991 59.8976 41.4772 59.9224C41.4554 59.9472 41.4252 59.9632 41.3923 59.9673C41.3595 59.9632 41.3293 59.9472 41.3074 59.9224C41.2855 59.8976 41.2734 59.8656 41.2734 59.8325C41.2734 59.7994 41.2855 59.7675 41.3074 59.7427C41.3293 59.7179 41.3595 59.7019 41.3923 59.6978Z" fill="white"/>
<path d="M69.6572 76.8745C69.6926 76.8745 69.7266 76.8886 69.7517 76.9137C69.7768 76.9388 69.7909 76.9728 69.7909 77.0082C69.7909 77.0437 69.7768 77.0777 69.7517 77.1028C69.7266 77.1279 69.6926 77.1419 69.6572 77.1419C69.6217 77.1419 69.5877 77.1279 69.5626 77.1028C69.5375 77.0777 69.5234 77.0437 69.5234 77.0082C69.5234 76.9728 69.5375 76.9388 69.5626 76.9137C69.5877 76.8886 69.6217 76.8745 69.6572 76.8745Z" fill="white"/>
<path d="M89.5583 15.5679C89.5912 15.572 89.6214 15.588 89.6433 15.6128C89.6652 15.6376 89.6772 15.6696 89.6772 15.7026C89.6772 15.7357 89.6652 15.7677 89.6433 15.7925C89.6214 15.8173 89.5912 15.8333 89.5583 15.8374C89.5255 15.8333 89.4953 15.8173 89.4734 15.7925C89.4515 15.7677 89.4395 15.7357 89.4395 15.7026C89.4395 15.6696 89.4515 15.6376 89.4734 15.6128C89.4953 15.588 89.5255 15.572 89.5583 15.5679Z" fill="white"/>
<path d="M65.3505 7.36279C65.386 7.36279 65.42 7.37688 65.4451 7.40196C65.4701 7.42703 65.4842 7.46104 65.4842 7.49651C65.4842 7.53197 65.4701 7.56598 65.4451 7.59106C65.42 7.61613 65.386 7.63022 65.3505 7.63022C65.315 7.63022 65.281 7.61613 65.256 7.59106C65.2309 7.56598 65.2168 7.53197 65.2168 7.49651C65.2168 7.46104 65.2309 7.42703 65.256 7.40196C65.281 7.37688 65.315 7.36279 65.3505 7.36279Z" fill="white"/>
<path d="M57.3161 54.937C57.4123 54.937 57.5046 54.9753 57.5727 55.0433C57.6408 55.1114 57.679 55.2037 57.679 55.2999C57.679 55.3962 57.6408 55.4885 57.5727 55.5566C57.5046 55.6246 57.4123 55.6629 57.3161 55.6629C57.2198 55.6629 57.1275 55.6246 57.0594 55.5566C56.9914 55.4885 56.9531 55.3962 56.9531 55.2999C56.9531 55.2037 56.9914 55.1114 57.0594 55.0433C57.1275 54.9753 57.2198 54.937 57.3161 54.937Z" fill="white"/>
<path d="M105.146 27.5005C105.238 27.5075 105.323 27.5489 105.386 27.6164C105.448 27.6839 105.483 27.7725 105.483 27.8645C105.483 27.9565 105.448 28.0451 105.386 28.1126C105.323 28.1801 105.238 28.2215 105.146 28.2285C105.054 28.2215 104.968 28.1801 104.906 28.1126C104.843 28.0451 104.809 27.9565 104.809 27.8645C104.809 27.7725 104.843 27.6839 104.906 27.6164C104.968 27.5489 105.054 27.5075 105.146 27.5005Z" fill="white"/>
<path d="M30.8356 59.3345C30.9318 59.3345 31.0242 59.3727 31.0922 59.4408C31.1603 59.5088 31.1985 59.6012 31.1985 59.6974C31.1985 59.7937 31.1603 59.886 31.0922 59.954C31.0242 60.0221 30.9318 60.0603 30.8356 60.0603C30.7393 60.0603 30.647 60.0221 30.579 59.954C30.5109 59.886 30.4727 59.7937 30.4727 59.6974C30.4727 59.6012 30.5109 59.5088 30.579 59.4408C30.647 59.3727 30.7393 59.3345 30.8356 59.3345Z" fill="white"/>
<path d="M61.3398 45.3606L61.9936 45.4816L62.14 46.1692L62.2864 45.4816L62.9402 45.3606L62.2886 45.2014L62.14 44.5498L61.9914 45.2014L61.3398 45.3606Z" fill="white"/>
<path d="M75.2227 78.3157L75.8764 78.4366L76.0228 79.1243L76.1671 78.4366L76.8208 78.3135L76.1714 78.1565L76.0228 77.5049L75.8721 78.1565L75.2227 78.3157Z" fill="white"/>
<path d="M78.1182 69.8276C78.1651 69.8326 78.2085 69.8548 78.2401 69.8898C78.2716 69.9249 78.2891 69.9704 78.2891 70.0176C78.2891 70.0648 78.2716 70.1103 78.2401 70.1454C78.2085 70.1804 78.1651 70.2026 78.1182 70.2076C78.0713 70.2026 78.0278 70.1804 77.9963 70.1454C77.9647 70.1103 77.9473 70.0648 77.9473 70.0176C77.9473 69.9704 77.9647 69.9249 77.9963 69.8898C78.0278 69.8548 78.0713 69.8326 78.1182 69.8276Z" fill="white"/>
<path d="M85.4951 64.7896C85.542 64.7945 85.5855 64.8167 85.617 64.8517C85.6486 64.8868 85.666 64.9323 85.666 64.9795C85.666 65.0267 85.6486 65.0722 85.617 65.1073C85.5855 65.1423 85.542 65.1645 85.4951 65.1695C85.4482 65.1645 85.4048 65.1423 85.3732 65.1073C85.3417 65.0722 85.3242 65.0267 85.3242 64.9795C85.3242 64.9323 85.3417 64.8868 85.3732 64.8517C85.4048 64.8167 85.4482 64.7945 85.4951 64.7896Z" fill="white"/>
<path d="M62.1387 73.489L62.7924 73.61L62.9388 74.2998L63.0853 73.61L63.739 73.489L63.0874 73.3298L62.9388 72.6782L62.7903 73.3298L62.1387 73.489Z" fill="white"/>
<path d="M89.0401 12.48C89.087 12.4849 89.1304 12.5071 89.1619 12.5422C89.1935 12.5772 89.211 12.6228 89.211 12.6699C89.211 12.7171 89.1935 12.7626 89.1619 12.7977C89.1304 12.8328 89.087 12.8549 89.0401 12.8599C88.9931 12.8549 88.9497 12.8328 88.9182 12.7977C88.8866 12.7626 88.8691 12.7171 88.8691 12.6699C88.8691 12.6228 88.8866 12.5772 88.9182 12.5422C88.9497 12.5071 88.9931 12.4849 89.0401 12.48Z" fill="white"/>
<path d="M93.5966 65.3965C93.6321 65.3965 93.6661 65.4106 93.6912 65.4356C93.7162 65.4607 93.7303 65.4947 93.7303 65.5302C93.7303 65.5657 93.7162 65.5997 93.6912 65.6247C93.6661 65.6498 93.6321 65.6639 93.5966 65.6639C93.5611 65.6639 93.5271 65.6498 93.5021 65.6247C93.477 65.5997 93.4629 65.5657 93.4629 65.5302C93.4629 65.4947 93.477 65.4607 93.5021 65.4356C93.5271 65.4106 93.5611 65.3965 93.5966 65.3965Z" fill="white"/>
<path d="M36.5762 42.6057L37.2299 42.7267L37.3742 43.4143L37.5207 42.7267L38.1744 42.6057L37.5249 42.4465L37.3742 41.7949L37.2256 42.4465L36.5762 42.6057Z" fill="white"/>
<path d="M29.0209 53.0293C29.071 53.0293 29.1191 53.0492 29.1545 53.0846C29.1899 53.12 29.2098 53.1681 29.2098 53.2182C29.2098 53.2683 29.1899 53.3163 29.1545 53.3518C29.1191 53.3872 29.071 53.4071 29.0209 53.4071C28.9708 53.4071 28.9228 53.3872 28.8874 53.3518C28.8519 53.3163 28.832 53.2683 28.832 53.2182C28.832 53.1681 28.8519 53.12 28.8874 53.0846C28.9228 53.0492 28.9708 53.0293 29.0209 53.0293Z" fill="white"/>
<path d="M55.144 39.0786C55.1941 39.0786 55.2421 39.0985 55.2775 39.1339C55.313 39.1694 55.3329 39.2174 55.3329 39.2675C55.3329 39.3176 55.313 39.3657 55.2775 39.4011C55.2421 39.4365 55.1941 39.4564 55.144 39.4564C55.0939 39.4564 55.0458 39.4365 55.0104 39.4011C54.975 39.3657 54.9551 39.3176 54.9551 39.2675C54.9551 39.2174 54.975 39.1694 55.0104 39.1339C55.0458 39.0985 55.0939 39.0786 55.144 39.0786Z" fill="white"/>
<path d="M32.9568 19.9404C32.9896 19.9446 33.0198 19.9605 33.0417 19.9853C33.0636 20.0102 33.0757 20.0421 33.0757 20.0752C33.0757 20.1083 33.0636 20.1402 33.0417 20.1651C33.0198 20.1899 32.9896 20.2059 32.9568 20.21C32.9239 20.2059 32.8938 20.1899 32.8719 20.1651C32.85 20.1402 32.8379 20.1083 32.8379 20.0752C32.8379 20.0421 32.85 20.0102 32.8719 19.9853C32.8938 19.9605 32.9239 19.9446 32.9568 19.9404Z" fill="white"/>
<path d="M31.2379 18.7026C31.3342 18.7026 31.4265 18.7409 31.4946 18.8089C31.5626 18.877 31.6009 18.9693 31.6009 19.0656C31.6009 19.1618 31.5626 19.2541 31.4946 19.3222C31.4265 19.3903 31.3342 19.4285 31.2379 19.4285C31.1417 19.4285 31.0494 19.3903 30.9813 19.3222C30.9132 19.2541 30.875 19.1618 30.875 19.0656C30.875 18.9693 30.9132 18.877 30.9813 18.8089C31.0494 18.7409 31.1417 18.7026 31.2379 18.7026Z" fill="white"/>
<path d="M105.496 2.67676C105.592 2.67676 105.684 2.715 105.752 2.78306C105.82 2.85112 105.859 2.94344 105.859 3.03969C105.859 3.13595 105.82 3.22826 105.752 3.29633C105.684 3.36439 105.592 3.40263 105.496 3.40263C105.399 3.40263 105.307 3.36439 105.239 3.29633C105.171 3.22826 105.133 3.13595 105.133 3.03969C105.133 2.94344 105.171 2.85112 105.239 2.78306C105.307 2.715 105.399 2.67676 105.496 2.67676Z" fill="white"/>
<path d="M136.144 76.3121C138.923 73.6902 139.05 69.3125 136.428 66.5341C133.806 63.7557 129.428 63.6288 126.65 66.2507C123.871 68.8726 123.745 73.2504 126.366 76.0287C128.988 78.8071 133.366 78.934 136.144 76.3121Z" fill="#455A64"/>
<path d="M124.962 73.8248C125.559 73.2156 126.249 72.7042 127.006 72.3094C128.324 71.5963 131.987 70.6391 133.638 69.6309C135.96 68.2152 136.156 66.8717 136.088 66.1968C135.432 65.5956 134.667 65.1258 133.834 64.813C133.717 65.524 133.244 67.7504 129.34 69.4823C127.324 70.3801 125.308 70.0512 124.612 69.9408C124.352 71.2422 124.474 72.5908 124.962 73.8248Z" fill="#37474F"/>
<path d="M128.08 77.3563C129.473 78.1153 131.084 78.3737 132.644 78.0883C134.204 77.8028 135.619 76.9908 136.653 75.7878C136.246 75.6059 135.818 75.4741 135.379 75.3951C133.488 75.0938 131.518 76.1465 130.807 76.624C130.015 77.1864 129.047 77.4462 128.08 77.3563Z" fill="#37474F"/>
<path d="M125.455 74.8269L125.555 74.9882L125.648 75.1304C125.72 75.2387 125.793 75.3427 125.86 75.4467C125.928 75.5507 126.003 75.6292 126.073 75.7162L126.155 75.8139L126.251 75.9221C126.283 75.9582 126.315 75.9943 126.349 76.0282L126.467 76.1513L126.586 76.2702L126.692 76.3699C126.771 76.4421 126.852 76.5122 126.932 76.5822C127.372 76.6777 127.943 76.5822 128.755 76.1747C129.969 75.5825 131.224 74.2921 133.573 73.2266C135.025 72.5819 136.627 72.3499 138.202 72.5559C138.465 71.1516 138.286 69.7003 137.689 68.4023C137.247 68.4214 135.844 68.7377 133.019 71.4756C132.143 72.3505 131.18 73.1328 130.144 73.8103C127.671 75.3703 126.145 75.0838 125.498 74.8269H125.455Z" fill="#37474F"/>
<path d="M131.726 67.2987C131.875 67.5682 132.312 67.6128 132.705 67.3984C133.097 67.184 133.293 66.7893 133.146 66.5197C133 66.2502 132.56 66.2077 132.168 66.4221C131.775 66.6365 131.58 67.0185 131.726 67.2987Z" fill="#263238"/>
<path d="M133.723 67.6014C133.806 67.7521 134.065 67.7712 134.301 67.6417C134.536 67.5123 134.657 67.2852 134.574 67.1345C134.492 66.9838 134.233 66.9626 133.997 67.092C133.761 67.2215 133.641 67.4486 133.723 67.6014Z" fill="#263238"/>
<path d="M129.15 76.5474C129.277 76.7787 129.657 76.8127 129.999 76.6238C130.34 76.4349 130.517 76.0974 130.391 75.8661C130.266 75.6347 129.884 75.6029 129.542 75.7897C129.201 75.9764 129.024 76.3182 129.15 76.5474Z" fill="#263238"/>
<path d="M130.441 76.6711C130.457 76.7416 130.495 76.8052 130.55 76.853C130.604 76.9008 130.672 76.9303 130.744 76.9373C130.816 76.9444 130.889 76.9287 130.952 76.8924C131.014 76.8561 131.064 76.801 131.094 76.735C131.123 76.669 131.132 76.5953 131.117 76.5243C131.103 76.4533 131.067 76.3887 131.013 76.3394C130.96 76.2902 130.893 76.2588 130.821 76.2498C130.749 76.2407 130.677 76.2545 130.613 76.289C130.541 76.3184 130.483 76.3745 130.451 76.4456C130.419 76.5168 130.415 76.5975 130.441 76.6711Z" fill="#263238"/>
<path d="M130.586 76.0131C130.617 76.0503 130.661 76.0742 130.709 76.0801C130.757 76.086 130.806 76.0735 130.845 76.0449C130.949 75.9876 131 75.8815 130.96 75.8094C130.928 75.7721 130.884 75.748 130.835 75.7421C130.787 75.7362 130.738 75.7489 130.699 75.7775C130.597 75.8348 130.546 75.9409 130.586 76.0131Z" fill="#263238"/>
<path d="M134.884 75.6035C134.997 75.8157 135.309 75.8539 135.585 75.7032C135.861 75.5525 135.99 75.2639 135.878 75.0665C135.765 74.8691 135.453 74.8161 135.177 74.9667C134.901 75.1174 134.772 75.3976 134.884 75.6035Z" fill="#263238"/>
<path d="M134.63 74.6802C134.651 74.7315 134.687 74.7753 134.733 74.8058C134.78 74.8362 134.834 74.8519 134.889 74.8508C134.945 74.8496 134.999 74.8316 135.044 74.7992C135.089 74.7668 135.123 74.7215 135.141 74.6693C135.16 74.6171 135.162 74.5605 135.148 74.5069C135.134 74.4533 135.104 74.4053 135.062 74.3692C135.02 74.3331 134.968 74.3106 134.913 74.3048C134.857 74.2989 134.802 74.3099 134.753 74.3363C134.691 74.3657 134.644 74.4184 134.621 74.4829C134.598 74.5473 134.601 74.6182 134.63 74.6802Z" fill="#263238"/>
<path d="M125.869 75.4462C130.156 74.5384 134.331 73.1619 138.317 71.3414C141.416 69.8854 143.328 68.491 143.069 67.7035C142.81 66.9161 140.486 66.9055 137.211 67.5359C137.301 67.6738 137.383 67.8139 137.464 67.9604C137.494 68.0155 137.521 68.0707 137.551 68.1238C139.294 67.9009 140.448 68.0028 140.605 68.4825C140.762 68.9621 139.867 69.7559 138.285 70.6219C136.287 71.6714 134.199 72.5421 132.048 73.224C129.906 73.951 127.704 74.4872 125.468 74.8264C123.687 75.062 122.497 74.9623 122.344 74.4762C122.191 73.9902 123.055 73.2346 124.581 72.3835C124.543 72.1516 124.517 71.9178 124.504 71.6831C121.41 73.1349 119.47 74.5781 119.737 75.3634C120.005 76.1487 122.427 76.1402 125.869 75.4462Z" fill="#263238"/>
<path d="M126.26 75.9197C128.327 75.4768 130.37 74.9271 132.379 74.2727C134.382 73.632 136.35 72.8889 138.276 72.0463C142.58 70.1361 145.328 68.1898 144.97 67.0734C144.611 65.957 141.302 65.9804 136.769 66.9248C136.834 67.0076 136.9 67.0925 136.964 67.1795C140.772 66.4494 143.501 66.4898 143.809 67.447C144.116 68.4042 141.884 70.066 138.303 71.7173C136.348 72.604 134.343 73.3764 132.299 74.0307C130.248 74.6986 128.159 75.2458 126.044 75.6693C122.192 76.4164 119.424 76.3803 119.114 75.4146C118.804 74.4489 120.982 72.8401 124.48 71.2122C124.48 71.1039 124.48 70.9999 124.492 70.8874C120.277 72.7658 117.599 74.6866 117.953 75.7902C118.308 76.8939 121.674 76.8833 126.26 75.9197Z" fill="#37474F"/>
<path d="M6.4999 53.3268C8.63312 52.5985 9.77204 50.2788 9.04376 48.1456C8.31547 46.0124 5.99576 44.8734 3.86254 45.6017C1.72932 46.33 0.590392 48.6497 1.31868 50.7829C2.04696 52.9162 4.36667 54.0551 6.4999 53.3268Z" fill="#EBEBEB"/>
<path d="M9.08848 50.6477C8.70823 50.318 8.27849 50.0502 7.81502 49.8539C7.00638 49.4974 4.80541 49.1068 3.7824 48.5911C2.34976 47.8695 2.17148 47.0905 2.17997 46.6809C2.53624 46.2956 2.96361 45.9829 3.43857 45.7598C3.54044 46.1715 3.9246 47.4577 6.30385 48.3067C7.53274 48.7312 8.70857 48.451 9.10758 48.3534C9.32193 49.1041 9.3153 49.9007 9.08848 50.6477Z" fill="#DBDBDB"/>
<path d="M7.42187 52.8736C6.6393 53.3876 5.70386 53.617 4.77226 53.5235C3.84067 53.43 2.9695 53.0192 2.30469 52.3599C2.53589 52.2333 2.78182 52.1356 3.03693 52.0692C4.13422 51.8017 5.34189 52.326 5.78335 52.5743C6.27624 52.8666 6.85749 52.9728 7.42187 52.8736Z" fill="#DBDBDB"/>
<path d="M8.84082 51.2606L8.78988 51.3583C8.77502 51.3901 8.75805 51.4177 8.74107 51.4474C8.70428 51.5153 8.66607 51.5811 8.62646 51.6448C8.59037 51.7021 8.55217 51.7573 8.51397 51.8125L8.4694 51.874L8.41633 51.9356L8.36327 52.0035C8.34346 52.029 8.32224 52.0544 8.2996 52.0799C8.27696 52.1054 8.25574 52.1308 8.23593 52.1563L8.1765 52.22C8.13405 52.2667 8.0916 52.3112 8.04703 52.3558C7.79446 52.4343 7.45275 52.4004 6.9561 52.203C6.21325 51.9122 5.41521 51.2118 3.98469 50.6982C3.10261 50.3891 2.15261 50.3282 1.23827 50.522C1.01696 49.7088 1.05405 48.8469 1.34439 48.0558C1.60333 48.0451 2.44381 48.164 4.2309 49.6412C4.78818 50.1123 5.39194 50.5255 6.03284 50.8744C7.56312 51.6745 8.44605 51.4368 8.81535 51.2521H8.84082V51.2606Z" fill="#DBDBDB"/>
<path d="M4.96466 52.7953C5.03682 52.6297 5.29151 52.5831 5.53347 52.6871C5.77543 52.7911 5.91126 53.0118 5.8391 53.1773C5.76694 53.3429 5.51224 53.3896 5.27029 53.2877C5.02833 53.1858 4.8925 52.963 4.96466 52.7953Z" fill="white"/>
<path d="M6.12062 52.5044C6.16095 52.411 6.31165 52.3877 6.45809 52.4513C6.60454 52.515 6.68732 52.6402 6.64699 52.7336C6.60666 52.827 6.45385 52.8525 6.30952 52.7888C6.1652 52.7251 6.08242 52.5999 6.12062 52.5044Z" fill="white"/>
<path d="M2.9561 47.491C3.01765 47.3509 3.23838 47.3085 3.45062 47.4019C3.66287 47.4953 3.78384 47.6842 3.72017 47.8264C3.6565 47.9686 3.43789 48.0089 3.22564 47.9155C3.0134 47.8221 2.89879 47.6332 2.9561 47.491Z" fill="white"/>
<path d="M3.7071 47.3515C3.73163 47.3124 3.77049 47.2846 3.81532 47.2739C3.86016 47.2632 3.90742 47.2704 3.94694 47.2942C3.99034 47.3075 4.02702 47.3369 4.0495 47.3763C4.07198 47.4158 4.07856 47.4623 4.06792 47.5064C4.03774 47.536 3.9994 47.5559 3.95783 47.5636C3.91625 47.5713 3.87333 47.5664 3.83456 47.5495C3.7958 47.5326 3.76296 47.5046 3.74025 47.4689C3.71754 47.4333 3.706 47.3916 3.7071 47.3494V47.3515Z" fill="white"/>
<path d="M3.82717 47.7288C3.84352 47.7054 3.86821 47.689 3.89621 47.6831C3.92421 47.6772 3.9534 47.6822 3.97786 47.697C4.04153 47.7246 4.07549 47.784 4.05639 47.8286C4.04071 47.8529 4.01614 47.87 3.98797 47.8763C3.9598 47.8827 3.93026 47.8777 3.9057 47.8626C3.87795 47.8546 3.85433 47.8363 3.83971 47.8114C3.82509 47.7865 3.8206 47.757 3.82717 47.7288Z" fill="white"/>
<path d="M6.37603 47.7398C6.3847 47.6674 6.41589 47.5995 6.46519 47.5458C6.51449 47.4921 6.57941 47.4552 6.65079 47.4404C6.72218 47.4256 6.79641 47.4335 6.86304 47.4631C6.92966 47.4927 6.9853 47.5425 7.0221 47.6055C7.05891 47.6684 7.07502 47.7413 7.06817 47.8139C7.06131 47.8865 7.03185 47.9551 6.98391 48.01C6.93598 48.065 6.872 48.1035 6.80102 48.1201C6.73003 48.1367 6.65561 48.1306 6.58827 48.1027C6.51258 48.0818 6.44805 48.0321 6.40841 47.9644C6.36877 47.8966 6.35715 47.816 6.37603 47.7398Z" fill="white"/>
<path d="M6.27606 48.296C6.29461 48.259 6.32663 48.2306 6.36552 48.2166C6.4044 48.2026 6.44718 48.204 6.48503 48.2206C6.52288 48.2372 6.55292 48.2677 6.56893 48.3059C6.58494 48.344 6.58571 48.3868 6.57108 48.4254C6.55253 48.4624 6.52051 48.4908 6.48162 48.5048C6.44274 48.5188 6.39996 48.5174 6.36211 48.5007C6.32426 48.4841 6.29423 48.4536 6.27822 48.4155C6.26221 48.3774 6.26143 48.3346 6.27606 48.296Z" fill="white"/>
<path d="M76.7701 23.3861C76.6194 23.2057 67.8877 19.1561 59.9795 25.1902C52.7102 30.7382 50.1866 41.1657 51.1523 41.4161C52.3345 41.7218 55.5733 36.7468 61.79 34.011C63.9952 33.041 67.5035 34.011 67.5035 34.011L76.7701 23.3861Z" fill="#4D4D4D"/>
<path opacity="0.1" d="M67.5079 34.0089C66.4668 33.7441 65.3983 33.6016 64.3242 33.5844C65.6953 30.7149 68.255 25.3621 69.9168 21.894C73.8285 21.9301 76.6938 23.2864 76.7808 23.3797L67.5079 34.0089Z" fill="black"/>
<path d="M91.1532 40.3506C91.306 40.5289 93.8742 49.806 86.6261 56.619C79.9637 62.8844 69.2646 63.6676 69.1754 62.6743C69.0672 61.4582 74.507 59.0768 78.2212 53.3908C79.5371 51.3745 79.1572 47.7536 79.1572 47.7536L91.1532 40.3506Z" fill="#4D4D4D"/>
<path opacity="0.1" d="M91.4892 47.414L79.0391 51.037C79.2055 49.9508 79.2418 48.8485 79.1473 47.7536L91.1433 40.3506C91.2388 40.4525 92.126 43.5279 91.4892 47.414Z" fill="black"/>
<path d="M70.8229 51.6913L62.2949 41.6331C62.2949 41.6331 66.752 29.7072 77.3133 21.6971C82.5917 17.7006 88.7744 14.7101 94.3288 12.732C101.98 9.9898 108.381 9.20026 109.373 10.3633C110.364 11.5264 108.524 17.7197 104.58 24.8235C101.717 29.9619 97.7523 35.5821 92.9471 40.1368C83.3155 49.2548 70.8229 51.6913 70.8229 51.6913Z" fill="white"/>
<path d="M91.5412 35.8294C90.3941 36.8029 88.9842 37.4143 87.4896 37.5863C85.995 37.7582 84.483 37.483 83.1448 36.7955C81.8067 36.1079 80.7025 35.0389 79.9721 33.7237C79.2417 32.4084 78.9177 30.9061 79.0413 29.4067C79.1649 27.9074 79.7305 26.4784 80.6664 25.3005C81.6023 24.1226 82.8666 23.2488 84.2993 22.7896C85.7319 22.3304 87.2686 22.3065 88.7148 22.7209C90.1611 23.1353 91.452 23.9693 92.4241 25.1175C93.7258 26.6558 94.3639 28.6477 94.1984 30.6561C94.0329 32.6644 93.0772 34.525 91.5412 35.8294Z" fill="#A6A6A6"/>
<path d="M91.956 35.1231C90.8087 36.0957 89.3988 36.7063 87.9046 36.8776C86.4103 37.049 84.8988 36.7733 83.5611 36.0856C82.2235 35.3979 81.1198 34.329 80.3897 33.014C79.6596 31.699 79.3358 30.1971 79.4593 28.6981C79.5828 27.1991 80.148 25.7704 81.0834 24.5927C82.0189 23.4149 83.2826 22.541 84.7147 22.0814C86.1469 21.6219 87.6831 21.5973 89.1292 22.0109C90.5753 22.4244 91.8663 23.2575 92.8389 24.4048C94.1426 25.9434 94.782 27.9368 94.6164 29.9467C94.4508 31.9566 93.4939 33.8185 91.956 35.1231Z" fill="#4D4D4D"/>
<path d="M90.4523 33.3418C89.6573 34.0177 88.6797 34.4426 87.6432 34.5627C86.6066 34.6829 85.5577 34.4928 84.6292 34.0167C83.7007 33.5405 82.9343 32.7996 82.427 31.8877C81.9197 30.9759 81.6943 29.934 81.7792 28.894C81.8642 27.854 82.2558 26.8626 82.9044 26.0451C83.553 25.2277 84.4296 24.6211 85.4231 24.302C86.4165 23.9829 87.4824 23.9656 88.4857 24.2525C89.489 24.5393 90.3846 25.1173 91.0593 25.9133C91.9629 26.9793 92.4065 28.3603 92.2927 29.7531C92.1789 31.1459 91.517 32.4366 90.4523 33.3418Z" fill="white"/>
<path d="M90.4534 33.3423C89.9557 33.7661 89.3835 34.0936 88.766 34.308L84.5212 33.9621C83.9468 33.6507 83.4357 33.2346 83.0142 32.7353C82.7048 32.3728 82.447 31.9693 82.248 31.5361L91.3957 32.2811C91.1316 32.6763 90.8145 33.0333 90.4534 33.3423Z" fill="#EBEBEB"/>
<path d="M91.5153 26.5357L83.0723 25.848C83.2422 25.6526 83.4267 25.4702 83.6241 25.3025C84.6899 24.3984 86.071 23.9545 87.464 24.0683C88.857 24.1821 90.1477 24.8444 91.0526 25.9095C91.2225 26.1062 91.3772 26.3155 91.5153 26.5357Z" fill="#EBEBEB"/>
<path d="M91.9759 31.1882L81.8731 30.3626C81.8396 30.2078 81.8148 30.0512 81.7988 29.8936L92.1223 30.7425C92.082 30.8869 92.0311 31.0375 91.9759 31.1882Z" fill="#EBEBEB"/>
<path d="M104.583 24.8227L94.332 12.7248C101.983 9.98899 108.385 9.19945 109.376 10.3625C110.367 11.5256 108.535 17.7189 104.583 24.8227Z" fill="#4D4D4D"/>
<path d="M97.3427 13.7519C97.2759 13.8088 97.1937 13.8447 97.1064 13.8549C97.0192 13.8651 96.9309 13.8492 96.8528 13.8091C96.7746 13.7691 96.7101 13.7068 96.6674 13.6301C96.6246 13.5534 96.6057 13.4657 96.6128 13.3782C96.6199 13.2907 96.6529 13.2073 96.7075 13.1385C96.7621 13.0697 96.8359 13.0187 96.9195 12.9919C97.0031 12.9651 97.0928 12.9637 97.1772 12.9879C97.2616 13.0121 97.3369 13.0608 97.3936 13.1279C97.4694 13.2175 97.5066 13.3334 97.497 13.4504C97.4875 13.5673 97.432 13.6757 97.3427 13.7519Z" fill="white"/>
<path d="M99.1662 15.9041C99.122 15.9431 99.0704 15.9728 99.0145 15.9915C98.9586 16.0103 98.8995 16.0178 98.8407 16.0134C98.7819 16.0091 98.7245 15.9931 98.672 15.9663C98.6195 15.9396 98.5728 15.9026 98.5347 15.8576C98.4966 15.8126 98.4679 15.7605 98.4502 15.7042C98.4325 15.648 98.4261 15.5888 98.4316 15.5301C98.437 15.4713 98.4541 15.4143 98.4819 15.3623C98.5096 15.3103 98.5475 15.2643 98.5932 15.2271C98.6833 15.1537 98.7986 15.1186 98.9142 15.1293C99.0299 15.1401 99.1368 15.1958 99.2119 15.2845C99.2869 15.3731 99.3242 15.4877 99.3157 15.6036C99.3071 15.7195 99.2535 15.8274 99.1662 15.9041Z" fill="white"/>
<path d="M100.991 18.0546C100.924 18.1096 100.842 18.1435 100.755 18.1521C100.668 18.1607 100.581 18.1437 100.504 18.1031C100.427 18.0625 100.364 18.0001 100.322 17.9238C100.28 17.8475 100.262 17.7606 100.269 17.6738C100.276 17.5871 100.309 17.5044 100.363 17.4361C100.417 17.3677 100.489 17.3167 100.572 17.2895C100.655 17.2622 100.744 17.2598 100.828 17.2826C100.912 17.3055 100.987 17.3525 101.044 17.4179C101.084 17.4625 101.114 17.5148 101.133 17.5715C101.152 17.6282 101.159 17.6881 101.154 17.7476C101.149 17.8071 101.132 17.865 101.104 17.9178C101.076 17.9706 101.038 18.0171 100.991 18.0546Z" fill="white"/>
<path d="M102.817 20.2064C102.749 20.2616 102.667 20.2958 102.581 20.3048C102.494 20.3137 102.407 20.2969 102.33 20.2566C102.253 20.2163 102.189 20.1542 102.147 20.078C102.105 20.0018 102.086 19.9149 102.093 19.8281C102.1 19.7414 102.132 19.6586 102.186 19.59C102.24 19.5215 102.312 19.4703 102.395 19.4427C102.478 19.4152 102.566 19.4125 102.65 19.4351C102.735 19.4577 102.81 19.5045 102.868 19.5697C102.907 19.6144 102.937 19.6665 102.956 19.7231C102.975 19.7797 102.982 19.8394 102.978 19.8989C102.973 19.9583 102.956 20.0162 102.928 20.069C102.901 20.1219 102.863 20.1686 102.817 20.2064Z" fill="white"/>
<path d="M104.65 22.3587C104.583 22.4154 104.501 22.451 104.414 22.461C104.327 22.4709 104.239 22.4549 104.161 22.4148C104.083 22.3748 104.018 22.3125 103.976 22.2358C103.933 22.1592 103.914 22.0717 103.921 21.9843C103.928 21.8969 103.961 21.8136 104.016 21.7448C104.07 21.6761 104.144 21.625 104.227 21.5981C104.311 21.5712 104.4 21.5696 104.485 21.5935C104.569 21.6174 104.644 21.6658 104.701 21.7326C104.739 21.777 104.768 21.8285 104.786 21.884C104.804 21.9395 104.81 21.9981 104.806 22.0562C104.801 22.1144 104.785 22.171 104.758 22.2229C104.731 22.2749 104.695 22.321 104.65 22.3587Z" fill="white"/>
<path d="M64.7471 41.3969C64.657 41.4703 64.5417 41.5054 64.4261 41.4947C64.3104 41.4839 64.2035 41.4282 64.1284 41.3395C64.0534 41.2509 64.0161 41.1363 64.0246 41.0204C64.0332 40.9045 64.0868 40.7966 64.1741 40.7199C64.2183 40.6809 64.2699 40.6512 64.3258 40.6324C64.3817 40.6137 64.4408 40.6062 64.4996 40.6106C64.5584 40.6149 64.6158 40.6309 64.6683 40.6577C64.7208 40.6844 64.7675 40.7214 64.8056 40.7664C64.8437 40.8114 64.8724 40.8635 64.8901 40.9198C64.9079 40.976 64.9142 41.0352 64.9087 41.0939C64.9033 41.1526 64.8862 41.2097 64.8584 41.2617C64.8307 41.3137 64.7928 41.3597 64.7471 41.3969Z" fill="#A6A6A6"/>
<path d="M66.5804 43.5487C66.5132 43.6039 66.4311 43.6381 66.3445 43.647C66.258 43.656 66.1707 43.6392 66.0935 43.5989C66.0164 43.5586 65.9528 43.4964 65.9108 43.4203C65.8687 43.3441 65.8499 43.2572 65.8569 43.1704C65.8638 43.0837 65.8961 43.0009 65.9498 42.9323C66.0035 42.8638 66.0761 42.8126 66.1586 42.785C66.2412 42.7575 66.3301 42.7548 66.4141 42.7774C66.4982 42.8 66.5737 42.8468 66.6314 42.912C66.6709 42.9566 66.701 43.0088 66.7198 43.0654C66.7387 43.1219 66.746 43.1817 66.7412 43.2412C66.7365 43.3006 66.7198 43.3585 66.6922 43.4113C66.6645 43.4642 66.6265 43.5109 66.5804 43.5487Z" fill="#A6A6A6"/>
<path d="M68.4041 45.7054C68.3372 45.7621 68.2551 45.7976 68.1679 45.8076C68.0808 45.8176 67.9927 45.8016 67.9147 45.7615C67.8367 45.7214 67.7724 45.6592 67.7297 45.5825C67.6871 45.5059 67.6682 45.4184 67.6753 45.331C67.6824 45.2436 67.7152 45.1602 67.7697 45.0915C67.8241 45.0228 67.8977 44.9717 67.9812 44.9448C68.0646 44.9179 68.1542 44.9163 68.2385 44.9402C68.3229 44.9641 68.3982 45.0125 68.4551 45.0793C68.4929 45.1237 68.5216 45.1751 68.5396 45.2307C68.5575 45.2862 68.5643 45.3447 68.5595 45.4029C68.5548 45.4611 68.5386 45.5177 68.512 45.5696C68.4853 45.6215 68.4487 45.6677 68.4041 45.7054Z" fill="#A6A6A6"/>
<path d="M70.2289 47.8514C70.1616 47.9067 70.0796 47.9409 69.993 47.9498C69.9064 47.9587 69.8191 47.942 69.742 47.9016C69.6648 47.8613 69.6013 47.7992 69.5592 47.723C69.5171 47.6468 69.4984 47.5599 69.5053 47.4732C69.5123 47.3864 69.5446 47.3036 69.5982 47.2351C69.6519 47.1665 69.7245 47.1153 69.8071 47.0877C69.8896 47.0602 69.9785 47.0575 70.0626 47.0801C70.1466 47.1027 70.2222 47.1495 70.2798 47.2147C70.3193 47.2594 70.3494 47.3116 70.3683 47.3681C70.3871 47.4247 70.3944 47.4845 70.3897 47.5439C70.3849 47.6033 70.3682 47.6612 70.3406 47.7141C70.313 47.7669 70.275 47.8136 70.2289 47.8514Z" fill="#A6A6A6"/>
<path d="M72.0519 50.0009C71.9844 50.0559 71.9022 50.0898 71.8156 50.0984C71.729 50.107 71.6418 50.0899 71.5648 50.0494C71.4879 50.0088 71.4245 49.9464 71.3827 49.8701C71.3409 49.7938 71.3224 49.7069 71.3297 49.6201C71.3369 49.5334 71.3695 49.4507 71.4233 49.3824C71.4772 49.314 71.55 49.263 71.6326 49.2357C71.7153 49.2085 71.8041 49.2061 71.8881 49.2289C71.9721 49.2518 72.0475 49.2988 72.1049 49.3642C72.1446 49.4088 72.1748 49.4611 72.1936 49.5178C72.2125 49.5744 72.2197 49.6344 72.2147 49.6939C72.2098 49.7534 72.1928 49.8113 72.1648 49.8641C72.1368 49.9169 72.0984 49.9634 72.0519 50.0009Z" fill="#A6A6A6"/>
<path opacity="0.2" d="M108.893 10.0633C102.988 10.4878 92.7624 14.062 82.0038 22.5008C74.0532 28.7344 68.2526 39.6437 65.5486 45.4697L62.2949 41.6324C62.2949 41.6324 66.752 29.7064 77.3133 21.6964C82.5917 17.6998 88.7744 14.7093 94.3288 12.7312C101.186 10.2713 107.038 9.3799 108.893 10.0633Z" fill="white"/>
<path d="M67.0141 53.3291L60.0801 45.1492L62.7777 42.2012L70.3633 51.1493L67.0141 53.3291Z" fill="#4D4D4D"/>
<path opacity="0.1" d="M70.3632 51.1497L68.731 52.2109L61.7461 43.3285L62.7776 42.2036L70.3632 51.1497Z" fill="black"/>
<path d="M104.474 25.916L101.305 25.7038L99.8148 28.7219L99.9506 25.3599L97.0684 24.027L100.269 24.0589L101.725 21.2212L101.649 24.4091L104.474 25.916Z" fill="#FCFCFC"/>
<path d="M103.695 14.2107L101.923 14.094L101.091 15.7813L101.168 13.9009L99.5566 13.1559L101.346 13.1729L102.159 11.5874L102.116 13.3702L103.695 14.2107Z" fill="#FCFCFC"/>
<path d="M89.3634 50.1902L87.5932 50.0714L86.7612 51.7587L86.8355 49.8803L85.2246 49.1354L87.0138 49.1524L87.8288 47.5669L87.7843 49.3497L89.3634 50.1902Z" fill="#FCFCFC"/>
<path d="M57.8419 34.5369L56.0696 34.418L55.2376 36.1054L55.3141 34.227L53.7031 33.4821L55.4923 33.499L56.3052 31.9136L56.2628 33.6943L57.8419 34.5369Z" fill="#FCFCFC"/>
<path opacity="0.6" d="M65.4908 51.5042C62.2753 53.6712 59.4376 56.4368 57.3661 59.7414C55.2407 63.0627 54.0398 66.8909 53.8874 70.8311C53.8365 72.8284 54.0804 74.8223 54.6112 76.7484C55.1574 78.7104 55.9837 80.5833 57.0647 82.3092C58.1717 84.066 59.4991 85.6737 61.0146 87.0932C62.5571 88.5362 64.2441 89.8164 66.049 90.9136C64.1023 90.0239 62.2529 88.9349 60.5307 87.6641C58.7877 86.3723 57.2184 84.8615 55.8613 83.1688C53.0483 79.666 51.3336 75.4097 50.933 70.9351C50.534 66.4122 51.4891 61.7704 53.4672 57.6296C55.4453 53.4887 58.4019 49.8105 61.8954 46.8052L65.4908 51.5042Z" fill="#4D4D4D"/>
<path d="M59.9929 56.4347L58.728 56.6682L58.4457 58.001L58.1634 56.6682L56.8984 56.4326L58.1592 56.1248L58.4457 54.8662L58.7343 56.1248L59.9929 56.4347Z" fill="white"/>
<path d="M55.3372 81.4003L54.6304 81.5319L54.4734 82.2769L54.3142 81.5319L53.6074 81.4003L54.3121 81.2284L54.4734 80.5259L54.6347 81.2284L55.3372 81.4003Z" fill="white"/>
<path d="M54.9563 74.9332L54.2496 75.0627L54.0925 75.8098L53.9355 75.0627L53.2266 74.9332L53.9312 74.7613L54.0925 74.0566L54.2538 74.7613L54.9563 74.9332Z" fill="white"/>
<path d="M59.0579 52.2768L58.3511 52.4084L58.192 53.1534L58.0349 52.4084L57.3281 52.2768L58.0328 52.1049L58.192 51.4023L58.3533 52.1049L59.0579 52.2768Z" fill="white"/>
<path d="M57.0101 83.0137C56.9651 83.0259 56.9254 83.0526 56.8971 83.0896C56.8688 83.1266 56.8535 83.1719 56.8535 83.2185C56.8535 83.2651 56.8688 83.3104 56.8971 83.3474C56.9254 83.3844 56.9651 83.4111 57.0101 83.4233C57.0551 83.4111 57.0948 83.3844 57.1231 83.3474C57.1514 83.3104 57.1667 83.2651 57.1667 83.2185C57.1667 83.1719 57.1514 83.1266 57.1231 83.0896C57.0948 83.0526 57.0551 83.0259 57.0101 83.0137Z" fill="white"/>
<path d="M62.8597 51.2788C62.8147 51.291 62.7751 51.3177 62.7468 51.3547C62.7185 51.3917 62.7031 51.437 62.7031 51.4836C62.7031 51.5302 62.7185 51.5755 62.7468 51.6125C62.7751 51.6495 62.8147 51.6762 62.8597 51.6884C62.9047 51.6762 62.9444 51.6495 62.9727 51.6125C63.001 51.5755 63.0163 51.5302 63.0163 51.4836C63.0163 51.437 63.001 51.3917 62.9727 51.3547C62.9444 51.3177 62.9047 51.291 62.8597 51.2788Z" fill="white"/>
<path d="M51.8265 69.5552C51.7815 69.5674 51.7419 69.5941 51.7136 69.6311C51.6853 69.6681 51.6699 69.7134 51.6699 69.76C51.6699 69.8066 51.6853 69.8519 51.7136 69.8889C51.7419 69.9259 51.7815 69.9526 51.8265 69.9648C51.8715 69.9526 51.9112 69.9259 51.9395 69.8889C51.9678 69.8519 51.9831 69.8066 51.9831 69.76C51.9831 69.7134 51.9678 69.6681 51.9395 69.6311C51.9112 69.5941 51.8715 69.5674 51.8265 69.5552Z" fill="white"/>
<path d="M56.6425 81.9463C56.607 81.9506 56.5743 81.9678 56.5505 81.9945C56.5268 82.0213 56.5137 82.0559 56.5137 82.0917C56.5137 82.1275 56.5268 82.162 56.5505 82.1888C56.5743 82.2156 56.607 82.2328 56.6425 82.2371C56.6781 82.2328 56.7108 82.2156 56.7345 82.1888C56.7583 82.162 56.7714 82.1275 56.7714 82.0917C56.7714 82.0559 56.7583 82.0213 56.7345 81.9945C56.7108 81.9678 56.6781 81.9506 56.6425 81.9463Z" fill="white"/>
<path d="M51.7517 62.3945C51.7135 62.3945 51.6768 62.4097 51.6497 62.4368C51.6226 62.4639 51.6074 62.5006 51.6074 62.5389C51.6074 62.5771 51.6226 62.6138 51.6497 62.6409C51.6768 62.668 51.7135 62.6832 51.7517 62.6832C51.79 62.6832 51.8267 62.668 51.8538 62.6409C51.8809 62.6138 51.8961 62.5771 51.8961 62.5389C51.8961 62.5006 51.8809 62.4639 51.8538 62.4368C51.8267 62.4097 51.79 62.3945 51.7517 62.3945Z" fill="white"/>
<path d="M53.2272 77.2212C53.1277 77.2285 53.0348 77.2732 52.9669 77.3462C52.899 77.4192 52.8613 77.5152 52.8613 77.6149C52.8613 77.7146 52.899 77.8106 52.9669 77.8836C53.0348 77.9567 53.1277 78.0013 53.2272 78.0086C53.3266 78.0013 53.4196 77.9567 53.4874 77.8836C53.5553 77.8106 53.593 77.7146 53.593 77.6149C53.593 77.5152 53.5553 77.4192 53.4874 77.3462C53.4196 77.2732 53.3266 77.2285 53.2272 77.2212Z" fill="white"/>
<path d="M53.6075 61.0615C53.5034 61.0615 53.4035 61.1029 53.3298 61.1765C53.2562 61.2502 53.2148 61.35 53.2148 61.4542C53.2148 61.5583 53.2562 61.6582 53.3298 61.7318C53.4035 61.8055 53.5034 61.8468 53.6075 61.8468C53.7116 61.8468 53.8115 61.8055 53.8851 61.7318C53.9588 61.6582 54.0001 61.5583 54.0001 61.4542C54.0001 61.35 53.9588 61.2502 53.8851 61.1765C53.8115 61.1029 53.7116 61.0615 53.6075 61.0615Z" fill="white"/>
</svg>
