<svg width="22" height="22" viewBox="0 0 22 22" fill="none" xmlns="http://www.w3.org/2000/svg">
<g id="Assignments 1" clip-path="url(#clip0_9896_39436)">
<g id="Group">
<path id="Vector" d="M19.4593 0.667969H1.87598C0.84206 0.667969 0.000976562 1.50905 0.000976562 2.54297V15.1263C0.000976562 16.1602 0.84206 17.0013 1.87598 17.0013H7.50098V18.2513H13.7926V17.0013H19.4593C20.4932 17.0013 21.3343 16.1602 21.3343 15.1263V2.54297C21.3343 1.50905 20.4932 0.667969 19.4593 0.667969ZM7.31789 11.7765L4.81789 14.2765C4.57377 14.5206 4.17823 14.5206 3.9341 14.2765L2.6841 13.0265C2.43993 12.7824 2.43993 12.3869 2.6841 12.1428C2.92823 11.8986 3.32377 11.8986 3.56789 12.1428L4.37598 12.9508L6.4341 10.8927C6.67823 10.6486 7.07377 10.6486 7.31789 10.8927C7.56202 11.1368 7.56202 11.5324 7.31789 11.7765ZM7.31789 8.02651L4.81789 10.5265C4.57377 10.7706 4.17823 10.7706 3.9341 10.5265L2.6841 9.27651C2.43993 9.03239 2.43993 8.63689 2.6841 8.39276C2.92823 8.14864 3.32377 8.14864 3.56789 8.39276L4.37598 9.20084L6.4341 7.14272C6.67823 6.89859 7.07377 6.89859 7.31789 7.14272C7.56202 7.38684 7.56202 7.78239 7.31789 8.02651ZM7.31789 4.27651L4.81789 6.77651C4.57377 7.02064 4.17823 7.02064 3.9341 6.77651L2.6841 5.52651C2.43993 5.28239 2.43993 4.88689 2.6841 4.64276C2.92823 4.39864 3.32377 4.39864 3.56789 4.64276L4.37598 5.45084L6.4341 3.39272C6.67823 3.14859 7.07377 3.14859 7.31789 3.39272C7.56202 3.63684 7.56202 4.03239 7.31789 4.27651ZM18.2093 13.2096H9.37598C9.03052 13.2096 8.75098 12.9301 8.75098 12.5846C8.75098 12.2392 9.03052 11.9596 9.37598 11.9596H18.2093C18.5548 11.9596 18.8343 12.2392 18.8343 12.5846C18.8343 12.9301 18.5548 13.2096 18.2093 13.2096ZM18.2093 9.45964H9.37598C9.03052 9.45964 8.75098 9.18009 8.75098 8.83464C8.75098 8.48918 9.03052 8.20964 9.37598 8.20964H18.2093C18.5548 8.20964 18.8343 8.48918 18.8343 8.83464C18.8343 9.18009 18.5548 9.45964 18.2093 9.45964ZM18.2093 5.70964H9.37598C9.03052 5.70964 8.75098 5.43009 8.75098 5.08464C8.75098 4.73918 9.03052 4.45964 9.37598 4.45964H18.2093C18.5548 4.45964 18.8343 4.73918 18.8343 5.08464C18.8343 5.43009 18.5548 5.70964 18.2093 5.70964ZM15.0426 19.5013H6.29264C4.91385 19.5013 3.79264 20.6225 3.79264 22.0013H17.5426C17.5426 20.6225 16.4214 19.5013 15.0426 19.5013Z" fill="#FFA28D"/>
</g>
</g>
<defs>
<clipPath id="clip0_9896_39436">
<rect width="21.3333" height="21.3333" fill="white" transform="translate(0 0.667969)"/>
</clipPath>
</defs>
</svg>
