<svg width="22" height="22" viewBox="0 0 22 22" fill="none" xmlns="http://www.w3.org/2000/svg">
<g id="material-symbols:content-copy">
<path id="Vector" d="M4.77973 19.7778C4.29084 19.7778 3.87218 19.6036 3.52373 19.2551C3.17529 18.9067 3.00136 18.4883 3.00195 18V5.55556H4.77973V18H14.5575V19.7778H4.77973ZM8.33529 16.2222C7.8464 16.2222 7.42773 16.048 7.07929 15.6996C6.73084 15.3511 6.55692 14.9327 6.55751 14.4444V3.77778C6.55751 3.28889 6.73173 2.87022 7.08018 2.52178C7.42862 2.17333 7.84699 1.99941 8.33529 2H16.3353C16.8242 2 17.2428 2.17422 17.5913 2.52267C17.9397 2.87111 18.1137 3.28948 18.1131 3.77778V14.4444C18.1131 14.9333 17.9388 15.352 17.5904 15.7004C17.242 16.0489 16.8236 16.2228 16.3353 16.2222H8.33529Z" fill="#B3BDC7"/>
</g>
</svg>
