<svg width="22" height="22" viewBox="0 0 22 22" fill="none" xmlns="http://www.w3.org/2000/svg">
<g id="ri:customer-service-fill">
<path id="Vector" d="M19.5551 15.6125C19.5547 16.8281 19.1392 18.0071 18.3774 18.9543C17.6155 19.9016 16.553 20.5603 15.3658 20.8213L14.7987 19.12C15.318 19.0345 15.8119 18.8348 16.2447 18.5354C16.6776 18.236 17.0386 17.8442 17.3018 17.3885H15.1107C14.6392 17.3885 14.187 17.2012 13.8536 16.8678C13.5202 16.5344 13.3329 16.0822 13.3329 15.6107V12.0551C13.3329 11.5836 13.5202 11.1314 13.8536 10.798C14.187 10.4646 14.6392 10.2773 15.1107 10.2773H17.7222C17.5053 8.55903 16.6688 6.97892 15.3697 5.8335C14.0706 4.68808 12.3982 4.05608 10.6662 4.05608C8.93428 4.05608 7.26185 4.68808 5.96274 5.8335C4.66364 6.97892 3.82715 8.55903 3.61023 10.2773H6.22179C6.69328 10.2773 7.14547 10.4646 7.47887 10.798C7.81226 11.1314 7.99957 11.5836 7.99957 12.0551V15.6107C7.99957 16.0822 7.81226 16.5344 7.47887 16.8678C7.14547 17.2012 6.69328 17.3885 6.22179 17.3885H3.55512C3.08363 17.3885 2.63144 17.2012 2.29804 16.8678C1.96464 16.5344 1.77734 16.0822 1.77734 15.6107V11.1662C1.77734 6.2569 5.7569 2.27734 10.6662 2.27734C15.5756 2.27734 19.5551 6.2569 19.5551 11.1662V15.6125Z" fill="#B3BDC7"/>
</g>
</svg>
