<svg width="22" height="22" viewBox="0 0 22 22" fill="none" xmlns="http://www.w3.org/2000/svg">
<g id="Dashboard 1" clip-path="url(#clip0_9896_38794)">
<g id="Group">
<path id="Vector" d="M8.22217 0H1.5555C0.69775 0 0 0.69775 0 1.5555V5.5555C0 6.41342 0.69775 7.11117 1.5555 7.11117H8.22217C9.08008 7.11117 9.77783 6.41342 9.77783 5.5555V1.5555C9.77783 0.69775 9.08008 0 8.22217 0ZM8.22217 8.88883H1.5555C0.69775 8.88883 0 9.58658 0 10.4445V19.7778C0 20.6356 0.69775 21.3333 1.5555 21.3333H8.22217C9.08008 21.3333 9.77783 20.6356 9.77783 19.7778V10.4445C9.77783 9.58658 9.08008 8.88883 8.22217 8.88883ZM19.7778 14.2222H13.1112C12.2533 14.2222 11.5555 14.9199 11.5555 15.7778V19.7778C11.5555 20.6356 12.2533 21.3333 13.1112 21.3333H19.7778C20.6356 21.3333 21.3333 20.6356 21.3333 19.7778V15.7778C21.3333 14.9199 20.6356 14.2222 19.7778 14.2222ZM19.7778 0H13.1112C12.2533 0 11.5555 0.69775 11.5555 1.5555V10.8888C11.5555 11.7468 12.2533 12.4445 13.1112 12.4445H19.7778C20.6356 12.4445 21.3333 11.7468 21.3333 10.8888V1.5555C21.3333 0.69775 20.6356 0 19.7778 0Z" fill="#B3BDC7"/>
</g>
</g>
<defs>
<clipPath id="clip0_9896_38794">
<rect width="21.3333" height="21.3333" fill="white"/>
</clipPath>
</defs>
</svg>
