<svg width="30" height="31" viewBox="0 0 30 31" fill="none" xmlns="http://www.w3.org/2000/svg">
<path d="M0 1.82687C0 1.65965 0.217699 1.5951 0.308849 1.7353L10.9778 18.1454C11.0211 18.2119 11.0119 18.2996 10.9558 18.3557L0.286793 29.0247C0.180959 29.1305 0 29.0555 0 28.9059V1.82687Z" fill="#FFA28D"/>
<path d="M28.575 30.4014C28.7422 30.4014 28.8067 30.1837 28.6665 30.0926L12.2565 19.424C12.1899 19.3807 12.1022 19.3899 12.0461 19.446L1.37714 30.1146C1.2713 30.2205 1.34626 30.4014 1.49593 30.4014H28.575Z" fill="#FFA28D"/>
<path d="M1.16845 0.665527C1.00063 0.665527 0.936521 0.884473 1.07783 0.974991L17.5793 11.5455C17.6458 11.588 17.7329 11.5786 17.7887 11.5228L28.3592 0.952321C28.465 0.846487 28.3901 0.665527 28.2404 0.665527H1.16845Z" fill="#FFA28D"/>
<path d="M29.7363 29.2333C29.7363 29.4011 29.5174 29.4653 29.4269 29.324L18.8564 12.8225C18.8138 12.7561 18.8232 12.6689 18.879 12.6131L29.4495 2.04265C29.5554 1.93682 29.7363 2.01177 29.7363 2.16144V29.2333Z" fill="#FFA28D"/>
</svg>
