<svg width="154" height="20" viewBox="0 0 154 20" fill="none" xmlns="http://www.w3.org/2000/svg">
<path d="M0.94 10.52V8.18H10.96V10.52H0.94ZM4.64 14.2V4.46H7.24V14.2H4.64ZM18.1873 15L23.6673 0.999999H26.3473L31.8073 15H28.7273L25.9073 7.46C25.8273 7.24667 25.7273 6.97333 25.6073 6.64C25.5007 6.30667 25.3873 5.95333 25.2673 5.58C25.1473 5.20667 25.034 4.85333 24.9273 4.52C24.8207 4.17333 24.7407 3.88667 24.6873 3.66L25.2273 3.64C25.1473 3.94667 25.054 4.26667 24.9473 4.6C24.854 4.92 24.754 5.25333 24.6473 5.6C24.5407 5.93333 24.4273 6.26 24.3073 6.58C24.1873 6.9 24.074 7.21333 23.9673 7.52L21.1473 15H18.1873ZM20.7273 12.06L21.7073 9.64H28.1273L29.1273 12.06H20.7273ZM37.1225 15.2C36.2025 15.2 35.3758 14.9667 34.6425 14.5C33.9092 14.02 33.3292 13.3733 32.9025 12.56C32.4892 11.7333 32.2825 10.78 32.2825 9.7C32.2825 8.64667 32.4892 7.70667 32.9025 6.88C33.3292 6.05333 33.9025 5.4 34.6225 4.92C35.3558 4.44 36.1892 4.2 37.1225 4.2C37.6158 4.2 38.0892 4.28 38.5425 4.44C39.0092 4.58667 39.4225 4.79333 39.7825 5.06C40.1558 5.32667 40.4558 5.62667 40.6825 5.96C40.9092 6.28 41.0358 6.62 41.0625 6.98L40.3425 7.1V0.2H43.1825V15H40.5025L40.3825 12.56L40.9425 12.62C40.9158 12.9533 40.7958 13.2733 40.5825 13.58C40.3692 13.8867 40.0825 14.1667 39.7225 14.42C39.3758 14.66 38.9758 14.8533 38.5225 15C38.0825 15.1333 37.6158 15.2 37.1225 15.2ZM37.7625 12.84C38.2958 12.84 38.7625 12.7067 39.1625 12.44C39.5625 12.1733 39.8758 11.8067 40.1025 11.34C40.3292 10.8733 40.4425 10.3267 40.4425 9.7C40.4425 9.08667 40.3292 8.54667 40.1025 8.08C39.8758 7.6 39.5625 7.23333 39.1625 6.98C38.7625 6.71333 38.2958 6.58 37.7625 6.58C37.2292 6.58 36.7625 6.71333 36.3625 6.98C35.9758 7.23333 35.6692 7.6 35.4425 8.08C35.2292 8.54667 35.1225 9.08667 35.1225 9.7C35.1225 10.3267 35.2292 10.8733 35.4425 11.34C35.6692 11.8067 35.9758 12.1733 36.3625 12.44C36.7625 12.7067 37.2292 12.84 37.7625 12.84ZM50.0913 15.2C49.1713 15.2 48.3446 14.9667 47.6113 14.5C46.8779 14.02 46.2979 13.3733 45.8713 12.56C45.4579 11.7333 45.2513 10.78 45.2513 9.7C45.2513 8.64667 45.4579 7.70667 45.8713 6.88C46.2979 6.05333 46.8713 5.4 47.5913 4.92C48.3246 4.44 49.1579 4.2 50.0913 4.2C50.5846 4.2 51.0579 4.28 51.5113 4.44C51.9779 4.58667 52.3913 4.79333 52.7513 5.06C53.1246 5.32667 53.4246 5.62667 53.6513 5.96C53.8779 6.28 54.0046 6.62 54.0313 6.98L53.3113 7.1V0.2H56.1513V15H53.4713L53.3513 12.56L53.9113 12.62C53.8846 12.9533 53.7646 13.2733 53.5513 13.58C53.3379 13.8867 53.0513 14.1667 52.6913 14.42C52.3446 14.66 51.9446 14.8533 51.4913 15C51.0513 15.1333 50.5846 15.2 50.0913 15.2ZM50.7313 12.84C51.2646 12.84 51.7313 12.7067 52.1313 12.44C52.5313 12.1733 52.8446 11.8067 53.0713 11.34C53.2979 10.8733 53.4113 10.3267 53.4113 9.7C53.4113 9.08667 53.2979 8.54667 53.0713 8.08C52.8446 7.6 52.5313 7.23333 52.1313 6.98C51.7313 6.71333 51.2646 6.58 50.7313 6.58C50.1979 6.58 49.7313 6.71333 49.3313 6.98C48.9446 7.23333 48.6379 7.6 48.4113 8.08C48.1979 8.54667 48.0913 9.08667 48.0913 9.7C48.0913 10.3267 48.1979 10.8733 48.4113 11.34C48.6379 11.8067 48.9446 12.1733 49.3313 12.44C49.7313 12.7067 50.1979 12.84 50.7313 12.84ZM65.4528 15V0.999999H68.1928L73.2928 9.3L71.4928 9.28L76.6528 0.999999H79.2728V15H76.3328V10.2C76.3328 9 76.3595 7.92 76.4128 6.96C76.4795 6 76.5861 5.04667 76.7328 4.1L77.0928 5.04L72.9928 11.4H71.6728L67.6528 5.08L67.9928 4.1C68.1395 4.99333 68.2395 5.91333 68.2928 6.86C68.3595 7.79333 68.3928 8.90667 68.3928 10.2V15H65.4528ZM86.4738 15.2C85.5938 15.2 84.8004 14.96 84.0938 14.48C83.3871 14 82.8271 13.3467 82.4137 12.52C82.0004 11.6933 81.7938 10.7467 81.7938 9.68C81.7938 8.61333 82.0004 7.67333 82.4137 6.86C82.8404 6.03333 83.4138 5.38667 84.1338 4.92C84.8538 4.44 85.6738 4.2 86.5938 4.2C87.1138 4.2 87.5871 4.28 88.0138 4.44C88.4538 4.58667 88.8338 4.79333 89.1538 5.06C89.4871 5.32667 89.7671 5.63333 89.9938 5.98C90.2204 6.32667 90.3804 6.7 90.4738 7.1L89.8738 7V4.42H92.6938V15H89.8338V12.46L90.4738 12.4C90.3671 12.7733 90.1938 13.1267 89.9538 13.46C89.7138 13.7933 89.4138 14.0933 89.0538 14.36C88.7071 14.6133 88.3138 14.82 87.8738 14.98C87.4338 15.1267 86.9671 15.2 86.4738 15.2ZM87.2538 12.74C87.7871 12.74 88.2538 12.6133 88.6538 12.36C89.0538 12.1067 89.3604 11.7533 89.5738 11.3C89.8004 10.8333 89.9138 10.2933 89.9138 9.68C89.9138 9.08 89.8004 8.55333 89.5738 8.1C89.3604 7.64667 89.0538 7.29333 88.6538 7.04C88.2538 6.77333 87.7871 6.64 87.2538 6.64C86.7338 6.64 86.2738 6.77333 85.8738 7.04C85.4871 7.29333 85.1804 7.64667 84.9538 8.1C84.7271 8.55333 84.6138 9.08 84.6138 9.68C84.6138 10.2933 84.7271 10.8333 84.9538 11.3C85.1804 11.7533 85.4871 12.1067 85.8738 12.36C86.2738 12.6133 86.7338 12.74 87.2538 12.74ZM95.5411 15V4.42H98.2611L98.3411 6.58L97.7811 6.82C97.9278 6.34 98.1878 5.90667 98.5611 5.52C98.9478 5.12 99.4078 4.8 99.9411 4.56C100.474 4.32 101.034 4.2 101.621 4.2C102.421 4.2 103.088 4.36 103.621 4.68C104.168 5 104.574 5.48667 104.841 6.14C105.121 6.78 105.261 7.57333 105.261 8.52V15H102.421V8.74C102.421 8.26 102.354 7.86 102.221 7.54C102.088 7.22 101.881 6.98667 101.601 6.84C101.334 6.68 101.001 6.61333 100.601 6.64C100.281 6.64 99.9811 6.69333 99.7011 6.8C99.4344 6.89333 99.2011 7.03333 99.0011 7.22C98.8144 7.40667 98.6611 7.62 98.5411 7.86C98.4344 8.1 98.3811 8.36 98.3811 8.64V15H96.9811C96.6744 15 96.4011 15 96.1611 15C95.9211 15 95.7144 15 95.5411 15ZM111.943 15.2C111.063 15.2 110.269 14.96 109.563 14.48C108.856 14 108.296 13.3467 107.882 12.52C107.469 11.6933 107.263 10.7467 107.263 9.68C107.263 8.61333 107.469 7.67333 107.882 6.86C108.309 6.03333 108.883 5.38667 109.603 4.92C110.323 4.44 111.143 4.2 112.063 4.2C112.583 4.2 113.056 4.28 113.483 4.44C113.923 4.58667 114.303 4.79333 114.623 5.06C114.956 5.32667 115.236 5.63333 115.463 5.98C115.689 6.32667 115.849 6.7 115.943 7.1L115.343 7V4.42H118.163V15H115.303V12.46L115.943 12.4C115.836 12.7733 115.663 13.1267 115.423 13.46C115.183 13.7933 114.883 14.0933 114.523 14.36C114.176 14.6133 113.783 14.82 113.343 14.98C112.903 15.1267 112.436 15.2 111.943 15.2ZM112.723 12.74C113.256 12.74 113.723 12.6133 114.123 12.36C114.523 12.1067 114.829 11.7533 115.043 11.3C115.269 10.8333 115.383 10.2933 115.383 9.68C115.383 9.08 115.269 8.55333 115.043 8.1C114.829 7.64667 114.523 7.29333 114.123 7.04C113.723 6.77333 113.256 6.64 112.723 6.64C112.203 6.64 111.743 6.77333 111.343 7.04C110.956 7.29333 110.649 7.64667 110.423 8.1C110.196 8.55333 110.083 9.08 110.083 9.68C110.083 10.2933 110.196 10.8333 110.423 11.3C110.649 11.7533 110.956 12.1067 111.343 12.36C111.743 12.6133 112.203 12.74 112.723 12.74ZM125.83 19.6C124.99 19.6 124.163 19.4733 123.35 19.22C122.537 18.98 121.877 18.6667 121.37 18.28L122.37 16.24C122.637 16.4267 122.943 16.5933 123.29 16.74C123.637 16.8867 123.997 17 124.37 17.08C124.757 17.16 125.15 17.2 125.55 17.2C126.243 17.2 126.81 17.0933 127.25 16.88C127.703 16.6667 128.043 16.3467 128.27 15.92C128.497 15.5067 128.61 14.9733 128.61 14.32V12.48L129.09 12.58C129.01 13.02 128.79 13.4267 128.43 13.8C128.07 14.16 127.617 14.4533 127.07 14.68C126.523 14.8933 125.963 15 125.39 15C124.403 15 123.53 14.7733 122.77 14.32C122.01 13.8667 121.41 13.24 120.97 12.44C120.53 11.64 120.31 10.72 120.31 9.68C120.31 8.61333 120.523 7.67333 120.95 6.86C121.39 6.03333 121.983 5.38667 122.73 4.92C123.49 4.44 124.35 4.2 125.31 4.2C125.71 4.2 126.09 4.24667 126.45 4.34C126.823 4.43333 127.163 4.56667 127.47 4.74C127.79 4.9 128.07 5.08667 128.31 5.3C128.563 5.5 128.77 5.72 128.93 5.96C129.09 6.2 129.19 6.44 129.23 6.68L128.65 6.84L128.73 4.42H131.45V14.2C131.45 15.0667 131.323 15.8333 131.07 16.5C130.817 17.1667 130.443 17.7267 129.95 18.18C129.47 18.6467 128.877 19 128.17 19.24C127.477 19.48 126.697 19.6 125.83 19.6ZM125.91 12.72C126.47 12.72 126.957 12.5933 127.37 12.34C127.797 12.0867 128.123 11.7333 128.35 11.28C128.577 10.8267 128.69 10.2933 128.69 9.68C128.69 9.08 128.577 8.55333 128.35 8.1C128.123 7.63333 127.797 7.27333 127.37 7.02C126.957 6.76667 126.47 6.64 125.91 6.64C125.363 6.64 124.877 6.77333 124.45 7.04C124.037 7.29333 123.717 7.64667 123.49 8.1C123.263 8.55333 123.15 9.08 123.15 9.68C123.15 10.28 123.263 10.8133 123.49 11.28C123.717 11.7333 124.037 12.0867 124.45 12.34C124.877 12.5933 125.363 12.72 125.91 12.72ZM139.292 15.2C138.145 15.2 137.145 14.9667 136.292 14.5C135.438 14.0333 134.772 13.3933 134.292 12.58C133.812 11.7667 133.572 10.8333 133.572 9.78C133.572 8.96667 133.705 8.22 133.972 7.54C134.238 6.86 134.612 6.27333 135.092 5.78C135.572 5.27333 136.138 4.88667 136.792 4.62C137.458 4.34 138.178 4.2 138.952 4.2C139.672 4.2 140.338 4.33333 140.952 4.6C141.565 4.85333 142.092 5.22 142.532 5.7C142.985 6.16667 143.332 6.72 143.572 7.36C143.812 8 143.918 8.7 143.892 9.46L143.872 10.34H135.372L134.912 8.6H141.532L141.212 8.96V8.52C141.185 8.16 141.065 7.83333 140.852 7.54C140.652 7.24667 140.392 7.02 140.072 6.86C139.752 6.7 139.392 6.62 138.992 6.62C138.405 6.62 137.905 6.73333 137.492 6.96C137.092 7.18667 136.785 7.52 136.572 7.96C136.358 8.4 136.252 8.93333 136.252 9.56C136.252 10.2 136.385 10.7533 136.652 11.22C136.932 11.6867 137.318 12.0533 137.812 12.32C138.318 12.5733 138.912 12.7 139.592 12.7C140.058 12.7 140.485 12.6267 140.872 12.48C141.258 12.3333 141.672 12.08 142.112 11.72L143.472 13.62C143.085 13.9667 142.658 14.26 142.192 14.5C141.725 14.7267 141.245 14.9 140.752 15.02C140.258 15.14 139.772 15.2 139.292 15.2ZM145.99 15V4.42H148.73L148.83 7.82L148.35 7.12C148.51 6.57333 148.77 6.08 149.13 5.64C149.49 5.18667 149.91 4.83333 150.39 4.58C150.884 4.32667 151.397 4.2 151.93 4.2C152.157 4.2 152.377 4.22 152.59 4.26C152.804 4.3 152.984 4.34667 153.13 4.4L152.37 7.52C152.21 7.44 152.017 7.37333 151.79 7.32C151.564 7.25333 151.33 7.22 151.09 7.22C150.77 7.22 150.47 7.28 150.19 7.4C149.924 7.50667 149.69 7.66667 149.49 7.88C149.29 8.08 149.13 8.32 149.01 8.6C148.904 8.88 148.85 9.18667 148.85 9.52V15H145.99Z" fill="#26435F"/>
</svg>
