<svg xmlns="http://www.w3.org/2000/svg" width="38" height="39" viewBox="0 0 38 39" fill="none">
  <g clip-path="url(#clip0_9870_39961)">
    <path d="M34.5175 5.00947C30.1857 0.65319 23.0366 0.869742 18.9123 5.39793C14.7876 0.869902 7.63884 0.65311 3.307 5.00955C-1.00063 9.29939 -0.853883 16.3635 3.58446 20.5039C1.3138 22.6725 2.61463 26.5695 5.70526 26.9494C5.52012 29.0657 7.32138 31.0064 9.45204 30.9704C9.58267 33.3002 11.921 34.9678 14.1628 34.3522C14.8983 37.1277 18.4339 38.0762 20.4623 36.0334C21.6143 34.8882 22.5304 34.1661 22.5888 32.4318C24.4924 32.3787 26.1393 30.7094 26.1684 28.807C28.0901 28.7773 29.7645 27.1024 29.7941 25.1812C31.7878 25.1509 33.5164 23.3515 33.4236 21.3201L34.5174 20.2264C38.7128 16.0311 38.7128 9.20474 34.5175 5.00947ZM5.23361 22.255L6.2609 21.2277C6.38727 21.1012 6.53739 21.0008 6.70264 20.9325C6.86789 20.8641 7.04502 20.8291 7.22385 20.8295C8.41977 20.8215 9.04402 22.3001 8.18663 23.1534L7.15933 24.1807C5.82956 25.4049 4.00923 23.5853 5.23361 22.255ZM8.09807 27.2063C8.09807 26.8426 8.23976 26.5006 8.49695 26.2434L9.52481 25.2156C9.65093 25.0889 9.80091 24.9885 9.96609 24.9201C10.1313 24.8518 10.3083 24.8168 10.4871 24.8173C11.6932 24.8152 12.3046 26.2904 11.45 27.1419L10.5435 28.0483C10.2665 28.3624 9.88586 28.5748 9.45973 28.568C8.72793 28.5831 8.08292 27.9383 8.09807 27.2063ZM12.2436 31.6741C11.7154 31.1673 11.7154 30.2553 12.2436 29.7485L13.1501 28.8419C13.6786 28.2146 14.6063 28.1329 15.1967 28.7211C15.7276 29.252 15.7276 30.1158 15.1967 30.6468L14.1694 31.6742C13.6385 32.2053 12.7746 32.2052 12.2436 31.6741ZM19.7895 33.3059L18.7622 34.3332C18.6361 34.4601 18.486 34.5607 18.3208 34.6291C18.1555 34.6976 17.9783 34.7326 17.7994 34.7321C17.6205 34.7326 17.4432 34.6976 17.278 34.6291C17.1127 34.5607 16.9626 34.4601 16.8364 34.3332C16.3083 33.8263 16.308 32.9144 16.8365 32.4075L17.8637 31.3802C18.3946 30.8493 19.2586 30.8493 19.7895 31.3801C20.3178 31.8871 20.3179 32.799 19.7895 33.3059ZM30.6218 22.383C30.1149 22.9112 29.203 22.9113 28.6961 22.383L23.3459 17.0327L21.6458 18.7329L26.996 24.0831C27.5269 24.6141 27.5269 25.4779 26.996 26.0088C26.465 26.5399 25.6012 26.5398 25.0703 26.0088L19.8108 20.7493L19.72 20.6586L18.0199 22.3587L18.1107 22.4494L23.3702 27.7089C23.9011 28.2399 23.9011 29.1038 23.3702 29.6347C22.8392 30.1657 21.9753 30.1657 21.4444 29.6347L21.4433 29.6358C20.4664 28.6914 19.1012 28.3804 17.8681 28.7029C17.4755 27.0989 15.8631 25.8845 14.2416 25.9199C14.163 24.1934 12.7034 22.6338 10.9785 22.4474C11.2061 19.4853 7.95285 17.4453 5.38548 18.9045C1.80989 15.7106 1.58966 10.1037 5.00728 6.70959C8.40526 3.2878 14.0197 3.51453 17.2123 7.09805L14.2401 10.0703L16.6217 12.452C18.4512 14.2816 21.2704 14.5333 23.3723 13.2074L30.6221 20.4573C31.1527 20.9881 31.1527 21.852 30.6218 22.383ZM32.8174 18.5263L32.4511 18.8926C32.4092 18.8464 32.3661 18.8012 32.322 18.7571L23.4668 9.90184L22.6167 10.7519C21.4327 11.9359 19.506 11.9361 18.3217 10.7519L17.6401 10.0703L21.0008 6.70959C29.1645 -0.804247 40.3296 10.368 32.8174 18.5263Z" fill="#24A3D9"/>
  </g>
  <defs>
    <clipPath id="clip0_9870_39961">
      <rect width="37.5" height="37.5" fill="white" transform="translate(0.167969 0.750977)"/>
    </clipPath>
  </defs>
</svg>