<svg xmlns="http://www.w3.org/2000/svg" width="16" height="15" viewBox="0 0 20 20" fill="none">
  <path fill-rule="evenodd" clip-rule="evenodd" d="M15.1456 5.41573C15.2136 5.349 15.2675 5.26977 15.3044 5.18255C15.3412 5.09534 15.3602 5.00185 15.3602 4.90742C15.3603 4.813 15.3414 4.71949 15.3047 4.63223C15.268 4.54497 15.2142 4.46567 15.1463 4.39886C15.0784 4.33205 14.9977 4.27903 14.909 4.24284C14.8203 4.20666 14.7251 4.188 14.6291 4.18794C14.533 4.18788 14.4378 4.20642 14.3491 4.24251C14.2603 4.27859 14.1796 4.3315 14.1116 4.39823L9.69955 8.73448L5.28877 4.39823C5.15148 4.2633 4.96528 4.1875 4.77112 4.1875C4.57697 4.1875 4.39077 4.2633 4.25348 4.39823C4.11619 4.53316 4.03906 4.71616 4.03906 4.90698C4.03906 5.0978 4.11619 5.2808 4.25348 5.41573L8.66553 9.75073L4.25348 14.0857C4.1855 14.1525 4.13158 14.2319 4.09479 14.3191C4.058 14.4064 4.03906 14.5 4.03906 14.5945C4.03906 14.689 4.058 14.7825 4.09479 14.8698C4.13158 14.9571 4.1855 15.0364 4.25348 15.1032C4.39077 15.2382 4.57697 15.314 4.77112 15.314C4.86726 15.314 4.96245 15.2954 5.05127 15.2592C5.14009 15.223 5.22079 15.17 5.28877 15.1032L9.69955 10.767L14.1116 15.1032C14.2489 15.238 14.435 15.3136 14.6291 15.3135C14.8231 15.3134 15.0091 15.2375 15.1463 15.1026C15.2834 14.9677 15.3603 14.7847 15.3602 14.594C15.3601 14.4033 15.2829 14.2205 15.1456 14.0857L10.7336 9.75073L15.1456 5.41573Z" fill="#517CA8"/>
</svg>