<svg xmlns="http://www.w3.org/2000/svg" width="38" height="39" viewBox="0 0 38 39" fill="none">
  <g clip-path="url(#clip0_9870_39907)">
    <path d="M10.8048 0.750977C11.1529 0.750977 11.4868 0.889257 11.7329 1.1354C11.9791 1.38154 12.1173 1.71538 12.1173 2.06348V4.51785H26.2117V2.08035C26.2117 1.73225 26.35 1.39842 26.5961 1.15227C26.8423 0.906132 27.1761 0.767852 27.5242 0.767852C27.8723 0.767852 28.2061 0.906132 28.4523 1.15227C28.6984 1.39842 28.8367 1.73225 28.8367 2.08035V4.51785H33.918C34.9122 4.51785 35.8657 4.91268 36.5689 5.61554C37.2722 6.31839 37.6675 7.27174 37.668 8.26598V34.5028C37.6675 35.4971 37.2722 36.4504 36.5689 37.1533C35.8657 37.8561 34.9122 38.251 33.918 38.251H3.91797C2.92373 38.251 1.97019 37.8561 1.26698 37.1533C0.563773 36.4504 0.168466 35.4971 0.167969 34.5028L0.167969 8.26598C0.168466 7.27174 0.563773 6.31839 1.26698 5.61554C1.97019 4.91268 2.92373 4.51785 3.91797 4.51785H9.49234V2.0616C9.49284 1.71383 9.63134 1.38047 9.87743 1.13474C10.1235 0.889 10.4571 0.750976 10.8048 0.750977ZM2.79297 15.2672V34.5028C2.79297 34.6506 2.82207 34.7969 2.8786 34.9334C2.93514 35.0699 3.01801 35.1939 3.12247 35.2983C3.22694 35.4028 3.35096 35.4857 3.48745 35.5422C3.62394 35.5988 3.77023 35.6278 3.91797 35.6278H33.918C34.0657 35.6278 34.212 35.5988 34.3485 35.5422C34.485 35.4857 34.609 35.4028 34.7135 35.2983C34.8179 35.1939 34.9008 35.0699 34.9573 34.9334C35.0139 34.7969 35.043 34.6506 35.043 34.5028V15.2935L2.79297 15.2672ZM12.6686 28.1616V31.2854H9.54296V28.1616H12.6686ZM20.4798 28.1616V31.2854H17.3561V28.1616H20.4798ZM28.293 28.1616V31.2854H25.1673V28.1616H28.293ZM12.6686 20.7047V23.8285H9.54296V20.7047H12.6686ZM20.4798 20.7047V23.8285H17.3561V20.7047H20.4798ZM28.293 20.7047V23.8285H25.1673V20.7047H28.293ZM9.49234 7.14098H3.91797C3.77023 7.14098 3.62394 7.17008 3.48745 7.22661C3.35096 7.28315 3.22694 7.36602 3.12247 7.47048C3.01801 7.57495 2.93514 7.69897 2.8786 7.83546C2.82207 7.97195 2.79297 8.11824 2.79297 8.26598V12.6441L35.043 12.6704V8.26598C35.043 8.11824 35.0139 7.97195 34.9573 7.83546C34.9008 7.69897 34.8179 7.57495 34.7135 7.47048C34.609 7.36602 34.485 7.28315 34.3485 7.22661C34.212 7.17008 34.0657 7.14098 33.918 7.14098H28.8367V8.88285C28.8367 9.23095 28.6984 9.56479 28.4523 9.81093C28.2061 10.0571 27.8723 10.1954 27.5242 10.1954C27.1761 10.1954 26.8423 10.0571 26.5961 9.81093C26.35 9.56479 26.2117 9.23095 26.2117 8.88285V7.14098H12.1173V8.86598C12.1173 9.21407 11.9791 9.54791 11.7329 9.79405C11.4868 10.0402 11.1529 10.1785 10.8048 10.1785C10.4567 10.1785 10.1229 10.0402 9.87676 9.79405C9.63062 9.54791 9.49234 9.21407 9.49234 8.86598V7.14098Z" fill="#24A3D9"/>
  </g>
  <defs>
    <clipPath id="clip0_9870_39907">
      <rect width="37.5" height="37.5" fill="white" transform="translate(0.167969 0.750977)"/>
    </clipPath>
  </defs>
</svg>