<svg xmlns="http://www.w3.org/2000/svg" width="20" height="20" viewBox="0 0 20 20" fill="none">
  <path fill-rule="evenodd" clip-rule="evenodd" d="M15.717 5.41671C15.784 5.34998 15.8371 5.27075 15.8734 5.18353C15.9097 5.09631 15.9284 5.00283 15.9285 4.9084C15.9285 4.81397 15.9099 4.72046 15.8738 4.6332C15.8376 4.54594 15.7845 4.46664 15.7176 4.39983C15.6507 4.33302 15.5713 4.28001 15.4839 4.24382C15.3964 4.20763 15.3027 4.18898 15.208 4.18892C15.1134 4.18886 15.0196 4.2074 14.9321 4.24348C14.8447 4.27956 14.7652 4.33248 14.6982 4.39921L10.3509 8.73546L6.0048 4.39921C5.86953 4.26428 5.68606 4.18848 5.49475 4.18848C5.30345 4.18848 5.11998 4.26428 4.98471 4.39921C4.84943 4.53414 4.77344 4.71714 4.77344 4.90796C4.77344 5.09878 4.84943 5.28178 4.98471 5.41671L9.33202 9.75171L4.98471 14.0867C4.91773 14.1535 4.86459 14.2328 4.82834 14.3201C4.79209 14.4074 4.77344 14.501 4.77344 14.5955C4.77344 14.6899 4.79209 14.7835 4.82834 14.8708C4.86459 14.9581 4.91773 15.0374 4.98471 15.1042C5.11998 15.2391 5.30345 15.3149 5.49475 15.3149C5.58948 15.3149 5.68328 15.2963 5.77079 15.2602C5.8583 15.224 5.93782 15.171 6.0048 15.1042L10.3509 10.768L14.6982 15.1042C14.8334 15.239 15.0169 15.3146 15.208 15.3145C15.3992 15.3144 15.5825 15.2385 15.7176 15.1036C15.8528 14.9687 15.9286 14.7857 15.9285 14.595C15.9284 14.4043 15.8523 14.2215 15.717 14.0867L11.3697 9.75171L15.717 5.41671Z" fill="#D70000"/>
</svg>