<svg xmlns="http://www.w3.org/2000/svg" width="38" height="39" viewBox="0 0 38 39" fill="none">
  <g clip-path="url(#clip0_9870_39928)">
    <path d="M37.664 12.8369C37.664 12.3984 37.579 11.9721 37.4114 11.5698C37.4112 11.5695 37.4111 11.5691 37.4109 11.5688L33.7484 2.78003C33.235 1.54802 32.0408 0.751953 30.7061 0.751953H7.12199C5.7873 0.751953 4.59309 1.54802 4.07966 2.78003L0.416748 11.5697C0.249097 11.9721 0.164062 12.3984 0.164062 12.8369V17.3779C0.164062 18.2215 0.482959 18.9916 1.00598 19.5752C0.482959 20.1588 0.164062 20.9289 0.164062 21.7725V26.167C0.164062 27.0105 0.482959 27.7807 1.00598 28.3643C0.482959 28.9479 0.164062 29.718 0.164062 30.5615V34.9561C0.164062 36.7734 1.6426 38.252 3.45996 38.252H34.3681C36.1855 38.252 37.664 36.7734 37.664 34.9561V30.5615C37.664 29.718 37.3451 28.9479 36.8221 28.3643C37.3452 27.7807 37.664 27.0105 37.664 26.167V21.7725C37.664 20.9289 37.3451 20.1588 36.8221 19.5752C37.3452 18.9916 37.664 18.2215 37.664 17.3779V12.8369ZM6.10788 3.62524C6.27905 3.21458 6.67712 2.94922 7.12199 2.94922H30.7061C31.151 2.94922 31.5491 3.21458 31.7202 3.62524L34.1856 9.54102H3.64255L6.10788 3.62524ZM35.4668 34.9561C35.4668 35.5618 34.9739 36.0547 34.3681 36.0547H3.45996C2.85417 36.0547 2.36133 35.5618 2.36133 34.9561V30.5615C2.36133 29.9557 2.85417 29.4629 3.45996 29.4629H34.3681C34.9739 29.4629 35.4668 29.9557 35.4668 30.5615V34.9561ZM35.4668 26.167C35.4668 26.7728 34.9739 27.2656 34.3681 27.2656H3.45996C2.85417 27.2656 2.36133 26.7728 2.36133 26.167V21.7725C2.36133 21.1667 2.85417 20.6738 3.45996 20.6738H34.3681C34.9739 20.6738 35.4668 21.1667 35.4668 21.7725V26.167ZM35.4668 17.3779C35.4668 17.9837 34.9739 18.4766 34.3681 18.4766H3.45996C2.85417 18.4766 2.36133 17.9837 2.36133 17.3779V12.8369C2.36133 12.2259 2.85469 11.7383 3.45996 11.7383H34.3681C34.9753 11.7383 35.4668 12.2278 35.4668 12.8369V17.3779Z" fill="#24A3D9"/>
    <path d="M32.1768 31.6592H12.2549C11.6481 31.6592 11.1562 32.1511 11.1562 32.7578C11.1562 33.3646 11.6481 33.8564 12.2549 33.8564H32.1768C32.7835 33.8564 33.2754 33.3646 33.2754 32.7578C33.2754 32.1511 32.7835 31.6592 32.1768 31.6592Z" fill="#24A3D9"/>
    <path d="M32.1768 13.9346H12.2549C11.6481 13.9346 11.1562 14.4265 11.1562 15.0332C11.1562 15.6399 11.6481 16.1318 12.2549 16.1318H32.1768C32.7835 16.1318 33.2754 15.6399 33.2754 15.0332C33.2754 14.4265 32.7835 13.9346 32.1768 13.9346Z" fill="#24A3D9"/>
    <path d="M5.66113 13.9346C5.05439 13.9346 4.5625 14.4265 4.5625 15.0332C4.5625 15.6399 5.05439 16.2783 5.66113 16.2783C6.26787 16.2783 6.75976 15.6399 6.75976 15.0332C6.75976 14.4265 6.26787 13.9346 5.66113 13.9346Z" fill="#24A3D9"/>
    <path d="M32.1768 22.8701H12.2549C11.6481 22.8701 11.1562 23.362 11.1562 23.9688C11.1562 24.5755 11.6481 25.0674 12.2549 25.0674H32.1768C32.7835 25.0674 33.2754 24.5755 33.2754 23.9688C33.2754 23.362 32.7835 22.8701 32.1768 22.8701Z" fill="#24A3D9"/>
    <path d="M5.66113 25.0674C6.26789 25.0674 6.75976 24.5755 6.75976 23.9688C6.75976 23.362 6.26789 22.8701 5.66113 22.8701C5.05437 22.8701 4.5625 23.362 4.5625 23.9688C4.5625 24.5755 5.05437 25.0674 5.66113 25.0674Z" fill="#24A3D9"/>
    <path d="M5.66113 33.8564C6.26789 33.8564 6.75976 33.3646 6.75976 32.7578C6.75976 32.1511 6.26789 31.6592 5.66113 31.6592C5.05437 31.6592 4.5625 32.1511 4.5625 32.7578C4.5625 33.3646 5.05437 33.8564 5.66113 33.8564Z" fill="#24A3D9"/>
  </g>
  <defs>
    <clipPath id="clip0_9870_39928">
      <rect width="37.5" height="37.5" fill="white" transform="translate(0.167969 0.750977)"/>
    </clipPath>
  </defs>
</svg>