<svg width="16" height="15" viewBox="0 0 16 15" fill="none" xmlns="http://www.w3.org/2000/svg">
<g clip-path="url(#clip0_20263_2588)">
<path d="M8.73472 9.53672C8.59058 9.68077 8.41245 9.79084 8.21941 9.8552L6.35493 10.4767C6.22037 10.5216 6.08004 10.5444 5.93807 10.5444C5.58589 10.5444 5.2548 10.4072 5.00581 10.1582C4.65041 9.80271 4.52842 9.28579 4.68735 8.80904L5.30886 6.94465C5.37316 6.75155 5.48332 6.57331 5.62731 6.42932L9.65432 2.40234H1.77539C0.886904 2.40234 0.164062 3.12519 0.164062 4.01367V13.3887C0.164062 14.2772 0.886904 15 1.77539 15H11.1504C12.0389 15 12.7617 14.2772 12.7617 13.3887V5.50975L8.73472 9.53672Z" fill="#26435F"/>
<path d="M6.24875 7.05028C6.2005 7.09854 6.16417 7.15733 6.14261 7.22205L5.5211 9.08647C5.46846 9.24439 5.50956 9.41847 5.62725 9.53618C5.74496 9.6539 5.91904 9.695 6.07695 9.64232L7.94141 9.02085C8.00615 8.99929 8.06492 8.96296 8.11317 8.91471L13.6029 3.42497L11.7385 1.56055L6.24875 7.05028Z" fill="#26435F"/>
<path d="M14.1207 0.214519C13.8347 -0.0715064 13.371 -0.0715064 13.0849 0.214519L12.3599 0.939587L14.2243 2.80404L14.9494 2.07897C15.2354 1.79295 15.2354 1.32921 14.9494 1.04318L14.1207 0.214519Z" fill="#26435F"/>
</g>
<defs>
<clipPath id="clip0_20263_2588">
<rect width="15" height="15" fill="white" transform="translate(0.164062)"/>
</clipPath>
</defs>
</svg>
