<svg width="18" height="19" viewBox="0 0 18 19" fill="none" xmlns="http://www.w3.org/2000/svg">
<path d="M4.37517 5.41852V12.436C4.37506 13.1304 4.63906 13.7987 5.11361 14.3056C5.58816 14.8124 6.23773 15.1198 6.93057 15.1654L7.10997 15.1708H11.9385C11.8254 15.4907 11.616 15.7677 11.339 15.9636C11.0619 16.1595 10.731 16.2647 10.3917 16.2647H6.56301C5.69264 16.2647 4.85791 15.919 4.24246 15.3035C3.62701 14.6881 3.28125 13.8534 3.28125 12.983V6.96642C3.28107 6.62695 3.38619 6.29578 3.58211 6.01855C3.77803 5.74132 4.05511 5.53168 4.37517 5.41852ZM12.5796 3.1377C13.0148 3.1377 13.4321 3.31057 13.7399 3.6183C14.0476 3.92602 14.2205 4.34339 14.2205 4.77858V12.436C14.2205 12.8712 14.0476 13.2886 13.7399 13.5963C13.4321 13.904 13.0148 14.0769 12.5796 14.0769H7.10997C6.67478 14.0769 6.25742 13.904 5.94969 13.5963C5.64197 13.2886 5.46909 12.8712 5.46909 12.436V4.77858C5.46909 4.34339 5.64197 3.92602 5.94969 3.6183C6.25742 3.31057 6.67478 3.1377 7.10997 3.1377H12.5796Z" fill="#667085"/>
</svg>
