<svg width="34" height="34" viewBox="0 0 34 34" fill="none" xmlns="http://www.w3.org/2000/svg">
<path d="M9.65625 7.625C9.65625 6.13316 10.1304 4.70242 10.9743 3.64752C11.8182 2.59263 12.9628 2 14.1562 2H20.9062C22.0997 2 23.2443 2.59263 24.0882 3.64752C24.9321 4.70242 25.4062 6.13316 25.4062 7.625V9.5H9.65625V7.625ZM2.15625 17.9375L16.7925 22.5116C17.031 22.5866 17.2815 22.5866 17.52 22.5116L32.1562 17.9375V30.125C32.1562 30.6223 31.9982 31.0992 31.7169 31.4508C31.4356 31.8025 31.0541 32 30.6562 32H3.65625C3.25843 32 2.87689 31.8025 2.59559 31.4508C2.31429 31.0992 2.15625 30.6223 2.15625 30.125V17.9375Z" stroke="#24A3D9" stroke-width="2.50039" stroke-linecap="round" stroke-linejoin="round"/>
<path d="M32.1562 19.812V11.3745C32.1562 10.8772 31.9982 10.4003 31.7169 10.0487C31.4356 9.69706 31.0541 9.49951 30.6562 9.49951H3.65625C3.25843 9.49951 2.87689 9.69706 2.59559 10.0487C2.31429 10.4003 2.15625 10.8772 2.15625 11.3745V19.812" stroke="#24A3D9" stroke-width="2.50039" stroke-linecap="round" stroke-linejoin="round"/>
<path d="M19.0352 16.062C19.0352 16.6836 18.8376 17.2798 18.486 17.7193C18.1344 18.1588 17.6574 18.4058 17.1602 18.4058C16.6629 18.4058 16.186 18.1588 15.8343 17.7193C15.4827 17.2798 15.2852 16.6836 15.2852 16.062C15.2852 15.4404 15.4827 14.8443 15.8343 14.4047C16.186 13.9652 16.6629 13.7183 17.1602 13.7183C17.6574 13.7183 18.1344 13.9652 18.486 14.4047C18.8376 14.8443 19.0352 15.4404 19.0352 16.062Z" fill="#24A3D9"/>
</svg>
