<svg width="38" height="39" viewBox="0 0 38 39" fill="none" xmlns="http://www.w3.org/2000/svg">
<ellipse cx="18.75" cy="19.4981" rx="18.75" ry="18.75" fill="#26435F"/>
<path fill-rule="evenodd" clip-rule="evenodd" d="M18.125 18.21C18.3426 18.21 18.5512 18.2964 18.705 18.4502C18.8589 18.6041 18.9453 18.8127 18.9453 19.0303V20.3975H20.3125C20.5301 20.3975 20.7387 20.4839 20.8926 20.6377C21.0464 20.7916 21.1328 21.0002 21.1328 21.2178C21.1328 21.4353 21.0464 21.644 20.8926 21.7978C20.7387 21.9517 20.5301 22.0381 20.3125 22.0381H18.9453V23.4053C18.9453 23.6228 18.8589 23.8315 18.705 23.9853C18.5512 24.1392 18.3426 24.2256 18.125 24.2256C17.9074 24.2256 17.6988 24.1392 17.545 23.9853C17.3911 23.8315 17.3047 23.6228 17.3047 23.4053V22.0381H15.9375C15.7199 22.0381 15.5113 21.9517 15.3575 21.7978C15.2036 21.644 15.1172 21.4353 15.1172 21.2178C15.1172 21.0002 15.2036 20.7916 15.3575 20.6377C15.5113 20.4839 15.7199 20.3975 15.9375 20.3975H17.3047V19.0303C17.3047 18.8127 17.3911 18.6041 17.545 18.4502C17.6988 18.2964 17.9074 18.21 18.125 18.21Z" fill="white"/>
<path fill-rule="evenodd" clip-rule="evenodd" d="M15.6947 29.9678H20.5553C23.9689 29.9678 25.6763 29.9678 26.9024 29.1639C27.4314 28.8172 27.887 28.3697 28.2433 27.847C29.0625 26.6439 29.0625 24.9672 29.0625 21.616C29.0625 18.2636 29.0625 16.588 28.2433 15.3849C27.8871 14.8622 27.4314 14.4147 26.9024 14.068C26.1149 13.5506 25.1283 13.3658 23.6178 13.3002C22.897 13.3002 22.2769 12.7642 22.1358 12.0697C22.028 11.561 21.7478 11.1051 21.3427 10.779C20.9375 10.453 20.4322 10.2768 19.9122 10.2803H16.3378C15.2572 10.2803 14.3264 11.0295 14.1142 12.0697C13.9731 12.7642 13.353 13.3002 12.6322 13.3002C11.1228 13.3658 10.1363 13.5517 9.34766 14.068C8.81896 14.4148 8.36369 14.8622 8.00781 15.3849C7.1875 16.588 7.1875 18.2636 7.1875 21.616C7.1875 24.9672 7.1875 26.6428 8.00672 27.847C8.36109 28.3677 8.81609 28.815 9.34766 29.1639C10.5738 29.9678 12.2811 29.9678 15.6947 29.9678ZM22.5 21.2178C22.5 22.3781 22.0391 23.4909 21.2186 24.3114C20.3981 25.1319 19.2853 25.5928 18.125 25.5928C16.9647 25.5928 15.8519 25.1319 15.0314 24.3114C14.2109 23.4909 13.75 22.3781 13.75 21.2178C13.75 20.0575 14.2109 18.9447 15.0314 18.1242C15.8519 17.3038 16.9647 16.8428 18.125 16.8428C19.2853 16.8428 20.3981 17.3038 21.2186 18.1242C22.0391 18.9447 22.5 20.0575 22.5 21.2178ZM24.6875 17.1163C24.47 17.1163 24.2613 17.2027 24.1075 17.3565C23.9536 17.5104 23.8672 17.719 23.8672 17.9366C23.8672 18.1541 23.9536 18.3628 24.1075 18.5166C24.2613 18.6705 24.47 18.7569 24.6875 18.7569H25.7813C25.9988 18.7569 26.2075 18.6705 26.3613 18.5166C26.5152 18.3628 26.6016 18.1541 26.6016 17.9366C26.6016 17.719 26.5152 17.5104 26.3613 17.3565C26.2075 17.2027 25.9988 17.1163 25.7813 17.1163H24.6875Z" fill="white"/>
</svg>
