<svg xmlns="http://www.w3.org/2000/svg" width="18" height="11" viewBox="0 0 18 11" fill="none">
  <path fill-rule="evenodd" clip-rule="evenodd" d="M9.85921 9.86117C9.63001 10.0903 9.31919 10.219 8.9951 10.219C8.67101 10.219 8.36019 10.0903 8.13099 9.86117L1.21688 2.94706C1.10015 2.83431 1.00703 2.69944 0.942978 2.55033C0.878923 2.40121 0.845206 2.24083 0.843796 2.07855C0.842386 1.91626 0.873311 1.75532 0.934765 1.60511C0.996219 1.45491 1.08697 1.31844 1.20173 1.20368C1.31649 1.08893 1.45295 0.998172 1.60316 0.936718C1.75337 0.875263 1.91431 0.844339 2.07659 0.845749C2.23888 0.847159 2.39926 0.880876 2.54837 0.944932C2.69749 1.00899 2.83236 1.1021 2.9451 1.21883L8.9951 7.26883L15.0451 1.21883C15.2756 0.996195 15.5844 0.873002 15.9048 0.875787C16.2253 0.878572 16.5318 1.00711 16.7584 1.23372C16.985 1.46033 17.1136 1.76688 17.1164 2.08734C17.1192 2.40781 16.996 2.71654 16.7733 2.94706L9.85921 9.86117Z" fill="#667085"/>
</svg>