<svg width="26" height="26" viewBox="0 0 26 26" fill="none" xmlns="http://www.w3.org/2000/svg">
<path d="M5.45833 20.2904H6.91667L15.901 11.306L14.4427 9.84766L5.45833 18.832V20.2904ZM20.3542 9.79557L15.9271 5.42057L17.3854 3.96224C17.7847 3.56293 18.2753 3.36328 18.8573 3.36328C19.4392 3.36328 19.9295 3.56293 20.3281 3.96224L21.7865 5.42057C22.1858 5.81988 22.3941 6.30182 22.4115 6.86641C22.4288 7.43099 22.2378 7.91259 21.8385 8.3112L20.3542 9.79557ZM18.8438 11.332L7.80208 22.3737H3.375V17.9466L14.4167 6.90495L18.8438 11.332ZM15.1719 10.5768L14.4427 9.84766L15.901 11.306L15.1719 10.5768Z" fill="#FFA28D"/>
</svg>
