<svg width="19" height="19" viewBox="0 0 19 19" fill="none" xmlns="http://www.w3.org/2000/svg">
<g clip-path="url(#clip0_15034_13249)">
<rect width="18.457" height="18.75" rx="9.22852" fill="white"/>
<path d="M18.1379 9.36123C18.1379 14.2723 14.1567 18.2537 9.24571 18.2537C4.33467 18.2537 0.353516 14.2729 0.353516 9.36123C0.353516 4.4499 4.33438 0.46875 9.24571 0.46875C14.1567 0.46875 18.1379 4.4502 18.1379 9.36123ZM9.24571 2.45654C5.43213 2.45654 2.34072 5.54795 2.34072 9.36152C2.34072 13.1748 5.43184 16.2668 9.24571 16.2668C13.0593 16.2668 16.1507 13.1748 16.1507 9.36152C16.151 5.54824 13.0593 2.45654 9.24571 2.45654ZM7.42549 7.29492C7.42549 5.89219 8.3252 5.39971 9.22432 5.39971C9.75957 5.39971 10.2178 5.44922 10.584 5.90273C11.4406 6.96299 10.4847 7.99189 9.39541 8.53652C8.62461 8.92207 8.26045 9.57539 8.26045 10.4851V12.52H10.2945V11.3206C10.2945 9.48955 11.4723 9.94981 12.3289 8.80459C13.4873 7.25537 13.2368 5.50898 11.6648 4.26475C9.86651 2.84062 7.83155 3.54727 7.26436 3.93281C6.79297 4.25303 5.12305 5.44248 5.44414 8.00127L7.4208 8.00537C7.4208 8.00537 7.42491 7.76602 7.42491 7.29492H7.42549ZM10.2951 15.3038V13.2161H8.26104V15.3038H10.2951Z" fill="#517CA8"/>
</g>
<defs>
<clipPath id="clip0_15034_13249">
<rect width="18.457" height="18.75" rx="9.22852" fill="white"/>
</clipPath>
</defs>
</svg>
