<svg width="201" height="17" viewBox="0 0 201 17" fill="none" xmlns="http://www.w3.org/2000/svg">
<path d="M7.24656 16.201C6.21989 16.201 5.27323 16.021 4.40656 15.661C3.5399 15.301 2.7799 14.801 2.12656 14.161C1.48656 13.5076 0.993229 12.741 0.646562 11.861C0.299896 10.9676 0.126562 10.001 0.126562 8.96098C0.126562 7.90764 0.299896 6.94764 0.646562 6.08098C0.993229 5.20098 1.48656 4.43431 2.12656 3.78098C2.7799 3.12765 3.5399 2.62098 4.40656 2.26098C5.27323 1.90098 6.21989 1.72098 7.24656 1.72098C8.28656 1.72098 9.23323 1.90098 10.0866 2.26098C10.9532 2.62098 11.7066 3.12765 12.3466 3.78098C12.9999 4.43431 13.4999 5.20098 13.8466 6.08098C14.1932 6.96098 14.3666 7.92098 14.3666 8.96098C14.3666 10.001 14.1932 10.961 13.8466 11.841C13.4999 12.721 12.9999 13.4876 12.3466 14.141C11.7066 14.7943 10.9532 15.301 10.0866 15.661C9.23323 16.021 8.28656 16.201 7.24656 16.201ZM7.24656 13.361C7.83323 13.361 8.37323 13.2543 8.86656 13.041C9.37323 12.8276 9.80656 12.521 10.1666 12.121C10.5266 11.721 10.8066 11.2543 11.0066 10.721C11.2199 10.1876 11.3266 9.60098 11.3266 8.96098C11.3266 8.32098 11.2199 7.73431 11.0066 7.20098C10.8066 6.66764 10.5266 6.20764 10.1666 5.82098C9.80656 5.42098 9.37323 5.11431 8.86656 4.90098C8.37323 4.67431 7.83323 4.56098 7.24656 4.56098C6.65989 4.56098 6.11989 4.67431 5.62656 4.90098C5.13323 5.11431 4.6999 5.42098 4.32656 5.82098C3.95323 6.20764 3.66656 6.66764 3.46656 7.20098C3.2799 7.73431 3.18656 8.32098 3.18656 8.96098C3.18656 9.60098 3.2799 10.1876 3.46656 10.721C3.66656 11.2543 3.95323 11.721 4.32656 12.121C4.6999 12.521 5.13323 12.8276 5.62656 13.041C6.11989 13.2543 6.65989 13.361 7.24656 13.361ZM17.5017 16.001V4.68098C17.5017 4.02765 17.6484 3.43431 17.9417 2.90098C18.235 2.36764 18.635 1.94764 19.1417 1.64098C19.6617 1.33431 20.2684 1.18098 20.9617 1.18098C21.4284 1.18098 21.8684 1.26098 22.2817 1.42098C22.695 1.56765 23.0484 1.77431 23.3417 2.04098L22.5017 4.12098C22.3284 4.01431 22.1484 3.92764 21.9617 3.86098C21.7884 3.78098 21.6284 3.74098 21.4817 3.74098C21.2284 3.74098 21.015 3.78765 20.8417 3.88098C20.6817 3.96098 20.5617 4.08765 20.4817 4.26098C20.4017 4.42098 20.3617 4.62764 20.3617 4.88098V16.001H18.9417C18.635 16.001 18.3617 16.001 18.1217 16.001C17.8817 16.001 17.675 16.001 17.5017 16.001ZM15.9217 8.08098V5.68098H22.6417V8.08098H15.9217ZM25.3617 16.001V4.68098C25.3617 4.02765 25.5084 3.43431 25.8017 2.90098C26.095 2.36764 26.495 1.94764 27.0017 1.64098C27.5217 1.33431 28.1284 1.18098 28.8217 1.18098C29.2884 1.18098 29.7284 1.26098 30.1417 1.42098C30.555 1.56765 30.9084 1.77431 31.2017 2.04098L30.3617 4.12098C30.1884 4.01431 30.0084 3.92764 29.8217 3.86098C29.6484 3.78098 29.4884 3.74098 29.3417 3.74098C29.0884 3.74098 28.875 3.78765 28.7017 3.88098C28.5417 3.96098 28.4217 4.08765 28.3417 4.26098C28.2617 4.42098 28.2217 4.62764 28.2217 4.88098V16.001H26.8017C26.495 16.001 26.2217 16.001 25.9817 16.001C25.7417 16.001 25.535 16.001 25.3617 16.001ZM23.7817 8.08098V5.68098H30.5017V8.08098H23.7817ZM32.6417 16.001V5.42098H35.4817V16.001H32.6417ZM34.0417 3.24098C33.495 3.24098 33.0684 3.10765 32.7617 2.84098C32.455 2.57431 32.3017 2.19431 32.3017 1.70098C32.3017 1.24765 32.455 0.880979 32.7617 0.600979C33.0817 0.307645 33.5084 0.160978 34.0417 0.160978C34.5884 0.160978 35.015 0.300979 35.3217 0.580979C35.6284 0.847645 35.7817 1.22098 35.7817 1.70098C35.7817 2.16765 35.6217 2.54098 35.3017 2.82098C34.995 3.10098 34.575 3.24098 34.0417 3.24098ZM43.1176 16.201C42.1043 16.201 41.1976 15.961 40.3976 15.481C39.5976 15.001 38.9643 14.3476 38.4976 13.521C38.0443 12.6943 37.8176 11.7543 37.8176 10.701C37.8176 9.66098 38.0443 8.72764 38.4976 7.90098C38.9643 7.06098 39.5976 6.40098 40.3976 5.92098C41.1976 5.44098 42.1043 5.20098 43.1176 5.20098C44.0643 5.20098 44.931 5.37431 45.7176 5.72098C46.5043 6.06764 47.1176 6.54764 47.5576 7.16098L45.9976 9.04098C45.811 8.78764 45.5776 8.56098 45.2976 8.36098C45.0176 8.14764 44.711 7.98098 44.3776 7.86098C44.0576 7.74098 43.7243 7.68098 43.3776 7.68098C42.831 7.68098 42.3443 7.81431 41.9176 8.08098C41.5043 8.33431 41.1776 8.68764 40.9376 9.14098C40.6976 9.59431 40.5776 10.1143 40.5776 10.701C40.5776 11.2743 40.6976 11.7876 40.9376 12.241C41.191 12.681 41.531 13.041 41.9576 13.321C42.3843 13.5876 42.8643 13.721 43.3976 13.721C43.7443 13.721 44.071 13.6743 44.3776 13.581C44.6843 13.4743 44.971 13.321 45.2376 13.121C45.5176 12.921 45.771 12.681 45.9976 12.401L47.5376 14.281C47.0843 14.8543 46.4576 15.321 45.6576 15.681C44.8576 16.0276 44.011 16.201 43.1176 16.201ZM49.5975 16.001V5.42098H52.4375V16.001H49.5975ZM50.9975 3.24098C50.4508 3.24098 50.0242 3.10765 49.7175 2.84098C49.4108 2.57431 49.2575 2.19431 49.2575 1.70098C49.2575 1.24765 49.4108 0.880979 49.7175 0.600979C50.0375 0.307645 50.4642 0.160978 50.9975 0.160978C51.5442 0.160978 51.9708 0.300979 52.2775 0.580979C52.5842 0.847645 52.7375 1.22098 52.7375 1.70098C52.7375 2.16765 52.5775 2.54098 52.2575 2.82098C51.9508 3.10098 51.5308 3.24098 50.9975 3.24098ZM59.4308 16.201C58.5508 16.201 57.7574 15.961 57.0508 15.481C56.3441 15.001 55.7841 14.3476 55.3708 13.521C54.9574 12.6943 54.7508 11.7476 54.7508 10.681C54.7508 9.61431 54.9574 8.67431 55.3708 7.86098C55.7974 7.03431 56.3708 6.38764 57.0908 5.92098C57.8108 5.44098 58.6308 5.20098 59.5508 5.20098C60.0708 5.20098 60.5441 5.28098 60.9708 5.44098C61.4108 5.58764 61.7908 5.79431 62.1108 6.06098C62.4441 6.32764 62.7241 6.63431 62.9508 6.98098C63.1774 7.32764 63.3374 7.70098 63.4308 8.10098L62.8308 8.00098V5.42098H65.6508V16.001H62.7908V13.461L63.4308 13.401C63.3241 13.7743 63.1508 14.1276 62.9108 14.461C62.6708 14.7943 62.3708 15.0943 62.0108 15.361C61.6641 15.6143 61.2708 15.821 60.8308 15.981C60.3908 16.1276 59.9241 16.201 59.4308 16.201ZM60.2108 13.741C60.7441 13.741 61.2108 13.6143 61.6108 13.361C62.0108 13.1076 62.3174 12.7543 62.5308 12.301C62.7574 11.8343 62.8708 11.2943 62.8708 10.681C62.8708 10.081 62.7574 9.55431 62.5308 9.10098C62.3174 8.64764 62.0108 8.29431 61.6108 8.04098C61.2108 7.77431 60.7441 7.64098 60.2108 7.64098C59.6908 7.64098 59.2308 7.77431 58.8308 8.04098C58.4441 8.29431 58.1374 8.64764 57.9108 9.10098C57.6841 9.55431 57.5708 10.081 57.5708 10.681C57.5708 11.2943 57.6841 11.8343 57.9108 12.301C58.1374 12.7543 58.4441 13.1076 58.8308 13.361C59.2308 13.6143 59.6908 13.741 60.2108 13.741ZM68.5181 16.001V1.20098H71.3581V16.001H68.5181ZM79.1131 16.001L84.5931 2.00098H87.2731L92.7331 16.001H89.6531L86.8331 8.46098C86.7531 8.24764 86.6531 7.97431 86.5331 7.64098C86.4264 7.30764 86.3131 6.95431 86.1931 6.58098C86.0731 6.20764 85.9598 5.85431 85.8531 5.52098C85.7464 5.17431 85.6664 4.88764 85.6131 4.66098L86.1531 4.64098C86.0731 4.94764 85.9798 5.26764 85.8731 5.60098C85.7798 5.92098 85.6798 6.25431 85.5731 6.60098C85.4664 6.93431 85.3531 7.26098 85.2331 7.58098C85.1131 7.90098 84.9998 8.21431 84.8931 8.52098L82.0731 16.001H79.1131ZM81.6531 13.061L82.6331 10.641H89.0531L90.0531 13.061H81.6531ZM100.448 16.201C99.4216 16.201 98.4749 16.0276 97.6083 15.681C96.7549 15.321 96.0083 14.821 95.3683 14.181C94.7416 13.5276 94.2549 12.761 93.9083 11.881C93.5616 10.9876 93.3883 10.0143 93.3883 8.96098C93.3883 7.93431 93.5683 6.98764 93.9283 6.12098C94.2883 5.24098 94.7949 4.48098 95.4483 3.84098C96.1016 3.18765 96.8683 2.68098 97.7483 2.32098C98.6283 1.96098 99.5816 1.78098 100.608 1.78098C101.275 1.78098 101.928 1.87431 102.568 2.06098C103.222 2.23431 103.815 2.49431 104.348 2.84098C104.895 3.18764 105.362 3.60098 105.748 4.08098L103.868 6.16098C103.548 5.84098 103.215 5.56764 102.868 5.34098C102.535 5.10098 102.175 4.92098 101.788 4.80098C101.415 4.66764 101.015 4.60098 100.588 4.60098C100.015 4.60098 99.4749 4.70764 98.9683 4.92098C98.4749 5.13431 98.0416 5.43431 97.6683 5.82098C97.2949 6.19431 96.9949 6.65431 96.7683 7.20098C96.5549 7.73431 96.4483 8.32764 96.4483 8.98098C96.4483 9.64764 96.5549 10.2543 96.7683 10.801C96.9816 11.3343 97.2816 11.7943 97.6683 12.181C98.0549 12.5543 98.5149 12.8476 99.0483 13.061C99.5949 13.261 100.195 13.361 100.848 13.361C101.275 13.361 101.688 13.301 102.088 13.181C102.488 13.061 102.855 12.8943 103.188 12.681C103.535 12.4676 103.842 12.221 104.108 11.941L105.568 14.281C105.248 14.641 104.815 14.9676 104.268 15.261C103.735 15.5543 103.135 15.7876 102.468 15.961C101.802 16.121 101.128 16.201 100.448 16.201ZM111.017 16.001V4.70098H106.937V2.00098H118.217V4.70098H114.017V16.001H111.017ZM124.055 11.141C123.148 11.141 122.322 10.9276 121.575 10.501C120.842 10.061 120.255 9.48098 119.815 8.76098C119.375 8.02764 119.155 7.21431 119.155 6.32098C119.155 5.65431 119.282 5.02764 119.535 4.44098C119.788 3.85431 120.135 3.34764 120.575 2.92098C121.028 2.48098 121.548 2.13431 122.135 1.88098C122.735 1.62765 123.375 1.50098 124.055 1.50098C124.722 1.50098 125.342 1.62765 125.915 1.88098C126.502 2.13431 127.015 2.48098 127.455 2.92098C127.895 3.36098 128.242 3.87431 128.495 4.46098C128.748 5.03431 128.875 5.65431 128.875 6.32098C128.875 6.98764 128.748 7.61431 128.495 8.20098C128.242 8.78764 127.895 9.30098 127.455 9.74098C127.028 10.1676 126.522 10.5076 125.935 10.761C125.362 11.0143 124.735 11.141 124.055 11.141ZM124.055 9.86098C124.708 9.86098 125.302 9.70764 125.835 9.40098C126.382 9.08098 126.815 8.65431 127.135 8.12098C127.455 7.57431 127.615 6.97431 127.615 6.32098C127.615 5.66764 127.455 5.07431 127.135 4.54098C126.815 3.99431 126.382 3.56098 125.835 3.24098C125.302 2.92098 124.708 2.76098 124.055 2.76098C123.388 2.76098 122.775 2.92098 122.215 3.24098C121.668 3.56098 121.228 3.99431 120.895 4.54098C120.575 5.07431 120.415 5.66764 120.415 6.32098C120.415 6.98764 120.575 7.58764 120.895 8.12098C121.228 8.65431 121.668 9.08098 122.215 9.40098C122.775 9.70764 123.388 9.86098 124.055 9.86098ZM124.735 8.66098L123.995 6.82098L125.255 6.50098L126.275 8.66098H124.735ZM122.135 8.66098V3.88098H124.495C124.975 3.88098 125.368 4.02098 125.675 4.30098C125.982 4.58098 126.135 4.94098 126.135 5.38098C126.135 5.82098 125.975 6.18764 125.655 6.48098C125.335 6.76098 124.948 6.90098 124.495 6.90098H123.275L123.595 6.68098V8.66098H122.135ZM123.595 6.10098L123.315 5.96098H124.095C124.268 5.96098 124.415 5.92098 124.535 5.84098C124.655 5.74764 124.715 5.63431 124.715 5.50098C124.715 5.35431 124.662 5.24098 124.555 5.16098C124.462 5.08098 124.322 5.04098 124.135 5.04098H123.275L123.595 4.88098V6.10098ZM141.504 16.201C140.638 16.201 139.845 16.0943 139.125 15.881C138.418 15.6676 137.785 15.3543 137.225 14.941C136.678 14.5276 136.185 14.0276 135.745 13.441L137.625 11.301C138.278 12.2076 138.925 12.8276 139.565 13.161C140.218 13.481 140.924 13.641 141.684 13.641C142.098 13.641 142.464 13.5876 142.784 13.481C143.118 13.361 143.378 13.1943 143.564 12.981C143.751 12.7676 143.844 12.5143 143.844 12.221C143.844 12.0076 143.798 11.8143 143.704 11.641C143.611 11.4543 143.478 11.2943 143.304 11.161C143.131 11.0143 142.924 10.8876 142.684 10.781C142.444 10.661 142.178 10.561 141.884 10.481C141.591 10.3876 141.271 10.3143 140.924 10.261C140.178 10.0876 139.525 9.88098 138.965 9.64098C138.405 9.38764 137.938 9.08098 137.565 8.72098C137.191 8.34764 136.911 7.92764 136.725 7.46098C136.551 6.99431 136.465 6.46764 136.465 5.88098C136.465 5.28098 136.598 4.72765 136.865 4.22098C137.131 3.70098 137.498 3.25431 137.965 2.88098C138.445 2.50765 138.991 2.22098 139.604 2.02098C140.231 1.82098 140.891 1.72098 141.585 1.72098C142.438 1.72098 143.184 1.82098 143.824 2.02098C144.464 2.20764 145.018 2.48098 145.484 2.84098C145.964 3.20098 146.364 3.64098 146.684 4.16098L144.784 6.00098C144.504 5.62765 144.198 5.31431 143.864 5.06098C143.544 4.80764 143.191 4.62098 142.804 4.50098C142.431 4.36764 142.044 4.30098 141.644 4.30098C141.205 4.30098 140.825 4.36098 140.504 4.48098C140.185 4.58764 139.931 4.74764 139.744 4.96098C139.571 5.17431 139.485 5.43431 139.485 5.74098C139.485 5.98098 139.545 6.19431 139.665 6.38098C139.785 6.56764 139.958 6.73431 140.184 6.88098C140.411 7.01431 140.685 7.13431 141.004 7.24098C141.324 7.34764 141.678 7.44098 142.064 7.52098C142.798 7.66764 143.458 7.86098 144.044 8.10098C144.631 8.34098 145.131 8.63431 145.544 8.98098C145.971 9.31431 146.298 9.71431 146.524 10.181C146.751 10.6343 146.864 11.1476 146.864 11.721C146.864 12.6676 146.638 13.4743 146.184 14.141C145.731 14.8076 145.104 15.321 144.304 15.681C143.504 16.0276 142.571 16.201 141.504 16.201ZM153.782 16.201C152.768 16.201 151.862 15.961 151.062 15.481C150.262 15.001 149.628 14.3476 149.162 13.521C148.708 12.6943 148.482 11.7543 148.482 10.701C148.482 9.66098 148.708 8.72764 149.162 7.90098C149.628 7.06098 150.262 6.40098 151.062 5.92098C151.862 5.44098 152.768 5.20098 153.782 5.20098C154.728 5.20098 155.595 5.37431 156.382 5.72098C157.168 6.06764 157.782 6.54764 158.222 7.16098L156.662 9.04098C156.475 8.78764 156.242 8.56098 155.962 8.36098C155.682 8.14764 155.375 7.98098 155.042 7.86098C154.722 7.74098 154.388 7.68098 154.042 7.68098C153.495 7.68098 153.008 7.81431 152.582 8.08098C152.168 8.33431 151.842 8.68764 151.602 9.14098C151.362 9.59431 151.242 10.1143 151.242 10.701C151.242 11.2743 151.362 11.7876 151.602 12.241C151.855 12.681 152.195 13.041 152.622 13.321C153.048 13.5876 153.528 13.721 154.062 13.721C154.408 13.721 154.735 13.6743 155.042 13.581C155.348 13.4743 155.635 13.321 155.902 13.121C156.182 12.921 156.435 12.681 156.662 12.401L158.202 14.281C157.748 14.8543 157.122 15.321 156.322 15.681C155.522 16.0276 154.675 16.201 153.782 16.201ZM164.942 16.201C163.862 16.201 162.895 15.9676 162.042 15.501C161.202 15.021 160.535 14.3676 160.042 13.541C159.562 12.7143 159.322 11.7676 159.322 10.701C159.322 9.63431 159.562 8.69431 160.042 7.88098C160.535 7.05431 161.202 6.40098 162.042 5.92098C162.895 5.44098 163.862 5.20098 164.942 5.20098C166.008 5.20098 166.962 5.44098 167.802 5.92098C168.655 6.40098 169.322 7.05431 169.802 7.88098C170.282 8.69431 170.522 9.63431 170.522 10.701C170.522 11.7676 170.282 12.7143 169.802 13.541C169.322 14.3676 168.655 15.021 167.802 15.501C166.962 15.9676 166.008 16.201 164.942 16.201ZM164.942 13.721C165.462 13.721 165.928 13.5943 166.342 13.341C166.755 13.0743 167.075 12.7143 167.302 12.261C167.542 11.7943 167.662 11.2743 167.662 10.701C167.662 10.1143 167.542 9.59431 167.302 9.14098C167.075 8.67431 166.755 8.31431 166.342 8.06098C165.928 7.79431 165.462 7.66098 164.942 7.66098C164.408 7.66098 163.935 7.79431 163.522 8.06098C163.108 8.32764 162.782 8.68764 162.542 9.14098C162.302 9.59431 162.188 10.1143 162.202 10.701C162.188 11.2743 162.302 11.7943 162.542 12.261C162.782 12.7143 163.108 13.0743 163.522 13.341C163.935 13.5943 164.408 13.721 164.942 13.721ZM172.658 16.001V5.42098H175.398L175.498 8.82098L175.018 8.12098C175.178 7.57431 175.438 7.08098 175.798 6.64098C176.158 6.18764 176.578 5.83431 177.058 5.58098C177.552 5.32764 178.065 5.20098 178.598 5.20098C178.825 5.20098 179.045 5.22098 179.258 5.26098C179.472 5.30098 179.652 5.34764 179.798 5.40098L179.038 8.52098C178.878 8.44098 178.685 8.37431 178.458 8.32098C178.232 8.25431 177.998 8.22098 177.758 8.22098C177.438 8.22098 177.138 8.28098 176.858 8.40098C176.592 8.50764 176.358 8.66764 176.158 8.88098C175.958 9.08098 175.798 9.32098 175.678 9.60098C175.572 9.88098 175.518 10.1876 175.518 10.521V16.001H172.658ZM185.999 16.201C184.852 16.201 183.852 15.9676 182.999 15.501C182.145 15.0343 181.479 14.3943 180.999 13.581C180.519 12.7676 180.279 11.8343 180.279 10.781C180.279 9.96764 180.412 9.22098 180.679 8.54098C180.945 7.86098 181.319 7.27431 181.799 6.78098C182.279 6.27431 182.845 5.88764 183.499 5.62098C184.165 5.34098 184.885 5.20098 185.659 5.20098C186.379 5.20098 187.045 5.33431 187.659 5.60098C188.272 5.85431 188.799 6.22098 189.239 6.70098C189.692 7.16764 190.039 7.72098 190.279 8.36098C190.519 9.00098 190.625 9.70098 190.599 10.461L190.579 11.341H182.079L181.619 9.60098H188.239L187.919 9.96098V9.52098C187.892 9.16098 187.772 8.83431 187.559 8.54098C187.359 8.24764 187.099 8.02098 186.779 7.86098C186.459 7.70098 186.099 7.62098 185.699 7.62098C185.112 7.62098 184.612 7.73431 184.199 7.96098C183.799 8.18764 183.492 8.52098 183.279 8.96098C183.065 9.40098 182.959 9.93431 182.959 10.561C182.959 11.201 183.092 11.7543 183.359 12.221C183.639 12.6876 184.025 13.0543 184.519 13.321C185.025 13.5743 185.619 13.701 186.299 13.701C186.765 13.701 187.192 13.6276 187.579 13.481C187.965 13.3343 188.379 13.081 188.819 12.721L190.179 14.621C189.792 14.9676 189.365 15.261 188.899 15.501C188.432 15.7276 187.952 15.901 187.459 16.021C186.965 16.141 186.479 16.201 185.999 16.201ZM196.257 16.201C195.271 16.201 194.391 16.041 193.617 15.721C192.857 15.3876 192.244 14.9343 191.777 14.361L193.537 12.841C193.951 13.281 194.411 13.601 194.917 13.801C195.424 13.9876 195.931 14.081 196.437 14.081C196.637 14.081 196.817 14.061 196.977 14.021C197.151 13.9676 197.297 13.901 197.417 13.821C197.537 13.7276 197.624 13.621 197.677 13.501C197.744 13.3676 197.777 13.2276 197.777 13.081C197.777 12.7876 197.657 12.5543 197.417 12.381C197.284 12.3143 197.077 12.2343 196.797 12.141C196.517 12.0343 196.157 11.921 195.717 11.801C195.037 11.6276 194.457 11.4276 193.977 11.201C193.511 10.961 193.137 10.6943 192.857 10.401C192.617 10.121 192.431 9.82098 192.297 9.50098C192.177 9.16764 192.117 8.80098 192.117 8.40098C192.117 7.92098 192.224 7.48764 192.437 7.10098C192.651 6.70098 192.944 6.36098 193.317 6.08098C193.704 5.80098 194.144 5.58764 194.637 5.44098C195.131 5.28098 195.651 5.20098 196.197 5.20098C196.744 5.20098 197.277 5.26764 197.797 5.40098C198.317 5.53431 198.797 5.72764 199.237 5.98098C199.691 6.22098 200.084 6.50764 200.417 6.84098L198.897 8.52098C198.657 8.29431 198.384 8.08764 198.077 7.90098C197.784 7.71431 197.477 7.56764 197.157 7.46098C196.837 7.35431 196.551 7.30098 196.297 7.30098C196.071 7.30098 195.864 7.32098 195.677 7.36098C195.504 7.40098 195.357 7.46098 195.237 7.54098C195.117 7.62098 195.024 7.72764 194.957 7.86098C194.904 7.98098 194.877 8.11431 194.877 8.26098C194.877 8.40764 194.911 8.54764 194.977 8.68098C195.057 8.81431 195.164 8.92764 195.297 9.02098C195.444 9.10098 195.657 9.19431 195.937 9.30098C196.231 9.40764 196.624 9.52764 197.117 9.66098C197.757 9.83431 198.297 10.0276 198.737 10.241C199.191 10.4543 199.551 10.701 199.817 10.981C200.044 11.221 200.211 11.4943 200.317 11.801C200.424 12.1076 200.477 12.4476 200.477 12.821C200.477 13.4743 200.291 14.061 199.917 14.581C199.557 15.0876 199.057 15.4876 198.417 15.781C197.777 16.061 197.057 16.201 196.257 16.201Z" fill="#26435F"/>
</svg>
