<svg xmlns="http://www.w3.org/2000/svg" width="38" height="39" viewBox="0 0 38 39" fill="none">
  <g clip-path="url(#clip0_9870_39921)">
    <path d="M6.1872 0.750977V28.1548C6.1872 28.9553 5.54537 29.5971 4.74489 29.5971C3.94441 29.5971 3.30258 28.9553 3.30258 28.1548V10.8471H4.74489V7.96251H0.417969V28.1548C0.417969 30.5274 2.37229 32.4817 4.74489 32.4817H19.168C18.8795 31.6164 18.7165 30.6067 18.7165 29.5971H8.80354C8.96797 29.1414 9.07325 28.664 9.07325 28.1548V3.63559H32.1502V19.501C33.1598 19.7894 34.1694 20.2221 35.0348 20.9433V0.750977H6.1872ZM11.9564 6.52021V12.2894H29.2641V6.52021H11.9564ZM11.9564 15.1741V18.0587H19.168V15.1741H11.9564ZM22.0526 15.1741V18.0587H29.2641V15.1741H22.0526ZM11.9564 19.501V22.3856H19.168V19.501H11.9564ZM29.2641 20.9433C24.4699 20.9433 20.6103 24.8029 20.6103 29.5971C20.6103 34.3914 24.4699 38.251 29.2641 38.251V35.3664C25.9814 35.3664 23.4949 32.8798 23.4949 29.5971C23.4949 26.3144 25.9814 23.8279 29.2641 23.8279C32.5468 23.8279 35.0333 26.3144 35.0333 29.5971C35.0333 30.8491 34.6771 32.0058 34.041 32.9332L32.1487 31.0394L31.4276 37.5298L37.918 36.8087L36.1151 35.0058C37.3136 33.5 37.918 31.5832 37.918 29.5971C37.918 24.8029 34.0583 20.9433 29.2641 20.9433ZM11.9564 23.8279V26.7125H19.168V23.8279H11.9564Z" fill="#24A3D9"/>
  </g>
  <defs>
    <clipPath id="clip0_9870_39921">
      <rect width="37.5" height="37.5" fill="white" transform="translate(0.417969 0.750977)"/>
    </clipPath>
  </defs>
</svg>