<svg xmlns="http://www.w3.org/2000/svg" width="25" height="26" viewBox="0 0 25 26" fill="none">
  <path fill-rule="evenodd" clip-rule="evenodd" d="M12.4865 0.00195312C5.58652 0.00195312 -0.000976562 5.60195 -0.000976562 12.502C-0.000976562 19.402 5.58652 25.002 12.4865 25.002C19.399 25.002 24.999 19.402 24.999 12.502C24.999 5.60195 19.399 0.00195312 12.4865 0.00195312ZM12.499 22.502C6.97402 22.502 2.49902 18.027 2.49902 12.502C2.49902 6.97697 6.97402 2.50197 12.499 2.50197C18.024 2.50197 22.499 6.97697 22.499 12.502C22.499 18.027 18.024 22.502 12.499 22.502ZM12.224 6.25197H12.149C11.649 6.25197 11.249 6.65197 11.249 7.15197V13.052C11.249 13.4895 11.474 13.902 11.8615 14.127L17.049 17.2395C17.474 17.4895 18.024 17.3645 18.274 16.9395C18.5365 16.5145 18.399 15.952 17.9615 15.702L13.124 12.827V7.15197C13.124 6.65197 12.724 6.25197 12.224 6.25197Z" fill="#7C98B6"/>
</svg>