<svg xmlns="http://www.w3.org/2000/svg" width="39" height="39" viewBox="0 0 39 39" fill="none">
  <g clip-path="url(#clip0_9870_39913)">
    <path d="M19.045 0.751953C9.02885 0.751953 0.917969 8.88099 0.917969 18.8971C0.917969 28.9132 9.02885 37.0423 19.045 37.0423C29.0792 37.0423 37.2083 28.9132 37.2083 18.8971C37.2083 8.88099 29.0792 0.751953 19.045 0.751953ZM19.0631 33.4132C11.043 33.4132 4.547 26.9173 4.547 18.8971C4.547 10.877 11.043 4.38099 19.0631 4.38099C27.0833 4.38099 33.5792 10.877 33.5792 18.8971C33.5792 26.9173 27.0833 33.4132 19.0631 33.4132Z" fill="#24A3D9"/>
    <path d="M19.6749 10.5859H16.9531V21.473L26.4793 27.1888L27.8402 24.9569L19.6749 20.1121V10.5859Z" fill="#24A3D9"/>
  </g>
  <defs>
    <clipPath id="clip0_9870_39913">
      <rect width="37.5" height="37.5" fill="white" transform="translate(0.917969 0.750977)"/>
    </clipPath>
  </defs>
</svg>