<svg width="13" height="18" viewBox="0 0 13 18" fill="none" xmlns="http://www.w3.org/2000/svg">
<path d="M12.839 16.5015L12.839 1.49916C12.8386 1.34727 12.7967 1.19838 12.7179 1.06853C12.6391 0.938675 12.5263 0.832771 12.3918 0.762215C12.2573 0.69166 12.1061 0.659124 11.9545 0.668112C11.8029 0.677097 11.6566 0.727268 11.5313 0.813219L0.696303 8.31439C0.247066 8.62527 0.247066 9.37372 0.696303 9.68544L11.5313 17.1866C11.6563 17.2734 11.8027 17.3244 11.9546 17.3338C12.1064 17.3433 12.258 17.311 12.3928 17.2404C12.5276 17.1697 12.6405 17.0635 12.7191 16.9333C12.7978 16.803 12.8393 16.6537 12.839 16.5015Z" fill="#667085"/>
</svg>
