<svg width="21" height="30" viewBox="0 0 21 30" fill="none" xmlns="http://www.w3.org/2000/svg">
<path d="M10.5 6.75C11.4946 6.75 12.4484 7.14509 13.1516 7.84835C13.8549 8.55161 14.25 9.50544 14.25 10.5C14.25 10.9925 14.153 11.4801 13.9645 11.9351C13.7761 12.39 13.4999 12.8034 13.1516 13.1517C12.8034 13.4999 12.39 13.7761 11.9351 13.9645C11.4801 14.153 10.9925 14.25 10.5 14.25C9.50544 14.25 8.55161 13.8549 7.84835 13.1517C7.14509 12.4484 6.75 11.4946 6.75 10.5C6.75 9.50544 7.14509 8.55161 7.84835 7.84835C8.55161 7.14509 9.50544 6.75 10.5 6.75ZM10.5 0C13.2848 0 15.9555 1.10625 17.9246 3.07538C19.8938 5.04451 21 7.71523 21 10.5C21 18.375 10.5 30 10.5 30C10.5 30 0 18.375 0 10.5C0 7.71523 1.10625 5.04451 3.07538 3.07538C5.04451 1.10625 7.71523 0 10.5 0ZM10.5 3C8.51088 3 6.60322 3.79018 5.1967 5.1967C3.79018 6.60322 3 8.51088 3 10.5C3 12 3 15 10.5 25.065C18 15 18 12 18 10.5C18 8.51088 17.2098 6.60322 15.8033 5.1967C14.3968 3.79018 12.4891 3 10.5 3Z" fill="#24A3D9"/>
</svg>
