<svg width="14" height="18" viewBox="0 0 14 18" fill="none" xmlns="http://www.w3.org/2000/svg">
<path d="M0.836748 1.5024L0.836748 16.5047C0.837224 16.6566 0.879116 16.8055 0.957915 16.9354C1.03671 17.0652 1.14943 17.1711 1.28395 17.2417C1.41846 17.3122 1.56966 17.3448 1.72129 17.3358C1.87291 17.3268 2.01922 17.2766 2.14445 17.1907L12.9795 9.68951C13.4287 9.37863 13.4287 8.63018 12.9795 8.31847L2.14445 0.817292C2.01948 0.730466 1.8731 0.679549 1.72122 0.670073C1.56934 0.660597 1.41777 0.692926 1.28298 0.763545C1.14818 0.834164 1.03532 0.940374 0.956647 1.07063C0.877975 1.2009 0.836508 1.35023 0.836748 1.5024Z" fill="#667085"/>
</svg>
