<svg width="11" height="15" viewBox="0 0 11 15" fill="none" xmlns="http://www.w3.org/2000/svg">
<path d="M1.09375 3.22139V10.2378C1.09364 10.932 1.3576 11.6003 1.83207 12.1071C2.30655 12.6138 2.95602 12.9212 3.64875 12.9667L3.82812 12.9722H8.65593C8.54286 13.292 8.33342 13.5689 8.05645 13.7648C7.77948 13.9607 7.4486 14.0659 7.10937 14.0659H3.28125C2.41101 14.0659 1.57641 13.7202 0.961056 13.1049C0.345702 12.4895 2.25571e-07 11.6549 2.25571e-07 10.7847V4.76904C-0.000177712 4.42962 0.104921 4.0985 0.300812 3.82132C0.496703 3.54413 0.773742 3.33453 1.09375 3.22139ZM9.29687 0.940918C9.73199 0.940918 10.1493 1.11377 10.457 1.42145C10.7646 1.72912 10.9375 2.14642 10.9375 2.58154V10.2378C10.9375 10.6729 10.7646 11.0902 10.457 11.3979C10.1493 11.7056 9.73199 11.8784 9.29687 11.8784H3.82812C3.393 11.8784 2.9757 11.7056 2.66803 11.3979C2.36035 11.0902 2.1875 10.6729 2.1875 10.2378V2.58154C2.1875 2.14642 2.36035 1.72912 2.66803 1.42145C2.9757 1.11377 3.393 0.940918 3.82812 0.940918H9.29687Z" fill="white"/>
</svg>
