<svg width="15" height="17" viewBox="0 0 15 17" fill="none" xmlns="http://www.w3.org/2000/svg">
<path d="M11.0491 5.625V15H3.01339V5.625H11.0491ZM9.54241 0H4.52009L3.51562 0.9375H0V2.8125H14.0625V0.9375H10.5469L9.54241 0ZM13.058 3.75H1.00446V15C1.00446 16.0312 1.90848 16.875 3.01339 16.875H11.0491C12.154 16.875 13.058 16.0312 13.058 15V3.75Z" fill="#FF7979"/>
<path d="M11.0491 5.625V15H3.01339V5.625H11.0491ZM9.54241 0H4.52009L3.51562 0.9375H0V2.8125H14.0625V0.9375H10.5469L9.54241 0ZM13.058 3.75H1.00446V15C1.00446 16.0312 1.90848 16.875 3.01339 16.875H11.0491C12.154 16.875 13.058 16.0312 13.058 15V3.75Z" fill="#FF7979"/>
</svg>
