<svg width="20" height="19" viewBox="0 0 20 19" fill="none" xmlns="http://www.w3.org/2000/svg">
<path d="M19.6341 9.4858C19.6341 14.7242 15.3875 18.9711 10.1491 18.9711C4.91063 18.9711 0.664062 14.7249 0.664062 9.4858C0.664062 4.24705 4.91031 0.000488281 10.1491 0.000488281C15.3875 0.000488281 19.6341 4.24736 19.6341 9.4858ZM10.1491 2.1208C6.08125 2.1208 2.78375 5.4183 2.78375 9.48611C2.78375 13.5536 6.08094 16.8517 10.1491 16.8517C14.2169 16.8517 17.5144 13.5536 17.5144 9.48611C17.5147 5.41861 14.2169 2.1208 10.1491 2.1208ZM8.2075 7.28174C8.2075 5.78549 9.16719 5.26018 10.1262 5.26018C10.6972 5.26018 11.1859 5.31299 11.5766 5.79674C12.4903 6.92768 11.4706 8.02518 10.3088 8.60611C9.48656 9.01736 9.09812 9.71424 9.09812 10.6846V12.8552H11.2678V11.5758C11.2678 9.62268 12.5241 10.1136 13.4378 8.89205C14.6734 7.23955 14.4062 5.37674 12.7294 4.04955C10.8113 2.53049 8.64062 3.28424 8.03563 3.69549C7.53281 4.03705 5.75156 5.3058 6.09406 8.03518L8.2025 8.03955C8.2025 8.03955 8.20688 7.78424 8.20688 7.28174H8.2075ZM11.2684 15.8245V13.5977H9.09875V15.8245H11.2684Z" fill="#26435F"/>
</svg>
