<svg width="16" height="10" viewBox="0 0 16 10" fill="none" xmlns="http://www.w3.org/2000/svg">
<path fill-rule="evenodd" clip-rule="evenodd" d="M8.56137 8.74497C8.3465 8.95978 8.0551 9.08045 7.75127 9.08045C7.44744 9.08045 7.15604 8.95978 6.94117 8.74497L0.459185 2.26299C0.349746 2.15729 0.262454 2.03085 0.202402 1.89105C0.14235 1.75126 0.11074 1.6009 0.109418 1.44876C0.108096 1.29662 0.137088 1.14573 0.194702 1.00491C0.252315 0.864096 0.337397 0.736161 0.444982 0.628575C0.552568 0.52099 0.680502 0.435908 0.821321 0.378295C0.962139 0.320681 1.11302 0.29169 1.26517 0.293012C1.41731 0.294334 1.56766 0.325943 1.70746 0.385995C1.84726 0.446047 1.97369 0.533339 2.07939 0.642778L7.75127 6.31465L13.4231 0.642778C13.6393 0.434055 13.9287 0.318562 14.2291 0.321172C14.5296 0.323783 14.8169 0.444289 15.0294 0.656736C15.2418 0.869182 15.3624 1.15657 15.365 1.45701C15.3676 1.75744 15.2521 2.04688 15.0434 2.26299L8.56137 8.74497Z" fill="#667085"/>
</svg>
