<svg width="15" height="16" viewBox="0 0 15 16" fill="none" xmlns="http://www.w3.org/2000/svg">
<g id="mdi:account-outline">
<path id="Vector" d="M7.49951 0.498047C8.49408 0.498047 9.4479 0.893133 10.1512 1.59639C10.8544 2.29965 11.2495 3.25347 11.2495 4.24803C11.2495 5.24259 10.8544 6.19641 10.1512 6.89967C9.4479 7.60293 8.49408 7.99802 7.49951 7.99802C6.50495 7.99802 5.55112 7.60293 4.84786 6.89967C4.1446 6.19641 3.74951 5.24259 3.74951 4.24803C3.74951 3.25347 4.1446 2.29965 4.84786 1.59639C5.55112 0.893133 6.50495 0.498047 7.49951 0.498047ZM7.49951 2.37304C7.00223 2.37304 6.52532 2.57058 6.17369 2.92221C5.82206 3.27384 5.62451 3.75075 5.62451 4.24803C5.62451 4.74531 5.82206 5.22222 6.17369 5.57385C6.52532 5.92548 7.00223 6.12302 7.49951 6.12302C7.9968 6.12302 8.47371 5.92548 8.82534 5.57385C9.17697 5.22222 9.37452 4.74531 9.37452 4.24803C9.37452 3.75075 9.17697 3.27384 8.82534 2.92221C8.47371 2.57058 7.9968 2.37304 7.49951 2.37304ZM7.49951 8.93551C10.0026 8.93551 14.9995 10.1824 14.9995 12.6855V15.498H-0.000488281V12.6855C-0.000488281 10.1824 4.99639 8.93551 7.49951 8.93551ZM7.49951 10.7168C4.71514 10.7168 1.78076 12.0855 1.78076 12.6855V13.7167H13.2183V12.6855C13.2183 12.0855 10.2839 10.7168 7.49951 10.7168Z" fill="#26435F"/>
</g>
</svg>
