<svg width="16" height="16" viewBox="0 0 16 16" fill="none" xmlns="http://www.w3.org/2000/svg">
<g id="mdi:account-outline">
<path id="Vector" d="M7.75098 0.498047C8.74554 0.498047 9.69936 0.893135 10.4026 1.5964C11.1059 2.29966 11.501 3.25349 11.501 4.24805C11.501 5.24261 11.1059 6.19644 10.4026 6.8997C9.69936 7.60296 8.74554 7.99805 7.75098 7.99805C6.75641 7.99805 5.80259 7.60296 5.09933 6.8997C4.39606 6.19644 4.00098 5.24261 4.00098 4.24805C4.00098 3.25349 4.39606 2.29966 5.09933 1.5964C5.80259 0.893135 6.75641 0.498047 7.75098 0.498047ZM7.75098 2.37305C7.25369 2.37305 6.77678 2.57059 6.42515 2.92222C6.07352 3.27385 5.87598 3.75077 5.87598 4.24805C5.87598 4.74533 6.07352 5.22224 6.42515 5.57387C6.77678 5.9255 7.25369 6.12305 7.75098 6.12305C8.24826 6.12305 8.72517 5.9255 9.0768 5.57387C9.42843 5.22224 9.62597 4.74533 9.62597 4.24805C9.62597 3.75077 9.42843 3.27385 9.0768 2.92222C8.72517 2.57059 8.24826 2.37305 7.75098 2.37305ZM7.75098 8.93555C10.2541 8.93555 15.251 10.1824 15.251 12.6855V15.498H0.250977V12.6855C0.250977 10.1824 5.24785 8.93555 7.75098 8.93555ZM7.75098 10.7168C4.9666 10.7168 2.03223 12.0855 2.03223 12.6855V13.7168H13.4697V12.6855C13.4697 12.0855 10.5353 10.7168 7.75098 10.7168Z" fill="white"/>
</g>
</svg>
