<svg width="61" height="21" viewBox="0 0 61 21" fill="none" xmlns="http://www.w3.org/2000/svg">
<path d="M9.34809 16.1699V4.96992H12.0681V16.1699H9.34809ZM2.40409 16.1699V4.96992H5.12409V16.1699H2.40409ZM3.46009 11.8019L3.47609 9.36992H10.7881V11.8019H3.46009ZM18.6488 16.3299C17.7102 16.3299 16.8942 16.1433 16.2008 15.7699C15.5075 15.3859 14.9688 14.8686 14.5848 14.2179C14.2008 13.5566 14.0088 12.8046 14.0088 11.9619C14.0088 11.3113 14.1155 10.7139 14.3288 10.1699C14.5422 9.62592 14.8408 9.15659 15.2248 8.76192C15.6088 8.35659 16.0622 8.04725 16.5848 7.83392C17.1182 7.60992 17.6995 7.49792 18.3288 7.49792C18.9262 7.49792 19.4702 7.60459 19.9608 7.81792C20.4622 8.03125 20.8942 8.32992 21.2568 8.71392C21.6195 9.09792 21.8968 9.55126 22.0888 10.0739C22.2808 10.5966 22.3662 11.1673 22.3448 11.7859L22.3288 12.4739H15.5608L15.1928 11.0339H20.2488L19.9768 11.3379V11.0179C19.9555 10.7513 19.8702 10.5166 19.7208 10.3139C19.5822 10.1006 19.3955 9.93526 19.1608 9.81792C18.9262 9.70059 18.6595 9.64192 18.3608 9.64192C17.9448 9.64192 17.5875 9.72725 17.2888 9.89792C17.0008 10.0579 16.7822 10.2979 16.6328 10.6179C16.4835 10.9273 16.4088 11.3113 16.4088 11.7699C16.4088 12.2393 16.5048 12.6499 16.6968 13.0019C16.8995 13.3433 17.1875 13.6099 17.5608 13.8019C17.9448 13.9939 18.3982 14.0899 18.9208 14.0899C19.2835 14.0899 19.6035 14.0366 19.8808 13.9299C20.1688 13.8233 20.4782 13.6419 20.8088 13.3859L22.0088 15.0819C21.6782 15.3699 21.3262 15.6046 20.9528 15.7859C20.5795 15.9673 20.1955 16.1006 19.8008 16.1859C19.4168 16.2819 19.0328 16.3299 18.6488 16.3299ZM23.9918 16.1699V4.32992H26.5518V16.1699H23.9918ZM28.8352 19.6899V7.67392H31.2672L31.3632 9.57792L30.8832 9.43392C30.9579 9.08192 31.1392 8.76192 31.4272 8.47392C31.7152 8.18592 32.0779 7.95659 32.5152 7.78592C32.9632 7.60459 33.4326 7.51392 33.9232 7.51392C34.6486 7.51392 35.2939 7.70592 35.8592 8.08992C36.4246 8.46325 36.8672 8.98059 37.1872 9.64192C37.5179 10.2926 37.6832 11.0499 37.6832 11.9139C37.6832 12.7673 37.5179 13.5246 37.1872 14.1859C36.8672 14.8473 36.4192 15.3699 35.8432 15.7539C35.2779 16.1273 34.6272 16.3139 33.8912 16.3139C33.4112 16.3139 32.9526 16.2233 32.5152 16.0419C32.0779 15.8606 31.7099 15.6153 31.4112 15.3059C31.1126 14.9966 30.9152 14.6606 30.8192 14.2979L31.4112 14.0739V19.6899H28.8352ZM33.2672 14.1539C33.6512 14.1539 33.9872 14.0633 34.2752 13.8819C34.5632 13.6899 34.7872 13.4286 34.9472 13.0979C35.1072 12.7673 35.1872 12.3726 35.1872 11.9139C35.1872 11.4659 35.1072 11.0766 34.9472 10.7459C34.7872 10.4046 34.5632 10.1433 34.2752 9.96192C33.9979 9.76992 33.6619 9.67392 33.2672 9.67392C32.8726 9.67392 32.5312 9.76459 32.2432 9.94592C31.9552 10.1273 31.7312 10.3886 31.5712 10.7299C31.4112 11.0713 31.3312 11.4659 31.3312 11.9139C31.3312 12.3726 31.4112 12.7673 31.5712 13.0979C31.7312 13.4286 31.9552 13.6899 32.2432 13.8819C32.5312 14.0633 32.8726 14.1539 33.2672 14.1539Z" fill="#24A3D9"/>
<path d="M60.9961 10.8367C60.9961 15.2548 57.4144 18.8367 52.9961 18.8367C48.5778 18.8367 44.9961 15.2553 44.9961 10.8367C44.9961 6.41826 48.5775 2.83667 52.9961 2.83667C57.4144 2.83667 60.9961 6.41852 60.9961 10.8367ZM52.9961 4.62496C49.5652 4.62496 46.7839 7.4061 46.7839 10.8369C46.7839 14.2675 49.5649 17.0492 52.9961 17.0492C56.427 17.0492 59.2083 14.2675 59.2083 10.8369C59.2085 7.40637 56.427 4.62496 52.9961 4.62496ZM51.3585 8.97774C51.3585 7.71579 52.1679 7.27274 52.9769 7.27274C53.4584 7.27274 53.8706 7.31728 54.2001 7.72528C54.9708 8.67912 54.1107 9.60477 53.1308 10.0947C52.4373 10.4416 52.1097 11.0293 52.1097 11.8477V13.6784H53.9397V12.5994C53.9397 10.9521 54.9993 11.3662 55.7699 10.3359C56.8121 8.94216 56.5868 7.37105 55.1724 6.25169C53.5546 4.9705 51.7238 5.60622 51.2135 5.95307C50.7895 6.24114 49.2871 7.31122 49.576 9.6132L51.3543 9.61689C51.3543 9.61689 51.358 9.40156 51.358 8.97774H51.3585ZM53.9402 16.1828V14.3047H52.1102V16.1828H53.9402Z" fill="#24A3D9"/>
</svg>
