<svg width="81" height="21" viewBox="0 0 81 21" fill="none" xmlns="http://www.w3.org/2000/svg">
<path d="M1.78803 16.1699V4.96992H4.18803V14.0099H9.26003V16.1699H1.78803ZM14.7947 16.3299C13.9307 16.3299 13.1573 16.1433 12.4747 15.7699C11.8027 15.3859 11.2693 14.8633 10.8747 14.2019C10.4907 13.5406 10.2987 12.7833 10.2987 11.9299C10.2987 11.0766 10.4907 10.3246 10.8747 9.67392C11.2693 9.01259 11.8027 8.48992 12.4747 8.10592C13.1573 7.72192 13.9307 7.52992 14.7947 7.52992C15.648 7.52992 16.4107 7.72192 17.0827 8.10592C17.7653 8.48992 18.2987 9.01259 18.6827 9.67392C19.0667 10.3246 19.2587 11.0766 19.2587 11.9299C19.2587 12.7833 19.0667 13.5406 18.6827 14.2019C18.2987 14.8633 17.7653 15.3859 17.0827 15.7699C16.4107 16.1433 15.648 16.3299 14.7947 16.3299ZM14.7947 14.3459C15.2107 14.3459 15.584 14.2446 15.9147 14.0419C16.2453 13.8286 16.5013 13.5406 16.6827 13.1779C16.8747 12.8046 16.9707 12.3886 16.9707 11.9299C16.9707 11.4606 16.8747 11.0446 16.6827 10.6819C16.5013 10.3086 16.2453 10.0206 15.9147 9.81792C15.584 9.60459 15.2107 9.49792 14.7947 9.49792C14.368 9.49792 13.9893 9.60459 13.6587 9.81792C13.328 10.0313 13.0667 10.3193 12.8747 10.6819C12.6827 11.0446 12.592 11.4606 12.6027 11.9299C12.592 12.3886 12.6827 12.8046 12.8747 13.1779C13.0667 13.5406 13.328 13.8286 13.6587 14.0419C13.9893 14.2446 14.368 14.3459 14.7947 14.3459ZM24.824 19.8499C24.152 19.8499 23.4907 19.7486 22.84 19.5459C22.1894 19.3539 21.6614 19.1033 21.256 18.7939L22.056 17.1619C22.2694 17.3113 22.5147 17.4446 22.792 17.5619C23.0694 17.6793 23.3574 17.7699 23.656 17.8339C23.9654 17.8979 24.28 17.9299 24.6 17.9299C25.1547 17.9299 25.608 17.8446 25.96 17.6739C26.3227 17.5033 26.5947 17.2473 26.776 16.9059C26.9574 16.5753 27.048 16.1486 27.048 15.6259V14.1539L27.432 14.2339C27.368 14.5859 27.192 14.9113 26.904 15.2099C26.616 15.4979 26.2534 15.7326 25.816 15.9139C25.3787 16.0846 24.9307 16.1699 24.472 16.1699C23.6827 16.1699 22.984 15.9886 22.376 15.6259C21.768 15.2633 21.288 14.7619 20.936 14.1219C20.584 13.4819 20.408 12.7459 20.408 11.9139C20.408 11.0606 20.5787 10.3086 20.92 9.65792C21.272 8.99659 21.7467 8.47926 22.344 8.10592C22.952 7.72192 23.64 7.52992 24.408 7.52992C24.728 7.52992 25.032 7.56725 25.32 7.64192C25.6187 7.71659 25.8907 7.82325 26.136 7.96192C26.392 8.08992 26.616 8.23925 26.808 8.40992C27.0107 8.56992 27.176 8.74592 27.304 8.93792C27.432 9.12992 27.512 9.32192 27.544 9.51392L27.08 9.64192L27.144 7.70592H29.32V15.5299C29.32 16.2233 29.2187 16.8366 29.016 17.3699C28.8134 17.9033 28.5147 18.3513 28.12 18.7139C27.736 19.0873 27.2614 19.3699 26.696 19.5619C26.1414 19.7539 25.5174 19.8499 24.824 19.8499ZM24.888 14.3459C25.336 14.3459 25.7254 14.2446 26.056 14.0419C26.3974 13.8393 26.6587 13.5566 26.84 13.1939C27.0214 12.8313 27.112 12.4046 27.112 11.9139C27.112 11.4339 27.0214 11.0126 26.84 10.6499C26.6587 10.2766 26.3974 9.98859 26.056 9.78592C25.7254 9.58325 25.336 9.48192 24.888 9.48192C24.4507 9.48192 24.0614 9.58859 23.72 9.80192C23.3894 10.0046 23.1334 10.2873 22.952 10.6499C22.7707 11.0126 22.68 11.4339 22.68 11.9139C22.68 12.3939 22.7707 12.8206 22.952 13.1939C23.1334 13.5566 23.3894 13.8393 23.72 14.0419C24.0614 14.2446 24.4507 14.3459 24.888 14.3459ZM35.5134 16.3299C34.6494 16.3299 33.8761 16.1433 33.1934 15.7699C32.5214 15.3859 31.9881 14.8633 31.5934 14.2019C31.2094 13.5406 31.0174 12.7833 31.0174 11.9299C31.0174 11.0766 31.2094 10.3246 31.5934 9.67392C31.9881 9.01259 32.5214 8.48992 33.1934 8.10592C33.8761 7.72192 34.6494 7.52992 35.5134 7.52992C36.3667 7.52992 37.1294 7.72192 37.8014 8.10592C38.4841 8.48992 39.0174 9.01259 39.4014 9.67392C39.7854 10.3246 39.9774 11.0766 39.9774 11.9299C39.9774 12.7833 39.7854 13.5406 39.4014 14.2019C39.0174 14.8633 38.4841 15.3859 37.8014 15.7699C37.1294 16.1433 36.3667 16.3299 35.5134 16.3299ZM35.5134 14.3459C35.9294 14.3459 36.3027 14.2446 36.6334 14.0419C36.9641 13.8286 37.2201 13.5406 37.4014 13.1779C37.5934 12.8046 37.6894 12.3886 37.6894 11.9299C37.6894 11.4606 37.5934 11.0446 37.4014 10.6819C37.2201 10.3086 36.9641 10.0206 36.6334 9.81792C36.3027 9.60459 35.9294 9.49792 35.5134 9.49792C35.0867 9.49792 34.7081 9.60459 34.3774 9.81792C34.0467 10.0313 33.7854 10.3193 33.5934 10.6819C33.4014 11.0446 33.3107 11.4606 33.3214 11.9299C33.3107 12.3886 33.4014 12.8046 33.5934 13.1779C33.7854 13.5406 34.0467 13.8286 34.3774 14.0419C34.7081 14.2446 35.0867 14.3459 35.5134 14.3459ZM44.5988 16.3299C43.9801 16.3299 43.4468 16.1966 42.9988 15.9299C42.5614 15.6526 42.2201 15.2633 41.9748 14.7619C41.7401 14.2499 41.6228 13.6366 41.6228 12.9219V7.70592H43.8948V12.5539C43.8948 12.9379 43.9588 13.2739 44.0868 13.5619C44.2148 13.8393 44.3961 14.0526 44.6308 14.2019C44.8654 14.3513 45.1534 14.4259 45.4948 14.4259C45.7401 14.4259 45.9694 14.3886 46.1828 14.3139C46.3961 14.2286 46.5774 14.1113 46.7268 13.9619C46.8761 13.8126 46.9934 13.6366 47.0788 13.4339C47.1641 13.2313 47.2068 13.0126 47.2068 12.7779V7.70592H49.4788V16.1699H47.3188L47.2388 14.4259L47.6548 14.2339C47.5268 14.6286 47.3134 14.9859 47.0148 15.3059C46.7161 15.6259 46.3588 15.8766 45.9428 16.0579C45.5268 16.2393 45.0788 16.3299 44.5988 16.3299ZM52.5809 16.1699V5.56192H54.8529V16.1699H52.5809ZM50.9969 9.73792V7.70592H56.5809V9.73792H50.9969Z" fill="#24A3D9"/>
<path d="M75.5525 14.6367C75.3856 14.4441 75.3022 14.2257 75.3022 13.9816C75.3022 13.7374 75.3856 13.5336 75.5525 13.37L77.2367 11.7256H70.7047C70.4468 11.7256 70.2304 11.6402 70.0556 11.4696C69.8808 11.2989 69.7937 11.0879 69.7943 10.8367C69.7943 10.5848 69.8817 10.3736 70.0565 10.2029C70.2313 10.0322 70.4474 9.94719 70.7047 9.94778H77.2367L75.5525 8.30334C75.3704 8.12556 75.2794 7.9143 75.2794 7.66956C75.2794 7.42482 75.3704 7.21386 75.5525 7.03667C75.7194 6.85889 75.9282 6.77 76.1788 6.77C76.4295 6.77 76.638 6.85148 76.8043 7.01445L80.0817 10.2144C80.1727 10.3033 80.2373 10.3996 80.2756 10.5033C80.3138 10.607 80.3326 10.7182 80.332 10.8367C80.332 10.9552 80.3132 11.0663 80.2756 11.17C80.2379 11.2737 80.1733 11.37 80.0817 11.4589L76.8043 14.6589C76.607 14.8515 76.3907 14.9368 76.1552 14.9149C75.9197 14.893 75.7188 14.8002 75.5525 14.6367ZM66.1528 18.8367C65.6521 18.8367 65.2233 18.6624 64.8664 18.314C64.5096 17.9656 64.3314 17.5472 64.332 17.0589V4.61445C64.332 4.12556 64.5105 3.70689 64.8673 3.35845C65.2242 3.01 65.6527 2.83608 66.1528 2.83667H71.6151C71.873 2.83667 72.0894 2.922 72.2642 3.09267C72.439 3.26334 72.5261 3.4743 72.5255 3.72556C72.5255 3.97741 72.4381 4.18867 72.2633 4.35934C72.0885 4.53 71.8724 4.61504 71.6151 4.61445H66.1528V17.0589H71.6151C71.873 17.0589 72.0894 17.1442 72.2642 17.3149C72.439 17.4856 72.5261 17.6965 72.5255 17.9478C72.5255 18.1996 72.4381 18.4109 72.2633 18.5816C72.0885 18.7522 71.8724 18.8373 71.6151 18.8367H66.1528Z" fill="#24A3D9"/>
</svg>
