<svg width="77" height="21" viewBox="0 0 77 21" fill="none" xmlns="http://www.w3.org/2000/svg">
<path d="M2.07206 16.1699V4.96992H6.90406C7.60806 4.96992 8.23206 5.12992 8.77606 5.44992C9.33073 5.76992 9.76806 6.20725 10.0881 6.76192C10.4187 7.31659 10.5841 7.94059 10.5841 8.63392C10.5841 9.35925 10.4187 10.0099 10.0881 10.5859C9.76806 11.1513 9.33073 11.5993 8.77606 11.9299C8.23206 12.2606 7.60806 12.4259 6.90406 12.4259H4.79206V16.1699H2.07206ZM4.74406 10.0419H6.52006C6.75473 10.0419 6.96806 9.98325 7.16006 9.86592C7.35206 9.74859 7.50673 9.58859 7.62406 9.38592C7.7414 9.18325 7.80006 8.94859 7.80006 8.68192C7.80006 8.40459 7.7414 8.16992 7.62406 7.97792C7.50673 7.78592 7.35206 7.63659 7.16006 7.52992C6.96806 7.42325 6.75473 7.36992 6.52006 7.36992H4.74406V10.0419ZM12.3938 16.1699V7.67392H14.8258L14.9378 10.4419L14.4578 9.91392C14.5858 9.45525 14.7938 9.04459 15.0818 8.68192C15.3805 8.31925 15.7271 8.03125 16.1218 7.81792C16.5165 7.60459 16.9378 7.49792 17.3858 7.49792C17.5778 7.49792 17.7538 7.51392 17.9138 7.54592C18.0845 7.57792 18.2391 7.61526 18.3778 7.65792L17.6738 10.4899C17.5565 10.4153 17.3965 10.3566 17.1938 10.3139C17.0018 10.2606 16.7991 10.2339 16.5858 10.2339C16.3511 10.2339 16.1325 10.2766 15.9298 10.3619C15.7271 10.4366 15.5565 10.5486 15.4178 10.6979C15.2791 10.8473 15.1671 11.0233 15.0818 11.2259C15.0071 11.4286 14.9698 11.6579 14.9698 11.9139V16.1699H12.3938ZM19.8191 16.1699V7.67392H22.3791V16.1699H19.8191ZM21.0991 5.99392C20.6191 5.99392 20.2404 5.88192 19.9631 5.65792C19.6964 5.42325 19.5631 5.09259 19.5631 4.66592C19.5631 4.28192 19.7017 3.96725 19.9791 3.72192C20.2564 3.47659 20.6297 3.35392 21.0991 3.35392C21.5791 3.35392 21.9524 3.47125 22.2191 3.70592C22.4857 3.92992 22.6191 4.24992 22.6191 4.66592C22.6191 5.06059 22.4804 5.38059 22.2031 5.62592C21.9364 5.87125 21.5684 5.99392 21.0991 5.99392ZM28.5124 16.3299C27.6911 16.3299 26.9551 16.1379 26.3044 15.7539C25.6538 15.3699 25.1364 14.8473 24.7524 14.1859C24.3791 13.5139 24.1924 12.7566 24.1924 11.9139C24.1924 11.0713 24.3791 10.3193 24.7524 9.65792C25.1364 8.98592 25.6538 8.45792 26.3044 8.07392C26.9551 7.68992 27.6911 7.49792 28.5124 7.49792C29.2698 7.49792 29.9631 7.63125 30.5924 7.89792C31.2324 8.16459 31.7391 8.53792 32.1124 9.01792L30.7204 10.6819C30.5711 10.5113 30.3951 10.3513 30.1924 10.2019C29.9898 10.0526 29.7658 9.93525 29.5204 9.84992C29.2751 9.76459 29.0191 9.72192 28.7524 9.72192C28.3471 9.72192 27.9898 9.81792 27.6804 10.0099C27.3711 10.1913 27.1311 10.4473 26.9604 10.7779C26.7898 11.1086 26.7044 11.4873 26.7044 11.9139C26.7044 12.3193 26.7898 12.6873 26.9604 13.0179C27.1418 13.3486 27.3871 13.6099 27.6964 13.8019C28.0058 13.9939 28.3578 14.0899 28.7524 14.0899C29.0298 14.0899 29.2858 14.0579 29.5204 13.9939C29.7551 13.9193 29.9684 13.8126 30.1604 13.6739C30.3631 13.5353 30.5498 13.3646 30.7204 13.1619L32.0964 14.8419C31.7338 15.3006 31.2271 15.6633 30.5764 15.9299C29.9364 16.1966 29.2484 16.3299 28.5124 16.3299ZM33.6472 16.1699V7.67392H36.2072V16.1699H33.6472ZM34.9272 5.99392C34.4472 5.99392 34.0685 5.88192 33.7912 5.65792C33.5245 5.42325 33.3912 5.09259 33.3912 4.66592C33.3912 4.28192 33.5299 3.96725 33.8072 3.72192C34.0845 3.47659 34.4579 3.35392 34.9272 3.35392C35.4072 3.35392 35.7805 3.47125 36.0472 3.70592C36.3139 3.92992 36.4472 4.24992 36.4472 4.66592C36.4472 5.06059 36.3085 5.38059 36.0312 5.62592C35.7645 5.87125 35.3965 5.99392 34.9272 5.99392ZM38.6126 16.1699V7.67392H41.0446L41.1246 9.40192L40.6126 9.59392C40.7299 9.20992 40.9379 8.86325 41.2366 8.55392C41.5459 8.23392 41.9139 7.97792 42.3406 7.78592C42.7672 7.59392 43.2152 7.49792 43.6846 7.49792C44.3246 7.49792 44.8632 7.63125 45.3006 7.89792C45.7379 8.15392 46.0686 8.54325 46.2926 9.06592C46.5166 9.57792 46.6286 10.2073 46.6286 10.9539V16.1699H44.0526V11.1619C44.0526 10.8206 44.0046 10.5379 43.9086 10.3139C43.8126 10.0899 43.6632 9.92459 43.4606 9.81792C43.2686 9.70059 43.0286 9.64725 42.7406 9.65792C42.5166 9.65792 42.3086 9.69526 42.1166 9.76992C41.9246 9.83392 41.7592 9.93525 41.6206 10.0739C41.4819 10.2019 41.3699 10.3513 41.2846 10.5219C41.2099 10.6926 41.1726 10.8793 41.1726 11.0819V16.1699H39.9086C39.6099 16.1699 39.3539 16.1699 39.1406 16.1699C38.9272 16.1699 38.7512 16.1699 38.6126 16.1699ZM52.6568 19.8499C51.9635 19.8499 51.2701 19.7486 50.5768 19.5459C49.8941 19.3433 49.3395 19.0819 48.9128 18.7619L49.8088 16.9699C50.0328 17.1193 50.2781 17.2473 50.5448 17.3539C50.8221 17.4713 51.1101 17.5619 51.4088 17.6259C51.7075 17.6899 52.0115 17.7219 52.3208 17.7219C52.8648 17.7219 53.3075 17.6419 53.6488 17.4819C53.9901 17.3219 54.2461 17.0766 54.4168 16.7459C54.5875 16.4259 54.6728 16.0206 54.6728 15.5299V14.1059L55.1688 14.1859C55.0941 14.5379 54.9075 14.8579 54.6088 15.1459C54.3208 15.4339 53.9635 15.6686 53.5368 15.8499C53.1101 16.0206 52.6568 16.1059 52.1768 16.1059C51.4088 16.1059 50.7208 15.9299 50.1128 15.5779C49.5155 15.2153 49.0408 14.7193 48.6888 14.0899C48.3475 13.4499 48.1768 12.7139 48.1768 11.8819C48.1768 11.0286 48.3475 10.2766 48.6888 9.62592C49.0301 8.96459 49.4995 8.44725 50.0968 8.07392C50.6941 7.68992 51.3661 7.49792 52.1128 7.49792C52.4328 7.49792 52.7368 7.53525 53.0248 7.60992C53.3235 7.68459 53.5955 7.78592 53.8408 7.91392C54.0968 8.03126 54.3208 8.17526 54.5128 8.34592C54.7155 8.50592 54.8755 8.68192 54.9928 8.87392C55.1208 9.06592 55.2061 9.26325 55.2488 9.46592L54.7208 9.59392L54.8168 7.67392H57.2488V15.4819C57.2488 16.1753 57.1421 16.7886 56.9288 17.3219C56.7261 17.8659 56.4221 18.3246 56.0168 18.6979C55.6221 19.0819 55.1421 19.3699 54.5768 19.5619C54.0115 19.7539 53.3715 19.8499 52.6568 19.8499ZM52.7208 14.1219C53.1368 14.1219 53.4941 14.0313 53.7928 13.8499C54.1021 13.6579 54.3368 13.3966 54.4968 13.0659C54.6675 12.7353 54.7528 12.3459 54.7528 11.8979C54.7528 11.4499 54.6675 11.0606 54.4968 10.7299C54.3368 10.3886 54.1021 10.1273 53.7928 9.94592C53.4941 9.75392 53.1368 9.65792 52.7208 9.65792C52.3155 9.65792 51.9635 9.75392 51.6648 9.94592C51.3661 10.1273 51.1315 10.3886 50.9608 10.7299C50.8008 11.0606 50.7208 11.4499 50.7208 11.8979C50.7208 12.3459 50.8008 12.7353 50.9608 13.0659C51.1315 13.3966 51.3661 13.6579 51.6648 13.8499C51.9635 14.0313 52.3155 14.1219 52.7208 14.1219ZM70.5945 17.6245V3.07901H71.5263V17.6245H70.5945ZM73.0661 7.88015C73.0206 7.42182 72.8255 7.06575 72.4808 6.81197C72.1361 6.55818 71.6683 6.43128 71.0774 6.43128C70.6759 6.43128 70.3369 6.4881 70.0604 6.60174C69.7839 6.71159 69.5717 6.865 69.424 7.06197C69.2801 7.25894 69.2081 7.48242 69.2081 7.73242C69.2005 7.94076 69.2441 8.12257 69.3388 8.27788C69.4373 8.43318 69.5717 8.56765 69.7422 8.68129C69.9126 8.79113 70.1096 8.88772 70.3331 8.97106C70.5566 9.0506 70.7952 9.11879 71.049 9.1756L72.0945 9.4256C72.602 9.53924 73.0679 9.69075 73.4922 9.88015C73.9164 10.0695 74.2839 10.3025 74.5945 10.579C74.9051 10.8555 75.1456 11.1813 75.3161 11.5563C75.4903 11.9313 75.5793 12.3612 75.5831 12.8461C75.5793 13.5582 75.3975 14.1756 75.0376 14.6983C74.6816 15.2173 74.1664 15.6207 73.4922 15.9086C72.8217 16.1926 72.013 16.3347 71.0661 16.3347C70.1267 16.3347 69.3085 16.1908 68.6115 15.9029C67.9183 15.615 67.3767 15.1889 66.9865 14.6245C66.6001 14.0563 66.3975 13.3536 66.3786 12.5165H68.7592C68.7857 12.9067 68.8975 13.2324 69.0945 13.4938C69.2952 13.7514 69.5623 13.9464 69.8956 14.079C70.2327 14.2078 70.6134 14.2722 71.0376 14.2722C71.4543 14.2722 71.8161 14.2116 72.1229 14.0904C72.4335 13.9692 72.674 13.8006 72.8445 13.5847C73.0149 13.3688 73.1001 13.1207 73.1001 12.8404C73.1001 12.579 73.0225 12.3593 72.8672 12.1813C72.7157 12.0033 72.4922 11.8517 72.1967 11.7267C71.9051 11.6017 71.5471 11.4881 71.1229 11.3858L69.8558 11.0676C68.8748 10.829 68.1001 10.4559 67.532 9.94833C66.9638 9.44075 66.6816 8.75704 66.6854 7.89719C66.6816 7.19265 66.8691 6.57712 67.2479 6.0506C67.6304 5.52409 68.1551 5.1131 68.8217 4.81765C69.4884 4.52219 70.246 4.37447 71.0945 4.37447C71.9581 4.37447 72.7119 4.52219 73.3558 4.81765C74.0036 5.1131 74.5073 5.52409 74.8672 6.0506C75.227 6.57712 75.4126 7.18697 75.424 7.88015H73.0661Z" fill="#24A3D9"/>
</svg>
