<svg width="22" height="22" viewBox="0 0 22 22" fill="none" xmlns="http://www.w3.org/2000/svg">
<g id="solar:calendar-date-outline">
<path id="Vector" fill-rule="evenodd" clip-rule="evenodd" d="M6.27786 2.22119C6.44233 2.22119 6.60007 2.28653 6.71636 2.40283C6.83266 2.51913 6.898 2.67686 6.898 2.84133V3.47222C7.44538 3.46148 8.04816 3.46148 8.71212 3.46148H12.1122C12.7761 3.46148 13.3789 3.46148 13.9263 3.47222V2.84133C13.9263 2.67686 13.9916 2.51913 14.1079 2.40283C14.2242 2.28653 14.3819 2.22119 14.5464 2.22119C14.7109 2.22119 14.8686 2.28653 14.9849 2.40283C15.1012 2.51913 15.1666 2.67686 15.1666 2.84133V3.52514C15.3815 3.54168 15.5849 3.56235 15.7776 3.58798C16.7467 3.71863 17.5314 3.99314 18.1507 4.61163C18.7692 5.23095 19.0437 6.01563 19.1743 6.98471C19.2157 7.29478 19.2438 7.63296 19.2628 8.00174C19.308 8.12371 19.3134 8.25682 19.2785 8.38209C19.3008 9.0444 19.3008 9.79767 19.3008 10.6502V12.3965C19.3008 13.9162 19.3008 15.1201 19.1743 16.0619C19.0437 17.031 18.7692 17.8157 18.1507 18.435C17.5314 19.0535 16.7467 19.328 15.7776 19.4587C14.835 19.5852 13.6319 19.5852 12.1122 19.5852H8.71212C7.19236 19.5852 5.98846 19.5852 5.04667 19.4587C4.07759 19.328 3.29291 19.0535 2.67359 18.435C2.05511 17.8157 1.78059 17.031 1.64995 16.0619C1.52344 15.1193 1.52344 13.9162 1.52344 12.3965V10.6502C1.52344 9.79767 1.52344 9.0444 1.54576 8.38127C1.51126 8.25588 1.51704 8.12283 1.5623 8.00091C1.58049 7.63296 1.6086 7.29478 1.64995 6.98471C1.78059 6.01563 2.05511 5.23095 2.67359 4.61163C3.29291 3.99314 4.07759 3.71863 5.04667 3.58798C5.23933 3.56235 5.44356 3.54168 5.65772 3.52514V2.84133C5.65772 2.67686 5.72305 2.51913 5.83935 2.40283C5.95565 2.28653 6.11339 2.22119 6.27786 2.22119ZM2.77447 8.83604C2.76372 9.37597 2.76372 9.99033 2.76372 10.6965V12.3502C2.76372 13.927 2.76537 15.0474 2.87948 15.8974C2.99111 16.7284 3.20113 17.208 3.55089 17.5577C3.90065 17.9075 4.38022 18.1175 5.21204 18.2291C6.06205 18.3432 7.18161 18.3449 8.75843 18.3449H12.0658C13.6427 18.3449 14.7631 18.3432 15.6131 18.2291C16.444 18.1175 16.9236 17.9075 17.2734 17.5577C17.6231 17.208 17.8332 16.7284 17.9448 15.8966C18.0589 15.0474 18.0606 13.927 18.0606 12.3502V10.6965C18.0606 9.99033 18.0606 9.37597 18.0498 8.83604H2.77447ZM17.9928 7.59575H2.83152C2.84475 7.43865 2.86046 7.29064 2.87948 7.14925C2.99111 6.31826 3.20113 5.83869 3.55089 5.48893C3.90065 5.13917 4.38022 4.92914 5.21204 4.81752C6.06205 4.70341 7.18161 4.70176 8.75843 4.70176H12.0658C13.6427 4.70176 14.7631 4.70341 15.6131 4.81752C16.444 4.92914 16.9236 5.13917 17.2734 5.48893C17.6231 5.83869 17.8332 6.31826 17.9448 7.15008C17.9638 7.29064 17.9795 7.43948 17.9928 7.59575Z" fill="#667085"/>
<circle id="Ellipse 444" cx="10.4051" cy="11.9256" r="0.592593" fill="#667085"/>
</g>
</svg>
