<svg width="34" height="40" viewBox="0 0 34 40" fill="none" xmlns="http://www.w3.org/2000/svg">
<path d="M24.698 -0.00195312C24.7911 -0.00195312 24.8842 -0.00195312 24.9826 -0.00195312C25.2109 2.81893 24.1342 4.92669 22.8256 6.45306C21.5416 7.96889 19.7834 9.43905 16.9397 9.21598C16.75 6.4355 17.8285 4.48406 19.1353 2.96121C20.3473 1.54198 22.5692 0.279081 24.698 -0.00195312Z" fill="black"/>
<path d="M33.3059 29.36C33.3059 29.3881 33.3059 29.4127 33.3059 29.439C32.5067 31.8594 31.3667 33.9338 29.9756 35.8589C28.7057 37.6066 27.1494 39.9585 24.3707 39.9585C21.9696 39.9585 20.3748 38.4146 17.9139 38.3724C15.3109 38.3303 13.8793 39.6634 11.4993 39.9989C11.2271 39.9989 10.9548 39.9989 10.6878 39.9989C8.94016 39.746 7.52972 38.3619 6.50219 37.1148C3.47228 33.4297 1.13092 28.6697 0.695312 22.5783C0.695312 21.9811 0.695312 21.3856 0.695312 20.7884C0.879741 16.4289 2.99804 12.8843 5.81365 11.1665C7.29962 10.2532 9.34239 9.47504 11.617 9.82282C12.5919 9.97387 13.5878 10.3076 14.4607 10.6378C15.288 10.9557 16.3226 11.5196 17.3027 11.4897C17.9666 11.4704 18.6271 11.1244 19.2963 10.8802C21.2565 10.1724 23.1781 9.36087 25.7109 9.74202C28.7549 10.2022 30.9153 11.5547 32.2502 13.6414C29.6752 15.2802 27.6395 17.7497 27.9873 21.967C28.2964 25.7979 30.5236 28.0391 33.3059 29.36Z" fill="black"/>
</svg>
