<svg width="12" height="16" viewBox="0 0 12 16" fill="none" xmlns="http://www.w3.org/2000/svg">
<path d="M1.82493 9.25207C1.66127 9.25219 1.50127 9.30049 1.36488 9.39096C1.2285 9.48143 1.12177 9.61005 1.05802 9.76079C0.994262 9.91152 0.976304 10.0777 1.00638 10.2386C1.03646 10.3994 1.11324 10.5479 1.22715 10.6654L5.6716 15.2487C5.74927 15.3287 5.84219 15.3923 5.94487 15.4357C6.04755 15.4791 6.1579 15.5015 6.26938 15.5015C6.38085 15.5015 6.4912 15.4791 6.59388 15.4357C6.69656 15.3923 6.78948 15.3287 6.86715 15.2487L11.3116 10.6654C11.4255 10.5479 11.5023 10.3994 11.5324 10.2386C11.5624 10.0777 11.5445 9.91152 11.4807 9.76079C11.417 9.61005 11.3103 9.48143 11.1739 9.39096C11.0375 9.30049 10.8775 9.25219 10.7138 9.25207L7.10271 9.25207L7.10271 1.33541C7.10271 1.11439 7.01491 0.90243 6.85863 0.746149C6.70235 0.589869 6.49039 0.502072 6.26938 0.502072C6.04836 0.502072 5.8364 0.589869 5.68012 0.746149C5.52384 0.90243 5.43604 1.11439 5.43604 1.33541L5.43604 9.25207H1.82493Z" fill="white"/>
</svg>
