<svg width="19" height="19" viewBox="0 0 19 19" fill="none" xmlns="http://www.w3.org/2000/svg">
<rect x="0.683105" y="0.511719" width="17.3509" height="17.6041" rx="8.67545" fill="white"/>
<path d="M9.35845 11.8806C9.2633 11.8811 9.16899 11.8626 9.0809 11.8261C8.99282 11.7896 8.91271 11.7358 8.84515 11.6679L5.95334 8.73385C5.88593 8.66546 5.83246 8.58427 5.79598 8.49491C5.7595 8.40556 5.74072 8.30979 5.74072 8.21307C5.74072 8.11635 5.7595 8.02057 5.79598 7.93122C5.83246 7.84186 5.88593 7.76067 5.95334 7.69228C6.02074 7.62389 6.10077 7.56964 6.18884 7.53263C6.27691 7.49561 6.37131 7.47656 6.46663 7.47656C6.56196 7.47656 6.65636 7.49561 6.74443 7.53263C6.8325 7.56964 6.91252 7.62389 6.97993 7.69228L9.35845 10.1202L11.7442 7.78763C11.8107 7.7126 11.8918 7.6523 11.9823 7.61051C12.0728 7.56871 12.1708 7.54631 12.2703 7.54471C12.3697 7.54311 12.4684 7.56235 12.5602 7.60121C12.652 7.64008 12.7349 7.69775 12.8037 7.7706C12.8725 7.84346 12.9258 7.92994 12.9602 8.02463C12.9945 8.11932 13.0093 8.22019 13.0035 8.32092C12.9977 8.42166 12.9714 8.5201 12.9264 8.61008C12.8814 8.70006 12.8186 8.77965 12.7419 8.84388L9.85006 11.6752C9.71785 11.8045 9.54208 11.878 9.35845 11.8806Z" fill="#FFA28D"/>
</svg>
