<svg width="22" height="22" viewBox="0 0 22 22" fill="none" xmlns="http://www.w3.org/2000/svg">
<g id="Assignments 1" clip-path="url(#clip0_9896_39393)">
<g id="Group">
<path id="Vector" d="M19.7923 0.498047H2.20898C1.17507 0.498047 0.333984 1.33913 0.333984 2.37305V14.9564C0.333984 15.9903 1.17507 16.8314 2.20898 16.8314H7.83398V18.0814H14.1257V16.8314H19.7923C20.8262 16.8314 21.6673 15.9903 21.6673 14.9564V2.37305C21.6673 1.33913 20.8262 0.498047 19.7923 0.498047ZM7.6509 11.6066L5.1509 14.1066C4.90678 14.3507 4.51123 14.3507 4.26711 14.1066L3.01711 12.8566C2.77294 12.6125 2.77294 12.217 3.01711 11.9728C3.26123 11.7287 3.65678 11.7287 3.9009 11.9728L4.70898 12.7809L6.76711 10.7228C7.01123 10.4787 7.40678 10.4787 7.6509 10.7228C7.89503 10.9669 7.89503 11.3625 7.6509 11.6066ZM7.6509 7.85659L5.1509 10.3566C4.90678 10.6007 4.51123 10.6007 4.26711 10.3566L3.01711 9.10659C2.77294 8.86246 2.77294 8.46696 3.01711 8.22284C3.26123 7.97871 3.65678 7.97871 3.9009 8.22284L4.70898 9.03092L6.76711 6.9728C7.01123 6.72867 7.40678 6.72867 7.6509 6.9728C7.89503 7.21692 7.89503 7.61246 7.6509 7.85659ZM7.6509 4.10659L5.1509 6.60659C4.90678 6.85071 4.51123 6.85071 4.26711 6.60659L3.01711 5.35659C2.77294 5.11246 2.77294 4.71696 3.01711 4.47284C3.26123 4.22871 3.65678 4.22871 3.9009 4.47284L4.70898 5.28092L6.76711 3.2228C7.01123 2.97867 7.40678 2.97867 7.6509 3.2228C7.89503 3.46692 7.89503 3.86246 7.6509 4.10659ZM18.5423 13.0397H9.70898C9.36353 13.0397 9.08398 12.7602 9.08398 12.4147C9.08398 12.0693 9.36353 11.7897 9.70898 11.7897H18.5423C18.8878 11.7897 19.1673 12.0693 19.1673 12.4147C19.1673 12.7602 18.8878 13.0397 18.5423 13.0397ZM18.5423 9.28971H9.70898C9.36353 9.28971 9.08398 9.01017 9.08398 8.66471C9.08398 8.31926 9.36353 8.03971 9.70898 8.03971H18.5423C18.8878 8.03971 19.1673 8.31926 19.1673 8.66471C19.1673 9.01017 18.8878 9.28971 18.5423 9.28971ZM18.5423 5.53971H9.70898C9.36353 5.53971 9.08398 5.26017 9.08398 4.91471C9.08398 4.56926 9.36353 4.28971 9.70898 4.28971H18.5423C18.8878 4.28971 19.1673 4.56926 19.1673 4.91471C19.1673 5.26017 18.8878 5.53971 18.5423 5.53971ZM15.3757 19.3314H6.62565C5.24686 19.3314 4.12565 20.4526 4.12565 21.8314H17.8757C17.8757 20.4526 16.7544 19.3314 15.3757 19.3314Z" fill="white"/>
</g>
</g>
<defs>
<clipPath id="clip0_9896_39393">
<rect width="21.3333" height="21.3333" fill="white" transform="translate(0.333984 0.498047)"/>
</clipPath>
</defs>
</svg>
