<svg width="35" height="36" viewBox="0 0 35 36" fill="none" xmlns="http://www.w3.org/2000/svg">
<g id="Frame 299">
<g id="Group">
<path id="Vector" d="M9.66406 8.33154C9.66406 6.74024 10.1698 5.21412 11.07 4.0889C11.9701 2.96368 13.191 2.33154 14.4641 2.33154H21.6641C22.9371 2.33154 24.158 2.96368 25.0582 4.0889C25.9584 5.21412 26.4641 6.74024 26.4641 8.33154V10.3315H9.66406V8.33154ZM1.66406 19.3315L17.2761 24.2105C17.5305 24.2905 17.7977 24.2905 18.0521 24.2105L33.6641 19.3315V32.3315C33.6641 32.862 33.4955 33.3707 33.1954 33.7458C32.8954 34.1208 32.4884 34.3315 32.0641 34.3315H3.26406C2.83972 34.3315 2.43275 34.1208 2.13269 33.7458C1.83263 33.3707 1.66406 32.862 1.66406 32.3315V19.3315Z" stroke="#24A3D9" stroke-width="2.66667" stroke-linecap="round" stroke-linejoin="round"/>
<path id="Vector_2" d="M33.6641 21.3315V12.3315C33.6641 11.8011 33.4955 11.2924 33.1954 10.9173C32.8954 10.5423 32.4884 10.3315 32.0641 10.3315H3.26406C2.83972 10.3315 2.43275 10.5423 2.13269 10.9173C1.83263 11.2924 1.66406 11.8011 1.66406 12.3315V21.3315" stroke="#24A3D9" stroke-width="2.66667" stroke-linecap="round" stroke-linejoin="round"/>
<path id="Vector_3" d="M19.668 17.3315C19.668 17.9946 19.4573 18.6305 19.0822 19.0993C18.7071 19.5682 18.1984 19.8315 17.668 19.8315C17.1375 19.8315 16.6288 19.5682 16.2538 19.0993C15.8787 18.6305 15.668 17.9946 15.668 17.3315C15.668 16.6685 15.8787 16.0326 16.2538 15.5638C16.6288 15.0949 17.1375 14.8315 17.668 14.8315C18.1984 14.8315 18.7071 15.0949 19.0822 15.5638C19.4573 16.0326 19.668 16.6685 19.668 17.3315Z" fill="#24A3D9"/>
</g>
</g>
</svg>
