<svg width="40" height="35" viewBox="0 0 30 30" fill="none" xmlns="http://www.w3.org/2000/svg">
<path d="M16.8385 12.0883C16.8385 11.8452 16.742 11.612 16.5701 11.4401C16.3981 11.2682 16.165 11.1716 15.9219 11.1716H8.58854C8.34543 11.1716 8.11227 11.2682 7.94036 11.4401C7.76845 11.612 7.67188 11.8452 7.67188 12.0883C7.67188 12.3314 7.76845 12.5646 7.94036 12.7365C8.11227 12.9084 8.34543 13.005 8.58854 13.005H15.9219C16.165 13.005 16.3981 12.9084 16.5701 12.7365C16.742 12.5646 16.8385 12.3314 16.8385 12.0883ZM15.6163 15.755C15.6163 15.5118 15.5197 15.2787 15.3478 15.1068C15.1759 14.9349 14.9428 14.8383 14.6997 14.8383H8.58854C8.34543 14.8383 8.11227 14.9349 7.94036 15.1068C7.76845 15.2787 7.67188 15.5118 7.67188 15.755C7.67188 15.9981 7.76845 16.2312 7.94036 16.4031C8.11227 16.5751 8.34543 16.6716 8.58854 16.6716H14.6997C14.9428 16.6716 15.1759 16.5751 15.3478 16.4031C15.5197 16.2312 15.6163 15.9981 15.6163 15.755ZM15.9219 18.505C16.165 18.505 16.3981 18.6015 16.5701 18.7734C16.742 18.9454 16.8385 19.1785 16.8385 19.4216C16.8385 19.6647 16.742 19.8979 16.5701 20.0698C16.3981 20.2417 16.165 20.3383 15.9219 20.3383H8.58854C8.34543 20.3383 8.11227 20.2417 7.94036 20.0698C7.76845 19.8979 7.67188 19.6647 7.67188 19.4216C7.67188 19.1785 7.76845 18.9454 7.94036 18.7734C8.11227 18.6015 8.34543 18.505 8.58854 18.505H15.9219Z" fill="white"/>
<path fill-rule="evenodd" clip-rule="evenodd" d="M7.66927 26.756H23.5582C24.4496 26.756 25.3045 26.4018 25.9348 25.7715C26.5652 25.1412 26.9193 24.2863 26.9193 23.3948V16.6726C26.9193 16.4295 26.8227 16.1963 26.6508 16.0244C26.4789 15.8525 26.2457 15.756 26.0026 15.756H22.0304V6.21406C22.0304 4.47484 20.0638 3.46284 18.6485 4.47362L18.4346 4.6264C17.9662 4.95887 17.4059 5.13707 16.8315 5.1362C16.2571 5.13532 15.6973 4.95541 15.2299 4.62151C14.4497 4.06621 13.5158 3.76782 12.5582 3.76782C11.6005 3.76782 10.6666 4.06621 9.88638 4.62151C9.41903 4.95541 8.85921 5.13532 8.28483 5.1362C7.71045 5.13707 7.15009 4.95887 6.68172 4.6264L6.46783 4.47362C5.05249 3.46284 3.08594 4.47362 3.08594 6.21406V22.1726C3.08594 23.3882 3.56882 24.554 4.42836 25.4135C5.28791 26.2731 6.4537 26.756 7.66927 26.756ZM10.9522 6.11262C11.4214 5.7795 11.9827 5.60054 12.5582 5.60054C13.1336 5.60054 13.6949 5.7795 14.1642 6.11262C14.9424 6.66887 15.8747 6.96843 16.8313 6.96953C17.7879 6.97063 18.7209 6.6732 19.5004 6.11873L19.7143 5.96595C19.7599 5.93345 19.8136 5.91413 19.8695 5.9101C19.9254 5.90607 19.9813 5.91748 20.0312 5.94309C20.081 5.96871 20.1228 6.00753 20.1521 6.05532C20.1814 6.10311 20.1969 6.15803 20.197 6.21406V23.3948C20.197 23.9448 20.329 24.4643 20.5637 24.9226H7.66927C6.93993 24.9226 6.24045 24.6329 5.72473 24.1172C5.209 23.6014 4.91927 22.902 4.91927 22.1726V6.21406C4.91942 6.15803 4.93497 6.10311 4.96423 6.05532C4.99348 6.00753 5.03532 5.96871 5.08516 5.94309C5.135 5.91748 5.19092 5.90607 5.24681 5.9101C5.3027 5.91413 5.3564 5.93345 5.40205 5.96595L5.61594 6.11873C6.3954 6.6732 7.32847 6.97063 8.28503 6.96953C9.24159 6.96843 10.174 6.66887 10.9522 6.11262ZM22.0304 23.3948V17.5893H25.0859V23.3948C25.0859 23.8 24.925 24.1886 24.6385 24.4751C24.3519 24.7617 23.9634 24.9226 23.5582 24.9226C23.153 24.9226 22.7644 24.7617 22.4779 24.4751C22.1913 24.1886 22.0304 23.8 22.0304 23.3948Z" fill="white"/>
</svg>
