<svg width="40" height="41" viewBox="0 0 40 41" fill="none" xmlns="http://www.w3.org/2000/svg">
<path fill-rule="evenodd" clip-rule="evenodd" d="M7.08008 8.83333C7.08008 7.61776 7.56296 6.45197 8.4225 5.59243C9.28205 4.73289 10.4478 4.25 11.6634 4.25H24.9751C25.4381 4.25027 25.8943 4.36075 26.3062 4.57232C26.718 4.78388 27.0735 5.09045 27.3434 5.46667L32.3667 12.4617C32.7217 12.9583 32.9134 13.5533 32.9134 14.1617V32.1667C32.9134 33.3822 32.4305 34.548 31.571 35.4076C30.7114 36.2671 29.5456 36.75 28.3301 36.75H11.6634C10.4478 36.75 9.28205 36.2671 8.4225 35.4076C7.56296 34.548 7.08008 33.3822 7.08008 32.1667V8.83333ZM11.6634 6.75C10.5134 6.75 9.58008 7.68333 9.58008 8.83333V32.1667C9.58008 33.3167 10.5134 34.25 11.6634 34.25H28.3301C29.4801 34.25 30.4134 33.3167 30.4134 32.1667V15.3283H24.9967C24.6652 15.3283 24.3473 15.1966 24.1129 14.9622C23.8784 14.7278 23.7467 14.4099 23.7467 14.0783V6.75H11.6634Z" fill="#517CA8"/>
<path d="M25.1397 22.5291C25.0371 22.6574 24.9102 22.7643 24.7663 22.8436C24.6224 22.9229 24.4643 22.973 24.3009 22.9911C24.1376 23.0092 23.9723 22.995 23.8146 22.9491C23.6568 22.9033 23.5096 22.8268 23.3813 22.7241L21.248 21.0141V26.7474C21.248 27.0789 21.1163 27.3969 20.8819 27.6313C20.6475 27.8657 20.3295 27.9974 19.998 27.9974C19.6665 27.9974 19.3485 27.8657 19.1141 27.6313C18.8797 27.3969 18.748 27.0789 18.748 26.7474V21.0141L16.6113 22.7241C16.3523 22.9312 16.0216 23.0269 15.692 22.9901C15.3624 22.9534 15.0609 22.7873 14.8538 22.5282C14.6468 22.2692 14.551 21.9385 14.5878 21.6089C14.6245 21.2793 14.7907 20.9778 15.0497 20.7707L19.2113 17.4407C19.4309 17.2633 19.7041 17.1658 19.9863 17.1641H19.9997C20.2997 17.1641 20.573 17.2707 20.788 17.4474L24.9447 20.7707C25.073 20.8733 25.1799 21.0002 25.2592 21.1441C25.3385 21.288 25.3886 21.4462 25.4067 21.6095C25.4248 21.7728 25.4106 21.9381 25.3648 22.0959C25.3189 22.2536 25.2424 22.4009 25.1397 22.5291Z" fill="#517CA8"/>
</svg>
