<svg width="43" height="44" viewBox="0 0 43 44" fill="none" xmlns="http://www.w3.org/2000/svg">
<g id="basil:file-upload-outline">
<path id="Vector" fill-rule="evenodd" clip-rule="evenodd" d="M7.88672 9.72287C7.88672 8.42626 8.4018 7.18275 9.31864 6.26591C10.2355 5.34906 11.479 4.83398 12.7756 4.83398H26.9747C27.4686 4.83427 27.9553 4.95212 28.3946 5.17779C28.8338 5.40346 29.2131 5.73046 29.5009 6.13176L34.8592 13.5931C35.2378 14.1229 35.4423 14.7575 35.4423 15.4064V34.6118C35.4423 35.9084 34.9272 37.1519 34.0104 38.0687C33.0935 38.9856 31.85 39.5007 30.5534 39.5007H12.7756C11.479 39.5007 10.2355 38.9856 9.31864 38.0687C8.4018 37.1519 7.88672 35.9084 7.88672 34.6118V9.72287ZM12.7756 7.50065C11.5489 7.50065 10.5534 8.49621 10.5534 9.72287V34.6118C10.5534 35.8384 11.5489 36.834 12.7756 36.834H30.5534C31.7801 36.834 32.7756 35.8384 32.7756 34.6118V16.6509H26.9978C26.6442 16.6509 26.3051 16.5104 26.055 16.2603C25.805 16.0103 25.6645 15.6712 25.6645 15.3175V7.50065H12.7756Z" fill="#517CA8"/>
<path id="Vector_2" d="M27.1503 24.332C27.0409 24.469 26.9055 24.583 26.752 24.6675C26.5985 24.7521 26.4298 24.8056 26.2556 24.8249C26.0814 24.8442 25.9051 24.829 25.7368 24.7801C25.5685 24.7312 25.4115 24.6497 25.2747 24.54L22.9992 22.716V28.8316C22.9992 29.1852 22.8587 29.5244 22.6087 29.7744C22.3586 30.0245 22.0195 30.1649 21.6659 30.1649C21.3122 30.1649 20.9731 30.0245 20.723 29.7744C20.473 29.5244 20.3325 29.1852 20.3325 28.8316V22.716L18.0534 24.54C17.7771 24.7609 17.4244 24.863 17.0728 24.8239C16.7212 24.7847 16.3996 24.6075 16.1787 24.3312C15.9578 24.0549 15.8558 23.7021 15.8949 23.3506C15.9341 22.999 16.1113 22.6774 16.3876 22.4565L20.8267 18.9045C21.0609 18.7153 21.3524 18.6112 21.6534 18.6094H21.6676C21.9876 18.6094 22.2792 18.7232 22.5085 18.9116L26.9423 22.4565C27.0792 22.5659 27.1932 22.7012 27.2778 22.8547C27.3624 23.0083 27.4158 23.1769 27.4352 23.3511C27.4545 23.5253 27.4393 23.7016 27.3904 23.8699C27.3415 24.0383 27.2599 24.1953 27.1503 24.332Z" fill="#517CA8"/>
</g>
</svg>
