<svg width="12" height="12" viewBox="0 0 12 12" fill="none" xmlns="http://www.w3.org/2000/svg">
<path d="M10.6916 0H9.57009V1.1215C9.57009 1.34579 9.38318 1.49533 9.19626 1.49533C9.00935 1.49533 8.82243 1.34579 8.82243 1.1215V0H2.84112V1.1215C2.84112 1.34579 2.65421 1.49533 2.46729 1.49533C2.28037 1.49533 2.09346 1.34579 2.09346 1.1215V0H0.971963C0.411215 0 0 0.485981 0 1.1215V2.46729H11.9626V1.1215C11.9626 0.485981 11.2897 0 10.6916 0ZM0 3.25234V10.0935C0 10.7664 0.411215 11.215 1.00935 11.215H10.729C11.3271 11.215 12 10.729 12 10.0935V3.25234H0ZM3.3271 9.53271H2.42991C2.28037 9.53271 2.13084 9.42056 2.13084 9.23365V8.29907C2.13084 8.14953 2.24299 8 2.42991 8H3.36449C3.51402 8 3.66355 8.11215 3.66355 8.29907V9.23365C3.62617 9.42056 3.51402 9.53271 3.3271 9.53271ZM3.3271 6.16822H2.42991C2.28037 6.16822 2.13084 6.05608 2.13084 5.86916V4.93458C2.13084 4.78505 2.24299 4.63551 2.42991 4.63551H3.36449C3.51402 4.63551 3.66355 4.74766 3.66355 4.93458V5.86916C3.62617 6.05608 3.51402 6.16822 3.3271 6.16822ZM6.31776 9.53271H5.38318C5.23364 9.53271 5.08411 9.42056 5.08411 9.23365V8.29907C5.08411 8.14953 5.19626 8 5.38318 8H6.31776C6.46729 8 6.61682 8.11215 6.61682 8.29907V9.23365C6.61682 9.42056 6.50467 9.53271 6.31776 9.53271ZM6.31776 6.16822H5.38318C5.23364 6.16822 5.08411 6.05608 5.08411 5.86916V4.93458C5.08411 4.78505 5.19626 4.63551 5.38318 4.63551H6.31776C6.46729 4.63551 6.61682 4.74766 6.61682 4.93458V5.86916C6.61682 6.05608 6.50467 6.16822 6.31776 6.16822ZM9.30841 9.53271H8.37383C8.2243 9.53271 8.07477 9.42056 8.07477 9.23365V8.29907C8.07477 8.14953 8.18692 8 8.37383 8H9.30841C9.45794 8 9.60748 8.11215 9.60748 8.29907V9.23365C9.60748 9.42056 9.49533 9.53271 9.30841 9.53271ZM9.30841 6.16822H8.37383C8.2243 6.16822 8.07477 6.05608 8.07477 5.86916V4.93458C8.07477 4.78505 8.18692 4.63551 8.37383 4.63551H9.30841C9.45794 4.63551 9.60748 4.74766 9.60748 4.93458V5.86916C9.60748 6.05608 9.49533 6.16822 9.30841 6.16822Z" fill="#FFA28D"/>
</svg>
