<svg width="22" height="22" viewBox="0 0 22 22" fill="none" xmlns="http://www.w3.org/2000/svg">
<g id="Calendar 1">
<g id="Group">
<path id="Vector" d="M19.24 1.75391H17.3577V3.63626C17.3577 4.01273 17.0439 4.26371 16.7302 4.26371C16.4165 4.26371 16.1028 4.01273 16.1028 3.63626V1.75391H6.06355V3.63626C6.06355 4.01273 5.74982 4.26371 5.4361 4.26371C5.12237 4.26371 4.80865 4.01273 4.80865 3.63626V1.75391H2.92629C1.98512 1.75391 1.29492 2.56959 1.29492 3.63626V5.89508H21.3734V3.63626C21.3734 2.56959 20.2439 1.75391 19.24 1.75391ZM1.29492 7.21273V18.6951C1.29492 19.8245 1.98512 20.5774 2.98904 20.5774H19.3028C20.3067 20.5774 21.4361 19.7617 21.4361 18.6951V7.21273H1.29492ZM6.87923 17.7539H5.37335C5.12237 17.7539 4.87139 17.5657 4.87139 17.2519V15.6833C4.87139 15.4323 5.05963 15.1814 5.37335 15.1814H6.94198C7.19296 15.1814 7.44394 15.3696 7.44394 15.6833V17.2519C7.3812 17.5657 7.19296 17.7539 6.87923 17.7539ZM6.87923 12.1068H5.37335C5.12237 12.1068 4.87139 11.9186 4.87139 11.6049V10.0363C4.87139 9.78528 5.05963 9.5343 5.37335 9.5343H6.94198C7.19296 9.5343 7.44394 9.72253 7.44394 10.0363V11.6049C7.3812 11.9186 7.19296 12.1068 6.87923 12.1068ZM11.8988 17.7539H10.3302C10.0792 17.7539 9.82825 17.5657 9.82825 17.2519V15.6833C9.82825 15.4323 10.0165 15.1814 10.3302 15.1814H11.8988C12.1498 15.1814 12.4008 15.3696 12.4008 15.6833V17.2519C12.4008 17.5657 12.2126 17.7539 11.8988 17.7539ZM11.8988 12.1068H10.3302C10.0792 12.1068 9.82825 11.9186 9.82825 11.6049V10.0363C9.82825 9.78528 10.0165 9.5343 10.3302 9.5343H11.8988C12.1498 9.5343 12.4008 9.72253 12.4008 10.0363V11.6049C12.4008 11.9186 12.2126 12.1068 11.8988 12.1068ZM16.9185 17.7539H15.3498C15.0988 17.7539 14.8479 17.5657 14.8479 17.2519V15.6833C14.8479 15.4323 15.0361 15.1814 15.3498 15.1814H16.9185C17.1694 15.1814 17.4204 15.3696 17.4204 15.6833V17.2519C17.4204 17.5657 17.2322 17.7539 16.9185 17.7539ZM16.9185 12.1068H15.3498C15.0988 12.1068 14.8479 11.9186 14.8479 11.6049V10.0363C14.8479 9.78528 15.0361 9.5343 15.3498 9.5343H16.9185C17.1694 9.5343 17.4204 9.72253 17.4204 10.0363V11.6049C17.4204 11.9186 17.2322 12.1068 16.9185 12.1068Z" fill="white"/>
</g>
</g>
</svg>
