<svg width="22" height="22" viewBox="0 0 22 22" fill="none" xmlns="http://www.w3.org/2000/svg">
<g id="solar:calendar-date-outline">
<path id="Vector" fill-rule="evenodd" clip-rule="evenodd" d="M6.27786 1.72534C6.44233 1.72534 6.60007 1.79068 6.71636 1.90698C6.83266 2.02328 6.898 2.18101 6.898 2.34548V2.97637C7.44538 2.96563 8.04816 2.96563 8.71212 2.96563H12.1122C12.7761 2.96563 13.3789 2.96563 13.9263 2.97637V2.34548C13.9263 2.18101 13.9916 2.02328 14.1079 1.90698C14.2242 1.79068 14.3819 1.72534 14.5464 1.72534C14.7109 1.72534 14.8686 1.79068 14.9849 1.90698C15.1012 2.02328 15.1666 2.18101 15.1666 2.34548V3.02929C15.3815 3.04583 15.5849 3.0665 15.7776 3.09213C16.7467 3.22278 17.5314 3.49729 18.1507 4.11578C18.7692 4.7351 19.0437 5.51978 19.1743 6.48886C19.2157 6.79893 19.2438 7.13711 19.2628 7.50589C19.308 7.62786 19.3134 7.76097 19.2785 7.88624C19.3008 8.54856 19.3008 9.30182 19.3008 10.1543V11.9006C19.3008 13.4204 19.3008 14.6243 19.1743 15.5661C19.0437 16.5352 18.7692 17.3198 18.1507 17.9392C17.5314 18.5576 16.7467 18.8322 15.7776 18.9628C14.835 19.0893 13.6319 19.0893 12.1122 19.0893H8.71212C7.19236 19.0893 5.98846 19.0893 5.04667 18.9628C4.07759 18.8322 3.29291 18.5576 2.67359 17.9392C2.05511 17.3198 1.78059 16.5352 1.64995 15.5661C1.52344 14.6235 1.52344 13.4204 1.52344 11.9006V10.1543C1.52344 9.30182 1.52344 8.54855 1.54576 7.88542C1.51126 7.76003 1.51704 7.62698 1.5623 7.50506C1.58049 7.13711 1.6086 6.79893 1.64995 6.48886C1.78059 5.51978 2.05511 4.7351 2.67359 4.11578C3.29291 3.49729 4.07759 3.22278 5.04667 3.09213C5.23933 3.0665 5.44356 3.04583 5.65772 3.02929V2.34548C5.65772 2.18101 5.72305 2.02328 5.83935 1.90698C5.95565 1.79068 6.11339 1.72534 6.27786 1.72534ZM2.77447 8.34019C2.76372 8.88012 2.76372 9.49448 2.76372 10.2006V11.8543C2.76372 13.4311 2.76537 14.5515 2.87948 15.4015C2.99111 16.2325 3.20113 16.7121 3.55089 17.0619C3.90065 17.4116 4.38022 17.6216 5.21204 17.7333C6.06205 17.8474 7.18161 17.849 8.75843 17.849H12.0658C13.6427 17.849 14.7631 17.8474 15.6131 17.7333C16.444 17.6216 16.9236 17.4116 17.2734 17.0619C17.6231 16.7121 17.8332 16.2325 17.9448 15.4007C18.0589 14.5515 18.0606 13.4311 18.0606 11.8543V10.2006C18.0606 9.49448 18.0606 8.88012 18.0498 8.34019H2.77447ZM17.9928 7.0999H2.83152C2.84475 6.9428 2.86046 6.79479 2.87948 6.6534C2.99111 5.82241 3.20113 5.34284 3.55089 4.99308C3.90065 4.64332 4.38022 4.43329 5.21204 4.32167C6.06205 4.20756 7.18161 4.20591 8.75843 4.20591H12.0658C13.6427 4.20591 14.7631 4.20756 15.6131 4.32167C16.444 4.43329 16.9236 4.64332 17.2734 4.99308C17.6231 5.34284 17.8332 5.82241 17.9448 6.65423C17.9638 6.79479 17.9795 6.94363 17.9928 7.0999Z" fill="#667085"/>
<circle id="Ellipse 444" cx="10.4051" cy="11.4298" r="0.592593" fill="#667085"/>
</g>
</svg>
