<svg width="21" height="21" viewBox="0 0 21 21" fill="none" xmlns="http://www.w3.org/2000/svg">
<g id="solar:camera-add-bold">
<g id="Group">
<path id="Vector" fill-rule="evenodd" clip-rule="evenodd" d="M10.3129 8.74609C10.4826 8.74609 10.6453 8.81351 10.7653 8.9335C10.8853 9.05349 10.9527 9.21624 10.9527 9.38594V10.4523H12.0191C12.1888 10.4523 12.3516 10.5198 12.4716 10.6397C12.5916 10.7597 12.659 10.9225 12.659 11.0922C12.659 11.2619 12.5916 11.4246 12.4716 11.5446C12.3516 11.6646 12.1888 11.732 12.0191 11.732H10.9527V12.7984C10.9527 12.9681 10.8853 13.1309 10.7653 13.2509C10.6453 13.3709 10.4826 13.4383 10.3129 13.4383C10.1432 13.4383 9.98045 13.3709 9.86045 13.2509C9.74046 13.1309 9.67305 12.9681 9.67305 12.7984V11.732H8.60664C8.43694 11.732 8.2742 11.6646 8.1542 11.5446C8.03421 11.4246 7.9668 11.2619 7.9668 11.0922C7.9668 10.9225 8.03421 10.7597 8.1542 10.6397C8.2742 10.5198 8.43694 10.4523 8.60664 10.4523H9.67305V9.38594C9.67305 9.21624 9.74046 9.05349 9.86045 8.9335C9.98045 8.81351 10.1432 8.74609 10.3129 8.74609Z" fill="white"/>
<path id="Vector_2" fill-rule="evenodd" clip-rule="evenodd" d="M8.41686 17.9168H12.2081C14.8708 17.9168 16.2025 17.9168 17.1588 17.2898C17.5715 17.0193 17.9269 16.6703 18.2048 16.2626C18.8438 15.3242 18.8438 14.0164 18.8438 11.4024C18.8438 8.78755 18.8438 7.48056 18.2048 6.54212C17.9269 6.13442 17.5715 5.7854 17.1588 5.51496C16.5446 5.11143 15.7751 4.96725 14.5969 4.91606C14.0347 4.91606 13.551 4.49803 13.4409 3.9563C13.3568 3.55948 13.1383 3.20387 12.8223 2.94957C12.5063 2.69527 12.1121 2.55786 11.7065 2.56059H8.9185C8.07561 2.56059 7.3496 3.14498 7.18409 3.9563C7.07404 4.49803 6.59032 4.91606 6.02811 4.91606C4.85079 4.96725 4.08128 5.11228 3.46617 5.51496C3.05379 5.78545 2.69868 6.13448 2.42109 6.54212C1.78125 7.48056 1.78125 8.78755 1.78125 11.4024C1.78125 14.0164 1.78125 15.3233 2.42024 16.2626C2.69665 16.6687 3.05155 17.0176 3.46617 17.2898C4.42253 17.9168 5.75425 17.9168 8.41686 17.9168ZM13.725 11.0918C13.725 11.9969 13.3655 12.8649 12.7255 13.5048C12.0855 14.1448 11.2176 14.5043 10.3125 14.5043C9.40745 14.5043 8.53947 14.1448 7.8995 13.5048C7.25953 12.8649 6.9 11.9969 6.9 11.0918C6.9 10.1868 7.25953 9.3188 7.8995 8.67884C8.53947 8.03887 9.40745 7.67934 10.3125 7.67934C11.2176 7.67934 12.0855 8.03887 12.7255 8.67884C13.3655 9.3188 13.725 10.1868 13.725 11.0918ZM15.4313 7.89262C15.2616 7.89262 15.0988 7.96003 14.9788 8.08002C14.8588 8.20002 14.7914 8.36277 14.7914 8.53246C14.7914 8.70216 14.8588 8.86491 14.9788 8.9849C15.0988 9.10489 15.2616 9.17231 15.4313 9.17231H16.2844C16.4541 9.17231 16.6168 9.10489 16.7368 8.9849C16.8568 8.86491 16.9242 8.70216 16.9242 8.53246C16.9242 8.36277 16.8568 8.20002 16.7368 8.08002C16.6168 7.96003 16.4541 7.89262 16.2844 7.89262H15.4313Z" fill="white"/>
</g>
</g>
</svg>
