<svg width="30" height="30" viewBox="0 0 30 30" fill="none" xmlns="http://www.w3.org/2000/svg">
<ellipse cx="14.7998" cy="14.75" rx="14.625" ry="14.625" fill="#26435F"/>
<path fill-rule="evenodd" clip-rule="evenodd" d="M14.3129 13.7461C14.4826 13.7461 14.6453 13.8135 14.7653 13.9335C14.8853 14.0535 14.9527 14.2162 14.9527 14.3859V15.4523H16.0191C16.1888 15.4523 16.3516 15.5198 16.4716 15.6397C16.5916 15.7597 16.659 15.9225 16.659 16.0922C16.659 16.2619 16.5916 16.4246 16.4716 16.5446C16.3516 16.6646 16.1888 16.732 16.0191 16.732H14.9527V17.7984C14.9527 17.9681 14.8853 18.1309 14.7653 18.2509C14.6453 18.3709 14.4826 18.4383 14.3129 18.4383C14.1432 18.4383 13.9804 18.3709 13.8605 18.2509C13.7405 18.1309 13.673 17.9681 13.673 17.7984V16.732H12.6066C12.4369 16.732 12.2742 16.6646 12.1542 16.5446C12.0342 16.4246 11.9668 16.2619 11.9668 16.0922C11.9668 15.9225 12.0342 15.7597 12.1542 15.6397C12.2742 15.5198 12.4369 15.4523 12.6066 15.4523H13.673V14.3859C13.673 14.2162 13.7405 14.0535 13.8605 13.9335C13.9804 13.8135 14.1432 13.7461 14.3129 13.7461Z" fill="white"/>
<path fill-rule="evenodd" clip-rule="evenodd" d="M12.4169 22.9168H16.2081C18.8708 22.9168 20.2025 22.9168 21.1588 22.2898C21.5715 22.0193 21.9269 21.6703 22.2048 21.2626C22.8438 20.3242 22.8438 19.0164 22.8438 16.4024C22.8438 13.7875 22.8438 12.4806 22.2048 11.5421C21.9269 11.1344 21.5715 10.7854 21.1588 10.515C20.5446 10.1114 19.7751 9.96725 18.5969 9.91606C18.0347 9.91606 17.551 9.49803 17.4409 8.9563C17.3568 8.55948 17.1383 8.20387 16.8223 7.94957C16.5063 7.69527 16.1121 7.55786 15.7065 7.56059H12.9185C12.0756 7.56059 11.3496 8.14498 11.1841 8.9563C11.074 9.49803 10.5903 9.91606 10.0281 9.91606C8.85079 9.96725 8.08128 10.1123 7.46617 10.515C7.05379 10.7855 6.69868 11.1345 6.42109 11.5421C5.78125 12.4806 5.78125 13.7875 5.78125 16.4024C5.78125 19.0164 5.78125 20.3233 6.42024 21.2626C6.69665 21.6687 7.05155 22.0176 7.46617 22.2898C8.42253 22.9168 9.75425 22.9168 12.4169 22.9168ZM17.725 16.0918C17.725 16.9969 17.3655 17.8649 16.7255 18.5048C16.0855 19.1448 15.2176 19.5043 14.3125 19.5043C13.4075 19.5043 12.5395 19.1448 11.8995 18.5048C11.2595 17.8649 10.9 16.9969 10.9 16.0918C10.9 15.1868 11.2595 14.3188 11.8995 13.6788C12.5395 13.0389 13.4075 12.6793 14.3125 12.6793C15.2176 12.6793 16.0855 13.0389 16.7255 13.6788C17.3655 14.3188 17.725 15.1868 17.725 16.0918ZM19.4313 12.8926C19.2616 12.8926 19.0988 12.96 18.9788 13.08C18.8588 13.2 18.7914 13.3628 18.7914 13.5325C18.7914 13.7022 18.8588 13.8649 18.9788 13.9849C19.0988 14.1049 19.2616 14.1723 19.4313 14.1723H20.2844C20.4541 14.1723 20.6168 14.1049 20.7368 13.9849C20.8568 13.8649 20.9242 13.7022 20.9242 13.5325C20.9242 13.3628 20.8568 13.2 20.7368 13.08C20.6168 12.96 20.4541 12.8926 20.2844 12.8926H19.4313Z" fill="white"/>
</svg>
