<svg width="35" height="35" viewBox="0 0 30 30" fill="none" xmlns="http://www.w3.org/2000/svg">
<path d="M21.7484 22.5042C18.4484 22.5042 17.1376 18.6762 15.8699 14.9747C14.669 11.4657 13.4251 7.83748 10.7484 7.83748C10.1234 7.87424 9.52355 8.0962 9.02515 8.4751C8.52676 8.854 8.15243 9.37268 7.94985 9.96507L6.21094 9.38115C6.25769 9.24365 7.37602 6.00415 10.7484 6.00415C14.7359 6.00415 16.2594 10.4546 17.6051 14.3807C18.7134 17.6156 19.7593 20.6708 21.7484 20.6708C22.3734 20.6341 22.9733 20.4121 23.4717 20.0332C23.9701 19.6543 24.3444 19.1356 24.547 18.5432L26.285 19.1272C26.2392 19.2647 25.1209 22.5042 21.7484 22.5042Z" fill="white"/>
<path d="M4.32943 26.1707V16.0874H6.16276V14.2541H4.32943V2.3374H2.49609V26.1707C2.49609 26.657 2.68925 27.1233 3.03306 27.4671C3.37688 27.8109 3.8432 28.0041 4.32943 28.0041H28.1628V26.1707H4.32943Z" fill="white"/>
<path d="M7.99609 14.2542H9.82943V16.0875H7.99609V14.2542ZM11.6628 14.2542H13.4961V16.0875H11.6628V14.2542ZM18.9961 14.2542H20.8294V16.0875H18.9961V14.2542ZM22.6628 14.2542H24.4961V16.0875H22.6628V14.2542ZM26.3294 14.2542H28.1628V16.0875H26.3294V14.2542Z" fill="white"/>
</svg>
