<svg width="23" height="24" viewBox="0 0 23 24" fill="none" xmlns="http://www.w3.org/2000/svg">
<g id="ep:arrow-left-bold">
<path id="Vector" d="M7.93995 21.0269C7.67628 20.7632 7.52816 20.4055 7.52816 20.0326C7.52816 19.6596 7.67628 19.3019 7.93995 19.0382L14.902 12.0761L7.93995 5.11411C7.68375 4.84885 7.54199 4.49357 7.54519 4.1248C7.5484 3.75603 7.69631 3.40327 7.95708 3.1425C8.21785 2.88173 8.57061 2.73381 8.93939 2.73061C9.30816 2.7274 9.66343 2.86917 9.9287 3.12537L17.8851 11.0818C18.1488 11.3455 18.2969 11.7032 18.2969 12.0761C18.2969 12.4491 18.1488 12.8068 17.8851 13.0705L9.9287 21.0269C9.66494 21.2906 9.30727 21.4387 8.93432 21.4387C8.56138 21.4387 8.2037 21.2906 7.93995 21.0269Z" fill="black"/>
</g>
</svg>
