<svg width="23" height="24" viewBox="0 0 23 24" fill="none" xmlns="http://www.w3.org/2000/svg">
<g id="ep:arrow-left-bold">
<path id="Vector" d="M15.4468 3.12688C15.7104 3.39064 15.8586 3.74831 15.8586 4.12126C15.8586 4.4942 15.7104 4.85188 15.4468 5.11563L8.48476 12.0777L15.4468 19.0397C15.703 19.305 15.8447 19.6602 15.8415 20.029C15.8383 20.3978 15.6904 20.7505 15.4296 21.0113C15.1689 21.2721 14.8161 21.42 14.4473 21.4232C14.0786 21.4264 13.7233 21.2846 13.458 21.0284L5.50164 13.072C5.23797 12.8083 5.08984 12.4506 5.08984 12.0777C5.08984 11.7047 5.23797 11.347 5.50164 11.0833L13.458 3.12688C13.7218 2.86321 14.0795 2.71509 14.4524 2.71509C14.8253 2.71509 15.183 2.86321 15.4468 3.12688Z" fill="black"/>
</g>
</svg>
