<svg width="16" height="16" viewBox="0 0 16 16" fill="none" xmlns="http://www.w3.org/2000/svg">
<g id="carbon:inventory-management" clip-path="url(#clip0_10202_36058)">
<path id="Vector" d="M9.6582 11.748H11.5332V13.623H9.6582V11.748ZM12.9395 11.748H14.8145V13.623H12.9395V11.748ZM9.6582 8.4668H11.5332V10.3418H9.6582V8.4668ZM12.9395 8.4668H14.8145V10.3418H12.9395V8.4668Z" fill="#26435F"/>
<path id="Vector_2" d="M8.78767 13.356H1.82338V5.85603H14.6805V8.5346H15.752V5.85603C15.7517 5.57195 15.6387 5.2996 15.4378 5.09873C15.237 4.89786 14.9646 4.78488 14.6805 4.7846H11.4662V2.64174C11.466 2.35767 11.353 2.08531 11.1521 1.88444C10.9512 1.68357 10.6789 1.5706 10.3948 1.57031H6.1091C5.82502 1.5706 5.55266 1.68357 5.35179 1.88444C5.15092 2.08531 5.03795 2.35767 5.03767 2.64174V4.7846H1.82338C1.53931 4.78488 1.26695 4.89786 1.06608 5.09873C0.86521 5.2996 0.752237 5.57195 0.751953 5.85603V13.356C0.752237 13.6401 0.86521 13.9125 1.06608 14.1133C1.26695 14.3142 1.53931 14.4272 1.82338 14.4275H8.78767V13.356ZM6.1091 2.64174H10.3948V4.7846H6.1091V2.64174Z" fill="#26435F"/>
</g>
<defs>
<clipPath id="clip0_10202_36058">
<rect width="15" height="15" fill="white" transform="translate(0.751953 0.498047)"/>
</clipPath>
</defs>
</svg>
