<svg width="16" height="16" viewBox="0 0 16 16" fill="none" xmlns="http://www.w3.org/2000/svg">
<g id="carbon:inventory-management" clip-path="url(#clip0_10202_36030)">
<path id="Vector" d="M9.65723 11.748H11.5322V13.623H9.65723V11.748ZM12.9385 11.748H14.8135V13.623H12.9385V11.748ZM9.65723 8.4668H11.5322V10.3418H9.65723V8.4668ZM12.9385 8.4668H14.8135V10.3418H12.9385V8.4668Z" fill="white"/>
<path id="Vector_2" d="M8.78669 13.3579H1.82241V5.85796H14.6796V8.53652H15.751V5.85796C15.7507 5.57389 15.6377 5.30153 15.4369 5.10066C15.236 4.89979 14.9636 4.78682 14.6796 4.78654H11.4653V2.64369C11.465 2.35962 11.352 2.08726 11.1511 1.88639C10.9503 1.68552 10.6779 1.57255 10.3938 1.57227H6.10812C5.82405 1.57255 5.55169 1.68552 5.35082 1.88639C5.14995 2.08726 5.03698 2.35962 5.03669 2.64369V4.78654H1.82241C1.53833 4.78682 1.26597 4.89979 1.0651 5.10066C0.864234 5.30153 0.75126 5.57389 0.750977 5.85796V13.3579C0.75126 13.642 0.864234 13.9144 1.0651 14.1152C1.26597 14.3161 1.53833 14.4291 1.82241 14.4294H8.78669V13.3579ZM6.10812 2.64369H10.3938V4.78654H6.10812V2.64369Z" fill="white"/>
</g>
<defs>
<clipPath id="clip0_10202_36030">
<rect width="15" height="14.9999" fill="white" transform="translate(0.750977 0.498047)"/>
</clipPath>
</defs>
</svg>
