<svg width="22" height="22" viewBox="0 0 22 22" fill="none" xmlns="http://www.w3.org/2000/svg">
<g id="material-symbols:content-copy">
<path id="Vector" d="M4.44575 19.6098C3.95686 19.6098 3.53819 19.4356 3.18975 19.0871C2.8413 18.7387 2.66738 18.3203 2.66797 17.832V5.38759H4.44575V17.832H14.2235V19.6098H4.44575ZM8.0013 16.0543C7.51241 16.0543 7.09375 15.88 6.7453 15.5316C6.39686 15.1831 6.22293 14.7648 6.22353 14.2765V3.60981C6.22353 3.12092 6.39775 2.70225 6.74619 2.35381C7.09464 2.00537 7.51301 1.83144 8.0013 1.83203H16.0013C16.4902 1.83203 16.9089 2.00626 17.2573 2.3547C17.6057 2.70314 17.7797 3.12151 17.7791 3.60981V14.2765C17.7791 14.7654 17.6049 15.184 17.2564 15.5325C16.908 15.8809 16.4896 16.0548 16.0013 16.0543H8.0013Z" fill="white"/>
</g>
</svg>
