<svg width="22" height="22" viewBox="0 0 22 22" fill="none" xmlns="http://www.w3.org/2000/svg">
<g id="ri:customer-service-fill">
<path id="Vector" d="M19.5571 15.1125C19.5567 16.3281 19.1412 17.5071 18.3793 18.4543C17.6175 19.4016 16.555 20.0603 15.3677 20.3213L14.8006 18.62C15.3199 18.5345 15.8138 18.3348 16.2467 18.0354C16.6795 17.736 17.0405 17.3442 17.3037 16.8885H15.1126C14.6411 16.8885 14.1889 16.7012 13.8556 16.3678C13.5222 16.0344 13.3349 15.5822 13.3349 15.1107V11.5551C13.3349 11.0836 13.5222 10.6314 13.8556 10.298C14.1889 9.96465 14.6411 9.77734 15.1126 9.77734H17.7242C17.5073 8.05903 16.6708 6.47892 15.3717 5.3335C14.0726 4.18808 12.4001 3.55608 10.6682 3.55608C8.93623 3.55608 7.2638 4.18808 5.96469 5.3335C4.66559 6.47892 3.8291 8.05903 3.61219 9.77734H6.22374C6.69524 9.77734 7.14742 9.96465 7.48082 10.298C7.81422 10.6314 8.00152 11.0836 8.00152 11.5551V15.1107C8.00152 15.5822 7.81422 16.0344 7.48082 16.3678C7.14742 16.7012 6.69524 16.8885 6.22374 16.8885H3.55707C3.08558 16.8885 2.63339 16.7012 2.3 16.3678C1.9666 16.0344 1.7793 15.5822 1.7793 15.1107V10.6662C1.7793 5.7569 5.75885 1.77734 10.6682 1.77734C15.5775 1.77734 19.5571 5.7569 19.5571 10.6662V15.1125Z" fill="white"/>
</g>
</svg>
