<svg xmlns="http://www.w3.org/2000/svg" width="36" height="36" viewBox="0 0 36 36" fill="none">
  <path d="M20.8574 19.8676C21.084 19.6862 21.3734 19.6023 21.662 19.6343C21.9505 19.6663 22.2145 19.8116 22.3959 20.0382C22.5773 20.2649 22.6612 20.5543 22.6292 20.8428C22.5972 21.1314 22.4519 21.3954 22.2253 21.5768L18.5882 24.4861C18.3936 24.6454 18.1499 24.7325 17.8984 24.7326H17.8867C17.6398 24.7311 17.4007 24.6457 17.2086 24.4905L13.5672 21.5768C13.3405 21.3955 13.1951 21.1317 13.163 20.8433C13.1308 20.5549 13.2146 20.2656 13.3958 20.0389C13.577 19.8123 13.8408 19.6669 14.1292 19.6348C14.4176 19.6026 14.707 19.6864 14.9336 19.8676L16.8017 21.3638V16.3472C16.8017 16.2035 16.83 16.0613 16.885 15.9286C16.94 15.7959 17.0205 15.6753 17.1221 15.5738C17.2236 15.4722 17.3442 15.3916 17.4769 15.3367C17.6096 15.2817 17.7518 15.2534 17.8955 15.2534C18.0391 15.2534 18.1813 15.2817 18.314 15.3367C18.4467 15.3916 18.5673 15.4722 18.6689 15.5738C18.7704 15.6753 18.851 15.7959 18.906 15.9286C18.9609 16.0613 18.9892 16.2035 18.9892 16.3472V21.3638L20.8574 19.8676Z" fill="#24A3D9"/>
  <path fill-rule="evenodd" clip-rule="evenodd" d="M10.6042 3.95117C9.54054 3.95117 8.52047 4.3737 7.76837 5.1258C7.01627 5.87789 6.59375 6.89796 6.59375 7.96159V28.3783C6.59375 29.4419 7.01627 30.462 7.76837 31.214C8.52047 31.9661 9.54054 32.3887 10.6042 32.3887H25.1875C26.2511 32.3887 27.2712 31.9661 28.0233 31.214C28.7754 30.462 29.1979 29.4419 29.1979 28.3783V12.6253C29.1979 12.0917 29.0306 11.5715 28.7196 11.1378L24.3242 5.01576C24.088 4.68657 23.7769 4.41832 23.4166 4.2332C23.0562 4.04808 22.657 3.9514 22.2519 3.95117H10.6042ZM8.78125 7.96159C8.78125 6.95534 9.59791 6.13867 10.6042 6.13867H21.1771V12.551C21.1771 13.1547 21.6671 13.6447 22.2708 13.6447H27.0104V28.3783C27.0104 29.3845 26.1937 30.2012 25.1875 30.2012H10.6042C9.59791 30.2012 8.78125 29.3845 8.78125 28.3783V7.96159Z" fill="#24A3D9"/>
</svg>