<svg xmlns="http://www.w3.org/2000/svg" width="18" height="11" viewBox="0 0 18 11" fill="none">
  <path fill-rule="evenodd" clip-rule="evenodd" d="M9.86312 9.86507C9.63392 10.0942 9.3231 10.2229 8.99901 10.2229C8.67492 10.2229 8.3641 10.0942 8.1349 9.86507L1.22079 2.95096C1.10405 2.83822 1.01094 2.70335 0.946885 2.55423C0.882829 2.40512 0.849113 2.24474 0.847702 2.08245C0.846292 1.92017 0.877217 1.75922 0.938671 1.60902C1.00013 1.45881 1.09088 1.32235 1.20564 1.20759C1.32039 1.09283 1.45686 1.00208 1.60706 0.940624C1.75727 0.879169 1.91821 0.848245 2.0805 0.849656C2.24278 0.851066 2.40316 0.884782 2.55228 0.948838C2.7014 1.01289 2.83626 1.106 2.94901 1.22274L8.99901 7.27274L15.049 1.22274C15.2795 1.0001 15.5883 0.876908 15.9087 0.879693C16.2292 0.882478 16.5357 1.01102 16.7623 1.23763C16.989 1.46424 17.1175 1.77079 17.1203 2.09125C17.1231 2.41171 16.9999 2.72045 16.7772 2.95096L9.86312 9.86507Z" fill="#667085"/>
</svg>