<svg width="16" height="10" viewBox="0 0 16 10" fill="none" xmlns="http://www.w3.org/2000/svg">
<path fill-rule="evenodd" clip-rule="evenodd" d="M8.55746 9.25082C8.34259 9.46564 8.05119 9.58631 7.74736 9.58631C7.44353 9.58631 7.15213 9.46564 6.93726 9.25082L0.455278 2.76885C0.34584 2.66315 0.258547 2.53671 0.198495 2.39691C0.138443 2.25712 0.106834 2.10676 0.105512 1.95462C0.10419 1.80248 0.133182 1.65159 0.190795 1.51077C0.248409 1.36996 0.33349 1.24202 0.441076 1.13443C0.548661 1.02685 0.676595 0.941768 0.817414 0.884154C0.958233 0.826541 1.10912 0.797549 1.26126 0.798871C1.4134 0.800193 1.56376 0.831803 1.70355 0.891855C1.84335 0.951907 1.96979 1.0392 2.07549 1.14864L7.74736 6.82051L13.4192 1.14864C13.6353 0.939914 13.9248 0.824421 14.2252 0.827032C14.5256 0.829642 14.813 0.950148 15.0255 1.16259C15.2379 1.37504 15.3584 1.66243 15.361 1.96287C15.3637 2.2633 15.2482 2.55274 15.0394 2.76885L8.55746 9.25082Z" fill="#B3BDC7"/>
</svg>
