<svg width="30" height="30" viewBox="0 0 30 30" fill="none" xmlns="http://www.w3.org/2000/svg">
<g clip-path="url(#clip0_12568_5149)">
<path fill-rule="evenodd" clip-rule="evenodd" d="M15.8631 19.8631C15.6339 20.0923 15.3231 20.221 14.999 20.221C14.6749 20.221 14.3641 20.0923 14.1349 19.8631L7.22079 12.949C7.10405 12.8363 7.01094 12.7014 6.94688 12.5523C6.88283 12.4032 6.84911 12.2428 6.8477 12.0805C6.84629 11.9182 6.87722 11.7573 6.93867 11.6071C7.00013 11.4569 7.09088 11.3204 7.20564 11.2056C7.32039 11.0909 7.45686 11.0001 7.60706 10.9387C7.75727 10.8772 7.91821 10.8463 8.0805 10.8477C8.24278 10.8491 8.40316 10.8828 8.55228 10.9469C8.7014 11.0109 8.83626 11.1041 8.94901 11.2208L14.999 17.2708L21.049 11.2208C21.2795 10.9981 21.5883 10.875 21.9087 10.8777C22.2292 10.8805 22.5357 11.0091 22.7623 11.2357C22.989 11.4623 23.1175 11.7688 23.1203 12.0893C23.1231 12.4098 22.9999 12.7185 22.7772 12.949L15.8631 19.8631Z" fill="#667085"/>
</g>
<defs>
<clipPath id="clip0_12568_5149">
<rect width="29.3333" height="29.3333" fill="white" transform="translate(0.332031 0.666016)"/>
</clipPath>
</defs>
</svg>
