<svg width="22" height="22" viewBox="0 0 22 22" fill="none" xmlns="http://www.w3.org/2000/svg">
<g id="mdi:paper-edit">
<path id="Vector" d="M18.7589 9.38433V8.49544L13.4031 3.16211H4.47668C3.48585 3.16211 2.69141 3.95322 2.69141 4.93989V17.3843C2.69141 17.8558 2.8795 18.308 3.2143 18.6414C3.54911 18.9748 4.0032 19.1621 4.47668 19.1621H9.83251V17.4999L17.3217 10.0421C17.7145 9.651 18.2144 9.43766 18.7589 9.38433ZM12.5104 4.49544L17.4199 9.38433H12.5104V4.49544ZM20.4103 13.1088L19.5355 13.9799L17.7145 12.1666L18.5893 11.2954C18.7589 11.1177 19.0535 11.1177 19.232 11.2954L20.4103 12.4688C20.5888 12.6466 20.5888 12.9399 20.4103 13.1088ZM17.0897 12.7888L18.9106 14.6021L13.4388 20.051H11.6178V18.2377L17.0897 12.7888Z" fill="#667085"/>
</g>
</svg>
