<svg xmlns="http://www.w3.org/2000/svg" width="28" height="28" viewBox="0 0 28 28" fill="none">
  <path d="M23.1829 9.41927L14.1745 15.1484L5.16616 9.41927V7.1276L14.1745 12.8568L23.1829 7.1276M23.1829 4.83594H5.16616C3.91624 4.83594 2.91406 5.85573 2.91406 7.1276V20.8776C2.91406 21.4854 3.15134 22.0683 3.57369 22.4981C3.99603 22.9278 4.56886 23.1693 5.16616 23.1693H23.1829C23.7802 23.1693 24.353 22.9278 24.7754 22.4981C25.1977 22.0683 25.435 21.4854 25.435 20.8776V7.1276C25.435 6.51982 25.1977 5.93692 24.7754 5.50715C24.353 5.07738 23.7802 4.83594 23.1829 4.83594Z" fill="white"/>
</svg>