<svg width="25" height="25" viewBox="0 0 25 25" fill="none" xmlns="http://www.w3.org/2000/svg">
<g clip-path="url(#clip0_10601_37204)">
<path d="M0.335938 9.16699H24.3359V14.417H0.335938V9.16699Z" fill="#E6E7E8"/>
<path d="M20.5859 3.54199H4.08594C1.60081 3.54199 0.335938 5.38887 0.335938 7.66699V9.16699H24.3359V7.66699C24.3359 5.38887 23.0711 3.54199 20.5859 3.54199Z" fill="#FF9933"/>
<path d="M0.335938 15.917C0.335938 18.1951 1.60081 20.042 4.08594 20.042H20.5859C23.0711 20.042 24.3359 18.1951 24.3359 15.917V14.417H0.335938V15.917Z" fill="#128807"/>
<path fill-rule="evenodd" clip-rule="evenodd" d="M12.453 9.38477C12.9321 9.38477 13.4005 9.52689 13.7988 9.79317C14.1972 10.0594 14.5076 10.4379 14.6908 10.8806C14.874 11.3234 14.9217 11.8105 14.8279 12.2804C14.7342 12.7502 14.5032 13.1817 14.1641 13.5203C13.825 13.8588 13.3932 14.0892 12.9232 14.1822C12.4531 14.2752 11.9661 14.2267 11.5236 14.0428C11.0812 13.859 10.7032 13.548 10.4376 13.1492C10.1719 12.7505 10.0305 12.2819 10.0313 11.8028C10.0323 11.1612 10.288 10.5462 10.742 10.0929C11.196 9.63953 11.8114 9.38486 12.453 9.38477ZM10.8386 10.4329C10.8803 10.4801 10.8878 10.5308 10.86 10.5731C10.8482 10.5927 10.8301 10.6075 10.8086 10.6151C10.7922 10.6213 10.7744 10.6233 10.757 10.6211C10.7396 10.6189 10.7229 10.6124 10.7085 10.6024C10.6433 10.6957 10.586 10.7943 10.5371 10.8971C10.5938 10.9343 10.6125 10.9808 10.5938 11.0321C10.5837 11.0583 10.5639 11.0795 10.5385 11.0913C10.5131 11.103 10.4841 11.1044 10.4576 11.0951C10.4306 11.1491 10.371 11.3771 10.3703 11.4251C10.3951 11.4299 10.4174 11.4433 10.4333 11.463C10.45 11.4826 10.4586 11.5078 10.4573 11.5335C10.4501 11.604 10.4066 11.634 10.3403 11.6366C10.3298 11.7045 10.3309 11.9318 10.3414 11.9764C10.4119 11.9839 10.449 12.0146 10.455 12.0683C10.4633 12.126 10.4355 12.1635 10.368 12.1898C10.3883 12.3011 10.4171 12.4106 10.455 12.5179C10.4814 12.5099 10.5098 12.5108 10.5356 12.5205C10.5608 12.5314 10.5806 12.5501 10.5911 12.576C10.6005 12.5963 10.6024 12.6173 10.5975 12.6394C10.594 12.6558 10.5867 12.6712 10.5762 12.6844C10.5658 12.6975 10.5524 12.7081 10.5371 12.7151C10.5874 12.8194 10.6429 12.9176 10.7085 13.0099C10.767 12.981 10.818 12.9878 10.8525 13.029C10.8677 13.046 10.8763 13.0678 10.8769 13.0905C10.878 13.1073 10.8751 13.1242 10.8683 13.1396C10.8615 13.155 10.8511 13.1685 10.8379 13.179C10.9129 13.2668 10.9928 13.347 11.0798 13.4209C11.1289 13.3778 11.1799 13.371 11.2238 13.4018C11.2436 13.4156 11.2575 13.434 11.2639 13.4565C11.2684 13.4724 11.2694 13.4892 11.2667 13.5055C11.264 13.5219 11.2576 13.5374 11.2481 13.551C11.343 13.6163 11.4409 13.6725 11.5433 13.7213C11.583 13.6654 11.6284 13.6466 11.6775 13.6654C11.6989 13.6731 11.7175 13.6871 11.7308 13.7055C11.7495 13.7355 11.7521 13.7685 11.7413 13.8038C11.8493 13.842 11.958 13.8713 12.0705 13.8911C12.0926 13.8278 12.1309 13.7981 12.1819 13.8019C12.2055 13.8038 12.2269 13.8109 12.2456 13.827C12.2719 13.851 12.2843 13.8814 12.282 13.9189C12.3975 13.9271 12.5104 13.9279 12.6225 13.9189C12.6308 13.8465 12.6596 13.8101 12.7178 13.8019C12.7398 13.7988 12.7623 13.8033 12.7815 13.8146C12.7955 13.8226 12.8076 13.8336 12.8168 13.8468C12.8261 13.8601 12.8322 13.8752 12.8348 13.8911C12.948 13.8701 13.0579 13.8413 13.164 13.8034C13.1546 13.7325 13.1719 13.6901 13.2195 13.668C13.2369 13.6606 13.2558 13.6576 13.2746 13.6594C13.2941 13.6609 13.3118 13.6669 13.326 13.6796C13.3399 13.6913 13.3515 13.7055 13.365 13.7201C13.4672 13.6719 13.5653 13.6153 13.6583 13.551C13.62 13.491 13.6425 13.4336 13.6736 13.4081C13.6845 13.3988 13.6971 13.3918 13.7107 13.3874C13.7243 13.383 13.7386 13.3814 13.7529 13.3826C13.7671 13.3838 13.781 13.3879 13.7936 13.3945C13.8063 13.4012 13.8175 13.4102 13.8266 13.4213C13.9133 13.347 13.9946 13.2664 14.0674 13.1798C14.025 13.1314 14.0168 13.0804 14.0479 13.0365C14.0605 13.0169 14.0798 13.0025 14.1023 12.996C14.1182 12.9909 14.1352 12.9896 14.1518 12.9922C14.1684 12.9947 14.1841 13.001 14.1979 13.0106C14.2635 12.9161 14.3205 12.8183 14.3693 12.7155C14.3145 12.6788 14.2946 12.6356 14.3111 12.5865C14.3171 12.5647 14.3303 12.5455 14.3486 12.5321C14.3632 12.522 14.3799 12.5153 14.3975 12.5127C14.4151 12.5101 14.433 12.5116 14.4499 12.5171C14.4743 12.4643 14.535 12.2415 14.5384 12.1875C14.5124 12.1828 14.489 12.169 14.4724 12.1485C14.4636 12.1384 14.4571 12.1266 14.4532 12.1138C14.4492 12.101 14.448 12.0876 14.4495 12.0743C14.4509 12.0505 14.4608 12.028 14.4773 12.0109C14.4885 11.999 14.5023 11.9898 14.5177 11.984C14.533 11.9781 14.5494 11.9758 14.5658 11.9771C14.5751 11.8637 14.5751 11.7497 14.5658 11.6363C14.4941 11.6291 14.46 11.6014 14.4506 11.5448C14.4464 11.5234 14.4496 11.5011 14.4596 11.4818C14.4674 11.4668 14.4785 11.4538 14.4921 11.4438C14.5057 11.4339 14.5214 11.4272 14.538 11.4244C14.5183 11.3124 14.4891 11.2022 14.4506 11.0951C14.3813 11.1068 14.3385 11.088 14.3156 11.04C14.3097 11.0272 14.3064 11.0133 14.3059 10.9992C14.3053 10.985 14.3077 10.9709 14.3126 10.9577C14.3176 10.9445 14.3252 10.9324 14.3349 10.9221C14.3447 10.9118 14.3563 10.9036 14.3693 10.8979C14.3207 10.7948 14.2633 10.6961 14.1979 10.6028C14.1375 10.6316 14.0884 10.6249 14.0539 10.5836C14.0386 10.5662 14.03 10.5438 14.0299 10.5206C14.0292 10.5042 14.0323 10.4877 14.0391 10.4727C14.0459 10.4577 14.0561 10.4444 14.0689 10.434C13.9948 10.3473 13.9142 10.2665 13.8278 10.1921C13.776 10.2364 13.7258 10.242 13.683 10.2113C13.6636 10.1983 13.6494 10.1789 13.6429 10.1565C13.6382 10.1408 13.6372 10.1242 13.6399 10.108C13.6427 10.0918 13.6491 10.0765 13.6586 10.0631C13.5651 9.99798 13.4664 9.94065 13.3635 9.89177C13.3249 9.94727 13.2814 9.96564 13.2323 9.94914C13.2105 9.94218 13.1915 9.92853 13.1779 9.91014C13.168 9.89551 13.1617 9.87875 13.1595 9.86123C13.1572 9.8437 13.1592 9.8259 13.1651 9.80927C13.0581 9.77058 12.948 9.74134 12.8359 9.72189C12.8145 9.78264 12.7759 9.81414 12.726 9.81114C12.7027 9.81039 12.6803 9.80195 12.6623 9.78714C12.6489 9.77586 12.6384 9.76151 12.6318 9.74531C12.6253 9.72911 12.6227 9.71155 12.6244 9.69414C12.5111 9.68451 12.3972 9.68464 12.2839 9.69452C12.276 9.76202 12.2468 9.80064 12.1969 9.80889C12.1745 9.81368 12.1511 9.81077 12.1305 9.80064C12.1152 9.79305 12.1019 9.78192 12.0917 9.76816C12.0815 9.75439 12.0748 9.73841 12.072 9.72152C11.9599 9.7419 11.8497 9.77137 11.7424 9.80964C11.7544 9.87602 11.7356 9.91952 11.6899 9.94314C11.67 9.95327 11.649 9.95739 11.6258 9.95327C11.6083 9.95088 11.5917 9.94399 11.5777 9.93328C11.5637 9.92256 11.5527 9.90838 11.5459 9.89214C11.4818 9.91614 11.2778 10.0343 11.2508 10.0639C11.2785 10.1194 11.2721 10.1685 11.2339 10.2038C11.2231 10.2133 11.2105 10.2206 11.1968 10.2252C11.1831 10.2297 11.1687 10.2315 11.1543 10.2304C11.1399 10.2293 11.1259 10.2253 11.1131 10.2186C11.1003 10.212 11.089 10.2029 11.0798 10.1918C10.9932 10.2657 10.9126 10.3464 10.8386 10.4329Z" fill="#26435F"/>
<path fill-rule="evenodd" clip-rule="evenodd" d="M13.4943 13.6006C13.4898 13.5958 13.4853 13.5924 13.4819 13.5871C13.2639 13.2539 13.0453 12.921 12.8261 12.5885C12.8212 12.5791 12.8156 12.5698 12.8111 12.5593C12.7601 12.4404 12.7102 12.3215 12.6581 12.203C12.6563 12.1969 12.6539 12.191 12.6509 12.1854C12.6299 12.1933 12.6108 12.2023 12.5883 12.2109L12.5958 12.23C12.6427 12.3451 12.6877 12.4606 12.7353 12.5758C12.7481 12.6065 12.7533 12.6388 12.7601 12.671C12.7968 12.8431 12.8313 13.016 12.8684 13.1885L12.9952 13.8046C12.9958 13.8061 12.996 13.8077 12.9958 13.8093C12.9956 13.8109 12.995 13.8124 12.9941 13.8136L12.9888 13.8005C12.8861 13.4859 12.7807 13.1716 12.6776 12.857C12.6569 12.7955 12.6386 12.7348 12.6161 12.6733C12.6056 12.6425 12.6022 12.611 12.5973 12.5791C12.5842 12.4899 12.5729 12.3999 12.5583 12.3106C12.5564 12.2893 12.5531 12.2683 12.5501 12.2476C12.5491 12.2391 12.5478 12.2306 12.5459 12.2221C12.5234 12.2244 12.5028 12.2274 12.4803 12.23C12.4803 12.239 12.4811 12.2484 12.4818 12.2578C12.4949 12.3676 12.5062 12.4779 12.5219 12.5874C12.5302 12.6474 12.5261 12.7063 12.5227 12.7663C12.5204 12.8169 12.5171 12.8675 12.5148 12.9185C12.5081 13.0213 12.5028 13.1236 12.4957 13.226L12.4844 13.4375C12.4781 13.5575 12.4706 13.6771 12.4642 13.7964C12.4612 13.8301 12.4604 13.8646 12.4571 13.8976L12.4481 13.784L12.4364 13.538L12.4229 13.3186C12.4192 13.2436 12.4143 13.169 12.4102 13.094C12.4068 13.0449 12.4049 12.9958 12.4019 12.9474C12.3978 12.8698 12.3929 12.7921 12.3892 12.7153C12.3855 12.6743 12.3865 12.633 12.3922 12.5923C12.4001 12.5368 12.4061 12.4801 12.4128 12.4239C12.4203 12.3684 12.4267 12.3125 12.4334 12.2578C12.4342 12.2491 12.4342 12.2401 12.4353 12.23L12.3697 12.2214C12.3678 12.2364 12.3644 12.251 12.3618 12.266C12.3462 12.3806 12.3302 12.4951 12.3138 12.6095C12.3093 12.6541 12.2917 12.6954 12.2767 12.737C12.1612 13.0888 12.0453 13.4409 11.9283 13.7923C11.9257 13.7986 11.9246 13.8046 11.9197 13.8106C11.9197 13.8061 11.9197 13.8028 11.9216 13.7986C11.9699 13.5616 12.0187 13.3243 12.0689 13.0873C12.1012 12.9298 12.1346 12.7726 12.1664 12.6155L12.1754 12.5896C12.2238 12.4708 12.2703 12.3508 12.3198 12.2319C12.3215 12.2249 12.3241 12.2181 12.3273 12.2116C12.3067 12.2028 12.2859 12.1942 12.2651 12.1858C12.2624 12.1925 12.2583 12.1981 12.2561 12.2049C12.2043 12.3241 12.1537 12.4438 12.1019 12.563C12.0987 12.572 12.0947 12.5806 12.0899 12.5889C11.8687 12.9241 11.648 13.2597 11.4281 13.5958C11.425 13.6008 11.4211 13.6053 11.4164 13.6089C11.4183 13.6029 11.4217 13.598 11.4239 13.5928L11.9662 12.5176C11.9709 12.5079 11.9766 12.4987 11.9834 12.4903L12.2152 12.1794C12.2201 12.1741 12.2231 12.1693 12.2276 12.1636C12.2084 12.1498 12.1931 12.137 12.1739 12.1224C12.1698 12.1273 12.1661 12.1314 12.1627 12.1363C12.0817 12.2379 12.0018 12.3403 11.9227 12.4415C11.9137 12.4509 11.9054 12.4606 11.8953 12.4693C11.5998 12.7336 11.3043 12.9965 11.0077 13.2613C11.0017 13.2661 10.9957 13.2714 10.9882 13.2748C10.9916 13.2714 10.9934 13.2673 10.9957 13.2646C11.2391 12.9928 11.4806 12.7213 11.7228 12.4494C11.7367 12.4344 11.7506 12.4194 11.7637 12.4033C11.7914 12.371 11.8226 12.3425 11.8563 12.317L12.1256 12.1051C12.1316 12.1006 12.1361 12.0958 12.1428 12.0913C12.1295 12.0733 12.1158 12.0557 12.1016 12.0384C12.0956 12.0421 12.0907 12.0459 12.0851 12.05C11.9819 12.1273 11.8784 12.2038 11.7753 12.2814C11.7638 12.2901 11.7515 12.2977 11.7386 12.3043C11.3864 12.482 11.0324 12.6598 10.6796 12.8375C10.6728 12.8405 10.6664 12.8443 10.6586 12.8443L10.6728 12.8341L11.3313 12.4029C11.4461 12.3275 11.5612 12.2521 11.6752 12.1764C11.6849 12.1708 11.6951 12.1659 11.7037 12.1614C11.8233 12.1108 11.9426 12.0598 12.0611 12.0088C12.0667 12.0065 12.0723 12.0043 12.0791 12.0009L12.0539 11.939C12.0468 11.9409 12.0423 11.9428 12.0367 11.9446C11.9152 11.993 11.7948 12.0421 11.6726 12.0901C11.6474 12.0995 11.6201 12.104 11.5934 12.1096L10.7741 12.2799C10.6709 12.302 10.5659 12.3238 10.4624 12.3451C10.4583 12.3461 10.4539 12.3456 10.4501 12.3436C10.4786 12.3346 10.5071 12.3245 10.5352 12.3151C10.8892 12.1985 11.2428 12.0823 11.5957 11.9649C11.6234 11.9555 11.6531 11.9529 11.6812 11.9484C11.7952 11.9326 11.9088 11.9161 12.0217 11.9C12.0286 11.8988 12.0355 11.8973 12.0423 11.8955C12.0401 11.8738 12.0367 11.852 12.0348 11.8295L11.9801 11.8355L11.7536 11.8629C11.7112 11.8685 11.6692 11.873 11.6276 11.8783C11.6174 11.8794 11.6077 11.8798 11.5979 11.8794L11.3594 11.8655L11.2184 11.8576L10.9754 11.8434L10.6211 11.8239C10.5356 11.8194 10.4523 11.8138 10.3672 11.8078C10.3807 11.8066 10.3957 11.8044 10.4103 11.8044L10.7009 11.7879L11.0849 11.7661L11.4029 11.7481L11.6024 11.7361C11.6103 11.7358 11.6197 11.7369 11.6276 11.7376L11.8563 11.765L12.0183 11.7845H12.0348C12.0367 11.7631 12.0401 11.7429 12.0423 11.7196C12.0284 11.7166 12.0127 11.7144 11.9988 11.7118C11.8987 11.6979 11.7993 11.6833 11.6992 11.6686C11.6784 11.6663 11.6576 11.6635 11.6369 11.6604C11.6255 11.6588 11.6142 11.6562 11.6032 11.6525C11.3051 11.5546 11.0088 11.456 10.7111 11.3581C10.6282 11.331 10.5455 11.3035 10.4628 11.2756C10.4557 11.2737 10.4489 11.2706 10.4429 11.2663L10.4951 11.2768L11.1314 11.4091C11.3017 11.4448 11.4746 11.48 11.6448 11.516C11.6551 11.5183 11.6651 11.5214 11.6748 11.5254C11.7948 11.5726 11.9137 11.6214 12.0348 11.6694L12.0528 11.6765C12.0611 11.6559 12.0701 11.636 12.0791 11.6146C12.073 11.611 12.0666 11.6079 12.0599 11.6053C11.9407 11.555 11.8218 11.5036 11.7029 11.4523C11.6936 11.4483 11.6846 11.4437 11.6759 11.4384C11.3396 11.2183 11.0047 10.997 10.6679 10.7765C10.6635 10.774 10.66 10.7702 10.6578 10.7656L10.6713 10.7731C11.0066 10.9419 11.3422 11.1106 11.6782 11.279C11.7337 11.3068 11.7877 11.3401 11.8372 11.378C11.9189 11.4414 12.0022 11.5021 12.0854 11.5644C12.0911 11.5685 12.0959 11.5723 12.1019 11.576L12.1432 11.5239L12.1286 11.5111L11.8237 11.2715C11.8132 11.2633 11.8049 11.2546 11.7959 11.2456C11.5304 10.9483 11.2646 10.6505 10.9998 10.3531C10.996 10.3501 10.993 10.3461 10.9912 10.3415C10.9991 10.3423 11.0021 10.3475 11.0054 10.3509C11.1663 10.4934 11.3257 10.6359 11.4854 10.7784L11.8987 11.1466C11.9062 11.1534 11.9133 11.1616 11.9201 11.1691L12.1567 11.4699C12.1627 11.4766 12.1672 11.4838 12.1739 11.4928L12.2283 11.4511C12.2249 11.4459 12.2204 11.4418 12.2178 11.4369C12.1406 11.3338 12.0637 11.2303 11.9857 11.1275C11.9777 11.1154 11.9703 11.1029 11.9636 11.09C11.7836 10.7356 11.6051 10.3798 11.4262 10.025C11.4228 10.0183 11.4194 10.013 11.4187 10.0059C11.4221 10.0096 11.4254 10.013 11.4277 10.0164L11.8109 10.6021L12.0821 11.0146C12.0914 11.0304 12.1019 11.0469 12.1079 11.0641C12.1586 11.1796 12.2073 11.2955 12.2564 11.411C12.2598 11.4163 12.2621 11.4219 12.2654 11.4286L12.3277 11.4028L12.3209 11.387C12.2741 11.27 12.2283 11.153 12.1807 11.0368C12.1676 11.0071 12.1627 10.9764 12.1563 10.9456C12.1154 10.7503 12.0761 10.5545 12.0352 10.3588C11.9951 10.1705 11.9568 9.98376 11.9174 9.79476C11.9167 9.79364 11.9174 9.79214 11.9189 9.78839L11.9519 9.88851C12.0697 10.2421 12.1863 10.5965 12.3018 10.9509C12.3116 10.9786 12.3149 11.009 12.3191 11.0379C12.3329 11.1361 12.3468 11.2351 12.3626 11.3341C12.3652 11.3529 12.3663 11.3716 12.3701 11.3923L12.4353 11.384V11.3593C12.4259 11.2809 12.4158 11.2021 12.4068 11.1241C12.4012 11.0784 12.3971 11.0338 12.3907 10.9891C12.3869 10.9591 12.3869 10.9288 12.3907 10.8988C12.3933 10.8478 12.3971 10.7971 12.3993 10.7465L12.4177 10.4409C12.4211 10.3861 12.4222 10.3306 12.4256 10.2759C12.4304 10.2046 12.4342 10.1323 12.4383 10.0606C12.4417 10.0081 12.4443 9.95526 12.4466 9.90314C12.4496 9.84126 12.4544 9.77976 12.4597 9.71826C12.4612 9.73514 12.4619 9.75239 12.4627 9.77039C12.4679 9.84576 12.4717 9.92114 12.4762 9.99689L12.4957 10.3404L12.5073 10.5331C12.5133 10.6445 12.5186 10.7563 12.5249 10.8676C12.5268 10.8845 12.5276 10.9003 12.5287 10.9168C12.5336 10.9603 12.5249 11.0034 12.5212 11.0465L12.4972 11.243C12.4934 11.2801 12.4878 11.3173 12.4833 11.3548C12.4826 11.3638 12.4826 11.3735 12.4799 11.3844C12.5032 11.3878 12.5242 11.39 12.5474 11.393C12.5508 11.3769 12.5523 11.3619 12.5549 11.3461C12.5729 11.2243 12.5902 11.1024 12.6074 10.9798C12.6089 10.9708 12.6127 10.9614 12.6149 10.952C12.7372 10.5853 12.8572 10.2181 12.9787 9.85064C12.9847 9.83376 12.9892 9.81764 12.9986 9.80151C12.9976 9.81007 12.9962 9.81857 12.9944 9.82701C12.9397 10.0925 12.8827 10.3573 12.8283 10.622C12.8039 10.7461 12.7781 10.8706 12.7522 10.9948C12.7504 11.005 12.7471 11.015 12.7424 11.0244L12.5977 11.3863C12.5951 11.3915 12.5932 11.3971 12.5906 11.4039C12.6131 11.4125 12.6314 11.4211 12.6532 11.4298L12.6618 11.4118L12.8129 11.0566C12.8189 11.0446 12.8234 11.033 12.8313 11.0233L13.4857 10.025C13.4898 10.0198 13.4932 10.0145 13.4996 10.0108C13.4969 10.016 13.4951 10.0213 13.4917 10.0265L12.9536 11.0953C12.9479 11.1054 12.9423 11.1155 12.9356 11.1245C12.8576 11.2284 12.7792 11.3323 12.7023 11.4354C12.6986 11.4413 12.6945 11.4469 12.6899 11.4523L12.7432 11.4939C12.7474 11.4894 12.7513 11.4847 12.7548 11.4796C12.8343 11.3784 12.9134 11.2768 12.9941 11.1755C13.0029 11.1641 13.0129 11.1536 13.0237 11.144C13.3199 10.8793 13.6166 10.6149 13.9132 10.3509C13.9181 10.3468 13.9214 10.3426 13.9293 10.3404L13.9196 10.3524C13.7984 10.4893 13.6773 10.6254 13.5543 10.7615C13.4081 10.9246 13.2637 11.0874 13.1186 11.2505C13.1111 11.2588 13.1021 11.2659 13.0942 11.2726L12.7893 11.5123L12.7743 11.5243C12.7886 11.5423 12.8013 11.5595 12.8163 11.5775L12.8324 11.5655L13.1448 11.3315C13.1528 11.3258 13.161 11.3206 13.1696 11.3158C13.5296 11.135 13.8873 10.955 14.2451 10.7743C14.2511 10.7716 14.2559 10.7694 14.2623 10.7694C14.2458 10.7803 14.2304 10.7908 14.2139 10.8009C13.8903 11.0135 13.5667 11.2261 13.2419 11.4388C13.2329 11.444 13.2247 11.4493 13.2149 11.4534C13.0953 11.5051 12.9746 11.5561 12.8561 11.6075L12.8369 11.615C12.8471 11.636 12.8542 11.6559 12.8632 11.6769L12.8804 11.6713C13.0008 11.6236 13.1204 11.5738 13.2419 11.5276C13.2719 11.5156 13.3049 11.5104 13.3376 11.5036L13.8899 11.3889C14.0617 11.3536 14.2319 11.3176 14.4041 11.282C14.4198 11.2786 14.4344 11.2753 14.4509 11.2723C14.4551 11.2723 14.4588 11.2715 14.4648 11.2738L14.4123 11.291C14.0459 11.4121 13.6807 11.5329 13.3143 11.6525C13.2866 11.6623 13.2558 11.6649 13.2269 11.6694C13.1448 11.6818 13.0638 11.6926 12.9839 11.7043C12.9547 11.7084 12.9258 11.7129 12.8966 11.7166L12.8752 11.7204C12.8774 11.7425 12.8808 11.7631 12.8823 11.7871L12.9389 11.7811L13.1414 11.7571C13.1921 11.7508 13.2449 11.7436 13.2978 11.7388C13.3214 11.7369 13.3454 11.7391 13.3698 11.7403C13.4212 11.7425 13.4726 11.747 13.5262 11.7493L13.8292 11.7673C13.8742 11.7699 13.9192 11.7718 13.9657 11.7748L14.2747 11.7924C14.3478 11.7969 14.4232 11.8003 14.4959 11.8048C14.514 11.8058 14.532 11.8074 14.5499 11.8096L14.4952 11.8141L14.2683 11.8265L13.9874 11.843L13.7756 11.8543C13.6781 11.8603 13.5787 11.8659 13.4804 11.8723C13.4264 11.8745 13.3709 11.8798 13.3166 11.8801C13.2854 11.8809 13.2528 11.8749 13.2224 11.8715C13.1558 11.8637 13.0892 11.8557 13.0226 11.8475L12.8947 11.8321H12.8823C12.8808 11.8539 12.8774 11.8753 12.8752 11.8981C13.0074 11.9177 13.1396 11.9368 13.2719 11.9555C13.3109 11.9604 13.3451 11.9758 13.3818 11.9874L14.4483 12.3395C14.4552 12.341 14.4618 12.3439 14.4674 12.3481C14.4584 12.3466 14.4498 12.3451 14.4408 12.3444L13.5146 12.1513L13.2701 12.1003C13.2622 12.098 13.2517 12.095 13.2431 12.0909C13.1227 12.0433 13.0019 11.9945 12.8808 11.9461L12.8647 11.9405C12.8559 11.961 12.8468 11.9814 12.8373 12.0016L12.8572 12.011C12.9768 12.062 13.0957 12.1126 13.2146 12.164C13.2239 12.1681 13.2333 12.173 13.2431 12.1798L14.2413 12.8338C14.2462 12.8375 14.2526 12.842 14.2567 12.8491C14.2518 12.8461 14.2462 12.8443 14.2421 12.8413L13.7219 12.5803C13.5404 12.488 13.3574 12.3965 13.1741 12.3043C13.1624 12.2985 13.1514 12.2913 13.1414 12.2829C13.0383 12.206 12.9341 12.1288 12.8309 12.0511C12.8264 12.0473 12.8215 12.0437 12.8163 12.0406C12.8021 12.0579 12.7893 12.0748 12.7743 12.0928L12.7886 12.104C12.8891 12.1843 12.9914 12.2645 13.0923 12.3444C13.1038 12.3526 13.1142 12.3622 13.1234 12.3729L13.9181 13.262C13.9213 13.2665 13.9238 13.2714 13.9256 13.2766C13.9214 13.2721 13.9158 13.2691 13.9117 13.2658C13.6136 12.9991 13.3151 12.734 13.0162 12.4678C13.0094 12.4617 13.0034 12.455 12.9982 12.4475L12.7552 12.1378C12.7518 12.1329 12.7477 12.1284 12.7436 12.1235C12.7263 12.1378 12.7094 12.1505 12.6922 12.1655C12.6937 12.17 12.6971 12.1749 12.7001 12.1794L12.9359 12.4936C12.9427 12.5028 12.9487 12.5124 12.9539 12.5225C13.1328 12.8773 13.3113 13.2328 13.4898 13.5879C13.4927 13.5927 13.4946 13.5981 13.4954 13.6036H13.4943V13.6006Z" fill="#26435F"/>
<path fill-rule="evenodd" clip-rule="evenodd" d="M13.4922 13.6011C13.4959 13.6048 13.4982 13.6089 13.5012 13.6123C13.4993 13.6131 13.4993 13.6142 13.4971 13.6146C13.4963 13.6093 13.4937 13.6059 13.4929 13.6011H13.4922Z" fill="#26435F"/>
</g>
<defs>
<clipPath id="clip0_10601_37204">
<rect width="24" height="24" fill="white" transform="translate(0.335938 0.167969)"/>
</clipPath>
</defs>
</svg>
