<svg width="148" height="34" viewBox="0 0 148 34" fill="none" xmlns="http://www.w3.org/2000/svg">
<path d="M0 4.33126C0 4.16404 0.217699 4.09949 0.308849 4.23969L10.9778 20.6498C11.0211 20.7163 11.0119 20.804 10.9558 20.8601L0.286793 31.529C0.180959 31.6349 0 31.5599 0 31.4103V4.33126Z" fill="#FFA28D"/>
<path d="M28.575 32.9058C28.7422 32.9058 28.8067 32.6881 28.6665 32.597L12.2565 21.9284C12.1899 21.8851 12.1022 21.8943 12.0461 21.9504L1.37714 32.619C1.2713 32.7249 1.34626 32.9058 1.49593 32.9058H28.575Z" fill="#FFA28D"/>
<path d="M1.16845 3.16992C1.00063 3.16992 0.936521 3.38887 1.07783 3.47939L17.5793 14.0499C17.6458 14.0924 17.7329 14.083 17.7887 14.0272L28.3592 3.45672C28.465 3.35088 28.3901 3.16992 28.2404 3.16992H1.16845Z" fill="#FFA28D"/>
<path d="M29.7363 31.7377C29.7363 31.9055 29.5174 31.9697 29.4269 31.8283L18.8564 15.3269C18.8138 15.2605 18.8232 15.1733 18.879 15.1175L29.4495 4.54704C29.5554 4.44121 29.7363 4.51617 29.7363 4.66584V31.7377Z" fill="#FFA28D"/>
<path d="M53.0351 33.1699H37.9278C37.281 33.1699 36.9576 32.8465 36.9576 32.1997V4.43356C36.9576 3.78676 37.281 3.46336 37.9278 3.46336H53.0351C53.6511 3.46336 53.9591 3.78676 53.9591 4.43356V7.57516C53.9591 8.22195 53.6511 8.54535 53.0351 8.54535H43.3794C43.0098 8.54535 42.825 8.71475 42.825 9.05355V15.0595C42.825 15.3983 43.0098 15.5677 43.3794 15.5677H51.2795C51.9263 15.5677 52.2497 15.8911 52.2497 16.5379V19.6795C52.2497 20.3263 51.9263 20.6497 51.2795 20.6497H43.3794C43.0098 20.6497 42.825 20.8191 42.825 21.1579V27.5797C42.825 27.9185 43.0098 28.0879 43.3794 28.0879H53.0351C53.6511 28.0879 53.9591 28.4113 53.9591 29.0581V32.1997C53.9591 32.8465 53.6511 33.1699 53.0351 33.1699ZM57.5866 9.60795H61.6522C62.2682 9.60795 62.6378 9.93135 62.761 10.5782L66.7341 27.9493H67.0575L70.9383 10.5782C71.0615 9.93135 71.4465 9.60795 72.0933 9.60795H76.1589C76.8057 9.60795 77.0367 9.93135 76.8519 10.5782L71.0307 32.1535C70.9075 32.8311 70.4917 33.1699 69.7833 33.1699H63.916C63.2692 33.1699 62.8534 32.8311 62.6686 32.1535L56.8936 10.5782C56.7088 9.93135 56.9398 9.60795 57.5866 9.60795ZM88.4839 33.1699H87.3751C84.9419 33.1699 83.0631 32.5231 81.7387 31.2295C80.4143 29.9359 79.7521 28.0725 79.7521 25.6393V17.1385C79.7521 14.7053 80.4143 12.8419 81.7387 11.5484C83.0631 10.2548 84.9419 9.60795 87.3751 9.60795H98.0472C98.7248 9.60795 99.0636 9.93135 99.0636 10.5782V32.1997C99.0636 32.8465 98.7248 33.1699 98.0472 33.1699H94.1664C93.5196 33.1699 93.1962 32.8465 93.1962 32.1997V30.6751H93.0114C92.6726 31.5067 92.072 32.1381 91.2096 32.5693C90.3472 32.9697 89.4386 33.1699 88.4839 33.1699ZM93.1962 24.5767V15.1981C93.1962 14.8593 93.0114 14.6899 92.6418 14.6899H88.2991C87.3135 14.6899 86.6205 14.9055 86.2201 15.3367C85.8197 15.7371 85.6195 16.4301 85.6195 17.4157V25.3621C85.6195 26.3477 85.8197 27.0561 86.2201 27.4873C86.6205 27.8877 87.3135 28.0879 88.2991 28.0879H90.0084C92.1336 28.0879 93.1962 26.9175 93.1962 24.5767ZM109.254 33.1699H105.327C104.681 33.1699 104.357 32.8465 104.357 32.1997V1.66156C104.357 1.01477 104.681 0.691367 105.327 0.691367H109.254C109.901 0.691367 110.225 1.01477 110.225 1.66156V32.1997C110.225 32.8465 109.901 33.1699 109.254 33.1699ZM120.669 33.1699H116.742C116.095 33.1699 115.772 32.8465 115.772 32.1997V1.66156C115.772 1.01477 116.095 0.691367 116.742 0.691367H120.669C121.316 0.691367 121.639 1.01477 121.639 1.66156V32.1997C121.639 32.8465 121.316 33.1699 120.669 33.1699ZM138.228 33.1699H134.116C131.683 33.1699 129.804 32.5231 128.48 31.2295C127.156 29.9359 126.493 28.0725 126.493 25.6393V17.1385C126.493 14.7053 127.156 12.8419 128.48 11.5484C129.804 10.2548 131.683 9.60795 134.116 9.60795H138.228C140.631 9.60795 142.494 10.2702 143.818 11.5946C145.174 12.8881 145.851 14.7361 145.851 17.1385V25.6393C145.851 28.0417 145.174 29.9051 143.818 31.2295C142.494 32.5231 140.631 33.1699 138.228 33.1699ZM134.994 28.1341H137.35C138.336 28.1341 139.029 27.9339 139.429 27.5335C139.861 27.1331 140.076 26.4401 140.076 25.4545V17.3233C140.076 16.3377 139.861 15.6447 139.429 15.2443C139.029 14.8439 138.336 14.6437 137.35 14.6437H134.994C134.009 14.6437 133.316 14.8439 132.915 15.2443C132.515 15.6447 132.315 16.3377 132.315 17.3233V25.4545C132.315 26.4401 132.515 27.1331 132.915 27.5335C133.316 27.9339 134.009 28.1341 134.994 28.1341Z" fill="white"/>
</svg>
