<svg width="24" height="24" viewBox="0 0 24 24" fill="none" xmlns="http://www.w3.org/2000/svg">
<g id="file 1">
<g id="Group">
<path id="Vector" fill-rule="evenodd" clip-rule="evenodd" d="M4.51712 2.35111C5.04457 1.82366 5.75994 1.52734 6.50586 1.52734H14.4746C14.7232 1.52734 14.9617 1.62612 15.1375 1.80193L20.2938 6.95818C20.4695 7.134 20.5683 7.37245 20.5683 7.62109V19.3398C20.5683 20.0858 20.272 20.8011 19.7446 21.3286C19.2171 21.856 18.5018 22.1523 17.7558 22.1523H4.63086C4.1131 22.1523 3.69336 21.7326 3.69336 21.2148C3.69336 20.6971 4.1131 20.2773 4.63086 20.2773H17.7558C18.0045 20.2773 18.243 20.1785 18.4188 20.0028C18.5945 19.827 18.6933 19.5885 18.6933 19.3398V8.00942L14.0863 3.40234H6.50586C6.25721 3.40234 6.01876 3.50112 5.84294 3.67693C5.66713 3.85275 5.56836 4.0912 5.56836 4.33984V8.08984C5.56836 8.60761 5.14862 9.02734 4.63086 9.02734C4.1131 9.02734 3.69336 8.60761 3.69336 8.08984V4.33984C3.69336 3.59392 3.98967 2.87855 4.51712 2.35111Z" fill="white"/>
<path id="Vector_2" fill-rule="evenodd" clip-rule="evenodd" d="M14.0059 1.52734C14.5236 1.52734 14.9434 1.94708 14.9434 2.46484V7.15234H19.6309C20.1486 7.15234 20.5684 7.57208 20.5684 8.08984C20.5684 8.60761 20.1486 9.02734 19.6309 9.02734H14.0059C13.4881 9.02734 13.0684 8.60761 13.0684 8.08984V2.46484C13.0684 1.94708 13.4881 1.52734 14.0059 1.52734Z" fill="white"/>
<path id="Vector_3" fill-rule="evenodd" clip-rule="evenodd" d="M1.81836 14.6523C1.81836 14.1346 2.2381 13.7148 2.75586 13.7148H12.1309C12.6486 13.7148 13.0684 14.1346 13.0684 14.6523C13.0684 15.1701 12.6486 15.5898 12.1309 15.5898H2.75586C2.2381 15.5898 1.81836 15.1701 1.81836 14.6523Z" fill="white"/>
<path id="Vector_4" fill-rule="evenodd" clip-rule="evenodd" d="M8.65544 11.1769C9.02157 10.8108 9.61515 10.8108 9.98127 11.1769L12.7938 13.9894C13.1599 14.3555 13.1599 14.9491 12.7938 15.3152L9.98127 18.1277C9.61515 18.4938 9.02157 18.4938 8.65544 18.1277C8.28933 17.7616 8.28933 17.168 8.65544 16.8019L10.805 14.6523L8.65544 12.5027C8.28933 12.1366 8.28933 11.543 8.65544 11.1769Z" fill="white"/>
</g>
</g>
</svg>
