<svg width="40" height="40" viewBox="0 0 40 40" fill="none" xmlns="http://www.w3.org/2000/svg">
<path d="M8.86484 24.1711L7.4725 29.3689L2.38352 29.4766C0.862656 26.6557 0 23.4283 0 19.9986C0 16.6821 0.806563 13.5546 2.23625 10.8008H2.23734L6.76797 11.6314L8.75266 16.1348C8.33727 17.3459 8.11086 18.6459 8.11086 19.9986C8.11102 21.4667 8.37695 22.8734 8.86484 24.1711Z" fill="#FBBB00"/>
<path d="M39.6523 16.2617C39.882 17.4716 40.0017 18.721 40.0017 19.998C40.0017 21.4298 39.8512 22.8266 39.5644 24.1738C38.5908 28.7584 36.0468 32.7617 32.5227 35.5947L32.5216 35.5936L26.815 35.3024L26.0073 30.2606C28.3458 28.8892 30.1733 26.743 31.1359 24.1738H20.4414V16.2617H31.292H39.6523Z" fill="#518EF8"/>
<path d="M32.5191 35.593L32.5202 35.5941C29.0927 38.349 24.7388 39.9973 19.9993 39.9973C12.3828 39.9973 5.76086 35.7402 2.38281 29.4754L8.86414 24.1699C10.5531 28.6776 14.9015 31.8864 19.9993 31.8864C22.1905 31.8864 24.2433 31.2941 26.0048 30.26L32.5191 35.593Z" fill="#28B446"/>
<path d="M32.7641 4.60242L26.2849 9.9068C24.4619 8.76727 22.3069 8.10899 19.9981 8.10899C14.7849 8.10899 10.3552 11.465 8.75086 16.1343L2.23547 10.8002H2.23438C5.56297 4.38266 12.2684 -0.00195312 19.9981 -0.00195312C24.8509 -0.00195312 29.3003 1.72664 32.7641 4.60242Z" fill="#F14336"/>
</svg>
