<svg width="21" height="21" viewBox="0 0 21 21" fill="none" xmlns="http://www.w3.org/2000/svg">
<g id="ic:baseline-local-phone">
<path id="Vector" d="M5.84479 9.32419C7.04479 11.6825 8.97813 13.6075 11.3365 14.8159L13.1698 12.9825C13.3948 12.7575 13.7281 12.6825 14.0198 12.7825C14.9531 13.0909 15.9615 13.2575 16.9948 13.2575C17.4531 13.2575 17.8281 13.6325 17.8281 14.0909V16.9992C17.8281 17.4575 17.4531 17.8325 16.9948 17.8325C9.16979 17.8325 2.82812 11.4909 2.82812 3.66585C2.82812 3.20752 3.20312 2.83252 3.66146 2.83252H6.57812C7.03646 2.83252 7.41146 3.20752 7.41146 3.66585C7.41146 4.70752 7.57812 5.70752 7.88646 6.64085C7.97812 6.93252 7.91146 7.25752 7.67812 7.49085L5.84479 9.32419Z" fill="white"/>
</g>
</svg>
