<svg width="30" height="30" viewBox="0 0 30 30" fill="none" xmlns="http://www.w3.org/2000/svg">
<path d="M24.4453 5.39478H4.88976C3.53309 5.39478 2.45753 6.48255 2.45753 7.83922L2.44531 22.5059C2.44531 23.8626 3.53309 24.9503 4.88976 24.9503H24.4453C25.802 24.9503 26.8898 23.8626 26.8898 22.5059V7.83922C26.8898 6.48255 25.802 5.39478 24.4453 5.39478ZM23.2231 22.5059H6.11198C5.43976 22.5059 4.88976 21.9559 4.88976 21.2837V15.1726H24.4453V21.2837C24.4453 21.9559 23.8953 22.5059 23.2231 22.5059ZM24.4453 10.2837H4.88976V9.06144C4.88976 8.38922 5.43976 7.83922 6.11198 7.83922H23.2231C23.8953 7.83922 24.4453 8.38922 24.4453 9.06144V10.2837Z" fill="white"/>
</svg>
