<svg width="9" height="5" viewBox="0 0 9 5" fill="none" xmlns="http://www.w3.org/2000/svg">
<path d="M4.33348 4.89495C4.23112 4.89554 4.12965 4.87592 4.03488 4.83721C3.94012 4.79851 3.85393 4.74148 3.78126 4.66939L0.670144 1.55828C0.597625 1.48576 0.5401 1.39967 0.500854 1.30492C0.461607 1.21017 0.441406 1.10861 0.441406 1.00606C0.441406 0.9035 0.461607 0.801947 0.500854 0.707197C0.5401 0.612446 0.597625 0.526354 0.670144 0.453835C0.742663 0.381316 0.828756 0.323791 0.923506 0.284544C1.01826 0.245297 1.11981 0.225098 1.22237 0.225098C1.32492 0.225098 1.42648 0.245297 1.52123 0.284544C1.61598 0.323791 1.70207 0.381316 1.77459 0.453835L4.33348 3.02828L6.90014 0.554946C6.97169 0.475388 7.05889 0.411448 7.15628 0.367125C7.25366 0.322803 7.35915 0.299051 7.46613 0.297356C7.57312 0.295661 7.67931 0.316059 7.77805 0.357274C7.87679 0.398489 7.96597 0.459636 8.04 0.536888C8.11403 0.61414 8.17133 0.705837 8.20831 0.806244C8.24529 0.90665 8.26115 1.01361 8.25491 1.12042C8.24866 1.22724 8.22045 1.33162 8.17202 1.42704C8.1236 1.52245 8.05601 1.60685 7.97348 1.67495L4.86237 4.67717C4.72013 4.8143 4.53104 4.89217 4.33348 4.89495Z" fill="#FFA28D"/>
</svg>
