<svg width="21" height="21" viewBox="0 0 21 21" fill="none" xmlns="http://www.w3.org/2000/svg">
<g id="mdi:linkedin">
<path id="Vector" d="M16.807 2.83252C17.2981 2.83252 17.7692 3.02762 18.1165 3.37491C18.4637 3.7222 18.6589 4.19323 18.6589 4.68437V17.6473C18.6589 18.1385 18.4637 18.6095 18.1165 18.9568C17.7692 19.3041 17.2981 19.4992 16.807 19.4992H3.84404C3.3529 19.4992 2.88187 19.3041 2.53458 18.9568C2.18729 18.6095 1.99219 18.1385 1.99219 17.6473V4.68437C1.99219 4.19323 2.18729 3.7222 2.53458 3.37491C2.88187 3.02762 3.3529 2.83252 3.84404 2.83252H16.807ZM16.344 17.1844V12.277C16.344 11.4764 16.026 10.7086 15.4599 10.1425C14.8939 9.57647 14.1261 9.25844 13.3255 9.25844C12.5385 9.25844 11.6218 9.73993 11.1774 10.4621V9.43437H8.59404V17.1844H11.1774V12.6196C11.1774 11.9066 11.7514 11.3233 12.4644 11.3233C12.8082 11.3233 13.1379 11.4598 13.381 11.7029C13.6241 11.946 13.7607 12.2758 13.7607 12.6196V17.1844H16.344ZM5.58478 7.98067C5.99734 7.98067 6.393 7.81678 6.68472 7.52506C6.97645 7.23333 7.14034 6.83767 7.14034 6.42511C7.14034 5.564 6.44589 4.8603 5.58478 4.8603C5.16977 4.8603 4.77175 5.02516 4.47829 5.31862C4.18483 5.61208 4.01997 6.0101 4.01997 6.42511C4.01997 7.28622 4.72367 7.98067 5.58478 7.98067ZM6.87182 17.1844V9.43437H4.307V17.1844H6.87182Z" fill="url(#paint0_linear_10601_41040)"/>
</g>
<defs>
<linearGradient id="paint0_linear_10601_41040" x1="10.3255" y1="2.83252" x2="10.3255" y2="19.4992" gradientUnits="userSpaceOnUse">
<stop stop-color="white"/>
<stop offset="1" stop-color="white"/>
</linearGradient>
</defs>
</svg>
