<svg width="20" height="20" viewBox="0 0 20 20" fill="none" xmlns="http://www.w3.org/2000/svg">
<g id="material-symbols:lock-outline">
<path id="Vector" d="M5.22356 18.2183C4.77536 18.2183 4.39154 18.0586 4.0721 17.7392C3.75266 17.4197 3.59321 17.0362 3.59375 16.5886V8.43956C3.59375 7.99137 3.75347 7.60755 4.07292 7.28811C4.39236 6.96867 4.77591 6.80922 5.22356 6.80976H6.03847V5.17996C6.03847 4.05269 6.43587 3.09165 7.23067 2.29685C8.02548 1.50205 8.98625 1.10493 10.113 1.10547C11.2403 1.10547 12.2013 1.50287 12.9961 2.29767C13.7909 3.09246 14.1881 4.05323 14.1875 5.17996V6.80976H15.0024C15.4506 6.80976 15.8344 6.96948 16.1539 7.28892C16.4733 7.60836 16.6328 7.99191 16.6322 8.43956V16.5886C16.6322 17.0367 16.4725 17.4206 16.1531 17.74C15.8336 18.0594 15.4501 18.2189 15.0024 18.2183H5.22356ZM5.22356 16.5886H15.0024V8.43956H5.22356V16.5886ZM10.113 14.1439C10.5612 14.1439 10.945 13.9841 11.2645 13.6647C11.5839 13.3453 11.7433 12.9617 11.7428 12.5141C11.7428 12.0659 11.5831 11.682 11.2636 11.3626C10.9442 11.0432 10.5606 10.8837 10.113 10.8843C9.66479 10.8843 9.28097 11.044 8.96153 11.3634C8.64209 11.6829 8.48264 12.0664 8.48318 12.5141C8.48318 12.9623 8.6429 13.3461 8.96235 13.6655C9.28179 13.9849 9.66534 14.1444 10.113 14.1439ZM7.66828 6.80976H12.5577V5.17996C12.5577 4.50088 12.32 3.92366 11.8447 3.4483C11.3693 2.97295 10.7921 2.73527 10.113 2.73527C9.43391 2.73527 8.85668 2.97295 8.38132 3.4483C7.90596 3.92366 7.66828 4.50088 7.66828 5.17996V6.80976Z" fill="#667085"/>
</g>
</svg>
