<svg width="19" height="19" viewBox="0 0 19 19" fill="none" xmlns="http://www.w3.org/2000/svg">
<g id="material-symbols:lock-outline">
<path id="Vector" d="M4.83557 17.1371C4.41538 17.1371 4.05555 16.9873 3.75607 16.6879C3.45659 16.3884 3.30711 16.0288 3.30762 15.6091V7.96946C3.30762 7.54928 3.45736 7.18945 3.75683 6.88997C4.05631 6.5905 4.41589 6.44102 4.83557 6.44153H5.59954V4.91359C5.59954 3.85677 5.9721 2.95579 6.71723 2.21067C7.46236 1.46555 8.36309 1.09324 9.41941 1.09375C10.4762 1.09375 11.3772 1.46631 12.1223 2.21144C12.8675 2.95656 13.2398 3.85728 13.2393 4.91359V6.44153H14.0032C14.4234 6.44153 14.7833 6.59126 15.0827 6.89074C15.3822 7.19021 15.5317 7.54979 15.5312 7.96946V15.6091C15.5312 16.0293 15.3815 16.3892 15.082 16.6886C14.7825 16.9881 14.4229 17.1376 14.0032 17.1371H4.83557ZM4.83557 15.6091H14.0032V7.96946H4.83557V15.6091ZM9.41941 13.3172C9.83959 13.3172 10.1994 13.1675 10.4989 12.868C10.7984 12.5685 10.9479 12.209 10.9474 11.7893C10.9474 11.3691 10.7976 11.0093 10.4981 10.7098C10.1987 10.4103 9.83908 10.2609 9.41941 10.2614C8.99922 10.2614 8.63939 10.4111 8.33991 10.7106C8.04043 11.0101 7.89095 11.3696 7.89146 11.7893C7.89146 12.2095 8.0412 12.5693 8.34068 12.8688C8.64015 13.1683 8.99973 13.3177 9.41941 13.3172ZM7.12749 6.44153H11.7113V4.91359C11.7113 4.27695 11.4885 3.73581 11.0429 3.29016C10.5972 2.84451 10.0561 2.62169 9.41941 2.62169C8.78276 2.62169 8.24161 2.84451 7.79596 3.29016C7.35031 3.73581 7.12749 4.27695 7.12749 4.91359V6.44153Z" fill="#667085"/>
</g>
</svg>
