<svg width="30" height="30" viewBox="0 0 30 30" fill="none" xmlns="http://www.w3.org/2000/svg">
<path d="M5.55729 13.6159C5.55729 8.21369 9.93285 3.83813 15.3351 3.83813L16.5573 3.91147V6.38036L15.3351 6.28258C11.2895 6.28258 8.00174 9.57036 8.00174 13.6159H11.6684L6.77951 18.5048L1.89062 13.6159H5.55729ZM21.4462 8.72702H16.5573C15.2128 8.72702 14.1128 9.82702 14.1128 11.1715V22.1715C14.1128 22.8198 14.3704 23.4415 14.8288 23.9C15.2872 24.3584 15.909 24.6159 16.5573 24.6159H23.8906C25.2473 24.6159 26.3351 23.5281 26.3351 22.1715V13.6159L21.4462 8.72702ZM23.8906 22.1715H16.5573V11.1715H20.224V14.8381H23.8906V22.1715Z" fill="white"/>
</svg>
