<svg width="28" height="27" viewBox="0 0 28 27" fill="none" xmlns="http://www.w3.org/2000/svg">
<path d="M22.102 3.50513C22.6914 3.50513 23.2566 3.73925 23.6733 4.156C24.0901 4.57275 24.3242 5.13798 24.3242 5.72735V21.2829C24.3242 21.8723 24.0901 22.4375 23.6733 22.8543C23.2566 23.271 22.6914 23.5051 22.102 23.5051H6.54644C5.95707 23.5051 5.39184 23.271 4.97509 22.8543C4.55834 22.4375 4.32422 21.8723 4.32422 21.2829V5.72735C4.32422 5.13798 4.55834 4.57275 4.97509 4.156C5.39184 3.73925 5.95707 3.50513 6.54644 3.50513H22.102ZM21.5464 20.7274V14.8385C21.5464 13.8778 21.1648 12.9565 20.4855 12.2772C19.8062 11.5979 18.8849 11.2162 17.9242 11.2162C16.9798 11.2162 15.8798 11.794 15.3464 12.6607V11.4273H12.2464V20.7274H15.3464V15.2496C15.3464 14.394 16.0353 13.694 16.8909 13.694C17.3034 13.694 17.6991 13.8579 17.9908 14.1496C18.2826 14.4414 18.4464 14.837 18.4464 15.2496V20.7274H21.5464ZM8.63533 9.68291C9.1304 9.68291 9.6052 9.48624 9.95526 9.13617C10.3053 8.7861 10.502 8.31131 10.502 7.81624C10.502 6.78291 9.66866 5.93846 8.63533 5.93846C8.13731 5.93846 7.65969 6.1363 7.30754 6.48845C6.95539 6.8406 6.75755 7.31822 6.75755 7.81624C6.75755 8.84957 7.602 9.68291 8.63533 9.68291ZM10.1798 20.7274V11.4273H7.102V20.7274H10.1798Z" fill="#26435F"/>
</svg>
