<svg width="21" height="20" viewBox="0 0 21 20" fill="none" xmlns="http://www.w3.org/2000/svg">
<g id="mdi:email">
<path id="Vector" d="M16.9922 7.1444L10.3255 11.1326L3.65885 7.1444V5.54913L10.3255 9.5373L16.9922 5.54913M16.9922 3.95386H3.65885C2.73385 3.95386 1.99219 4.66375 1.99219 5.54913V15.1207C1.99219 15.5438 2.16778 15.9496 2.48034 16.2488C2.7929 16.5479 3.21683 16.716 3.65885 16.716H16.9922C17.4342 16.716 17.8581 16.5479 18.1707 16.2488C18.4833 15.9496 18.6589 15.5438 18.6589 15.1207V5.54913C18.6589 5.12604 18.4833 4.72027 18.1707 4.4211C17.8581 4.12193 17.4342 3.95386 16.9922 3.95386Z" fill="white"/>
</g>
</svg>
