<svg width="28" height="28" viewBox="0 0 28 28" fill="none" xmlns="http://www.w3.org/2000/svg">
<g clip-path="url(#clip0_11041_36095)">
<path fill-rule="evenodd" clip-rule="evenodd" d="M15.0614 18.2486C14.8465 18.4634 14.5551 18.5841 14.2513 18.5841C13.9474 18.5841 13.656 18.4634 13.4412 18.2486L6.95918 11.7666C6.84975 11.6609 6.76245 11.5345 6.7024 11.3947C6.64235 11.2549 6.61074 11.1046 6.60942 10.9524C6.6081 10.8003 6.63709 10.6494 6.6947 10.5086C6.75232 10.3678 6.8374 10.2398 6.94498 10.1322C7.05257 10.0247 7.1805 9.93957 7.32132 9.88196C7.46214 9.82434 7.61302 9.79535 7.76517 9.79667C7.91731 9.798 8.06766 9.82961 8.20746 9.88966C8.34726 9.94971 8.47369 10.037 8.57939 10.1464L14.2513 15.8183L19.9231 10.1464C20.1393 9.93772 20.4287 9.82222 20.7291 9.82483C21.0296 9.82745 21.3169 9.94795 21.5294 10.1604C21.7418 10.3728 21.8624 10.6602 21.865 10.9607C21.8676 11.2611 21.7521 11.5505 21.5434 11.7666L15.0614 18.2486Z" fill="#667085"/>
</g>
<defs>
<clipPath id="clip0_11041_36095">
<rect width="27.5" height="27.5" fill="white" transform="translate(0.5 0.249756)"/>
</clipPath>
</defs>
</svg>
