<svg width="16" height="16" viewBox="0 0 16 16" fill="none" xmlns="http://www.w3.org/2000/svg">
<g clip-path="url(#clip0_10168_36189)">
<path d="M4.75361 0.739452C4.81881 0.674101 4.89626 0.622246 4.98152 0.586856C5.06678 0.551465 5.15818 0.533233 5.25049 0.533203L10.8755 0.533203C11.0621 0.533203 11.2402 0.607265 11.3724 0.739452L15.3567 4.72381C15.4889 4.85506 15.563 5.03412 15.563 5.22068V10.8457C15.563 10.938 15.5447 11.0294 15.5093 11.1146C15.474 11.1999 15.4221 11.2773 15.3567 11.3425L11.3724 15.3269C11.3072 15.3922 11.2297 15.4441 11.1445 15.4795C11.0592 15.5149 10.9678 15.5331 10.8755 15.5331H5.25049C5.15818 15.5331 5.06678 15.5149 4.98152 15.4795C4.89626 15.4441 4.81881 15.3922 4.75361 15.3269L0.769238 11.3425C0.703887 11.2773 0.652032 11.1999 0.616641 11.1146C0.581251 11.0294 0.563019 10.938 0.562988 10.8457L0.562988 5.22068C0.562988 5.03412 0.637051 4.856 0.769238 4.72381L4.75361 0.739452ZM5.54112 1.93945L1.96924 5.51131V10.555L5.54112 14.1269H10.5849L14.1567 10.555V5.51131L10.5849 1.93945H5.54112ZM8.06299 4.28319C8.24947 4.28319 8.42831 4.35727 8.56018 4.48913C8.69204 4.62099 8.76612 4.79983 8.76612 4.98631V8.26755C8.76612 8.45403 8.69204 8.63287 8.56018 8.76473C8.42831 8.89659 8.24947 8.97067 8.06299 8.97067C7.87651 8.97067 7.69767 8.89659 7.56581 8.76473C7.43394 8.63287 7.35987 8.45403 7.35987 8.26755V4.98631C7.35987 4.79983 7.43394 4.62099 7.56581 4.48913C7.69767 4.35727 7.87651 4.28319 8.06299 4.28319ZM8.06299 11.7832C7.81435 11.7832 7.57589 11.6844 7.40008 11.5086C7.22426 11.3328 7.12549 11.0943 7.12549 10.8457C7.12549 10.597 7.22426 10.3586 7.40008 10.1827C7.57589 10.0069 7.81435 9.90816 8.06299 9.90816C8.31163 9.90816 8.55009 10.0069 8.7259 10.1827C8.90172 10.3586 9.00049 10.597 9.00049 10.8457C9.00049 11.0943 8.90172 11.3328 8.7259 11.5086C8.55009 11.6844 8.31163 11.7832 8.06299 11.7832Z" fill="#FF7D73"/>
</g>
<defs>
<clipPath id="clip0_10168_36189">
<rect width="15" height="14.9999" fill="white" transform="translate(0.562988 0.533203)"/>
</clipPath>
</defs>
</svg>
