<svg width="16" height="16" viewBox="0 0 16 16" fill="none" xmlns="http://www.w3.org/2000/svg">
<g id="octicon:organization-24" clip-path="url(#clip0_10202_35996)">
<path id="Vector" d="M4.90234 8.00781C4.77802 8.00781 4.6588 8.0572 4.57089 8.14511C4.48298 8.23301 4.43359 8.35224 4.43359 8.47656C4.43359 8.60088 4.48298 8.72011 4.57089 8.80802C4.6588 8.89593 4.77802 8.94531 4.90234 8.94531H5.21484C5.33916 8.94531 5.45839 8.89593 5.5463 8.80802C5.63421 8.72011 5.68359 8.60088 5.68359 8.47656C5.68359 8.35224 5.63421 8.23301 5.5463 8.14511C5.45839 8.0572 5.33916 8.00781 5.21484 8.00781H4.90234ZM4.43359 6.28906C4.43359 6.16474 4.48298 6.04551 4.57089 5.95761C4.6588 5.8697 4.77802 5.82031 4.90234 5.82031H5.21484C5.33916 5.82031 5.45839 5.8697 5.5463 5.95761C5.63421 6.04551 5.68359 6.16474 5.68359 6.28906C5.68359 6.41338 5.63421 6.53261 5.5463 6.62052C5.45839 6.70843 5.33916 6.75781 5.21484 6.75781H4.90234C4.77802 6.75781 4.6588 6.70843 4.57089 6.62052C4.48298 6.53261 4.43359 6.41338 4.43359 6.28906ZM4.90234 3.63281C4.77802 3.63281 4.6588 3.6822 4.57089 3.77011C4.48298 3.85801 4.43359 3.97724 4.43359 4.10156C4.43359 4.22588 4.48298 4.34511 4.57089 4.43302C4.6588 4.52093 4.77802 4.57031 4.90234 4.57031H5.21484C5.33916 4.57031 5.45839 4.52093 5.5463 4.43302C5.63421 4.34511 5.68359 4.22588 5.68359 4.10156C5.68359 3.97724 5.63421 3.85801 5.5463 3.77011C5.45839 3.6822 5.33916 3.63281 5.21484 3.63281H4.90234ZM6.62109 8.47656C6.62109 8.35224 6.67048 8.23301 6.75839 8.14511C6.8463 8.0572 6.96552 8.00781 7.08984 8.00781H7.40234C7.52666 8.00781 7.64589 8.0572 7.7338 8.14511C7.82171 8.23301 7.87109 8.35224 7.87109 8.47656C7.87109 8.60088 7.82171 8.72011 7.7338 8.80802C7.64589 8.89593 7.52666 8.94531 7.40234 8.94531H7.08984C6.96552 8.94531 6.8463 8.89593 6.75839 8.80802C6.67048 8.72011 6.62109 8.60088 6.62109 8.47656ZM7.08984 5.82031C6.96552 5.82031 6.8463 5.8697 6.75839 5.95761C6.67048 6.04551 6.62109 6.16474 6.62109 6.28906C6.62109 6.41338 6.67048 6.53261 6.75839 6.62052C6.8463 6.70843 6.96552 6.75781 7.08984 6.75781H7.40234C7.52666 6.75781 7.64589 6.70843 7.7338 6.62052C7.82171 6.53261 7.87109 6.41338 7.87109 6.28906C7.87109 6.16474 7.82171 6.04551 7.7338 5.95761C7.64589 5.8697 7.52666 5.82031 7.40234 5.82031H7.08984ZM6.62109 4.10156C6.62109 3.97724 6.67048 3.85801 6.75839 3.77011C6.8463 3.6822 6.96552 3.63281 7.08984 3.63281H7.40234C7.52666 3.63281 7.64589 3.6822 7.7338 3.77011C7.82171 3.85801 7.87109 3.97724 7.87109 4.10156C7.87109 4.22588 7.82171 4.34511 7.7338 4.43302C7.64589 4.52093 7.52666 4.57031 7.40234 4.57031H7.08984C6.96552 4.57031 6.8463 4.52093 6.75839 4.43302C6.67048 4.34511 6.62109 4.22588 6.62109 4.10156ZM9.27735 8.00781C9.15302 8.00781 9.0338 8.0572 8.94589 8.14511C8.85798 8.23301 8.8086 8.35224 8.8086 8.47656C8.8086 8.60088 8.85798 8.72011 8.94589 8.80802C9.0338 8.89593 9.15302 8.94531 9.27735 8.94531H9.58985C9.71417 8.94531 9.83339 8.89593 9.9213 8.80802C10.0092 8.72011 10.0586 8.60088 10.0586 8.47656C10.0586 8.35224 10.0092 8.23301 9.9213 8.14511C9.83339 8.0572 9.71417 8.00781 9.58985 8.00781H9.27735ZM8.8086 6.28906C8.8086 6.16474 8.85798 6.04551 8.94589 5.95761C9.0338 5.8697 9.15302 5.82031 9.27735 5.82031H9.58985C9.71417 5.82031 9.83339 5.8697 9.9213 5.95761C10.0092 6.04551 10.0586 6.16474 10.0586 6.28906C10.0586 6.41338 10.0092 6.53261 9.9213 6.62052C9.83339 6.70843 9.71417 6.75781 9.58985 6.75781H9.27735C9.15302 6.75781 9.0338 6.70843 8.94589 6.62052C8.85798 6.53261 8.8086 6.41338 8.8086 6.28906ZM9.27735 3.63281C9.15302 3.63281 9.0338 3.6822 8.94589 3.77011C8.85798 3.85801 8.8086 3.97724 8.8086 4.10156C8.8086 4.22588 8.85798 4.34511 8.94589 4.43302C9.0338 4.52093 9.15302 4.57031 9.27735 4.57031H9.58985C9.71417 4.57031 9.83339 4.52093 9.9213 4.43302C10.0092 4.34511 10.0586 4.22588 10.0586 4.10156C10.0586 3.97724 10.0092 3.85801 9.9213 3.77011C9.83339 3.6822 9.71417 3.63281 9.58985 3.63281H9.27735Z" fill="#26435F"/>
<path id="Vector_2" d="M0.998047 14.0773V1.93443C0.998047 1.55555 1.14856 1.19219 1.41647 0.924278C1.68437 0.656369 2.04774 0.505859 2.42662 0.505859H10.998C11.3769 0.505859 11.7403 0.656369 12.0082 0.924278C12.2761 1.19219 12.4266 1.55555 12.4266 1.93443V14.0773C12.4266 14.2009 12.4109 14.3201 12.3816 14.4344H13.8552C13.9499 14.4344 14.0408 14.3968 14.1077 14.3298C14.1747 14.2628 14.2123 14.172 14.2123 14.0773V8.363C14.2123 8.30756 14.1994 8.25287 14.1746 8.20328C14.1498 8.15369 14.1138 8.11056 14.0695 8.07729L13.7123 7.80943C13.5987 7.72418 13.5235 7.59727 13.5034 7.45662C13.4833 7.31597 13.5199 7.1731 13.6052 7.05943C13.6904 6.94577 13.8174 6.87062 13.958 6.85053C14.0987 6.83044 14.2415 6.86704 14.3552 6.95229L14.7123 7.22014C15.0723 7.49015 15.2838 7.913 15.2838 8.363V14.0773C15.2838 14.4562 15.1333 14.8195 14.8653 15.0874C14.5974 15.3553 14.2341 15.5059 13.8552 15.5059H11.3109C11.271 15.5059 11.2313 15.5016 11.1923 15.493C11.1288 15.5016 11.0638 15.5059 10.998 15.5059H8.31948C8.1774 15.5059 8.04114 15.4494 7.94067 15.349C7.8402 15.2485 7.78376 15.1122 7.78376 14.9701V13.363H5.6409V14.9701C5.6409 15.1122 5.58446 15.2485 5.484 15.349C5.38353 15.4494 5.24727 15.5059 5.10519 15.5059H2.42662C2.04774 15.5059 1.68437 15.3553 1.41647 15.0874C1.14856 14.8195 0.998047 14.4562 0.998047 14.0773ZM2.42662 14.4344H4.56948V12.8273C4.56948 12.6852 4.62592 12.5489 4.72638 12.4485C4.82685 12.348 4.96311 12.2916 5.10519 12.2916H8.31948C8.46156 12.2916 8.59782 12.348 8.69828 12.4485C8.79875 12.5489 8.85519 12.6852 8.85519 12.8273V14.4344H10.998C11.0928 14.4344 11.1836 14.3968 11.2506 14.3298C11.3176 14.2628 11.3552 14.172 11.3552 14.0773V1.93443C11.3552 1.83971 11.3176 1.74887 11.2506 1.68189C11.1836 1.61492 11.0928 1.57729 10.998 1.57729H2.42662C2.3319 1.57729 2.24106 1.61492 2.17408 1.68189C2.1071 1.74887 2.06948 1.83971 2.06948 1.93443V14.0773C2.06948 14.172 2.1071 14.2628 2.17408 14.3298C2.24106 14.3968 2.3319 14.4344 2.42662 14.4344Z" fill="#26435F"/>
</g>
<defs>
<clipPath id="clip0_10202_35996">
<rect width="15" height="15" fill="white" transform="translate(0.998047 0.505859)"/>
</clipPath>
</defs>
</svg>
