<svg width="16" height="16" viewBox="0 0 16 16" fill="none" xmlns="http://www.w3.org/2000/svg">
<g id="octicon:organization-24" clip-path="url(#clip0_10202_36052)">
<path id="Vector" d="M4.40527 8.00195C4.28095 8.00195 4.16172 8.05134 4.07382 8.13925C3.98591 8.22715 3.93652 8.34638 3.93652 8.4707C3.93652 8.59502 3.98591 8.71425 4.07382 8.80216C4.16172 8.89007 4.28095 8.93945 4.40527 8.93945H4.71777C4.84209 8.93945 4.96132 8.89007 5.04923 8.80216C5.13714 8.71425 5.18652 8.59502 5.18652 8.4707C5.18652 8.34638 5.13714 8.22715 5.04923 8.13925C4.96132 8.05134 4.84209 8.00195 4.71777 8.00195H4.40527ZM3.93652 6.2832C3.93652 6.15888 3.98591 6.03965 4.07382 5.95175C4.16172 5.86384 4.28095 5.81445 4.40527 5.81445H4.71777C4.84209 5.81445 4.96132 5.86384 5.04923 5.95175C5.13714 6.03965 5.18652 6.15888 5.18652 6.2832C5.18652 6.40752 5.13714 6.52675 5.04923 6.61466C4.96132 6.70257 4.84209 6.75195 4.71777 6.75195H4.40527C4.28095 6.75195 4.16172 6.70257 4.07382 6.61466C3.98591 6.52675 3.93652 6.40752 3.93652 6.2832ZM4.40527 3.62695C4.28095 3.62695 4.16172 3.67634 4.07382 3.76425C3.98591 3.85215 3.93652 3.97138 3.93652 4.0957C3.93652 4.22002 3.98591 4.33925 4.07382 4.42716C4.16172 4.51507 4.28095 4.56445 4.40527 4.56445H4.71777C4.84209 4.56445 4.96132 4.51507 5.04923 4.42716C5.13714 4.33925 5.18652 4.22002 5.18652 4.0957C5.18652 3.97138 5.13714 3.85215 5.04923 3.76425C4.96132 3.67634 4.84209 3.62695 4.71777 3.62695H4.40527ZM6.12402 8.4707C6.12402 8.34638 6.17341 8.22715 6.26132 8.13925C6.34922 8.05134 6.46845 8.00195 6.59277 8.00195H6.90527C7.02959 8.00195 7.14882 8.05134 7.23673 8.13925C7.32464 8.22715 7.37402 8.34638 7.37402 8.4707C7.37402 8.59502 7.32464 8.71425 7.23673 8.80216C7.14882 8.89007 7.02959 8.93945 6.90527 8.93945H6.59277C6.46845 8.93945 6.34922 8.89007 6.26132 8.80216C6.17341 8.71425 6.12402 8.59502 6.12402 8.4707ZM6.59277 5.81445C6.46845 5.81445 6.34922 5.86384 6.26132 5.95175C6.17341 6.03965 6.12402 6.15888 6.12402 6.2832C6.12402 6.40752 6.17341 6.52675 6.26132 6.61466C6.34922 6.70257 6.46845 6.75195 6.59277 6.75195H6.90527C7.02959 6.75195 7.14882 6.70257 7.23673 6.61466C7.32464 6.52675 7.37402 6.40752 7.37402 6.2832C7.37402 6.15888 7.32464 6.03965 7.23673 5.95175C7.14882 5.86384 7.02959 5.81445 6.90527 5.81445H6.59277ZM6.12402 4.0957C6.12402 3.97138 6.17341 3.85215 6.26132 3.76425C6.34922 3.67634 6.46845 3.62695 6.59277 3.62695H6.90527C7.02959 3.62695 7.14882 3.67634 7.23673 3.76425C7.32464 3.85215 7.37402 3.97138 7.37402 4.0957C7.37402 4.22002 7.32464 4.33925 7.23673 4.42716C7.14882 4.51507 7.02959 4.56445 6.90527 4.56445H6.59277C6.46845 4.56445 6.34922 4.51507 6.26132 4.42716C6.17341 4.33925 6.12402 4.22002 6.12402 4.0957ZM8.78027 8.00195C8.65595 8.00195 8.53672 8.05134 8.44882 8.13925C8.36091 8.22715 8.31152 8.34638 8.31152 8.4707C8.31152 8.59502 8.36091 8.71425 8.44882 8.80216C8.53672 8.89007 8.65595 8.93945 8.78027 8.93945H9.09277C9.21709 8.93945 9.33632 8.89007 9.42423 8.80216C9.51214 8.71425 9.56152 8.59502 9.56152 8.4707C9.56152 8.34638 9.51214 8.22715 9.42423 8.13925C9.33632 8.05134 9.21709 8.00195 9.09277 8.00195H8.78027ZM8.31152 6.2832C8.31152 6.15888 8.36091 6.03965 8.44882 5.95175C8.53672 5.86384 8.65595 5.81445 8.78027 5.81445H9.09277C9.21709 5.81445 9.33632 5.86384 9.42423 5.95175C9.51214 6.03965 9.56152 6.15888 9.56152 6.2832C9.56152 6.40752 9.51214 6.52675 9.42423 6.61466C9.33632 6.70257 9.21709 6.75195 9.09277 6.75195H8.78027C8.65595 6.75195 8.53672 6.70257 8.44882 6.61466C8.36091 6.52675 8.31152 6.40752 8.31152 6.2832ZM8.78027 3.62695C8.65595 3.62695 8.53672 3.67634 8.44882 3.76425C8.36091 3.85215 8.31152 3.97138 8.31152 4.0957C8.31152 4.22002 8.36091 4.33925 8.44882 4.42716C8.53672 4.51507 8.65595 4.56445 8.78027 4.56445H9.09277C9.21709 4.56445 9.33632 4.51507 9.42423 4.42716C9.51214 4.33925 9.56152 4.22002 9.56152 4.0957C9.56152 3.97138 9.51214 3.85215 9.42423 3.76425C9.33632 3.67634 9.21709 3.62695 9.09277 3.62695H8.78027Z" fill="white"/>
<path id="Vector_2" d="M0.5 14.0734V1.93052C0.5 1.55164 0.65051 1.18828 0.918419 0.920372C1.18633 0.652463 1.54969 0.501953 1.92857 0.501953H10.5C10.8789 0.501953 11.2422 0.652463 11.5102 0.920372C11.7781 1.18828 11.9286 1.55164 11.9286 1.93052V14.0734C11.9286 14.197 11.9129 14.3162 11.8836 14.4305H13.3571C13.4519 14.4305 13.5427 14.3929 13.6097 14.3259C13.6767 14.2589 13.7143 14.1681 13.7143 14.0734V8.3591C13.7143 8.30365 13.7014 8.24897 13.6766 8.19938C13.6518 8.14979 13.6158 8.10665 13.5714 8.07338L13.2143 7.80552C13.1006 7.72028 13.0255 7.59337 13.0054 7.45271C12.9853 7.31206 13.0219 7.16919 13.1071 7.05552C13.1924 6.94186 13.3193 6.86672 13.46 6.84662C13.6006 6.82653 13.7435 6.86313 13.8571 6.94838L14.2143 7.21624C14.5743 7.48624 14.7857 7.9091 14.7857 8.3591V14.0734C14.7857 14.4523 14.6352 14.8156 14.3673 15.0835C14.0994 15.3514 13.736 15.502 13.3571 15.502H10.8129C10.773 15.502 10.7332 15.4977 10.6943 15.4891C10.6307 15.4977 10.5657 15.502 10.5 15.502H7.82143C7.67935 15.502 7.54309 15.4455 7.44262 15.345C7.34215 15.2446 7.28571 15.1083 7.28571 14.9662V13.3591H5.14286V14.9662C5.14286 15.1083 5.08641 15.2446 4.98595 15.345C4.88548 15.4455 4.74922 15.502 4.60714 15.502H1.92857C1.54969 15.502 1.18633 15.3514 0.918419 15.0835C0.65051 14.8156 0.5 14.4523 0.5 14.0734ZM1.92857 14.4305H4.07143V12.8234C4.07143 12.6813 4.12787 12.545 4.22834 12.4446C4.3288 12.3441 4.46506 12.2877 4.60714 12.2877H7.82143C7.96351 12.2877 8.09977 12.3441 8.20023 12.4446C8.3007 12.545 8.35714 12.6813 8.35714 12.8234V14.4305H10.5C10.5947 14.4305 10.6856 14.3929 10.7525 14.3259C10.8195 14.2589 10.8571 14.1681 10.8571 14.0734V1.93052C10.8571 1.8358 10.8195 1.74496 10.7525 1.67799C10.6856 1.61101 10.5947 1.57338 10.5 1.57338H1.92857C1.83385 1.57338 1.74301 1.61101 1.67603 1.67799C1.60906 1.74496 1.57143 1.8358 1.57143 1.93052V14.0734C1.57143 14.1681 1.60906 14.2589 1.67603 14.3259C1.74301 14.3929 1.83385 14.4305 1.92857 14.4305Z" fill="white"/>
</g>
<defs>
<clipPath id="clip0_10202_36052">
<rect width="15" height="15" fill="white" transform="translate(0.5 0.501953)"/>
</clipPath>
</defs>
</svg>
