<svg xmlns="http://www.w3.org/2000/svg" width="24" height="23" viewBox="0 0 24 23" fill="none">
  <path d="M6.87031 10.3676C8.22031 13.0207 10.3953 15.1863 13.0484 16.5457L15.1109 14.4832C15.3641 14.2301 15.7391 14.1457 16.0672 14.2582C17.1172 14.6051 18.2516 14.7926 19.4141 14.7926C19.9297 14.7926 20.3516 15.2145 20.3516 15.7301V19.002C20.3516 19.5176 19.9297 19.9395 19.4141 19.9395C10.6109 19.9395 3.47656 12.8051 3.47656 4.00195C3.47656 3.48633 3.89844 3.06445 4.41406 3.06445H7.69531C8.21094 3.06445 8.63281 3.48633 8.63281 4.00195C8.63281 5.17383 8.82031 6.29883 9.16718 7.34883C9.27031 7.67695 9.19531 8.04258 8.93281 8.30508L6.87031 10.3676Z" fill="white"/>
</svg>