<svg xmlns="http://www.w3.org/2000/svg" width="18" height="18" viewBox="0 0 18 18" fill="none">
  <path d="M17.5061 9.24805C17.5061 14.0804 13.5886 17.998 8.7561 17.998C3.9236 17.998 0.00610352 14.081 0.00610352 9.24805C0.00610352 4.41541 3.92331 0.498047 8.7561 0.498047C13.5886 0.498047 17.5061 4.4157 17.5061 9.24805ZM8.7561 2.45399C5.00351 2.45399 1.96153 5.49586 1.96153 9.24834C1.96153 13.0005 5.00322 16.043 8.7561 16.043C12.5087 16.043 15.5507 13.0005 15.5507 9.24834C15.551 5.49615 12.5087 2.45399 8.7561 2.45399ZM6.96499 7.21485C6.96499 5.83459 7.85031 5.35 8.73506 5.35C9.26175 5.35 9.71263 5.39872 10.073 5.84496C10.9159 6.88823 9.97526 7.90065 8.90342 8.43655C8.14494 8.81592 7.7866 9.45878 7.7866 10.3539V12.3562H9.78816V11.176C9.78816 9.37431 10.9471 9.82719 11.79 8.70033C12.9299 7.17593 12.6834 5.45752 11.1365 4.23322C9.36698 2.83192 7.36456 3.52724 6.80644 3.90661C6.34259 4.22169 4.69937 5.39209 5.01533 7.90988L6.96038 7.91391C6.96038 7.91391 6.96442 7.67839 6.96442 7.21485H6.96499ZM9.78874 15.0954V13.0412H7.78718V15.0954H9.78874Z" fill="#26435F"/>
</svg>