<svg width="14" height="14" viewBox="0 0 14 14" fill="none" xmlns="http://www.w3.org/2000/svg">
<path id="Vector" d="M13.7274 6.92151C13.7274 10.5666 10.7725 13.5217 7.12738 13.5217C3.48227 13.5217 0.527344 10.567 0.527344 6.92151C0.527344 3.2762 3.48205 0.321289 7.12738 0.321289C10.7725 0.321289 13.7274 3.27642 13.7274 6.92151ZM7.12738 1.79668C4.29684 1.79668 2.00231 4.0912 2.00231 6.92172C2.00231 9.75204 4.29662 12.047 7.12738 12.047C9.95793 12.047 12.2525 9.75204 12.2525 6.92172C12.2527 4.09141 9.95793 1.79668 7.12738 1.79668ZM5.77637 5.38784C5.77637 4.3467 6.44416 3.98117 7.11151 3.98117C7.50879 3.98117 7.84888 4.01792 8.1207 4.35453C8.75652 5.14147 8.04698 5.90515 7.2385 6.30939C6.66639 6.59555 6.3961 7.08046 6.3961 7.75564V9.26604H7.90585V8.3758C7.90585 7.01675 8.78 7.35836 9.41583 6.50836C10.2756 5.35849 10.0897 4.06228 8.92287 3.13877C7.58816 2.08175 6.07775 2.60624 5.65677 2.8924C5.30689 3.13007 4.06743 4.01291 4.30575 5.91211L5.77289 5.91515C5.77289 5.91515 5.77593 5.7375 5.77593 5.38784H5.77637ZM7.90629 11.3322V9.7827H6.39653V11.3322H7.90629Z" fill="#24A3D9"/>
</svg>
