<svg width="18" height="19" viewBox="0 0 18 19" fill="none" xmlns="http://www.w3.org/2000/svg">
<g id="Frame 31215">
<path id="Vector" d="M17.5 9.29492C17.5 14.1273 13.5825 18.0449 8.75 18.0449C3.91749 18.0449 0 14.1278 0 9.29492C0 4.46229 3.9172 0.544922 8.75 0.544922C13.5825 0.544922 17.5 4.46257 17.5 9.29492ZM8.75 2.50087C4.99741 2.50087 1.95543 5.54274 1.95543 9.29521C1.95543 13.0474 4.99712 16.0898 8.75 16.0898C12.5026 16.0898 15.5446 13.0474 15.5446 9.29521C15.5449 5.54303 12.5026 2.50087 8.75 2.50087ZM6.95889 7.26172C6.95889 5.88146 7.84421 5.39687 8.72895 5.39687C9.25565 5.39687 9.70653 5.44559 10.0669 5.89184C10.9098 6.93511 9.96915 7.94753 8.89731 8.48343C8.13884 8.8628 7.7805 9.50565 7.7805 10.4007V12.4031H9.78206V11.2229C9.78206 9.42119 10.941 9.87407 11.7839 8.7472C12.9238 7.2228 12.6773 5.5044 11.1304 4.2801C9.36087 2.87879 7.35845 3.57411 6.80033 3.95348C6.33648 4.26857 4.69326 5.43896 5.00922 7.95675L6.95428 7.96079C6.95428 7.96079 6.95831 7.72527 6.95831 7.26172H6.95889ZM9.78263 15.1423V13.088H7.78108V15.1423H9.78263Z" fill="#507CA8"/>
</g>
</svg>
