<svg width="19" height="19" viewBox="0 0 19 19" fill="none" xmlns="http://www.w3.org/2000/svg">
<path id="Vector" d="M18.6418 9.61123C18.6418 14.5223 14.6606 18.5037 9.74961 18.5037C4.83857 18.5037 0.857422 14.5229 0.857422 9.61123C0.857422 4.6999 4.83828 0.71875 9.74961 0.71875C14.6606 0.71875 18.6418 4.7002 18.6418 9.61123ZM9.74961 2.70654C5.93603 2.70654 2.84463 5.79795 2.84463 9.61152C2.84463 13.4248 5.93574 16.5168 9.74961 16.5168C13.5632 16.5168 16.6546 13.4248 16.6546 9.61152C16.6549 5.79824 13.5632 2.70654 9.74961 2.70654ZM7.92939 7.54492C7.92939 6.14219 8.8291 5.64971 9.72822 5.64971C10.2635 5.64971 10.7217 5.69922 11.0879 6.15274C11.9445 7.21299 10.9886 8.2419 9.89932 8.78652C9.12851 9.17207 8.76435 9.82539 8.76435 10.7351V12.77H10.7984V11.5706C10.7984 9.73955 11.9762 10.1998 12.8328 9.05459C13.9912 7.50537 13.7407 5.75899 12.1687 4.51475C10.3704 3.09063 8.33545 3.79727 7.76826 4.18281C7.29687 4.50303 5.62695 5.69248 5.94805 8.25127L7.92471 8.25537C7.92471 8.25537 7.92881 8.01602 7.92881 7.54492H7.92939ZM10.799 15.5538V13.4661H8.76494V15.5538H10.799Z" fill="#FFA28D"/>
</svg>
