<svg width="28" height="27" viewBox="0 0 28 27" fill="none" xmlns="http://www.w3.org/2000/svg">
<path d="M14.326 2.39307C20.4626 2.39307 25.4371 7.36751 25.4371 13.5042C25.4371 19.6408 20.4626 24.6153 14.326 24.6153C12.3624 24.6185 10.4334 24.0988 8.73708 23.1097L3.2193 24.6153L4.72153 19.0953C3.73163 17.3985 3.21158 15.4686 3.21486 13.5042C3.21486 7.36751 8.1893 2.39307 14.326 2.39307ZM10.5393 8.28196L10.3171 8.29084C10.1732 8.29961 10.0326 8.3374 9.90375 8.40195C9.78322 8.47021 9.67319 8.55554 9.57708 8.65529C9.44375 8.78084 9.36819 8.88973 9.28708 8.99529C8.87611 9.52962 8.65483 10.1856 8.65819 10.8597C8.66041 11.4042 8.80264 11.9342 9.02486 12.4297C9.4793 13.432 10.2271 14.4931 11.2137 15.4764C11.4515 15.7131 11.6849 15.9508 11.936 16.172C13.162 17.2514 14.6229 18.0298 16.2026 18.4453L16.8337 18.542C17.0393 18.5531 17.2449 18.5375 17.4515 18.5275C17.7751 18.5108 18.0911 18.4232 18.3771 18.2708C18.5226 18.1959 18.6646 18.1143 18.8026 18.0264C18.8026 18.0264 18.8504 17.9953 18.9415 17.9264C19.0915 17.8153 19.1837 17.7364 19.3082 17.6064C19.4004 17.5108 19.4804 17.3986 19.5415 17.2708C19.6282 17.0897 19.7149 16.7442 19.7504 16.4564C19.7771 16.2364 19.7693 16.1164 19.766 16.042C19.7615 15.9231 19.6626 15.7997 19.5549 15.7475L18.9082 15.4575C18.9082 15.4575 17.9415 15.0364 17.3504 14.7675C17.2886 14.7405 17.2223 14.7251 17.1549 14.722C17.0788 14.7141 17.002 14.7227 16.9296 14.747C16.8571 14.7714 16.7907 14.8109 16.7349 14.8631C16.7293 14.8608 16.6549 14.9242 15.8515 15.8975C15.8054 15.9595 15.7419 16.0063 15.6691 16.032C15.5963 16.0577 15.5174 16.0612 15.4426 16.042C15.3703 16.0225 15.2993 15.998 15.2304 15.9686C15.0926 15.9108 15.0449 15.8886 14.9504 15.8486C14.3127 15.5703 13.7223 15.1943 13.2004 14.7342C13.0604 14.612 12.9304 14.4786 12.7971 14.3497C12.36 13.9311 11.979 13.4575 11.6637 12.9408L11.5982 12.8353C11.5511 12.7644 11.513 12.6878 11.4849 12.6075C11.4426 12.4442 11.5526 12.3131 11.5526 12.3131C11.5526 12.3131 11.8226 12.0175 11.9482 11.8575C12.0704 11.702 12.1737 11.5508 12.2404 11.4431C12.3715 11.232 12.4126 11.0153 12.3437 10.8475C12.0326 10.0875 11.7104 9.33084 11.3793 8.57973C11.3137 8.43084 11.1193 8.32418 10.9426 8.30307C10.8826 8.2964 10.8226 8.28973 10.7626 8.28529C10.6134 8.27788 10.4639 8.27936 10.3149 8.28973L10.5382 8.28084L10.5393 8.28196Z" fill="#22F000"/>
</svg>
