<svg width="23" height="23" viewBox="0 0 23 23" fill="none" xmlns="http://www.w3.org/2000/svg">
<g id="Shape/Search">
<path id="Shape/Search_2" d="M15.3359 16.8205C13.4574 18.2806 11.0933 18.9693 8.72504 18.7466C6.35677 18.5239 4.16237 17.4065 2.58866 15.6218C1.01496 13.8372 0.180271 11.5195 0.254566 9.14072C0.32886 6.76195 1.30655 4.50094 2.98855 2.81808C4.67056 1.13521 6.93041 0.157026 9.30796 0.0826933C11.6855 0.0083608 14.002 0.843471 15.7857 2.41798C17.5695 3.9925 18.6864 6.18802 18.9089 8.55751C19.1315 10.927 18.4431 13.2923 16.9839 15.1718L22.4053 20.5757C22.8643 21.0332 22.865 21.7763 22.4069 22.2346C21.9488 22.6929 21.2057 22.6926 20.748 22.2338L15.3476 16.8205H15.3359ZM9.60905 16.4463C10.5299 16.4463 11.4418 16.2649 12.2926 15.9123C13.1434 15.5597 13.9165 15.0429 14.5676 14.3914C15.2188 13.7399 15.7353 12.9664 16.0877 12.1152C16.4402 11.264 16.6215 10.3516 16.6215 9.43027C16.6215 8.50891 16.4402 7.59656 16.0877 6.74533C15.7353 5.8941 15.2188 5.12066 14.5676 4.46915C13.9165 3.81765 13.1434 3.30085 12.2926 2.94826C11.4418 2.59567 10.5299 2.41419 9.60905 2.41419C7.74922 2.41419 5.96557 3.15338 4.65047 4.46915C3.33537 5.78492 2.59656 7.56949 2.59656 9.43027C2.59656 11.291 3.33537 13.0756 4.65047 14.3914C5.96557 15.7072 7.74922 16.4463 9.60905 16.4463Z" fill="#667085"/>
</g>
</svg>
