<svg width="25" height="25" viewBox="0 0 25 25" fill="none" xmlns="http://www.w3.org/2000/svg">
<g id="Shape/Search">
<path id="Shape/Search_2" d="M16.7596 18.5251C14.7559 20.0824 12.2342 20.8171 9.70802 20.5796C7.18186 20.342 4.84116 19.1501 3.16254 17.2464C1.48392 15.3428 0.593592 12.8706 0.672839 10.3333C0.752087 7.79592 1.79495 5.38418 3.58909 3.58912C5.38323 1.79406 7.79374 0.750665 10.3298 0.671377C12.8659 0.592089 15.3368 1.48287 17.2394 3.16235C19.1421 4.84183 20.3334 7.18373 20.5709 9.71118C20.8083 12.2386 20.074 14.7616 18.5174 16.7664L24.3003 22.5306C24.7899 23.0186 24.7906 23.8112 24.302 24.3001C23.8133 24.789 23.0207 24.7886 22.5325 24.2992L16.7721 18.5251H16.7596ZM10.651 18.1259C11.6332 18.1259 12.6059 17.9324 13.5134 17.5563C14.4209 17.1802 15.2455 16.6289 15.9401 15.934C16.6347 15.2391 17.1857 14.414 17.5616 13.5061C17.9375 12.5981 18.131 11.6249 18.131 10.6421C18.131 9.65934 17.9375 8.68618 17.5616 7.7782C17.1857 6.87022 16.6347 6.04521 15.9401 5.35027C15.2455 4.65533 14.4209 4.10408 13.5134 3.72798C12.6059 3.35188 11.6332 3.15831 10.651 3.15831C8.66714 3.15831 6.76458 3.94678 5.36181 5.35027C3.95904 6.75376 3.17097 8.6573 3.17097 10.6421C3.17097 12.627 3.95904 14.5305 5.36181 15.934C6.76458 17.3375 8.66714 18.1259 10.651 18.1259Z" fill="#667085"/>
</g>
</svg>
