<svg width="20" height="19" viewBox="0 0 20 19" fill="none" xmlns="http://www.w3.org/2000/svg">
<g clip-path="url(#clip0_19652_4764)">
<path fill-rule="evenodd" clip-rule="evenodd" d="M9.56513 0.332298C9.65954 0.278367 9.76639 0.25 9.87513 0.25C9.98386 0.25 10.0907 0.278367 10.1851 0.332298L18.9351 5.33228C19.0308 5.38692 19.1103 5.46587 19.1656 5.56114C19.2209 5.65641 19.2501 5.76461 19.2501 5.87477V6.77477C19.2502 9.53222 18.3518 12.2146 16.6912 14.4159C15.0305 16.6172 12.6979 18.2176 10.0464 18.9747C9.93444 19.0066 9.81581 19.0066 9.70388 18.9747C7.05261 18.2172 4.72021 16.6168 3.05959 14.4155C1.39897 12.2143 0.500498 9.53212 0.500122 6.77477L0.500122 5.87477C0.500158 5.76461 0.529311 5.65641 0.584629 5.56114C0.639947 5.46587 0.719463 5.38692 0.815122 5.33228L9.56513 0.332298ZM9.34013 13.6385L14.7376 6.88977L13.7626 6.10977L9.16013 11.861L5.90012 9.14476L5.10012 10.1048L9.34013 13.6385Z" fill="white"/>
</g>
<defs>
<clipPath id="clip0_19652_4764">
<rect width="18.75" height="18.7499" fill="white" transform="translate(0.500122 0.25)"/>
</clipPath>
</defs>
</svg>
