<svg xmlns="http://www.w3.org/2000/svg" width="14" height="8" viewBox="0 0 14 8" fill="none">
  <path fill-rule="evenodd" clip-rule="evenodd" d="M7.83869 7.2104C7.65532 7.3937 7.40665 7.49668 7.14737 7.49668C6.88808 7.49668 6.63941 7.3937 6.45605 7.2104L0.924495 1.67912C0.831103 1.58893 0.75661 1.48104 0.705363 1.36174C0.654116 1.24245 0.627142 1.11415 0.626013 0.984319C0.624885 0.85449 0.649626 0.725738 0.698792 0.605573C0.747958 0.485408 0.820564 0.376236 0.912375 0.28443C1.00419 0.192625 1.11336 0.120022 1.23353 0.0708582C1.3537 0.0216948 1.48246 -0.00304438 1.6123 -0.00191621C1.74213 -0.000788034 1.87044 0.0261852 1.98974 0.0774294C2.10904 0.128674 2.21694 0.203162 2.30714 0.29655L7.14737 5.13654L11.9876 0.29655C12.172 0.11844 12.419 0.019886 12.6754 0.0221138C12.9318 0.0243416 13.177 0.127173 13.3583 0.30846C13.5396 0.489748 13.6425 0.734987 13.6447 0.991356C13.6469 1.24773 13.5484 1.49471 13.3702 1.67912L7.83869 7.2104Z" fill="#667085"/>
</svg>