<svg width="97" height="20" viewBox="0 0 97 20" fill="none" xmlns="http://www.w3.org/2000/svg">
<path d="M10.4939 4.13826C10.9669 2.87641 12.7518 2.87641 13.2249 4.13826L13.9602 6.09953C14.1736 6.66878 14.7178 7.04591 15.3257 7.04591H17.2086C18.6712 7.04591 19.2234 8.95898 17.9857 9.73832L16.8383 10.4608C16.2528 10.8295 16.0069 11.5589 16.2498 12.2068L16.7693 13.5924C17.2596 14.9001 15.8085 16.0825 14.6267 15.3384L12.6364 14.0851C12.1615 13.7861 11.5572 13.7861 11.0823 14.0851L9.09201 15.3384C7.91021 16.0825 6.45918 14.9001 6.94944 13.5924L7.46891 12.2068C7.71181 11.5589 7.46598 10.8295 6.88044 10.4608L5.73308 9.73831C4.49539 8.95897 5.04752 7.04591 6.51014 7.04591H8.39304C9.00098 7.04591 9.54515 6.66878 9.75856 6.09953L10.4939 4.13826Z" fill="#FF981F"/>
<path d="M28.8024 4.13826C29.2755 2.87641 31.0604 2.87641 31.5335 4.13826L32.2688 6.09953C32.4822 6.66878 33.0264 7.04591 33.6343 7.04591H35.5172C36.9798 7.04591 37.532 8.95898 36.2943 9.73832L35.1469 10.4608C34.5614 10.8295 34.3155 11.5589 34.5584 12.2068L35.0779 13.5924C35.5682 14.9001 34.1171 16.0825 32.9353 15.3384L30.945 14.0851C30.4701 13.7861 29.8658 13.7861 29.3909 14.0851L27.4006 15.3384C26.2188 16.0825 24.7678 14.9001 25.258 13.5924L25.7775 12.2068C26.0204 11.5589 25.7746 10.8295 25.189 10.4608L24.0417 9.73831C22.804 8.95897 23.3561 7.04591 24.8187 7.04591H26.7016C27.3096 7.04591 27.8537 6.66878 28.0672 6.09953L28.8024 4.13826Z" fill="#FF981F"/>
<path d="M47.111 4.13826C47.5841 2.87641 49.369 2.87641 49.8421 4.13826L50.5774 6.09953C50.7908 6.66878 51.335 7.04591 51.9429 7.04591H53.8258C55.2884 7.04591 55.8405 8.95898 54.6029 9.73832L53.4555 10.4608C52.87 10.8295 52.6241 11.5589 52.867 12.2068L53.3865 13.5924C53.8768 14.9001 52.4257 16.0825 51.2439 15.3384L49.2536 14.0851C48.7787 13.7861 48.1744 13.7861 47.6995 14.0851L45.7092 15.3384C44.5274 16.0825 43.0764 14.9001 43.5666 13.5924L44.0861 12.2068C44.329 11.5589 44.0832 10.8295 43.4976 10.4608L42.3503 9.73831C41.1126 8.95897 41.6647 7.04591 43.1273 7.04591H45.0102C45.6182 7.04591 46.1623 6.66878 46.3757 6.09953L47.111 4.13826Z" fill="#FF981F"/>
<path d="M65.4196 4.13826C65.8927 2.87641 67.6776 2.87641 68.1507 4.13826L68.886 6.09953C69.0994 6.66878 69.6435 7.04591 70.2515 7.04591H72.1344C73.597 7.04591 74.1491 8.95898 72.9114 9.73832L71.7641 10.4608C71.1786 10.8295 70.9327 11.5589 71.1756 12.2068L71.6951 13.5924C72.1854 14.9001 70.7343 16.0825 69.5525 15.3384L67.5622 14.0851C67.0873 13.7861 66.483 13.7861 66.0081 14.0851L64.0178 15.3384C62.836 16.0825 61.385 14.9001 61.8752 13.5924L62.3947 12.2068C62.6376 11.5589 62.3918 10.8295 61.8062 10.4608L60.6589 9.73831C59.4212 8.95897 59.9733 7.04591 61.4359 7.04591H63.3188C63.9268 7.04591 64.4709 6.66878 64.6843 6.09953L65.4196 4.13826Z" fill="#FF981F"/>
<path d="M84.0696 4.26625C84.4244 3.31986 85.7631 3.31986 86.1179 4.26625L86.8532 6.22751C87.12 6.93908 87.8002 7.4105 88.5601 7.4105H90.443C91.54 7.4105 91.954 8.84529 91.0258 9.4298L89.8784 10.1523C89.1465 10.6131 88.8392 11.5249 89.1428 12.3348L89.6623 13.7204C90.03 14.7011 88.9417 15.588 88.0554 15.0299L86.0651 13.7766C85.4715 13.4029 84.716 13.4029 84.1224 13.7766L82.1321 15.0299C81.2458 15.588 80.1575 14.7011 80.5252 13.7204L81.0447 12.3348C81.3483 11.5249 81.041 10.6131 80.3091 10.1523L79.1617 9.4298C78.2335 8.84529 78.6475 7.4105 79.7445 7.4105H81.6274C82.3873 7.4105 83.0675 6.93907 83.3343 6.22751L84.0696 4.26625Z" stroke="#667085" stroke-width="0.729167"/>
</svg>
