<svg width="27" height="26" viewBox="0 0 27 26" fill="none" xmlns="http://www.w3.org/2000/svg">
<g id="solar:sort-horizontal-bold-duotone">
<g id="Group">
<path id="Vector" d="M9.41085 13.4576C9.25448 13.4577 9.10161 13.503 8.97131 13.5878C8.84101 13.6726 8.73904 13.7932 8.67813 13.9345C8.61722 14.0758 8.60006 14.2316 8.6288 14.3824C8.65753 14.5333 8.73089 14.6724 8.83972 14.7826L13.086 19.0795C13.1602 19.1544 13.249 19.214 13.3471 19.2547C13.4452 19.2954 13.5506 19.3164 13.6571 19.3164C13.7636 19.3164 13.8691 19.2954 13.9672 19.2547C14.0653 19.214 14.154 19.1544 14.2283 19.0795L18.4745 14.7826C18.5834 14.6724 18.6567 14.5333 18.6855 14.3824C18.7142 14.2316 18.697 14.0758 18.6361 13.9345C18.5752 13.7932 18.4733 13.6726 18.343 13.5878C18.2126 13.503 18.0598 13.4577 17.9034 13.4576H14.4533L14.4533 6.03573C14.4533 5.82853 14.3694 5.62981 14.2201 5.4833C14.0708 5.33679 13.8683 5.25448 13.6571 5.25448C13.446 5.25448 13.2435 5.33679 13.0941 5.4833C12.9448 5.62981 12.861 5.82853 12.861 6.03573L12.861 13.4576H9.41085Z" fill="white"/>
</g>
</g>
</svg>
