<svg width="20" height="20" viewBox="0 0 20 20" fill="none" xmlns="http://www.w3.org/2000/svg">
<g clip-path="url(#clip0_9876_45449)">
<path fill-rule="evenodd" clip-rule="evenodd" d="M9.56549 0.832298C9.65991 0.778367 9.76676 0.75 9.87549 0.75C9.98423 0.75 10.0911 0.778367 10.1855 0.832298L18.9355 5.83228C19.0312 5.88692 19.1107 5.96587 19.166 6.06114C19.2213 6.15641 19.2505 6.26461 19.2505 6.37477V7.27477C19.2505 10.0322 18.3522 12.7146 16.6915 14.9159C15.0309 17.1172 12.6982 18.7176 10.0467 19.4747C9.9348 19.5066 9.81618 19.5066 9.70424 19.4747C7.05297 18.7172 4.72057 17.1168 3.05995 14.9155C1.39933 12.7143 0.500864 10.0321 0.500488 7.27477L0.500488 6.37477C0.500524 6.26461 0.529677 6.15641 0.584995 6.06114C0.640313 5.96587 0.71983 5.88692 0.815488 5.83228L9.56549 0.832298ZM9.34049 14.1385L14.738 7.38977L13.763 6.60977L9.16049 12.361L5.90049 9.64476L5.10049 10.6048L9.34049 14.1385Z" fill="#77DD77"/>
</g>
<defs>
<clipPath id="clip0_9876_45449">
<rect width="18.75" height="18.7499" fill="white" transform="translate(0.500488 0.75)"/>
</clipPath>
</defs>
</svg>
