<svg width="20" height="20" viewBox="0 0 20 20" fill="none" xmlns="http://www.w3.org/2000/svg">
<g id="medical-icon:i-information-us" clip-path="url(#clip0_9870_40450)">
<path id="Vector" d="M18.7531 10.0292C18.7531 14.9402 14.772 18.9217 9.86094 18.9217C4.9499 18.9217 0.96875 14.9408 0.96875 10.0292C0.96875 5.11787 4.94961 1.13672 9.86094 1.13672C14.772 1.13672 18.7531 5.11816 18.7531 10.0292ZM9.86094 3.12451C6.04737 3.12451 2.95596 6.21592 2.95596 10.0295C2.95596 13.8428 6.04707 16.9348 9.86094 16.9348C13.6745 16.9348 16.7659 13.8428 16.7659 10.0295C16.7662 6.21621 13.6745 3.12451 9.86094 3.12451ZM8.04073 7.96289C8.04073 6.56016 8.94043 6.06768 9.83955 6.06768C10.3748 6.06768 10.833 6.11719 11.1992 6.5707C12.0559 7.63096 11.0999 8.65986 10.0106 9.20449C9.23985 9.59004 8.87569 10.2434 8.87569 11.153V13.188H10.9098V11.9886C10.9098 10.1575 12.0875 10.6178 12.9441 9.47256C14.1025 7.92334 13.8521 6.17695 12.28 4.93271C10.4817 3.50859 8.44678 4.21523 7.87959 4.60078C7.40821 4.921 5.73828 6.11045 6.05938 8.66924L8.03604 8.67334C8.03604 8.67334 8.04014 8.43398 8.04014 7.96289H8.04073ZM10.9104 15.9718V13.8841H8.87627V15.9718H10.9104Z" fill="#26435F"/>
</g>
<defs>
<clipPath id="clip0_9870_40450">
<rect width="18.457" height="18.75" fill="white" transform="translate(0.613281 0.667969)"/>
</clipPath>
</defs>
</svg>
