<svg width="28" height="25" viewBox="0 0 28 25" fill="none" xmlns="http://www.w3.org/2000/svg">
<g id="uil:export">
<path id="Vector" d="M10.0141 8.54681L12.5586 6.24681V15.8368C12.5586 16.102 12.6757 16.3564 12.884 16.5439C13.0924 16.7315 13.375 16.8368 13.6697 16.8368C13.9644 16.8368 14.247 16.7315 14.4554 16.5439C14.6638 16.3564 14.7808 16.102 14.7808 15.8368V6.24681L17.3253 8.54681C17.4286 8.64054 17.5514 8.71493 17.6868 8.7657C17.8222 8.81647 17.9675 8.84261 18.1141 8.84261C18.2608 8.84261 18.4061 8.81647 18.5415 8.7657C18.6769 8.71493 18.7997 8.64054 18.903 8.54681C19.0072 8.45385 19.0898 8.34325 19.1462 8.22139C19.2027 8.09953 19.2317 7.96882 19.2317 7.83681C19.2317 7.7048 19.2027 7.57409 19.1462 7.45223C19.0898 7.33037 19.0072 7.21977 18.903 7.12681L14.4586 3.12681C14.3529 3.03577 14.2283 2.9644 14.0919 2.91681C13.8214 2.81679 13.518 2.81679 13.2475 2.91681C13.1111 2.9644 12.9865 3.03577 12.8808 3.12681L8.43637 7.12681C8.33277 7.22005 8.25059 7.33074 8.19453 7.45256C8.13846 7.57438 8.1096 7.70495 8.1096 7.83681C8.1096 7.96867 8.13846 8.09924 8.19453 8.22106C8.25059 8.34288 8.33277 8.45357 8.43637 8.54681C8.53997 8.64005 8.66296 8.71401 8.79832 8.76447C8.93367 8.81493 9.07875 8.8409 9.22526 8.8409C9.37177 8.8409 9.51685 8.81493 9.6522 8.76447C9.78756 8.71401 9.91055 8.64005 10.0141 8.54681ZM23.6697 14.8368C23.375 14.8368 23.0924 14.9422 22.884 15.1297C22.6757 15.3172 22.5586 15.5716 22.5586 15.8368V19.8368C22.5586 20.102 22.4415 20.3564 22.2332 20.5439C22.0248 20.7315 21.7422 20.8368 21.4475 20.8368H5.89193C5.59724 20.8368 5.31463 20.7315 5.10625 20.5439C4.89788 20.3564 4.78082 20.102 4.78082 19.8368V15.8368C4.78082 15.5716 4.66375 15.3172 4.45538 15.1297C4.24701 14.9422 3.96439 14.8368 3.6697 14.8368C3.37502 14.8368 3.0924 14.9422 2.88403 15.1297C2.67566 15.3172 2.55859 15.5716 2.55859 15.8368V19.8368C2.55859 20.6325 2.90978 21.3955 3.5349 21.9581C4.16003 22.5207 5.00787 22.8368 5.89193 22.8368H21.4475C22.3315 22.8368 23.1794 22.5207 23.8045 21.9581C24.4296 21.3955 24.7808 20.6325 24.7808 19.8368V15.8368C24.7808 15.5716 24.6638 15.3172 24.4554 15.1297C24.247 14.9422 23.9644 14.8368 23.6697 14.8368Z" fill="white"/>
</g>
</svg>
