<svg width="23" height="24" viewBox="0 0 23 24" fill="none" xmlns="http://www.w3.org/2000/svg">
<g id="uil:export">
<path id="Vector" d="M8.06647 7.81525L10.1868 5.659V14.6496C10.1868 14.8983 10.2844 15.1367 10.458 15.3125C10.6317 15.4883 10.8672 15.5871 11.1128 15.5871C11.3583 15.5871 11.5939 15.4883 11.7675 15.3125C11.9411 15.1367 12.0387 14.8983 12.0387 14.6496V5.659L14.1591 7.81525C14.2451 7.90312 14.3475 7.97286 14.4604 8.02046C14.5732 8.06805 14.6942 8.09256 14.8165 8.09256C14.9387 8.09256 15.0597 8.06805 15.1726 8.02046C15.2854 7.97286 15.3878 7.90312 15.4739 7.81525C15.5607 7.72809 15.6295 7.62441 15.6766 7.51016C15.7236 7.39592 15.7478 7.27338 15.7478 7.14962C15.7478 7.02586 15.7236 6.90332 15.6766 6.78908C15.6295 6.67484 15.5607 6.57115 15.4739 6.484L11.7702 2.734C11.6821 2.64865 11.5783 2.58174 11.4646 2.53712C11.2392 2.44336 10.9863 2.44336 10.7609 2.53712C10.6473 2.58174 10.5434 2.64865 10.4554 2.734L6.75166 6.484C6.66533 6.57141 6.59685 6.67518 6.55012 6.78939C6.5034 6.9036 6.47935 7.026 6.47935 7.14962C6.47935 7.27324 6.5034 7.39565 6.55012 7.50986C6.59685 7.62406 6.66533 7.72784 6.75166 7.81525C6.83799 7.90266 6.94048 7.972 7.05328 8.0193C7.16608 8.06661 7.28698 8.09096 7.40907 8.09096C7.53116 8.09096 7.65206 8.06661 7.76485 8.0193C7.87765 7.972 7.98014 7.90266 8.06647 7.81525ZM19.4461 13.7121C19.2005 13.7121 18.965 13.8109 18.7914 13.9867C18.6177 14.1625 18.5202 14.401 18.5202 14.6496V18.3996C18.5202 18.6483 18.4226 18.8867 18.249 19.0625C18.0753 19.2383 17.8398 19.3371 17.5942 19.3371H4.63129C4.38572 19.3371 4.15021 19.2383 3.97656 19.0625C3.80292 18.8867 3.70537 18.6483 3.70537 18.3996V14.6496C3.70537 14.401 3.60781 14.1625 3.43417 13.9867C3.26052 13.8109 3.02501 13.7121 2.77944 13.7121C2.53387 13.7121 2.29836 13.8109 2.12471 13.9867C1.95107 14.1625 1.85352 14.401 1.85352 14.6496V18.3996C1.85352 19.1455 2.14617 19.8609 2.66711 20.3884C3.18804 20.9158 3.89458 21.2121 4.63129 21.2121H17.5942C18.331 21.2121 19.0375 20.9158 19.5584 20.3884C20.0794 19.8609 20.372 19.1455 20.372 18.3996V14.6496C20.372 14.401 20.2745 14.1625 20.1008 13.9867C19.9272 13.8109 19.6917 13.7121 19.4461 13.7121Z" fill="white"/>
</g>
</svg>
