<svg width="15" height="16" viewBox="0 0 15 16" fill="none" xmlns="http://www.w3.org/2000/svg">
<path id="Vector" d="M5.0325 5.02876L6.75 3.30376V10.4963C6.75 10.6952 6.82902 10.8859 6.96967 11.0266C7.11032 11.1672 7.30109 11.2463 7.5 11.2463C7.69891 11.2463 7.88968 11.1672 8.03033 11.0266C8.17098 10.8859 8.25 10.6952 8.25 10.4963V3.30376L9.9675 5.02876C10.0372 5.09906 10.1202 5.15485 10.2116 5.19293C10.303 5.23101 10.401 5.25061 10.5 5.25061C10.599 5.25061 10.697 5.23101 10.7884 5.19293C10.8798 5.15485 10.9628 5.09906 11.0325 5.02876C11.1028 4.95904 11.1586 4.87609 11.1967 4.78469C11.2347 4.6933 11.2543 4.59527 11.2543 4.49626C11.2543 4.39725 11.2347 4.29922 11.1967 4.20783C11.1586 4.11643 11.1028 4.03348 11.0325 3.96376L8.0325 0.96376C7.96117 0.89548 7.87706 0.841956 7.785 0.80626C7.6024 0.731247 7.39759 0.731247 7.215 0.80626C7.12294 0.841956 7.03883 0.89548 6.9675 0.96376L3.9675 3.96376C3.89757 4.03369 3.8421 4.11671 3.80425 4.20807C3.76641 4.29944 3.74693 4.39737 3.74693 4.49626C3.74693 4.59515 3.76641 4.69308 3.80425 4.78445C3.8421 4.87581 3.89757 4.95883 3.9675 5.02876C4.03743 5.09869 4.12045 5.15416 4.21181 5.19201C4.30318 5.22985 4.4011 5.24933 4.5 5.24933C4.59889 5.24933 4.69682 5.22985 4.78819 5.19201C4.87955 5.15416 4.96257 5.09869 5.0325 5.02876ZM14.25 9.74626C14.0511 9.74626 13.8603 9.82528 13.7197 9.96593C13.579 10.1066 13.5 10.2973 13.5 10.4963V13.4963C13.5 13.6952 13.421 13.8859 13.2803 14.0266C13.1397 14.1672 12.9489 14.2463 12.75 14.2463H2.25C2.05109 14.2463 1.86032 14.1672 1.71967 14.0266C1.57902 13.8859 1.5 13.6952 1.5 13.4963V10.4963C1.5 10.2973 1.42098 10.1066 1.28033 9.96593C1.13968 9.82528 0.948912 9.74626 0.75 9.74626C0.551088 9.74626 0.360322 9.82528 0.21967 9.96593C0.0790176 10.1066 0 10.2973 0 10.4963V13.4963C0 14.093 0.237053 14.6653 0.65901 15.0873C1.08097 15.5092 1.65326 15.7463 2.25 15.7463H12.75C13.3467 15.7463 13.919 15.5092 14.341 15.0873C14.7629 14.6653 15 14.093 15 13.4963V10.4963C15 10.2973 14.921 10.1066 14.7803 9.96593C14.6397 9.82528 14.4489 9.74626 14.25 9.74626Z" fill="#24A3D9"/>
</svg>
