<svg width="27" height="24" viewBox="0 0 27 24" fill="none" xmlns="http://www.w3.org/2000/svg">
<g id="uil:export">
<path id="Vector" d="M10.0141 7.71087L12.5586 5.41087V15.0009C12.5586 15.2661 12.6757 15.5204 12.884 15.708C13.0924 15.8955 13.375 16.0009 13.6697 16.0009C13.9644 16.0009 14.247 15.8955 14.4554 15.708C14.6638 15.5204 14.7808 15.2661 14.7808 15.0009V5.41087L17.3253 7.71087C17.4286 7.8046 17.5514 7.879 17.6868 7.92976C17.8222 7.98053 17.9675 8.00667 18.1141 8.00667C18.2608 8.00667 18.4061 7.98053 18.5415 7.92976C18.6769 7.879 18.7997 7.8046 18.903 7.71087C19.0072 7.61791 19.0898 7.50731 19.1462 7.38545C19.2027 7.26359 19.2317 7.13288 19.2317 7.00087C19.2317 6.86886 19.2027 6.73816 19.1462 6.6163C19.0898 6.49444 19.0072 6.38384 18.903 6.29087L14.4586 2.29087C14.3529 2.19983 14.2283 2.12847 14.0919 2.08087C13.8214 1.98085 13.518 1.98085 13.2475 2.08087C13.1111 2.12847 12.9865 2.19983 12.8808 2.29087L8.43637 6.29087C8.33277 6.38411 8.25059 6.4948 8.19453 6.61662C8.13846 6.73845 8.1096 6.86901 8.1096 7.00087C8.1096 7.13273 8.13846 7.2633 8.19453 7.38512C8.25059 7.50694 8.33277 7.61763 8.43637 7.71087C8.53997 7.80411 8.66296 7.87807 8.79832 7.92853C8.93367 7.97899 9.07875 8.00496 9.22526 8.00496C9.37177 8.00496 9.51685 7.97899 9.6522 7.92853C9.78756 7.87807 9.91055 7.80411 10.0141 7.71087ZM23.6697 14.0009C23.375 14.0009 23.0924 14.1062 22.884 14.2938C22.6757 14.4813 22.5586 14.7357 22.5586 15.0009V19.0009C22.5586 19.2661 22.4415 19.5204 22.2332 19.708C22.0248 19.8955 21.7422 20.0009 21.4475 20.0009H5.89193C5.59724 20.0009 5.31463 19.8955 5.10625 19.708C4.89788 19.5204 4.78082 19.2661 4.78082 19.0009V15.0009C4.78082 14.7357 4.66375 14.4813 4.45538 14.2938C4.24701 14.1062 3.96439 14.0009 3.6697 14.0009C3.37502 14.0009 3.0924 14.1062 2.88403 14.2938C2.67566 14.4813 2.55859 14.7357 2.55859 15.0009V19.0009C2.55859 19.7965 2.90978 20.5596 3.5349 21.1222C4.16003 21.6848 5.00787 22.0009 5.89193 22.0009H21.4475C22.3315 22.0009 23.1794 21.6848 23.8045 21.1222C24.4296 20.5596 24.7808 19.7965 24.7808 19.0009V15.0009C24.7808 14.7357 24.6638 14.4813 24.4554 14.2938C24.247 14.1062 23.9644 14.0009 23.6697 14.0009Z" fill="white"/>
</g>
</svg>
