<svg width="15" height="15" viewBox="0 0 15 15" fill="none" xmlns="http://www.w3.org/2000/svg">
<path d="M9.27563 10.0995L8.80554 9.39435C8.45202 8.91024 7.74966 9.41027 8.09039 9.90406H6.90989C7.25057 9.41053 6.54832 8.91007 6.19469 9.39432L5.72459 10.0995C5.62631 10.2469 5.62631 10.439 5.72459 10.5864L6.19471 11.2916C6.2762 11.4138 6.53469 11.5925 6.80335 11.4133C7.01441 11.2736 7.06096 10.9835 6.90986 10.7819H8.09036C7.93929 10.9835 7.98579 11.2737 8.1969 11.4134C8.45705 11.5868 8.71492 11.4275 8.80554 11.2916L9.27563 10.5864C9.37391 10.439 9.37391 10.2469 9.27563 10.0995Z" fill="#26435F"/>
<path d="M10.4026 3.6759C11.6417 4.51131 12.4636 5.83521 12.6576 7.30813C12.6828 7.4997 12.8633 7.72369 13.1501 7.68597C13.3904 7.65431 13.5595 7.43384 13.5279 7.19349C13.301 5.47139 12.3408 3.924 10.8933 2.94806C10.6923 2.81258 10.4195 2.86566 10.284 3.06662C10.1485 3.2676 10.2016 3.5404 10.4026 3.6759Z" fill="#26435F"/>
<path d="M1.84993 7.68596C2.13668 7.72368 2.31739 7.49782 2.34238 7.30813C2.53637 5.8352 3.35829 4.51133 4.5974 3.67592C4.79838 3.54042 4.85146 3.26763 4.71596 3.06664C4.58046 2.86565 4.30763 2.81257 4.10668 2.94808C2.65915 3.92399 1.69886 5.47138 1.47206 7.19351C1.44043 7.43383 1.60959 7.6543 1.84993 7.68596Z" fill="#26435F"/>
<path d="M4.44429 9.90448C4.44429 9.1268 3.81159 8.49414 3.03395 8.49414C1.16551 8.56504 1.16601 11.2442 3.03398 11.3148C3.81159 11.3148 4.44429 10.6822 4.44429 9.90448Z" fill="#26435F"/>
<path d="M3.0339 11.3142C0.290706 11.2172 -1.16358 15.2855 1.15344 15.4828C1.15344 15.4828 4.91433 15.4828 4.91433 15.4828C7.23182 15.285 5.77651 11.2171 3.0339 11.3142Z" fill="#26435F"/>
<path d="M13.3764 9.90448C13.3764 9.1268 12.7437 8.49414 11.9661 8.49414C10.0976 8.56504 10.0981 11.2442 11.9661 11.3148C12.7438 11.3148 13.3764 10.6822 13.3764 9.90448Z" fill="#26435F"/>
<path d="M11.966 11.3142C9.22282 11.2173 7.76856 15.2855 10.0856 15.4829C10.0856 15.4828 13.8464 15.4828 13.8464 15.4828C16.1639 15.285 14.7086 11.2171 11.966 11.3142Z" fill="#26435F"/>
<path d="M8.91011 1.91229C8.91011 1.13462 8.27741 0.501953 7.49977 0.501953C5.63133 0.57285 5.63183 3.252 7.4998 3.32263C8.27744 3.3226 8.91011 2.68994 8.91011 1.91229Z" fill="#26435F"/>
<path d="M4.47559 6.34744C4.47559 6.97829 4.98881 7.49151 5.61966 7.49151H9.38055C10.0114 7.49151 10.5246 6.97829 10.5246 6.34744C10.3778 2.33781 4.62039 2.34202 4.47559 6.34744Z" fill="#26435F"/>
</svg>
