<svg width="15" height="15" viewBox="0 0 15 15" fill="none" xmlns="http://www.w3.org/2000/svg">
<path d="M9.27587 10.0995L8.80578 9.39435C8.45226 8.91024 7.7499 9.41027 8.09063 9.90406H6.91013C7.25081 9.41053 6.54857 8.91007 6.19493 9.39432L5.72484 10.0995C5.62655 10.2469 5.62655 10.439 5.72484 10.5864L6.19496 11.2916C6.27645 11.4138 6.53493 11.5925 6.8036 11.4133C7.01465 11.2736 7.0612 10.9835 6.91011 10.7819H8.09061C7.93954 10.9835 7.98603 11.2737 8.19714 11.4134C8.45729 11.5868 8.71516 11.4275 8.80578 11.2916L9.27587 10.5864C9.37416 10.439 9.37416 10.2469 9.27587 10.0995Z" fill="white"/>
<path d="M10.4033 3.6759C11.6424 4.51131 12.4643 5.83521 12.6583 7.30813C12.6836 7.4997 12.8641 7.72369 13.1508 7.68597C13.3911 7.65431 13.5602 7.43384 13.5286 7.19349C13.3018 5.47139 12.3415 3.924 10.894 2.94806C10.693 2.81258 10.4203 2.86566 10.2847 3.06662C10.1493 3.2676 10.2023 3.5404 10.4033 3.6759Z" fill="white"/>
<path d="M1.85017 7.68596C2.13692 7.72368 2.31763 7.49782 2.34262 7.30813C2.53662 5.8352 3.35853 4.51133 4.59764 3.67592C4.79863 3.54042 4.85171 3.26763 4.7162 3.06664C4.5807 2.86565 4.30788 2.81257 4.10692 2.94808C2.65939 3.92399 1.6991 5.47138 1.47231 7.19351C1.44068 7.43383 1.60983 7.6543 1.85017 7.68596Z" fill="white"/>
<path d="M4.44477 9.90448C4.44477 9.1268 3.81208 8.49414 3.03444 8.49414C1.166 8.56504 1.1665 11.2442 3.03447 11.3148C3.81208 11.3148 4.44477 10.6822 4.44477 9.90448Z" fill="white"/>
<path d="M3.03439 11.3142C0.291194 11.2172 -1.16309 15.2855 1.15393 15.4828C1.15393 15.4828 4.91482 15.4828 4.91482 15.4828C7.23231 15.285 5.777 11.2171 3.03439 11.3142Z" fill="white"/>
<path d="M13.3769 9.90448C13.3769 9.1268 12.7442 8.49414 11.9666 8.49414C10.0981 8.56504 10.0986 11.2442 11.9666 11.3148C12.7442 11.3148 13.3769 10.6822 13.3769 9.90448Z" fill="white"/>
<path d="M11.9665 11.3142C9.22331 11.2173 7.76905 15.2855 10.086 15.4829C10.086 15.4828 13.8469 15.4828 13.8469 15.4828C16.1644 15.285 14.7091 11.2171 11.9665 11.3142Z" fill="white"/>
<path d="M8.91084 1.91229C8.91084 1.13462 8.27815 0.501953 7.5005 0.501953C5.63207 0.57285 5.63256 3.252 7.50053 3.32263C8.27818 3.3226 8.91084 2.68994 8.91084 1.91229Z" fill="white"/>
<path d="M4.47583 6.34744C4.47583 6.97829 4.98905 7.49151 5.6199 7.49151H9.38079C10.0116 7.49151 10.5249 6.97829 10.5249 6.34744C10.3781 2.33781 4.62064 2.34202 4.47583 6.34744Z" fill="white"/>
</svg>
