<svg width="20" height="20" viewBox="0 0 20 20" fill="none" xmlns="http://www.w3.org/2000/svg">
<g id="mdi:invite">
<path id="Vector" d="M15.8333 14.166V15.8327H5.83333V14.166C5.83333 14.166 5.83333 10.8327 10.8333 10.8327C15.8333 10.8327 15.8333 14.166 15.8333 14.166ZM13.3333 6.66602C13.3333 6.17156 13.1867 5.68821 12.912 5.27709C12.6373 4.86597 12.2469 4.54554 11.79 4.35632C11.3332 4.1671 10.8306 4.11759 10.3456 4.21405C9.86065 4.31052 9.4152 4.54862 9.06557 4.89825C8.71593 5.24788 8.47783 5.69334 8.38137 6.17829C8.28491 6.66324 8.33442 7.16591 8.52363 7.62273C8.71285 8.07954 9.03328 8.46999 9.44441 8.74469C9.85553 9.01939 10.3389 9.16602 10.8333 9.16602C11.4964 9.16602 12.1323 8.90262 12.6011 8.43378C13.0699 7.96494 13.3333 7.32906 13.3333 6.66602ZM16 10.8827C16.4555 11.3029 16.8228 11.8097 17.0803 12.3734C17.3379 12.9372 17.4805 13.5466 17.5 14.166V15.8327H20V14.166C20 14.166 20 11.291 16 10.8827ZM15 4.16602C14.7482 4.16617 14.498 4.20553 14.2583 4.28268C14.7459 4.98182 15.0073 5.81367 15.0073 6.66602C15.0073 7.51836 14.7459 8.35021 14.2583 9.04935C14.498 9.1265 14.7482 9.16587 15 9.16602C15.663 9.16602 16.2989 8.90262 16.7678 8.43378C17.2366 7.96494 17.5 7.32906 17.5 6.66602C17.5 6.00298 17.2366 5.36709 16.7678 4.89825C16.2989 4.42941 15.663 4.16602 15 4.16602ZM6.66667 8.33268H4.16667V5.83268H2.5V8.33268H0V9.99935H2.5V12.4993H4.16667V9.99935H6.66667V8.33268Z" fill="white"/>
</g>
</svg>
