<svg width="22" height="24" viewBox="0 0 22 24" fill="none" xmlns="http://www.w3.org/2000/svg">
<path d="M9.16422 19.7272L4.63589 15.1989L6.36533 13.4694L9.16911 16.2732L15.6383 9.80397L17.3678 11.5334L9.16422 19.7272ZM22 5.0593V20.9482C22 21.5965 21.7425 22.2182 21.284 22.6767C20.8256 23.1351 20.2039 23.3926 19.5556 23.3926H2.44444C1.79614 23.3926 1.17438 23.1351 0.715961 22.6767C0.257539 22.2182 0 21.5965 0 20.9482V5.0593C0 4.41099 0.257539 3.78924 0.715961 3.33082C1.17438 2.87239 1.79614 2.61485 2.44444 2.61485H3.66667V0.17041H6.11111V2.61485H15.8889V0.17041H18.3333V2.61485H19.5556C20.2039 2.61485 20.8256 2.87239 21.284 3.33082C21.7425 3.78924 22 4.41099 22 5.0593ZM19.5556 7.50374H2.44444V20.9482H19.5556V7.50374Z" fill="#00ADD3"/>
</svg>
