<svg width="26" height="26" viewBox="0 0 26 26" fill="none" xmlns="http://www.w3.org/2000/svg">
<path d="M12.8902 22.9468C7.50019 22.9468 3.11241 18.559 3.11241 13.169C3.11241 7.779 7.50019 3.39122 12.8902 3.39122C18.2802 3.39122 22.668 7.779 22.668 13.169C22.668 18.559 18.2802 22.9468 12.8902 22.9468ZM12.8902 0.946777C6.1313 0.946777 0.667969 6.41011 0.667969 13.169C0.667969 19.9279 6.1313 25.3912 12.8902 25.3912C19.6491 25.3912 25.1124 19.9279 25.1124 13.169C25.1124 6.41011 19.6491 0.946777 12.8902 0.946777ZM16.0557 8.28011L12.8902 11.4457L9.72464 8.28011L8.0013 10.0034L11.1669 13.169L8.0013 16.3346L9.72464 18.0579L12.8902 14.8923L16.0557 18.0579L17.7791 16.3346L14.6135 13.169L17.7791 10.0034L16.0557 8.28011Z" fill="#969696"/>
</svg>
