<svg width="9" height="14" viewBox="0 0 9 14" fill="none" xmlns="http://www.w3.org/2000/svg">
<path d="M1.09766 13.2379C0.93099 13.0712 0.847656 12.8739 0.847656 12.6459C0.847656 12.4179 0.93099 12.2208 1.09766 12.0546L5.98099 7.17122L1.08099 2.27122C0.925434 2.11567 0.847656 1.92122 0.847656 1.68789C0.847656 1.45456 0.93099 1.25456 1.09766 1.08789C1.26432 0.921224 1.46166 0.837891 1.68966 0.837891C1.91766 0.837891 2.11477 0.921224 2.28099 1.08789L7.88099 6.70456C7.94766 6.77122 7.99499 6.84345 8.02299 6.92122C8.05099 6.999 8.06477 7.08234 8.06432 7.17122C8.06432 7.26011 8.05032 7.34345 8.02232 7.42122C7.99432 7.499 7.94721 7.57122 7.88099 7.63789L2.26432 13.2546C2.10877 13.4101 1.91699 13.4879 1.68899 13.4879C1.46099 13.4879 1.26388 13.4046 1.09766 13.2379Z" fill="#667085"/>
</svg>
