<svg width="26" height="26" viewBox="0 0 26 26" fill="none" xmlns="http://www.w3.org/2000/svg">
<path d="M11.1752 18.7912L19.7918 10.1746L18.0807 8.46344L11.1752 15.369L7.69184 11.8857L5.98073 13.5968L11.1752 18.7912ZM12.8863 25.3912C11.1955 25.3912 9.60666 25.0702 8.11962 24.4281C6.63258 23.786 5.33906 22.9154 4.23906 21.8162C3.13906 20.7162 2.26843 19.4227 1.62717 17.9357C0.985914 16.4486 0.664877 14.8597 0.664062 13.169C0.664062 11.4783 0.9851 9.88937 1.62717 8.40233C2.26925 6.9153 3.13988 5.62178 4.23906 4.52178C5.33906 3.42178 6.63258 2.55115 8.11962 1.90989C9.60666 1.26863 11.1955 0.947592 12.8863 0.946777C14.577 0.946777 16.1659 1.26781 17.653 1.90989C19.14 2.55196 20.4335 3.42259 21.5335 4.52178C22.6335 5.62178 23.5045 6.9153 24.1466 8.40233C24.7887 9.88937 25.1093 11.4783 25.1085 13.169C25.1085 14.8597 24.7875 16.4486 24.1454 17.9357C23.5033 19.4227 22.6327 20.7162 21.5335 21.8162C20.4335 22.9162 19.14 23.7873 17.653 24.4293C16.1659 25.0714 14.577 25.392 12.8863 25.3912ZM12.8863 22.9468C15.6159 22.9468 17.928 21.9996 19.8224 20.1051C21.7168 18.2107 22.6641 15.8986 22.6641 13.169C22.6641 10.4394 21.7168 8.12733 19.8224 6.23289C17.928 4.33844 15.6159 3.39122 12.8863 3.39122C10.1567 3.39122 7.84462 4.33844 5.95017 6.23289C4.05573 8.12733 3.10851 10.4394 3.10851 13.169C3.10851 15.8986 4.05573 18.2107 5.95017 20.1051C7.84462 21.9996 10.1567 22.9468 12.8863 22.9468Z" fill="#42CD00"/>
</svg>
