<svg xmlns="http://www.w3.org/2000/svg" width="19" height="17" viewBox="0 0 19 17" fill="none">
  <path d="M7.55309 10.4958C7.01502 9.95863 6.6875 9.22873 6.6875 8.40992C6.6875 6.76951 8.00881 5.44727 9.64829 5.44727C10.4596 5.44727 11.2064 5.77572 11.7351 6.31286" stroke="#667085" stroke-width="0.935773" stroke-linecap="round" stroke-linejoin="round"/>
  <path d="M12.5537 8.93359C12.3366 10.1407 11.3859 11.0934 10.1797 11.3123" stroke="#667085" stroke-width="0.935773" stroke-linecap="round" stroke-linejoin="round"/>
  <path d="M4.64638 13.4005C3.16131 12.2346 1.90363 10.5314 0.992188 8.40817C1.91299 6.27555 3.17909 4.56308 4.67352 3.38775C6.15859 2.21242 7.87199 1.57422 9.64809 1.57422C11.4345 1.57422 13.1469 2.22177 14.6414 3.40553" stroke="#667085" stroke-width="0.935773" stroke-linecap="round" stroke-linejoin="round"/>
  <path d="M16.6183 5.46289C17.2621 6.31819 17.8283 7.30543 18.3046 8.40683C16.4639 12.6712 13.2112 15.2399 9.64868 15.2399C8.8411 15.2399 8.04476 15.1088 7.2793 14.8534" stroke="#667085" stroke-width="0.935773" stroke-linecap="round" stroke-linejoin="round"/>
  </svg>