<svg xmlns="http://www.w3.org/2000/svg" width="13" height="12" viewBox="0 0 13 12" fill="none">
  <path d="M11.3576 0H10.2361V1.1215C10.2361 1.34579 10.0492 1.49533 9.86228 1.49533C9.67536 1.49533 9.48845 1.34579 9.48845 1.1215V0H3.50714V1.1215C3.50714 1.34579 3.32022 1.49533 3.13331 1.49533C2.94639 1.49533 2.75947 1.34579 2.75947 1.1215V0H1.63798C1.07723 0 0.666016 0.485981 0.666016 1.1215V2.46729H12.6286V1.1215C12.6286 0.485981 11.9557 0 11.3576 0ZM0.666016 3.25234V10.0935C0.666016 10.7664 1.07723 11.215 1.67536 11.215H11.395C11.9931 11.215 12.666 10.729 12.666 10.0935V3.25234H0.666016ZM3.99312 9.53271H3.09592C2.94639 9.53271 2.79686 9.42056 2.79686 9.23365V8.29907C2.79686 8.14953 2.90901 8 3.09592 8H4.0305C4.18003 8 4.32957 8.11215 4.32957 8.29907V9.23365C4.29218 9.42056 4.18003 9.53271 3.99312 9.53271ZM3.99312 6.16822H3.09592C2.94639 6.16822 2.79686 6.05608 2.79686 5.86916V4.93458C2.79686 4.78505 2.90901 4.63551 3.09592 4.63551H4.0305C4.18003 4.63551 4.32957 4.74766 4.32957 4.93458V5.86916C4.29218 6.05608 4.18003 6.16822 3.99312 6.16822ZM6.98377 9.53271H6.04919C5.89966 9.53271 5.75013 9.42056 5.75013 9.23365V8.29907C5.75013 8.14953 5.86228 8 6.04919 8H6.98377C7.13331 8 7.28284 8.11215 7.28284 8.29907V9.23365C7.28284 9.42056 7.17069 9.53271 6.98377 9.53271ZM6.98377 6.16822H6.04919C5.89966 6.16822 5.75013 6.05608 5.75013 5.86916V4.93458C5.75013 4.78505 5.86228 4.63551 6.04919 4.63551H6.98377C7.13331 4.63551 7.28284 4.74766 7.28284 4.93458V5.86916C7.28284 6.05608 7.17069 6.16822 6.98377 6.16822ZM9.97443 9.53271H9.03985C8.89032 9.53271 8.74078 9.42056 8.74078 9.23365V8.29907C8.74078 8.14953 8.85293 8 9.03985 8H9.97443C10.124 8 10.2735 8.11215 10.2735 8.29907V9.23365C10.2735 9.42056 10.1613 9.53271 9.97443 9.53271ZM9.97443 6.16822H9.03985C8.89032 6.16822 8.74078 6.05608 8.74078 5.86916V4.93458C8.74078 4.78505 8.85293 4.63551 9.03985 4.63551H9.97443C10.124 4.63551 10.2735 4.74766 10.2735 4.93458V5.86916C10.2735 6.05608 10.1613 6.16822 9.97443 6.16822Z" fill="#FFA28D"/>
</svg>