<svg width="412" height="308" viewBox="0 0 412 308" fill="none" xmlns="http://www.w3.org/2000/svg">
<g opacity="0.15">
<path d="M122.669 9.75493C108.404 8.49966 93.631 13.9795 84.3023 23.9871C77.5106 31.2736 73.6527 40.5283 67.1206 48.0136C54.7247 62.2186 34.0436 68.643 21.6862 82.877C8.93989 97.5588 7.40582 118.876 15.0277 136.309C22.6497 153.742 38.3526 167.454 56.2361 176.526C62.5066 179.707 69.2302 182.486 74.1315 187.289C81.9321 194.934 83.6596 206.36 82.5254 216.795C81.3921 227.229 77.8225 237.335 76.5658 247.758C75.6744 255.15 76.172 263.231 81.1522 269.087C85.7307 274.472 93.2342 276.96 100.5 278.393C122.252 282.683 145.624 279.628 165.218 269.935C181.067 262.093 194.352 250.174 210.787 243.432C230.508 235.344 253.049 235.428 274.459 238C287.569 239.575 300.627 242.03 313.849 241.982C327.071 241.934 340.8 239.108 350.949 231.312C360.684 223.835 366.111 212.615 369.475 201.366C377.703 173.86 375.186 143.742 362.485 117.718C358.555 109.665 353.574 101.871 346.447 95.962C339.073 89.8492 329.816 86.0751 320.729 82.4002C292.437 70.9592 261.087 52.8103 229.96 50.0228C220.764 49.1989 211.429 50.4778 202.377 48.4151C188.478 45.2487 176.606 36.7207 165.309 29.0555C152.563 20.4066 138.954 11.1882 122.669 9.75493Z" fill="url(#paint0_linear_17887_30315)"/>
<path d="M277.049 223.419C276.31 223.419 275.573 223.414 274.836 223.403C274.563 223.399 274.346 223.193 274.35 222.942C274.354 222.691 274.587 222.491 274.851 222.495C276.16 222.514 277.47 222.514 278.785 222.501C279.019 222.484 279.282 222.699 279.285 222.95C279.288 223.201 279.07 223.407 278.797 223.409C278.214 223.416 277.63 223.419 277.049 223.419ZM284.711 223.231C284.45 223.231 284.232 223.043 284.219 222.801C284.204 222.551 284.412 222.337 284.686 222.324C285.996 222.26 287.305 222.179 288.613 222.082C288.882 222.068 289.123 222.249 289.144 222.498C289.165 222.748 288.963 222.968 288.692 222.987C287.375 223.085 286.058 223.165 284.738 223.231C284.728 223.231 284.72 223.231 284.711 223.231ZM268.924 223.207C268.916 223.207 268.906 223.207 268.897 223.206C267.578 223.137 266.26 223.051 264.945 222.948C264.674 222.927 264.472 222.707 264.495 222.458C264.518 222.208 264.764 222.027 265.028 222.043C266.335 222.144 267.644 222.231 268.953 222.3C269.226 222.314 269.433 222.528 269.418 222.778C269.402 223.021 269.184 223.207 268.924 223.207ZM294.541 222.443C294.296 222.443 294.082 222.274 294.053 222.043C294.02 221.795 294.213 221.569 294.483 221.538C295.785 221.393 297.085 221.231 298.384 221.054C298.65 221.017 298.904 221.188 298.943 221.437C298.984 221.685 298.797 221.915 298.528 221.952C297.222 222.131 295.913 222.294 294.6 222.439C294.582 222.442 294.561 222.443 294.541 222.443ZM259.097 222.372C259.076 222.372 259.055 222.371 259.034 222.369C257.724 222.214 256.416 222.043 255.111 221.854C254.842 221.815 254.658 221.583 254.7 221.335C254.743 221.087 255 220.921 255.265 220.957C256.56 221.144 257.858 221.316 259.158 221.468C259.428 221.5 259.62 221.727 259.586 221.977C259.554 222.204 259.342 222.372 259.097 222.372ZM304.295 221.047C304.063 221.047 303.856 220.895 303.811 220.678C303.76 220.432 303.936 220.194 304.203 220.147C305.493 219.922 306.777 219.68 308.06 219.423C308.331 219.368 308.589 219.524 308.647 219.77C308.705 220.015 308.537 220.257 308.27 220.31C306.98 220.569 305.686 220.813 304.387 221.04C304.356 221.044 304.325 221.047 304.295 221.047ZM313.925 219.051C313.704 219.051 313.505 218.917 313.448 218.712C313.379 218.469 313.537 218.221 313.8 218.159C315.069 217.853 316.334 217.533 317.594 217.197C317.859 217.126 318.13 217.265 318.206 217.506C318.281 217.748 318.131 218 317.869 218.07C316.601 218.407 315.327 218.73 314.049 219.037C314.007 219.047 313.966 219.051 313.925 219.051ZM323.386 216.466C323.179 216.466 322.987 216.347 322.917 216.156C322.831 215.918 322.97 215.661 323.229 215.581C324.472 215.198 325.711 214.801 326.944 214.388C327.202 214.303 327.483 214.424 327.577 214.66C327.671 214.896 327.539 215.156 327.282 215.242C326.041 215.658 324.795 216.058 323.542 216.444C323.49 216.459 323.438 216.466 323.386 216.466ZM332.635 213.298C332.442 213.298 332.257 213.192 332.178 213.017C332.076 212.784 332.196 212.519 332.447 212.424C333.66 211.965 334.867 211.491 336.066 211.001C336.314 210.901 336.607 211.001 336.717 211.232C336.828 211.462 336.715 211.73 336.466 211.831C335.258 212.325 334.044 212.802 332.823 213.265C332.762 213.288 332.697 213.298 332.635 213.298ZM341.628 209.557C341.447 209.557 341.272 209.463 341.186 209.304C341.066 209.079 341.165 208.807 341.41 208.696C342.586 208.162 343.755 207.612 344.914 207.047C345.156 206.932 345.454 207.015 345.581 207.236C345.709 207.458 345.617 207.733 345.377 207.85C344.208 208.42 343.032 208.973 341.849 209.511C341.776 209.542 341.701 209.557 341.628 209.557ZM350.319 205.252C350.15 205.252 349.985 205.172 349.893 205.027C349.755 204.811 349.835 204.532 350.071 204.406C351.203 203.797 352.325 203.174 353.439 202.535C353.671 202.405 353.976 202.468 354.119 202.68C354.263 202.893 354.192 203.173 353.961 203.306C352.84 203.948 351.708 204.578 350.567 205.189C350.49 205.233 350.404 205.252 350.319 205.252ZM358.659 200.395C358.502 200.395 358.347 200.326 358.251 200.197C358.098 199.989 358.156 199.707 358.381 199.566C359.461 198.886 360.533 198.19 361.59 197.477C361.808 197.328 362.118 197.371 362.28 197.574C362.441 197.776 362.393 198.061 362.174 198.209C361.107 198.928 360.027 199.63 358.938 200.315C358.853 200.369 358.756 200.395 358.659 200.395ZM366.55 194.944C366.409 194.944 366.269 194.889 366.171 194.781C365.997 194.588 366.025 194.303 366.235 194.141C367.259 193.353 368.25 192.551 369.179 191.758C369.378 191.586 369.691 191.596 369.876 191.781C370.062 191.965 370.051 192.252 369.851 192.423C368.91 193.227 367.905 194.039 366.866 194.838C366.776 194.91 366.662 194.944 366.55 194.944ZM373.666 188.661C373.549 188.661 373.432 188.622 373.338 188.546C373.134 188.379 373.116 188.092 373.297 187.905C373.882 187.3 374.453 186.682 375.007 186.051C375.273 185.748 375.536 185.441 375.793 185.133C375.96 184.934 376.27 184.897 376.485 185.049C376.702 185.203 376.742 185.487 376.576 185.686C376.313 186 376.046 186.312 375.775 186.62C375.21 187.264 374.629 187.891 374.034 188.507C373.936 188.61 373.802 188.661 373.666 188.661ZM379.536 181.38C379.447 181.38 379.358 181.359 379.277 181.313C379.045 181.182 378.972 180.903 379.114 180.687C379.784 179.684 380.433 178.629 381.044 177.556C381.172 177.334 381.472 177.25 381.711 177.364C381.952 177.481 382.046 177.755 381.92 177.978C381.298 179.069 380.637 180.141 379.957 181.163C379.863 181.302 379.702 181.38 379.536 181.38ZM383.978 173.283C383.915 173.283 383.852 173.272 383.79 173.249C383.539 173.154 383.418 172.889 383.522 172.656C384.009 171.568 384.475 170.433 384.908 169.283C384.998 169.047 385.278 168.921 385.537 169.002C385.794 169.085 385.931 169.344 385.842 169.581C385.402 170.746 384.93 171.897 384.436 173.002C384.356 173.178 384.172 173.283 383.978 173.283ZM387.097 164.669C387.056 164.669 387.013 164.665 386.971 164.654C386.707 164.59 386.55 164.341 386.62 164.099C386.947 162.959 387.256 161.777 387.537 160.588C387.595 160.342 387.861 160.189 388.123 160.24C388.391 160.293 388.559 160.534 388.501 160.779C388.218 161.983 387.906 163.179 387.575 164.332C387.515 164.535 387.316 164.669 387.097 164.669ZM389.101 155.777C389.076 155.777 389.05 155.775 389.024 155.772C388.756 155.733 388.571 155.501 388.613 155.253C388.812 154.079 388.994 152.872 389.153 151.669C389.185 151.421 389.438 151.243 389.703 151.273C389.972 151.303 390.166 151.529 390.133 151.779C389.973 152.992 389.789 154.209 389.589 155.393C389.55 155.618 389.34 155.777 389.101 155.777ZM390.223 146.752C390.209 146.752 390.197 146.752 390.184 146.751C389.913 146.732 389.709 146.514 389.73 146.264C389.83 145.06 389.912 143.855 389.98 142.649C389.994 142.399 390.196 142.206 390.497 142.218C390.77 142.231 390.979 142.445 390.965 142.695C390.898 143.908 390.815 145.122 390.714 146.333C390.694 146.572 390.477 146.752 390.223 146.752ZM300.106 138.92C299.851 138.92 299.635 138.739 299.616 138.502C299.594 138.252 299.797 138.033 300.068 138.013C301.283 137.924 302.54 137.754 303.911 137.491C304.172 137.439 304.439 137.597 304.494 137.843C304.55 138.088 304.379 138.329 304.111 138.38C302.7 138.65 301.403 138.826 300.146 138.919C300.133 138.92 300.119 138.92 300.106 138.92ZM294.217 138.608C294.182 138.608 294.146 138.604 294.11 138.597C293.908 138.556 293.705 138.51 293.503 138.462C292.394 138.196 291.312 137.815 290.288 137.328C290.046 137.213 289.95 136.939 290.076 136.716C290.201 136.493 290.499 136.406 290.741 136.521C291.701 136.977 292.714 137.335 293.752 137.584C293.942 137.629 294.134 137.672 294.324 137.711C294.591 137.766 294.758 138.008 294.699 138.253C294.647 138.463 294.443 138.608 294.217 138.608ZM390.677 137.679C390.674 137.679 390.671 137.679 390.667 137.679C390.396 137.675 390.178 137.468 390.183 137.217C390.208 136.006 390.221 134.797 390.222 133.592C390.222 133.341 390.443 133.138 390.715 133.138C390.988 133.138 391.209 133.341 391.209 133.593C391.208 134.804 391.195 136.018 391.17 137.234C391.166 137.481 390.944 137.679 390.677 137.679ZM309.722 136.955C309.515 136.955 309.322 136.835 309.253 136.644C309.167 136.406 309.309 136.149 309.566 136.07C310.757 135.707 311.996 135.291 313.248 134.834C313.501 134.742 313.788 134.856 313.889 135.089C313.99 135.322 313.866 135.586 313.613 135.678C312.342 136.142 311.085 136.564 309.877 136.932C309.825 136.948 309.773 136.955 309.722 136.955ZM285.852 134.065C285.719 134.065 285.586 134.015 285.489 133.918C284.599 133.024 283.785 132.022 283.075 130.94C282.933 130.725 283.008 130.446 283.241 130.317C283.474 130.188 283.778 130.256 283.92 130.47C284.597 131.501 285.371 132.455 286.217 133.305C286.4 133.49 286.387 133.777 286.187 133.947C286.091 134.026 285.972 134.065 285.852 134.065ZM318.859 133.532C318.674 133.532 318.497 133.436 318.413 133.271C318.297 133.045 318.402 132.773 318.648 132.667C319.834 132.152 321.012 131.62 322.183 131.076C322.425 130.961 322.723 131.052 322.847 131.277C322.969 131.501 322.871 131.773 322.628 131.886C321.45 132.433 320.263 132.97 319.071 133.488C319.002 133.518 318.93 133.532 318.859 133.532ZM327.664 129.427C327.487 129.427 327.316 129.339 327.228 129.186C327.1 128.964 327.193 128.689 327.434 128.572C328.594 128.008 329.754 127.436 330.91 126.858C331.149 126.74 331.449 126.819 331.58 127.04C331.71 127.261 331.621 127.536 331.383 127.656C330.223 128.237 329.06 128.809 327.896 129.375C327.822 129.41 327.743 129.427 327.664 129.427ZM390.652 128.596C390.385 128.596 390.165 128.399 390.159 128.151C390.133 126.944 390.098 125.735 390.052 124.526C390.042 124.275 390.255 124.065 390.528 124.056C390.797 124.037 391.029 124.244 391.039 124.494C391.086 125.708 391.12 126.921 391.146 128.133C391.151 128.384 390.934 128.591 390.662 128.596C390.659 128.596 390.655 128.596 390.652 128.596ZM281.135 126.177C280.921 126.177 280.724 126.048 280.661 125.85C280.286 124.667 280.016 123.445 279.857 122.22C279.825 121.971 280.018 121.745 280.29 121.715C280.555 121.683 280.806 121.864 280.838 122.113C280.99 123.289 281.249 124.461 281.61 125.596C281.686 125.837 281.536 126.089 281.273 126.159C281.227 126.172 281.18 126.177 281.135 126.177ZM336.316 125.053C336.146 125.053 335.98 124.971 335.888 124.825C335.752 124.607 335.834 124.33 336.071 124.205C337.209 123.602 338.341 122.989 339.466 122.366C339.695 122.237 340.002 122.305 340.143 122.521C340.283 122.735 340.209 123.015 339.975 123.145C338.845 123.771 337.707 124.387 336.563 124.993C336.485 125.033 336.4 125.053 336.316 125.053ZM344.735 120.311C344.575 120.311 344.417 120.238 344.322 120.105C344.173 119.896 344.236 119.614 344.465 119.477C345.563 118.815 346.65 118.139 347.722 117.449C347.946 117.306 348.253 117.354 348.41 117.56C348.566 117.766 348.512 118.049 348.289 118.192C347.207 118.888 346.113 119.569 345.006 120.237C344.923 120.287 344.829 120.311 344.735 120.311ZM390.243 119.522C389.986 119.522 389.77 119.339 389.751 119.1C389.66 117.895 389.55 116.693 389.419 115.494C389.392 115.244 389.589 115.022 389.86 114.996C390.11 114.975 390.374 115.152 390.4 115.402C390.534 116.611 390.643 117.823 390.736 119.036C390.755 119.286 390.55 119.503 390.278 119.521C390.266 119.521 390.254 119.522 390.243 119.522ZM280.412 117.186C280.388 117.186 280.365 117.185 280.341 117.182C280.072 117.146 279.884 116.915 279.922 116.667C280.111 115.464 280.397 114.25 280.772 113.059C280.848 112.818 281.118 112.676 281.384 112.749C281.646 112.819 281.797 113.071 281.721 113.311C281.358 114.462 281.082 115.635 280.9 116.796C280.864 117.023 280.653 117.186 280.412 117.186ZM352.77 115.039C352.623 115.039 352.477 114.979 352.38 114.864C352.212 114.666 352.25 114.381 352.466 114.227C353.506 113.48 354.533 112.714 355.515 111.949C355.723 111.788 356.035 111.811 356.211 112.002C356.387 112.194 356.361 112.48 356.153 112.643C355.16 113.416 354.123 114.191 353.073 114.944C352.983 115.008 352.876 115.039 352.77 115.039ZM389.15 110.498C388.912 110.498 388.703 110.339 388.663 110.116C388.454 108.912 388.214 107.717 387.95 106.565C387.894 106.319 388.065 106.078 388.332 106.028C388.595 105.978 388.859 106.133 388.917 106.378C389.184 107.544 389.427 108.753 389.638 109.971C389.681 110.219 389.497 110.452 389.229 110.492C389.202 110.496 389.175 110.498 389.15 110.498ZM360.225 109.093C360.095 109.093 359.967 109.047 359.87 108.955C359.682 108.775 359.687 108.487 359.882 108.313C360.831 107.465 361.755 106.599 362.628 105.736C362.815 105.553 363.127 105.543 363.326 105.713C363.526 105.884 363.537 106.171 363.351 106.355C362.466 107.229 361.529 108.108 360.568 108.965C360.472 109.05 360.348 109.093 360.225 109.093ZM283.417 108.577C283.343 108.577 283.268 108.562 283.196 108.529C282.952 108.416 282.853 108.144 282.975 107.92C283.552 106.857 284.215 105.781 284.943 104.721C285.09 104.509 285.396 104.446 285.624 104.58C285.854 104.714 285.923 104.994 285.777 105.206C285.066 106.241 284.42 107.29 283.857 108.326C283.772 108.485 283.598 108.577 283.417 108.577ZM366.849 102.369C366.742 102.369 366.634 102.337 366.544 102.273C366.329 102.118 366.292 101.832 366.46 101.635L366.855 101.168C367.514 100.388 368.163 99.5686 368.785 98.7348C368.939 98.5268 369.246 98.475 369.471 98.6176C369.697 98.7593 369.753 99.0418 369.599 99.2489C368.966 100.098 368.305 100.931 367.635 101.726L367.237 102.196C367.14 102.309 366.995 102.369 366.849 102.369ZM386.978 101.645C386.766 101.645 386.569 101.518 386.506 101.321C386.303 100.699 386.088 100.079 385.862 99.4623C385.672 98.941 385.471 98.4223 385.261 97.9055C385.165 97.6703 385.295 97.4087 385.549 97.3206C385.808 97.2325 386.089 97.3515 386.185 97.5867C386.399 98.1126 386.604 98.6412 386.798 99.1708C387.028 99.7975 387.246 100.427 387.452 101.059C387.531 101.3 387.383 101.552 387.121 101.625C387.073 101.639 387.024 101.645 386.978 101.645ZM288.836 101.007C288.726 101.007 288.614 100.974 288.524 100.905C288.312 100.746 288.282 100.46 288.455 100.265C289.267 99.3515 290.15 98.4242 291.076 97.5095C291.262 97.326 291.576 97.316 291.773 97.4868C291.973 97.6585 291.984 97.9455 291.797 98.129C290.885 99.0291 290.016 99.941 289.218 100.839C289.121 100.95 288.979 101.007 288.836 101.007ZM372.291 94.8018C372.211 94.8018 372.13 94.7837 372.055 94.7464C371.815 94.6266 371.727 94.3504 371.858 94.1297C372.48 93.0806 373.073 91.9979 373.617 90.9116C373.73 90.6827 374.027 90.5846 374.271 90.689C374.519 90.7944 374.626 91.0642 374.513 91.2922C373.959 92.3967 373.357 93.4984 372.723 94.5648C372.634 94.7156 372.466 94.8018 372.291 94.8018ZM295.651 94.4458C295.518 94.4458 295.385 94.3958 295.288 94.2986C295.103 94.1143 295.116 93.8263 295.317 93.6574C296.288 92.8372 297.291 92.0252 298.297 91.244C298.504 91.0823 298.817 91.106 298.992 91.2976C299.168 91.4893 299.141 91.7763 298.932 91.938C297.937 92.7118 296.945 93.5148 295.985 94.3259C295.89 94.4058 295.77 94.4458 295.651 94.4458ZM383.346 93.2114C383.166 93.2114 382.994 93.1206 382.906 92.9625C382.313 91.8853 381.673 90.828 381.005 89.8198C380.863 89.6054 380.936 89.3266 381.168 89.1958C381.401 89.0641 381.705 89.1322 381.848 89.3475C382.53 90.3757 383.182 91.4547 383.787 92.5529C383.911 92.7763 383.813 93.0497 383.57 93.1633C383.497 93.196 383.421 93.2114 383.346 93.2114ZM303.256 88.6617C303.106 88.6617 302.956 88.5981 302.86 88.4782C302.697 88.2766 302.744 87.9923 302.962 87.8424C304.013 87.123 305.102 86.4109 306.195 85.7261C306.419 85.5862 306.727 85.638 306.88 85.8451C307.033 86.0531 306.976 86.3355 306.75 86.4763C305.668 87.1548 304.591 87.8597 303.549 88.5718C303.462 88.6327 303.358 88.6617 303.256 88.6617ZM376.26 86.4972C376.208 86.4972 376.155 86.49 376.102 86.4736C375.844 86.3928 375.705 86.1357 375.793 85.8977C376.016 85.2946 376.226 84.6843 376.423 84.073C375.977 83.6079 375.522 83.1565 375.061 82.7223C374.871 82.5425 374.875 82.2554 375.071 82.0801C375.265 81.9058 375.578 81.9085 375.769 82.0883C376.096 82.3981 376.421 82.716 376.742 83.0402C376.8 82.8431 376.856 82.6469 376.912 82.4507C376.98 82.2082 377.246 82.0583 377.513 82.1246C377.778 82.1873 377.936 82.4353 377.867 82.6778C377.758 83.0684 377.641 83.4599 377.52 83.8513C377.824 84.1756 378.121 84.5053 378.414 84.8405C378.585 85.0358 378.551 85.3219 378.339 85.479C378.126 85.6353 377.816 85.6053 377.645 85.41C377.493 85.2365 377.339 85.063 377.184 84.8923C377.038 85.3273 376.885 85.7606 376.727 86.1911C376.658 86.3782 376.466 86.4972 376.26 86.4972ZM311.469 83.6288C311.302 83.6288 311.138 83.5498 311.045 83.4063C310.905 83.191 310.983 82.9121 311.217 82.7841C312.347 82.1664 313.508 81.5606 314.67 80.9838C314.906 80.8648 315.209 80.9466 315.339 81.1673C315.468 81.388 315.379 81.6632 315.139 81.7831C313.989 82.3545 312.84 82.9539 311.722 83.5643C311.643 83.6088 311.555 83.6288 311.469 83.6288ZM320.201 79.3997C320.014 79.3997 319.837 79.3026 319.753 79.1363C319.639 78.9084 319.746 78.6386 319.994 78.5332C321.189 78.0246 322.412 77.5323 323.631 77.0699C323.884 76.9755 324.172 77.0845 324.275 77.317C324.379 77.5486 324.259 77.8138 324.006 77.9101C322.801 78.367 321.591 78.8548 320.407 79.358C320.341 79.387 320.27 79.3997 320.201 79.3997ZM370.963 79.2699C370.86 79.2699 370.758 79.2408 370.669 79.1799C369.622 78.4651 368.529 77.8039 367.419 77.2162C367.182 77.0908 367.101 76.8138 367.237 76.5958C367.373 76.3769 367.675 76.3033 367.911 76.4287C369.054 77.0345 370.18 77.7139 371.257 78.4506C371.476 78.6004 371.522 78.8838 371.359 79.0855C371.263 79.2063 371.113 79.2699 370.963 79.2699ZM378.535 77.673C378.513 77.673 378.49 77.6721 378.468 77.6694C378.198 77.6358 378.009 77.4069 378.045 77.158C378.221 75.9636 378.342 74.7601 378.405 73.5812C378.418 73.3314 378.659 73.1352 378.922 73.1497C379.194 73.1624 379.403 73.3759 379.391 73.6257C379.326 74.831 379.203 76.0599 379.022 77.2807C378.99 77.5077 378.778 77.673 378.535 77.673ZM254.587 77.2135C254.482 77.2135 254.377 77.1826 254.287 77.1199C254.07 76.9682 254.028 76.683 254.194 76.4832C254.977 75.5404 255.829 74.5894 256.726 73.6547C256.908 73.4658 257.221 73.4494 257.423 73.6157C257.627 73.7819 257.647 74.0689 257.466 74.2569C256.585 75.1752 255.747 76.1108 254.978 77.0363C254.882 77.1517 254.736 77.2135 254.587 77.2135ZM329.364 76.0354C329.157 76.0354 328.965 75.9155 328.895 75.7248C328.809 75.4868 328.949 75.2297 329.207 75.1507C330.475 74.7629 331.755 74.405 333.009 74.088C333.277 74.0226 333.543 74.1634 333.617 74.4059C333.689 74.6475 333.534 74.8982 333.271 74.9636C332.031 75.2769 330.77 75.6294 329.518 76.0127C329.468 76.0281 329.416 76.0354 329.364 76.0354ZM362.298 74.9899C362.241 74.9899 362.186 74.9818 362.13 74.9627C360.932 74.5639 359.678 74.2197 358.402 73.9372C358.138 73.8782 357.974 73.6329 358.038 73.3886C358.101 73.1452 358.357 72.9944 358.633 73.0534C359.943 73.3432 361.233 73.6983 362.466 74.108C362.722 74.1934 362.855 74.4531 362.763 74.6893C362.689 74.8755 362.5 74.9899 362.298 74.9899ZM338.914 73.7655C338.681 73.7655 338.472 73.612 338.429 73.3922C338.381 73.1452 338.558 72.909 338.827 72.8636C340.149 72.6429 341.474 72.463 342.765 72.3286C343.029 72.2941 343.28 72.4785 343.312 72.7282C343.342 72.9771 343.148 73.2024 342.877 73.2305C341.608 73.3632 340.305 73.5403 339.003 73.7574C338.973 73.7628 338.943 73.7655 338.914 73.7655ZM352.675 73.0816C352.659 73.0816 352.645 73.0816 352.63 73.0798C351.366 72.9762 350.054 72.9235 348.73 72.9226C348.459 72.9217 348.238 72.7183 348.238 72.4676C348.238 72.2169 348.459 72.0143 348.731 72.0143C350.083 72.0152 351.425 72.0697 352.717 72.1751C352.989 72.1978 353.189 72.4176 353.165 72.6674C353.143 72.9035 352.928 73.0816 352.675 73.0816ZM261.219 70.4984C261.087 70.4984 260.957 70.4511 260.86 70.3567C260.673 70.175 260.682 69.8871 260.88 69.7145C261.802 68.9107 262.793 68.0868 263.827 67.2657C264.032 67.1031 264.343 67.1213 264.524 67.3129C264.701 67.5028 264.679 67.7898 264.472 67.9533C263.45 68.7653 262.469 69.5801 261.558 70.3739C261.462 70.4575 261.34 70.4984 261.219 70.4984ZM378.783 68.6118C378.531 68.6118 378.316 68.4347 378.293 68.1985C378.175 67.0014 377.993 65.8061 377.75 64.648C377.699 64.4018 377.874 64.1629 378.141 64.1157C378.405 64.0712 378.667 64.2283 378.719 64.4754C378.968 65.6644 379.155 66.8888 379.275 68.1168C379.299 68.3666 379.099 68.5873 378.828 68.61C378.813 68.6118 378.798 68.6118 378.783 68.6118ZM268.735 64.6171C268.589 64.6171 268.443 64.5571 268.345 64.4418C268.177 64.2438 268.216 63.9586 268.432 63.8042C269.472 63.0584 270.525 62.3254 271.584 61.5997C271.801 61.4498 272.11 61.4907 272.275 61.6933C272.438 61.894 272.391 62.1792 272.173 62.3291C271.12 63.0503 270.073 63.7796 269.036 64.5208C268.948 64.5853 268.842 64.6171 268.735 64.6171ZM376.657 59.7695C376.456 59.7695 376.267 59.655 376.193 59.4707C375.854 58.615 375.471 57.763 375.055 56.9392C374.926 56.6858 374.793 56.4324 374.658 56.1808C374.537 55.9564 374.636 55.6839 374.88 55.5713C375.123 55.4596 375.421 55.5504 375.542 55.7757C375.682 56.0336 375.817 56.2934 375.95 56.5541C376.38 57.4024 376.773 58.2781 377.122 59.1582C377.216 59.3944 377.084 59.6541 376.827 59.7404C376.771 59.7604 376.713 59.7695 376.657 59.7695ZM276.663 59.2054C276.51 59.2054 276.359 59.14 276.263 59.0165C276.103 58.813 276.153 58.5287 276.375 58.3825L279.581 56.2598C279.801 56.1145 280.11 56.1599 280.269 56.3652C280.428 56.5695 280.377 56.8529 280.155 56.9991L276.951 59.12C276.865 59.1782 276.764 59.2054 276.663 59.2054ZM284.72 53.9572C284.563 53.9572 284.408 53.8873 284.312 53.7583C284.159 53.5503 284.217 53.2679 284.443 53.1271C285.536 52.444 286.637 51.7719 287.751 51.1188C287.978 50.9844 288.286 51.0452 288.432 51.2569C288.578 51.4685 288.511 51.7492 288.281 51.8836C287.177 52.5321 286.083 53.1988 284.999 53.8782C284.913 53.9318 284.816 53.9572 284.72 53.9572ZM371.925 51.8464C371.781 51.8464 371.64 51.7891 371.543 51.6801C370.699 50.7337 369.784 49.8926 368.826 49.1814C368.614 49.0233 368.581 48.7381 368.753 48.5428C368.925 48.3476 369.235 48.3176 369.447 48.4747C370.457 49.2259 371.419 50.1097 372.306 51.1043C372.478 51.2977 372.447 51.5848 372.238 51.7437C372.147 51.8118 372.036 51.8464 371.925 51.8464ZM293.101 49.1632C292.927 49.1632 292.759 49.0788 292.669 48.928C292.537 48.7082 292.623 48.432 292.862 48.3112C294.053 47.7072 295.24 47.1423 296.393 46.6318C296.64 46.5237 296.934 46.6182 297.052 46.8443C297.17 47.0705 297.068 47.3421 296.822 47.4502C295.686 47.9525 294.514 48.5102 293.339 49.106C293.264 49.1451 293.182 49.1632 293.101 49.1632ZM364.032 46.5528C363.969 46.5528 363.904 46.5419 363.842 46.5173C362.754 46.0977 361.553 45.7071 360.168 45.3229C359.908 45.2512 359.76 44.9977 359.839 44.758C359.918 44.5173 360.189 44.381 360.454 44.4537C361.871 44.847 363.104 45.2475 364.223 45.6799C364.474 45.7771 364.593 46.0432 364.487 46.2739C364.408 46.4483 364.226 46.5528 364.032 46.5528ZM302.057 45.3629C301.856 45.3629 301.668 45.2503 301.594 45.0677C301.498 44.8324 301.628 44.5708 301.884 44.4827C303.111 44.0622 304.378 43.6662 305.649 43.3056C305.914 43.232 306.187 43.3664 306.266 43.6062C306.347 43.846 306.201 44.0994 305.94 44.1739C304.686 44.5291 303.438 44.9196 302.229 45.3338C302.172 45.3538 302.114 45.3629 302.057 45.3629ZM354.584 43.9596C354.547 43.9596 354.509 43.9559 354.471 43.9477C353.196 43.6716 351.915 43.4137 350.627 43.1739C350.36 43.1239 350.188 42.8841 350.241 42.6389C350.296 42.3927 350.552 42.2392 350.824 42.2837C352.12 42.5262 353.411 42.786 354.697 43.064C354.962 43.1212 355.127 43.3664 355.064 43.6098C355.011 43.8188 354.809 43.9596 354.584 43.9596ZM311.522 42.8124C311.295 42.8124 311.09 42.6679 311.041 42.4554C310.982 42.2102 311.151 41.9676 311.418 41.915C312.702 41.6561 314.015 41.4245 315.321 41.2274C315.586 41.182 315.844 41.3536 315.888 41.6016C315.932 41.8486 315.75 42.083 315.481 42.123C314.192 42.3182 312.896 42.5462 311.628 42.8015C311.593 42.8087 311.557 42.8124 311.522 42.8124ZM344.895 42.2329C344.87 42.2329 344.845 42.231 344.821 42.2283C343.52 42.0476 342.208 41.8868 340.924 41.7497C340.653 41.7206 340.459 41.4953 340.49 41.2465C340.521 40.9976 340.775 40.815 341.038 40.8477C342.334 40.9848 343.656 41.1474 344.969 41.33C345.238 41.3682 345.424 41.5989 345.384 41.8468C345.345 42.0712 345.135 42.2329 344.895 42.2329ZM321.273 41.4426C321.02 41.4426 320.805 41.2655 320.782 41.0294C320.759 40.7796 320.958 40.5589 321.23 40.5361C322.528 40.4281 323.861 40.3454 325.191 40.2909C325.485 40.2655 325.695 40.4744 325.705 40.7242C325.718 40.9749 325.507 41.1874 325.235 41.1983C323.92 41.2528 322.602 41.3336 321.317 41.4408C321.303 41.4426 321.288 41.4426 321.273 41.4426ZM335.081 41.2755C335.071 41.2755 335.061 41.2755 335.052 41.2746C333.741 41.2038 332.42 41.1556 331.125 41.1329C330.852 41.1284 330.636 40.9213 330.641 40.6697C330.647 40.419 330.842 40.2292 331.145 40.2246C332.452 40.2482 333.786 40.2964 335.11 40.3681C335.382 40.3826 335.59 40.5979 335.574 40.8477C335.558 41.0893 335.34 41.2755 335.081 41.2755Z" fill="#50448C"/>
<path d="M256.803 284.526H129.377C124.671 284.526 120.855 281.015 120.855 276.684V46.3692C120.855 42.0384 124.671 38.5278 129.377 38.5278H256.803C261.51 38.5278 265.325 42.0384 265.325 46.3692V276.683C265.325 281.015 261.51 284.526 256.803 284.526Z" fill="url(#paint1_linear_17887_30315)"/>
<path d="M129.378 279.075C127.945 279.075 126.778 278.002 126.778 276.683V46.3701C126.778 45.0512 127.945 43.9785 129.378 43.9785H256.803C258.236 43.9785 259.402 45.0512 259.402 46.3701V276.684C259.402 278.003 258.236 279.076 256.803 279.076L129.378 279.075Z" fill="url(#paint2_linear_17887_30315)"/>
<path d="M94.867 235.817C94.7939 235.817 94.7189 235.802 94.6478 235.77C93.4682 235.231 92.2895 234.643 91.1473 234.021C90.9124 233.893 90.8354 233.615 90.9736 233.399C91.1128 233.185 91.4158 233.113 91.6498 233.239C92.7722 233.851 93.9282 234.428 95.0871 234.956C95.3309 235.068 95.4316 235.34 95.3102 235.564C95.2243 235.724 95.0486 235.817 94.867 235.817ZM86.4721 231.062C86.3694 231.062 86.2658 231.033 86.1769 230.971C85.1187 230.244 84.0752 229.472 83.0733 228.677C82.8669 228.512 82.8442 228.226 83.0219 228.036C83.1996 227.846 83.5116 227.825 83.7179 227.988C84.7021 228.77 85.7278 229.529 86.7673 230.244C86.9854 230.394 87.0308 230.679 86.867 230.879C86.7712 230.999 86.6221 231.062 86.4721 231.062ZM79.1236 225.016C78.9923 225.016 78.861 224.968 78.7633 224.873C77.8581 223.985 76.9755 223.057 76.1414 222.116C75.9696 221.921 76.0012 221.636 76.2124 221.477C76.4237 221.319 76.7347 221.349 76.9074 221.541C77.7277 222.468 78.5945 223.379 79.4839 224.252C79.6705 224.434 79.6606 224.722 79.4622 224.893C79.3664 224.975 79.245 225.016 79.1236 225.016ZM73.0298 217.885C72.8689 217.885 72.711 217.813 72.6162 217.679C71.8896 216.655 71.1966 215.6 70.5579 214.543C70.4257 214.324 70.5115 214.047 70.7495 213.925C70.9893 213.802 71.2884 213.882 71.4207 214.1C72.0486 215.139 72.7287 216.176 73.4424 217.182C73.5915 217.393 73.5273 217.674 73.2993 217.811C73.2154 217.862 73.1216 217.885 73.0298 217.885ZM68.397 209.879C68.2045 209.879 68.0219 209.774 67.9419 209.6C67.6873 209.043 67.4434 208.481 67.2095 207.913C66.9725 207.336 66.7465 206.756 66.5313 206.172C66.4444 205.935 66.5826 205.677 66.8403 205.596C67.0989 205.519 67.3793 205.643 67.4661 205.88C67.6774 206.453 67.8985 207.024 68.1325 207.591C68.3615 208.147 68.6014 208.7 68.8511 209.247C68.9568 209.478 68.8383 209.744 68.5876 209.841C68.5254 209.867 68.4612 209.879 68.397 209.879ZM65.3723 201.244C65.1492 201.244 64.9469 201.104 64.8926 200.895C64.5964 199.747 64.322 198.544 64.0792 197.317C64.0298 197.071 64.2075 196.834 64.476 196.788C64.7445 196.751 65.0012 196.907 65.0505 197.153C65.2904 198.365 65.5609 199.553 65.8531 200.686C65.9163 200.93 65.7524 201.174 65.4869 201.232C65.4484 201.241 65.4099 201.244 65.3723 201.244ZM63.6991 192.297C63.4523 192.297 63.2391 192.127 63.2095 191.896C63.0624 190.739 62.9311 189.517 62.8195 188.266C62.7968 188.016 62.9992 187.796 63.2707 187.776C63.55 187.758 63.781 187.941 63.8037 188.191C63.9143 189.432 64.0446 190.643 64.1897 191.792C64.2213 192.04 64.0268 192.266 63.7573 192.296C63.7376 192.297 63.7188 192.297 63.6991 192.297ZM62.9419 183.243C62.6794 183.243 62.4612 183.054 62.4493 182.809C62.3891 181.596 62.3427 180.382 62.3032 179.171C62.2953 178.921 62.5096 178.711 62.782 178.703C63.0416 178.701 63.2815 178.892 63.2904 179.143C63.3289 180.35 63.3763 181.558 63.4355 182.768C63.4484 183.017 63.2371 183.231 62.9646 183.241C62.9577 183.243 62.9498 183.243 62.9419 183.243ZM62.6744 174.164C62.4039 174.164 62.1838 173.963 62.1808 173.714C62.1739 173.108 62.171 172.5 62.171 171.892C62.171 171.285 62.1739 170.678 62.1818 170.071C62.1838 169.822 62.4108 169.574 62.6803 169.623C62.9528 169.625 63.1719 169.831 63.169 170.082C63.1621 170.685 63.1581 171.288 63.1581 171.892C63.1581 172.496 63.1611 173.101 63.168 173.705C63.171 173.956 62.9518 174.161 62.6794 174.164C62.6794 174.164 62.6764 174.164 62.6744 174.164ZM62.8659 165.084C62.857 165.084 62.8472 165.084 62.8383 165.083C62.5658 165.068 62.3575 164.855 62.3733 164.605C62.4493 163.354 62.5471 162.129 62.6655 160.964C62.6912 160.715 62.935 160.535 63.2026 160.554C63.474 160.578 63.6734 160.799 63.6488 161.049C63.5313 162.204 63.4336 163.417 63.3585 164.655C63.3437 164.897 63.1256 165.084 62.8659 165.084ZM63.9094 156.056C63.8827 156.056 63.8561 156.054 63.8284 156.05C63.5599 156.009 63.3773 155.775 63.4217 155.528C63.6409 154.308 63.8946 153.1 64.1769 151.937C64.2361 151.694 64.5017 151.543 64.7662 151.593C65.0328 151.648 65.1996 151.891 65.1404 152.136C64.863 153.281 64.6122 154.472 64.396 155.676C64.3556 155.898 64.1463 156.056 63.9094 156.056ZM66.2203 147.235C66.169 147.235 66.1177 147.227 66.0653 147.212C65.8067 147.133 65.6655 146.876 65.7514 146.638C66.168 145.477 66.6349 144.321 67.1404 143.201C67.245 142.969 67.5333 142.859 67.786 142.956C68.0377 143.052 68.1571 143.318 68.0525 143.55C67.556 144.649 67.0979 145.783 66.6892 146.923C66.6201 147.114 66.4276 147.235 66.2203 147.235ZM117.904 145.048C117.89 145.048 117.877 145.048 117.863 145.048C116.55 144.949 115.214 144.741 113.892 144.432C113.627 144.37 113.468 144.123 113.535 143.879C113.602 143.636 113.87 143.487 114.136 143.552C115.404 143.849 116.685 144.047 117.943 144.142C118.214 144.162 118.417 144.382 118.395 144.632C118.373 144.869 118.157 145.048 117.904 145.048ZM123.791 144.718C123.57 144.718 123.369 144.581 123.313 144.374C123.247 144.131 123.407 143.884 123.672 143.823C124.39 143.657 124.972 143.427 125.452 143.122C125.892 142.842 126.273 142.481 126.584 142.048C126.734 141.839 127.04 141.781 127.268 141.92C127.495 142.059 127.557 142.341 127.407 142.55C127.026 143.078 126.558 143.522 126.014 143.868C125.435 144.236 124.747 144.511 123.912 144.703C123.872 144.713 123.831 144.718 123.791 144.718ZM108.483 142.525C108.409 142.525 108.333 142.51 108.262 142.477C107.089 141.935 105.925 141.308 104.803 140.613C104.576 140.473 104.517 140.191 104.669 139.983C104.821 139.775 105.128 139.719 105.354 139.859C106.442 140.532 107.571 141.14 108.706 141.665C108.95 141.778 109.048 142.05 108.925 142.274C108.837 142.434 108.664 142.525 108.483 142.525ZM70.1858 138.932C70.1029 138.932 70.0199 138.913 69.9429 138.874C69.706 138.75 69.6221 138.473 69.7564 138.254C70.4168 137.178 71.1275 136.13 71.8669 135.138C72.0209 134.93 72.3289 134.878 72.553 135.021C72.7781 135.162 72.8353 135.445 72.6804 135.652C71.9568 136.622 71.2628 137.648 70.6162 138.702C70.5254 138.849 70.3585 138.932 70.1858 138.932ZM127.995 137.495C127.752 137.495 127.539 137.329 127.507 137.1C127.341 135.942 127.011 134.803 126.526 133.715C126.423 133.482 126.543 133.217 126.796 133.122C127.047 133.027 127.336 133.138 127.44 133.369C127.957 134.529 128.308 135.745 128.486 136.981C128.522 137.23 128.331 137.458 128.061 137.49C128.039 137.493 128.017 137.495 127.995 137.495ZM100.475 137.269C100.352 137.269 100.228 137.227 100.133 137.142C99.8265 136.871 99.5264 136.596 99.2322 136.316C98.6113 135.726 97.9963 135.1 97.402 134.457C97.2253 134.265 97.251 133.979 97.4593 133.816C97.6685 133.654 97.9785 133.678 98.1552 133.869C98.7347 134.498 99.3359 135.108 99.942 135.685C100.227 135.956 100.519 136.223 100.817 136.487C101.013 136.66 101.019 136.948 100.83 137.129C100.734 137.222 100.604 137.269 100.475 137.269ZM75.9568 131.587C75.8363 131.587 75.7169 131.547 75.6221 131.467C75.4217 131.296 75.4099 131.009 75.5945 130.824C76.5096 129.913 77.4731 129.05 78.4602 128.258C78.6636 128.091 78.9775 128.111 79.1562 128.301C79.3358 128.49 79.3141 128.777 79.1088 128.941C78.1493 129.713 77.2105 130.554 76.3191 131.441C76.2223 131.538 76.089 131.587 75.9568 131.587ZM94.2362 130.255C94.0762 130.255 93.9193 130.183 93.8245 130.051C93.1246 129.079 92.4227 128.03 91.7367 126.935C91.6004 126.718 91.6814 126.44 91.9183 126.315C92.1552 126.189 92.4563 126.265 92.5925 126.482C93.2678 127.561 93.9598 128.593 94.6488 129.55C94.7988 129.759 94.7367 130.041 94.5096 130.179C94.4237 130.23 94.3299 130.255 94.2362 130.255ZM123.817 129.426C123.681 129.426 123.547 129.375 123.449 129.275C122.62 128.426 121.667 127.617 120.615 126.872C120.399 126.719 120.36 126.435 120.525 126.236C120.691 126.037 121 125.999 121.217 126.153C122.315 126.93 123.313 127.777 124.183 128.668C124.366 128.854 124.348 129.141 124.145 129.309C124.053 129.387 123.934 129.426 123.817 129.426ZM83.5609 125.845C83.3931 125.845 83.2292 125.767 83.1374 125.624C82.9973 125.41 83.0723 125.131 83.3062 125.001C83.8156 124.72 84.3339 124.451 84.862 124.195C85.5096 123.88 86.1828 123.581 86.865 123.304C87.1167 123.203 87.4069 123.306 87.5165 123.535C87.6261 123.764 87.5135 124.033 87.2648 124.135C86.6044 124.403 85.9509 124.694 85.323 124.999C84.8107 125.247 84.3092 125.507 83.8156 125.78C83.7347 125.824 83.6468 125.845 83.5609 125.845ZM115.851 124.162C115.782 124.162 115.711 124.148 115.644 124.119C114.486 123.624 113.268 123.188 112.024 122.825C111.764 122.749 111.62 122.493 111.703 122.255C111.785 122.016 112.061 121.882 112.323 121.959C113.606 122.334 114.864 122.784 116.06 123.296C116.308 123.402 116.415 123.671 116.299 123.899C116.215 124.065 116.037 124.162 115.851 124.162ZM92.6656 122.424C92.4435 122.424 92.2421 122.285 92.1868 122.078C92.1216 121.835 92.2835 121.589 92.5481 121.53C93.8265 121.241 95.1493 121.012 96.478 120.848C96.7475 120.813 96.9963 120.989 97.0328 121.237C97.0693 121.486 96.8788 121.714 96.6093 121.748C95.3151 121.907 94.0269 122.13 92.783 122.411C92.7436 122.421 92.7041 122.424 92.6656 122.424ZM89.3931 122.346C89.2105 122.346 89.0358 122.253 88.9499 122.093C88.3675 121.002 87.8048 119.901 87.2549 118.798C87.1414 118.57 87.25 118.3 87.4987 118.195C87.7465 118.089 88.0387 118.192 88.1532 118.419C88.6991 119.515 89.2579 120.609 89.8364 121.691C89.9568 121.917 89.8561 122.188 89.6113 122.299C89.5402 122.331 89.4662 122.346 89.3931 122.346ZM106.39 121.694C106.371 121.694 106.353 121.693 106.334 121.691L106.169 121.674C104.93 121.545 103.676 121.47 102.443 121.449C102.171 121.444 101.954 121.237 101.959 120.987C101.964 120.736 102.162 120.514 102.461 120.541C103.725 120.562 105.01 120.64 106.281 120.772L106.445 120.79C106.716 120.819 106.91 121.044 106.88 121.293C106.851 121.523 106.638 121.694 106.39 121.694ZM85.3013 114.081C85.1098 114.081 84.9282 113.978 84.8482 113.805C84.328 112.69 83.8186 111.567 83.3309 110.438C83.2302 110.204 83.3546 109.941 83.6073 109.848C83.8591 109.756 84.1473 109.869 84.248 110.102C84.7317 111.224 85.2381 112.339 85.7544 113.448C85.862 113.678 85.7465 113.945 85.4958 114.044C85.4326 114.068 85.3665 114.081 85.3013 114.081ZM81.7771 105.599C81.5678 105.599 81.3743 105.476 81.3072 105.283C80.8887 104.08 80.5205 102.896 80.2125 101.763C80.1463 101.52 80.3072 101.274 80.5708 101.213C80.8383 101.152 81.1039 101.299 81.169 101.542C81.4721 102.657 81.8344 103.822 82.247 105.006C82.3299 105.245 82.1868 105.501 81.9272 105.577C81.8778 105.592 81.8265 105.599 81.7771 105.599ZM79.6014 96.7539C79.3546 96.7539 79.1414 96.585 79.1118 96.3534C78.9518 95.1144 78.86 93.88 78.8393 92.6838C78.8353 92.4331 79.0525 92.2269 79.325 92.2224C79.6024 92.1815 79.8215 92.4186 79.8265 92.6693C79.8462 93.8337 79.9351 95.0372 80.092 96.2453C80.1246 96.4941 79.9311 96.7203 79.6606 96.7503C79.6409 96.753 79.6211 96.7539 79.6014 96.7539Z" fill="#50448C"/>
<mask id="mask0_17887_30315" style="mask-type:luminance" maskUnits="userSpaceOnUse" x="66" y="20" width="194" height="273">
<path d="M80.3447 274.598L66.7781 24.2087C119.312 10.7022 256.802 43.9779 256.802 43.9779C258.235 43.9779 259.401 45.0506 259.401 46.3695V276.683C259.401 278.002 258.235 279.075 256.802 279.075C256.803 279.075 155.365 312.458 80.3447 274.598Z" fill="white"/>
</mask>
<g mask="url(#mask0_17887_30315)">
<path d="M237.768 182.693L219.488 225.8C216.808 232.119 220.779 239.165 227.937 240.791C233.8 242.123 239.841 239.311 242.148 234.175L263.104 187.526C263.104 187.526 244.405 175.487 237.768 182.693Z" fill="url(#paint3_linear_17887_30315)"/>
<path d="M149.796 73.9004L188.463 107.199C210.437 126.121 237.317 139.542 266.537 146.178L273.758 147.818C276.628 161.85 272.742 176.337 263.104 187.528L255.883 185.888C226.664 179.252 196.084 179.621 167.065 186.962L115.998 199.88L149.796 73.9004Z" fill="url(#paint4_linear_17887_30315)"/>
<path d="M119.77 133.908C110.438 168.696 108.75 198.233 116 199.879C123.25 201.526 136.693 174.659 146.026 139.871C155.359 105.083 157.047 75.5472 149.797 73.9004C142.546 72.2537 129.103 99.1195 119.77 133.908Z" fill="url(#paint5_linear_17887_30315)"/>
<mask id="mask1_17887_30315" style="mask-type:luminance" maskUnits="userSpaceOnUse" x="111" y="73" width="44" height="127">
<path d="M146.027 139.854C155.358 105.065 157.044 75.5276 149.794 73.8811C142.543 72.2347 129.101 99.1026 119.77 133.892C110.439 168.682 108.753 198.219 116.003 199.865C123.254 201.512 136.696 174.644 146.027 139.854Z" fill="white"/>
</mask>
<g mask="url(#mask1_17887_30315)">
<path d="M135.57 152.269L142.812 153.914C151.17 155.813 159.617 151.118 161.68 143.427C163.744 135.736 158.641 127.964 150.283 126.066L143.041 124.421C134.682 122.523 126.235 127.218 124.172 134.908C122.109 142.598 127.212 150.371 135.57 152.269Z" fill="url(#paint6_radial_17887_30315)"/>
</g>
</g>
<path d="M204.083 77.5036C203.822 77.5036 203.604 77.3147 203.591 77.0721C203.526 75.8714 203.431 74.6579 203.31 73.4671C203.286 73.2173 203.485 72.9957 203.757 72.973C204.022 72.9484 204.268 73.1328 204.294 73.3835C204.415 74.587 204.511 75.8132 204.576 77.0276C204.591 77.2783 204.381 77.4909 204.108 77.5036C204.1 77.5036 204.091 77.5036 204.083 77.5036ZM203.063 68.4723C202.825 68.4723 202.614 68.3134 202.576 68.0899C202.37 66.89 202.133 65.6947 201.873 64.5357C201.818 64.2905 201.991 64.0498 202.257 63.9989C202.511 63.9517 202.785 64.1061 202.84 64.3522C203.103 65.5249 203.342 66.7338 203.552 67.9473C203.595 68.1953 203.412 68.4278 203.142 68.4669C203.115 68.4705 203.088 68.4723 203.063 68.4723ZM82.2085 60.3366C82.171 60.3366 82.1335 60.333 82.096 60.3248C81.8305 60.2676 81.6646 60.0242 81.7268 59.7798C81.7939 59.5137 81.865 59.2485 81.9381 58.9842C82.0052 58.7407 82.2727 58.5927 82.5383 58.6563C82.8028 58.718 82.9618 58.9651 82.8946 59.2085C82.8236 59.4665 82.7545 59.7253 82.6883 59.9851C82.636 60.1949 82.4326 60.3366 82.2085 60.3366ZM200.962 59.6C200.747 59.6 200.548 59.4683 200.487 59.2685C200.134 58.1067 199.746 56.945 199.335 55.8169C199.248 55.5789 199.387 55.3219 199.646 55.242C199.905 55.1629 200.184 55.2901 200.271 55.5281C200.687 56.6707 201.079 57.847 201.438 59.0232C201.512 59.2648 201.359 59.5155 201.095 59.5827C201.051 59.5946 201.006 59.6 200.962 59.6ZM84.2243 54.3645C84.1641 54.3645 84.1039 54.3545 84.0457 54.3336C83.792 54.2428 83.6656 53.9794 83.7643 53.746C84.2401 52.6188 84.7742 51.487 85.3517 50.3816C85.4702 50.1555 85.7643 50.0601 86.0101 50.1691C86.2559 50.2781 86.3596 50.5487 86.2411 50.7749C85.6755 51.8585 85.1513 52.9685 84.6844 54.0739C84.6084 54.2537 84.4218 54.3645 84.2243 54.3645ZM197.698 51.0311C197.507 51.0311 197.325 50.9275 197.244 50.7558C196.729 49.6459 196.175 48.5441 195.601 47.4823C195.478 47.258 195.578 46.9855 195.822 46.8738C196.068 46.7611 196.363 46.8538 196.483 47.0772C197.068 48.1554 197.629 49.2726 198.152 50.3989C198.259 50.6296 198.144 50.8966 197.893 50.9956C197.829 51.0193 197.764 51.0311 197.698 51.0311ZM88.6577 46.2643C88.5679 46.2643 88.4771 46.2425 88.3961 46.1953C88.1651 46.0617 88.095 45.7811 88.2401 45.5694C88.9391 44.544 89.6923 43.523 90.4771 42.5366C90.638 42.3341 90.947 42.2905 91.1671 42.4385C91.3872 42.5866 91.4346 42.8709 91.2737 43.0734C90.5027 44.0426 89.7633 45.0444 89.0773 46.0527C88.9825 46.1898 88.8226 46.2643 88.6577 46.2643ZM193.15 42.9753C192.986 42.9753 192.825 42.8999 192.732 42.7619C192.037 41.7391 191.302 40.7345 190.545 39.7763C190.385 39.5728 190.435 39.2885 190.655 39.1414C190.876 38.9933 191.184 39.0396 191.345 39.2422C192.114 40.2177 192.863 41.2405 193.569 42.2814C193.713 42.4939 193.643 42.7746 193.412 42.9072C193.33 42.9535 193.24 42.9753 193.15 42.9753ZM94.6173 39.0378C94.4988 39.0378 94.3803 38.9997 94.2865 38.9207C94.0842 38.7517 94.0684 38.4656 94.252 38.2794C95.1355 37.382 96.0674 36.4973 97.024 35.6489C97.2204 35.4755 97.5334 35.4809 97.7219 35.6607C97.9114 35.8415 97.9055 36.1285 97.7091 36.3029C96.7693 37.1367 95.8522 38.0069 94.9835 38.8898C94.8858 38.9879 94.7525 39.0378 94.6173 39.0378ZM187.206 35.7407C187.072 35.7407 186.939 35.6907 186.841 35.5935C185.957 34.7043 185.031 33.8469 184.089 33.043C183.889 32.8723 183.878 32.5852 184.063 32.4018C184.247 32.2174 184.56 32.2056 184.761 32.3772C185.722 33.1974 186.667 34.0739 187.569 34.9804C187.754 35.1657 187.74 35.4527 187.538 35.6217C187.444 35.7007 187.324 35.7407 187.206 35.7407ZM101.83 32.8496C101.683 32.8496 101.539 32.7905 101.442 32.677C101.273 32.4799 101.309 32.1937 101.523 32.0393C102.56 31.2882 103.64 30.5588 104.732 29.8694C104.958 29.7286 105.264 29.7804 105.418 29.9875C105.572 30.1946 105.515 30.4771 105.29 30.6188C104.215 31.2963 103.153 32.0139 102.135 32.7524C102.044 32.8178 101.936 32.8496 101.83 32.8496ZM179.843 29.7268C179.745 29.7268 179.644 29.6995 179.557 29.6423C178.499 28.9484 177.397 28.2926 176.283 27.6922C176.048 27.565 175.969 27.2871 176.106 27.0709C176.244 26.8538 176.545 26.7821 176.782 26.9083C177.921 27.5223 179.049 28.1945 180.131 28.903C180.353 29.0483 180.404 29.3317 180.246 29.5361C180.149 29.6605 179.998 29.7268 179.843 29.7268ZM110.058 27.8493C109.883 27.8493 109.713 27.764 109.623 27.6132C109.493 27.3934 109.581 27.1172 109.82 26.9964C110.229 26.7903 110.64 26.5895 111.055 26.3933C111.82 26.03 112.594 25.6812 113.374 25.3479C113.623 25.2425 113.915 25.3415 114.03 25.5686C114.144 25.7957 114.037 26.0654 113.79 26.1717C113.022 26.4996 112.261 26.8429 111.507 27.1999C111.1 27.3925 110.696 27.5914 110.293 27.793C110.218 27.8312 110.138 27.8493 110.058 27.8493ZM171.241 25.3115C171.176 25.3115 171.111 25.2997 171.048 25.2752C169.877 24.8156 168.648 24.3823 167.395 23.9872C167.138 23.9055 167 23.6475 167.088 23.4105C167.177 23.1734 167.457 23.049 167.715 23.128C168.991 23.5304 170.242 23.9718 171.436 24.4396C171.686 24.5377 171.803 24.8047 171.696 25.0354C171.615 25.208 171.433 25.3115 171.241 25.3115ZM119.062 24.1534C118.858 24.1534 118.669 24.0381 118.597 23.8519C118.506 23.6157 118.639 23.356 118.896 23.2715C120.133 22.8664 121.406 22.4885 122.681 22.1479C122.944 22.0771 123.217 22.2169 123.293 22.4576C123.369 22.6983 123.217 22.9509 122.956 23.0199C121.7 23.355 120.446 23.7275 119.227 24.1271C119.173 24.1444 119.117 24.1534 119.062 24.1534ZM161.869 22.494C161.831 22.494 161.791 22.4903 161.753 22.4813C160.517 22.206 159.226 21.9517 157.916 21.7246C157.649 21.6783 157.472 21.4403 157.524 21.1942C157.574 20.948 157.829 20.7864 158.1 20.8327C159.425 21.0625 160.732 21.3205 161.986 21.5993C162.251 21.6583 162.413 21.9036 162.349 22.1479C162.294 22.3541 162.092 22.494 161.869 22.494ZM128.572 21.7464C128.341 21.7464 128.136 21.5975 128.088 21.3813C128.035 21.1352 128.209 20.8963 128.476 20.8472C129.764 20.6111 131.082 20.404 132.394 20.2314C132.664 20.1932 132.914 20.3685 132.953 20.6165C132.991 20.8645 132.804 21.0952 132.534 21.1306C131.239 21.3005 129.939 21.5048 128.67 21.7374C128.636 21.7437 128.603 21.7464 128.572 21.7464ZM152.153 20.919C152.135 20.919 152.116 20.9181 152.097 20.9163C150.799 20.78 149.483 20.6719 148.188 20.5956C147.916 20.5793 147.71 20.364 147.727 20.1133C147.745 19.8626 147.973 19.6791 148.251 19.6891C149.562 19.7663 150.893 19.8762 152.208 20.0134C152.478 20.0416 152.673 20.2668 152.642 20.5157C152.614 20.7473 152.401 20.919 152.153 20.919ZM138.354 20.582C138.095 20.582 137.878 20.3967 137.861 20.156C137.844 19.9062 138.051 19.69 138.323 19.6746C139.635 19.5992 140.971 19.5547 142.295 19.542C142.55 19.5538 142.79 19.74 142.793 19.9916C142.796 20.2423 142.578 20.4476 142.304 20.4503C140.998 20.4639 139.68 20.5075 138.383 20.582C138.374 20.582 138.365 20.582 138.354 20.582Z" fill="#50448C"/>
<path d="M255.423 111.501C269.076 111.501 280.145 101.317 280.145 88.7545C280.145 76.1918 269.076 66.0078 255.423 66.0078C241.77 66.0078 230.701 76.1918 230.701 88.7545C230.701 101.317 241.77 111.501 255.423 111.501Z" fill="url(#paint7_linear_17887_30315)"/>
<path d="M255.423 107.237C266.517 107.237 275.51 98.962 275.51 88.7546C275.51 78.5472 266.517 70.2725 255.423 70.2725C244.329 70.2725 235.336 78.5472 235.336 88.7546C235.336 98.962 244.329 107.237 255.423 107.237Z" fill="url(#paint8_linear_17887_30315)"/>
<path d="M255.423 78.9165L258.897 85.3936L266.666 86.4318L261.044 91.4738L262.371 98.5922L255.423 95.2315L248.474 98.5922L249.802 91.4738L244.18 86.4318L251.949 85.3936L255.423 78.9165Z" fill="url(#paint9_linear_17887_30315)"/>
<path d="M202.631 90.7048C209.707 90.7048 215.443 85.4272 215.443 78.9169C215.443 72.4066 209.707 67.1289 202.631 67.1289C195.556 67.1289 189.82 72.4066 189.82 78.9169C189.82 85.4272 195.556 90.7048 202.631 90.7048Z" fill="url(#paint10_linear_17887_30315)"/>
<path d="M202.631 81.0723C201.651 81.0723 200.857 80.3411 200.857 79.4401V73.2646C200.857 72.3626 201.652 71.6323 202.631 71.6323C203.611 71.6323 204.405 72.3635 204.405 73.2646V79.4401C204.405 80.3421 203.611 81.0723 202.631 81.0723Z" fill="url(#paint11_linear_17887_30315)"/>
<path d="M204.405 84.5683C204.405 85.4702 203.611 86.2005 202.631 86.2005C201.651 86.2005 200.857 85.4693 200.857 84.5683C200.857 83.6672 201.652 82.936 202.631 82.936C203.611 82.936 204.405 83.6663 204.405 84.5683Z" fill="url(#paint12_linear_17887_30315)"/>
<path d="M308.735 231.398C317.485 231.398 324.578 224.871 324.578 216.821C324.578 208.77 317.485 202.243 308.735 202.243C299.985 202.243 292.892 208.77 292.892 216.821C292.892 224.871 299.985 231.398 308.735 231.398Z" fill="url(#paint13_linear_17887_30315)"/>
<path d="M308.735 229.078C316.092 229.078 322.057 223.59 322.057 216.821C322.057 210.051 316.092 204.563 308.735 204.563C301.378 204.563 295.413 210.051 295.413 216.821C295.413 223.59 301.378 229.078 308.735 229.078Z" fill="url(#paint14_linear_17887_30315)"/>
<path d="M310.009 223.604V225.676H307.998V223.658C306.007 223.548 304.096 222.975 302.991 222.179L304.096 219.922C305.102 220.607 306.549 221.106 307.998 221.235V218.145C305.766 217.646 303.272 216.961 303.272 214.315C303.272 212.354 304.82 210.67 307.998 210.337V208.283H310.009V210.3C311.516 210.411 312.985 210.781 314.09 211.428L313.086 213.704C312.061 213.168 311.014 212.854 310.01 212.742V215.888C312.241 216.368 314.695 217.053 314.695 219.662C314.694 221.587 313.165 223.252 310.009 223.604ZM307.998 215.426V212.798C306.933 213.019 306.509 213.556 306.509 214.168C306.509 214.815 307.112 215.167 307.998 215.426ZM311.457 219.884C311.457 219.237 310.873 218.885 310.009 218.608V221.162C311.013 220.958 311.457 220.478 311.457 219.884Z" fill="#FFC431"/>
<path d="M346.205 131.717C358.441 131.717 368.361 122.59 368.361 111.331C368.361 100.072 358.441 90.9453 346.205 90.9453C333.969 90.9453 324.049 100.072 324.049 111.331C324.049 122.59 333.969 131.717 346.205 131.717Z" fill="url(#paint15_linear_17887_30315)"/>
<path d="M346.205 128.472C356.493 128.472 364.834 120.798 364.834 111.332C364.834 101.865 356.493 94.1909 346.205 94.1909C335.916 94.1909 327.576 101.865 327.576 111.332C327.576 120.798 335.916 128.472 346.205 128.472Z" fill="url(#paint16_linear_17887_30315)"/>
<path d="M352.899 114.58L355.795 117.065C353.939 119.161 351.128 120.299 347.697 120.299C342.719 120.299 338.781 117.711 337.488 113.805H334.31V111.631H337.066C337.038 111.399 337.038 111.165 337.038 110.933C337.038 110.7 337.038 110.467 337.066 110.233H334.31V108.06H337.488C338.781 104.152 342.719 101.564 347.697 101.564C351.128 101.564 353.939 102.703 355.795 104.773L352.899 107.258C351.549 105.86 349.889 105.136 347.921 105.136C345.418 105.136 343.393 106.249 342.352 108.06H349.468V110.233H341.649C341.622 110.467 341.622 110.699 341.622 110.933C341.622 111.165 341.622 111.399 341.649 111.631H349.468V113.805H342.352C343.393 115.616 345.417 116.729 347.921 116.729C349.889 116.729 351.549 116.004 352.899 114.58Z" fill="#FFC431"/>
<path d="M61.7159 198.382C73.9523 198.382 83.8719 189.255 83.8719 177.996C83.8719 166.737 73.9523 157.61 61.7159 157.61C49.4795 157.61 39.5599 166.737 39.5599 177.996C39.5599 189.255 49.4795 198.382 61.7159 198.382Z" fill="url(#paint17_linear_17887_30315)"/>
<path d="M61.7159 195.137C72.0043 195.137 80.3447 187.463 80.3447 177.997C80.3447 168.53 72.0043 160.856 61.7159 160.856C51.4275 160.856 43.087 168.53 43.087 177.997C43.087 187.463 51.4275 195.137 61.7159 195.137Z" fill="url(#paint18_linear_17887_30315)"/>
<path d="M49.7366 173.328C49.7366 170.275 51.7613 168.334 54.63 168.334C57.4977 168.334 59.4947 170.249 59.4947 173.328C59.4947 176.408 57.4987 178.322 54.63 178.322C51.7613 178.322 49.7366 176.382 49.7366 173.328ZM56.6823 173.328C56.6823 171.387 55.8669 170.456 54.63 170.456C53.4197 170.456 52.5767 171.414 52.5767 173.328C52.5767 175.243 53.4197 176.2 54.63 176.2C55.8669 176.2 56.6823 175.268 56.6823 173.328ZM66.3565 168.54H69.704L56.2618 186.654H52.9143L66.3565 168.54ZM63.1226 181.867C63.1226 178.814 65.1482 176.873 67.9883 176.873C70.857 176.873 72.8817 178.814 72.8817 181.867C72.8817 184.92 70.857 186.861 67.9883 186.861C65.1473 186.861 63.1226 184.92 63.1226 181.867ZM70.0407 181.867C70.0407 179.952 69.2253 178.995 67.9873 178.995C66.7781 178.995 65.935 179.926 65.935 181.867C65.935 183.808 66.7781 184.739 67.9873 184.739C69.2253 184.739 70.0407 183.781 70.0407 181.867Z" fill="#FFC431"/>
<path d="M306.026 52.4878C307.143 58.0266 311.852 62.3601 317.872 63.3874C311.852 64.4147 307.143 68.7482 306.026 74.2871C304.91 68.7482 300.2 64.4147 294.18 63.3874C300.2 62.3601 304.91 58.0266 306.026 52.4878Z" fill="url(#paint19_linear_17887_30315)"/>
<path d="M54.9331 113.995C56.0495 119.534 60.7593 123.867 66.7791 124.895C60.7593 125.922 56.0495 130.256 54.9331 135.794C53.8166 130.256 49.1068 125.922 43.087 124.895C49.1068 123.868 53.8166 119.535 54.9331 113.995Z" fill="url(#paint20_linear_17887_30315)"/>
<path d="M287.356 256.188C288.115 259.956 291.319 262.904 295.414 263.603C291.319 264.301 288.115 267.25 287.356 271.017C286.597 267.25 283.392 264.301 279.298 263.603C283.392 262.904 286.597 259.957 287.356 256.188Z" fill="url(#paint21_linear_17887_30315)"/>
<path d="M100.056 6.47217C100.815 10.2398 104.019 13.1882 108.114 13.8866C104.019 14.5851 100.815 17.5335 100.056 21.3011C99.2964 17.5335 96.092 14.5851 91.9973 13.8866C96.092 13.1891 99.2964 10.2407 100.056 6.47217Z" fill="url(#paint22_linear_17887_30315)"/>
<path d="M314.084 161.475C314.844 165.243 318.048 168.191 322.143 168.89C318.048 169.588 314.844 172.536 314.084 176.304C313.325 172.536 310.121 169.588 306.026 168.89C310.121 168.191 313.325 165.243 314.084 161.475Z" fill="url(#paint23_linear_17887_30315)"/>
<path d="M133.446 113.995L119.434 98.8005H58.8797C51.4177 98.8005 45.3674 93.2344 45.3674 86.3676V60.5818C45.3674 53.7159 51.4167 48.1489 58.8797 48.1489H119.934C127.397 48.1489 133.446 53.715 133.446 60.5818V113.995Z" fill="url(#paint24_linear_17887_30315)"/>
<path d="M117.099 59.6419H61.7159C60.8975 59.6419 60.2351 59.0324 60.2351 58.2794C60.2351 57.5265 60.8975 56.917 61.7159 56.917H117.099C117.917 56.917 118.58 57.5265 118.58 58.2794C118.58 59.0324 117.917 59.6419 117.099 59.6419Z" fill="#F0EBFF"/>
<path d="M117.099 69.9256H61.7159C60.8975 69.9256 60.2351 69.3161 60.2351 68.5631C60.2351 67.8102 60.8975 67.2007 61.7159 67.2007H117.099C117.917 67.2007 118.58 67.8102 118.58 68.5631C118.58 69.3161 117.917 69.9256 117.099 69.9256Z" fill="#F0EBFF"/>
<path d="M117.099 80.2093H61.7159C60.8975 80.2093 60.2351 79.5998 60.2351 78.8468C60.2351 78.0938 60.8975 77.4844 61.7159 77.4844H117.099C117.917 77.4844 118.58 78.0938 118.58 78.8468C118.58 79.5998 117.917 80.2093 117.099 80.2093Z" fill="#F0EBFF"/>
<path d="M117.099 90.4935H61.7159C60.8975 90.4935 60.2351 89.884 60.2351 89.131C60.2351 88.378 60.8975 87.7686 61.7159 87.7686H117.099C117.917 87.7686 118.58 88.378 118.58 89.131C118.58 89.8831 117.917 90.4935 117.099 90.4935Z" fill="#F0EBFF"/>
<path d="M124.26 272.243C143.722 272.243 159.499 257.727 159.499 239.82C159.499 221.913 143.722 207.396 124.26 207.396C104.798 207.396 89.0209 221.913 89.0209 239.82C89.0209 257.727 104.798 272.243 124.26 272.243Z" fill="url(#paint25_linear_17887_30315)"/>
<path d="M124.26 266.164C140.073 266.164 152.892 254.369 152.892 239.82C152.892 225.27 140.073 213.475 124.26 213.475C108.447 213.475 95.6281 225.27 95.6281 239.82C95.6281 254.369 108.447 266.164 124.26 266.164Z" fill="url(#paint26_linear_17887_30315)"/>
<path d="M133.057 236.743C125.622 235.509 122.651 230.576 122.426 227.289C122.201 224.002 120.824 221.619 118.238 222.804C115.653 223.989 115.042 230.828 116.566 234.424C109.952 233.479 103.78 234.197 103.175 237.194C109.638 242.445 107.39 248.449 104.983 251.394C108.125 253.425 122.028 254.478 125.425 254.006C128.822 253.532 131.647 249.155 134.736 249.275C137.825 249.394 140.913 249.514 140.913 249.514L141.467 237.371C141.467 237.371 136.778 237.361 133.057 236.743Z" fill="url(#paint27_linear_17887_30315)"/>
<path d="M126.366 245.14C122.892 244.162 120.05 240.627 119.446 239.255C119.477 242.159 123.508 245.201 126.366 245.14Z" fill="#F9E6E1"/>
<path d="M109.148 252.677C113.859 253.236 117.035 252.586 118.229 251.036C119.423 249.485 118.441 248.125 117.096 247.254L109.148 252.677Z" fill="#F9E6E1"/>
<path d="M116.434 247.666C118.005 248.011 119.19 250.563 116.015 251.745C112.84 252.927 107.632 253.295 104.709 251.346C103.418 250.486 103.084 248.328 106.835 247.544C110.587 246.76 114.219 247.18 116.434 247.666Z" fill="url(#paint28_linear_17887_30315)"/>
<path d="M105.783 248.772C108.838 249.546 114.969 250.17 117.393 248.198C119.818 246.226 116.498 243.524 116.498 243.524L105.783 248.772Z" fill="#F9E6E1"/>
<path d="M115.687 243.592C117.259 243.937 119.126 247.135 115.952 248.317C112.777 249.499 104.263 249.175 103.404 247.938C102.545 246.702 102.52 244.473 106.271 243.689C110.021 242.906 113.472 243.106 115.687 243.592Z" fill="url(#paint29_linear_17887_30315)"/>
<path d="M116.468 239.229C118.576 241.142 118.247 242.946 117.677 243.69C117.106 244.433 115.349 245.869 107.291 244.84C107.817 244.779 116.468 239.229 116.468 239.229Z" fill="#F9E6E1"/>
<path d="M115.361 239.267C117.052 239.638 119.185 243.411 115.645 244.351C112.42 245.208 103.295 245.16 102.371 243.83C101.447 242.5 101.42 240.102 105.456 239.258C109.493 238.414 112.977 238.743 115.361 239.267Z" fill="url(#paint30_linear_17887_30315)"/>
<path d="M117.083 236.005C118.246 237.549 118.317 238.732 117.675 239.531C117.033 240.33 109.754 240.907 106.181 240L117.083 236.005Z" fill="#F9E6E1"/>
<path d="M114.074 234.08C117.127 234.485 119.52 238.885 115.846 239.628C112.53 240.299 104.193 240.466 103.269 239.136C102.345 237.806 101.85 235.296 105.887 234.452C109.924 233.608 112.032 233.81 114.074 234.08Z" fill="url(#paint31_linear_17887_30315)"/>
<path d="M136.677 237.093C136.44 237.607 135.323 248.634 136.167 249.349C137.01 250.064 142.297 249.481 142.297 249.481C142.297 249.481 143.42 238.152 143.097 237.338C142.774 236.523 137.366 236.811 136.677 237.093Z" fill="url(#paint32_linear_17887_30315)"/>
<path d="M138.754 236.381C138.484 236.968 137.487 249.684 138.533 250.533C139.58 251.382 145.978 250.854 145.978 250.854C145.978 250.854 146.972 237.791 146.554 236.84C146.136 235.89 139.581 236.074 138.754 236.381Z" fill="url(#paint33_linear_17887_30315)"/>
</g>
<defs>
<linearGradient id="paint0_linear_17887_30315" x1="262.576" y1="-75.2098" x2="175.851" y2="247.848" gradientUnits="userSpaceOnUse">
<stop stop-color="#F5F0FF"/>
<stop offset="0.9959" stop-color="#D2C1F7"/>
</linearGradient>
<linearGradient id="paint1_linear_17887_30315" x1="189.642" y1="36.3281" x2="195.311" y2="279.461" gradientUnits="userSpaceOnUse">
<stop stop-color="#263681"/>
<stop offset="0.9959" stop-color="#1A1248"/>
</linearGradient>
<linearGradient id="paint2_linear_17887_30315" x1="105.768" y1="114.427" x2="234.24" y2="196.277" gradientUnits="userSpaceOnUse">
<stop stop-color="#9571CB"/>
<stop offset="0.2434" stop-color="#8E69CA"/>
<stop offset="0.6169" stop-color="#7B54C5"/>
<stop offset="1" stop-color="#6237C0"/>
</linearGradient>
<linearGradient id="paint3_linear_17887_30315" x1="249.421" y1="214.911" x2="229.812" y2="206.509" gradientUnits="userSpaceOnUse">
<stop stop-color="#F5F0FF"/>
<stop offset="0.6951" stop-color="#D2C1F7"/>
<stop offset="1" stop-color="#DCCEF9"/>
</linearGradient>
<linearGradient id="paint4_linear_17887_30315" x1="212.997" y1="118.169" x2="185.91" y2="194.789" gradientUnits="userSpaceOnUse">
<stop stop-color="#F59513"/>
<stop offset="0.3699" stop-color="#FAAD1E"/>
<stop offset="0.9959" stop-color="#F2830B"/>
</linearGradient>
<linearGradient id="paint5_linear_17887_30315" x1="118.311" y1="133.578" x2="145.019" y2="140.741" gradientUnits="userSpaceOnUse">
<stop stop-color="#E6971C"/>
<stop offset="0.9959" stop-color="#DE6D0A"/>
</linearGradient>
<radialGradient id="paint6_radial_17887_30315" cx="0" cy="0" r="1" gradientUnits="userSpaceOnUse" gradientTransform="translate(129.538 137.668) rotate(-167.207) scale(22.6798 21.0533)">
<stop stop-color="#FFD042"/>
<stop offset="1" stop-color="#F2830B"/>
</radialGradient>
<linearGradient id="paint7_linear_17887_30315" x1="246.396" y1="70.2979" x2="262.09" y2="108.201" gradientUnits="userSpaceOnUse">
<stop stop-color="#9571CB"/>
<stop offset="0.9959" stop-color="#6237C0"/>
</linearGradient>
<linearGradient id="paint8_linear_17887_30315" x1="248.089" y1="73.7586" x2="260.84" y2="104.555" gradientUnits="userSpaceOnUse">
<stop stop-color="#F5F0FF"/>
<stop offset="0.9959" stop-color="#D2C1F7"/>
</linearGradient>
<linearGradient id="paint9_linear_17887_30315" x1="252.185" y1="81.5024" x2="259.278" y2="98.6333" gradientUnits="userSpaceOnUse">
<stop stop-color="#FAAD1E"/>
<stop offset="0.9959" stop-color="#F2830B"/>
</linearGradient>
<linearGradient id="paint10_linear_17887_30315" x1="197.953" y1="69.3519" x2="206.086" y2="88.9945" gradientUnits="userSpaceOnUse">
<stop stop-color="#F5F0FF"/>
<stop offset="0.9959" stop-color="#D2C1F7"/>
</linearGradient>
<linearGradient id="paint11_linear_17887_30315" x1="200.866" y1="72.744" x2="203.934" y2="80.1548" gradientUnits="userSpaceOnUse">
<stop stop-color="#FAAD1E"/>
<stop offset="0.9959" stop-color="#F2830B"/>
</linearGradient>
<linearGradient id="paint12_linear_17887_30315" x1="201.983" y1="83.2437" x2="203.109" y2="85.9639" gradientUnits="userSpaceOnUse">
<stop stop-color="#FAAD1E"/>
<stop offset="0.9959" stop-color="#F2830B"/>
</linearGradient>
<linearGradient id="paint13_linear_17887_30315" x1="317.094" y1="190.459" x2="307.534" y2="226.071" gradientUnits="userSpaceOnUse">
<stop stop-color="#FFE14D"/>
<stop offset="1" stop-color="#F7A523"/>
</linearGradient>
<linearGradient id="paint14_linear_17887_30315" x1="315.764" y1="194.654" x2="307.725" y2="224.599" gradientUnits="userSpaceOnUse">
<stop stop-color="#FAAD1E"/>
<stop offset="0.9959" stop-color="#F2830B"/>
</linearGradient>
<linearGradient id="paint15_linear_17887_30315" x1="357.895" y1="74.4659" x2="344.525" y2="124.268" gradientUnits="userSpaceOnUse">
<stop stop-color="#FFE14D"/>
<stop offset="1" stop-color="#F7A523"/>
</linearGradient>
<linearGradient id="paint16_linear_17887_30315" x1="356.034" y1="80.3338" x2="344.793" y2="122.209" gradientUnits="userSpaceOnUse">
<stop stop-color="#FAAD1E"/>
<stop offset="0.9959" stop-color="#F2830B"/>
</linearGradient>
<linearGradient id="paint17_linear_17887_30315" x1="73.4057" y1="141.131" x2="60.0364" y2="190.933" gradientUnits="userSpaceOnUse">
<stop stop-color="#FFE14D"/>
<stop offset="1" stop-color="#F7A523"/>
</linearGradient>
<linearGradient id="paint18_linear_17887_30315" x1="71.5452" y1="146.999" x2="60.3038" y2="188.874" gradientUnits="userSpaceOnUse">
<stop stop-color="#FAAD1E"/>
<stop offset="0.9959" stop-color="#F2830B"/>
</linearGradient>
<linearGradient id="paint19_linear_17887_30315" x1="302.083" y1="55.3246" x2="308.939" y2="71.8829" gradientUnits="userSpaceOnUse">
<stop stop-color="#9571CB"/>
<stop offset="0.9959" stop-color="#6237C0"/>
</linearGradient>
<linearGradient id="paint20_linear_17887_30315" x1="50.9897" y1="116.832" x2="57.8457" y2="133.391" gradientUnits="userSpaceOnUse">
<stop stop-color="#9571CB"/>
<stop offset="0.9959" stop-color="#6237C0"/>
</linearGradient>
<linearGradient id="paint21_linear_17887_30315" x1="284.673" y1="258.118" x2="289.337" y2="269.382" gradientUnits="userSpaceOnUse">
<stop stop-color="#263681"/>
<stop offset="0.9959" stop-color="#1A1248"/>
</linearGradient>
<linearGradient id="paint22_linear_17887_30315" x1="97.3731" y1="8.4024" x2="102.037" y2="19.6664" gradientUnits="userSpaceOnUse">
<stop stop-color="#263681"/>
<stop offset="0.9959" stop-color="#1A1248"/>
</linearGradient>
<linearGradient id="paint23_linear_17887_30315" x1="311.402" y1="163.405" x2="316.066" y2="174.669" gradientUnits="userSpaceOnUse">
<stop stop-color="#263681"/>
<stop offset="0.9959" stop-color="#1A1248"/>
</linearGradient>
<linearGradient id="paint24_linear_17887_30315" x1="75.6766" y1="45.3992" x2="106.474" y2="119.781" gradientUnits="userSpaceOnUse">
<stop offset="0.0041" stop-color="white"/>
<stop offset="1" stop-color="#F5F0FF"/>
</linearGradient>
<linearGradient id="paint25_linear_17887_30315" x1="111.393" y1="213.512" x2="134.679" y2="269.752" gradientUnits="userSpaceOnUse">
<stop stop-color="#9571CB"/>
<stop offset="0.0962" stop-color="#8A64C9"/>
<stop offset="0.3212" stop-color="#744BC4"/>
<stop offset="0.5271" stop-color="#673CC1"/>
<stop offset="0.6948" stop-color="#6237C0"/>
</linearGradient>
<linearGradient id="paint26_linear_17887_30315" x1="113.806" y1="218.444" x2="131.981" y2="262.342" gradientUnits="userSpaceOnUse">
<stop stop-color="#F5F0FF"/>
<stop offset="0.9959" stop-color="#D2C1F7"/>
</linearGradient>
<linearGradient id="paint27_linear_17887_30315" x1="125.39" y1="224.711" x2="120.982" y2="253.719" gradientUnits="userSpaceOnUse">
<stop stop-color="#FFC085"/>
<stop offset="1" stop-color="#FA976E"/>
</linearGradient>
<linearGradient id="paint28_linear_17887_30315" x1="108.545" y1="253.373" x2="112.044" y2="247.051" gradientUnits="userSpaceOnUse">
<stop stop-color="#FFC085"/>
<stop offset="1" stop-color="#FA976E"/>
</linearGradient>
<linearGradient id="paint29_linear_17887_30315" x1="107.727" y1="250.287" x2="111.577" y2="243.331" gradientUnits="userSpaceOnUse">
<stop stop-color="#FFC085"/>
<stop offset="1" stop-color="#FA976E"/>
</linearGradient>
<linearGradient id="paint30_linear_17887_30315" x1="107.019" y1="246.352" x2="111.076" y2="239.021" gradientUnits="userSpaceOnUse">
<stop stop-color="#FFC085"/>
<stop offset="1" stop-color="#FA976E"/>
</linearGradient>
<linearGradient id="paint31_linear_17887_30315" x1="103.595" y1="234.656" x2="116.569" y2="240.633" gradientUnits="userSpaceOnUse">
<stop stop-color="#FFC085"/>
<stop offset="1" stop-color="#FA976E"/>
</linearGradient>
<linearGradient id="paint32_linear_17887_30315" x1="139.897" y1="237.585" x2="138.952" y2="251.074" gradientUnits="userSpaceOnUse">
<stop stop-color="#F5F0FF"/>
<stop offset="0.9959" stop-color="#D2C1F7"/>
</linearGradient>
<linearGradient id="paint33_linear_17887_30315" x1="142.671" y1="236.526" x2="142.022" y2="250.974" gradientUnits="userSpaceOnUse">
<stop stop-color="#263681"/>
<stop offset="0.9959" stop-color="#1A1248"/>
</linearGradient>
</defs>
</svg>
