<svg width="620" height="300" viewBox="0 0 620 300" fill="none" xmlns="http://www.w3.org/2000/svg">
<g opacity="0.15">
<path fill-rule="evenodd" clip-rule="evenodd" d="M234.347 217.268C234.347 217.268 233.01 217.463 232.915 218.315C232.82 219.167 232.791 219.426 232.723 220.018C232.656 220.611 234.166 221.293 236.393 221.474C238.622 221.654 243.194 221.763 247.334 219.445C251.473 217.128 263.194 203.879 268.368 196.302C268.368 196.302 269.062 194.64 267.832 193.625C266.602 192.61 266.103 192.346 265.729 192.148C265.355 191.949 264.435 192.099 264.435 192.099C264.435 192.099 265.433 192.628 264.08 194.462C262.728 196.295 257.791 204.115 254.689 208.946C251.588 213.776 246.073 217.738 240.814 218.246C235.555 218.754 234.285 218.296 234.285 218.296C234.285 218.296 234.15 218.023 234.347 217.268Z" fill="#FAE5EE"/>
<path fill-rule="evenodd" clip-rule="evenodd" d="M482.544 286.291C611.556 199.717 460.881 105.642 397.204 163.348C461.401 -22.6969 61.1182 -36.9036 151.851 160.615C151.851 160.615 -1.76253 164.986 92.112 279.733L482.544 286.291ZM117.306 113.081C124.629 143.658 96.4104 159.126 75.9454 159.589C63.0567 159.88 56.2447 153.839 55.4506 146.606C53.9335 132.789 67.451 127.488 80.2206 124.492C86.7964 122.949 93.2837 120.794 95.8609 114.378C101.551 100.212 113.231 96.0639 117.306 113.081ZM496.407 282.125C496.407 282.125 544.054 259.924 540.153 209.381C540.153 209.381 540.014 208.083 541.059 208.024C542.104 207.965 558.683 248.765 523.574 278.996L496.407 282.125Z" fill="#F0EEF6"/>
<path fill-rule="evenodd" clip-rule="evenodd" d="M152.775 164.568C135.873 149.981 123.3 168.51 125.056 187.11C126.72 204.744 144.654 265.251 141.329 290.706H148.196C164.993 258.064 174.412 183.242 152.775 164.568Z" fill="#E85D96"/>
<path fill-rule="evenodd" clip-rule="evenodd" d="M145.67 290.705C162.02 239.257 141.322 168.141 141.253 167.898C141.127 167.457 140.601 167.185 140.08 167.293C139.56 167.4 139.238 167.845 139.366 168.287C139.434 168.529 160.159 239.726 143.683 290.705H145.67Z" fill="#DD4586"/>
<path fill-rule="evenodd" clip-rule="evenodd" d="M111.077 196.714C93.2663 188.716 88.7753 206.167 95.7188 220.606C101.472 232.572 126.895 267.966 136.507 290.705H145.56C146.329 259.279 132.102 206.155 111.077 196.714Z" fill="#EF92A3"/>
<path fill-rule="evenodd" clip-rule="evenodd" d="M142.253 290.705C136.361 248.202 103.013 202.003 102.894 201.835C102.661 201.51 102.162 201.407 101.778 201.604C101.395 201.8 101.274 202.224 101.505 202.548C101.624 202.715 134.759 248.615 140.643 290.705H142.253Z" fill="#F3C4D2"/>
<path fill-rule="evenodd" clip-rule="evenodd" d="M186.355 216.887C203.617 210.495 206.354 227.026 198.684 240.068C193.496 248.893 174.795 271.486 162.202 290.706H147.829C152.744 261.63 168.512 223.494 186.355 216.887Z" fill="#F3C4D2"/>
<path fill-rule="evenodd" clip-rule="evenodd" d="M152.962 290.705C165.218 255.479 193.443 222.282 193.557 222.147C193.8 221.859 194.273 221.792 194.615 221.998C194.955 222.204 195.034 222.606 194.79 222.895C194.678 223.027 166.75 255.879 154.523 290.704H152.962V290.705Z" fill="#EF92A3"/>
<path fill-rule="evenodd" clip-rule="evenodd" d="M438.218 194.436C452.993 184.513 463.012 197.793 460.912 210.839C458.921 223.208 441.752 265.408 443.72 283.376L437.913 283.241C424.789 259.951 419.301 207.143 438.218 194.436Z" fill="#E85D96"/>
<path fill-rule="evenodd" clip-rule="evenodd" d="M440.049 283.291C427.926 246.784 447.784 197.177 447.851 197.008C447.971 196.701 448.424 196.52 448.862 196.606C449.298 196.691 449.555 197.011 449.433 197.319C449.366 197.488 429.484 247.151 441.729 283.331L440.049 283.291Z" fill="#DD4586"/>
<path fill-rule="evenodd" clip-rule="evenodd" d="M472.414 217.871C487.74 212.598 490.96 224.961 484.61 234.978C479.348 243.279 456.679 267.669 447.798 283.472L440.142 283.293C440.532 261.176 454.322 224.094 472.414 217.871Z" fill="#EF92A3"/>
<path fill-rule="evenodd" clip-rule="evenodd" d="M442.938 283.358C449.328 253.582 479.058 221.75 479.165 221.635C479.372 221.411 479.798 221.348 480.115 221.494C480.432 221.64 480.522 221.94 480.314 222.164C480.208 222.278 450.668 253.904 444.3 283.39L442.938 283.358Z" fill="#F3C4D2"/>
<path fill-rule="evenodd" clip-rule="evenodd" d="M408.088 230.569C393.702 225.732 390.841 237.304 396.893 246.629C400.989 252.937 416.055 269.198 426.068 282.964L438.222 283.248C435.029 262.701 422.958 235.569 408.088 230.569Z" fill="#F3C4D2"/>
<path fill-rule="evenodd" clip-rule="evenodd" d="M433.882 283.147C424.684 258.129 401.915 234.223 401.823 234.127C401.627 233.919 401.229 233.863 400.934 234.001C400.64 234.139 400.56 234.42 400.755 234.628C400.846 234.724 423.376 258.381 432.562 283.116L433.882 283.147Z" fill="#EF92A3"/>
<path fill-rule="evenodd" clip-rule="evenodd" d="M60.1696 277.749H549.273C552.48 277.749 555.107 279.975 555.107 282.694V282.694C555.107 285.413 552.482 287.639 549.273 287.639H529.592C527.81 287.639 526.352 288.875 526.352 290.385C526.352 291.895 527.81 293.133 529.592 293.133H536.793C539.02 293.133 540.843 294.679 540.843 296.566C540.843 298.454 539.021 300 536.793 300H73.2954C71.0669 300 69.2449 298.455 69.2449 296.566C69.2449 294.678 71.0677 293.133 73.2954 293.133H78.9663C80.7487 293.133 82.2071 291.897 82.2071 290.386C82.2071 288.875 80.7487 287.639 78.9663 287.639H60.1696C56.9611 287.639 54.3367 285.413 54.3367 282.694V282.694C54.3367 279.974 56.9636 277.749 60.1696 277.749ZM63.2079 300C65.3464 300 67.0973 298.516 67.0973 296.704V296.428C67.0973 294.616 65.3472 293.132 63.2079 293.132C61.0686 293.132 59.3193 294.615 59.3193 296.428V296.704C59.3193 298.517 61.0686 300 63.2079 300Z" fill="#0C1332"/>
<path fill-rule="evenodd" clip-rule="evenodd" d="M417.565 129.384C420.032 129.384 422.053 131.096 422.053 133.188V139.039C422.053 141.131 420.034 142.843 417.566 142.843C415.098 142.843 413.076 141.131 413.076 139.039V133.188C413.076 131.096 415.096 129.384 417.565 129.384Z" fill="#DCD7EB"/>
<path fill-rule="evenodd" clip-rule="evenodd" d="M409.956 129.384H425.174C427.149 129.384 428.765 130.754 428.765 132.428C428.765 134.103 427.149 135.473 425.174 135.473H409.956C407.981 135.473 406.364 134.103 406.364 132.428C406.364 130.754 407.981 129.384 409.956 129.384Z" fill="#DCD7EB"/>
<path fill-rule="evenodd" clip-rule="evenodd" d="M419.495 190.719C436.393 190.719 450.175 179.037 450.175 164.714C450.175 150.392 436.393 138.709 419.495 138.709C402.598 138.709 388.816 150.392 388.816 164.714C388.816 179.037 402.597 190.719 419.495 190.719Z" fill="#CFC4E0"/>
<path fill-rule="evenodd" clip-rule="evenodd" d="M434.64 135.879C435.96 136.525 436.415 137.968 435.655 139.085L433.526 142.212C432.764 143.331 431.062 143.716 429.743 143.071H429.742C428.423 142.426 427.968 140.984 428.728 139.865L430.858 136.738C431.62 135.621 433.322 135.233 434.64 135.879Z" fill="#0C1332"/>
<path fill-rule="evenodd" clip-rule="evenodd" d="M430.574 133.889L438.708 137.869C439.762 138.386 440.128 139.541 439.519 140.435C438.91 141.33 437.547 141.64 436.491 141.122L428.359 137.143C427.303 136.626 426.938 135.471 427.548 134.576C428.156 133.681 429.519 133.372 430.574 133.889Z" fill="#242B5C"/>
<path fill-rule="evenodd" clip-rule="evenodd" d="M395.786 135.879C394.466 136.525 394.011 137.968 394.772 139.085L396.902 142.212C397.663 143.331 399.366 143.716 400.684 143.071C402.004 142.426 402.46 140.984 401.698 139.865L399.569 136.738C398.809 135.621 397.106 135.233 395.786 135.879Z" fill="#0C1332"/>
<path fill-rule="evenodd" clip-rule="evenodd" d="M399.852 133.889L391.72 137.869C390.665 138.386 390.299 139.541 390.908 140.435C391.517 141.33 392.881 141.64 393.936 141.122L402.068 137.143C403.124 136.626 403.49 135.471 402.88 134.576C402.271 133.681 400.908 133.372 399.852 133.889Z" fill="#242B5C"/>
<path fill-rule="evenodd" clip-rule="evenodd" d="M415.214 129.231C417.416 129.231 419.218 130.759 419.218 132.625V137.844C419.218 139.71 417.416 141.238 415.214 141.238C413.012 141.238 411.209 139.71 411.209 137.844V132.625C411.209 130.758 413.012 129.231 415.214 129.231Z" fill="#0C1332"/>
<path fill-rule="evenodd" clip-rule="evenodd" d="M415.213 188.967C432.11 188.967 445.893 177.285 445.893 162.962C445.893 148.64 432.11 136.958 415.213 136.958C398.316 136.958 384.534 148.64 384.534 162.962C384.534 177.285 398.316 188.967 415.213 188.967Z" fill="#242B5C"/>
<path fill-rule="evenodd" clip-rule="evenodd" d="M415.213 183.312C428.437 183.312 439.222 174.171 439.222 162.962C439.222 151.755 428.437 142.613 415.213 142.613C401.99 142.613 391.205 151.755 391.205 162.962C391.205 174.171 401.99 183.312 415.213 183.312Z" fill="white"/>
<path fill-rule="evenodd" clip-rule="evenodd" d="M408.425 129.231H422.002C423.765 129.231 425.206 130.453 425.206 131.946C425.206 133.441 423.765 134.663 422.002 134.663H408.425C406.663 134.663 405.221 133.441 405.221 131.946C405.221 130.453 406.663 129.231 408.425 129.231Z" fill="#242B5C"/>
<path fill-rule="evenodd" clip-rule="evenodd" d="M415.214 144.724C415.699 144.724 416.096 145.06 416.096 145.471V146.658C416.096 147.069 415.699 147.405 415.214 147.405C414.728 147.405 414.332 147.069 414.332 146.658V145.471C414.332 145.06 414.728 144.724 415.214 144.724Z" fill="#151F42"/>
<path fill-rule="evenodd" clip-rule="evenodd" d="M415.214 178.519C415.699 178.519 416.096 178.856 416.096 179.267V180.454C416.096 180.865 415.699 181.202 415.214 181.202C414.728 181.202 414.332 180.865 414.332 180.454V179.267C414.332 178.856 414.728 178.519 415.214 178.519Z" fill="#151F42"/>
<path fill-rule="evenodd" clip-rule="evenodd" d="M430.43 150.066C430.773 150.356 430.773 150.833 430.43 151.124L429.44 151.963C429.096 152.254 428.534 152.254 428.191 151.963C427.848 151.672 427.848 151.195 428.191 150.905L429.181 150.066C429.524 149.775 430.086 149.775 430.43 150.066Z" fill="#151F42"/>
<path fill-rule="evenodd" clip-rule="evenodd" d="M402.236 173.963C402.58 174.254 402.58 174.73 402.236 175.021L401.246 175.86C400.903 176.151 400.341 176.151 399.998 175.86C399.655 175.569 399.655 175.093 399.998 174.802L400.988 173.963C401.331 173.672 401.892 173.672 402.236 173.963Z" fill="#151F42"/>
<path fill-rule="evenodd" clip-rule="evenodd" d="M436.732 162.962C436.732 163.374 436.335 163.71 435.85 163.71H434.45C433.964 163.71 433.567 163.374 433.567 162.962C433.567 162.551 433.965 162.214 434.45 162.214H435.85C436.335 162.214 436.732 162.551 436.732 162.962Z" fill="#151F42"/>
<path fill-rule="evenodd" clip-rule="evenodd" d="M396.86 162.962C396.86 163.374 396.464 163.71 395.979 163.71H394.579C394.093 163.71 393.696 163.374 393.696 162.962C393.696 162.551 394.093 162.214 394.579 162.214H395.979C396.464 162.214 396.86 162.551 396.86 162.962Z" fill="#151F42"/>
<path fill-rule="evenodd" clip-rule="evenodd" d="M430.43 175.86C430.086 176.151 429.523 176.151 429.181 175.86L428.191 175.021C427.848 174.73 427.848 174.254 428.191 173.963C428.534 173.672 429.096 173.672 429.44 173.963L430.43 174.802C430.773 175.093 430.773 175.569 430.43 175.86Z" fill="#151F42"/>
<path fill-rule="evenodd" clip-rule="evenodd" d="M402.236 151.963C401.892 152.254 401.331 152.254 400.988 151.963L399.998 151.124C399.655 150.833 399.655 150.356 399.998 150.066C400.341 149.775 400.903 149.775 401.246 150.066L402.236 150.905C402.58 151.195 402.58 151.672 402.236 151.963Z" fill="#151F42"/>
<path fill-rule="evenodd" clip-rule="evenodd" d="M415.214 150.231C415.699 150.231 416.096 150.568 416.096 150.979V162.834C416.096 163.246 415.699 163.582 415.214 163.582C414.728 163.582 414.332 163.246 414.332 162.834V150.979C414.332 150.568 414.728 150.231 415.214 150.231Z" fill="#E74862"/>
<path fill-rule="evenodd" clip-rule="evenodd" d="M404.594 171.964C404.25 171.673 404.25 171.197 404.594 170.905L414.483 162.523C414.827 162.233 415.388 162.233 415.731 162.523C416.075 162.815 416.075 163.29 415.731 163.581L405.842 171.964C405.498 172.255 404.937 172.255 404.594 171.964Z" fill="#E74862"/>
<path fill-rule="evenodd" clip-rule="evenodd" d="M413 38.7461H357.07C353.008 38.7461 349.684 41.5645 349.684 45.0069V74.9135V76.8235V93.2595C349.684 93.548 349.878 93.7946 350.193 93.9052C350.509 94.0152 350.851 93.9578 351.092 93.7533L363.678 83.0849H413C417.063 83.0849 420.387 80.2673 420.387 76.8242V45.0069C420.388 41.5638 417.063 38.7461 413 38.7461Z" fill="#F0EEF6"/>
<path fill-rule="evenodd" clip-rule="evenodd" d="M409.828 36.7368H353.897C349.835 36.7368 346.511 39.5545 346.511 42.9976V72.9035V74.8135V91.2488C346.511 91.5374 346.705 91.7846 347.019 91.8953C347.334 92.0052 347.677 91.9478 347.918 91.7426L360.506 81.0743H409.827C413.89 81.0743 417.214 78.2573 417.214 74.8135V42.9983C417.215 39.5545 413.89 36.7368 409.828 36.7368Z" fill="#EF92A3"/>
<path fill-rule="evenodd" clip-rule="evenodd" d="M381.864 43.9087C386.536 43.9087 390.766 45.5133 393.827 48.1089C396.888 50.7039 398.782 54.2892 398.782 58.2492C398.782 62.2092 396.889 65.7937 393.827 68.3894C390.766 70.9843 386.536 72.5896 381.864 72.5896C377.193 72.5896 372.963 70.9843 369.901 68.3894C366.84 65.7944 364.946 62.2092 364.946 58.2492C364.946 54.2892 366.841 50.7046 369.901 48.1089C372.962 45.5133 377.192 43.9087 381.864 43.9087ZM392.787 48.9893C389.992 46.6199 386.129 45.154 381.863 45.154C377.598 45.154 373.735 46.6199 370.939 48.9893C368.144 51.3587 366.414 54.6323 366.414 58.2485C366.414 61.8646 368.144 65.1382 370.939 67.5076C373.735 69.877 377.598 71.3429 381.863 71.3429C386.129 71.3429 389.992 69.877 392.787 67.5076C395.583 65.1382 397.312 61.8646 397.312 58.2485C397.312 54.6323 395.583 51.3587 392.787 48.9893Z" fill="white"/>
<path fill-rule="evenodd" clip-rule="evenodd" d="M381.864 48.0107C381.613 48.0107 381.407 47.8377 381.407 47.6241V46.9496C381.407 46.736 381.613 46.563 381.865 46.563C382.116 46.563 382.321 46.7367 382.321 46.9496V47.6241C382.32 47.837 382.115 48.0107 381.864 48.0107ZM381.864 69.9343C381.613 69.9343 381.407 69.7606 381.407 69.547V68.8732C381.407 68.6596 381.613 68.4859 381.865 68.4859C382.116 68.4859 382.321 68.6596 382.321 68.8732V69.547C382.32 69.7606 382.115 69.9343 381.864 69.9343ZM387.902 49.3821C387.685 49.2756 387.609 49.0382 387.735 48.8533L388.133 48.2691C388.258 48.0842 388.539 48.0212 388.757 48.1277C388.975 48.2341 389.05 48.4715 388.924 48.6558L388.527 49.2399C388.401 49.4255 388.121 49.4892 387.902 49.3821ZM374.97 68.3682C374.753 68.2617 374.677 68.0243 374.803 67.8401L375.201 67.256C375.327 67.0718 375.608 67.008 375.826 67.1145C376.043 67.221 376.118 67.4584 375.993 67.6426L375.595 68.2267C375.468 68.4116 375.189 68.4754 374.97 68.3682ZM392.324 53.1291C392.198 52.9449 392.274 52.7068 392.491 52.6003L393.18 52.2635C393.398 52.157 393.678 52.2207 393.804 52.4056C393.929 52.5905 393.855 52.828 393.637 52.9344L392.948 53.2713C392.729 53.3778 392.45 53.314 392.324 53.1291ZM369.924 64.0916C369.798 63.9067 369.873 63.6693 370.091 63.5628L370.78 63.2259C370.998 63.1195 371.278 63.1825 371.404 63.3674C371.529 63.5516 371.455 63.7898 371.237 63.8962L370.548 64.2331C370.33 64.3396 370.05 64.2758 369.924 64.0916ZM393.942 58.2483C393.942 58.0354 394.147 57.861 394.399 57.861H395.194C395.447 57.861 395.651 58.0354 395.651 58.2483C395.651 58.4612 395.447 58.6349 395.194 58.6349H394.399C394.147 58.6356 393.942 58.4619 393.942 58.2483ZM368.077 58.2483C368.077 58.0354 368.282 57.861 368.534 57.861H369.33C369.582 57.861 369.786 58.0354 369.786 58.2483C369.786 58.4612 369.582 58.6349 369.33 58.6349H368.534C368.281 58.6356 368.077 58.4619 368.077 58.2483ZM392.324 63.3674C392.45 63.1825 392.73 63.1195 392.948 63.2259L393.637 63.5628C393.855 63.6693 393.929 63.9067 393.804 64.0916C393.678 64.2758 393.397 64.3396 393.18 64.2331L392.491 63.8962C392.273 63.7891 392.198 63.5516 392.324 63.3674ZM369.924 52.4056C370.049 52.2207 370.329 52.1577 370.547 52.2635L371.237 52.6003C371.455 52.7068 371.529 52.9449 371.404 53.1291C371.278 53.3133 370.998 53.3771 370.78 53.2706L370.091 52.9337C369.873 52.8273 369.798 52.5898 369.924 52.4056ZM387.902 67.1145C388.121 67.008 388.401 67.0718 388.527 67.256L388.924 67.8401C389.049 68.025 388.975 68.2624 388.757 68.3689C388.539 68.4754 388.259 68.4116 388.133 68.2274L387.735 67.6433C387.61 67.4584 387.686 67.221 387.902 67.1145ZM374.97 48.1284C375.189 48.0219 375.468 48.0856 375.595 48.2698L375.991 48.854C376.117 49.0389 376.042 49.2763 375.825 49.3828C375.607 49.4892 375.326 49.4262 375.2 49.2413L374.802 48.6579C374.677 48.4722 374.753 48.2348 374.97 48.1284Z" fill="white"/>
<path fill-rule="evenodd" clip-rule="evenodd" d="M381.864 58.7711C382.203 58.7711 382.48 58.5365 382.48 58.2486V49.3614C382.48 49.0735 382.203 48.8389 381.864 48.8389C381.525 48.8389 381.247 49.0735 381.247 49.3614V58.2486C381.247 58.5365 381.525 58.7711 381.864 58.7711Z" fill="white"/>
<path fill-rule="evenodd" clip-rule="evenodd" d="M381.428 57.8794C381.188 58.0825 381.188 58.4152 381.428 58.6183L386.862 63.2248C387.103 63.4279 387.495 63.4279 387.735 63.2248C387.974 63.0217 387.974 62.689 387.735 62.4859L382.299 57.8794C382.06 57.6756 381.667 57.6756 381.428 57.8794Z" fill="white"/>
<path fill-rule="evenodd" clip-rule="evenodd" d="M457.622 99.2625C458.695 98.3527 460.177 97.7903 461.814 97.7903C463.451 97.7903 464.934 98.3527 466.008 99.2625C467.08 100.172 467.745 101.429 467.745 102.816C467.745 104.204 467.08 105.461 466.008 106.371C464.934 107.28 463.451 107.843 461.814 107.843C460.177 107.843 458.695 107.28 457.622 106.371C456.548 105.461 455.885 104.204 455.885 102.816C455.885 101.428 456.549 100.172 457.622 99.2625ZM458.902 94.2799C458.081 94.4809 457.301 94.7639 456.578 95.1183C455.836 95.4825 455.151 95.9202 454.539 96.421C454.418 96.5191 454.242 96.5331 454.104 96.4651L451.349 95.1169L451.334 95.1085C451.176 95.0364 450.997 95.023 450.832 95.0609C450.663 95.0994 450.511 95.1918 450.417 95.3291L450.405 95.3452L448.466 98.1916C448.374 98.3282 448.355 98.4872 448.4 98.6314C448.446 98.7743 448.555 98.9039 448.717 98.983L448.736 98.9929L451.469 100.331C451.613 100.401 451.679 100.541 451.641 100.67V100.671C451.541 101.015 451.463 101.37 451.411 101.733C451.361 102.086 451.334 102.448 451.334 102.816C451.334 103.183 451.36 103.545 451.411 103.898C451.464 104.262 451.541 104.616 451.642 104.961C451.684 105.104 451.599 105.249 451.45 105.311L448.717 106.648V106.649C448.555 106.728 448.446 106.857 448.4 107C448.355 107.145 448.374 107.303 448.466 107.44L450.416 110.303C450.51 110.44 450.662 110.532 450.831 110.571C451.001 110.609 451.188 110.593 451.349 110.515L451.369 110.505L454.106 109.166C454.249 109.096 454.425 109.119 454.539 109.211C455.151 109.712 455.835 110.15 456.578 110.513C457.306 110.87 458.09 111.154 458.917 111.355C459.077 111.395 459.182 111.518 459.182 111.652V114.347C459.182 114.506 459.258 114.65 459.382 114.755C459.506 114.859 459.676 114.925 459.863 114.925H463.764C463.952 114.925 464.122 114.859 464.245 114.755C464.369 114.65 464.446 114.506 464.446 114.347V111.652C464.446 111.507 464.565 111.384 464.726 111.351C465.547 111.151 466.327 110.867 467.05 110.513C467.792 110.149 468.477 109.711 469.089 109.211C469.214 109.109 469.403 109.098 469.542 109.175L472.279 110.514C472.44 110.593 472.627 110.609 472.797 110.57C472.966 110.532 473.119 110.439 473.212 110.301L473.225 110.286L475.164 107.44L475.163 107.439C475.256 107.302 475.275 107.144 475.229 107C475.183 106.856 475.074 106.727 474.914 106.649L472.16 105.301C472.017 105.231 471.951 105.09 471.988 104.961C472.088 104.616 472.166 104.262 472.218 103.899C472.269 103.545 472.295 103.184 472.295 102.816C472.295 102.448 472.269 102.086 472.218 101.733C472.166 101.369 472.088 101.016 471.988 100.671C471.946 100.527 472.031 100.383 472.18 100.321L474.914 98.983C475.074 98.9046 475.183 98.775 475.229 98.6314C475.275 98.4879 475.256 98.3296 475.163 98.1923L475.152 98.1755L473.213 95.3291C473.12 95.1918 472.966 95.0994 472.797 95.0609C472.627 95.0216 472.44 95.0378 472.279 95.1162V95.1169L469.524 96.4651C469.377 96.538 469.196 96.5128 469.082 96.4147C468.472 95.916 467.79 95.4804 467.05 95.1176C466.323 94.7611 465.538 94.4767 464.711 94.2757C464.552 94.2365 464.447 94.1132 464.447 93.9781V91.2837C464.447 91.1254 464.37 90.9804 464.246 90.876C464.123 90.7717 463.953 90.7065 463.765 90.7065H459.864C459.677 90.7065 459.506 90.7717 459.383 90.876C459.259 90.9804 459.182 91.1254 459.182 91.2837V93.9781C459.182 94.1258 459.063 94.2477 458.902 94.2799Z" fill="#DCD7EB"/>
<path fill-rule="evenodd" clip-rule="evenodd" d="M494.951 46.9067C496.531 45.5668 498.424 44.4847 500.532 43.7451C502.559 43.0335 504.778 42.6406 507.1 42.6406C509.422 42.6406 511.641 43.0335 513.667 43.7451C515.775 44.4847 517.669 45.5668 519.249 46.9067C520.83 48.2458 522.105 49.8511 522.979 51.6378C523.818 53.3558 524.282 55.2364 524.282 57.2045C524.282 59.1726 523.817 61.0538 522.979 62.7712C522.105 64.5579 520.83 66.1624 519.249 67.5016C517.669 68.8407 515.777 69.9221 513.67 70.6617C511.644 71.3747 509.423 71.7677 507.1 71.7677C504.778 71.7677 502.559 71.374 500.533 70.6631C498.425 69.9235 496.531 68.8414 494.951 67.5016C493.371 66.1624 492.095 64.5572 491.221 62.7712C490.381 61.0531 489.918 59.1726 489.918 57.2045C489.918 55.2364 490.381 53.3558 491.221 51.6378C492.095 49.8511 493.371 48.2458 494.951 46.9067ZM501.135 44.989C499.232 45.6572 497.517 46.6398 496.076 47.8606C494.636 49.0821 493.476 50.5368 492.688 52.1484C491.929 53.7025 491.509 55.4101 491.509 57.2038C491.509 58.9982 491.929 60.7057 492.688 62.2599C493.476 63.8715 494.635 65.3269 496.076 66.5477C497.516 67.7691 499.232 68.7511 501.135 69.4193C502.969 70.0636 504.984 70.4187 507.1 70.4187C509.215 70.4187 511.228 70.0636 513.061 69.4193C514.967 68.7518 516.683 67.7691 518.124 66.5477C519.564 65.3269 520.724 63.8722 521.511 62.2599C522.271 60.7057 522.69 58.9982 522.69 57.2045C522.69 55.4108 522.271 53.7032 521.511 52.1491C520.724 50.5375 519.565 49.0821 518.124 47.8613C516.683 46.6405 514.967 45.6579 513.065 44.9897C511.23 44.346 509.217 43.9902 507.1 43.9902C504.984 43.9902 502.969 44.3453 501.135 44.989ZM499.237 34.273C498.161 34.5357 497.104 34.8572 496.07 35.2298C495.021 35.608 494.005 36.0387 493.029 36.5171C492.037 37.0031 491.08 37.541 490.164 38.1266C489.243 38.7142 488.368 39.3467 487.547 40.019C487.254 40.2572 486.892 40.3958 486.518 40.4351C486.136 40.475 485.741 40.4084 485.399 40.2403C482.876 39.0056 480.223 37.7834 477.751 36.4968C477.632 36.4442 477.506 36.412 477.38 36.4001C477.237 36.3868 477.094 36.3966 476.958 36.4274C476.817 36.4589 476.685 36.5136 476.571 36.5871C476.462 36.6579 476.366 36.7482 476.292 36.8561C474.453 39.215 472.607 42.2624 470.904 44.7642C470.832 44.8713 470.787 44.9855 470.77 45.0996C470.752 45.2194 470.763 45.3462 470.802 45.4681C470.839 45.5864 470.904 45.6985 470.99 45.7951C471.075 45.8883 471.181 45.9695 471.308 46.0312C473.578 47.3031 476.502 48.5764 478.908 49.7537C479.261 49.9253 479.519 50.1824 479.666 50.4751C479.718 50.5774 479.756 50.6839 479.78 50.7931L479.936 50.8372L479.761 51.4382C479.623 51.9109 479.502 52.3837 479.4 52.8537C479.301 53.311 479.215 53.7908 479.144 54.2909C479.075 54.7776 479.021 55.2616 478.987 55.7393C478.954 56.2057 478.938 56.6946 478.938 57.2038C478.938 57.7123 478.954 58.2004 478.987 58.6662C479.021 59.1445 479.074 59.6292 479.144 60.116C479.215 60.6154 479.301 61.0944 479.4 61.5518C479.503 62.0224 479.624 62.4959 479.761 62.9687C479.863 63.3196 479.814 63.6712 479.647 63.9744C479.483 64.277 479.199 64.5305 478.834 64.6895L472.103 67.9835L472.105 67.9856L471.307 68.3757C471.181 68.4373 471.074 68.5186 470.989 68.6117C470.904 68.7077 470.838 68.8204 470.801 68.9388C470.762 69.0614 470.751 69.1867 470.769 69.3072C470.787 69.4214 470.831 69.5362 470.903 69.6434L475.886 76.9617L475.889 76.961L476.291 77.5522C476.365 77.6593 476.46 77.7497 476.57 77.8211C476.684 77.8947 476.817 77.9486 476.957 77.9808C477.1 78.013 477.249 78.0228 477.389 78.0074C477.523 77.9927 477.657 77.9549 477.783 77.894C480.194 76.6102 482.915 75.3845 485.402 74.1679C485.757 73.9963 486.145 73.9368 486.514 73.9746C486.897 74.0138 487.259 74.156 487.544 74.3864L487.547 74.3885C488.37 75.0609 489.245 75.694 490.165 76.2824C491.08 76.8672 492.038 77.4051 493.028 77.8905C494.01 78.3723 495.034 78.8052 496.091 79.1862C497.128 79.5595 498.205 79.8838 499.313 80.1527C499.703 80.2473 500.027 80.4448 500.256 80.7011C500.487 80.9603 500.619 81.2838 500.619 81.6221L500.622 89.0666C500.622 89.1912 500.651 89.3103 500.704 89.4161C500.758 89.5267 500.841 89.629 500.944 89.7165C501.043 89.8034 501.166 89.8734 501.298 89.9196C501.424 89.9638 501.563 89.989 501.712 89.989H512.489C512.638 89.989 512.776 89.9645 512.902 89.9196C513.035 89.8727 513.157 89.8034 513.258 89.7179C513.359 89.6297 513.442 89.5267 513.496 89.4168C513.549 89.311 513.578 89.1919 513.578 89.0673V81.6228C513.578 81.2684 513.724 80.9399 513.969 80.678C514.217 80.4112 514.567 80.2157 514.964 80.1359C516.04 79.874 517.096 79.5532 518.13 79.1799C519.18 78.8017 520.195 78.3709 521.172 77.8926C522.164 77.4065 523.121 76.8686 524.036 76.2838C524.957 75.6961 525.832 75.063 526.655 74.3899C526.959 74.142 527.344 74.0019 527.737 73.9718C528.138 73.941 528.547 74.0236 528.893 74.2169L536.413 77.8961C536.537 77.957 536.673 77.9948 536.81 78.0088C536.951 78.0242 537.1 78.0144 537.243 77.9822C537.384 77.95 537.516 77.8961 537.63 77.8225C537.74 77.7511 537.836 77.6614 537.908 77.5536C539.695 74.9124 541.509 72.2845 543.298 69.6441C543.37 69.5376 543.415 69.4228 543.432 69.3072C543.45 69.1881 543.438 69.0628 543.4 68.9409C543.363 68.8211 543.298 68.7084 543.212 68.6124C543.13 68.5179 543.025 68.438 542.901 68.3771L535.294 64.6545C534.941 64.4829 534.683 64.2266 534.536 63.9338C534.496 63.8547 534.464 63.7727 534.44 63.688L534.242 63.6544L534.441 62.9701C534.579 62.4973 534.7 62.0245 534.801 61.5546C534.901 61.0965 534.987 60.6168 535.059 60.1167C535.129 59.6292 535.182 59.1452 535.215 58.6669C535.249 58.2004 535.266 57.7123 535.266 57.2038C535.266 56.6953 535.249 56.2071 535.215 55.7407C535.182 55.263 535.129 54.7797 535.059 54.2923C534.987 53.7866 534.901 53.3054 534.801 52.8509C534.7 52.3816 534.579 51.9095 534.441 51.4382C534.34 51.0859 534.389 50.7329 534.556 50.4303C534.723 50.1291 535.005 49.8756 535.365 49.718L542.898 46.0312C543.022 45.9723 543.126 45.8911 543.212 45.7965C543.298 45.7027 543.362 45.5899 543.4 45.4681C543.438 45.3462 543.45 45.2215 543.432 45.1017C543.414 44.9862 543.37 44.8713 543.298 44.7649C541.458 42.4459 539.616 39.3488 537.908 36.8561C537.836 36.7489 537.74 36.6579 537.63 36.5871C537.516 36.5136 537.384 36.4589 537.243 36.4274C537.099 36.3952 536.952 36.3854 536.811 36.4001C536.678 36.4141 536.542 36.4526 536.414 36.515L528.803 40.2389C528.444 40.4161 528.042 40.4757 527.661 40.4316C527.279 40.3874 526.915 40.2389 526.633 40.0008C525.805 39.3263 524.935 38.6967 524.027 38.1175C523.123 37.5403 522.17 37.0053 521.172 36.5164C520.191 36.0352 519.168 35.6017 518.112 35.2214C517.074 34.8481 515.997 34.5238 514.89 34.2548C514.499 34.1603 514.175 33.9628 513.946 33.7064C513.715 33.4473 513.583 33.1237 513.583 32.7861L513.58 25.3417C513.58 25.2163 513.551 25.0979 513.498 24.9922C513.444 24.8822 513.361 24.7793 513.258 24.6917C513.159 24.6049 513.037 24.5355 512.904 24.4886C512.778 24.4445 512.639 24.4193 512.49 24.4193H501.714C501.565 24.4193 501.425 24.4438 501.3 24.4886C501.168 24.5355 501.045 24.6049 500.944 24.691C500.748 24.8598 500.624 25.0902 500.624 25.3424V32.7868C500.624 33.1433 500.479 33.4718 500.236 33.7316C499.984 33.9985 499.634 34.1939 499.237 34.273ZM495.448 33.9908C494.34 34.3907 493.267 34.846 492.234 35.3523C491.18 35.8685 490.168 36.4365 489.206 37.0515C488.242 37.6678 487.319 38.336 486.445 39.0497C486.412 39.077 486.371 39.0924 486.325 39.0966C486.279 39.1008 486.232 39.0945 486.193 39.0756C483.634 37.8233 481.072 36.5759 478.517 35.3173C478.213 35.1779 477.886 35.0939 477.556 35.0617C477.216 35.0288 476.873 35.0519 476.546 35.1254C476.211 35.2017 475.889 35.3341 475.606 35.5169C475.335 35.6934 475.099 35.9161 474.919 36.1809C473.064 38.7268 471.303 41.4849 469.529 44.089C469.349 44.3537 469.239 44.6402 469.196 44.9302C469.151 45.2306 469.177 45.5318 469.266 45.8154C469.355 46.1005 469.512 46.3723 469.729 46.6118C469.936 46.8429 470.199 47.0425 470.512 47.1952C472.959 48.4769 475.614 49.6928 478.118 50.9178C478.158 50.9374 478.187 50.9675 478.204 51.0018C478.221 51.0375 478.226 51.0782 478.216 51.1153L478.041 51.7169L478.051 51.7197C477.975 52.0118 477.904 52.3087 477.839 52.6106C477.727 53.1268 477.635 53.6339 477.564 54.1319C477.493 54.6256 477.439 55.1355 477.401 55.6601C477.364 56.1861 477.345 56.7016 477.345 57.2038C477.345 57.7052 477.364 58.22 477.401 58.7453C477.439 59.2699 477.493 59.7805 477.564 60.275C477.635 60.7723 477.727 61.28 477.839 61.7948C477.95 62.3075 478.077 62.8069 478.218 63.2908C478.23 63.3308 478.225 63.3728 478.203 63.4085C478.182 63.447 478.149 63.4786 478.11 63.4947C475.314 64.7603 472.478 66.2486 469.714 67.6017L469.812 67.7061L469.727 67.7958C469.511 68.0353 469.355 68.307 469.265 68.5921C469.176 68.8758 469.15 69.1769 469.195 69.4774C469.239 69.7674 469.349 70.0538 469.53 70.3179L475.32 78.8185L475.428 78.7638C475.485 78.8087 475.545 78.8507 475.606 78.8906C475.889 79.0734 476.21 79.2058 476.546 79.2821C476.88 79.3578 477.236 79.3795 477.589 79.341C477.921 79.3052 478.25 79.2156 478.554 79.0713C481.087 77.9318 483.696 76.5555 486.197 75.3312C486.234 75.3144 486.279 75.3081 486.324 75.3123C486.371 75.3172 486.415 75.3347 486.448 75.3614C487.321 76.0744 488.243 76.7418 489.207 77.3575C490.168 77.971 491.179 78.5397 492.232 79.0552C493.272 79.5651 494.353 80.0231 495.468 80.4245C496.576 80.823 497.714 81.1669 498.876 81.4491C498.923 81.4603 498.961 81.4835 498.987 81.5129C499.016 81.5458 499.034 81.585 499.031 81.6221V89.0666C499.031 89.3705 499.104 89.664 499.236 89.9329C499.373 90.2124 499.573 90.4631 499.822 90.6712C500.068 90.8799 500.362 91.0487 500.689 91.1642C501.007 91.2763 501.352 91.3379 501.711 91.3379H512.488C512.847 91.3379 513.194 91.2763 513.51 91.1642C513.837 91.0487 514.131 90.8799 514.381 90.6712C514.626 90.4631 514.826 90.2131 514.963 89.9329C515.095 89.664 515.168 89.3705 515.168 89.0666V81.6221C515.168 81.5773 515.183 81.5381 515.211 81.5101C515.238 81.4807 515.281 81.4575 515.33 81.4477L515.364 81.4372C516.534 81.1515 517.665 80.8104 518.751 80.4182C519.859 80.0182 520.934 79.563 521.967 79.0566C523.021 78.5404 524.032 77.9724 524.993 77.3582C525.958 76.7418 526.881 76.073 527.755 75.3593C527.791 75.3291 527.836 75.3123 527.879 75.3095C527.926 75.306 527.975 75.3158 528.016 75.3389L535.622 79.0608C535.934 79.2135 536.271 79.3066 536.609 79.3431C536.963 79.3816 537.318 79.3592 537.653 79.2835C537.989 79.2072 538.31 79.0748 538.593 78.892C538.858 78.7204 539.091 78.5033 539.268 78.247C541.267 75.5231 543.155 72.5402 545.062 69.7435L544.958 69.6917C544.978 69.6203 544.993 69.5488 545.004 69.4767C545.048 69.1769 545.024 68.8772 544.934 68.5935C544.845 68.3084 544.689 68.036 544.472 67.7972C544.264 67.5653 544.001 67.3657 543.69 67.213L536.082 63.4905C536.043 63.4716 536.014 63.4414 535.996 63.4064C535.977 63.37 535.973 63.3287 535.984 63.2901L536.181 62.6087L536.17 62.6073C536.238 62.3418 536.302 62.0715 536.362 61.7983C536.473 61.2828 536.566 60.7751 536.637 60.2764C536.708 59.7819 536.762 59.272 536.799 58.7467C536.837 58.2214 536.856 57.7066 536.856 57.2052C536.856 56.7037 536.837 56.1889 536.799 55.6629C536.762 55.1383 536.708 54.627 536.637 54.1305C536.566 53.6374 536.475 53.1303 536.362 52.6099C536.251 52.0993 536.124 51.6007 535.982 51.1181C535.971 51.0789 535.977 51.0375 535.997 50.9983C536.016 50.9626 536.051 50.9325 536.094 50.9143L543.691 47.1959C544.006 47.0418 544.268 46.8429 544.472 46.6118C544.688 46.3702 544.844 46.0991 544.934 45.8168C545.023 45.5339 545.048 45.2334 545.003 44.9337C544.961 44.6521 544.854 44.3726 544.682 44.1121C542.872 41.2685 540.795 38.4025 538.88 35.5905L538.771 35.6458C538.714 35.601 538.654 35.5582 538.593 35.5183C538.309 35.3355 537.989 35.2031 537.652 35.1268C537.318 35.0512 536.963 35.0295 536.609 35.068C536.267 35.1044 535.93 35.1968 535.622 35.3467L535.058 35.6206L535.061 35.6255L528.005 39.077C527.962 39.098 527.915 39.1043 527.87 39.0994C527.824 39.0945 527.781 39.0763 527.749 39.049L527.73 39.0329C526.866 38.3283 525.946 37.6636 524.975 37.0445C524.01 36.4288 523.004 35.8636 521.965 35.3537C520.925 34.8438 519.844 34.3858 518.73 33.9845C517.623 33.586 516.484 33.2428 515.321 32.9598C515.275 32.9486 515.237 32.9255 515.211 32.8961C515.182 32.8632 515.164 32.8239 515.167 32.7868V25.3417C515.167 25.0377 515.094 24.7435 514.962 24.4753C514.825 24.1958 514.625 23.9451 514.377 23.7378C514.13 23.5291 513.836 23.3596 513.509 23.244C513.192 23.1319 512.846 23.0703 512.487 23.0703H501.711C501.351 23.0703 501.005 23.1319 500.688 23.244C500.361 23.3589 500.067 23.5284 499.818 23.7378C499.332 24.1489 499.03 24.7169 499.03 25.3417V32.7861C499.03 32.8295 499.013 32.8688 498.986 32.9003C498.959 32.929 498.917 32.9514 498.868 32.9612L498.833 32.9717C497.665 33.2575 496.534 33.5993 495.448 33.9908Z" fill="#DCD7EB"/>
<path fill-rule="evenodd" clip-rule="evenodd" d="M528.222 124.511C528.222 124.014 528.698 123.61 529.285 123.61C529.873 123.61 530.349 124.014 530.349 124.511V128.567C530.349 129.064 529.873 129.468 529.285 129.468C528.698 129.468 528.222 129.064 528.222 128.567V124.511ZM520.972 127.804C520.557 127.452 520.557 126.881 520.972 126.529C521.387 126.177 522.061 126.177 522.476 126.529L525.859 129.397C526.275 129.749 526.275 130.32 525.859 130.672C525.444 131.023 524.771 131.023 524.355 130.672L520.972 127.804ZM518.593 134.476C518.005 134.476 517.529 134.072 517.529 133.575C517.529 133.078 518.005 132.674 518.593 132.674H523.377C523.964 132.674 524.44 133.078 524.44 133.575C524.44 134.072 523.964 134.476 523.377 134.476H518.593ZM522.477 140.621C522.061 140.973 521.388 140.973 520.972 140.621C520.558 140.269 520.558 139.698 520.972 139.346L524.356 136.478C524.772 136.127 525.444 136.127 525.86 136.478C526.276 136.83 526.276 137.401 525.86 137.753L522.477 140.621ZM530.349 142.638C530.349 143.136 529.873 143.539 529.285 143.539C528.698 143.539 528.222 143.136 528.222 142.638V138.583C528.222 138.085 528.698 137.681 529.285 137.681C529.873 137.681 530.349 138.085 530.349 138.583V142.638ZM537.598 139.346C538.013 139.698 538.013 140.269 537.598 140.621C537.183 140.973 536.509 140.973 536.094 140.621L532.711 137.753C532.296 137.401 532.296 136.83 532.711 136.478C533.126 136.127 533.8 136.127 534.215 136.478L537.598 139.346ZM539.977 132.674C540.565 132.674 541.041 133.078 541.041 133.575C541.041 134.072 540.565 134.476 539.977 134.476H535.193C534.606 134.476 534.13 134.072 534.13 133.575C534.13 133.078 534.606 132.674 535.193 132.674H539.977ZM536.094 126.528C536.509 126.177 537.183 126.177 537.598 126.528C538.013 126.881 538.013 127.451 537.598 127.803L534.215 130.671C533.8 131.023 533.126 131.023 532.711 130.671C532.296 130.319 532.296 129.748 532.711 129.396L536.094 126.528Z" fill="#DCD7EB"/>
<path fill-rule="evenodd" clip-rule="evenodd" d="M85.1991 32.0298C85.1991 31.5318 85.6751 31.1284 86.2626 31.1284C86.8492 31.1284 87.326 31.5318 87.326 32.0298V36.0851C87.326 36.5824 86.8492 36.9865 86.2626 36.9865C85.6751 36.9865 85.1991 36.5824 85.1991 36.0851V32.0298ZM77.9491 35.3223C77.5335 34.9708 77.5335 34.3992 77.9491 34.0476C78.3639 33.696 79.0382 33.696 79.453 34.0476L82.8359 36.915C83.2515 37.2666 83.2515 37.8381 82.8359 38.1897C82.4211 38.5413 81.7476 38.5413 81.332 38.1897L77.9491 35.3223ZM75.5694 41.995C74.9819 41.995 74.5059 41.5908 74.5059 41.0936C74.5059 40.5956 74.9827 40.1922 75.5694 40.1922H80.3537C80.9403 40.1922 81.4171 40.5963 81.4171 41.0936C81.4171 41.5908 80.9403 41.995 80.3537 41.995H75.5694ZM79.4538 48.1395C79.039 48.4911 78.3648 48.4911 77.95 48.1395C77.5343 47.7879 77.5343 47.2164 77.95 46.8641L81.3328 43.9967C81.7485 43.6451 82.4219 43.6451 82.8367 43.9967C83.2523 44.3483 83.2523 44.9198 82.8367 45.2714L79.4538 48.1395ZM87.326 50.1566C87.326 50.6546 86.8492 51.058 86.2626 51.058C85.6751 51.058 85.1991 50.6539 85.1991 50.1566V46.1013C85.1991 45.6034 85.6751 45.1999 86.2626 45.1999C86.8492 45.1999 87.326 45.6041 87.326 46.1013V50.1566ZM94.5752 46.8641C94.99 47.2157 94.99 47.7872 94.5752 48.1395C94.1595 48.4911 93.4861 48.4911 93.0713 48.1395L89.6884 45.2721C89.2736 44.9198 89.2736 44.349 89.6884 43.9974C90.1032 43.6458 90.7775 43.6458 91.1923 43.9974L94.5752 46.8641ZM96.9549 40.1915C97.5416 40.1915 98.0184 40.5956 98.0184 41.0929C98.0184 41.5901 97.5424 41.9943 96.9549 41.9943H92.1706C91.5831 41.9943 91.1072 41.5901 91.1072 41.0929C91.1072 40.5949 91.5839 40.1915 92.1706 40.1915H96.9549ZM93.0713 34.0469C93.4869 33.6953 94.1595 33.6953 94.5752 34.0469C94.99 34.3985 94.99 34.9701 94.5752 35.3216L91.1923 38.189C90.7775 38.5406 90.1032 38.5406 89.6884 38.189C89.2736 37.8374 89.2736 37.2659 89.6884 36.9143L93.0713 34.0469Z" fill="#DCD7EB"/>
<path fill-rule="evenodd" clip-rule="evenodd" d="M177.576 146.82C177.576 146.322 178.052 145.918 178.639 145.918C179.226 145.918 179.702 146.322 179.702 146.82V150.874C179.702 151.372 179.226 151.776 178.639 151.776C178.052 151.776 177.576 151.372 177.576 150.874V146.82ZM170.326 150.112C169.91 149.759 169.91 149.189 170.326 148.837C170.74 148.485 171.415 148.485 171.829 148.837L175.212 151.704C175.627 152.056 175.627 152.627 175.212 152.979C174.797 153.331 174.123 153.331 173.708 152.979L170.326 150.112ZM167.947 156.784C167.359 156.784 166.882 156.381 166.882 155.884C166.882 155.386 167.359 154.981 167.947 154.981H172.73C173.318 154.981 173.794 155.386 173.794 155.884C173.794 156.381 173.317 156.784 172.73 156.784H167.947ZM171.83 162.929C171.415 163.281 170.741 163.281 170.326 162.929C169.911 162.577 169.911 162.006 170.326 161.654L173.709 158.787C174.124 158.434 174.797 158.434 175.213 158.787C175.628 159.139 175.628 159.71 175.213 160.061L171.83 162.929ZM179.702 164.946C179.702 165.444 179.226 165.847 178.638 165.847C178.051 165.847 177.575 165.444 177.575 164.946V160.891C177.575 160.393 178.051 159.99 178.638 159.99C179.226 159.99 179.702 160.393 179.702 160.891V164.946ZM186.952 161.654C187.366 162.006 187.366 162.577 186.952 162.929C186.536 163.281 185.863 163.281 185.448 162.929L182.065 160.061C181.65 159.71 181.65 159.139 182.065 158.787C182.48 158.434 183.154 158.434 183.569 158.787L186.952 161.654ZM189.33 154.981C189.918 154.981 190.395 155.385 190.395 155.883C190.395 156.38 189.919 156.784 189.33 156.784H184.547C183.96 156.784 183.484 156.38 183.484 155.883C183.484 155.385 183.96 154.981 184.547 154.981H189.33ZM185.448 148.837C185.863 148.485 186.537 148.485 186.952 148.837C187.366 149.189 187.366 149.759 186.952 150.112L183.569 152.979C183.154 153.331 182.48 153.331 182.065 152.979C181.65 152.627 181.65 152.056 182.065 151.704L185.448 148.837Z" fill="#DCD7EB"/>
<path fill-rule="evenodd" clip-rule="evenodd" d="M484.185 181.006C485.789 181.006 487.325 181.251 488.745 181.698C489.387 181.098 490.313 180.722 491.344 180.722C491.824 180.722 492.282 180.804 492.698 180.952C492.928 178.391 495.452 176.373 498.533 176.373C499.87 176.373 501.103 176.754 502.088 177.394C502.719 176.658 503.742 176.18 504.897 176.18C505.089 176.18 505.279 176.194 505.464 176.22C505.074 175.447 504.858 174.597 504.858 173.702C504.858 170.167 508.239 167.301 512.41 167.301C513.186 167.301 513.937 167.401 514.641 167.585C515.188 166.596 516.374 165.91 517.749 165.91L517.848 165.912C517.833 165.681 517.823 165.449 517.823 165.215C517.823 158.862 523.899 153.711 531.395 153.711C538.891 153.711 544.967 158.862 544.967 165.215C544.967 165.304 544.966 165.392 544.963 165.481C545.619 165.34 546.304 165.265 547.012 165.265C548.416 165.265 549.739 165.56 550.899 166.081C552.877 163.792 556.07 162.307 559.673 162.307C565.677 162.307 570.544 166.433 570.544 171.522C570.544 172.523 570.355 173.486 570.008 174.388C570.116 174.382 570.226 174.379 570.336 174.379C573.293 174.379 575.689 176.41 575.689 178.917C575.689 179.211 575.655 179.499 575.593 179.777C575.63 179.776 575.668 179.775 575.705 179.775C577.375 179.775 578.737 180.899 578.791 182.304C579.255 182.229 579.733 182.19 580.223 182.19C582.154 182.19 583.959 182.76 585.26 183.802C588.738 186.589 584.941 187.314 581.283 187.314H576.512H572.766H496.003H490.011H480.164C476.351 187.314 470.902 187.844 474.686 184.464C477.071 182.334 480.445 181.006 484.185 181.006Z" fill="#DCD7EB"/>
<path fill-rule="evenodd" clip-rule="evenodd" d="M89.4827 82.2263C91.0824 82.2263 92.6127 82.47 94.0281 82.9162C94.6685 82.318 95.5915 81.9433 96.6194 81.9433C97.0987 81.9433 97.554 82.0246 97.9696 82.1724C98.1985 79.6194 100.715 77.6079 103.786 77.6079C105.12 77.6079 106.348 77.9875 107.331 78.6256C107.96 77.8923 108.979 77.416 110.131 77.416C110.324 77.416 110.512 77.4293 110.695 77.4552C110.306 76.6848 110.091 75.8366 110.091 74.9458C110.091 71.4214 113.462 68.5645 117.62 68.5645C118.395 68.5645 119.141 68.664 119.845 68.8482C120.39 67.8613 121.571 67.1784 122.942 67.1784L123.042 67.1798C123.026 66.9501 123.016 66.7183 123.016 66.4851C123.016 60.1514 129.074 55.0176 136.546 55.0176C144.019 55.0176 150.076 60.1514 150.076 66.4851C150.076 66.574 150.074 66.6622 150.072 66.7498C150.725 66.6097 151.41 66.5348 152.114 66.5348C153.514 66.5348 154.832 66.8289 155.989 67.3479C157.962 65.0675 161.144 63.5861 164.736 63.5861C170.722 63.5861 175.573 67.6988 175.573 72.7724C175.573 73.7698 175.385 74.73 175.039 75.6293C175.146 75.6237 175.256 75.6209 175.366 75.6209C178.313 75.6209 180.703 77.6457 180.703 80.1447C180.703 80.4382 180.67 80.7254 180.606 81.0034C180.644 81.002 180.681 81.0013 180.719 81.0013C182.385 81.0013 183.741 82.1226 183.795 83.5227C184.258 83.4485 184.735 83.4086 185.222 83.4086C187.147 83.4086 188.947 83.9766 190.244 85.0152C193.71 87.7944 189.925 88.5172 186.278 88.5172H181.521H177.788H101.262H95.2891H85.4759C81.6741 88.5172 76.2428 89.0453 80.0165 85.675C82.3913 83.5514 85.7552 82.2263 89.4827 82.2263Z" fill="#DCD7EB"/>
<path fill-rule="evenodd" clip-rule="evenodd" d="M213.806 233.524H216.578C217.084 233.524 217.501 233.875 217.501 234.306V236.655C217.501 237.085 217.085 237.438 216.578 237.438H213.806C213.297 237.438 212.883 237.085 212.883 236.655V234.306C212.883 233.875 213.298 233.524 213.806 233.524Z" fill="#DCD7EB"/>
<path fill-rule="evenodd" clip-rule="evenodd" d="M223.273 233.524H226.046C226.553 233.524 226.969 233.875 226.969 234.306V236.655C226.969 237.085 226.554 237.438 226.046 237.438H223.273C222.765 237.438 222.35 237.085 222.35 236.655V234.306C222.351 233.875 222.766 233.524 223.273 233.524Z" fill="#DCD7EB"/>
<path fill-rule="evenodd" clip-rule="evenodd" d="M232.742 233.524H235.513C236.021 233.524 236.437 233.875 236.437 234.306V236.655C236.437 237.085 236.021 237.438 235.513 237.438H232.742C232.234 237.438 231.818 237.085 231.818 236.655V234.306C231.818 233.875 232.234 233.524 232.742 233.524Z" fill="#DCD7EB"/>
<path fill-rule="evenodd" clip-rule="evenodd" d="M242.209 233.524H244.981C245.489 233.524 245.904 233.875 245.904 234.306V236.655C245.904 237.085 245.489 237.438 244.981 237.438H242.209C241.701 237.438 241.285 237.085 241.285 236.655V234.306C241.286 233.875 241.702 233.524 242.209 233.524Z" fill="#DCD7EB"/>
<path fill-rule="evenodd" clip-rule="evenodd" d="M222.343 68.7366C222.576 68.7366 222.808 68.7303 223.037 68.7198H234.737V58.2321V57.1514C234.737 53.4457 232.442 50.1721 228.998 48.3006H228.999L228.99 48.2964C228.863 48.2271 228.735 48.1612 228.605 48.0961C224.512 45.9102 224.51 43.8581 228.603 41.6728C228.734 41.6077 228.863 41.5405 228.991 41.4711L229 41.4669H228.999C232.443 39.5962 234.737 36.3226 234.737 32.6168V31.5354V21.0471H223.038C222.808 21.0366 222.576 21.0303 222.344 21.0303C222.111 21.0303 221.88 21.0366 221.65 21.0471H209.951V31.5354V32.6168C209.951 36.3226 212.245 39.5962 215.689 41.4669L215.697 41.4711C215.824 41.5405 215.954 41.607 216.084 41.6728C220.177 43.8581 220.175 45.9109 216.081 48.0968C215.951 48.1612 215.824 48.2278 215.697 48.2964L215.689 48.3006C212.245 50.1721 209.95 53.4457 209.95 57.1514V58.2321V68.7198H221.649C221.879 68.7303 222.11 68.7366 222.343 68.7366Z" fill="#7A72B3"/>
<path fill-rule="evenodd" clip-rule="evenodd" d="M217.28 64.4464H220.685C222.875 64.4464 222.965 62.7676 224.495 62.7676C226.027 62.7676 229.508 62.7676 231.368 62.7676C233.229 62.7676 233.584 64.2426 233.584 64.2426V66.2667H223.006L222.973 66.2681C222.763 66.2779 222.553 66.2835 222.343 66.2835C222.132 66.2835 221.922 66.2779 221.713 66.2681L221.681 66.2667H217.279L217.28 64.4464Z" fill="#F6D6E0"/>
<path fill-rule="evenodd" clip-rule="evenodd" d="M212.763 35.1417C211.695 33.6709 211.102 31.9598 211.102 30.1738C211.102 21.6872 217.883 30.7621 224.78 31.2244C226.15 31.3162 227.325 31.1887 228.327 30.9274C228.586 31.5368 228.759 31.9885 228.759 32.1146C228.759 32.6231 222.877 36.3884 221.856 36.5915C220.836 36.7953 215.614 37.0495 213.454 35.6249C213.231 35.4779 213 35.3154 212.763 35.1417Z" fill="#F6D6E0"/>
<path fill-rule="evenodd" clip-rule="evenodd" d="M224.381 45.0794C224.26 43.6394 225.461 42.1945 227.987 40.8455L228.002 40.8378L228.016 40.8301C228.135 40.7706 228.253 40.7103 228.368 40.6473L228.38 40.641L228.387 40.6368C231.607 38.883 233.583 35.8721 233.583 32.6152C233.583 24.1286 226.802 33.2036 219.905 33.6651C213.063 34.1225 211.102 29.1371 211.102 29.1371V32.6152C211.102 35.8763 213.083 38.89 216.301 40.6382L216.309 40.6424C216.428 40.7054 216.547 40.7685 216.669 40.8294L216.683 40.8364L216.698 40.8441C219.224 42.1931 220.426 43.6387 220.305 45.078H220.314V50.8947C220.314 51.8416 221.228 52.6163 222.345 52.6163C223.462 52.6163 224.376 51.8416 224.376 50.8947V45.0794H224.381ZM222.345 58.863C223.462 58.863 224.376 58.0884 224.376 57.1415V55.8528C224.376 54.9058 223.462 54.1312 222.345 54.1312C221.228 54.1312 220.314 54.9058 220.314 55.8528V57.1415C220.314 58.0884 221.228 58.863 222.345 58.863Z" fill="white"/>
<path fill-rule="evenodd" clip-rule="evenodd" d="M233.583 67.7425V64.2427C233.583 65.2092 232.736 65.9215 231.475 65.9215C230.215 65.9215 226.193 65.9215 224.002 65.9215C221.812 65.9215 221.721 64.2427 220.19 64.2427C218.659 64.2427 215.179 64.2427 213.318 64.2427C211.457 64.2427 211.102 65.7177 211.102 65.7177V67.7418H221.681L221.712 67.7432C221.922 67.753 222.132 67.7586 222.343 67.7586C222.554 67.7586 222.763 67.753 222.973 67.7432L223.005 67.7418H233.583V67.7425Z" fill="white"/>
<path fill-rule="evenodd" clip-rule="evenodd" d="M210.31 19.8779H234.375C235.23 19.8779 235.928 20.4705 235.928 21.194C235.928 21.9175 235.229 22.51 234.375 22.51H210.31C209.457 22.51 208.758 21.9175 208.758 21.194C208.758 20.4705 209.457 19.8779 210.31 19.8779Z" fill="#382982"/>
<path fill-rule="evenodd" clip-rule="evenodd" d="M210.31 69.8879H234.375C235.23 69.8879 235.928 69.2961 235.928 68.5719C235.928 67.8477 235.229 67.2559 234.375 67.2559H210.31C209.457 67.2559 208.758 67.8477 208.758 68.5719C208.758 69.2954 209.457 69.8879 210.31 69.8879Z" fill="#382982"/>
<path fill-rule="evenodd" clip-rule="evenodd" d="M227.421 19.8779H234.376C235.23 19.8779 235.928 20.4705 235.928 21.194C235.928 21.9175 235.229 22.51 234.376 22.51H227.421C226.567 22.51 225.868 21.9175 225.868 21.194C225.867 20.4705 226.566 19.8779 227.421 19.8779Z" fill="#0C1332"/>
<path fill-rule="evenodd" clip-rule="evenodd" d="M227.421 69.8879H234.376C235.23 69.8879 235.928 69.2961 235.928 68.5719C235.928 67.8477 235.229 67.2559 234.376 67.2559H227.421C226.567 67.2559 225.868 67.8477 225.868 68.5719C225.867 69.2954 226.566 69.8879 227.421 69.8879Z" fill="#0C1332"/>
<path fill-rule="evenodd" clip-rule="evenodd" d="M282.74 67.7901C282.74 67.7901 284.139 65.8563 286.754 65.5307C289.369 65.205 299.058 65.2694 301.865 66.769C304.671 68.2678 303.133 71.201 303.133 71.201L282.74 67.7901Z" fill="#4A3B93"/>
<path fill-rule="evenodd" clip-rule="evenodd" d="M235.252 78.7722C235.252 78.7722 233.015 75.142 232.824 74.1671C232.632 73.1922 232.504 69.6713 231.993 68.8582C231.482 68.0457 228.062 64.2811 227.711 63.7117C227.359 63.143 225.633 64.9311 226.624 66.8536C227.615 68.7769 228.158 69.0206 228.158 69.0206L228.126 69.887H218.507C218.507 69.887 219.467 72.5149 223.556 74.3296C227.646 76.1443 230.426 83.6476 230.426 83.6476L236.307 80.6415L235.252 78.7722Z" fill="#F2B9C7"/>
<path fill-rule="evenodd" clip-rule="evenodd" d="M280.976 68.144C280.976 68.144 270.995 70.3468 266.101 73.2709C261.206 76.195 248.671 89.9871 247.319 90.9788C247.319 90.9788 235.527 76.0045 234.837 75.0079C233.84 73.5672 226.232 77.123 226.198 77.2379C225.827 78.4447 227.901 80.5255 229.211 83.2577C231.125 87.2528 237.504 97.5464 239.394 100.168C241.283 102.789 245.63 105.5 252.46 102.156C259.29 98.8127 268.874 90.3863 268.874 90.3863L280.976 68.144Z" fill="#242B5C"/>
<path fill-rule="evenodd" clip-rule="evenodd" d="M298.801 53.5615L298.61 57.3779C298.61 57.3779 298.61 65.5018 298.61 66.3821C298.61 67.2632 299.486 68.6535 301.047 68.6745C304.993 72.8867 300.637 77.0806 297.712 77.4637C294.785 77.8468 280.66 74.9619 279.714 74.2741C279.053 73.793 283.283 69.4492 282.895 68.0554C283.201 67.9839 282.852 68.0589 283.161 67.9734C283.964 67.7493 284.723 67.4278 285.215 66.9726C286.755 65.548 286.685 59.1962 285.144 57.5348C283.602 55.8728 298.801 53.5615 298.801 53.5615Z" fill="#ED859C"/>
<path fill-rule="evenodd" clip-rule="evenodd" d="M280.976 68.1437C281.912 67.9441 283.746 67.5169 284.526 67.4482C285.616 72.2823 291.532 77.1234 300.256 68.2075C305.216 68.931 320.439 72.5926 321.335 77.3363C321.335 92.7309 314.715 103.059 314.715 121.709C314.715 130.237 318.447 143.623 318.344 155.419C309.723 154.529 271.79 148.686 265.504 155.16C265.028 154.792 264.252 153.194 264.911 150.758C268.705 136.712 266.845 118.66 266.696 102.924L266.557 103.301C266.569 100.757 266.645 98.3711 266.767 96.1397C266.894 92.4668 267.19 88.9894 267.765 85.8047C269.066 76.6815 270.948 72.1296 270.95 72.1254C274.602 70.3752 279.354 68.7096 279.354 68.7096L279.346 68.7307C279.871 68.5163 280.408 68.316 280.976 68.1437Z" fill="#242B5C"/>
<path fill-rule="evenodd" clip-rule="evenodd" d="M315.412 72.4805C314.637 73.3588 314.133 74.2405 314.133 74.2405C311.929 90.1163 308.623 99.1044 289.344 99.1044C278.16 99.1044 270.829 99.1044 266.638 99.1044C266.594 100.454 266.564 101.848 266.557 103.3L266.696 102.923C266.724 105.864 266.812 108.886 266.911 111.947C284.273 116.87 301.402 121.308 314.735 122.463C314.728 122.212 314.716 121.951 314.716 121.707C314.716 103.058 321.335 92.7301 321.335 77.3349C320.993 75.5244 318.561 73.8728 315.412 72.4805Z" fill="#18214C"/>
<path fill-rule="evenodd" clip-rule="evenodd" d="M282.721 67.7949C283.425 67.6338 284.119 67.4875 284.526 67.4482C285.283 72.0792 291.47 76.2241 300.257 68.2075C301.231 68.3622 302.321 68.4477 303.496 68.8091C296.577 78.6187 282.013 79.4067 282.682 67.9721C282.682 67.9553 282.698 67.886 282.721 67.7949Z" fill="#4A3B93"/>
<path fill-rule="evenodd" clip-rule="evenodd" d="M292.212 74.6451C292.326 74.5057 292.552 74.4707 292.716 74.5673C292.88 74.664 292.921 74.8552 292.807 74.9939C289.648 78.8824 291.362 81.3401 293.194 83.9687C294.635 86.0348 296.145 88.2018 295.637 91.2226C295.609 91.39 295.425 91.5069 295.227 91.4831C295.029 91.4593 294.891 91.3038 294.919 91.1357C295.392 88.3293 293.947 86.2568 292.57 84.2817C290.616 81.4788 288.79 78.8579 292.212 74.6451Z" fill="white"/>
<path fill-rule="evenodd" clip-rule="evenodd" d="M287.688 74.6604C287.685 74.4909 287.845 74.3522 288.045 74.3501C288.245 74.348 288.409 74.4839 288.411 74.6534C288.411 74.6856 288.73 86.0998 279.873 85.5879C279.674 85.5767 279.523 85.4296 279.536 85.2608C279.549 85.0913 279.722 84.9638 279.922 84.9743C287.984 85.4394 287.688 74.6905 287.688 74.6604Z" fill="white"/>
<path fill-rule="evenodd" clip-rule="evenodd" d="M261.143 250.318L268.546 250.757C269.74 250.828 270.648 251.713 270.564 252.724L269.554 264.963C269.471 265.974 268.427 266.745 267.233 266.673L259.829 266.235C258.636 266.164 257.728 265.279 257.81 264.267L258.82 252.028C258.905 251.018 259.949 250.248 261.143 250.318Z" fill="#EA8CAD"/>
<path fill-rule="evenodd" clip-rule="evenodd" d="M261.129 171.48L257.101 254.515H271.525L286.876 169.613L261.129 171.48Z" fill="#1A274C"/>
<path fill-rule="evenodd" clip-rule="evenodd" d="M259.497 205.145L258.78 219.915H265.586C270.634 219.915 273.462 221.903 272.908 224.974C272.356 228.045 268.983 246.782 268.983 246.782C268.983 246.782 268.773 249.893 257.321 249.985L257.101 254.515H271.524L279.957 207.877C272.766 206.866 265.283 205.886 259.497 205.145Z" fill="#0C1332"/>
<path fill-rule="evenodd" clip-rule="evenodd" d="M267.591 254.515H268.185L275.42 214.325C275.444 214.189 275.334 214.061 275.173 214.042C275.013 214.022 274.863 214.115 274.839 214.251L267.591 254.515Z" fill="#0C1332"/>
<path fill-rule="evenodd" clip-rule="evenodd" d="M291.006 174.164L324.539 257.064L338.439 251.714L318.612 172.647L291.006 174.164Z" fill="#1A274C"/>
<path fill-rule="evenodd" clip-rule="evenodd" d="M299.899 196.15L324.538 257.065L338.438 251.715L337.322 247.264C334.264 248.101 329.749 249.267 328.033 249.342C325.336 249.46 324.369 248.58 324.092 247.935C323.815 247.291 317.245 229.823 315.931 225.484C314.617 221.147 318.076 219.74 322.155 219.74H330.42L325.466 199.985C317.6 197.875 306.879 196.198 299.899 196.15Z" fill="#0C1332"/>
<path fill-rule="evenodd" clip-rule="evenodd" d="M336.064 252.628L336.609 252.418L326.177 213.646C326.141 213.512 325.984 213.429 325.826 213.459C325.669 213.489 325.569 213.622 325.604 213.756L336.064 252.628Z" fill="#0C1332"/>
<path fill-rule="evenodd" clip-rule="evenodd" d="M257.065 252.859H272.627C273.422 252.859 274.071 253.41 274.071 254.083V258.258C274.071 258.931 273.422 259.482 272.627 259.482H257.065C256.271 259.482 255.621 258.931 255.621 258.258V254.083C255.621 253.41 256.272 252.859 257.065 252.859Z" fill="#4A3B93"/>
<path fill-rule="evenodd" clip-rule="evenodd" d="M257.496 275.689C257.496 275.689 236.083 276.171 235.256 274.667C235.256 274.667 235.258 273.464 235.258 272.662C235.259 271.859 236.238 270.708 238.901 269.958C241.563 269.209 247.244 267.759 248.989 267.234C250.734 266.709 255.739 261.35 256.449 260.698C257.16 260.047 260.47 262.156 261.179 262.507C261.889 262.859 261.415 263.711 261.058 264.713C260.702 265.715 257.496 275.689 257.496 275.689Z" fill="#382982"/>
<path fill-rule="evenodd" clip-rule="evenodd" d="M235.253 277.725L269.502 277.755C269.908 277.755 270.24 277.475 270.241 277.13L270.244 275.322C270.244 274.978 269.912 274.696 269.507 274.696L235.256 274.666C234.851 274.666 234.518 274.946 234.518 275.291L234.516 277.098C234.516 277.443 234.846 277.725 235.253 277.725Z" fill="#4A3B93"/>
<path fill-rule="evenodd" clip-rule="evenodd" d="M235.253 277.725L246.892 277.736C247.298 277.736 247.63 277.455 247.631 277.11L247.634 275.303C247.634 274.959 247.302 274.677 246.896 274.677L235.257 274.666C234.851 274.666 234.519 274.947 234.518 275.291L234.517 277.098C234.515 277.443 234.846 277.725 235.253 277.725Z" fill="#4A3B93"/>
<path fill-rule="evenodd" clip-rule="evenodd" d="M250.408 267.887C250.526 268.238 251.588 269.993 250.849 270.419C250.109 270.844 247.741 272.371 246.41 272.37C245.079 272.368 242.27 272.366 238.751 272.363C235.232 272.36 236.045 271.321 236.045 271.321C235.494 271.793 235.26 272.269 235.259 272.661C235.258 273.464 235.257 274.666 235.257 274.666L269.506 274.697C269.506 274.697 270.957 273.269 270.961 269.91C270.965 266.55 271.159 264.621 270.583 264.081C270.007 263.541 269.607 263.817 269.607 263.817C266.943 265.771 263.722 264.364 262.037 263.586C261.857 263.503 261.686 263.419 261.524 263.336C260.158 262.643 259.321 262.024 258.104 262.604C256.743 263.256 251.948 266.134 251.179 266.585C250.409 267.036 250.29 267.536 250.408 267.887Z" fill="#1A274C"/>
<path fill-rule="evenodd" clip-rule="evenodd" d="M235.258 273.158L235.256 274.667L269.505 274.697C269.505 274.697 270.956 273.27 270.96 269.911C270.964 266.551 271.158 264.621 270.582 264.082C270.659 265.159 269.983 266.363 268.801 266.362C267.616 266.361 264.48 266.358 261.976 266.356C259.472 266.353 258.964 267.489 258.964 267.489C258.964 267.489 257.697 269.61 256.785 271.11C255.873 272.61 254.355 273.633 253.241 273.632C252.128 273.631 238.592 273.619 236.772 273.617C235.995 273.617 235.533 273.403 235.258 273.158Z" fill="#0C1332"/>
<path fill-rule="evenodd" clip-rule="evenodd" d="M334.967 251.316L327.796 252.935C326.64 253.196 325.945 254.211 326.254 255.191L329.979 267.046C330.287 268.026 331.483 268.614 332.64 268.353L339.812 266.735C340.969 266.474 341.662 265.459 341.354 264.479L337.629 252.623C337.321 251.644 336.123 251.055 334.967 251.316Z" fill="#EA8CAD"/>
<path fill-rule="evenodd" clip-rule="evenodd" d="M336.296 274.715H329.678C328.965 274.715 328.381 274.265 328.381 273.714V263.902C328.381 263.352 328.965 262.901 329.678 262.901H336.296C337.009 262.901 337.593 263.352 337.593 263.902V273.714C337.594 274.265 337.009 274.715 336.296 274.715Z" fill="#0C1332"/>
<path fill-rule="evenodd" clip-rule="evenodd" d="M331.261 262.762C331.261 262.762 330.625 261.258 330.514 260.996C330.403 260.736 330.058 259.766 331.765 259.766C333.472 259.766 334.793 259.766 335.905 259.766C337.016 259.766 338.782 260.067 339.471 261.694C340.159 263.321 341.391 266.23 341.812 267.224C342.233 268.219 348.258 270.68 349.154 271.425C350.049 272.171 350.343 273.016 350.287 273.191C350.233 273.364 338.24 274.409 336.57 273.813C334.9 273.215 333.057 267.573 333.057 267.573L331.261 262.762Z" fill="#382982"/>
<path fill-rule="evenodd" clip-rule="evenodd" d="M336.675 275.063L335.463 274.717C335.463 274.717 334.877 274.392 334.608 273.759C334.34 273.125 333.94 272.181 333.727 271.675C333.513 271.17 332.78 271.085 332.4 270.191C332.021 269.296 330.258 265.131 329.771 263.982C329.284 262.832 330.818 262.136 331.732 261.457C332.647 260.777 334.589 261.407 335.158 262.75C335.727 264.092 336.365 265.6 336.843 266.727C337.319 267.854 337.273 268.351 336.495 268.899C335.716 269.446 335.169 269.876 334.931 270.025C334.694 270.175 335.146 270.887 335.749 271.45C336.354 272.015 338.154 273.223 341.203 273.223C344.253 273.223 345.606 273.223 347.131 273.223C348.656 273.223 348.941 272.478 348.492 271.417C348.042 270.356 341.864 269.565 340.844 267.157C339.825 264.748 339.134 263.117 338.903 262.573C338.674 262.03 339.155 261.856 339.36 261.731C339.565 261.607 340.042 261.744 341.285 262.701C342.528 263.658 342.586 264.404 343.291 266.07C343.997 267.735 345.917 269.227 348.141 270.371C350.363 271.514 352.375 272.428 353.345 274.718C354.315 277.006 338.772 277.379 336.675 275.063Z" fill="#1A274C"/>
<path fill-rule="evenodd" clip-rule="evenodd" d="M332.098 269.479L329.771 263.981C329.284 262.831 330.818 262.135 331.732 261.456C331.801 261.405 331.876 261.361 331.956 261.324C331.93 261.344 331.366 261.789 331.788 262.786C332.22 263.806 332.662 264.847 333.166 266.039C333.64 267.16 333.741 268.206 332.098 269.479ZM340.398 262.069C340.639 262.221 340.931 262.427 341.285 262.7C342.528 263.657 342.586 264.402 343.291 266.068C343.653 266.92 344.331 267.727 345.207 268.465C345.207 268.465 342.59 266.609 342.092 265.923C341.801 265.521 341.007 263.596 340.398 262.069ZM350.28 271.504C351.599 272.281 352.702 273.195 353.345 274.716C354.198 276.73 342.274 277.261 337.965 275.782L341.344 276.242L339.179 274.967C339.179 274.967 339.266 273.84 340.312 273.84C341.36 273.84 347.766 273.84 348.905 273.84C350.044 273.84 351.103 273.451 350.28 271.504Z" fill="#0C1332"/>
<path fill-rule="evenodd" clip-rule="evenodd" d="M336.748 277.748H354.63C355.072 277.748 355.315 277.47 355.171 277.128L354.411 275.335C354.267 274.994 353.788 274.714 353.346 274.714H335.463C335.021 274.714 334.778 274.993 334.923 275.335L335.682 277.128C335.826 277.47 336.306 277.748 336.748 277.748Z" fill="#4A3B93"/>
<path fill-rule="evenodd" clip-rule="evenodd" d="M329.865 277.748H342.233C342.675 277.748 342.918 277.47 342.774 277.128L342.015 275.335C341.87 274.995 341.391 274.714 340.948 274.714H328.58C328.138 274.714 327.894 274.994 328.038 275.335L328.798 277.128C328.942 277.47 329.422 277.748 329.865 277.748Z" fill="#4A3B93"/>
<path fill-rule="evenodd" clip-rule="evenodd" d="M339.847 262.656C339.995 262.617 340.031 262.498 339.925 262.39C339.82 262.283 339.614 262.228 339.466 262.267L337.184 262.866L334.394 262.267C334.213 262.227 334.055 262.283 334.04 262.39C334.026 262.498 334.161 262.617 334.342 262.656L336.346 263.087L334.708 263.517C334.56 263.557 334.525 263.676 334.63 263.783C334.736 263.89 334.941 263.945 335.089 263.907L337.371 263.307L340.16 263.907C340.342 263.946 340.5 263.891 340.515 263.783C340.529 263.676 340.393 263.557 340.212 263.517L338.209 263.087L339.847 262.656ZM336.099 266.291C335.917 266.252 335.759 266.307 335.745 266.416C335.731 266.522 335.867 266.641 336.048 266.68L338.051 267.111L336.413 267.542C336.263 267.581 336.23 267.7 336.335 267.807C336.44 267.914 336.645 267.97 336.794 267.931L339.076 267.332L341.865 267.931C342.047 267.97 342.205 267.915 342.219 267.807C342.234 267.7 342.098 267.581 341.917 267.542L339.914 267.111L341.552 266.68C341.701 266.641 341.735 266.522 341.629 266.416C341.525 266.308 341.32 266.252 341.171 266.291L338.889 266.89L336.099 266.291ZM335.247 264.279C335.065 264.239 334.907 264.296 334.893 264.403C334.879 264.51 335.015 264.629 335.195 264.668L337.199 265.099L335.561 265.53C335.412 265.569 335.378 265.688 335.483 265.795C335.588 265.902 335.793 265.958 335.942 265.919L338.223 265.32L341.014 265.919C341.194 265.958 341.353 265.903 341.368 265.795C341.382 265.688 341.246 265.569 341.065 265.53L339.061 265.099L340.7 264.668C340.849 264.629 340.883 264.51 340.778 264.403C340.673 264.296 340.467 264.24 340.319 264.279L338.037 264.879L335.247 264.279Z" fill="white"/>
<path fill-rule="evenodd" clip-rule="evenodd" d="M323.37 253.381L338.394 249.942C339.16 249.767 339.957 250.155 340.164 250.805L341.449 254.836C341.656 255.486 341.197 256.161 340.432 256.336L325.408 259.775C324.64 259.95 323.844 259.562 323.638 258.913L322.353 254.882C322.144 254.231 322.602 253.557 323.37 253.381Z" fill="#4A3B93"/>
<path fill-rule="evenodd" clip-rule="evenodd" d="M215.634 217.591H350.483C354.483 217.591 357.756 214.817 357.756 211.427V108.975C357.756 105.585 354.483 102.81 350.483 102.81H215.634C211.633 102.81 208.36 105.585 208.36 108.975V211.427C208.36 214.817 211.633 217.591 215.634 217.591Z" fill="#7A72B3"/>
<path fill-rule="evenodd" clip-rule="evenodd" d="M218.94 110.505H345.311C348.326 110.505 350.793 112.596 350.793 115.153V139.898V186.484V196.592C350.793 203.173 344.44 208.558 336.676 208.558H322.97C315.205 208.558 307.293 203.039 308.852 196.592L310.172 191.132H218.94C215.925 191.132 213.458 189.041 213.458 186.484V115.153C213.458 112.597 215.925 110.505 218.94 110.505Z" fill="white"/>
<path fill-rule="evenodd" clip-rule="evenodd" d="M218.94 112.811C217.426 112.811 216.177 113.869 216.177 115.153V121.051V124.071V129.969C216.177 131.253 217.426 132.311 218.94 132.311H345.311C346.825 132.311 348.075 131.253 348.075 129.969V124.071V121.051V115.153C348.075 113.869 346.825 112.811 345.311 112.811H218.94Z" fill="#E76B9B"/>
<path fill-rule="evenodd" clip-rule="evenodd" d="M230.454 184.595V184.742H318.442C320.801 185.26 322.557 187.087 322.557 189.242V196.591C322.557 203.173 328.91 208.558 336.674 208.558H334.104H322.557H320.603H216.336C208.572 208.558 202.219 203.173 202.219 196.591V189.242C202.219 186.687 204.686 184.595 207.702 184.595H230.454Z" fill="#DCD7EB"/>
<path fill-rule="evenodd" clip-rule="evenodd" d="M219.9 135.574H234.096C236.144 135.574 237.82 136.993 237.82 138.73V150.762C237.82 152.499 236.144 153.918 234.096 153.918H219.9C217.853 153.918 216.177 152.499 216.177 150.762V138.73C216.177 136.994 217.853 135.574 219.9 135.574Z" fill="#EA8CAD"/>
<path fill-rule="evenodd" clip-rule="evenodd" d="M247.464 135.574H261.66C263.708 135.574 265.382 136.993 265.382 138.73V150.762C265.382 152.499 263.708 153.918 261.66 153.918H247.464C245.416 153.918 243.741 152.499 243.741 150.762V138.73C243.741 136.994 245.416 135.574 247.464 135.574Z" fill="#DCE7F5"/>
<path fill-rule="evenodd" clip-rule="evenodd" d="M275.027 135.574H289.223C291.27 135.574 292.946 136.993 292.946 138.73V150.762C292.946 152.499 291.27 153.918 289.223 153.918H275.027C272.979 153.918 271.304 152.499 271.304 150.762V138.73C271.304 136.994 272.979 135.574 275.027 135.574Z" fill="#DCE7F5"/>
<path fill-rule="evenodd" clip-rule="evenodd" d="M302.591 135.574H316.787C318.834 135.574 320.51 136.993 320.51 138.73V150.762C320.51 152.499 318.835 153.918 316.787 153.918H302.591C300.543 153.918 298.868 152.499 298.868 150.762V138.73C298.868 136.994 300.543 135.574 302.591 135.574Z" fill="#DCE7F5"/>
<path fill-rule="evenodd" clip-rule="evenodd" d="M330.155 135.574H344.35C346.398 135.574 348.075 136.993 348.075 138.73V150.762C348.075 152.499 346.399 153.918 344.35 153.918H330.155C328.107 153.918 326.431 152.499 326.431 150.762V138.73C326.431 136.994 328.106 135.574 330.155 135.574Z" fill="#DCE7F5"/>
<path fill-rule="evenodd" clip-rule="evenodd" d="M219.9 158.458H234.096C236.144 158.458 237.82 159.878 237.82 161.614V173.647C237.82 175.383 236.144 176.804 234.096 176.804H219.9C217.853 176.804 216.177 175.383 216.177 173.647V161.614C216.177 159.879 217.853 158.458 219.9 158.458Z" fill="#DCE7F5"/>
<path fill-rule="evenodd" clip-rule="evenodd" d="M247.464 158.458H261.66C263.708 158.458 265.382 159.878 265.382 161.614V173.647C265.382 175.383 263.708 176.804 261.66 176.804H247.464C245.416 176.804 243.741 175.383 243.741 173.647V161.614C243.741 159.879 245.416 158.458 247.464 158.458Z" fill="#DCE7F5"/>
<path fill-rule="evenodd" clip-rule="evenodd" d="M337.688 117.137C339.404 117.137 340.797 118.316 340.797 119.771C340.797 121.226 339.405 122.405 337.688 122.405C335.973 122.405 334.58 121.226 334.58 119.771C334.58 118.316 335.973 117.137 337.688 117.137Z" fill="#BD3F65"/>
<path fill-rule="evenodd" clip-rule="evenodd" d="M337.688 118.357C338.609 118.357 339.357 118.99 339.357 119.771C339.357 120.552 338.61 121.186 337.688 121.186C335.65 121.186 333.799 120.48 332.457 119.343C331.116 118.206 330.283 116.636 330.283 114.909V102.589C330.283 100.861 331.116 99.2917 332.457 98.155C333.799 97.0175 335.65 96.3115 337.688 96.3115C339.726 96.3115 341.578 97.0175 342.919 98.155C344.261 99.2917 345.093 100.861 345.093 102.589V102.81H341.758V102.589C341.758 101.642 341.299 100.78 340.561 100.154C339.822 99.5277 338.806 99.1397 337.688 99.1397C336.571 99.1397 335.554 99.5284 334.816 100.154C334.078 100.78 333.618 101.641 333.618 102.589V114.909C333.618 115.856 334.078 116.717 334.816 117.344C335.554 117.969 336.571 118.357 337.688 118.357Z" fill="#01051A"/>
<path fill-rule="evenodd" clip-rule="evenodd" d="M275.027 158.458H289.223C291.27 158.458 292.946 159.878 292.946 161.614V173.647C292.946 175.383 291.27 176.804 289.223 176.804H275.027C272.979 176.804 271.304 175.383 271.304 173.647V161.614C271.304 159.879 272.979 158.458 275.027 158.458Z" fill="#EA8CAD"/>
<path fill-rule="evenodd" clip-rule="evenodd" d="M302.591 158.458H316.787C318.834 158.458 320.51 159.878 320.51 161.614V173.647C320.51 175.383 318.835 176.804 316.787 176.804H302.591C300.543 176.804 298.868 175.383 298.868 173.647V161.614C298.868 159.879 300.543 158.458 302.591 158.458Z" fill="#DCE7F5"/>
<path fill-rule="evenodd" clip-rule="evenodd" d="M330.155 158.458H344.35C346.398 158.458 348.075 159.878 348.075 161.614V173.647C348.075 175.383 346.399 176.804 344.35 176.804H330.155C328.107 176.804 326.431 175.383 326.431 173.647V161.614C326.431 159.879 328.106 158.458 330.155 158.458Z" fill="#DCE7F5"/>
<path fill-rule="evenodd" clip-rule="evenodd" d="M230.389 117.137C232.106 117.137 233.497 118.316 233.497 119.771C233.497 121.226 232.105 122.405 230.389 122.405C228.673 122.405 227.282 121.226 227.282 119.771C227.282 118.316 228.673 117.137 230.389 117.137Z" fill="#BD3F65"/>
<path fill-rule="evenodd" clip-rule="evenodd" d="M230.389 118.357C231.311 118.357 232.058 118.99 232.058 119.771C232.058 120.552 231.311 121.186 230.389 121.186C228.351 121.186 226.5 120.48 225.158 119.343C223.816 118.206 222.984 116.636 222.984 114.909V102.589C222.984 100.861 223.817 99.2917 225.158 98.155C226.5 97.0175 228.351 96.3115 230.389 96.3115C232.427 96.3115 234.28 97.0175 235.621 98.155C236.963 99.2917 237.795 100.861 237.795 102.589V102.81H234.458V102.589C234.458 101.642 234 100.78 233.262 100.154C232.524 99.5277 231.507 99.1397 230.389 99.1397C229.272 99.1397 228.256 99.5284 227.516 100.154C226.778 100.78 226.32 101.641 226.32 102.589V114.909C226.32 115.856 226.778 116.717 227.516 117.344C228.255 117.969 229.272 118.357 230.389 118.357Z" fill="#01051A"/>
<path fill-rule="evenodd" clip-rule="evenodd" d="M274.433 47.4712C274.315 47.4859 274.199 47.5034 274.085 47.5251L274.082 47.5258H274.083C271.971 47.925 270.387 49.517 270.373 51.4284C270.357 53.65 272.47 55.4626 275.092 55.4759C277.713 55.4892 279.851 53.6983 279.868 51.4774C279.877 50.1859 279.168 49.033 278.057 48.2913C278.197 49.4778 277.995 50.95 276.21 51.1174L276.226 48.797C276.232 47.8578 275.192 47.4369 274.433 47.4712Z" fill="#ED859C"/>
<path fill-rule="evenodd" clip-rule="evenodd" d="M308.69 47.0957C308.808 47.1076 308.923 47.123 309.039 47.1419L309.043 47.1433L309.042 47.1426C311.165 47.4949 312.796 49.0519 312.869 50.9626C312.953 53.1835 310.895 55.0416 308.275 55.1124C305.655 55.1831 303.463 53.4398 303.379 51.2196C303.33 49.9288 304.005 48.7605 305.092 47.995C304.99 49.1843 305.234 50.6516 307.026 50.7798L306.938 48.4601C306.902 47.5216 307.929 47.0782 308.69 47.0957Z" fill="#ED859C"/>
<path fill-rule="evenodd" clip-rule="evenodd" d="M291.256 27.1867C282.318 27.2848 275.097 33.563 275.214 41.1392L275.405 53.6677C275.52 61.2438 282.928 67.3617 291.866 67.2644C300.803 67.1663 308.021 60.888 307.906 53.3119L307.715 40.7834C307.6 33.2073 300.192 27.0887 291.256 27.1867Z" fill="#F2B9C7"/>
<path fill-rule="evenodd" clip-rule="evenodd" d="M291.866 67.2642C300.803 67.1661 308.021 60.8878 307.906 53.3117L307.715 40.7832C307.64 35.8958 304.531 31.6165 299.935 29.2197C291.525 29.42 284.253 29.6813 283.598 29.6841C282.147 29.6904 276.199 38.8578 276.199 38.8578L278.516 41.1144C278.516 41.1144 286.642 41.1144 288.509 41.1144C290.376 41.1144 291.275 42.5215 292.969 42.5215C294.664 42.5215 298.122 42.5215 299.505 42.5215C300.889 42.5215 302.929 43.577 302.929 46.5957C302.929 49.6144 304.9 50.992 304.9 50.992C304.9 50.992 304.9 53.6591 304.9 55.6524C304.899 57.645 303.12 64.7077 291.866 67.2642Z" fill="#F1A1B0"/>
<path fill-rule="evenodd" clip-rule="evenodd" d="M286.972 59.8556C286.911 61.8237 288.743 63.4612 291.065 63.513C293.387 63.5649 295.319 62.0114 295.381 60.0433H295.374C295.385 59.705 295.067 59.4207 294.667 59.4116L287.725 59.2561C287.326 59.247 286.99 59.5166 286.98 59.8542L286.972 59.8556Z" fill="white"/>
<path fill-rule="evenodd" clip-rule="evenodd" d="M288.452 62.6648C289.158 63.1747 290.067 63.4906 291.066 63.513C291.882 63.5312 292.65 63.3512 293.305 63.0248C293.004 62.2859 292.078 61.7179 290.942 61.6562C289.858 61.5981 288.893 62.0176 288.452 62.6648Z" fill="white"/>
<path fill-rule="evenodd" clip-rule="evenodd" d="M294.759 59.4201L288.235 59.2744C288.112 59.8838 288.426 60.5092 288.907 60.6542C289.493 60.8307 294.218 60.8321 294.562 60.5246C294.729 60.3761 294.766 59.8866 294.759 59.4201Z" fill="white"/>
<path fill-rule="evenodd" clip-rule="evenodd" d="M300.324 56.6446C299.143 56.639 298.181 57.4451 298.173 58.4453C298.166 59.4461 299.118 60.2621 300.298 60.2684C301.478 60.274 302.441 59.4678 302.448 58.4677C302.455 57.4668 301.504 56.6509 300.324 56.6446Z" fill="#ED859C"/>
<path fill-rule="evenodd" clip-rule="evenodd" d="M281.938 56.5498C280.758 56.5442 279.796 57.3504 279.787 58.3498C279.78 59.3507 280.732 60.1666 281.912 60.1729C283.092 60.1786 284.055 59.3724 284.063 58.3722C284.07 57.3721 283.119 56.5554 281.938 56.5498Z" fill="#ED859C"/>
<path fill-rule="evenodd" clip-rule="evenodd" d="M280.943 50.1395C280.661 50.2635 280.311 50.1696 280.166 49.9301C280.02 49.6906 280.131 49.395 280.412 49.2717C281.932 48.5867 283.974 48.4866 285.488 49.2332C285.761 49.3684 285.855 49.6695 285.696 49.9014C285.538 50.1339 285.181 50.2137 284.907 50.0786C283.683 49.4748 282.165 49.6282 280.943 50.1395Z" fill="#0C1332"/>
<path fill-rule="evenodd" clip-rule="evenodd" d="M301.691 49.9133C300.452 49.4279 298.929 49.3075 297.724 49.9385C297.454 50.08 297.096 50.0078 296.93 49.7788C296.763 49.5505 296.848 49.2472 297.118 49.1057C298.607 48.3262 300.652 48.3815 302.192 49.0329C302.478 49.1499 302.597 49.4433 302.459 49.6864C302.321 49.928 301.975 50.0296 301.691 49.9133Z" fill="#0C1332"/>
<path fill-rule="evenodd" clip-rule="evenodd" d="M299.949 51.5797C300.721 51.5713 301.36 52.0994 301.371 52.7535L301.394 54.3042C301.405 54.9584 300.781 55.5005 300.009 55.5089H300.009C299.237 55.5173 298.598 54.9892 298.587 54.335L298.564 52.7837C298.554 52.1302 299.177 51.5881 299.949 51.5797Z" fill="#0C1332"/>
<path fill-rule="evenodd" clip-rule="evenodd" d="M282.732 51.7682C281.961 51.7766 281.337 52.3187 281.347 52.9728L281.371 54.5242C281.381 55.1784 282.02 55.7065 282.792 55.698C283.564 55.6896 284.187 55.1475 284.176 54.4934L284.153 52.942C284.144 52.2879 283.504 51.7598 282.732 51.7682Z" fill="#0C1332"/>
<path fill-rule="evenodd" clip-rule="evenodd" d="M281.102 38.3737C280.277 38.9445 279.682 39.8011 279.701 41.0569C279.746 44.0188 279.119 46.3749 276.89 46.3987C276.89 46.3987 276.906 47.4234 276.925 48.7226C276.945 50.0211 276.816 51.3372 275.369 51.3533C275.327 48.5587 274.305 47.4717 274.305 47.4717C274.305 47.4717 274.248 43.7338 274.198 40.465C274.148 37.1963 275.166 32.793 280.181 29.7246C286.67 25.7541 295.795 25.6539 302.403 29.4808C307.511 32.4386 308.661 36.8181 308.712 40.0861C308.762 43.3541 308.818 47.0928 308.818 47.0928C308.818 47.0928 307.83 48.2022 307.873 50.9968C306.427 51.0129 306.257 49.7004 306.237 48.4011C306.217 47.1019 306.202 46.0773 306.202 46.0773C303.973 46.1018 303.273 43.7604 303.229 40.7984C303.21 39.5209 302.566 38.6706 301.701 38.118C302.817 39.8445 302.3 41.1913 299.474 39.0692C301.353 42.1025 294.987 42.1621 293.069 39.3066C293.069 39.3066 292.553 40.9105 291.583 40.6457C290.613 40.3803 290.533 38.4815 290.533 38.4815C288.983 41.274 284.42 41.6032 284.053 38.6475C282.853 40.4615 280.033 40.3796 281.102 38.3737Z" fill="#0C1332"/>
<path fill-rule="evenodd" clip-rule="evenodd" d="M281.102 38.3737C280.915 38.5032 280.74 38.6468 280.581 38.8065C279.915 39.4011 278.62 39.5748 277.825 38.4612C277.274 37.6901 276.939 34.5131 276.785 32.634C277.635 31.5932 278.743 30.6043 280.181 29.7246C286.67 25.7541 295.795 25.6539 302.403 29.4808C304.401 30.6379 305.794 32.0127 306.752 33.4534C307.083 36.0218 304.433 39.6043 303.897 39.7506C303.362 39.897 302.849 39.2989 302.849 39.2989L302.848 39.2996C302.573 38.8044 302.17 38.4178 301.701 38.118C302.817 39.8445 302.3 41.1913 299.474 39.0692C301.353 42.1025 294.987 42.1621 293.069 39.3066C293.069 39.3066 292.553 40.9105 291.583 40.6457C290.613 40.3803 290.533 38.4815 290.533 38.4815C288.983 41.274 284.42 41.6032 284.053 38.6475C282.853 40.4615 280.033 40.3796 281.102 38.3737Z" fill="#1A274C"/>
<path fill-rule="evenodd" clip-rule="evenodd" d="M277.873 31.4713C278.526 30.8564 279.291 30.2695 280.181 29.7253C280.705 29.4045 281.248 29.1089 281.804 28.8379C283.922 36.0029 300.813 33.3176 304.069 30.598C304.481 30.9173 304.857 31.2465 305.201 31.5848C297.33 36.6871 282.299 37.957 277.873 31.4713Z" fill="#242B5C"/>
<path fill-rule="evenodd" clip-rule="evenodd" d="M314.17 142.318C311.915 143.577 314.035 143.225 312.092 144.576C311.14 145.238 307.376 146.023 306.875 146.668C306.375 147.315 303.741 150.331 303.078 151.049C302.416 151.768 304.632 151.932 305.949 151.582C305.949 151.582 303.223 156.412 302.568 157.634C301.913 158.855 303.043 159.125 304.005 158.81C304.966 158.495 307.023 155.315 307.023 155.315C307.023 155.315 308.961 155.845 310.008 155.512C310.008 155.512 312.053 156.097 312.721 156.036C313.391 155.975 314.319 155.706 314.319 155.706C314.319 155.706 315.979 155.75 317.277 155.016C318.575 154.282 319.341 148.23 319.563 147.718C319.785 147.206 319.245 145.651 319.245 145.651L314.17 142.318Z" fill="#F2B9C7"/>
<path fill-rule="evenodd" clip-rule="evenodd" d="M313.099 143.099C312.813 143.518 313.461 143.625 312.092 144.576C311.793 144.784 311.217 145.003 310.553 145.228C314.359 148.511 316.346 148.955 317.71 149.34C318.216 149.484 318.609 150.098 318.899 150.953C319.237 149.403 319.461 147.957 319.564 147.718C319.786 147.206 319.246 145.651 319.246 145.651L315.578 143.244C314.719 143.143 313.876 143.09 313.099 143.099Z" fill="#F1A1B0"/>
<path fill-rule="evenodd" clip-rule="evenodd" d="M315.556 72.543C315.556 72.543 320.249 76.0064 322.19 77.5914C324.132 79.1763 326.024 82.9577 328.009 89.1611C336.639 116.127 337.07 124.356 321.098 148.928C321.098 148.928 320.954 149.355 319.983 149.203C319.013 149.051 311.118 145.67 310.651 144.116C310.651 144.116 310.435 143.598 311.046 142.835C318.034 134.123 320.349 111.505 314.804 100.975C312.78 97.1301 309.659 82.5305 315.556 72.543Z" fill="#242B5C"/>
<path fill-rule="evenodd" clip-rule="evenodd" d="M288.927 56.1615C288.51 56.609 287.824 57.4011 287.921 57.689C288.059 58.0987 289.166 58.2164 289.754 58.0406C290.12 57.9313 290.057 57.0362 289.957 56.3779C289.827 55.5192 289.611 55.4302 288.927 56.1615Z" fill="#F5D2DD"/>
<path fill-rule="evenodd" clip-rule="evenodd" d="M235.953 41.0933H238.726C239.232 41.0933 239.649 41.4449 239.649 41.8763V44.2254C239.649 44.6554 239.233 45.0084 238.726 45.0084H235.953C235.446 45.0084 235.03 44.6554 235.03 44.2254V41.8763C235.03 41.4449 235.446 41.0933 235.953 41.0933Z" fill="#DCD7EB"/>
<path fill-rule="evenodd" clip-rule="evenodd" d="M245.421 41.0933H248.194C248.701 41.0933 249.117 41.4449 249.117 41.8763V44.2254C249.117 44.6554 248.701 45.0084 248.194 45.0084H245.421C244.913 45.0084 244.499 44.6554 244.499 44.2254V41.8763C244.499 41.4449 244.913 41.0933 245.421 41.0933Z" fill="#DCD7EB"/>
<path fill-rule="evenodd" clip-rule="evenodd" d="M254.889 41.0933H257.661C258.169 41.0933 258.584 41.4449 258.584 41.8763V44.2254C258.584 44.6554 258.169 45.0084 257.661 45.0084H254.889C254.382 45.0084 253.966 44.6554 253.966 44.2254V41.8763C253.966 41.4449 254.381 41.0933 254.889 41.0933Z" fill="#DCD7EB"/>
<path fill-rule="evenodd" clip-rule="evenodd" d="M264.357 41.0933H267.129C267.637 41.0933 268.052 41.4449 268.052 41.8763V44.2254C268.052 44.6554 267.637 45.0084 267.129 45.0084H264.357C263.85 45.0084 263.433 44.6554 263.433 44.2254V41.8763C263.433 41.4449 263.85 41.0933 264.357 41.0933Z" fill="#DCD7EB"/>
<path fill-rule="evenodd" clip-rule="evenodd" d="M371.453 237.258C371.453 236.76 371.93 236.357 372.517 236.357C373.104 236.357 373.58 236.76 373.58 237.258V241.313C373.58 241.811 373.104 242.214 372.517 242.214C371.93 242.214 371.453 241.811 371.453 241.313V237.258ZM364.205 240.55C363.789 240.198 363.789 239.627 364.205 239.275C364.62 238.923 365.293 238.923 365.709 239.275L369.091 242.143C369.506 242.494 369.506 243.066 369.091 243.418C368.676 243.769 368.003 243.769 367.587 243.418L364.205 240.55ZM361.824 247.223C361.238 247.223 360.761 246.819 360.761 246.322C360.761 245.824 361.238 245.421 361.824 245.421H366.609C367.195 245.421 367.672 245.824 367.672 246.322C367.672 246.819 367.195 247.223 366.609 247.223H361.824ZM365.709 253.367C365.293 253.72 364.62 253.72 364.205 253.367C363.789 253.015 363.789 252.445 364.205 252.093L367.587 249.225C368.003 248.873 368.676 248.873 369.091 249.225C369.506 249.577 369.506 250.148 369.091 250.5L365.709 253.367ZM373.58 255.384C373.58 255.882 373.104 256.286 372.517 256.286C371.93 256.286 371.453 255.882 371.453 255.384V251.329C371.453 250.832 371.93 250.428 372.517 250.428C373.104 250.428 373.58 250.832 373.58 251.329V255.384ZM380.83 252.093C381.245 252.445 381.245 253.015 380.83 253.367C380.414 253.72 379.741 253.72 379.326 253.367L375.942 250.5C375.528 250.148 375.528 249.577 375.942 249.225C376.358 248.873 377.032 248.873 377.447 249.225L380.83 252.093ZM383.21 245.42C383.796 245.42 384.273 245.823 384.273 246.321C384.273 246.819 383.796 247.222 383.21 247.222H378.426C377.838 247.222 377.362 246.819 377.362 246.321C377.362 245.823 377.838 245.42 378.426 245.42H383.21ZM379.325 239.275C379.74 238.923 380.414 238.923 380.829 239.275C381.244 239.627 381.244 240.198 380.829 240.55L377.446 243.418C377.031 243.769 376.357 243.769 375.942 243.418C375.527 243.066 375.527 242.494 375.942 242.143L379.325 239.275Z" fill="#DCD7EB"/>
<path fill-rule="evenodd" clip-rule="evenodd" d="M347.548 185.966H379.215C383.782 185.966 387.52 189.134 387.52 193.006V219.847C387.52 223.719 383.783 226.887 379.215 226.887H347.548C342.98 226.887 339.241 223.72 339.241 219.847V193.006C339.242 189.134 342.98 185.966 347.548 185.966Z" fill="#EF92A3"/>
<path fill-rule="evenodd" clip-rule="evenodd" d="M362.895 200.721C362.895 201.968 362.487 203.041 361.669 203.94C360.853 204.835 359.668 205.485 358.124 205.89V205.974C361.73 206.393 363.531 207.989 363.531 210.747C363.531 212.626 362.734 214.099 361.145 215.177C359.551 216.255 357.342 216.792 354.517 216.792C353.353 216.792 352.279 216.712 351.285 216.556C350.297 216.4 349.227 216.114 348.071 215.699V211.175C349.02 211.623 349.983 211.957 350.962 212.173C351.94 212.391 352.847 212.498 353.674 212.498C354.956 212.498 355.89 212.329 356.474 211.994C357.059 211.66 357.352 211.133 357.352 210.413C357.352 209.862 357.2 209.438 356.898 209.137C356.591 208.841 356.096 208.616 355.415 208.459C354.74 208.309 353.851 208.234 352.757 208.234H351.426V204.138H352.787C355.753 204.138 357.236 203.427 357.236 202.011C357.236 201.479 357.014 201.084 356.58 200.824C356.142 200.565 355.552 200.438 354.81 200.438C353.433 200.438 352.006 200.871 350.527 201.733L348.101 198.099C349.246 197.364 350.416 196.842 351.612 196.527C352.807 196.217 354.178 196.061 355.727 196.061C357.96 196.061 359.716 196.475 360.986 197.303C362.26 198.127 362.895 199.267 362.895 200.721ZM378.691 216.509H372.765V205.833C372.765 204.534 372.795 203.347 372.855 202.274C372.492 202.689 372.039 203.122 371.494 203.569L369.041 205.461L366.01 201.983L373.43 196.343H378.689V216.509H378.691Z" fill="white"/>
<path fill-rule="evenodd" clip-rule="evenodd" d="M58.4079 99.743C59.7796 99.743 60.8984 98.7947 60.8984 97.6327C60.8984 96.4708 59.7796 95.5225 58.4079 95.5225C57.0363 95.5225 55.9174 96.4708 55.9174 97.6327C55.9174 98.7954 57.0363 99.743 58.4079 99.743Z" fill="#DCD7EB"/>
<path fill-rule="evenodd" clip-rule="evenodd" d="M141.811 28.346C143.182 28.346 144.3 27.3977 144.3 26.2358C144.3 25.0731 143.182 24.1255 141.811 24.1255C140.439 24.1255 139.32 25.0738 139.32 26.2358C139.32 27.3977 140.439 28.346 141.811 28.346Z" fill="#DCD7EB"/>
<path fill-rule="evenodd" clip-rule="evenodd" d="M398.244 10.057C399.614 10.057 400.734 9.10864 400.734 7.9467C400.734 6.78405 399.615 5.83643 398.244 5.83643C396.873 5.83643 395.754 6.78475 395.754 7.9467C395.754 9.10864 396.873 10.057 398.244 10.057Z" fill="#DCD7EB"/>
<path fill-rule="evenodd" clip-rule="evenodd" d="M555.921 90.9505C557.293 90.9505 558.411 90.0022 558.411 88.8403C558.411 87.6776 557.293 86.73 555.921 86.73C554.55 86.73 553.431 87.6783 553.431 88.8403C553.431 90.0029 554.55 90.9505 555.921 90.9505Z" fill="#DCD7EB"/>
<path fill-rule="evenodd" clip-rule="evenodd" d="M565.879 252.738C567.251 252.738 568.37 251.79 568.37 250.627C568.37 249.465 567.251 248.517 565.879 248.517C564.509 248.517 563.39 249.465 563.39 250.627C563.39 251.79 564.509 252.738 565.879 252.738Z" fill="#DCD7EB"/>
<path fill-rule="evenodd" clip-rule="evenodd" d="M379.986 122.605C381.357 122.605 382.476 121.656 382.476 120.495C382.476 119.333 381.357 118.384 379.986 118.384C378.615 118.384 377.496 119.333 377.496 120.495C377.497 121.656 378.615 122.605 379.986 122.605Z" fill="#DCD7EB"/>
<path fill-rule="evenodd" clip-rule="evenodd" d="M185.795 196.464C187.166 196.464 188.284 195.516 188.284 194.354C188.284 193.192 187.166 192.243 185.795 192.243C184.423 192.243 183.305 193.192 183.305 194.354C183.305 195.516 184.423 196.464 185.795 196.464Z" fill="#DCD7EB"/>
<path fill-rule="evenodd" clip-rule="evenodd" d="M84.5488 252.738C85.9205 252.738 87.0393 251.79 87.0393 250.628C87.0393 249.465 85.9205 248.517 84.5488 248.517C83.178 248.517 82.0592 249.465 82.0592 250.628C82.06 251.79 83.178 252.738 84.5488 252.738Z" fill="#DCD7EB"/>
<path fill-rule="evenodd" clip-rule="evenodd" d="M35.5855 237.966C36.9563 237.966 38.0751 237.019 38.0751 235.856C38.0751 234.693 36.9563 233.745 35.5855 233.745C34.2138 233.745 33.0958 234.693 33.0958 235.856C33.0967 237.018 34.2146 237.966 35.5855 237.966Z" fill="#DCD7EB"/>
<path fill-rule="evenodd" clip-rule="evenodd" d="M456.336 29.7528C457.707 29.7528 458.825 28.8044 458.825 27.6425C458.825 26.4806 457.707 25.5322 456.336 25.5322C454.965 25.5322 453.846 26.4806 453.846 27.6425C453.846 28.8051 454.965 29.7528 456.336 29.7528Z" fill="#DCD7EB"/>
</g>
</svg>
