<svg width="300" height="224" viewBox="0 0 300 224" fill="none" xmlns="http://www.w3.org/2000/svg">
<g opacity="0.15" clip-path="url(#clip0_17888_31197)">
<path d="M88.6927 6.14778C77.4653 5.18446 65.8379 9.38973 58.4954 17.0697C53.1498 22.6614 50.1134 29.7636 44.9721 35.5079C35.2156 46.409 18.9379 51.3392 9.21167 62.2625C-0.820676 73.5295 -2.0281 89.8885 3.97095 103.267C9.97 116.645 22.3294 127.168 36.4051 134.13C41.3405 136.571 46.6325 138.704 50.4902 142.39C56.6299 148.257 57.9896 157.025 57.0968 165.033C56.2049 173.04 53.3953 180.795 52.4062 188.794C51.7046 194.467 52.0962 200.668 56.0161 205.163C59.6197 209.295 65.5255 211.204 71.2441 212.304C88.3648 215.596 106.761 213.252 122.182 205.813C134.656 199.795 145.113 190.648 158.049 185.475C173.571 179.268 191.312 179.332 208.163 181.306C218.482 182.514 228.76 184.398 239.166 184.361C249.573 184.325 260.379 182.156 268.367 176.173C276.029 170.435 280.301 161.825 282.949 153.193C289.424 132.084 287.444 108.971 277.447 88.9997C274.354 82.8197 270.433 76.8384 264.824 72.3042C259.02 67.613 251.734 64.7168 244.582 61.8966C222.314 53.1166 197.639 39.189 173.139 37.0498C165.901 36.4176 158.554 37.399 151.43 35.816C140.49 33.3861 131.146 26.8416 122.254 20.9592C112.222 14.322 101.51 7.24771 88.6927 6.14778Z" fill="url(#paint0_linear_17888_31197)"/>
<path d="M210.202 170.117C209.621 170.117 209.04 170.113 208.46 170.105C208.245 170.101 208.075 169.944 208.078 169.751C208.081 169.558 208.264 169.405 208.472 169.408C209.503 169.422 210.534 169.422 211.569 169.413C211.753 169.399 211.959 169.564 211.962 169.757C211.964 169.949 211.792 170.107 211.578 170.11C211.119 170.114 210.66 170.117 210.202 170.117ZM216.233 169.973C216.027 169.973 215.856 169.829 215.845 169.643C215.833 169.451 215.997 169.286 216.213 169.277C217.244 169.227 218.274 169.165 219.303 169.091C219.516 169.08 219.705 169.219 219.721 169.41C219.739 169.602 219.579 169.771 219.366 169.785C218.329 169.861 217.293 169.922 216.254 169.972C216.246 169.973 216.24 169.973 216.233 169.973ZM203.807 169.954C203.8 169.954 203.793 169.954 203.786 169.953C202.748 169.9 201.71 169.834 200.675 169.755C200.462 169.739 200.303 169.571 200.321 169.379C200.339 169.187 200.532 169.049 200.741 169.061C201.769 169.139 202.8 169.205 203.83 169.258C204.044 169.269 204.208 169.433 204.196 169.625C204.183 169.811 204.012 169.954 203.807 169.954ZM223.97 169.368C223.776 169.368 223.609 169.238 223.585 169.061C223.56 168.871 223.711 168.697 223.924 168.674C224.949 168.562 225.972 168.438 226.994 168.302C227.204 168.274 227.403 168.405 227.435 168.596C227.466 168.786 227.32 168.963 227.107 168.991C226.079 169.128 225.049 169.254 224.016 169.365C224.002 169.367 223.985 169.368 223.97 169.368ZM196.073 169.314C196.056 169.314 196.039 169.313 196.023 169.311C194.992 169.192 193.962 169.061 192.935 168.916C192.724 168.886 192.578 168.708 192.612 168.518C192.645 168.327 192.848 168.2 193.056 168.228C194.076 168.371 195.097 168.503 196.121 168.62C196.333 168.644 196.484 168.819 196.457 169.01C196.432 169.185 196.265 169.314 196.073 169.314ZM231.647 168.297C231.464 168.297 231.302 168.18 231.266 168.014C231.225 167.825 231.364 167.642 231.574 167.606C232.59 167.433 233.601 167.247 234.61 167.05C234.824 167.008 235.026 167.128 235.072 167.316C235.118 167.505 234.985 167.69 234.775 167.731C233.76 167.93 232.741 168.117 231.72 168.291C231.695 168.294 231.671 168.297 231.647 168.297ZM239.226 166.765C239.053 166.765 238.896 166.662 238.851 166.504C238.796 166.318 238.921 166.128 239.128 166.08C240.126 165.846 241.123 165.6 242.114 165.342C242.323 165.287 242.536 165.394 242.596 165.579C242.655 165.765 242.537 165.958 242.331 166.012C241.332 166.271 240.33 166.518 239.324 166.754C239.291 166.762 239.259 166.765 239.226 166.765ZM246.672 164.781C246.51 164.781 246.359 164.689 246.303 164.543C246.236 164.36 246.345 164.163 246.549 164.102C247.528 163.808 248.503 163.503 249.473 163.187C249.676 163.121 249.898 163.214 249.972 163.395C250.045 163.576 249.941 163.776 249.739 163.842C248.763 164.161 247.782 164.468 246.795 164.764C246.755 164.776 246.714 164.781 246.672 164.781ZM253.953 162.35C253.8 162.35 253.655 162.269 253.593 162.134C253.512 161.956 253.607 161.752 253.804 161.679C254.759 161.327 255.71 160.963 256.653 160.587C256.849 160.511 257.079 160.587 257.166 160.764C257.253 160.941 257.164 161.146 256.968 161.224C256.017 161.603 255.062 161.969 254.1 162.324C254.052 162.342 254.002 162.35 253.953 162.35ZM261.031 159.479C260.888 159.479 260.751 159.407 260.683 159.285C260.588 159.112 260.667 158.903 260.859 158.818C261.785 158.408 262.705 157.987 263.617 157.553C263.807 157.464 264.042 157.528 264.142 157.698C264.243 157.868 264.17 158.079 263.981 158.169C263.061 158.606 262.136 159.031 261.204 159.443C261.148 159.468 261.089 159.479 261.031 159.479ZM267.872 156.176C267.738 156.176 267.608 156.114 267.536 156.003C267.427 155.837 267.49 155.623 267.676 155.526C268.567 155.059 269.45 154.581 270.327 154.09C270.509 153.99 270.749 154.039 270.862 154.202C270.976 154.365 270.92 154.58 270.738 154.682C269.855 155.175 268.965 155.658 268.067 156.127C268.006 156.161 267.938 156.176 267.872 156.176ZM274.435 152.448C274.312 152.448 274.19 152.395 274.115 152.296C273.994 152.136 274.039 151.92 274.216 151.811C275.066 151.29 275.91 150.756 276.742 150.208C276.914 150.094 277.158 150.127 277.285 150.283C277.412 150.438 277.375 150.656 277.202 150.77C276.362 151.322 275.512 151.861 274.655 152.387C274.588 152.428 274.512 152.448 274.435 152.448ZM280.647 148.265C280.536 148.265 280.425 148.222 280.348 148.139C280.211 147.992 280.233 147.773 280.398 147.649C281.205 147.044 281.985 146.428 282.716 145.82C282.872 145.688 283.118 145.696 283.264 145.838C283.41 145.979 283.402 146.199 283.244 146.33C282.504 146.947 281.713 147.57 280.895 148.183C280.824 148.238 280.734 148.265 280.647 148.265ZM286.247 143.443C286.155 143.443 286.063 143.413 285.989 143.355C285.828 143.227 285.814 143.006 285.957 142.863C286.417 142.399 286.866 141.925 287.302 141.44C287.512 141.207 287.719 140.972 287.922 140.735C288.053 140.583 288.297 140.555 288.466 140.671C288.636 140.789 288.668 141.007 288.538 141.16C288.33 141.401 288.12 141.64 287.907 141.877C287.462 142.371 287.005 142.852 286.537 143.325C286.46 143.404 286.354 143.443 286.247 143.443ZM290.867 137.855C290.797 137.855 290.727 137.839 290.663 137.804C290.481 137.703 290.423 137.489 290.535 137.324C291.063 136.554 291.573 135.745 292.054 134.921C292.155 134.751 292.391 134.687 292.579 134.774C292.769 134.864 292.843 135.074 292.743 135.245C292.254 136.082 291.734 136.905 291.199 137.689C291.125 137.796 290.998 137.855 290.867 137.855ZM294.363 131.642C294.314 131.642 294.264 131.633 294.216 131.616C294.018 131.543 293.923 131.339 294.004 131.161C294.387 130.326 294.755 129.454 295.095 128.572C295.166 128.391 295.387 128.295 295.59 128.357C295.793 128.42 295.9 128.619 295.83 128.801C295.485 129.695 295.112 130.578 294.724 131.426C294.661 131.561 294.516 131.642 294.363 131.642ZM296.819 125.032C296.786 125.032 296.753 125.028 296.719 125.02C296.512 124.971 296.388 124.779 296.443 124.594C296.701 123.719 296.944 122.812 297.164 121.899C297.21 121.711 297.42 121.593 297.626 121.632C297.837 121.673 297.969 121.858 297.924 122.046C297.701 122.97 297.455 123.888 297.195 124.772C297.147 124.929 296.99 125.032 296.819 125.032ZM298.396 118.208C298.376 118.208 298.356 118.206 298.335 118.204C298.124 118.174 297.979 117.996 298.011 117.806C298.168 116.904 298.311 115.979 298.436 115.055C298.462 114.865 298.661 114.728 298.869 114.751C299.081 114.774 299.234 114.948 299.208 115.139C299.082 116.071 298.937 117.004 298.78 117.913C298.749 118.086 298.584 118.208 298.396 118.208ZM299.279 111.282C299.268 111.282 299.258 111.282 299.248 111.281C299.035 111.267 298.875 111.099 298.891 110.907C298.969 109.983 299.034 109.058 299.087 108.133C299.098 107.941 299.258 107.793 299.495 107.802C299.709 107.812 299.874 107.976 299.863 108.168C299.81 109.099 299.745 110.031 299.666 110.96C299.649 111.143 299.479 111.282 299.279 111.282ZM228.35 105.271C228.149 105.271 227.979 105.133 227.964 104.951C227.947 104.759 228.107 104.591 228.319 104.576C229.276 104.507 230.266 104.376 231.344 104.175C231.55 104.134 231.76 104.256 231.803 104.445C231.848 104.633 231.713 104.817 231.502 104.857C230.392 105.064 229.371 105.199 228.381 105.271C228.371 105.271 228.36 105.271 228.35 105.271ZM223.714 105.031C223.687 105.031 223.658 105.029 223.63 105.023C223.471 104.992 223.312 104.957 223.153 104.92C222.28 104.716 221.428 104.423 220.622 104.049C220.432 103.962 220.356 103.751 220.455 103.58C220.554 103.409 220.788 103.342 220.979 103.43C221.735 103.78 222.532 104.055 223.348 104.246C223.498 104.281 223.649 104.314 223.799 104.344C224.009 104.385 224.14 104.571 224.094 104.76C224.053 104.921 223.892 105.031 223.714 105.031ZM299.636 104.319C299.634 104.319 299.631 104.319 299.628 104.319C299.415 104.316 299.244 104.157 299.248 103.964C299.267 103.035 299.277 102.107 299.278 101.182C299.278 100.99 299.452 100.834 299.666 100.834C299.881 100.834 300.055 100.99 300.055 101.183C300.054 102.112 300.044 103.044 300.024 103.978C300.021 104.167 299.847 104.319 299.636 104.319ZM235.918 103.764C235.755 103.764 235.604 103.671 235.549 103.524C235.482 103.342 235.593 103.145 235.796 103.084C236.733 102.806 237.708 102.487 238.694 102.136C238.893 102.065 239.119 102.153 239.198 102.331C239.277 102.51 239.18 102.712 238.98 102.784C237.98 103.14 236.991 103.463 236.04 103.745C235.999 103.758 235.959 103.764 235.918 103.764ZM217.131 101.546C217.026 101.546 216.921 101.507 216.845 101.433C216.144 100.747 215.504 99.9779 214.945 99.1471C214.833 98.9826 214.893 98.7679 215.076 98.6689C215.259 98.5699 215.499 98.6222 215.61 98.7867C216.143 99.5778 216.752 100.31 217.418 100.962C217.562 101.104 217.552 101.325 217.394 101.455C217.319 101.516 217.225 101.546 217.131 101.546ZM243.11 101.136C242.964 101.136 242.825 101.063 242.759 100.936C242.667 100.763 242.75 100.554 242.944 100.473C243.877 100.078 244.805 99.6691 245.726 99.2516C245.916 99.1638 246.151 99.2335 246.248 99.4056C246.345 99.5778 246.268 99.7869 246.077 99.8734C245.149 100.293 244.215 100.705 243.276 101.103C243.222 101.126 243.166 101.136 243.11 101.136ZM250.04 97.9865C249.901 97.9865 249.766 97.9189 249.696 97.8011C249.596 97.631 249.669 97.4198 249.859 97.3299C250.772 96.897 251.685 96.4586 252.595 96.0145C252.783 95.9239 253.019 95.9846 253.122 96.1546C253.225 96.324 253.155 96.5352 252.967 96.6272C252.054 97.0727 251.139 97.5118 250.222 97.946C250.164 97.9732 250.102 97.9865 250.04 97.9865ZM299.617 97.3487C299.406 97.3487 299.233 97.1974 299.228 97.0071C299.208 96.0808 299.181 95.153 299.144 94.2252C299.136 94.0328 299.304 93.8711 299.519 93.8649C299.731 93.8502 299.913 94.0084 299.921 94.2008C299.958 95.1321 299.985 96.0633 300.005 96.9932C300.009 97.1856 299.839 97.3445 299.624 97.3487C299.622 97.3487 299.619 97.3487 299.617 97.3487ZM213.418 95.4924C213.249 95.4924 213.095 95.3935 213.045 95.2415C212.75 94.3333 212.537 93.3957 212.412 92.4554C212.387 92.2644 212.539 92.0909 212.753 92.0679C212.962 92.0435 213.159 92.1822 213.184 92.3732C213.304 93.2759 213.508 94.175 213.792 95.0463C213.851 95.2311 213.733 95.4248 213.527 95.4785C213.49 95.4883 213.454 95.4924 213.418 95.4924ZM256.85 94.6295C256.716 94.6295 256.585 94.5668 256.513 94.4546C256.406 94.2873 256.47 94.0747 256.657 93.9785C257.553 93.5163 258.444 93.0458 259.329 92.5677C259.509 92.4687 259.751 92.521 259.862 92.6862C259.972 92.8507 259.914 93.0654 259.73 93.165C258.84 93.646 257.945 94.1186 257.044 94.5835C256.983 94.6142 256.916 94.6295 256.85 94.6295ZM263.476 90.9902C263.35 90.9902 263.226 90.9345 263.151 90.8327C263.034 90.6717 263.084 90.4556 263.263 90.3504C264.128 89.8422 264.984 89.3236 265.827 88.7939C266.004 88.6844 266.245 88.7214 266.369 88.8796C266.492 89.0371 266.449 89.2546 266.273 89.3647C265.422 89.8987 264.561 90.4215 263.69 90.9338C263.624 90.9721 263.55 90.9902 263.476 90.9902ZM299.295 90.3852C299.092 90.3852 298.922 90.2444 298.907 90.0611C298.836 89.1368 298.749 88.2139 298.646 87.2938C298.624 87.1021 298.78 86.9314 298.993 86.9118C299.19 86.8958 299.397 87.0317 299.418 87.2234C299.523 88.1512 299.61 89.081 299.683 90.0123C299.697 90.204 299.536 90.3706 299.322 90.3845C299.313 90.3845 299.303 90.3852 299.295 90.3852ZM212.849 88.5924C212.83 88.5924 212.812 88.5917 212.793 88.5889C212.581 88.5618 212.433 88.3847 212.464 88.1944C212.612 87.2708 212.837 86.3389 213.133 85.4251C213.192 85.2403 213.405 85.1316 213.614 85.1874C213.82 85.241 213.939 85.4341 213.879 85.6188C213.593 86.502 213.377 87.4019 213.233 88.2934C213.205 88.467 213.039 88.5924 212.849 88.5924ZM269.8 86.9446C269.685 86.9446 269.57 86.8986 269.493 86.8108C269.361 86.6588 269.391 86.4399 269.561 86.3215C270.38 85.7485 271.188 85.1602 271.961 84.5733C272.125 84.4499 272.37 84.4673 272.509 84.6144C272.647 84.7615 272.627 84.981 272.463 85.1058C271.681 85.699 270.865 86.2936 270.039 86.8721C269.968 86.9209 269.884 86.9446 269.8 86.9446ZM298.434 83.4601C298.247 83.4601 298.082 83.3381 298.051 83.1666C297.886 82.2431 297.697 81.3257 297.49 80.4419C297.446 80.253 297.58 80.0683 297.791 80.0292C297.997 79.9909 298.206 80.1101 298.251 80.2983C298.461 81.1933 298.652 82.1211 298.819 83.0558C298.852 83.2461 298.708 83.4245 298.496 83.4552C298.475 83.4587 298.454 83.4601 298.434 83.4601ZM275.668 82.3818C275.566 82.3818 275.465 82.3462 275.389 82.2758C275.24 82.1378 275.244 81.9168 275.398 81.783C276.145 81.1327 276.872 80.4677 277.56 79.8055C277.707 79.6647 277.952 79.6577 278.109 79.7881C278.266 79.9191 278.275 80.1394 278.128 80.2809C277.432 80.9514 276.694 81.6255 275.938 82.2835C275.863 82.349 275.765 82.3818 275.668 82.3818ZM215.214 81.9858C215.156 81.9858 215.097 81.974 215.04 81.9489C214.848 81.8625 214.771 81.6534 214.866 81.4812C215.321 80.6656 215.842 79.8396 216.415 79.0262C216.531 78.8638 216.772 78.8157 216.952 78.9182C217.133 79.0213 217.187 79.236 217.072 79.3984C216.512 80.1931 216.004 80.9981 215.561 81.7935C215.494 81.9154 215.356 81.9858 215.214 81.9858ZM280.881 77.2216C280.797 77.2216 280.713 77.1972 280.641 77.1477C280.473 77.0292 280.443 76.8096 280.575 76.6583L280.887 76.3001C281.405 75.7013 281.916 75.0726 282.406 74.4327C282.527 74.2731 282.769 74.2333 282.946 74.3428C283.123 74.4515 283.167 74.6683 283.046 74.8272C282.548 75.479 282.027 76.1181 281.501 76.728L281.187 77.0891C281.111 77.1756 280.996 77.2216 280.881 77.2216ZM296.725 76.666C296.558 76.666 296.403 76.5684 296.353 76.4172C296.193 75.9397 296.025 75.4643 295.847 74.991C295.697 74.5909 295.538 74.1929 295.374 73.7963C295.297 73.6158 295.4 73.415 295.6 73.3474C295.804 73.2798 296.025 73.3711 296.101 73.5516C296.269 73.9552 296.43 74.3609 296.583 74.7673C296.764 75.2482 296.936 75.7313 297.098 76.2164C297.16 76.4011 297.043 76.5949 296.837 76.6507C296.799 76.6611 296.761 76.666 296.725 76.666ZM219.479 76.1767C219.393 76.1767 219.305 76.1509 219.233 76.0979C219.067 75.9759 219.043 75.7564 219.179 75.6072C219.819 74.906 220.513 74.1943 221.243 73.4924C221.389 73.3516 221.636 73.3439 221.791 73.4749C221.948 73.6067 221.957 73.827 221.81 73.9678C221.092 74.6585 220.408 75.3584 219.78 76.0477C219.704 76.1328 219.592 76.1767 219.479 76.1767ZM285.165 71.4145C285.102 71.4145 285.038 71.4006 284.979 71.372C284.79 71.28 284.721 71.0681 284.824 70.8987C285.314 70.0936 285.78 69.2627 286.208 68.4291C286.298 68.2534 286.531 68.1781 286.723 68.2583C286.918 68.3391 287.003 68.5462 286.914 68.7211C286.478 69.5687 286.004 70.4142 285.505 71.2326C285.435 71.3483 285.302 71.4145 285.165 71.4145ZM224.843 71.1412C224.738 71.1412 224.634 71.1029 224.557 71.0283C224.412 70.8868 224.422 70.6659 224.581 70.5362C225.344 69.9068 226.134 69.2836 226.926 68.6842C227.089 68.5601 227.335 68.5782 227.473 68.7253C227.612 68.8724 227.59 69.0926 227.426 69.2167C226.643 69.8106 225.862 70.4268 225.106 71.0492C225.031 71.1106 224.937 71.1412 224.843 71.1412ZM293.866 70.194C293.725 70.194 293.589 70.1243 293.52 70.003C293.053 69.1763 292.549 68.3649 292.023 67.5912C291.912 67.4267 291.97 67.2127 292.152 67.1123C292.335 67.0113 292.575 67.0635 292.687 67.2287C293.224 68.0178 293.737 68.8459 294.213 69.6886C294.311 69.8601 294.234 70.0699 294.043 70.157C293.985 70.1821 293.925 70.194 293.866 70.194ZM230.829 66.7025C230.711 66.7025 230.593 66.6537 230.518 66.5617C230.389 66.4069 230.426 66.1887 230.598 66.0737C231.425 65.5217 232.282 64.9752 233.142 64.4496C233.319 64.3423 233.561 64.382 233.681 64.5409C233.802 64.7006 233.757 64.9173 233.579 65.0254C232.727 65.5461 231.88 66.087 231.06 66.6335C230.992 66.6802 230.909 66.7025 230.829 66.7025ZM288.289 65.0414C288.248 65.0414 288.206 65.0358 288.165 65.0233C287.961 64.9613 287.852 64.764 287.922 64.5814C288.097 64.1185 288.262 63.6501 288.417 63.181C288.066 62.8241 287.708 62.4777 287.345 62.1445C287.196 62.0065 287.199 61.7862 287.353 61.6517C287.506 61.5179 287.752 61.52 287.902 61.658C288.16 61.8957 288.416 62.1396 288.668 62.3885C288.714 62.2372 288.758 62.0867 288.802 61.9361C288.855 61.75 289.065 61.635 289.275 61.6859C289.483 61.7339 289.608 61.9242 289.554 62.1104C289.468 62.4101 289.376 62.7105 289.28 63.0109C289.52 63.2598 289.754 63.5128 289.984 63.77C290.119 63.9199 290.092 64.1395 289.925 64.26C289.757 64.3799 289.514 64.3569 289.379 64.2071C289.259 64.0739 289.138 63.9408 289.016 63.8097C288.901 64.1436 288.781 64.4761 288.657 64.8065C288.602 64.9501 288.451 65.0414 288.289 65.0414ZM237.294 62.8402C237.161 62.8402 237.033 62.7795 236.959 62.6694C236.849 62.5042 236.911 62.2902 237.095 62.1919C237.984 61.7179 238.898 61.253 239.813 60.8104C239.998 60.7191 240.237 60.7818 240.339 60.9512C240.441 61.1205 240.37 61.3318 240.182 61.4238C239.276 61.8622 238.372 62.3223 237.492 62.7907C237.43 62.8248 237.361 62.8402 237.294 62.8402ZM244.166 59.5947C244.019 59.5947 243.879 59.5201 243.813 59.3926C243.724 59.2176 243.808 59.0106 244.003 58.9297C244.944 58.5394 245.906 58.1616 246.866 57.8068C247.065 57.7343 247.292 57.818 247.373 57.9964C247.454 58.1741 247.36 58.3777 247.161 58.4516C246.213 58.8022 245.26 59.1765 244.328 59.5627C244.276 59.585 244.22 59.5947 244.166 59.5947ZM284.12 59.4951C284.039 59.4951 283.958 59.4727 283.888 59.426C283.064 58.8775 282.204 58.37 281.33 57.919C281.144 57.8228 281.08 57.6102 281.187 57.443C281.294 57.275 281.532 57.2185 281.717 57.3147C282.617 57.7796 283.504 58.301 284.351 58.8663C284.524 58.9813 284.56 59.1988 284.431 59.3535C284.356 59.4463 284.238 59.4951 284.12 59.4951ZM290.079 58.2696C290.062 58.2696 290.044 58.2689 290.026 58.2669C289.814 58.2411 289.665 58.0654 289.694 57.8744C289.832 56.9578 289.928 56.0342 289.977 55.1295C289.987 54.9378 290.177 54.7872 290.384 54.7984C290.598 54.8081 290.763 54.9719 290.753 55.1636C290.702 56.0886 290.605 57.0317 290.463 57.9685C290.437 58.1428 290.27 58.2696 290.079 58.2696ZM192.523 57.9169C192.44 57.9169 192.357 57.8932 192.286 57.8451C192.115 57.7287 192.083 57.5099 192.213 57.3565C192.829 56.633 193.5 55.9032 194.206 55.1859C194.349 55.0409 194.596 55.0284 194.755 55.156C194.916 55.2835 194.931 55.5038 194.789 55.6481C194.095 56.3528 193.435 57.0707 192.83 57.781C192.755 57.8695 192.64 57.9169 192.523 57.9169ZM251.378 57.0129C251.215 57.0129 251.064 56.9209 251.009 56.7745C250.941 56.5919 251.052 56.3946 251.254 56.334C252.253 56.0363 253.26 55.7617 254.247 55.5184C254.458 55.4682 254.668 55.5763 254.725 55.7624C254.782 55.9478 254.66 56.1402 254.453 56.1904C253.477 56.4308 252.484 56.7013 251.499 56.9955C251.46 57.0073 251.419 57.0129 251.378 57.0129ZM277.299 56.2106C277.255 56.2106 277.212 56.2043 277.167 56.1897C276.224 55.8837 275.237 55.6195 274.233 55.4027C274.025 55.3574 273.896 55.1692 273.947 54.9817C273.996 54.7949 274.198 54.6792 274.415 54.7245C275.446 54.9468 276.461 55.2194 277.432 55.5338C277.634 55.5993 277.738 55.7986 277.665 55.9799C277.607 56.1228 277.459 56.2106 277.299 56.2106ZM258.894 55.271C258.711 55.271 258.547 55.1532 258.513 54.9845C258.475 54.7949 258.615 54.6136 258.826 54.5788C259.866 54.4094 260.91 54.2714 261.925 54.1682C262.134 54.1418 262.331 54.2832 262.356 54.4749C262.38 54.6659 262.227 54.8388 262.014 54.8604C261.015 54.9622 259.989 55.0981 258.964 55.2647C258.941 55.2689 258.918 55.271 258.894 55.271ZM269.725 54.7461C269.713 54.7461 269.702 54.7461 269.69 54.7447C268.695 54.6652 267.663 54.6248 266.621 54.6241C266.407 54.6234 266.233 54.4673 266.233 54.2749C266.233 54.0825 266.407 53.9271 266.621 53.9271C267.685 53.9278 268.742 53.9696 269.759 54.0504C269.973 54.0679 270.13 54.2365 270.112 54.4282C270.094 54.6095 269.924 54.7461 269.725 54.7461ZM197.742 52.7637C197.639 52.7637 197.536 52.7275 197.46 52.655C197.313 52.5156 197.32 52.2946 197.476 52.1622C198.201 51.5453 198.982 50.913 199.795 50.2829C199.957 50.1582 200.201 50.1721 200.344 50.3192C200.483 50.4649 200.466 50.6851 200.303 50.8106C199.498 51.4337 198.727 52.059 198.01 52.6682C197.934 52.7323 197.838 52.7637 197.742 52.7637ZM290.275 51.3159C290.076 51.3159 289.907 51.18 289.889 50.9988C289.796 50.0801 289.653 49.1628 289.461 48.274C289.421 48.0851 289.559 47.9018 289.769 47.8656C289.977 47.8314 290.183 47.952 290.224 48.1416C290.42 49.054 290.567 49.9936 290.662 50.9361C290.681 51.1277 290.524 51.2971 290.31 51.3145C290.298 51.3159 290.287 51.3159 290.275 51.3159ZM203.658 48.2503C203.543 48.2503 203.428 48.2043 203.351 48.1158C203.219 47.9639 203.249 47.745 203.42 47.6265C204.239 47.0542 205.067 46.4917 205.901 45.9348C206.071 45.8197 206.315 45.8511 206.444 46.0066C206.573 46.1606 206.536 46.3795 206.364 46.4945C205.535 47.0479 204.711 47.6077 203.895 48.1765C203.826 48.2259 203.742 48.2503 203.658 48.2503ZM288.601 44.5302C288.443 44.5302 288.294 44.4424 288.236 44.3009C287.969 43.6443 287.667 42.9905 287.34 42.3582C287.239 42.1638 287.134 41.9693 287.028 41.7762C286.932 41.604 287.011 41.3949 287.203 41.3085C287.394 41.2228 287.629 41.2925 287.723 41.4653C287.834 41.6633 287.94 41.8626 288.045 42.0627C288.383 42.7137 288.692 43.3857 288.967 44.0611C289.041 44.2423 288.937 44.4417 288.735 44.5079C288.691 44.5233 288.646 44.5302 288.601 44.5302ZM209.898 44.0974C209.778 44.0974 209.659 44.0472 209.583 43.9524C209.458 43.7962 209.497 43.5781 209.671 43.4658L212.195 41.8368C212.368 41.7253 212.611 41.7602 212.736 41.9177C212.861 42.0745 212.821 42.292 212.647 42.4042L210.125 44.0318C210.057 44.0764 209.977 44.0974 209.898 44.0974ZM216.24 40.0698C216.116 40.0698 215.994 40.0162 215.919 39.9172C215.798 39.7576 215.844 39.5408 216.021 39.4328C216.882 38.9086 217.749 38.3928 218.625 37.8916C218.804 37.7884 219.046 37.8351 219.161 37.9975C219.276 38.1599 219.223 38.3753 219.042 38.4785C218.174 38.9762 217.313 39.4878 216.459 40.0092C216.391 40.0503 216.315 40.0698 216.24 40.0698ZM284.877 38.4499C284.764 38.4499 284.653 38.406 284.576 38.3224C283.912 37.596 283.192 36.9506 282.438 36.4048C282.271 36.2835 282.245 36.0646 282.38 35.9148C282.515 35.7649 282.759 35.7419 282.926 35.8625C283.721 36.4389 284.479 37.1172 285.176 37.8804C285.312 38.0289 285.288 38.2492 285.123 38.3711C285.051 38.4234 284.964 38.4499 284.877 38.4499ZM222.836 36.3908C222.7 36.3908 222.567 36.326 222.496 36.2103C222.392 36.0416 222.46 35.8297 222.648 35.737C223.585 35.2735 224.52 34.8399 225.428 34.4482C225.622 34.3652 225.853 34.4377 225.946 34.6113C226.039 34.7849 225.958 34.9933 225.765 35.0762C224.87 35.4617 223.948 35.8897 223.024 36.3469C222.965 36.3769 222.9 36.3908 222.836 36.3908ZM278.665 34.3875C278.615 34.3875 278.564 34.3792 278.515 34.3604C277.658 34.0383 276.714 33.7386 275.623 33.4437C275.418 33.3887 275.302 33.1942 275.364 33.0102C275.426 32.8255 275.64 32.7209 275.848 32.7767C276.964 33.0785 277.934 33.3859 278.815 33.7177C279.013 33.7923 279.106 33.9965 279.023 34.1736C278.961 34.3074 278.817 34.3875 278.665 34.3875ZM229.885 33.4744C229.727 33.4744 229.579 33.388 229.521 33.2479C229.445 33.0674 229.548 32.8666 229.749 32.799C230.715 32.4762 231.712 32.1723 232.713 31.8956C232.921 31.8392 233.136 31.9423 233.198 32.1263C233.262 32.3104 233.147 32.5048 232.942 32.562C231.954 32.8345 230.972 33.1343 230.02 33.4521C229.976 33.4675 229.93 33.4744 229.885 33.4744ZM271.228 32.3975C271.199 32.3975 271.169 32.3947 271.14 32.3884C270.136 32.1765 269.127 31.9786 268.114 31.7945C267.903 31.7562 267.768 31.5722 267.81 31.384C267.853 31.1951 268.055 31.0773 268.269 31.1114C269.289 31.2976 270.305 31.4969 271.317 31.7102C271.526 31.7541 271.655 31.9423 271.606 32.1291C271.565 32.2894 271.405 32.3975 271.228 32.3975ZM237.335 31.5171C237.156 31.5171 236.995 31.4063 236.956 31.2432C236.91 31.055 237.043 30.8689 237.253 30.8284C238.264 30.6298 239.297 30.452 240.325 30.3008C240.534 30.2659 240.736 30.3977 240.771 30.588C240.806 30.7776 240.663 30.9574 240.451 30.9881C239.436 31.1379 238.416 31.3129 237.419 31.5088C237.391 31.5143 237.363 31.5171 237.335 31.5171ZM263.602 31.0724C263.583 31.0724 263.562 31.071 263.544 31.0689C262.52 30.9302 261.487 30.8068 260.476 30.7016C260.263 30.6793 260.11 30.5064 260.135 30.3154C260.159 30.1244 260.359 29.9843 260.566 30.0094C261.587 30.1147 262.627 30.2394 263.66 30.3795C263.872 30.4088 264.019 30.5859 263.987 30.7762C263.956 30.9483 263.791 31.0724 263.602 31.0724ZM245.01 30.466C244.811 30.466 244.641 30.3301 244.624 30.1488C244.605 29.9571 244.762 29.7878 244.976 29.7703C245.997 29.6874 247.047 29.624 248.094 29.5821C248.325 29.5626 248.49 29.7229 248.498 29.9146C248.508 30.107 248.342 30.2701 248.128 30.2785C247.093 30.3203 246.056 30.3823 245.045 30.4646C245.033 30.466 245.021 30.466 245.01 30.466ZM255.877 30.3377C255.87 30.3377 255.862 30.3377 255.855 30.337C254.823 30.2827 253.783 30.2457 252.764 30.2283C252.55 30.2248 252.379 30.0659 252.383 29.8728C252.388 29.6804 252.541 29.5347 252.78 29.5312C253.808 29.5494 254.859 29.5863 255.901 29.6414C256.114 29.6525 256.278 29.8177 256.266 30.0094C256.253 30.1948 256.082 30.3377 255.877 30.3377Z" fill="#50448C"/>
<path d="M194.267 217.011H93.973C90.2684 217.011 87.2654 214.317 87.2654 210.993V34.2466C87.2654 30.9231 90.2684 28.229 93.973 28.229H194.267C197.972 28.229 200.975 30.9231 200.975 34.2466V210.992C200.975 214.317 197.972 217.011 194.267 217.011Z" fill="url(#paint1_linear_17888_31197)"/>
<path d="M93.9738 212.828C92.8456 212.828 91.9272 212.005 91.9272 210.993V34.2474C91.9272 33.2353 92.8456 32.4121 93.9738 32.4121H194.267C195.395 32.4121 196.313 33.2353 196.313 34.2474V210.993C196.313 212.005 195.395 212.829 194.267 212.829L93.9738 212.828Z" fill="url(#paint2_linear_17888_31197)"/>
<path d="M66.8107 179.631C66.7532 179.631 66.6942 179.619 66.6382 179.595C65.7097 179.181 64.782 178.73 63.8831 178.253C63.6981 178.155 63.6375 177.941 63.7463 177.775C63.8559 177.611 64.0944 177.556 64.2785 177.653C65.162 178.122 66.0718 178.565 66.984 178.97C67.1759 179.056 67.2551 179.265 67.1596 179.437C67.092 179.56 66.9537 179.631 66.8107 179.631ZM60.2033 175.982C60.1225 175.982 60.0409 175.96 59.971 175.912C59.1381 175.354 58.3168 174.761 57.5282 174.152C57.3658 174.025 57.3479 173.806 57.4878 173.659C57.6276 173.514 57.8731 173.498 58.0355 173.623C58.8102 174.223 59.6175 174.805 60.4356 175.354C60.6073 175.469 60.6431 175.688 60.5141 175.842C60.4387 175.934 60.3214 175.982 60.2033 175.982ZM54.4195 171.342C54.3161 171.342 54.2128 171.305 54.1359 171.232C53.4234 170.551 52.7288 169.839 52.0722 169.117C51.937 168.967 51.9619 168.748 52.1282 168.626C52.2944 168.505 52.5392 168.528 52.6751 168.676C53.3208 169.387 54.003 170.086 54.7031 170.756C54.8499 170.896 54.8421 171.117 54.686 171.248C54.6106 171.311 54.515 171.342 54.4195 171.342ZM49.6232 165.87C49.4965 165.87 49.3722 165.814 49.2976 165.712C48.7258 164.926 48.1803 164.116 47.6776 163.305C47.5735 163.137 47.6411 162.924 47.8284 162.831C48.0172 162.736 48.2526 162.798 48.3567 162.965C48.8509 163.763 49.3862 164.558 49.948 165.33C50.0653 165.492 50.0148 165.708 49.8353 165.813C49.7693 165.852 49.6954 165.87 49.6232 165.87ZM45.9768 159.725C45.8253 159.725 45.6816 159.645 45.6186 159.511C45.4182 159.084 45.2263 158.653 45.0421 158.217C44.8556 157.774 44.6777 157.329 44.5083 156.881C44.44 156.699 44.5487 156.501 44.7515 156.439C44.9551 156.38 45.1758 156.475 45.2441 156.657C45.4104 157.097 45.5844 157.535 45.7686 157.97C45.9488 158.397 46.1377 158.821 46.3342 159.241C46.4174 159.418 46.3241 159.622 46.1268 159.697C46.0778 159.716 46.0273 159.725 45.9768 159.725ZM43.5962 153.099C43.4206 153.099 43.2613 152.992 43.2185 152.831C42.9855 151.951 42.7695 151.027 42.5783 150.085C42.5395 149.896 42.6793 149.715 42.8907 149.68C43.102 149.651 43.304 149.771 43.3429 149.96C43.5317 150.89 43.7446 151.802 43.9745 152.671C44.0243 152.858 43.8953 153.046 43.6863 153.09C43.656 153.097 43.6257 153.099 43.5962 153.099ZM42.2792 146.234C42.0849 146.234 41.9171 146.102 41.8938 145.925C41.778 145.037 41.6747 144.1 41.5869 143.139C41.569 142.948 41.7283 142.779 41.942 142.764C42.1619 142.75 42.3437 142.891 42.3615 143.082C42.4486 144.034 42.5511 144.964 42.6653 145.845C42.6902 146.036 42.5371 146.209 42.325 146.232C42.3095 146.233 42.2947 146.234 42.2792 146.234ZM41.6832 139.285C41.4766 139.285 41.3049 139.14 41.2955 138.952C41.2481 138.021 41.2116 137.09 41.1805 136.16C41.1743 135.968 41.3429 135.807 41.5574 135.801C41.7617 135.799 41.9505 135.946 41.9575 136.139C41.9878 137.065 42.0251 137.992 42.0717 138.92C42.0818 139.112 41.9156 139.276 41.7011 139.283C41.6957 139.285 41.6895 139.285 41.6832 139.285ZM41.4727 132.318C41.2598 132.318 41.0865 132.164 41.0842 131.973C41.0787 131.507 41.0764 131.041 41.0764 130.574C41.0764 130.108 41.0787 129.643 41.085 129.177C41.0865 128.985 41.2652 128.796 41.4773 128.833C41.6918 128.835 41.8643 128.992 41.8619 129.185C41.8565 129.648 41.8534 130.111 41.8534 130.574C41.8534 131.038 41.8557 131.502 41.8612 131.966C41.8635 132.158 41.691 132.316 41.4766 132.318C41.4766 132.318 41.4742 132.318 41.4727 132.318ZM41.6234 125.349C41.6164 125.349 41.6086 125.349 41.6017 125.349C41.3872 125.338 41.2233 125.174 41.2357 124.982C41.2955 124.022 41.3724 123.082 41.4657 122.188C41.4859 121.997 41.6778 121.859 41.8884 121.873C42.102 121.891 42.259 122.061 42.2396 122.253C42.1471 123.139 42.0702 124.07 42.0111 125.02C41.9995 125.206 41.8278 125.349 41.6234 125.349ZM42.4447 118.422C42.4237 118.422 42.4027 118.42 42.381 118.417C42.1696 118.385 42.0259 118.205 42.0609 118.016C42.2333 117.08 42.433 116.153 42.6552 115.26C42.7019 115.074 42.9109 114.958 43.1191 114.996C43.3289 115.039 43.4602 115.225 43.4136 115.413C43.1952 116.292 42.9979 117.206 42.8277 118.129C42.7959 118.3 42.6312 118.422 42.4447 118.422ZM44.2636 111.652C44.2232 111.652 44.1828 111.646 44.1416 111.634C43.938 111.574 43.8269 111.376 43.8945 111.194C44.2224 110.303 44.5899 109.416 44.9877 108.556C45.0701 108.379 45.297 108.294 45.4959 108.368C45.694 108.442 45.788 108.646 45.7057 108.824C45.3148 109.667 44.9543 110.538 44.6326 111.413C44.5783 111.559 44.4268 111.652 44.2636 111.652ZM84.9423 109.974C84.9314 109.974 84.9213 109.973 84.9104 109.973C83.8771 109.897 82.8258 109.738 81.7846 109.501C81.5764 109.453 81.4513 109.264 81.5042 109.077C81.557 108.89 81.7676 108.776 81.9766 108.825C82.975 109.053 83.9835 109.206 84.9734 109.278C85.187 109.294 85.3463 109.462 85.3292 109.654C85.3121 109.837 85.142 109.974 84.9423 109.974ZM89.5762 109.72C89.4021 109.72 89.2444 109.615 89.2001 109.457C89.1481 109.27 89.2739 109.08 89.4822 109.034C90.0478 108.906 90.5054 108.73 90.8838 108.496C91.2296 108.281 91.5295 108.003 91.7743 107.672C91.8924 107.511 92.1332 107.467 92.3127 107.573C92.4914 107.68 92.5404 107.896 92.4223 108.056C92.1223 108.462 91.7541 108.802 91.3259 109.068C90.8699 109.351 90.3283 109.561 89.6717 109.709C89.6399 109.717 89.608 109.72 89.5762 109.72ZM77.5276 108.038C77.4693 108.038 77.4095 108.026 77.3535 108.001C76.4305 107.585 75.5144 107.104 74.631 106.57C74.4523 106.463 74.4057 106.246 74.5253 106.087C74.645 105.927 74.8866 105.884 75.0646 105.992C75.9216 106.508 76.8097 106.975 77.7032 107.378C77.8951 107.464 77.972 107.673 77.8757 107.845C77.8065 107.968 77.6698 108.038 77.5276 108.038ZM47.3847 105.28C47.3194 105.28 47.2542 105.266 47.1936 105.236C47.0071 105.141 46.9411 104.928 47.0467 104.76C47.5665 103.934 48.1259 103.13 48.7079 102.369C48.8291 102.209 49.0715 102.169 49.2479 102.279C49.4251 102.387 49.4701 102.604 49.3481 102.763C48.7786 103.508 48.2324 104.295 47.7235 105.104C47.652 105.217 47.5207 105.28 47.3847 105.28ZM92.8853 104.177C92.6934 104.177 92.5264 104.05 92.5007 103.874C92.3702 102.985 92.1107 102.111 91.7292 101.276C91.6476 101.098 91.7424 100.894 91.9413 100.822C92.1387 100.749 92.3663 100.834 92.4479 101.011C92.855 101.902 93.1316 102.834 93.2715 103.783C93.2995 103.974 93.1495 104.149 92.9374 104.174C92.9195 104.176 92.9024 104.177 92.8853 104.177ZM71.2247 104.004C71.1276 104.004 71.0305 103.972 70.9551 103.906C70.7143 103.699 70.4781 103.487 70.2465 103.273C69.7578 102.82 69.2737 102.339 68.806 101.846C68.6669 101.699 68.6871 101.479 68.8511 101.354C69.0158 101.23 69.2598 101.248 69.3988 101.395C69.8549 101.877 70.3281 102.346 70.8052 102.788C71.0297 102.997 71.2597 103.202 71.4936 103.404C71.6482 103.537 71.6529 103.758 71.5045 103.897C71.4283 103.968 71.3265 104.004 71.2247 104.004ZM51.9269 99.6439C51.8321 99.6439 51.7381 99.6132 51.6635 99.5511C51.5058 99.4201 51.4965 99.1998 51.6418 99.0583C52.362 98.3592 53.1204 97.6963 53.8973 97.0885C54.0574 96.9609 54.3045 96.9763 54.4451 97.1219C54.5865 97.2669 54.5694 97.4872 54.4078 97.6134C53.6526 98.2052 52.9137 98.8506 52.2121 99.5316C52.1359 99.6062 52.031 99.6439 51.9269 99.6439ZM66.3142 98.6213C66.1884 98.6213 66.0648 98.5662 65.9902 98.4652C65.4394 97.7186 64.8869 96.9135 64.3469 96.0736C64.2397 95.907 64.3034 95.6937 64.4899 95.5975C64.6764 95.5013 64.9133 95.5592 65.0206 95.7258C65.552 96.5539 66.0967 97.3457 66.639 98.0804C66.7571 98.2407 66.7082 98.4575 66.5295 98.5634C66.4619 98.6025 66.388 98.6213 66.3142 98.6213ZM89.5964 97.9849C89.4899 97.9849 89.3843 97.9459 89.3074 97.8692C88.6547 97.2174 87.9041 96.5971 87.0766 96.0255C86.9065 95.9077 86.8754 95.6895 87.0059 95.5369C87.1365 95.3842 87.3797 95.3549 87.5506 95.4734C88.4146 96.0701 89.2001 96.7198 89.8846 97.4036C90.0284 97.5465 90.0144 97.7667 89.8551 97.8957C89.7821 97.9556 89.6888 97.9849 89.5964 97.9849ZM57.912 95.2371C57.7799 95.2371 57.6509 95.1772 57.5787 95.0678C57.4683 94.9033 57.5274 94.6893 57.7115 94.5896C58.1124 94.3735 58.5204 94.1672 58.936 93.9706C59.4457 93.7294 59.9756 93.4994 60.5125 93.2868C60.7107 93.2094 60.9391 93.2889 61.0253 93.4646C61.1116 93.6402 61.023 93.8465 60.8272 93.9246C60.3074 94.1302 59.7931 94.354 59.2989 94.5875C58.8956 94.7778 58.5009 94.9779 58.1124 95.187C58.0487 95.2211 57.9796 95.2371 57.912 95.2371ZM83.3269 93.9455C83.2726 93.9455 83.2166 93.9351 83.1638 93.9128C82.2524 93.5329 81.2936 93.1983 80.3146 92.9195C80.1103 92.8609 79.9968 92.6651 80.0621 92.4817C80.1266 92.2984 80.3441 92.1959 80.55 92.2552C81.5601 92.5431 82.55 92.8881 83.4917 93.2812C83.6867 93.3621 83.7706 93.5691 83.6797 93.7441C83.6137 93.8709 83.473 93.9455 83.3269 93.9455ZM65.0781 92.6121C64.9032 92.6121 64.7447 92.5054 64.7012 92.3465C64.6499 92.1597 64.7774 91.9708 64.9856 91.9255C65.9918 91.7038 67.0329 91.5282 68.0787 91.402C68.2909 91.3755 68.4867 91.5108 68.5154 91.701C68.5442 91.892 68.3942 92.067 68.1821 92.0928C67.1635 92.2148 66.1495 92.3862 65.1705 92.6016C65.1394 92.6093 65.1084 92.6121 65.0781 92.6121ZM62.5024 92.5521C62.3586 92.5521 62.2211 92.4803 62.1535 92.3577C61.6951 91.5205 61.2522 90.6757 60.8194 89.8288C60.7301 89.6538 60.8156 89.4468 61.0114 89.3666C61.2064 89.2851 61.4364 89.3639 61.5265 89.5381C61.9562 90.3795 62.3959 91.2187 62.8512 92.0496C62.946 92.2224 62.8668 92.4309 62.6741 92.5159C62.6181 92.5403 62.5599 92.5521 62.5024 92.5521ZM75.8804 92.0517C75.8656 92.0517 75.8509 92.051 75.8361 92.0496L75.7063 92.0363C74.7312 91.9373 73.7445 91.8795 72.774 91.8635C72.5596 91.86 72.3886 91.701 72.3925 91.5087C72.3964 91.3163 72.5526 91.1462 72.788 91.1664C73.7825 91.1831 74.7942 91.2431 75.7941 91.3442L75.9239 91.3581C76.1368 91.3797 76.2899 91.5526 76.2658 91.7436C76.2432 91.9206 76.0754 92.0517 75.8804 92.0517ZM59.2818 86.209C59.1311 86.209 58.9881 86.1303 58.9252 85.9978C58.5157 85.1419 58.1148 84.2803 57.731 83.4132C57.6517 83.2341 57.7496 83.0319 57.9485 82.9608C58.1466 82.8904 58.3735 82.9769 58.4528 83.156C58.8335 84.0168 59.2321 84.8728 59.6384 85.7232C59.7231 85.9002 59.6322 86.1052 59.4349 86.1812C59.3851 86.1993 59.3331 86.209 59.2818 86.209ZM56.508 79.7001C56.3433 79.7001 56.191 79.606 56.1381 79.4575C55.8087 78.5346 55.5189 77.6257 55.2765 76.7564C55.2244 76.5696 55.3511 76.3807 55.5585 76.334C55.7691 76.2873 55.9781 76.4003 56.0294 76.5871C56.2679 77.4423 56.553 78.3366 56.8778 79.2449C56.9431 79.4282 56.8304 79.6248 56.6261 79.6833C56.5872 79.6945 56.5468 79.7001 56.508 79.7001ZM54.7955 72.9122C54.6013 72.9122 54.4335 72.7826 54.4101 72.6049C54.2843 71.6541 54.212 70.7068 54.1957 69.7888C54.1926 69.5964 54.3635 69.4382 54.578 69.4347C54.7963 69.4033 54.9688 69.5853 54.9727 69.7776C54.9882 70.6713 55.0581 71.5948 55.1817 72.5219C55.2073 72.7129 55.055 72.8865 54.8421 72.9095C54.8266 72.9115 54.8111 72.9122 54.7955 72.9122Z" fill="#50448C"/>
<mask id="mask0_17888_31197" style="mask-type:luminance" maskUnits="userSpaceOnUse" x="44" y="14" width="153" height="210">
<path d="M55.3804 209.392L44.7024 17.2401C86.0509 6.87512 194.266 32.4113 194.266 32.4113C195.394 32.4113 196.312 33.2345 196.312 34.2466V210.992C196.312 212.004 195.394 212.828 194.266 212.828C194.267 212.828 114.427 238.446 55.3804 209.392Z" fill="white"/>
</mask>
<g mask="url(#mask0_17888_31197)">
<path d="M179.284 138.863L164.897 171.943C162.788 176.792 165.913 182.2 171.547 183.448C176.162 184.47 180.916 182.312 182.732 178.37L199.226 142.572C199.226 142.572 184.509 133.332 179.284 138.863Z" fill="url(#paint3_linear_17888_31197)"/>
<path d="M110.044 55.3735L140.478 80.9271C157.773 95.4479 178.93 105.747 201.928 110.84L207.612 112.099C209.871 122.867 206.812 133.985 199.226 142.573L193.543 141.314C170.545 136.221 146.477 136.505 123.636 142.139L83.4426 152.052L110.044 55.3735Z" fill="url(#paint4_linear_17888_31197)"/>
<path d="M86.4114 101.425C79.0659 128.122 77.7372 150.788 83.4441 152.052C89.1503 153.316 99.7312 132.698 107.077 106.001C114.422 79.3042 115.751 56.6377 110.045 55.374C104.338 54.1102 93.757 74.7274 86.4114 101.425Z" fill="url(#paint5_linear_17888_31197)"/>
<mask id="mask1_17888_31197" style="mask-type:luminance" maskUnits="userSpaceOnUse" x="79" y="55" width="35" height="98">
<path d="M107.078 105.987C114.422 79.2895 115.749 56.6223 110.042 55.3588C104.335 54.0954 93.7551 74.7141 86.411 101.412C79.0669 128.11 77.7397 150.777 83.4466 152.041C89.1536 153.304 99.7335 132.685 107.078 105.987Z" fill="white"/>
</mask>
<g mask="url(#mask1_17888_31197)">
<path d="M98.8468 115.515L104.547 116.778C111.125 118.235 117.774 114.632 119.398 108.73C121.022 102.828 117.006 96.8633 110.427 95.4065L104.727 94.1441C98.1483 92.6873 91.4997 96.2903 89.8758 102.192C88.2519 108.093 92.2681 114.059 98.8468 115.515Z" fill="url(#paint6_radial_17888_31197)"/>
</g>
</g>
<path d="M152.772 58.1391C152.567 58.1391 152.395 57.9941 152.385 57.808C152.333 56.8865 152.259 55.9553 152.164 55.0414C152.145 54.8498 152.302 54.6797 152.515 54.6623C152.724 54.6434 152.918 54.7849 152.938 54.9773C153.034 55.9009 153.109 56.8419 153.16 57.7739C153.172 57.9662 153.006 58.1293 152.792 58.1391C152.786 58.1391 152.779 58.1391 152.772 58.1391ZM151.969 51.2084C151.782 51.2084 151.616 51.0864 151.586 50.915C151.424 49.9942 151.237 49.0769 151.033 48.1874C150.989 47.9992 151.125 47.8145 151.335 47.7755C151.535 47.7392 151.751 47.8577 151.793 48.0466C152.001 48.9465 152.189 49.8743 152.354 50.8055C152.388 50.9958 152.244 51.1742 152.031 51.2042C152.01 51.207 151.989 51.2084 151.969 51.2084ZM56.8475 44.965C56.8179 44.965 56.7884 44.9622 56.7589 44.9559C56.5499 44.912 56.4193 44.7252 56.4683 44.5377C56.5211 44.3335 56.5771 44.1299 56.6346 43.9271C56.6874 43.7403 56.898 43.6267 57.107 43.6755C57.3152 43.7229 57.4403 43.9125 57.3875 44.0993C57.3315 44.2972 57.2771 44.4959 57.2251 44.6952C57.1839 44.8563 57.0238 44.965 56.8475 44.965ZM150.316 44.3997C150.146 44.3997 149.99 44.2986 149.942 44.1453C149.664 43.2537 149.358 42.3622 149.035 41.4965C148.967 41.3139 149.076 41.1166 149.28 41.0553C149.483 40.9946 149.703 41.0922 149.772 41.2748C150.099 42.1517 150.408 43.0544 150.69 43.9571C150.748 44.1425 150.628 44.3349 150.421 44.3864C150.386 44.3955 150.351 44.3997 150.316 44.3997ZM58.434 40.3819C58.3867 40.3819 58.3393 40.3743 58.2934 40.3582C58.0937 40.2885 57.9943 40.0864 58.072 39.9073C58.4465 39.0422 58.8668 38.1737 59.3214 37.3254C59.4146 37.1518 59.6461 37.0786 59.8396 37.1623C60.0331 37.2459 60.1147 37.4537 60.0214 37.6272C59.5762 38.4588 59.1636 39.3106 58.7961 40.1589C58.7363 40.2969 58.5894 40.3819 58.434 40.3819ZM147.747 37.8238C147.596 37.8238 147.453 37.7443 147.39 37.6126C146.984 36.7608 146.548 35.9153 146.096 35.1004C146 34.9283 146.078 34.7192 146.27 34.6334C146.463 34.547 146.696 34.6181 146.79 34.7896C147.25 35.6169 147.693 36.4743 148.104 37.3386C148.188 37.5157 148.097 37.7206 147.9 37.7966C147.85 37.8147 147.798 37.8238 147.747 37.8238ZM61.9235 34.1657C61.8528 34.1657 61.7813 34.149 61.7176 34.1127C61.5357 34.0103 61.4806 33.7949 61.5948 33.6325C62.1449 32.8455 62.7377 32.062 63.3554 31.305C63.4821 31.1496 63.7253 31.1161 63.8985 31.2298C64.0718 31.3434 64.1091 31.5616 63.9825 31.717C63.3756 32.4607 62.7937 33.2296 62.2537 34.0033C62.1791 34.1085 62.0532 34.1657 61.9235 34.1657ZM144.167 31.6417C144.038 31.6417 143.911 31.5839 143.838 31.4779C143.291 30.693 142.712 29.9221 142.117 29.1867C141.991 29.0306 142.03 28.8124 142.203 28.6995C142.377 28.5859 142.62 28.6214 142.746 28.7769C143.352 29.5255 143.941 30.3104 144.497 31.1092C144.61 31.2723 144.555 31.4877 144.373 31.5894C144.309 31.625 144.238 31.6417 144.167 31.6417ZM66.6141 28.62C66.5208 28.62 66.4276 28.5908 66.3538 28.5301C66.1945 28.4005 66.1821 28.1809 66.3266 28.038C67.022 27.3493 67.7555 26.6704 68.5084 26.0194C68.663 25.8862 68.9093 25.8904 69.0577 26.0284C69.2069 26.1671 69.2022 26.3874 69.0476 26.5212C68.3079 27.1611 67.5861 27.8289 66.9023 28.5064C66.8254 28.5817 66.7205 28.62 66.6141 28.62ZM139.488 26.0898C139.384 26.0898 139.279 26.0514 139.202 25.9768C138.506 25.2944 137.777 24.6364 137.036 24.0195C136.878 23.8885 136.869 23.6682 137.015 23.5274C137.16 23.3859 137.406 23.3769 137.564 23.5086C138.321 24.138 139.064 24.8107 139.774 25.5063C139.92 25.6485 139.909 25.8688 139.75 25.9984C139.676 26.0591 139.582 26.0898 139.488 26.0898ZM72.2907 23.8711C72.1757 23.8711 72.0622 23.8258 71.9853 23.7386C71.8525 23.5874 71.8812 23.3678 72.0498 23.2493C72.8656 22.6729 73.7157 22.1131 74.575 21.5841C74.7529 21.476 74.9938 21.5158 75.115 21.6747C75.2362 21.8336 75.1911 22.0504 75.014 22.1591C74.1686 22.6791 73.3326 23.2298 72.5308 23.7965C72.4593 23.8467 72.3746 23.8711 72.2907 23.8711ZM133.694 21.4746C133.616 21.4746 133.537 21.4537 133.468 21.4098C132.635 20.8773 131.768 20.374 130.891 19.9133C130.706 19.8157 130.644 19.6024 130.752 19.4365C130.861 19.2699 131.098 19.2148 131.284 19.3117C132.181 19.7829 133.068 20.2987 133.92 20.8424C134.095 20.9539 134.135 21.1714 134.011 21.3283C133.935 21.4238 133.816 21.4746 133.694 21.4746ZM78.7668 20.0338C78.6293 20.0338 78.4956 19.9683 78.4249 19.8526C78.3224 19.6839 78.3915 19.472 78.5795 19.3793C78.902 19.2211 79.2252 19.067 79.5515 18.9165C80.1537 18.6377 80.7628 18.37 81.3774 18.1142C81.5732 18.0333 81.8032 18.1093 81.8934 18.2836C81.9835 18.4578 81.8988 18.6649 81.7045 18.7464C81.1001 18.998 80.501 19.2615 79.9074 19.5355C79.5873 19.6832 79.2695 19.8359 78.9525 19.9906C78.8934 20.0199 78.8297 20.0338 78.7668 20.0338ZM126.923 18.0863C126.872 18.0863 126.821 18.0772 126.771 18.0584C125.849 17.7057 124.882 17.3732 123.896 17.07C123.693 17.0073 123.585 16.8093 123.654 16.6274C123.724 16.4455 123.945 16.35 124.148 16.4106C125.152 16.7194 126.137 17.0582 127.076 17.4171C127.274 17.4924 127.365 17.6974 127.281 17.8744C127.218 18.0068 127.074 18.0863 126.923 18.0863ZM85.8536 17.1976C85.6936 17.1976 85.5444 17.1091 85.4877 16.9662C85.4162 16.7849 85.5211 16.5856 85.7231 16.5207C86.6966 16.2099 87.6989 15.9199 88.7028 15.6585C88.9095 15.6041 89.1247 15.7115 89.1838 15.8962C89.2436 16.0809 89.1247 16.2747 88.9188 16.3277C87.9305 16.5849 86.9429 16.8707 85.9841 17.1774C85.9414 17.1906 85.8971 17.1976 85.8536 17.1976ZM119.547 15.9241C119.516 15.9241 119.485 15.9213 119.455 15.9143C118.482 15.7031 117.467 15.5079 116.435 15.3337C116.225 15.2981 116.086 15.1155 116.126 14.9266C116.166 14.7377 116.366 14.6136 116.58 14.6492C117.623 14.8255 118.651 15.0235 119.638 15.2375C119.847 15.2828 119.975 15.471 119.924 15.6585C119.881 15.8167 119.722 15.9241 119.547 15.9241ZM93.339 15.3504C93.1572 15.3504 92.9956 15.2361 92.9583 15.0702C92.9164 14.8813 93.0531 14.698 93.2637 14.6603C94.2776 14.4791 95.3149 14.3202 96.3475 14.1877C96.5596 14.1585 96.757 14.293 96.7873 14.4833C96.8176 14.6736 96.6699 14.8506 96.4578 14.8778C95.4384 15.0082 94.4151 15.165 93.4159 15.3434C93.3895 15.3483 93.3639 15.3504 93.339 15.3504ZM111.899 14.7154C111.885 14.7154 111.87 14.7147 111.855 14.7133C110.833 14.6088 109.798 14.5258 108.778 14.4673C108.565 14.4547 108.402 14.2895 108.416 14.0971C108.43 13.9047 108.609 13.7639 108.828 13.7716C109.86 13.8309 110.907 13.9152 111.942 14.0205C112.155 14.0421 112.308 14.2149 112.284 14.4059C112.262 14.5837 112.095 14.7154 111.899 14.7154ZM101.038 14.4568C100.835 14.4568 100.664 14.3146 100.65 14.1299C100.637 13.9382 100.8 13.7723 101.014 13.7605C102.047 13.7026 103.098 13.6685 104.14 13.6587C104.341 13.6678 104.53 13.8106 104.532 14.0037C104.535 14.1961 104.363 14.3536 104.148 14.3557C103.12 14.3662 102.082 14.3996 101.061 14.4568C101.054 14.4568 101.047 14.4568 101.038 14.4568Z" fill="#50448C"/>
<path d="M193.181 84.2295C203.927 84.2295 212.639 76.4141 212.639 66.7734C212.639 57.1327 203.927 49.3174 193.181 49.3174C182.434 49.3174 173.723 57.1327 173.723 66.7734C173.723 76.4141 182.434 84.2295 193.181 84.2295Z" fill="url(#paint7_linear_17888_31197)"/>
<path d="M193.181 80.9567C201.912 80.9567 208.991 74.6066 208.991 66.7733C208.991 58.94 201.912 52.5898 193.181 52.5898C184.449 52.5898 177.371 58.94 177.371 66.7733C177.371 74.6066 184.449 80.9567 193.181 80.9567Z" fill="url(#paint8_linear_17888_31197)"/>
<path d="M193.181 59.2236L195.915 64.1942L202.03 64.991L197.605 68.8603L198.649 74.323L193.181 71.7439L187.712 74.323L188.757 68.8603L184.332 64.991L190.447 64.1942L193.181 59.2236Z" fill="url(#paint9_linear_17888_31197)"/>
<path d="M151.63 68.2697C157.199 68.2697 161.713 64.2196 161.713 59.2235C161.713 54.2274 157.199 50.1772 151.63 50.1772C146.06 50.1772 141.546 54.2274 141.546 59.2235C141.546 64.2196 146.06 68.2697 151.63 68.2697Z" fill="url(#paint10_linear_17888_31197)"/>
<path d="M151.63 60.8777C150.858 60.8777 150.233 60.3166 150.233 59.6251V54.8859C150.233 54.1937 150.859 53.6333 151.63 53.6333C152.401 53.6333 153.026 54.1944 153.026 54.8859V59.6251C153.026 60.3173 152.4 60.8777 151.63 60.8777Z" fill="url(#paint11_linear_17888_31197)"/>
<path d="M153.026 63.5607C153.026 64.2529 152.4 64.8133 151.63 64.8133C150.858 64.8133 150.233 64.2522 150.233 63.5607C150.233 62.8692 150.859 62.3081 151.63 62.3081C152.4 62.3081 153.026 62.8685 153.026 63.5607Z" fill="url(#paint12_linear_17888_31197)"/>
<path d="M235.141 176.24C242.028 176.24 247.611 171.231 247.611 165.053C247.611 158.875 242.028 153.866 235.141 153.866C228.255 153.866 222.672 158.875 222.672 165.053C222.672 171.231 228.255 176.24 235.141 176.24Z" fill="url(#paint13_linear_17888_31197)"/>
<path d="M235.141 174.46C240.932 174.46 245.627 170.248 245.627 165.053C245.627 159.858 240.932 155.646 235.141 155.646C229.35 155.646 224.656 159.858 224.656 165.053C224.656 170.248 229.35 174.46 235.141 174.46Z" fill="url(#paint14_linear_17888_31197)"/>
<path d="M236.144 170.259V171.849H234.561V170.301C232.994 170.215 231.49 169.776 230.62 169.165L231.49 167.433C232.282 167.958 233.421 168.342 234.561 168.441V166.069C232.804 165.686 230.842 165.161 230.842 163.13C230.842 161.625 232.06 160.333 234.561 160.078V158.501H236.144V160.049C237.33 160.134 238.486 160.418 239.356 160.915L238.566 162.662C237.759 162.25 236.935 162.009 236.144 161.923V164.337C237.901 164.706 239.832 165.232 239.832 167.234C239.831 168.711 238.628 169.989 236.144 170.259ZM234.561 163.983V161.966C233.723 162.136 233.389 162.548 233.389 163.017C233.389 163.514 233.864 163.784 234.561 163.983ZM237.283 167.404C237.283 166.907 236.824 166.638 236.144 166.425V168.384C236.935 168.228 237.283 167.859 237.283 167.404Z" fill="#FFC431"/>
<path d="M264.633 99.7435C274.264 99.7435 282.072 92.7392 282.072 84.099C282.072 75.4588 274.264 68.4546 264.633 68.4546C255.002 68.4546 247.195 75.4588 247.195 84.099C247.195 92.7392 255.002 99.7435 264.633 99.7435Z" fill="url(#paint15_linear_17888_31197)"/>
<path d="M264.633 97.2531C272.731 97.2531 279.296 91.3639 279.296 84.0992C279.296 76.8345 272.731 70.9453 264.633 70.9453C256.536 70.9453 249.971 76.8345 249.971 84.0992C249.971 91.3639 256.536 97.2531 264.633 97.2531Z" fill="url(#paint16_linear_17888_31197)"/>
<path d="M269.902 86.5921L272.182 88.4986C270.721 90.1073 268.508 90.9807 265.807 90.9807C261.89 90.9807 258.79 88.9949 257.773 85.9969H255.271V84.3288H257.44C257.418 84.1504 257.418 83.9713 257.418 83.7928C257.418 83.6144 257.418 83.4352 257.44 83.2561H255.271V81.5881H257.773C258.79 78.5894 261.89 76.6035 265.807 76.6035C268.508 76.6035 270.721 77.4769 272.182 79.0662L269.902 80.9726C268.84 79.8998 267.533 79.3443 265.984 79.3443C264.014 79.3443 262.421 80.1982 261.601 81.5881H267.201V83.2561H261.048C261.026 83.4352 261.026 83.6137 261.026 83.7928C261.026 83.9713 261.026 84.1504 261.048 84.3288H267.201V85.9969H261.601C262.421 87.3868 264.013 88.2406 265.984 88.2406C267.533 88.2406 268.84 87.6844 269.902 86.5921Z" fill="#FFC431"/>
<path d="M40.718 150.903C50.3491 150.903 58.1566 143.899 58.1566 135.259C58.1566 126.619 50.3491 119.614 40.718 119.614C31.087 119.614 23.2795 126.619 23.2795 135.259C23.2795 143.899 31.087 150.903 40.718 150.903Z" fill="url(#paint17_linear_17888_31197)"/>
<path d="M40.718 148.413C48.8158 148.413 55.3804 142.524 55.3804 135.259C55.3804 127.994 48.8158 122.105 40.718 122.105C32.6202 122.105 26.0557 127.994 26.0557 135.259C26.0557 142.524 32.6202 148.413 40.718 148.413Z" fill="url(#paint18_linear_17888_31197)"/>
<path d="M31.2893 131.676C31.2893 129.333 32.8829 127.844 35.1408 127.844C37.3979 127.844 38.9697 129.313 38.9697 131.676C38.9697 134.04 37.3987 135.508 35.1408 135.508C32.8829 135.508 31.2893 134.02 31.2893 131.676ZM36.7561 131.676C36.7561 130.187 36.1143 129.472 35.1408 129.472C34.1882 129.472 33.5247 130.207 33.5247 131.676C33.5247 133.145 34.1882 133.88 35.1408 133.88C36.1143 133.88 36.7561 133.165 36.7561 131.676ZM44.3705 128.002H47.0053L36.4251 141.902H33.7904L44.3705 128.002ZM41.8251 138.229C41.8251 135.886 43.4195 134.397 45.6549 134.397C47.9128 134.397 49.5063 135.886 49.5063 138.229C49.5063 140.572 47.9128 142.061 45.6549 142.061C43.4187 142.061 41.8251 140.572 41.8251 138.229ZM47.2702 138.229C47.2702 136.76 46.6284 136.025 45.6541 136.025C44.7023 136.025 44.0387 136.739 44.0387 138.229C44.0387 139.719 44.7023 140.433 45.6541 140.433C46.6284 140.433 47.2702 139.698 47.2702 138.229Z" fill="#FFC431"/>
<path d="M233.009 38.9419C233.888 43.1925 237.595 46.5181 242.333 47.3064C237.595 48.0948 233.888 51.4204 233.009 55.6709C232.131 51.4204 228.424 48.0948 223.686 47.3064C228.424 46.5181 232.131 43.1925 233.009 38.9419Z" fill="url(#paint19_linear_17888_31197)"/>
<path d="M35.3794 86.1436C36.2582 90.3941 39.9651 93.7197 44.7031 94.5081C39.9651 95.2964 36.2582 98.622 35.3794 102.873C34.5006 98.622 30.7937 95.2964 26.0557 94.5081C30.7937 93.7204 34.5006 90.3948 35.3794 86.1436Z" fill="url(#paint20_linear_17888_31197)"/>
<path d="M218.314 195.264C218.912 198.155 221.434 200.418 224.657 200.954C221.434 201.49 218.912 203.753 218.314 206.644C217.717 203.753 215.195 201.49 211.972 200.954C215.195 200.418 217.717 198.156 218.314 195.264Z" fill="url(#paint21_linear_17888_31197)"/>
<path d="M70.8942 3.62891C71.4917 6.52024 74.0138 8.78284 77.2367 9.31887C74.0138 9.85489 71.4917 12.1175 70.8942 15.0088C70.2967 12.1175 67.7747 9.85489 64.5518 9.31887C67.7747 8.78354 70.2967 6.52094 70.8942 3.62891Z" fill="url(#paint22_linear_17888_31197)"/>
<path d="M239.352 122.58C239.949 125.471 242.471 127.734 245.694 128.27C242.471 128.806 239.949 131.069 239.352 133.96C238.754 131.069 236.232 128.806 233.009 128.27C236.232 127.734 238.754 125.471 239.352 122.58Z" fill="url(#paint23_linear_17888_31197)"/>
<path d="M97.1757 86.1433L86.1465 74.4824H38.4859C32.6127 74.4824 27.8506 70.2109 27.8506 64.9413V45.1529C27.8506 39.884 32.6119 35.6118 38.4859 35.6118H86.5404C92.4144 35.6118 97.1757 39.8833 97.1757 45.1529V86.1433Z" fill="url(#paint24_linear_17888_31197)"/>
<path d="M84.309 44.4315H40.7182C40.0741 44.4315 39.5527 43.9637 39.5527 43.3859C39.5527 42.808 40.0741 42.3403 40.7182 42.3403H84.309C84.9531 42.3403 85.4745 42.808 85.4745 43.3859C85.4745 43.9637 84.9531 44.4315 84.309 44.4315Z" fill="#F0EBFF"/>
<path d="M84.309 52.3236H40.7182C40.0741 52.3236 39.5527 51.8558 39.5527 51.278C39.5527 50.7001 40.0741 50.2324 40.7182 50.2324H84.309C84.9531 50.2324 85.4745 50.7001 85.4745 51.278C85.4745 51.8558 84.9531 52.3236 84.309 52.3236Z" fill="#F0EBFF"/>
<path d="M84.309 60.2152H40.7182C40.0741 60.2152 39.5527 59.7474 39.5527 59.1696C39.5527 58.5917 40.0741 58.124 40.7182 58.124H84.309C84.9531 58.124 85.4745 58.5917 85.4745 59.1696C85.4745 59.7474 84.9531 60.2152 84.309 60.2152Z" fill="#F0EBFF"/>
<path d="M84.309 68.1072H40.7182C40.0741 68.1072 39.5527 67.6395 39.5527 67.0617C39.5527 66.4838 40.0741 66.0161 40.7182 66.0161H84.309C84.9531 66.0161 85.4745 66.4838 85.4745 67.0617C85.4745 67.6388 84.9531 68.1072 84.309 68.1072Z" fill="#F0EBFF"/>
<path d="M89.9453 207.585C105.263 207.585 117.681 196.445 117.681 182.703C117.681 168.961 105.263 157.82 89.9453 157.82C74.6272 157.82 62.2095 168.961 62.2095 182.703C62.2095 196.445 74.6272 207.585 89.9453 207.585Z" fill="url(#paint25_linear_17888_31197)"/>
<path d="M89.9454 202.92C102.391 202.92 112.481 193.868 112.481 182.703C112.481 171.537 102.391 162.486 89.9454 162.486C77.4994 162.486 67.4099 171.537 67.4099 182.703C67.4099 193.868 77.4994 202.92 89.9454 202.92Z" fill="url(#paint26_linear_17888_31197)"/>
<path d="M96.869 180.342C91.0176 179.395 88.6789 175.609 88.5017 173.086C88.3246 170.564 87.2407 168.735 85.2058 169.644C83.1709 170.554 82.6899 175.803 83.8896 178.562C78.6838 177.837 73.8261 178.388 73.3499 180.688C78.4367 184.717 76.6675 189.325 74.7733 191.585C77.2456 193.144 88.1886 193.952 90.8622 193.589C93.5357 193.226 95.7595 189.867 98.1906 189.959C100.622 190.05 103.053 190.142 103.053 190.142L103.489 180.824C103.489 180.824 99.7982 180.816 96.869 180.342Z" fill="url(#paint27_linear_17888_31197)"/>
<path d="M91.6034 186.785C88.8684 186.035 86.6315 183.322 86.1567 182.269C86.1808 184.497 89.3532 186.832 91.6034 186.785Z" fill="#F9E6E1"/>
<path d="M78.0513 192.57C81.759 192.999 84.2586 192.5 85.1987 191.31C86.1381 190.12 85.365 189.077 84.3067 188.408L78.0513 192.57Z" fill="#F9E6E1"/>
<path d="M83.7853 188.724C85.0222 188.989 85.9546 190.947 83.4558 191.854C80.9571 192.761 76.8577 193.043 74.5571 191.548C73.5408 190.888 73.2782 189.232 76.2307 188.63C79.1832 188.029 82.0425 188.351 83.7853 188.724Z" fill="url(#paint28_linear_17888_31197)"/>
<path d="M75.4026 189.573C77.8073 190.167 82.6324 190.646 84.5406 189.132C86.4489 187.619 83.8359 185.545 83.8359 185.545L75.4026 189.573Z" fill="#F9E6E1"/>
<path d="M83.1979 185.598C84.4348 185.862 85.9041 188.317 83.4061 189.224C80.9074 190.13 74.2059 189.882 73.53 188.933C72.854 187.984 72.8338 186.274 75.7863 185.672C78.738 185.071 81.4544 185.225 83.1979 185.598Z" fill="url(#paint29_linear_17888_31197)"/>
<path d="M83.8127 182.249C85.4715 183.718 85.2128 185.102 84.7637 185.673C84.3146 186.243 82.9316 187.345 76.5891 186.555C77.0032 186.509 83.8127 182.249 83.8127 182.249Z" fill="#F9E6E1"/>
<path d="M82.9408 182.278C84.2718 182.564 85.9508 185.459 83.1646 186.181C80.6262 186.838 73.4446 186.801 72.7173 185.78C71.9901 184.76 71.9683 182.919 75.1454 182.271C78.3224 181.624 81.0644 181.876 82.9408 182.278Z" fill="url(#paint30_linear_17888_31197)"/>
<path d="M84.2965 179.775C85.2118 180.96 85.2677 181.868 84.7627 182.481C84.2569 183.095 78.5282 183.537 75.7156 182.842L84.2965 179.775Z" fill="#F9E6E1"/>
<path d="M81.9283 178.298C84.3307 178.609 86.2149 181.986 83.323 182.556C80.7131 183.07 74.1507 183.198 73.4235 182.178C72.6962 181.158 72.307 179.231 75.484 178.583C78.6619 177.936 80.3207 178.091 81.9283 178.298Z" fill="url(#paint31_linear_17888_31197)"/>
<path d="M99.7181 180.61C99.5316 181.005 98.6528 189.467 99.3172 190.016C99.9807 190.564 104.142 190.117 104.142 190.117C104.142 190.117 105.026 181.423 104.772 180.798C104.517 180.173 100.26 180.394 99.7181 180.61Z" fill="url(#paint32_linear_17888_31197)"/>
<path d="M101.354 180.064C101.141 180.515 100.356 190.273 101.18 190.925C102.003 191.576 107.039 191.171 107.039 191.171C107.039 191.171 107.821 181.146 107.492 180.417C107.163 179.688 102.004 179.828 101.354 180.064Z" fill="url(#paint33_linear_17888_31197)"/>
</g>
<defs>
<linearGradient id="paint0_linear_17888_31197" x1="198.811" y1="-59.0552" x2="133.704" y2="189.688" gradientUnits="userSpaceOnUse">
<stop stop-color="#F5F0FF"/>
<stop offset="0.9959" stop-color="#D2C1F7"/>
</linearGradient>
<linearGradient id="paint1_linear_17888_31197" x1="141.406" y1="26.5409" x2="145.648" y2="213.129" gradientUnits="userSpaceOnUse">
<stop stop-color="#263681"/>
<stop offset="0.9959" stop-color="#1A1248"/>
</linearGradient>
<linearGradient id="paint2_linear_17888_31197" x1="75.3902" y1="86.4749" x2="175.015" y2="151.573" gradientUnits="userSpaceOnUse">
<stop stop-color="#9571CB"/>
<stop offset="0.2434" stop-color="#8E69CA"/>
<stop offset="0.6169" stop-color="#7B54C5"/>
<stop offset="1" stop-color="#6237C0"/>
</linearGradient>
<linearGradient id="paint3_linear_17888_31197" x1="188.456" y1="163.587" x2="173.146" y2="156.859" gradientUnits="userSpaceOnUse">
<stop stop-color="#F5F0FF"/>
<stop offset="0.6951" stop-color="#D2C1F7"/>
<stop offset="1" stop-color="#DCCEF9"/>
</linearGradient>
<linearGradient id="paint4_linear_17888_31197" x1="159.788" y1="89.3462" x2="139.409" y2="148.469" gradientUnits="userSpaceOnUse">
<stop stop-color="#F59513"/>
<stop offset="0.3699" stop-color="#FAAD1E"/>
<stop offset="0.9959" stop-color="#F2830B"/>
</linearGradient>
<linearGradient id="paint5_linear_17888_31197" x1="85.2629" y1="101.171" x2="106.211" y2="106.933" gradientUnits="userSpaceOnUse">
<stop stop-color="#E6971C"/>
<stop offset="0.9959" stop-color="#DE6D0A"/>
</linearGradient>
<radialGradient id="paint6_radial_17888_31197" cx="0" cy="0" r="1" gradientUnits="userSpaceOnUse" gradientTransform="translate(94.0995 104.31) rotate(-167.517) scale(17.8292 16.1761)">
<stop stop-color="#FFD042"/>
<stop offset="1" stop-color="#F2830B"/>
</radialGradient>
<linearGradient id="paint7_linear_17888_31197" x1="186.076" y1="52.6097" x2="197.904" y2="81.9088" gradientUnits="userSpaceOnUse">
<stop stop-color="#9571CB"/>
<stop offset="0.9959" stop-color="#6237C0"/>
</linearGradient>
<linearGradient id="paint8_linear_17888_31197" x1="187.408" y1="55.2652" x2="197.019" y2="79.0707" gradientUnits="userSpaceOnUse">
<stop stop-color="#F5F0FF"/>
<stop offset="0.9959" stop-color="#D2C1F7"/>
</linearGradient>
<linearGradient id="paint9_linear_17888_31197" x1="190.633" y1="61.208" x2="195.978" y2="74.4502" gradientUnits="userSpaceOnUse">
<stop stop-color="#FAAD1E"/>
<stop offset="0.9959" stop-color="#F2830B"/>
</linearGradient>
<linearGradient id="paint10_linear_17888_31197" x1="147.947" y1="51.8832" x2="154.077" y2="67.0668" gradientUnits="userSpaceOnUse">
<stop stop-color="#F5F0FF"/>
<stop offset="0.9959" stop-color="#D2C1F7"/>
</linearGradient>
<linearGradient id="paint11_linear_17888_31197" x1="150.24" y1="54.4864" x2="152.553" y2="60.2149" gradientUnits="userSpaceOnUse">
<stop stop-color="#FAAD1E"/>
<stop offset="0.9959" stop-color="#F2830B"/>
</linearGradient>
<linearGradient id="paint12_linear_17888_31197" x1="151.119" y1="62.5442" x2="151.968" y2="64.6469" gradientUnits="userSpaceOnUse">
<stop stop-color="#FAAD1E"/>
<stop offset="0.9959" stop-color="#F2830B"/>
</linearGradient>
<linearGradient id="paint13_linear_17888_31197" x1="241.721" y1="144.823" x2="234.544" y2="172.243" gradientUnits="userSpaceOnUse">
<stop stop-color="#FFE14D"/>
<stop offset="1" stop-color="#F7A523"/>
</linearGradient>
<linearGradient id="paint14_linear_17888_31197" x1="240.674" y1="148.043" x2="234.639" y2="171.099" gradientUnits="userSpaceOnUse">
<stop stop-color="#FAAD1E"/>
<stop offset="0.9959" stop-color="#F2830B"/>
</linearGradient>
<linearGradient id="paint15_linear_17888_31197" x1="273.834" y1="55.8081" x2="263.797" y2="94.1539" gradientUnits="userSpaceOnUse">
<stop stop-color="#FFE14D"/>
<stop offset="1" stop-color="#F7A523"/>
</linearGradient>
<linearGradient id="paint16_linear_17888_31197" x1="272.369" y1="60.3112" x2="263.93" y2="92.5536" gradientUnits="userSpaceOnUse">
<stop stop-color="#FAAD1E"/>
<stop offset="0.9959" stop-color="#F2830B"/>
</linearGradient>
<linearGradient id="paint17_linear_17888_31197" x1="49.9189" y1="106.968" x2="39.8822" y2="145.314" gradientUnits="userSpaceOnUse">
<stop stop-color="#FFE14D"/>
<stop offset="1" stop-color="#F7A523"/>
</linearGradient>
<linearGradient id="paint18_linear_17888_31197" x1="48.4545" y1="111.471" x2="40.0152" y2="143.714" gradientUnits="userSpaceOnUse">
<stop stop-color="#FAAD1E"/>
<stop offset="0.9959" stop-color="#F2830B"/>
</linearGradient>
<linearGradient id="paint19_linear_17888_31197" x1="229.905" y1="41.1189" x2="235.073" y2="53.9184" gradientUnits="userSpaceOnUse">
<stop stop-color="#9571CB"/>
<stop offset="0.9959" stop-color="#6237C0"/>
</linearGradient>
<linearGradient id="paint20_linear_17888_31197" x1="32.2757" y1="88.3208" x2="37.4429" y2="101.12" gradientUnits="userSpaceOnUse">
<stop stop-color="#9571CB"/>
<stop offset="0.9959" stop-color="#6237C0"/>
</linearGradient>
<linearGradient id="paint21_linear_17888_31197" x1="216.203" y1="196.745" x2="219.718" y2="205.452" gradientUnits="userSpaceOnUse">
<stop stop-color="#263681"/>
<stop offset="0.9959" stop-color="#1A1248"/>
</linearGradient>
<linearGradient id="paint22_linear_17888_31197" x1="68.783" y1="5.11019" x2="72.298" y2="13.8172" gradientUnits="userSpaceOnUse">
<stop stop-color="#263681"/>
<stop offset="0.9959" stop-color="#1A1248"/>
</linearGradient>
<linearGradient id="paint23_linear_17888_31197" x1="237.24" y1="124.061" x2="240.755" y2="132.768" gradientUnits="userSpaceOnUse">
<stop stop-color="#263681"/>
<stop offset="0.9959" stop-color="#1A1248"/>
</linearGradient>
<linearGradient id="paint24_linear_17888_31197" x1="51.7063" y1="33.5017" x2="74.918" y2="90.9985" gradientUnits="userSpaceOnUse">
<stop offset="0.0041" stop-color="white"/>
<stop offset="1" stop-color="#F5F0FF"/>
</linearGradient>
<linearGradient id="paint25_linear_17888_31197" x1="79.8181" y1="162.514" x2="97.3683" y2="205.987" gradientUnits="userSpaceOnUse">
<stop stop-color="#9571CB"/>
<stop offset="0.0962" stop-color="#8A64C9"/>
<stop offset="0.3212" stop-color="#744BC4"/>
<stop offset="0.5271" stop-color="#673CC1"/>
<stop offset="0.6948" stop-color="#6237C0"/>
</linearGradient>
<linearGradient id="paint26_linear_17888_31197" x1="81.7171" y1="166.299" x2="95.4158" y2="200.232" gradientUnits="userSpaceOnUse">
<stop stop-color="#F5F0FF"/>
<stop offset="0.9959" stop-color="#D2C1F7"/>
</linearGradient>
<linearGradient id="paint27_linear_17888_31197" x1="90.8346" y1="171.109" x2="87.533" y2="193.394" gradientUnits="userSpaceOnUse">
<stop stop-color="#FFC085"/>
<stop offset="1" stop-color="#FA976E"/>
</linearGradient>
<linearGradient id="paint28_linear_17888_31197" x1="77.5765" y1="193.103" x2="80.2254" y2="188.195" gradientUnits="userSpaceOnUse">
<stop stop-color="#FFC085"/>
<stop offset="1" stop-color="#FA976E"/>
</linearGradient>
<linearGradient id="paint29_linear_17888_31197" x1="76.9325" y1="190.735" x2="79.8469" y2="185.335" gradientUnits="userSpaceOnUse">
<stop stop-color="#FFC085"/>
<stop offset="1" stop-color="#FA976E"/>
</linearGradient>
<linearGradient id="paint30_linear_17888_31197" x1="76.3751" y1="187.716" x2="79.4465" y2="182.024" gradientUnits="userSpaceOnUse">
<stop stop-color="#FFC085"/>
<stop offset="1" stop-color="#FA976E"/>
</linearGradient>
<linearGradient id="paint31_linear_17888_31197" x1="73.6801" y1="178.74" x2="83.7995" y2="183.521" gradientUnits="userSpaceOnUse">
<stop stop-color="#FFC085"/>
<stop offset="1" stop-color="#FA976E"/>
</linearGradient>
<linearGradient id="paint32_linear_17888_31197" x1="102.253" y1="180.988" x2="101.545" y2="191.342" gradientUnits="userSpaceOnUse">
<stop stop-color="#F5F0FF"/>
<stop offset="0.9959" stop-color="#D2C1F7"/>
</linearGradient>
<linearGradient id="paint33_linear_17888_31197" x1="104.436" y1="180.175" x2="103.951" y2="191.264" gradientUnits="userSpaceOnUse">
<stop stop-color="#263681"/>
<stop offset="0.9959" stop-color="#1A1248"/>
</linearGradient>
<clipPath id="clip0_17888_31197">
<rect width="300" height="223.381" fill="white"/>
</clipPath>
</defs>
</svg>
