<svg width="312" height="333" viewBox="0 0 312 333" fill="none" xmlns="http://www.w3.org/2000/svg">
<g opacity="0.2">
<path d="M13.6794 326.255C13.2895 326.721 12.8456 327.063 12.3479 327.281C11.8501 327.5 11.3456 327.586 10.8342 327.541C10.3228 327.496 9.85178 327.311 9.42101 326.986L10.2187 326.033C10.6177 326.304 11.0618 326.392 11.5509 326.297C12.0396 326.197 12.4578 325.94 12.8057 325.524C13.0849 325.19 13.2549 324.828 13.3159 324.438C13.379 324.045 13.3362 323.661 13.1876 323.284C13.0385 322.903 12.7906 322.567 12.4437 322.277C12.0889 321.98 11.7072 321.793 11.2984 321.717C10.8893 321.635 10.4909 321.662 10.1034 321.797C9.71591 321.932 9.3757 322.172 9.0828 322.516C8.87187 322.763 8.69645 323.051 8.55652 323.379C8.41395 323.706 8.33266 324.005 8.31265 324.276L7.43038 325.104L3.83917 321.262L7.37543 317.036L8.24918 317.767L5.40421 321.167L7.56374 323.46L7.60362 323.413C7.61083 323.135 7.67599 322.834 7.7991 322.509C7.92222 322.185 8.09789 321.886 8.32611 321.613C8.74266 321.115 9.23294 320.772 9.79694 320.582C10.3605 320.387 10.9406 320.35 11.5371 320.471C12.1358 320.59 12.6986 320.869 13.2255 321.31C13.7445 321.745 14.1103 322.249 14.3231 322.823C14.5354 323.392 14.5899 323.978 14.4865 324.581C14.3805 325.181 14.1115 325.739 13.6794 326.255ZM18.6627 310.455L18.1964 311.497C18.0118 311.432 17.8101 311.396 17.5913 311.389C17.372 311.376 17.1456 311.421 16.912 311.523C16.6784 311.624 16.4475 311.811 16.2193 312.084C15.9068 312.458 15.7326 312.841 15.6964 313.234C15.6598 313.622 15.7725 313.925 16.0347 314.145C16.2676 314.34 16.5226 314.409 16.7994 314.352C17.0762 314.296 17.4103 314.125 17.8017 313.841L18.7819 313.121C19.3707 312.687 19.9134 312.45 20.4099 312.41C20.9037 312.369 21.3638 312.527 21.7901 312.883C22.1396 313.176 22.3678 313.538 22.4748 313.97C22.5839 314.399 22.5684 314.858 22.4281 315.349C22.2879 315.839 22.0195 316.321 21.6228 316.795C21.1022 317.417 20.5362 317.819 19.9249 318.001C19.3136 318.183 18.7031 318.111 18.0933 317.785L18.6153 316.709C19.0145 316.899 19.3948 316.945 19.7562 316.847C20.1198 316.746 20.4622 316.504 20.7835 316.12C21.1491 315.683 21.3466 315.259 21.3762 314.847C21.4054 314.43 21.2889 314.112 21.0268 313.892C20.815 313.715 20.5755 313.641 20.3085 313.669C20.0388 313.696 19.7397 313.833 19.4111 314.08L18.322 314.897C17.7221 315.345 17.1735 315.584 16.6761 315.613C16.1783 315.638 15.7189 315.474 15.2979 315.122C14.9537 314.834 14.7301 314.482 14.6271 314.067C14.5263 313.65 14.5411 313.21 14.6716 312.747C14.8043 312.282 15.0501 311.835 15.4091 311.406C15.9142 310.803 16.4432 310.439 16.9961 310.317C17.5511 310.191 18.1066 310.238 18.6627 310.455ZM20.7904 305.137L21.5847 305.802L18.9392 308.963L18.1448 308.298L20.7904 305.137ZM17.4544 306.154L18.2387 305.217L24.0531 310.082C24.3179 310.304 24.5486 310.432 24.7452 310.466C24.9414 310.495 25.113 310.467 25.2599 310.383C25.4064 310.294 25.5373 310.181 25.6525 310.043C25.7389 309.94 25.8045 309.851 25.8493 309.776C25.8915 309.698 25.9252 309.637 25.9505 309.59L26.952 310.104C26.9227 310.188 26.8723 310.296 26.8008 310.43C26.732 310.566 26.6245 310.722 26.4783 310.896C26.2567 311.161 25.9826 311.373 25.6561 311.532C25.3317 311.688 24.9833 311.752 24.6107 311.724C24.2403 311.693 23.8777 311.529 23.5229 311.232L17.4544 306.154ZM29.7158 307.157C29.3923 307.543 29.0259 307.833 28.6166 308.026C28.2047 308.217 27.7822 308.289 27.3491 308.242C26.9133 308.192 26.4968 308.001 26.0997 307.669C25.7502 307.377 25.5245 307.071 25.4226 306.751C25.3181 306.43 25.2999 306.102 25.3683 305.767C25.4366 305.433 25.5566 305.101 25.7284 304.772C25.8997 304.438 26.0854 304.114 26.2854 303.8C26.5479 303.389 26.7637 303.059 26.9326 302.808C27.1011 302.553 27.1992 302.347 27.227 302.19C27.2569 302.031 27.1964 301.888 27.0455 301.762L27.0137 301.735C26.6219 301.407 26.2276 301.26 25.8311 301.292C25.4367 301.322 25.0589 301.553 24.6978 301.985C24.3233 302.432 24.1277 302.865 24.1109 303.283C24.0941 303.701 24.1537 304.055 24.2897 304.345L23.2275 304.968C22.9898 304.499 22.8785 304.046 22.8935 303.608C22.9081 303.166 23.0062 302.753 23.1878 302.369C23.369 301.98 23.5881 301.633 23.8451 301.325C24.009 301.129 24.2212 300.924 24.4816 300.71C24.7415 300.491 25.0427 300.322 25.3851 300.203C25.7297 300.082 26.1127 300.063 26.5343 300.145C26.9558 300.228 27.4089 300.472 27.8934 300.878L31.9126 304.241L31.1283 305.178L30.3022 304.487L30.2623 304.535C30.3415 304.709 30.3945 304.933 30.4214 305.208C30.4482 305.483 30.4115 305.787 30.3114 306.122C30.2112 306.457 30.0127 306.802 29.7158 307.157ZM28.9935 306.309C29.3037 305.938 29.4923 305.565 29.5594 305.189C29.6287 304.81 29.6025 304.46 29.4807 304.137C29.3611 303.812 29.1742 303.543 28.9201 303.33L28.0622 302.612C28.0766 302.692 28.0472 302.816 27.9739 302.984C27.9002 303.148 27.8048 303.329 27.6877 303.528C27.5701 303.722 27.4533 303.91 27.3371 304.092C27.2204 304.269 27.1267 304.414 27.0557 304.525C26.8836 304.796 26.7447 305.066 26.6389 305.338C26.5327 305.605 26.4955 305.862 26.5273 306.109C26.5586 306.351 26.6934 306.572 26.9317 306.772C27.2574 307.044 27.6044 307.13 27.9729 307.028C28.3409 306.922 28.6811 306.682 28.9935 306.309ZM33.3442 302.53L27.2439 297.425L28.0017 296.52L28.9231 297.291L28.9763 297.227C28.7675 296.863 28.691 296.457 28.7467 296.009C28.8025 295.56 28.9832 295.153 29.289 294.788C29.3466 294.719 29.4199 294.634 29.509 294.533C29.598 294.432 29.6674 294.357 29.717 294.309L30.6702 295.106C30.6356 295.131 30.5628 295.194 30.4516 295.295C30.34 295.39 30.2322 295.501 30.128 295.625C29.8799 295.922 29.7205 296.238 29.65 296.576C29.579 296.908 29.5956 297.232 29.6997 297.549C29.8034 297.861 29.9929 298.132 30.2682 298.362L34.1286 301.593L33.3442 302.53Z" fill="#455A64"/>
<path d="M11.9222 17.4961L17.6147 6.23544V6.13601H11.0522V4.76882H19.2056V6.21058L13.538 17.4961H11.9222ZM25.3999 17.6701C24.4636 17.6701 23.6661 17.4153 23.0073 16.9057C22.3486 16.392 21.8452 15.6483 21.4972 14.6747C21.1492 13.697 20.9752 12.5162 20.9752 11.1325C20.9752 9.75698 21.1492 8.58245 21.4972 7.60884C21.8494 6.6311 22.3548 5.88536 23.0135 5.37163C23.6764 4.85375 24.4719 4.59481 25.3999 4.59481C26.3279 4.59481 27.1213 4.85375 27.7801 5.37163C28.4429 5.88536 28.9484 6.6311 29.2964 7.60884C29.6485 8.58245 29.8246 9.75698 29.8246 11.1325C29.8246 12.5162 29.6506 13.697 29.3026 14.6747C28.9546 15.6483 28.4512 16.392 27.7925 16.9057C27.1337 17.4153 26.3362 17.6701 25.3999 17.6701ZM25.3999 16.3029C26.3279 16.3029 27.0488 15.8555 27.5625 14.9606C28.0763 14.0657 28.3331 12.7897 28.3331 11.1325C28.3331 10.0304 28.2151 9.09203 27.9789 8.31729C27.7469 7.54255 27.4113 6.95218 26.9722 6.54616C26.5372 6.14015 26.0131 5.93714 25.3999 5.93714C24.4802 5.93714 23.7613 6.3908 23.2435 7.29812C22.7256 8.20129 22.4667 9.4794 22.4667 11.1325C22.4667 12.2345 22.5827 13.1708 22.8147 13.9414C23.0467 14.712 23.3802 15.2982 23.8152 15.7001C24.2544 16.102 24.7826 16.3029 25.3999 16.3029ZM38.6741 15.1097V14.4386C38.6741 13.9746 38.7693 13.5499 38.9599 13.1646C39.1546 12.7752 39.4364 12.4644 39.8051 12.2324C40.178 11.9963 40.6295 11.8782 41.1598 11.8782C41.6984 11.8782 42.15 11.9963 42.5146 12.2324C42.8792 12.4644 43.1547 12.7752 43.3411 13.1646C43.5276 13.5499 43.6208 13.9746 43.6208 14.4386V15.1097C43.6208 15.5737 43.5255 16.0005 43.3349 16.3899C43.1485 16.7752 42.8709 17.0859 42.5022 17.3221C42.1376 17.5541 41.6901 17.6701 41.1598 17.6701C40.6213 17.6701 40.1676 17.5541 39.7989 17.3221C39.4301 17.0859 39.1505 16.7752 38.9599 16.3899C38.7693 16.0005 38.6741 15.5737 38.6741 15.1097ZM39.9418 14.4386V15.1097C39.9418 15.495 40.033 15.841 40.2152 16.1475C40.3975 16.45 40.7124 16.6012 41.1598 16.6012C41.5949 16.6012 41.9014 16.45 42.0796 16.1475C42.2619 15.841 42.353 15.495 42.353 15.1097V14.4386C42.353 14.0533 42.266 13.7094 42.092 13.407C41.918 13.1004 41.6073 12.9471 41.1598 12.9471C40.7248 12.9471 40.412 13.1004 40.2215 13.407C40.035 13.7094 39.9418 14.0533 39.9418 14.4386ZM32.3353 7.82635V7.15518C32.3353 6.69117 32.4306 6.26651 32.6211 5.88121C32.8159 5.49177 33.0976 5.18105 33.4663 4.94904C33.8392 4.71289 34.2908 4.59481 34.8211 4.59481C35.3597 4.59481 35.8112 4.71289 36.1758 4.94904C36.5404 5.18105 36.8159 5.49177 37.0024 5.88121C37.1888 6.26651 37.282 6.69117 37.282 7.15518V7.82635C37.282 8.29036 37.1867 8.71709 36.9961 9.10653C36.8097 9.49183 36.5321 9.80256 36.1634 10.0387C35.7988 10.2707 35.3514 10.3867 34.8211 10.3867C34.2825 10.3867 33.8288 10.2707 33.4601 10.0387C33.0914 9.80256 32.8117 9.49183 32.6211 9.10653C32.4306 8.71709 32.3353 8.29036 32.3353 7.82635ZM33.603 7.15518V7.82635C33.603 8.21165 33.6942 8.55759 33.8765 8.86417C34.0588 9.16661 34.3736 9.31783 34.8211 9.31783C35.2561 9.31783 35.5627 9.16661 35.7408 8.86417C35.9231 8.55759 36.0142 8.21165 36.0142 7.82635V7.15518C36.0142 6.76989 35.9272 6.42602 35.7532 6.12358C35.5792 5.817 35.2685 5.66371 34.8211 5.66371C34.3861 5.66371 34.0733 5.817 33.8827 6.12358C33.6962 6.42602 33.603 6.76989 33.603 7.15518ZM32.8076 17.4961L41.5576 4.76882H42.9745L34.2245 17.4961H32.8076Z" fill="#667085"/>
<rect x="10.5755" y="287.423" width="253.021" height="37.1875" rx="2.55208" transform="rotate(-90 10.5755 287.423)" fill="white" stroke="#D9D9D9" stroke-width="0.729167"/>
<rect x="10.2109" y="287.788" width="195.512" height="37.9167" rx="2.91667" transform="rotate(-90 10.2109 287.788)" fill="#FFC73E"/>
<path d="M75.2386 327.499L74.4284 326.821L71.7641 318.513L72.256 317.926L73.511 318.976L73.1786 319.373L75.192 325.65L75.2555 325.703L79.2837 320.889L80.1574 321.621L75.2386 327.499ZM80.1105 325.066L78.1962 323.464L77.8189 323.148L71.9768 318.259L72.7611 317.322L80.8949 324.129L80.1105 325.066ZM84.5985 310.084L84.1322 311.125C83.9475 311.061 83.7458 311.025 83.527 311.017C83.3078 311.005 83.0814 311.05 82.8478 311.151C82.6141 311.253 82.3832 311.44 82.155 311.713C81.8426 312.086 81.6683 312.469 81.6321 312.862C81.5955 313.25 81.7083 313.554 81.9704 313.773C82.2034 313.968 82.4583 314.038 82.7352 313.981C83.012 313.925 83.3461 313.754 83.7375 313.469L84.7176 312.75C85.3065 312.315 85.8491 312.078 86.3456 312.039C86.8395 311.998 87.2995 312.155 87.7258 312.512C88.0753 312.805 88.3035 313.167 88.4105 313.598C88.5197 314.027 88.5042 314.487 88.3639 314.977C88.2236 315.468 87.9552 315.95 87.5586 316.424C87.0379 317.046 86.4719 317.448 85.8606 317.63C85.2493 317.812 84.6388 317.74 84.029 317.414L84.5511 316.338C84.9503 316.528 85.3306 316.574 85.6919 316.476C86.0555 316.375 86.3979 316.132 86.7192 315.748C87.0848 315.312 87.2824 314.887 87.312 314.475C87.3411 314.058 87.2246 313.74 86.9625 313.521C86.7507 313.344 86.5113 313.269 86.2442 313.298C85.9745 313.325 85.6754 313.461 85.3469 313.709L84.2578 314.526C83.6579 314.974 83.1092 315.213 82.6119 315.242C82.1141 315.267 81.6547 315.103 81.2337 314.75C80.8895 314.462 80.6659 314.111 80.5629 313.696C80.4621 313.279 80.4769 312.839 80.6074 312.376C80.7401 311.911 80.9859 311.464 81.3448 311.035C81.85 310.431 82.379 310.068 82.9318 309.945C83.4868 309.82 84.0424 309.866 84.5985 310.084ZM86.7262 304.766L87.5205 305.43L84.8749 308.592L84.0806 307.927L86.7262 304.766ZM83.3901 305.783L84.1745 304.845L89.9889 309.711C90.2536 309.933 90.4843 310.06 90.681 310.094C90.8772 310.123 91.0488 310.096 91.1957 310.012C91.3422 309.923 91.4731 309.81 91.5883 309.672C91.6747 309.569 91.7403 309.479 91.7851 309.404C91.8272 309.327 91.861 309.265 91.8863 309.219L92.8878 309.733C92.8584 309.816 92.808 309.925 92.7366 310.059C92.6678 310.195 92.5603 310.35 92.414 310.525C92.1924 310.79 91.9184 311.002 91.5918 311.16C91.2675 311.317 90.919 311.381 90.5464 311.353C90.1761 311.322 89.8135 311.158 89.4587 310.861L83.3901 305.783ZM95.6516 306.785C95.3281 307.172 94.9617 307.462 94.5524 307.655C94.1404 307.846 93.7179 307.918 93.2848 307.87C92.8491 307.821 92.4326 307.63 92.0354 307.298C91.6859 307.005 91.4602 306.699 91.3583 306.38C91.2538 306.058 91.2357 305.73 91.304 305.396C91.3723 305.061 91.4924 304.73 91.6641 304.401C91.8355 304.067 92.0211 303.743 92.2211 303.428C92.4837 303.018 92.6994 302.687 92.8683 302.437C93.0369 302.182 93.135 301.976 93.1627 301.819C93.1926 301.66 93.1322 301.517 92.9812 301.39L92.9495 301.364C92.5576 301.036 92.1634 300.888 91.7668 300.921C91.3724 300.951 90.9947 301.182 90.6335 301.614C90.2591 302.061 90.0634 302.494 90.0467 302.912C90.0299 303.33 90.0895 303.684 90.2255 303.973L89.1633 304.597C88.9256 304.128 88.8142 303.675 88.8293 303.237C88.8439 302.795 88.942 302.381 89.1236 301.998C89.3047 301.609 89.5238 301.261 89.7808 300.954C89.9448 300.758 90.157 300.553 90.4173 300.339C90.6773 300.12 90.9784 299.951 91.3208 299.832C91.6654 299.711 92.0485 299.691 92.47 299.774C92.8916 299.857 93.3446 300.101 93.8291 300.506L97.8484 303.87L97.064 304.807L96.2379 304.116L96.198 304.163C96.2773 304.338 96.3303 304.562 96.3571 304.837C96.384 305.111 96.3473 305.416 96.2471 305.751C96.147 306.086 95.9485 306.43 95.6516 306.785ZM94.9292 305.938C95.2394 305.567 95.4281 305.194 95.4952 304.818C95.5645 304.439 95.5382 304.088 95.4164 303.766C95.2969 303.441 95.11 303.172 94.8558 302.959L93.998 302.241C94.0124 302.321 93.983 302.445 93.9097 302.613C93.836 302.776 93.7405 302.958 93.6234 303.157C93.5059 303.351 93.389 303.539 93.2728 303.721C93.1562 303.898 93.0624 304.042 92.9915 304.154C92.8194 304.424 92.6805 304.695 92.5747 304.967C92.4685 305.234 92.4313 305.491 92.463 305.738C92.4944 305.98 92.6292 306.201 92.8675 306.4C93.1931 306.673 93.5402 306.758 93.9086 306.657C94.2766 306.551 94.6168 306.311 94.9292 305.938ZM99.28 302.159L93.1797 297.054L93.9374 296.148L94.8588 296.919L94.912 296.856C94.7032 296.492 94.6267 296.086 94.6825 295.637C94.7382 295.189 94.919 294.782 95.2247 294.416C95.2823 294.348 95.3557 294.263 95.4447 294.162C95.5338 294.061 95.6031 293.986 95.6527 293.937L96.6059 294.735C96.5714 294.76 96.4985 294.823 96.3874 294.923C96.2758 295.019 96.1679 295.129 96.0638 295.254C95.8156 295.55 95.6563 295.867 95.5857 296.204C95.5148 296.536 95.5313 296.861 95.6354 297.178C95.7391 297.49 95.9286 297.761 96.204 297.991L100.064 301.222L99.28 302.159Z" fill="#455A64"/>
<path d="M84.1193 4.59481C84.6413 4.59896 85.1634 4.69839 85.6854 4.89311C86.2074 5.08783 86.6838 5.41098 87.1147 5.86257C87.5456 6.31001 87.8915 6.9211 88.1525 7.69584C88.4135 8.47058 88.544 9.44212 88.544 10.6104C88.544 11.7415 88.4363 12.7462 88.2209 13.6245C88.0096 14.4986 87.703 15.2361 87.3011 15.8368C86.9034 16.4376 86.4187 16.8933 85.8469 17.204C85.2794 17.5147 84.6372 17.6701 83.9205 17.6701C83.2079 17.6701 82.5719 17.5292 82.0126 17.2475C81.4574 16.9616 81.0017 16.566 80.6454 16.0605C80.2933 15.551 80.0675 14.9606 79.968 14.2894H81.4844C81.6211 14.8736 81.8925 15.3562 82.2985 15.7374C82.7086 16.1144 83.2493 16.3029 83.9205 16.3029C84.9023 16.3029 85.6771 15.8741 86.2447 15.0165C86.8164 14.1589 87.1023 12.9471 87.1023 11.381H87.0028C86.7708 11.729 86.4953 12.0294 86.1763 12.2821C85.8573 12.5349 85.5031 12.7296 85.1136 12.8663C84.7242 13.003 84.3099 13.0714 83.8707 13.0714C83.1416 13.0714 82.4725 12.8912 81.8635 12.5307C81.2586 12.1661 80.7739 11.6669 80.4093 11.033C80.0488 10.395 79.8686 9.66584 79.8686 8.84553C79.8686 8.06664 80.0426 7.35405 80.3906 6.70774C80.7428 6.05729 81.2358 5.53942 81.8697 5.15412C82.5077 4.76882 83.2576 4.58239 84.1193 4.59481ZM84.1193 5.962C83.5973 5.962 83.1271 6.09251 82.7086 6.35352C82.2943 6.61038 81.965 6.95839 81.7205 7.39755C81.4802 7.83256 81.3601 8.31522 81.3601 8.84553C81.3601 9.37583 81.4761 9.85849 81.7081 10.2935C81.9442 10.7244 82.2653 11.0682 82.6713 11.3251C83.0815 11.5778 83.5476 11.7042 84.0696 11.7042C84.4632 11.7042 84.8298 11.6275 85.1696 11.4743C85.5093 11.3168 85.8055 11.1035 86.0582 10.8342C86.3151 10.5607 86.516 10.2521 86.661 9.9082C86.806 9.56019 86.8786 9.19768 86.8786 8.82067C86.8786 8.32351 86.7584 7.85742 86.5181 7.42241C86.282 6.98739 85.9547 6.63524 85.5362 6.36594C85.1219 6.09665 84.6496 5.962 84.1193 5.962ZM95.1392 17.6701C94.2028 17.6701 93.4053 17.4153 92.7466 16.9057C92.0878 16.392 91.5845 15.6483 91.2365 14.6747C90.8884 13.697 90.7144 12.5162 90.7144 11.1325C90.7144 9.75698 90.8884 8.58245 91.2365 7.60884C91.5886 6.6311 92.0941 5.88536 92.7528 5.37163C93.4157 4.85375 94.2111 4.59481 95.1392 4.59481C96.0672 4.59481 96.8606 4.85375 97.5193 5.37163C98.1822 5.88536 98.6876 6.6311 99.0356 7.60884C99.3878 8.58245 99.5639 9.75698 99.5639 11.1325C99.5639 12.5162 99.3899 13.697 99.0419 14.6747C98.6938 15.6483 98.1905 16.392 97.5317 16.9057C96.873 17.4153 96.0755 17.6701 95.1392 17.6701ZM95.1392 16.3029C96.0672 16.3029 96.7881 15.8555 97.3018 14.9606C97.8155 14.0657 98.0724 12.7897 98.0724 11.1325C98.0724 10.0304 97.9543 9.09203 97.7182 8.31729C97.4862 7.54255 97.1506 6.95218 96.7114 6.54616C96.2764 6.14015 95.7523 5.93714 95.1392 5.93714C94.2194 5.93714 93.5006 6.3908 92.9827 7.29812C92.4649 8.20129 92.2059 9.4794 92.2059 11.1325C92.2059 12.2345 92.3219 13.1708 92.5539 13.9414C92.7859 14.712 93.1195 15.2982 93.5545 15.7001C93.9936 16.102 94.5219 16.3029 95.1392 16.3029ZM108.413 15.1097V14.4386C108.413 13.9746 108.509 13.5499 108.699 13.1646C108.894 12.7752 109.176 12.4644 109.544 12.2324C109.917 11.9963 110.369 11.8782 110.899 11.8782C111.438 11.8782 111.889 11.9963 112.254 12.2324C112.618 12.4644 112.894 12.7752 113.08 13.1646C113.267 13.5499 113.36 13.9746 113.36 14.4386V15.1097C113.36 15.5737 113.265 16.0005 113.074 16.3899C112.888 16.7752 112.61 17.0859 112.241 17.3221C111.877 17.5541 111.429 17.6701 110.899 17.6701C110.361 17.6701 109.907 17.5541 109.538 17.3221C109.169 17.0859 108.89 16.7752 108.699 16.3899C108.509 16.0005 108.413 15.5737 108.413 15.1097ZM109.681 14.4386V15.1097C109.681 15.495 109.772 15.841 109.955 16.1475C110.137 16.45 110.452 16.6012 110.899 16.6012C111.334 16.6012 111.641 16.45 111.819 16.1475C112.001 15.841 112.092 15.495 112.092 15.1097V14.4386C112.092 14.0533 112.005 13.7094 111.831 13.407C111.657 13.1004 111.347 12.9471 110.899 12.9471C110.464 12.9471 110.151 13.1004 109.961 13.407C109.774 13.7094 109.681 14.0533 109.681 14.4386ZM102.075 7.82635V7.15518C102.075 6.69117 102.17 6.26651 102.36 5.88121C102.555 5.49177 102.837 5.18105 103.206 4.94904C103.578 4.71289 104.03 4.59481 104.56 4.59481C105.099 4.59481 105.551 4.71289 105.915 4.94904C106.28 5.18105 106.555 5.49177 106.742 5.88121C106.928 6.26651 107.021 6.69117 107.021 7.15518V7.82635C107.021 8.29036 106.926 8.71709 106.735 9.10653C106.549 9.49183 106.271 9.80256 105.903 10.0387C105.538 10.2707 105.091 10.3867 104.56 10.3867C104.022 10.3867 103.568 10.2707 103.199 10.0387C102.831 9.80256 102.551 9.49183 102.36 9.10653C102.17 8.71709 102.075 8.29036 102.075 7.82635ZM103.342 7.15518V7.82635C103.342 8.21165 103.433 8.55759 103.616 8.86417C103.798 9.16661 104.113 9.31783 104.56 9.31783C104.995 9.31783 105.302 9.16661 105.48 8.86417C105.662 8.55759 105.754 8.21165 105.754 7.82635V7.15518C105.754 6.76989 105.667 6.42602 105.492 6.12358C105.318 5.817 105.008 5.66371 104.56 5.66371C104.125 5.66371 103.813 5.817 103.622 6.12358C103.436 6.42602 103.342 6.76989 103.342 7.15518ZM102.547 17.4961L111.297 4.76882H112.714L103.964 17.4961H102.547Z" fill="#667085"/>
<rect x="76.2005" y="287.423" width="253.021" height="37.1875" rx="2.55208" transform="rotate(-90 76.2005 287.423)" fill="white" stroke="#D9D9D9" stroke-width="0.729167"/>
<rect x="75.8359" y="287.788" width="227.5" height="37.9167" rx="2.91667" transform="rotate(-90 75.8359 287.788)" fill="#FFC73E"/>
<path d="M145.102 326.049C144.664 326.573 144.182 326.965 143.659 327.225C143.138 327.482 142.616 327.597 142.094 327.569C141.572 327.537 141.088 327.354 140.644 327.018L141.482 326.017C141.762 326.215 142.064 326.315 142.387 326.315C142.708 326.314 143.028 326.228 143.346 326.058C143.664 325.887 143.954 325.646 144.215 325.333C144.508 324.984 144.706 324.623 144.81 324.251C144.914 323.879 144.922 323.525 144.834 323.19C144.745 322.855 144.558 322.568 144.272 322.328C143.973 322.078 143.647 321.932 143.295 321.889C142.941 321.845 142.579 321.911 142.21 322.089C141.841 322.266 141.484 322.561 141.138 322.974L140.593 323.626L139.719 322.895L140.264 322.243C140.535 321.92 140.714 321.588 140.801 321.247C140.89 320.903 140.887 320.574 140.79 320.259C140.696 319.941 140.506 319.663 140.22 319.424C139.944 319.193 139.654 319.054 139.348 319.005C139.042 318.956 138.739 318.995 138.439 319.122C138.142 319.247 137.868 319.459 137.617 319.758C137.382 320.038 137.212 320.346 137.107 320.682C137.002 321.012 136.981 321.336 137.043 321.654C137.103 321.97 137.262 322.248 137.521 322.487L136.724 323.44C136.311 323.067 136.045 322.627 135.926 322.118C135.805 321.606 135.817 321.081 135.963 320.541C136.11 319.998 136.381 319.493 136.773 319.024C137.194 318.521 137.657 318.175 138.162 317.985C138.665 317.794 139.162 317.74 139.655 317.823C140.148 317.907 140.586 318.109 140.97 318.431C141.428 318.814 141.718 319.261 141.839 319.772C141.963 320.281 141.915 320.793 141.696 321.307L141.759 321.36C142.274 320.918 142.828 320.699 143.422 320.705C144.013 320.709 144.566 320.927 145.083 321.359C145.525 321.729 145.821 322.182 145.972 322.718C146.122 323.249 146.125 323.805 145.98 324.386C145.836 324.968 145.543 325.522 145.102 326.049ZM150.178 310.139L149.711 311.18C149.527 311.116 149.325 311.08 149.106 311.072C148.887 311.06 148.661 311.104 148.427 311.206C148.193 311.308 147.963 311.495 147.734 311.767C147.422 312.141 147.248 312.524 147.211 312.917C147.175 313.305 147.288 313.609 147.55 313.828C147.783 314.023 148.038 314.092 148.314 314.036C148.591 313.979 148.925 313.809 149.317 313.524L150.297 312.805C150.886 312.37 151.428 312.133 151.925 312.094C152.419 312.052 152.879 312.21 153.305 312.567C153.655 312.859 153.883 313.221 153.99 313.653C154.099 314.082 154.083 314.542 153.943 315.032C153.803 315.522 153.535 316.005 153.138 316.478C152.617 317.101 152.051 317.503 151.44 317.684C150.829 317.866 150.218 317.794 149.608 317.468L150.13 316.393C150.53 316.583 150.91 316.629 151.271 316.53C151.635 316.429 151.977 316.187 152.299 315.803C152.664 315.366 152.862 314.942 152.891 314.53C152.92 314.113 152.804 313.795 152.542 313.576C152.33 313.398 152.091 313.324 151.824 313.353C151.554 313.379 151.255 313.516 150.926 313.763L149.837 314.581C149.237 315.028 148.689 315.267 148.191 315.297C147.693 315.321 147.234 315.157 146.813 314.805C146.469 314.517 146.245 314.166 146.142 313.751C146.041 313.333 146.056 312.893 146.187 312.431C146.319 311.965 146.565 311.518 146.924 311.089C147.429 310.486 147.958 310.123 148.511 310C149.066 309.875 149.622 309.921 150.178 310.139ZM152.305 304.82L153.1 305.485L150.454 308.646L149.66 307.982L152.305 304.82ZM148.969 305.837L149.754 304.9L155.568 309.766C155.833 309.987 156.064 310.115 156.26 310.149C156.456 310.178 156.628 310.151 156.775 310.066C156.921 309.977 157.052 309.864 157.168 309.726C157.254 309.623 157.32 309.534 157.364 309.459C157.407 309.382 157.44 309.32 157.466 309.274L158.467 309.788C158.438 309.871 158.387 309.98 158.316 310.113C158.247 310.249 158.14 310.405 157.993 310.58C157.772 310.844 157.498 311.056 157.171 311.215C156.847 311.371 156.498 311.435 156.126 311.407C155.755 311.376 155.393 311.213 155.038 310.916L148.969 305.837ZM161.231 306.84C160.907 307.226 160.541 307.516 160.132 307.71C159.72 307.901 159.297 307.972 158.864 307.925C158.428 307.876 158.012 307.685 157.615 307.352C157.265 307.06 157.04 306.754 156.938 306.435C156.833 306.113 156.815 305.785 156.883 305.45C156.952 305.116 157.072 304.784 157.243 304.455C157.415 304.121 157.6 303.797 157.8 303.483C158.063 303.072 158.279 302.742 158.448 302.492C158.616 302.237 158.714 302.031 158.742 301.874C158.772 301.714 158.711 301.571 158.561 301.445L158.529 301.418C158.137 301.09 157.743 300.943 157.346 300.976C156.952 301.006 156.574 301.237 156.213 301.668C155.838 302.116 155.643 302.548 155.626 302.967C155.609 303.385 155.669 303.738 155.805 304.028L154.743 304.652C154.505 304.183 154.394 303.729 154.409 303.292C154.423 302.849 154.521 302.436 154.703 302.052C154.884 301.664 155.103 301.316 155.36 301.009C155.524 300.813 155.736 300.608 155.997 300.393C156.257 300.174 156.558 300.005 156.9 299.887C157.245 299.765 157.628 299.746 158.049 299.829C158.471 299.911 158.924 300.155 159.408 300.561L163.428 303.924L162.643 304.862L161.817 304.17L161.777 304.218C161.857 304.392 161.91 304.617 161.936 304.891C161.963 305.166 161.927 305.471 161.826 305.805C161.726 306.14 161.528 306.485 161.231 306.84ZM160.509 305.992C160.819 305.622 161.007 305.248 161.074 304.872C161.144 304.494 161.118 304.143 160.996 303.82C160.876 303.495 160.689 303.226 160.435 303.014L159.577 302.296C159.592 302.375 159.562 302.499 159.489 302.668C159.415 302.831 159.32 303.012 159.203 303.211C159.085 303.406 158.968 303.594 158.852 303.776C158.736 303.953 158.642 304.097 158.571 304.209C158.399 304.479 158.26 304.75 158.154 305.021C158.048 305.288 158.011 305.545 158.042 305.792C158.074 306.035 158.208 306.255 158.447 306.455C158.772 306.727 159.119 306.813 159.488 306.712C159.856 306.605 160.196 306.366 160.509 305.992ZM164.859 302.214L158.759 297.109L159.517 296.203L160.438 296.974L160.491 296.911C160.283 296.547 160.206 296.141 160.262 295.692C160.318 295.243 160.498 294.836 160.804 294.471C160.862 294.402 160.935 294.317 161.024 294.216C161.113 294.115 161.182 294.04 161.232 293.992L162.185 294.79C162.151 294.815 162.078 294.878 161.967 294.978C161.855 295.074 161.747 295.184 161.643 295.308C161.395 295.605 161.236 295.922 161.165 296.259C161.094 296.591 161.111 296.916 161.215 297.232C161.318 297.544 161.508 297.815 161.783 298.046L165.644 301.276L164.859 302.214Z" fill="#455A64"/>
<path d="M149.918 17.6701C149.396 17.6618 148.874 17.5624 148.352 17.3718C147.83 17.1812 147.354 16.8601 146.923 16.4086C146.492 15.9528 146.146 15.3376 145.885 14.5629C145.624 13.784 145.494 12.8062 145.494 11.6296C145.494 10.5027 145.599 9.50426 145.811 8.63423C146.022 7.76006 146.328 7.02468 146.73 6.42809C147.132 5.82736 147.617 5.37163 148.184 5.0609C148.756 4.75018 149.4 4.59481 150.117 4.59481C150.83 4.59481 151.464 4.73775 152.019 5.02362C152.578 5.30534 153.034 5.69892 153.386 6.20437C153.738 6.70981 153.966 7.2919 154.07 7.95064H152.553C152.412 7.37891 152.139 6.90453 151.733 6.52752C151.327 6.15051 150.788 5.962 150.117 5.962C149.131 5.962 148.354 6.3908 147.787 7.2484C147.223 8.106 146.94 9.30954 146.935 10.859H147.035C147.267 10.5069 147.542 10.2065 147.861 9.95792C148.184 9.7052 148.541 9.51048 148.93 9.37376C149.32 9.23704 149.732 9.16868 150.167 9.16868C150.896 9.16868 151.563 9.35097 152.168 9.71555C152.773 10.076 153.258 10.5752 153.622 11.2132C153.987 11.8471 154.169 12.5742 154.169 13.3945C154.169 14.1817 153.993 14.9026 153.641 15.5572C153.289 16.2076 152.794 16.7255 152.156 17.1108C151.522 17.492 150.776 17.6784 149.918 17.6701ZM149.918 16.3029C150.44 16.3029 150.908 16.1724 151.323 15.9114C151.741 15.6504 152.071 15.3003 152.311 14.8612C152.555 14.422 152.678 13.9331 152.678 13.3945C152.678 12.8684 152.559 12.3899 152.323 11.959C152.091 11.524 151.77 11.178 151.36 10.9212C150.954 10.6643 150.49 10.5359 149.968 10.5359C149.574 10.5359 149.208 10.6146 148.868 10.772C148.528 10.9253 148.23 11.1366 147.973 11.4059C147.72 11.6752 147.522 11.9838 147.377 12.3319C147.232 12.6757 147.159 13.0382 147.159 13.4194C147.159 13.9248 147.277 14.3971 147.513 14.8363C147.754 15.2754 148.081 15.6297 148.495 15.899C148.914 16.1683 149.388 16.3029 149.918 16.3029ZM160.764 17.6701C159.828 17.6701 159.03 17.4153 158.372 16.9057C157.713 16.392 157.209 15.6483 156.861 14.6747C156.513 13.697 156.339 12.5162 156.339 11.1325C156.339 9.75698 156.513 8.58245 156.861 7.60884C157.214 6.6311 157.719 5.88536 158.378 5.37163C159.041 4.85375 159.836 4.59481 160.764 4.59481C161.692 4.59481 162.486 4.85375 163.144 5.37163C163.807 5.88536 164.313 6.6311 164.661 7.60884C165.013 8.58245 165.189 9.75698 165.189 11.1325C165.189 12.5162 165.015 13.697 164.667 14.6747C164.319 15.6483 163.815 16.392 163.157 16.9057C162.498 17.4153 161.7 17.6701 160.764 17.6701ZM160.764 16.3029C161.692 16.3029 162.413 15.8555 162.927 14.9606C163.441 14.0657 163.697 12.7897 163.697 11.1325C163.697 10.0304 163.579 9.09203 163.343 8.31729C163.111 7.54255 162.776 6.95218 162.336 6.54616C161.901 6.14015 161.377 5.93714 160.764 5.93714C159.844 5.93714 159.126 6.3908 158.608 7.29812C158.09 8.20129 157.831 9.4794 157.831 11.1325C157.831 12.2345 157.947 13.1708 158.179 13.9414C158.411 14.712 158.744 15.2982 159.179 15.7001C159.619 16.102 160.147 16.3029 160.764 16.3029ZM174.038 15.1097V14.4386C174.038 13.9746 174.134 13.5499 174.324 13.1646C174.519 12.7752 174.801 12.4644 175.169 12.2324C175.542 11.9963 175.994 11.8782 176.524 11.8782C177.063 11.8782 177.514 11.9963 177.879 12.2324C178.243 12.4644 178.519 12.7752 178.705 13.1646C178.892 13.5499 178.985 13.9746 178.985 14.4386V15.1097C178.985 15.5737 178.89 16.0005 178.699 16.3899C178.513 16.7752 178.235 17.0859 177.866 17.3221C177.502 17.5541 177.054 17.6701 176.524 17.6701C175.986 17.6701 175.532 17.5541 175.163 17.3221C174.794 17.0859 174.515 16.7752 174.324 16.3899C174.134 16.0005 174.038 15.5737 174.038 15.1097ZM175.306 14.4386V15.1097C175.306 15.495 175.397 15.841 175.58 16.1475C175.762 16.45 176.077 16.6012 176.524 16.6012C176.959 16.6012 177.266 16.45 177.444 16.1475C177.626 15.841 177.717 15.495 177.717 15.1097V14.4386C177.717 14.0533 177.63 13.7094 177.456 13.407C177.282 13.1004 176.972 12.9471 176.524 12.9471C176.089 12.9471 175.776 13.1004 175.586 13.407C175.399 13.7094 175.306 14.0533 175.306 14.4386ZM167.7 7.82635V7.15518C167.7 6.69117 167.795 6.26651 167.985 5.88121C168.18 5.49177 168.462 5.18105 168.831 4.94904C169.203 4.71289 169.655 4.59481 170.185 4.59481C170.724 4.59481 171.176 4.71289 171.54 4.94904C171.905 5.18105 172.18 5.49177 172.367 5.88121C172.553 6.26651 172.646 6.69117 172.646 7.15518V7.82635C172.646 8.29036 172.551 8.71709 172.36 9.10653C172.174 9.49183 171.896 9.80256 171.528 10.0387C171.163 10.2707 170.716 10.3867 170.185 10.3867C169.647 10.3867 169.193 10.2707 168.824 10.0387C168.456 9.80256 168.176 9.49183 167.985 9.10653C167.795 8.71709 167.7 8.29036 167.7 7.82635ZM168.967 7.15518V7.82635C168.967 8.21165 169.058 8.55759 169.241 8.86417C169.423 9.16661 169.738 9.31783 170.185 9.31783C170.62 9.31783 170.927 9.16661 171.105 8.86417C171.287 8.55759 171.379 8.21165 171.379 7.82635V7.15518C171.379 6.76989 171.292 6.42602 171.117 6.12358C170.943 5.817 170.633 5.66371 170.185 5.66371C169.75 5.66371 169.438 5.817 169.247 6.12358C169.061 6.42602 168.967 6.76989 168.967 7.15518ZM168.172 17.4961L176.922 4.76882H178.339L169.589 17.4961H168.172Z" fill="#667085"/>
<rect x="141.826" y="287.423" width="253.021" height="37.1875" rx="2.55208" transform="rotate(-90 141.826 287.423)" fill="white" stroke="#D9D9D9" stroke-width="0.729167"/>
<rect x="141.461" y="287.788" width="154.583" height="37.9167" rx="2.91667" transform="rotate(-90 141.461 287.788)" fill="#FFC73E"/>
<path d="M208.316 328.704L207.601 328.106L206.909 322.961C206.829 322.358 206.746 321.848 206.663 321.432C206.577 321.013 206.462 320.66 206.319 320.374C206.175 320.083 205.979 319.833 205.73 319.625C205.444 319.386 205.139 319.247 204.815 319.21C204.493 319.17 204.176 319.22 203.865 319.361C203.554 319.501 203.275 319.718 203.03 320.012C202.768 320.324 202.605 320.651 202.539 320.993C202.474 321.33 202.503 321.658 202.627 321.978C202.753 322.295 202.971 322.583 203.281 322.842L202.497 323.78C202.02 323.381 201.694 322.921 201.517 322.4C201.341 321.879 201.311 321.345 201.427 320.798C201.544 320.248 201.802 319.736 202.198 319.262C202.597 318.786 203.051 318.448 203.56 318.248C204.07 318.048 204.582 317.987 205.099 318.064C205.616 318.14 206.083 318.354 206.501 318.704C206.801 318.954 207.048 319.253 207.243 319.601C207.438 319.944 207.599 320.394 207.727 320.951C207.854 321.504 207.973 322.222 208.084 323.107L208.509 326.569L208.572 326.622L211.736 322.841L212.61 323.573L208.316 328.704ZM215.51 310.488L215.044 311.53C214.859 311.465 214.658 311.429 214.439 311.422C214.22 311.409 213.993 311.454 213.76 311.555C213.526 311.657 213.295 311.844 213.067 312.117C212.754 312.49 212.58 312.873 212.544 313.266C212.507 313.654 212.62 313.958 212.882 314.177C213.115 314.372 213.37 314.442 213.647 314.385C213.924 314.329 214.258 314.158 214.649 313.873L215.629 313.154C216.218 312.719 216.761 312.482 217.257 312.443C217.751 312.402 218.211 312.559 218.638 312.916C218.987 313.209 219.215 313.571 219.322 314.002C219.432 314.431 219.416 314.891 219.276 315.382C219.135 315.872 218.867 316.354 218.47 316.828C217.95 317.45 217.384 317.852 216.772 318.034C216.161 318.216 215.551 318.144 214.941 317.818L215.463 316.742C215.862 316.932 216.242 316.978 216.604 316.88C216.967 316.779 217.31 316.536 217.631 316.153C217.997 315.716 218.194 315.291 218.224 314.879C218.253 314.463 218.136 314.145 217.874 313.925C217.663 313.748 217.423 313.674 217.156 313.702C216.886 313.729 216.587 313.865 216.259 314.113L215.17 314.93C214.57 315.378 214.021 315.617 213.524 315.646C213.026 315.671 212.567 315.507 212.146 315.155C211.801 314.867 211.578 314.515 211.475 314.1C211.374 313.683 211.389 313.243 211.519 312.78C211.652 312.315 211.898 311.868 212.257 311.439C212.762 310.835 213.291 310.472 213.844 310.35C214.399 310.224 214.954 310.27 215.51 310.488ZM217.638 305.17L218.432 305.835L215.787 308.996L214.992 308.331L217.638 305.17ZM214.302 306.187L215.086 305.249L220.901 310.115C221.165 310.337 221.396 310.464 221.593 310.498C221.789 310.528 221.961 310.5 222.108 310.416C222.254 310.327 222.385 310.214 222.5 310.076C222.587 309.973 222.652 309.884 222.697 309.808C222.739 309.731 222.773 309.669 222.798 309.623L223.8 310.137C223.77 310.22 223.72 310.329 223.648 310.463C223.58 310.599 223.472 310.754 223.326 310.929C223.104 311.194 222.83 311.406 222.504 311.565C222.179 311.721 221.831 311.785 221.458 311.757C221.088 311.726 220.725 311.562 220.371 311.265L214.302 306.187ZM226.563 307.189C226.24 307.576 225.874 307.866 225.464 308.059C225.052 308.25 224.63 308.322 224.197 308.275C223.761 308.225 223.344 308.034 222.947 307.702C222.598 307.409 222.372 307.103 222.27 306.784C222.166 306.462 222.148 306.134 222.216 305.8C222.284 305.465 222.404 305.134 222.576 304.805C222.747 304.471 222.933 304.147 223.133 303.832C223.396 303.422 223.611 303.091 223.78 302.841C223.949 302.586 224.047 302.38 224.075 302.223C224.104 302.064 224.044 301.921 223.893 301.794L223.861 301.768C223.469 301.44 223.075 301.292 222.679 301.325C222.284 301.355 221.906 301.586 221.545 302.018C221.171 302.465 220.975 302.898 220.958 303.316C220.942 303.734 221.001 304.088 221.137 304.377L220.075 305.001C219.837 304.532 219.726 304.079 219.741 303.641C219.756 303.199 219.854 302.786 220.035 302.402C220.217 302.013 220.436 301.665 220.693 301.358C220.857 301.162 221.069 300.957 221.329 300.743C221.589 300.524 221.89 300.355 222.233 300.236C222.577 300.115 222.96 300.095 223.382 300.178C223.803 300.261 224.256 300.505 224.741 300.91L228.76 304.274L227.976 305.211L227.15 304.52L227.11 304.567C227.189 304.742 227.242 304.966 227.269 305.241C227.296 305.515 227.259 305.82 227.159 306.155C227.059 306.49 226.86 306.835 226.563 307.189ZM225.841 306.342C226.151 305.971 226.34 305.598 226.407 305.222C226.476 304.843 226.45 304.492 226.328 304.17C226.209 303.845 226.022 303.576 225.768 303.363L224.91 302.645C224.924 302.725 224.895 302.849 224.821 303.017C224.748 303.18 224.652 303.362 224.535 303.561C224.418 303.755 224.301 303.943 224.185 304.125C224.068 304.302 223.974 304.446 223.903 304.558C223.731 304.828 223.592 305.099 223.487 305.371C223.38 305.638 223.343 305.895 223.375 306.142C223.406 306.384 223.541 306.605 223.779 306.804C224.105 307.077 224.452 307.162 224.82 307.061C225.188 306.955 225.529 306.715 225.841 306.342ZM230.192 302.563L224.092 297.458L224.849 296.553L225.771 297.324L225.824 297.26C225.615 296.896 225.539 296.49 225.594 296.041C225.65 295.593 225.831 295.186 226.137 294.821C226.194 294.752 226.267 294.667 226.357 294.566C226.446 294.465 226.515 294.39 226.565 294.341L227.518 295.139C227.483 295.164 227.41 295.227 227.299 295.328C227.188 295.423 227.08 295.533 226.976 295.658C226.727 295.954 226.568 296.271 226.498 296.608C226.427 296.941 226.443 297.265 226.547 297.582C226.651 297.894 226.84 298.165 227.116 298.395L230.976 301.626L230.192 302.563Z" fill="#455A64"/>
<path d="M208.101 14.886V13.6183L213.694 4.76882H214.614V6.7326H213.993L209.767 13.4194V13.5188H217.299V14.886H208.101ZM214.092 17.4961V14.5007V13.9103V4.76882H215.559V17.4961H214.092ZM223.779 17.6701C222.842 17.6701 222.045 17.4153 221.386 16.9057C220.727 16.392 220.224 15.6483 219.876 14.6747C219.528 13.697 219.354 12.5162 219.354 11.1325C219.354 9.75698 219.528 8.58245 219.876 7.60884C220.228 6.6311 220.734 5.88536 221.392 5.37163C222.055 4.85375 222.851 4.59481 223.779 4.59481C224.707 4.59481 225.5 4.85375 226.159 5.37163C226.822 5.88536 227.327 6.6311 227.675 7.60884C228.027 8.58245 228.204 9.75698 228.204 11.1325C228.204 12.5162 228.03 13.697 227.682 14.6747C227.333 15.6483 226.83 16.392 226.171 16.9057C225.513 17.4153 224.715 17.6701 223.779 17.6701ZM223.779 16.3029C224.707 16.3029 225.428 15.8555 225.941 14.9606C226.455 14.0657 226.712 12.7897 226.712 11.1325C226.712 10.0304 226.594 9.09203 226.358 8.31729C226.126 7.54255 225.79 6.95218 225.351 6.54616C224.916 6.14015 224.392 5.93714 223.779 5.93714C222.859 5.93714 222.14 6.3908 221.622 7.29812C221.105 8.20129 220.846 9.4794 220.846 11.1325C220.846 12.2345 220.962 13.1708 221.194 13.9414C221.426 14.712 221.759 15.2982 222.194 15.7001C222.633 16.102 223.162 16.3029 223.779 16.3029ZM237.053 15.1097V14.4386C237.053 13.9746 237.148 13.5499 237.339 13.1646C237.534 12.7752 237.815 12.4644 238.184 12.2324C238.557 11.9963 239.008 11.8782 239.539 11.8782C240.077 11.8782 240.529 11.9963 240.894 12.2324C241.258 12.4644 241.534 12.7752 241.72 13.1646C241.906 13.5499 242 13.9746 242 14.4386V15.1097C242 15.5737 241.904 16.0005 241.714 16.3899C241.527 16.7752 241.25 17.0859 240.881 17.3221C240.516 17.5541 240.069 17.6701 239.539 17.6701C239 17.6701 238.547 17.5541 238.178 17.3221C237.809 17.0859 237.529 16.7752 237.339 16.3899C237.148 16.0005 237.053 15.5737 237.053 15.1097ZM238.321 14.4386V15.1097C238.321 15.495 238.412 15.841 238.594 16.1475C238.776 16.45 239.091 16.6012 239.539 16.6012C239.974 16.6012 240.28 16.45 240.458 16.1475C240.641 15.841 240.732 15.495 240.732 15.1097V14.4386C240.732 14.0533 240.645 13.7094 240.471 13.407C240.297 13.1004 239.986 12.9471 239.539 12.9471C239.104 12.9471 238.791 13.1004 238.6 13.407C238.414 13.7094 238.321 14.0533 238.321 14.4386ZM230.714 7.82635V7.15518C230.714 6.69117 230.809 6.26651 231 5.88121C231.195 5.49177 231.476 5.18105 231.845 4.94904C232.218 4.71289 232.67 4.59481 233.2 4.59481C233.739 4.59481 234.19 4.71289 234.555 4.94904C234.919 5.18105 235.195 5.49177 235.381 5.88121C235.568 6.26651 235.661 6.69117 235.661 7.15518V7.82635C235.661 8.29036 235.566 8.71709 235.375 9.10653C235.189 9.49183 234.911 9.80256 234.542 10.0387C234.178 10.2707 233.73 10.3867 233.2 10.3867C232.661 10.3867 232.208 10.2707 231.839 10.0387C231.47 9.80256 231.191 9.49183 231 9.10653C230.809 8.71709 230.714 8.29036 230.714 7.82635ZM231.982 7.15518V7.82635C231.982 8.21165 232.073 8.55759 232.255 8.86417C232.438 9.16661 232.753 9.31783 233.2 9.31783C233.635 9.31783 233.942 9.16661 234.12 8.86417C234.302 8.55759 234.393 8.21165 234.393 7.82635V7.15518C234.393 6.76989 234.306 6.42602 234.132 6.12358C233.958 5.817 233.647 5.66371 233.2 5.66371C232.765 5.66371 232.452 5.817 232.262 6.12358C232.075 6.42602 231.982 6.76989 231.982 7.15518ZM231.186 17.4961L239.936 4.76882H241.353L232.603 17.4961H231.186Z" fill="#667085"/>
<rect x="207.451" y="287.423" width="253.021" height="37.1875" rx="2.55208" transform="rotate(-90 207.451 287.423)" fill="white" stroke="#D9D9D9" stroke-width="0.729167"/>
<rect x="207.086" y="287.788" width="107.917" height="37.9167" rx="2.91667" transform="rotate(-90 207.086 287.788)" fill="#FFC73E"/>
<path d="M268.7 319.038L276.834 325.844L276.01 326.829L268.909 320.887L268.869 320.934L268.526 324.024L267.525 323.186L267.876 320.023L268.7 319.038ZM280.319 312.061L279.853 313.102C279.668 313.038 279.467 313.002 279.248 312.994C279.028 312.982 278.802 313.027 278.568 313.128C278.335 313.23 278.104 313.417 277.876 313.69C277.563 314.063 277.389 314.446 277.353 314.839C277.316 315.227 277.429 315.531 277.691 315.75C277.924 315.945 278.179 316.014 278.456 315.958C278.733 315.902 279.067 315.731 279.458 315.446L280.438 314.727C281.027 314.292 281.57 314.055 282.066 314.016C282.56 313.975 283.02 314.132 283.447 314.489C283.796 314.781 284.024 315.143 284.131 315.575C284.24 316.004 284.225 316.464 284.085 316.954C283.944 317.445 283.676 317.927 283.279 318.401C282.759 319.023 282.193 319.425 281.581 319.607C280.97 319.788 280.36 319.716 279.75 319.391L280.272 318.315C280.671 318.505 281.051 318.551 281.413 318.453C281.776 318.352 282.119 318.109 282.44 317.725C282.806 317.288 283.003 316.864 283.033 316.452C283.062 316.035 282.945 315.717 282.683 315.498C282.471 315.321 282.232 315.246 281.965 315.275C281.695 315.301 281.396 315.438 281.068 315.686L279.978 316.503C279.379 316.951 278.83 317.189 278.333 317.219C277.835 317.243 277.375 317.08 276.954 316.727C276.61 316.439 276.387 316.088 276.284 315.673C276.183 315.255 276.198 314.815 276.328 314.353C276.461 313.888 276.707 313.441 277.066 313.012C277.571 312.408 278.1 312.045 278.653 311.922C279.208 311.797 279.763 311.843 280.319 312.061ZM282.447 306.743L283.241 307.407L280.596 310.569L279.801 309.904L282.447 306.743ZM279.111 307.759L279.895 306.822L285.71 311.688C285.974 311.909 286.205 312.037 286.402 312.071C286.598 312.1 286.769 312.073 286.916 311.989C287.063 311.9 287.194 311.786 287.309 311.649C287.395 311.545 287.461 311.456 287.506 311.381C287.548 311.304 287.582 311.242 287.607 311.196L288.608 311.71C288.579 311.793 288.529 311.902 288.457 312.036C288.388 312.172 288.281 312.327 288.135 312.502C287.913 312.767 287.639 312.978 287.313 313.137C286.988 313.294 286.64 313.358 286.267 313.329C285.897 313.299 285.534 313.135 285.179 312.838L279.111 307.759ZM291.372 308.762C291.049 309.149 290.682 309.439 290.273 309.632C289.861 309.823 289.439 309.895 289.006 309.847C288.57 309.798 288.153 309.607 287.756 309.275C287.407 308.982 287.181 308.676 287.079 308.357C286.975 308.035 286.956 307.707 287.025 307.373C287.093 307.038 287.213 306.706 287.385 306.377C287.556 306.044 287.742 305.72 287.942 305.405C288.204 304.995 288.42 304.664 288.589 304.414C288.758 304.159 288.856 303.953 288.883 303.796C288.913 303.636 288.853 303.493 288.702 303.367L288.67 303.341C288.278 303.013 287.884 302.865 287.488 302.898C287.093 302.928 286.715 303.159 286.354 303.59C285.98 304.038 285.784 304.471 285.767 304.889C285.751 305.307 285.81 305.661 285.946 305.95L284.884 306.574C284.646 306.105 284.535 305.651 284.55 305.214C284.565 304.771 284.663 304.358 284.844 303.975C285.025 303.586 285.245 303.238 285.502 302.931C285.665 302.735 285.878 302.53 286.138 302.316C286.398 302.096 286.699 301.927 287.042 301.809C287.386 301.688 287.769 301.668 288.191 301.751C288.612 301.834 289.065 302.078 289.55 302.483L293.569 305.846L292.785 306.784L291.959 306.092L291.919 306.14C291.998 306.314 292.051 306.539 292.078 306.813C292.105 307.088 292.068 307.393 291.968 307.728C291.868 308.063 291.669 308.407 291.372 308.762ZM290.65 307.915C290.96 307.544 291.149 307.171 291.216 306.794C291.285 306.416 291.259 306.065 291.137 305.743C291.018 305.418 290.831 305.149 290.577 304.936L289.719 304.218C289.733 304.298 289.704 304.422 289.63 304.59C289.557 304.753 289.461 304.934 289.344 305.134C289.227 305.328 289.11 305.516 288.994 305.698C288.877 305.875 288.783 306.019 288.712 306.131C288.54 306.401 288.401 306.672 288.295 306.944C288.189 307.21 288.152 307.467 288.184 307.715C288.215 307.957 288.35 308.178 288.588 308.377C288.914 308.65 289.261 308.735 289.629 308.634C289.997 308.528 290.338 308.288 290.65 307.915ZM295.001 304.136L288.9 299.031L289.658 298.125L290.58 298.896L290.633 298.833C290.424 298.469 290.347 298.063 290.403 297.614C290.459 297.166 290.64 296.759 290.945 296.393C291.003 296.324 291.076 296.24 291.165 296.138C291.254 296.037 291.324 295.963 291.373 295.914L292.327 296.712C292.292 296.737 292.219 296.8 292.108 296.9C291.996 296.996 291.889 297.106 291.784 297.231C291.536 297.527 291.377 297.844 291.306 298.181C291.235 298.513 291.252 298.838 291.356 299.155C291.46 299.466 291.649 299.738 291.925 299.968L295.785 303.198L295.001 304.136Z" fill="#455A64"/>
<path d="M278.825 17.6701C278.005 17.6701 277.273 17.5292 276.631 17.2475C275.993 16.9658 275.486 16.5743 275.109 16.073C274.736 15.5675 274.533 14.9813 274.5 14.3143H276.066C276.099 14.7244 276.24 15.0787 276.488 15.377C276.737 15.6711 277.062 15.899 277.464 16.0605C277.866 16.2221 278.311 16.3029 278.8 16.3029C279.347 16.3029 279.832 16.2076 280.254 16.017C280.677 15.8265 281.008 15.5613 281.249 15.2216C281.489 14.8819 281.609 14.4883 281.609 14.0408C281.609 13.5727 281.493 13.1605 281.261 12.8042C281.029 12.4437 280.689 12.162 280.242 11.959C279.794 11.756 279.248 11.6545 278.601 11.6545H277.582V10.2873H278.601C279.107 10.2873 279.55 10.1961 279.931 10.0138C280.316 9.83156 280.617 9.57469 280.832 9.24325C281.052 8.91181 281.162 8.52237 281.162 8.07493C281.162 7.64406 281.066 7.26912 280.876 6.95011C280.685 6.6311 280.416 6.38252 280.068 6.20437C279.724 6.02622 279.318 5.93714 278.85 5.93714C278.411 5.93714 277.996 6.01793 277.607 6.17951C277.222 6.33694 276.907 6.56688 276.662 6.86932C276.418 7.16761 276.285 7.52805 276.265 7.95064H274.773C274.798 7.28362 274.999 6.69945 275.376 6.19815C275.753 5.69271 276.246 5.29912 276.855 5.0174C277.468 4.73568 278.141 4.59481 278.875 4.59481C279.662 4.59481 280.337 4.75432 280.901 5.07333C281.464 5.3882 281.897 5.80457 282.199 6.32244C282.502 6.84032 282.653 7.39962 282.653 8.00036C282.653 8.71709 282.465 9.32818 282.088 9.83363C281.715 10.3391 281.207 10.6892 280.565 10.8839V10.9833C281.369 11.1159 281.996 11.4577 282.448 12.0087C282.9 12.5556 283.125 13.233 283.125 14.0408C283.125 14.7327 282.937 15.3542 282.56 15.9052C282.187 16.4521 281.677 16.8829 281.031 17.1978C280.385 17.5127 279.649 17.6701 278.825 17.6701ZM289.818 17.6701C288.882 17.6701 288.085 17.4153 287.426 16.9057C286.767 16.392 286.264 15.6483 285.916 14.6747C285.568 13.697 285.394 12.5162 285.394 11.1325C285.394 9.75698 285.568 8.58245 285.916 7.60884C286.268 6.6311 286.773 5.88536 287.432 5.37163C288.095 4.85375 288.89 4.59481 289.818 4.59481C290.746 4.59481 291.54 4.85375 292.199 5.37163C292.861 5.88536 293.367 6.6311 293.715 7.60884C294.067 8.58245 294.243 9.75698 294.243 11.1325C294.243 12.5162 294.069 13.697 293.721 14.6747C293.373 15.6483 292.87 16.392 292.211 16.9057C291.552 17.4153 290.755 17.6701 289.818 17.6701ZM289.818 16.3029C290.746 16.3029 291.467 15.8555 291.981 14.9606C292.495 14.0657 292.752 12.7897 292.752 11.1325C292.752 10.0304 292.634 9.09203 292.397 8.31729C292.165 7.54255 291.83 6.95218 291.391 6.54616C290.956 6.14015 290.432 5.93714 289.818 5.93714C288.899 5.93714 288.18 6.3908 287.662 7.29812C287.144 8.20129 286.885 9.4794 286.885 11.1325C286.885 12.2345 287.001 13.1708 287.233 13.9414C287.465 14.712 287.799 15.2982 288.234 15.7001C288.673 16.102 289.201 16.3029 289.818 16.3029ZM303.093 15.1097V14.4386C303.093 13.9746 303.188 13.5499 303.378 13.1646C303.573 12.7752 303.855 12.4644 304.224 12.2324C304.596 11.9963 305.048 11.8782 305.578 11.8782C306.117 11.8782 306.568 11.9963 306.933 12.2324C307.298 12.4644 307.573 12.7752 307.76 13.1646C307.946 13.5499 308.039 13.9746 308.039 14.4386V15.1097C308.039 15.5737 307.944 16.0005 307.753 16.3899C307.567 16.7752 307.289 17.0859 306.921 17.3221C306.556 17.5541 306.109 17.6701 305.578 17.6701C305.04 17.6701 304.586 17.5541 304.217 17.3221C303.849 17.0859 303.569 16.7752 303.378 16.3899C303.188 16.0005 303.093 15.5737 303.093 15.1097ZM304.36 14.4386V15.1097C304.36 15.495 304.451 15.841 304.634 16.1475C304.816 16.45 305.131 16.6012 305.578 16.6012C306.013 16.6012 306.32 16.45 306.498 16.1475C306.68 15.841 306.771 15.495 306.771 15.1097V14.4386C306.771 14.0533 306.684 13.7094 306.51 13.407C306.336 13.1004 306.026 12.9471 305.578 12.9471C305.143 12.9471 304.83 13.1004 304.64 13.407C304.453 13.7094 304.36 14.0533 304.36 14.4386ZM296.754 7.82635V7.15518C296.754 6.69117 296.849 6.26651 297.04 5.88121C297.234 5.49177 297.516 5.18105 297.885 4.94904C298.258 4.71289 298.709 4.59481 299.24 4.59481C299.778 4.59481 300.23 4.71289 300.594 4.94904C300.959 5.18105 301.234 5.49177 301.421 5.88121C301.607 6.26651 301.7 6.69117 301.7 7.15518V7.82635C301.7 8.29036 301.605 8.71709 301.415 9.10653C301.228 9.49183 300.951 9.80256 300.582 10.0387C300.217 10.2707 299.77 10.3867 299.24 10.3867C298.701 10.3867 298.247 10.2707 297.879 10.0387C297.51 9.80256 297.23 9.49183 297.04 9.10653C296.849 8.71709 296.754 8.29036 296.754 7.82635ZM298.021 7.15518V7.82635C298.021 8.21165 298.113 8.55759 298.295 8.86417C298.477 9.16661 298.792 9.31783 299.24 9.31783C299.675 9.31783 299.981 9.16661 300.159 8.86417C300.342 8.55759 300.433 8.21165 300.433 7.82635V7.15518C300.433 6.76989 300.346 6.42602 300.172 6.12358C299.998 5.817 299.687 5.66371 299.24 5.66371C298.805 5.66371 298.492 5.817 298.301 6.12358C298.115 6.42602 298.021 6.76989 298.021 7.15518ZM297.226 17.4961L305.976 4.76882H307.393L298.643 17.4961H297.226Z" fill="#667085"/>
<rect x="273.576" y="287.423" width="253.021" height="37.1875" rx="2.55208" transform="rotate(-90 273.576 287.423)" fill="white" stroke="#D9D9D9" stroke-width="0.729167"/>
<rect x="273.211" y="287.788" width="56.875" height="37.9167" rx="2.91667" transform="rotate(-90 273.211 287.788)" fill="#FFC73E"/>
</g>
</svg>
