<svg width="200" height="17" viewBox="0 0 200 17" fill="none" xmlns="http://www.w3.org/2000/svg">
<path d="M8.06687 16.201C7.04021 16.201 6.09354 16.021 5.22687 15.661C4.36021 15.301 3.60021 14.801 2.94687 14.161C2.30687 13.5076 1.81354 12.741 1.46687 11.861C1.12021 10.9676 0.946875 10.001 0.946875 8.96098C0.946875 7.90764 1.12021 6.94764 1.46687 6.08098C1.81354 5.20098 2.30687 4.43431 2.94687 3.78098C3.60021 3.12765 4.36021 2.62098 5.22687 2.26098C6.09354 1.90098 7.04021 1.72098 8.06687 1.72098C9.10687 1.72098 10.0535 1.90098 10.9069 2.26098C11.7735 2.62098 12.5269 3.12765 13.1669 3.78098C13.8202 4.43431 14.3202 5.20098 14.6669 6.08098C15.0135 6.96098 15.1869 7.92098 15.1869 8.96098C15.1869 10.001 15.0135 10.961 14.6669 11.841C14.3202 12.721 13.8202 13.4876 13.1669 14.141C12.5269 14.7943 11.7735 15.301 10.9069 15.661C10.0535 16.021 9.10687 16.201 8.06687 16.201ZM8.06687 13.361C8.65354 13.361 9.19354 13.2543 9.68687 13.041C10.1935 12.8276 10.6269 12.521 10.9869 12.121C11.3469 11.721 11.6269 11.2543 11.8269 10.721C12.0402 10.1876 12.1469 9.60098 12.1469 8.96098C12.1469 8.32098 12.0402 7.73431 11.8269 7.20098C11.6269 6.66764 11.3469 6.20764 10.9869 5.82098C10.6269 5.42098 10.1935 5.11431 9.68687 4.90098C9.19354 4.67431 8.65354 4.56098 8.06687 4.56098C7.48021 4.56098 6.94021 4.67431 6.44687 4.90098C5.95354 5.11431 5.52021 5.42098 5.14687 5.82098C4.77354 6.20764 4.48687 6.66764 4.28687 7.20098C4.10021 7.73431 4.00687 8.32098 4.00687 8.96098C4.00687 9.60098 4.10021 10.1876 4.28687 10.721C4.48687 11.2543 4.77354 11.721 5.14687 12.121C5.52021 12.521 5.95354 12.8276 6.44687 13.041C6.94021 13.2543 7.48021 13.361 8.06687 13.361ZM18.322 16.001V4.68098C18.322 4.02765 18.4687 3.43431 18.762 2.90098C19.0554 2.36764 19.4554 1.94764 19.962 1.64098C20.482 1.33431 21.0887 1.18098 21.782 1.18098C22.2487 1.18098 22.6887 1.26098 23.102 1.42098C23.5154 1.56765 23.8687 1.77431 24.162 2.04098L23.322 4.12098C23.1487 4.01431 22.9687 3.92764 22.782 3.86098C22.6087 3.78098 22.4487 3.74098 22.302 3.74098C22.0487 3.74098 21.8354 3.78765 21.662 3.88098C21.502 3.96098 21.382 4.08765 21.302 4.26098C21.222 4.42098 21.182 4.62764 21.182 4.88098V16.001H19.762C19.4554 16.001 19.182 16.001 18.942 16.001C18.702 16.001 18.4954 16.001 18.322 16.001ZM16.742 8.08098V5.68098H23.462V8.08098H16.742ZM26.182 16.001V4.68098C26.182 4.02765 26.3287 3.43431 26.622 2.90098C26.9154 2.36764 27.3154 1.94764 27.822 1.64098C28.342 1.33431 28.9487 1.18098 29.642 1.18098C30.1087 1.18098 30.5487 1.26098 30.962 1.42098C31.3754 1.56765 31.7287 1.77431 32.022 2.04098L31.182 4.12098C31.0087 4.01431 30.8287 3.92764 30.642 3.86098C30.4687 3.78098 30.3087 3.74098 30.162 3.74098C29.9087 3.74098 29.6954 3.78765 29.522 3.88098C29.362 3.96098 29.242 4.08765 29.162 4.26098C29.082 4.42098 29.042 4.62764 29.042 4.88098V16.001H27.622C27.3154 16.001 27.042 16.001 26.802 16.001C26.562 16.001 26.3554 16.001 26.182 16.001ZM24.602 8.08098V5.68098H31.322V8.08098H24.602ZM33.462 16.001V5.42098H36.302V16.001H33.462ZM34.862 3.24098C34.3154 3.24098 33.8887 3.10765 33.582 2.84098C33.2754 2.57431 33.122 2.19431 33.122 1.70098C33.122 1.24765 33.2754 0.880979 33.582 0.600979C33.902 0.307645 34.3287 0.160978 34.862 0.160978C35.4087 0.160978 35.8354 0.300979 36.142 0.580979C36.4487 0.847645 36.602 1.22098 36.602 1.70098C36.602 2.16765 36.442 2.54098 36.122 2.82098C35.8154 3.10098 35.3954 3.24098 34.862 3.24098ZM43.938 16.201C42.9246 16.201 42.018 15.961 41.218 15.481C40.418 15.001 39.7846 14.3476 39.318 13.521C38.8646 12.6943 38.638 11.7543 38.638 10.701C38.638 9.66098 38.8646 8.72764 39.318 7.90098C39.7846 7.06098 40.418 6.40098 41.218 5.92098C42.018 5.44098 42.9246 5.20098 43.938 5.20098C44.8846 5.20098 45.7513 5.37431 46.538 5.72098C47.3246 6.06764 47.938 6.54764 48.378 7.16098L46.818 9.04098C46.6313 8.78764 46.398 8.56098 46.118 8.36098C45.838 8.14764 45.5313 7.98098 45.198 7.86098C44.878 7.74098 44.5446 7.68098 44.198 7.68098C43.6513 7.68098 43.1646 7.81431 42.738 8.08098C42.3246 8.33431 41.998 8.68764 41.758 9.14098C41.518 9.59431 41.398 10.1143 41.398 10.701C41.398 11.2743 41.518 11.7876 41.758 12.241C42.0113 12.681 42.3513 13.041 42.778 13.321C43.2046 13.5876 43.6846 13.721 44.218 13.721C44.5646 13.721 44.8913 13.6743 45.198 13.581C45.5046 13.4743 45.7913 13.321 46.058 13.121C46.338 12.921 46.5913 12.681 46.818 12.401L48.358 14.281C47.9046 14.8543 47.278 15.321 46.478 15.681C45.678 16.0276 44.8313 16.201 43.938 16.201ZM50.4178 16.001V5.42098H53.2578V16.001H50.4178ZM51.8178 3.24098C51.2711 3.24098 50.8445 3.10765 50.5378 2.84098C50.2311 2.57431 50.0778 2.19431 50.0778 1.70098C50.0778 1.24765 50.2311 0.880979 50.5378 0.600979C50.8578 0.307645 51.2845 0.160978 51.8178 0.160978C52.3645 0.160978 52.7911 0.300979 53.0978 0.580979C53.4045 0.847645 53.5578 1.22098 53.5578 1.70098C53.5578 2.16765 53.3978 2.54098 53.0778 2.82098C52.7711 3.10098 52.3511 3.24098 51.8178 3.24098ZM60.2511 16.201C59.3711 16.201 58.5777 15.961 57.8711 15.481C57.1644 15.001 56.6044 14.3476 56.1911 13.521C55.7777 12.6943 55.5711 11.7476 55.5711 10.681C55.5711 9.61431 55.7777 8.67431 56.1911 7.86098C56.6177 7.03431 57.1911 6.38764 57.9111 5.92098C58.6311 5.44098 59.4511 5.20098 60.3711 5.20098C60.8911 5.20098 61.3644 5.28098 61.7911 5.44098C62.2311 5.58764 62.6111 5.79431 62.9311 6.06098C63.2644 6.32764 63.5444 6.63431 63.7711 6.98098C63.9977 7.32764 64.1577 7.70098 64.2511 8.10098L63.6511 8.00098V5.42098H66.4711V16.001H63.6111V13.461L64.2511 13.401C64.1444 13.7743 63.9711 14.1276 63.7311 14.461C63.4911 14.7943 63.1911 15.0943 62.8311 15.361C62.4844 15.6143 62.0911 15.821 61.6511 15.981C61.2111 16.1276 60.7444 16.201 60.2511 16.201ZM61.0311 13.741C61.5644 13.741 62.0311 13.6143 62.4311 13.361C62.8311 13.1076 63.1377 12.7543 63.3511 12.301C63.5777 11.8343 63.6911 11.2943 63.6911 10.681C63.6911 10.081 63.5777 9.55431 63.3511 9.10098C63.1377 8.64764 62.8311 8.29431 62.4311 8.04098C62.0311 7.77431 61.5644 7.64098 61.0311 7.64098C60.5111 7.64098 60.0511 7.77431 59.6511 8.04098C59.2644 8.29431 58.9577 8.64764 58.7311 9.10098C58.5044 9.55431 58.3911 10.081 58.3911 10.681C58.3911 11.2943 58.5044 11.8343 58.7311 12.301C58.9577 12.7543 59.2644 13.1076 59.6511 13.361C60.0511 13.6143 60.5111 13.741 61.0311 13.741ZM69.3384 16.001V1.20098H72.1784V16.001H69.3384ZM86.1334 16.201C85.2668 16.201 84.4734 16.0943 83.7534 15.881C83.0468 15.6676 82.4134 15.3543 81.8534 14.941C81.3068 14.5276 80.8134 14.0276 80.3734 13.441L82.2534 11.301C82.9068 12.2076 83.5534 12.8276 84.1934 13.161C84.8468 13.481 85.5534 13.641 86.3134 13.641C86.7268 13.641 87.0934 13.5876 87.4134 13.481C87.7468 13.361 88.0068 13.1943 88.1934 12.981C88.3801 12.7676 88.4734 12.5143 88.4734 12.221C88.4734 12.0076 88.4268 11.8143 88.3334 11.641C88.2401 11.4543 88.1068 11.2943 87.9334 11.161C87.7601 11.0143 87.5534 10.8876 87.3134 10.781C87.0734 10.661 86.8068 10.561 86.5134 10.481C86.2201 10.3876 85.9001 10.3143 85.5534 10.261C84.8068 10.0876 84.1534 9.88098 83.5934 9.64098C83.0334 9.38764 82.5668 9.08098 82.1934 8.72098C81.8201 8.34764 81.5401 7.92764 81.3534 7.46098C81.1801 6.99431 81.0934 6.46764 81.0934 5.88098C81.0934 5.28098 81.2268 4.72765 81.4934 4.22098C81.7601 3.70098 82.1268 3.25431 82.5934 2.88098C83.0734 2.50765 83.6201 2.22098 84.2334 2.02098C84.8601 1.82098 85.5201 1.72098 86.2134 1.72098C87.0668 1.72098 87.8134 1.82098 88.4534 2.02098C89.0934 2.20764 89.6468 2.48098 90.1134 2.84098C90.5934 3.20098 90.9934 3.64098 91.3134 4.16098L89.4134 6.00098C89.1334 5.62765 88.8268 5.31431 88.4934 5.06098C88.1734 4.80764 87.8201 4.62098 87.4334 4.50098C87.0601 4.36764 86.6734 4.30098 86.2734 4.30098C85.8334 4.30098 85.4534 4.36098 85.1334 4.48098C84.8134 4.58764 84.5601 4.74764 84.3734 4.96098C84.2001 5.17431 84.1134 5.43431 84.1134 5.74098C84.1134 5.98098 84.1734 6.19431 84.2934 6.38098C84.4134 6.56764 84.5868 6.73431 84.8134 6.88098C85.0401 7.01431 85.3134 7.13431 85.6334 7.24098C85.9534 7.34764 86.3068 7.44098 86.6934 7.52098C87.4268 7.66764 88.0868 7.86098 88.6734 8.10098C89.2601 8.34098 89.7601 8.63431 90.1734 8.98098C90.6001 9.31431 90.9268 9.71431 91.1534 10.181C91.3801 10.6343 91.4934 11.1476 91.4934 11.721C91.4934 12.6676 91.2668 13.4743 90.8134 14.141C90.3601 14.8076 89.7334 15.321 88.9334 15.681C88.1334 16.0276 87.2001 16.201 86.1334 16.201ZM92.5506 16.001L98.0306 2.00098H100.711L106.171 16.001H103.091L100.271 8.46098C100.191 8.24764 100.091 7.97431 99.9706 7.64098C99.8639 7.30764 99.7506 6.95431 99.6306 6.58098C99.5106 6.20764 99.3973 5.85431 99.2906 5.52098C99.1839 5.17431 99.1039 4.88764 99.0506 4.66098L99.5906 4.64098C99.5106 4.94764 99.4173 5.26764 99.3106 5.60098C99.2173 5.92098 99.1173 6.25431 99.0106 6.60098C98.9039 6.93431 98.7906 7.26098 98.6706 7.58098C98.5506 7.90098 98.4373 8.21431 98.3306 8.52098L95.5106 16.001H92.5506ZM95.0906 13.061L96.0706 10.641H102.491L103.491 13.061H95.0906ZM110.06 16.001V4.70098H105.98V2.00098H117.26V4.70098H113.06V16.001H110.06ZM123.098 11.141C122.191 11.141 121.365 10.9276 120.618 10.501C119.885 10.061 119.298 9.48098 118.858 8.76098C118.418 8.02764 118.198 7.21431 118.198 6.32098C118.198 5.65431 118.325 5.02764 118.578 4.44098C118.831 3.85431 119.178 3.34764 119.618 2.92098C120.071 2.48098 120.591 2.13431 121.178 1.88098C121.778 1.62765 122.418 1.50098 123.098 1.50098C123.765 1.50098 124.385 1.62765 124.958 1.88098C125.545 2.13431 126.058 2.48098 126.498 2.92098C126.938 3.36098 127.285 3.87431 127.538 4.46098C127.791 5.03431 127.918 5.65431 127.918 6.32098C127.918 6.98764 127.791 7.61431 127.538 8.20098C127.285 8.78764 126.938 9.30098 126.498 9.74098C126.071 10.1676 125.565 10.5076 124.978 10.761C124.405 11.0143 123.778 11.141 123.098 11.141ZM123.098 9.86098C123.751 9.86098 124.345 9.70764 124.878 9.40098C125.425 9.08098 125.858 8.65431 126.178 8.12098C126.498 7.57431 126.658 6.97431 126.658 6.32098C126.658 5.66764 126.498 5.07431 126.178 4.54098C125.858 3.99431 125.425 3.56098 124.878 3.24098C124.345 2.92098 123.751 2.76098 123.098 2.76098C122.431 2.76098 121.818 2.92098 121.258 3.24098C120.711 3.56098 120.271 3.99431 119.938 4.54098C119.618 5.07431 119.458 5.66764 119.458 6.32098C119.458 6.98764 119.618 7.58764 119.938 8.12098C120.271 8.65431 120.711 9.08098 121.258 9.40098C121.818 9.70764 122.431 9.86098 123.098 9.86098ZM123.778 8.66098L123.038 6.82098L124.298 6.50098L125.318 8.66098H123.778ZM121.178 8.66098V3.88098H123.538C124.018 3.88098 124.411 4.02098 124.718 4.30098C125.025 4.58098 125.178 4.94098 125.178 5.38098C125.178 5.82098 125.018 6.18764 124.698 6.48098C124.378 6.76098 123.991 6.90098 123.538 6.90098H122.318L122.638 6.68098V8.66098H121.178ZM122.638 6.10098L122.358 5.96098H123.138C123.311 5.96098 123.458 5.92098 123.578 5.84098C123.698 5.74764 123.758 5.63431 123.758 5.50098C123.758 5.35431 123.705 5.24098 123.598 5.16098C123.505 5.08098 123.365 5.04098 123.178 5.04098H122.318L122.638 4.88098V6.10098ZM140.547 16.201C139.681 16.201 138.887 16.0943 138.167 15.881C137.461 15.6676 136.827 15.3543 136.267 14.941C135.721 14.5276 135.227 14.0276 134.787 13.441L136.667 11.301C137.321 12.2076 137.967 12.8276 138.607 13.161C139.261 13.481 139.967 13.641 140.727 13.641C141.141 13.641 141.507 13.5876 141.827 13.481C142.161 13.361 142.421 13.1943 142.607 12.981C142.794 12.7676 142.887 12.5143 142.887 12.221C142.887 12.0076 142.841 11.8143 142.747 11.641C142.654 11.4543 142.521 11.2943 142.347 11.161C142.174 11.0143 141.967 10.8876 141.727 10.781C141.487 10.661 141.221 10.561 140.927 10.481C140.634 10.3876 140.314 10.3143 139.967 10.261C139.221 10.0876 138.567 9.88098 138.007 9.64098C137.447 9.38764 136.981 9.08098 136.607 8.72098C136.234 8.34764 135.954 7.92764 135.767 7.46098C135.594 6.99431 135.507 6.46764 135.507 5.88098C135.507 5.28098 135.641 4.72765 135.907 4.22098C136.174 3.70098 136.541 3.25431 137.007 2.88098C137.487 2.50765 138.034 2.22098 138.647 2.02098C139.274 1.82098 139.934 1.72098 140.627 1.72098C141.481 1.72098 142.227 1.82098 142.867 2.02098C143.507 2.20764 144.061 2.48098 144.527 2.84098C145.007 3.20098 145.407 3.64098 145.727 4.16098L143.827 6.00098C143.547 5.62765 143.241 5.31431 142.907 5.06098C142.587 4.80764 142.234 4.62098 141.847 4.50098C141.474 4.36764 141.087 4.30098 140.687 4.30098C140.247 4.30098 139.867 4.36098 139.547 4.48098C139.227 4.58764 138.974 4.74764 138.787 4.96098C138.614 5.17431 138.527 5.43431 138.527 5.74098C138.527 5.98098 138.587 6.19431 138.707 6.38098C138.827 6.56764 139.001 6.73431 139.227 6.88098C139.454 7.01431 139.727 7.13431 140.047 7.24098C140.367 7.34764 140.721 7.44098 141.107 7.52098C141.841 7.66764 142.501 7.86098 143.087 8.10098C143.674 8.34098 144.174 8.63431 144.587 8.98098C145.014 9.31431 145.341 9.71431 145.567 10.181C145.794 10.6343 145.907 11.1476 145.907 11.721C145.907 12.6676 145.681 13.4743 145.227 14.141C144.774 14.8076 144.147 15.321 143.347 15.681C142.547 16.0276 141.614 16.201 140.547 16.201ZM152.825 16.201C151.811 16.201 150.905 15.961 150.105 15.481C149.305 15.001 148.671 14.3476 148.205 13.521C147.751 12.6943 147.525 11.7543 147.525 10.701C147.525 9.66098 147.751 8.72764 148.205 7.90098C148.671 7.06098 149.305 6.40098 150.105 5.92098C150.905 5.44098 151.811 5.20098 152.825 5.20098C153.771 5.20098 154.638 5.37431 155.425 5.72098C156.211 6.06764 156.825 6.54764 157.265 7.16098L155.705 9.04098C155.518 8.78764 155.285 8.56098 155.005 8.36098C154.725 8.14764 154.418 7.98098 154.085 7.86098C153.765 7.74098 153.431 7.68098 153.085 7.68098C152.538 7.68098 152.051 7.81431 151.625 8.08098C151.211 8.33431 150.885 8.68764 150.645 9.14098C150.405 9.59431 150.285 10.1143 150.285 10.701C150.285 11.2743 150.405 11.7876 150.645 12.241C150.898 12.681 151.238 13.041 151.665 13.321C152.091 13.5876 152.571 13.721 153.105 13.721C153.451 13.721 153.778 13.6743 154.085 13.581C154.391 13.4743 154.678 13.321 154.945 13.121C155.225 12.921 155.478 12.681 155.705 12.401L157.245 14.281C156.791 14.8543 156.165 15.321 155.365 15.681C154.565 16.0276 153.718 16.201 152.825 16.201ZM163.984 16.201C162.904 16.201 161.938 15.9676 161.085 15.501C160.245 15.021 159.578 14.3676 159.085 13.541C158.605 12.7143 158.365 11.7676 158.365 10.701C158.365 9.63431 158.605 8.69431 159.085 7.88098C159.578 7.05431 160.245 6.40098 161.085 5.92098C161.938 5.44098 162.904 5.20098 163.984 5.20098C165.051 5.20098 166.004 5.44098 166.844 5.92098C167.698 6.40098 168.364 7.05431 168.844 7.88098C169.324 8.69431 169.564 9.63431 169.564 10.701C169.564 11.7676 169.324 12.7143 168.844 13.541C168.364 14.3676 167.698 15.021 166.844 15.501C166.004 15.9676 165.051 16.201 163.984 16.201ZM163.984 13.721C164.504 13.721 164.971 13.5943 165.384 13.341C165.798 13.0743 166.118 12.7143 166.344 12.261C166.584 11.7943 166.704 11.2743 166.704 10.701C166.704 10.1143 166.584 9.59431 166.344 9.14098C166.118 8.67431 165.798 8.31431 165.384 8.06098C164.971 7.79431 164.504 7.66098 163.984 7.66098C163.451 7.66098 162.978 7.79431 162.564 8.06098C162.151 8.32764 161.825 8.68764 161.585 9.14098C161.345 9.59431 161.231 10.1143 161.245 10.701C161.231 11.2743 161.345 11.7943 161.585 12.261C161.825 12.7143 162.151 13.0743 162.564 13.341C162.978 13.5943 163.451 13.721 163.984 13.721ZM171.701 16.001V5.42098H174.441L174.541 8.82098L174.061 8.12098C174.221 7.57431 174.481 7.08098 174.841 6.64098C175.201 6.18764 175.621 5.83431 176.101 5.58098C176.595 5.32764 177.108 5.20098 177.641 5.20098C177.868 5.20098 178.088 5.22098 178.301 5.26098C178.515 5.30098 178.695 5.34764 178.841 5.40098L178.081 8.52098C177.921 8.44098 177.728 8.37431 177.501 8.32098C177.275 8.25431 177.041 8.22098 176.801 8.22098C176.481 8.22098 176.181 8.28098 175.901 8.40098C175.635 8.50764 175.401 8.66764 175.201 8.88098C175.001 9.08098 174.841 9.32098 174.721 9.60098C174.615 9.88098 174.561 10.1876 174.561 10.521V16.001H171.701ZM185.042 16.201C183.895 16.201 182.895 15.9676 182.042 15.501C181.188 15.0343 180.522 14.3943 180.042 13.581C179.562 12.7676 179.322 11.8343 179.322 10.781C179.322 9.96764 179.455 9.22098 179.722 8.54098C179.988 7.86098 180.362 7.27431 180.842 6.78098C181.322 6.27431 181.888 5.88764 182.542 5.62098C183.208 5.34098 183.928 5.20098 184.702 5.20098C185.422 5.20098 186.088 5.33431 186.702 5.60098C187.315 5.85431 187.842 6.22098 188.282 6.70098C188.735 7.16764 189.082 7.72098 189.322 8.36098C189.562 9.00098 189.668 9.70098 189.642 10.461L189.622 11.341H181.122L180.662 9.60098H187.282L186.962 9.96098V9.52098C186.935 9.16098 186.815 8.83431 186.602 8.54098C186.402 8.24764 186.142 8.02098 185.822 7.86098C185.502 7.70098 185.142 7.62098 184.742 7.62098C184.155 7.62098 183.655 7.73431 183.242 7.96098C182.842 8.18764 182.535 8.52098 182.322 8.96098C182.108 9.40098 182.002 9.93431 182.002 10.561C182.002 11.201 182.135 11.7543 182.402 12.221C182.682 12.6876 183.068 13.0543 183.562 13.321C184.068 13.5743 184.662 13.701 185.342 13.701C185.808 13.701 186.235 13.6276 186.622 13.481C187.008 13.3343 187.422 13.081 187.862 12.721L189.222 14.621C188.835 14.9676 188.408 15.261 187.942 15.501C187.475 15.7276 186.995 15.901 186.502 16.021C186.008 16.141 185.522 16.201 185.042 16.201ZM195.3 16.201C194.314 16.201 193.434 16.041 192.66 15.721C191.9 15.3876 191.287 14.9343 190.82 14.361L192.58 12.841C192.994 13.281 193.454 13.601 193.96 13.801C194.467 13.9876 194.974 14.081 195.48 14.081C195.68 14.081 195.86 14.061 196.02 14.021C196.194 13.9676 196.34 13.901 196.46 13.821C196.58 13.7276 196.667 13.621 196.72 13.501C196.787 13.3676 196.82 13.2276 196.82 13.081C196.82 12.7876 196.7 12.5543 196.46 12.381C196.327 12.3143 196.12 12.2343 195.84 12.141C195.56 12.0343 195.2 11.921 194.76 11.801C194.08 11.6276 193.5 11.4276 193.02 11.201C192.554 10.961 192.18 10.6943 191.9 10.401C191.66 10.121 191.474 9.82098 191.34 9.50098C191.22 9.16764 191.16 8.80098 191.16 8.40098C191.16 7.92098 191.267 7.48764 191.48 7.10098C191.694 6.70098 191.987 6.36098 192.36 6.08098C192.747 5.80098 193.187 5.58764 193.68 5.44098C194.174 5.28098 194.694 5.20098 195.24 5.20098C195.787 5.20098 196.32 5.26764 196.84 5.40098C197.36 5.53431 197.84 5.72764 198.28 5.98098C198.734 6.22098 199.127 6.50764 199.46 6.84098L197.94 8.52098C197.7 8.29431 197.427 8.08764 197.12 7.90098C196.827 7.71431 196.52 7.56764 196.2 7.46098C195.88 7.35431 195.594 7.30098 195.34 7.30098C195.114 7.30098 194.907 7.32098 194.72 7.36098C194.547 7.40098 194.4 7.46098 194.28 7.54098C194.16 7.62098 194.067 7.72764 194 7.86098C193.947 7.98098 193.92 8.11431 193.92 8.26098C193.92 8.40764 193.954 8.54764 194.02 8.68098C194.1 8.81431 194.207 8.92764 194.34 9.02098C194.487 9.10098 194.7 9.19431 194.98 9.30098C195.274 9.40764 195.667 9.52764 196.16 9.66098C196.8 9.83431 197.34 10.0276 197.78 10.241C198.234 10.4543 198.594 10.701 198.86 10.981C199.087 11.221 199.254 11.4943 199.36 11.801C199.467 12.1076 199.52 12.4476 199.52 12.821C199.52 13.4743 199.334 14.061 198.96 14.581C198.6 15.0876 198.1 15.4876 197.46 15.781C196.82 16.061 196.1 16.201 195.3 16.201Z" fill="#26435F"/>
</svg>
