<svg width="541" height="500" viewBox="0 0 541 500" fill="none" xmlns="http://www.w3.org/2000/svg">
<g opacity="0.2">
<path d="M145.171 373.58C134.303 373.587 123.555 371.481 113.623 367.398C103.692 363.316 94.7993 357.348 87.5227 349.882C80.2461 342.415 74.7479 333.618 71.3848 324.06C68.0217 314.502 66.8688 304.397 68.001 294.4C40.3096 285.13 21.7441 259.24 21.7441 229.79C21.7441 210.73 29.7239 192.46 43.6615 179.57C35.9063 168.412 31.8161 155.414 31.8865 142.15C31.8865 106.48 62.9947 85.29 93.9191 82.65C94.9662 74.4689 97.781 66.566 102.196 59.411C106.612 52.256 112.537 45.9949 119.621 41C134.632 30.2065 153.325 24.7387 172.317 25.5861C191.309 26.4336 209.346 33.5401 223.164 45.62C236.16 26.42 257.591 15 280.655 15C299.815 15 317.634 22.69 330.891 36.67C342.261 30.7684 355.08 27.6692 368.119 27.67C402.19 27.67 433.114 49.23 445.192 81.37C462.595 81.7436 479.149 88.4016 491.312 99.9195C503.475 111.437 510.281 126.9 510.274 143C510.274 161.29 499.158 182.21 484.323 192.07C498.639 205.85 505.538 223.21 503.786 241.07C499.764 281.54 467.423 302.68 445.192 302.68C442.835 318.35 433.006 333 417.457 343.97C402.503 354.53 383.581 360.59 365.556 360.59C344.289 360.463 323.857 352.917 308.346 339.46C294.711 359.66 272.221 371.69 248 371.69C230.138 371.69 212.978 365.09 199.603 353.11C185.091 366.309 165.525 373.667 145.171 373.58ZM168.678 26.86C136.24 26.86 99.4768 46.65 95.2923 83.33L95.2274 83.88L94.6435 83.93C64.1733 86.29 33.3354 107.05 33.3354 142.15C33.273 155.344 37.4094 168.264 45.2294 179.3L45.5538 179.76L45.1321 180.14C31.2053 192.79 23.2255 210.89 23.2255 229.79C23.2255 258.87 41.6071 284.4 69.0606 293.32L69.5904 293.5V294.02C69.2793 296.61 69.1205 299.214 69.1147 301.82C69.1429 315.72 73.6181 329.302 81.9764 340.854C90.3347 352.407 102.203 361.414 116.085 366.741C129.968 372.068 145.244 373.476 159.99 370.789C174.737 368.102 188.294 361.439 198.954 351.64L199.462 351.18L199.97 351.64C213.14 363.64 230.149 370.3 247.86 370.3C271.842 370.3 294.117 358.23 307.438 338.01L307.903 337.31L308.541 337.87C324.381 351.63 344.601 359.2 365.47 359.2C399.454 359.2 438.996 336.2 443.786 301.87L443.862 301.27H444.511C466.136 301.74 498.347 280.96 502.326 240.88C504.089 223.19 497.115 205.96 482.69 192.38L482.096 191.81L482.799 191.36C497.385 182.1 508.836 160.83 508.836 143C508.763 127.195 502.009 112.042 490.018 100.781C478.027 89.5188 461.749 83.0405 444.662 82.73H444.165L444.003 82.29C432.228 50.39 401.736 29 368.119 29C355.131 28.9907 342.366 32.1171 331.085 38.07L330.566 38.33L330.188 37.92C317.213 23.98 299.577 16.3 280.655 16.3C257.818 16.3 236.615 27.79 223.931 47.04L223.466 47.74L222.828 47.18C208.244 34.2639 188.871 26.9941 168.678 26.86Z" fill="#E0E0E0"/>
<path d="M228.451 483.43L52.7012 389.52L330.869 240.95L506.619 334.86L228.451 483.43Z" fill="#E0E0E0"/>
<path d="M349.034 468.67C347.114 468.696 345.219 468.266 343.531 467.42L339.39 465.21C338.522 464.894 337.777 464.343 337.252 463.629C336.727 462.916 336.446 462.073 336.446 461.21C336.446 460.347 336.727 459.504 337.252 458.791C337.777 458.078 338.522 457.527 339.39 457.21L393.94 428C389.074 423 386.922 417.39 387.679 411.64C388.652 404.31 394.448 397.46 404.017 392.35C414.365 386.82 428.097 383.78 442.683 383.78C457.27 383.78 471.002 386.78 481.361 392.35C491.989 398.02 497.839 405.66 497.839 413.85C497.839 422.04 491.989 429.67 481.361 435.34C471.002 440.87 457.27 443.91 442.694 443.91C428.638 443.91 415.36 441.08 405.153 435.91L355.198 467.05C353.355 468.127 351.215 468.69 349.034 468.67Z" fill="#E0E0E0"/>
<path d="M169.273 472.72L156.557 459.36L82.4686 419.66L79.7762 418.22L75.3755 415.87L75.0727 415.71H75.1808L70.9531 413.47L53.6527 404.26C50.3116 402.15 45.3053 406.43 43.359 410.75C43.059 411.394 42.8308 412.064 42.6778 412.75C42.2994 414.54 42.6778 416.16 44.0618 417.07L58.1184 424.58L61.9461 426.58L65.1034 428.26L65.4061 428.41L69.0608 430.36C69.1001 430.405 69.1477 430.442 69.2014 430.47L72.2722 432.08L147.961 472.65L166.516 476.04L171.565 476.97C171.679 476.99 171.796 476.985 171.906 476.956C172.017 476.926 172.119 476.873 172.203 476.8C172.337 476.675 172.412 476.506 172.412 476.33C172.412 476.155 172.337 475.986 172.203 475.86L169.273 472.72Z" fill="#E0E0E0"/>
<path d="M489.578 400.93C489.578 394.4 484.918 387.86 475.576 382.88C456.902 372.88 426.637 372.88 407.964 382.88C398.633 387.88 393.961 394.4 393.961 400.93V412.93C393.961 419.47 398.633 426 407.964 430.98C426.637 440.98 456.902 440.98 475.576 430.98C484.918 425.98 489.578 419.47 489.578 412.93V400.93ZM410.278 386.58C418.614 382.13 429.795 379.68 441.775 379.68C453.756 379.68 464.925 382.13 473.262 386.58C480.831 390.58 484.961 395.7 484.961 400.93C484.961 406.16 480.809 411.25 473.262 415.28C464.925 419.73 453.745 422.18 441.775 422.18C429.806 422.18 418.614 419.73 410.278 415.28C402.709 411.28 398.589 406.16 398.589 400.93C398.589 395.7 402.741 390.61 410.278 386.58Z" fill="#FF725E"/>
<path opacity="0.3" d="M407.964 419C426.638 429 456.902 429 475.576 419C494.25 409 494.25 392.87 475.576 382.9C456.902 372.93 426.638 372.9 407.964 382.9C389.291 392.9 389.258 409 407.964 419ZM398.579 400.95C398.579 395.72 402.731 390.63 410.278 386.6C418.615 382.15 429.795 379.7 441.765 379.7C453.734 379.7 464.926 382.15 473.262 386.6C480.831 390.6 484.951 395.72 484.951 400.95C484.951 406.18 480.799 411.27 473.262 415.3C464.926 419.75 453.734 422.2 441.765 422.2C429.795 422.2 418.615 419.75 410.278 415.3C402.731 411.25 398.579 406.16 398.579 400.93V400.95Z" fill="white"/>
<path d="M398.579 400.93C398.611 403.048 399.257 405.12 400.449 406.93C402.341 403.93 405.683 401.05 410.278 398.6C418.615 394.14 429.795 391.69 441.775 391.69C453.756 391.69 464.925 394.14 473.262 398.6C477.857 401.05 481.199 403.89 483.102 406.93C484.286 405.118 484.928 403.047 484.961 400.93C484.961 395.7 480.809 390.61 473.262 386.58C464.925 382.13 453.734 379.68 441.775 379.68C429.817 379.68 418.615 382.13 410.278 386.58C402.731 390.61 398.579 395.7 398.579 400.93Z" fill="#FF725E"/>
<path opacity="0.1" d="M398.579 400.93C398.611 403.048 399.257 405.12 400.449 406.93C402.341 403.93 405.683 401.05 410.278 398.6C418.615 394.14 429.795 391.69 441.775 391.69C453.756 391.69 464.925 394.14 473.262 398.6C477.857 401.05 481.199 403.89 483.102 406.93C484.286 405.118 484.928 403.047 484.961 400.93C484.961 395.7 480.809 390.61 473.262 386.58C464.925 382.13 453.734 379.68 441.775 379.68C429.817 379.68 418.615 382.13 410.278 386.58C402.731 390.61 398.579 395.7 398.579 400.93Z" fill="black"/>
<path opacity="0.6" d="M410.278 392C418.614 387.55 429.795 385.1 441.765 385.1C453.734 385.1 464.925 387.55 473.262 392C479.479 395.32 483.393 399.37 484.572 403.62C483.393 407.87 479.479 411.92 473.262 415.25C464.925 419.7 453.734 422.15 441.765 422.15C429.795 422.15 418.614 419.7 410.278 415.25C404.05 411.92 400.146 407.87 398.968 403.62C400.146 399.4 404.05 395.35 410.278 392Z" fill="white"/>
<path opacity="0.1" d="M430.509 425.75V437.75C422.598 436.848 414.946 434.557 407.964 431C398.633 426 393.962 419.48 393.962 412.95V400.95C393.965 399.619 394.157 398.294 394.535 397.01C392.264 404.78 396.697 413.01 407.953 419.01C414.941 422.56 422.596 424.847 430.509 425.75Z" fill="black"/>
<path d="M409.391 426.64C409.33 425.565 408.997 424.518 408.418 423.583C407.84 422.649 407.033 421.853 406.061 421.26C405.724 421.035 405.329 420.896 404.915 420.855C404.502 420.815 404.084 420.875 403.704 421.03L387.614 429.52C387.276 429.745 387.007 430.048 386.835 430.399C386.662 430.75 386.592 431.136 386.631 431.52C386.691 432.594 387.024 433.64 387.602 434.573C388.181 435.506 388.989 436.299 389.961 436.89C390.298 437.119 390.695 437.261 391.111 437.302C391.527 437.342 391.948 437.279 392.329 437.12L408.418 428.63C408.754 428.406 409.021 428.104 409.192 427.755C409.363 427.406 409.432 427.021 409.391 426.64Z" fill="#37474F"/>
<path d="M408.386 428.65C408.73 428.429 409.004 428.127 409.181 427.776C409.358 427.424 409.43 427.036 409.392 426.65C409.37 425.849 409.175 425.06 408.818 424.33L388.069 435.33C388.563 435.979 389.196 436.527 389.929 436.94C390.266 437.169 390.663 437.312 391.079 437.352C391.495 437.392 391.915 437.33 392.297 437.17L408.386 428.68V428.65Z" fill="#263238"/>
<path d="M392.642 436.87C392.566 435.471 392.135 434.109 391.384 432.892C390.632 431.676 389.582 430.641 388.317 429.87C387.885 429.581 387.378 429.401 386.848 429.346C386.317 429.292 385.78 429.366 385.29 429.56L343.477 449.83L351.435 462.83L391.442 439.45C391.869 439.155 392.205 438.762 392.416 438.309C392.627 437.856 392.705 437.36 392.642 436.87Z" fill="#FF725E"/>
<path opacity="0.1" d="M351.414 462.86L391.421 439.48C391.871 439.193 392.229 438.799 392.457 438.34C392.686 437.881 392.776 437.373 392.718 436.87C392.659 435.358 392.158 433.89 391.269 432.62L347.359 456.15L351.414 462.86Z" fill="black"/>
<path d="M347.359 462.47C345.7 461.459 344.322 460.101 343.336 458.506C342.35 456.912 341.783 455.125 341.682 453.29C341.682 449.91 344.266 448.56 347.413 450.29C349.071 451.301 350.449 452.659 351.436 454.254C352.422 455.848 352.988 457.635 353.09 459.47C353.079 462.81 350.505 464.17 347.359 462.47Z" fill="#FF725E"/>
<g opacity="0.2">
<path d="M347.359 462.47C345.7 461.459 344.322 460.101 343.336 458.506C342.35 456.912 341.783 455.125 341.682 453.29C341.682 449.91 344.266 448.56 347.413 450.29C349.071 451.301 350.449 452.659 351.436 454.254C352.422 455.848 352.988 457.635 353.09 459.47C353.079 462.81 350.505 464.17 347.359 462.47Z" fill="black"/>
</g>
<path d="M59.5781 418.91L61.3082 419.83L63.395 421L150.459 467.61C149.81 466.26 150.318 463.61 151.8 460.99C153.53 457.99 156.179 455.61 158.104 455.52L71.6019 409.21L67.5904 407C70.0989 408.54 62.1083 420.39 59.5781 418.91Z" fill="#455A64"/>
<path d="M71.3644 409.05L67.4935 407.05C66.4122 406.42 64.2496 408.25 62.4764 410.67C60.0327 413.88 58.054 418.13 59.5137 418.96L62.3682 420.47L63.4495 421C61.9898 420.16 63.9685 415.91 66.4122 412.7C68.1638 410.39 70.175 408.61 71.2887 409.04L71.3644 409.05Z" fill="#EBEBEB"/>
<path d="M70.4342 408.55C67.8824 407.09 59.9134 418.99 62.4652 420.46L66.3362 422.52C63.7844 421.05 71.7426 409.15 74.3052 410.61L70.4342 408.55Z" fill="#FF725E"/>
<path d="M77.9923 412.57L74.1754 410.57C71.6777 409.11 63.8601 420.57 65.9794 422.36L66.1091 422.45L69.9693 424.45C67.4715 422.94 75.4513 411.09 77.9923 412.57Z" fill="#EBEBEB"/>
<path d="M67.5905 407C66.5093 406.35 64.4116 408.19 62.5734 410.62C60.1622 413.77 58.2483 417.93 59.5567 418.85L43.3592 410.29C42.0617 409.47 41.7698 408.01 42.1049 406.4C43.0024 402.05 48.5061 396.52 51.9986 398.72L67.5905 407Z" fill="#F28F8F"/>
<path d="M168.397 468.11C167.067 469.78 167.197 470.6 167.197 470.6L150.459 467.6C148.794 465.25 149.886 461.44 152.189 458.72L152.924 459.11L168.397 468.11Z" fill="#F28F8F"/>
<path d="M171.75 471.43L167.198 470.6C167.198 470.6 166.992 469.79 168.398 468.11L172.377 470.43C172.496 470.544 172.563 470.696 172.563 470.855C172.563 471.014 172.496 471.166 172.377 471.28C172.294 471.352 172.194 471.403 172.084 471.43C171.974 471.456 171.859 471.456 171.75 471.43Z" fill="#37474F"/>
<path d="M158.082 455.47L169.565 467.52C169.106 467.588 168.686 467.8 168.376 468.12L152.903 459.12L152.167 458.73C153.757 456.83 155.887 455.49 158.082 455.47Z" fill="#FFA8A7"/>
<path d="M168.397 468.11C168.535 467.934 168.713 467.79 168.919 467.686C169.125 467.582 169.353 467.522 169.587 467.51L172.377 470.43L168.397 468.11Z" fill="#455A64"/>
<path opacity="0.2" d="M152.189 458.68L43.7376 402.77C42.9606 403.878 42.4074 405.108 42.1049 406.4C41.7589 408.02 42.1049 409.46 43.37 410.29L59.5891 418.91L61.3191 419.83L63.3952 421L150.459 467.61C148.416 464.64 150.654 460.34 152.189 458.68Z" fill="black"/>
<path d="M82.5229 180C79.7548 186 77.8518 193.28 77.0084 202.43C75.4297 219.62 81.7228 275.3 85.4964 300.2C90.9676 341.8 97.6715 341.87 107.414 348.84C124.184 360.84 172.398 384.3 188.315 390.09C217.174 400.6 240.767 384.4 258.359 376.36C274.472 368.807 290.025 360.275 304.919 350.82C309.298 347.82 311.58 344.82 311.536 341.71C311.536 340.47 311.536 335.36 311.536 334.04C311.536 330.04 307.709 325.72 299.642 320.88C284.732 311.93 230.863 282.88 209.983 272.18C209.977 272.142 209.959 272.105 209.93 272.077C209.901 272.048 209.863 272.028 209.821 272.02C193.753 263.02 184.087 201.71 172.961 169.1C172.733 168.4 172.496 167.73 172.247 167.1C171.998 166.47 171.858 166.1 171.663 165.58C170.96 163.8 170.246 162.18 169.5 160.69" fill="#FF725E"/>
<path d="M311.579 334C311.579 330 307.752 325.68 299.685 320.84C284.785 311.89 230.916 282.84 210.037 272.14C210.031 272.101 210.013 272.065 209.983 272.036C209.954 272.008 209.917 271.988 209.875 271.98C193.807 262.98 184.141 201.67 173.014 169.06C172.355 167.023 171.579 165.021 170.69 163.06C170.625 162.91 170.549 162.77 170.484 162.62C170.29 162.19 170.073 161.75 169.846 161.3C169.749 161.08 169.641 160.85 169.533 160.63C167.727 157.12 165.208 153.27 162.104 150.71C161.016 149.773 159.794 148.979 158.471 148.35C156.666 147.35 152.87 145.45 151.919 144.94C141.009 138.94 126.703 146.15 108.862 155.18C97.7794 160.8 88.3183 167.49 82.5551 179.94C79.7871 185.94 77.884 193.22 77.0406 202.37C75.462 219.56 81.755 275.24 85.5286 300.14C90.9999 341.74 97.7037 341.81 107.446 348.78C124.217 360.78 172.43 384.24 188.347 390.03C217.206 400.54 240.799 384.34 258.392 376.3C275.984 368.26 297.577 355.76 304.973 350.79C309.363 347.79 311.644 344.79 311.601 341.68C311.547 340.47 311.579 335.36 311.579 334Z" fill="#FF725E"/>
<path opacity="0.25" d="M311.579 334C311.579 330 307.752 325.68 299.685 320.84C284.785 311.89 230.916 282.84 210.037 272.14C210.031 272.101 210.013 272.065 209.983 272.036C209.954 272.008 209.917 271.988 209.875 271.98C193.807 262.98 184.141 201.67 173.014 169.06C172.355 167.023 171.579 165.021 170.69 163.06C170.625 162.91 170.549 162.77 170.484 162.62C170.29 162.19 170.073 161.75 169.846 161.3C169.749 161.08 169.641 160.85 169.533 160.63C167.727 157.12 165.208 153.27 162.104 150.71C161.016 149.773 159.794 148.979 158.471 148.35C156.666 147.35 152.87 145.45 151.919 144.94C141.009 138.94 126.703 146.15 108.862 155.18C97.7794 160.8 88.3183 167.49 82.5551 179.94C79.7871 185.94 77.884 193.22 77.0406 202.37C75.462 219.56 81.755 275.24 85.5286 300.14C90.9999 341.74 97.7037 341.81 107.446 348.78C124.217 360.78 172.43 384.24 188.347 390.03C217.206 400.54 240.799 384.34 258.392 376.3C275.984 368.26 297.577 355.76 304.973 350.79C309.363 347.79 311.644 344.79 311.601 341.68C311.547 340.47 311.579 335.36 311.579 334Z" fill="white"/>
<path d="M258.338 368.6C274.458 361.052 290.02 352.524 304.919 343.07C314.921 336.36 314.002 329.48 299.664 320.88C279.747 308.93 198.554 266.32 198.554 266.32C198.554 266.32 95.9093 322.32 100.321 332.69C104.732 343.06 168.268 375.04 188.293 382.32C217.163 392.82 240.756 376.63 258.338 368.6Z" fill="#FF725E"/>
<path opacity="0.6" d="M258.338 368.6C274.458 361.052 290.02 352.524 304.919 343.07C314.921 336.36 314.002 329.48 299.664 320.88C279.747 308.93 198.554 266.32 198.554 266.32C198.554 266.32 95.9093 322.32 100.321 332.69C104.732 343.06 168.268 375.04 188.293 382.32C217.163 392.82 240.756 376.63 258.338 368.6Z" fill="white"/>
<path d="M158.439 148.4C147.626 143.15 133.57 150.28 116.269 159.08C105.143 164.72 95.6604 171.41 89.8972 183.91L82.5229 180C88.2753 167.55 97.7473 160.86 108.83 155.24C126.671 146.24 140.977 138.96 151.887 145C152.838 145.5 156.633 147.45 158.439 148.4Z" fill="#FF725E"/>
<path opacity="0.5" d="M158.439 148.4C147.626 143.15 133.57 150.28 116.269 159.08C105.143 164.72 95.6604 171.41 89.8972 183.91L82.5229 180C88.2753 167.55 97.7473 160.86 108.83 155.24C126.671 146.24 140.977 138.96 151.887 145C152.838 145.5 156.633 147.45 158.439 148.4Z" fill="white"/>
<path d="M173.004 169.1C172.777 168.4 169.057 156.44 162.083 150.76C158.847 148.072 154.647 146.59 150.297 146.6C140.858 146.6 129.537 152.37 116.248 159.08C115.145 159.647 114.064 160.227 113.004 160.82C112.582 161.04 112.172 161.27 111.771 161.5C111.371 161.73 110.788 162.06 110.301 162.35C109.814 162.64 109.587 162.77 109.22 163C106.88 164.426 104.648 165.996 102.537 167.7C102.191 167.97 101.867 168.25 101.532 168.55C100.194 169.697 98.9267 170.912 97.7366 172.19L97.0986 172.88C96.8499 173.17 96.5796 173.46 96.3526 173.75C96.1255 174.04 95.866 174.34 95.6173 174.65C95.3686 174.96 95.1415 175.24 94.9145 175.56C93.9531 176.826 93.0652 178.137 92.2545 179.49C92.1464 179.66 92.0383 179.83 91.941 180.01C91.7247 180.37 91.5193 180.74 91.3138 181.12C91.0219 181.67 90.7408 182.22 90.4596 182.77C87.4321 188.94 85.3344 196.57 84.4477 206.28C81.8635 234.52 92.3302 327.87 102.829 335.92C102.829 335.92 101.218 326.79 122.292 314.49C136.652 306.14 146.729 299.12 162.051 292.17C199.387 275.17 209.864 272.02 209.864 272.02C193.786 263 184.119 201.71 173.004 169.1Z" fill="#FF725E"/>
<path opacity="0.4" d="M173.004 169.1C172.777 168.4 169.057 156.44 162.083 150.76C158.847 148.072 154.647 146.59 150.297 146.6C140.858 146.6 129.537 152.37 116.248 159.08C115.145 159.647 114.064 160.227 113.004 160.82C112.582 161.04 112.172 161.27 111.771 161.5C111.371 161.73 110.788 162.06 110.301 162.35C109.814 162.64 109.587 162.77 109.22 163C106.88 164.426 104.648 165.996 102.537 167.7C102.191 167.97 101.867 168.25 101.532 168.55C100.194 169.697 98.9267 170.912 97.7366 172.19L97.0986 172.88C96.8499 173.17 96.5796 173.46 96.3526 173.75C96.1255 174.04 95.866 174.34 95.6173 174.65C95.3686 174.96 95.1415 175.24 94.9145 175.56C93.9531 176.826 93.0652 178.137 92.2545 179.49C92.1464 179.66 92.0383 179.83 91.941 180.01C91.7247 180.37 91.5193 180.74 91.3138 181.12C91.0219 181.67 90.7408 182.22 90.4596 182.77C87.4321 188.94 85.3344 196.57 84.4477 206.28C81.8635 234.52 92.3302 327.87 102.829 335.92C102.829 335.92 101.218 326.79 122.292 314.49C136.652 306.14 146.729 299.12 162.051 292.17C199.387 275.17 209.864 272.02 209.864 272.02C193.786 263 184.119 201.71 173.004 169.1Z" fill="white"/>
<path d="M124.162 277.79C117.588 296.51 117.859 315 121.102 325.13C124.346 335.26 127.828 349.23 157.239 362.9C190.758 378.49 230.041 393.5 230.041 393.5L346.407 331.28L237.469 281.56L124.162 277.79Z" fill="#FF725E"/>
<path opacity="0.15" d="M124.162 277.79C117.588 296.51 117.859 315 121.102 325.13C124.346 335.26 127.828 349.23 157.239 362.9C190.758 378.49 230.041 393.5 230.041 393.5L346.407 331.28L237.469 281.56L124.162 277.79Z" fill="black"/>
<path opacity="0.35" d="M157.866 342.68C156.903 341.89 155.973 341.1 155.076 340.3C162.904 337.6 166.656 327.93 164.548 317.6C163.348 311.67 161.974 304.95 162.169 298.45H160.742C160.547 305.09 161.931 311.89 163.153 317.88C165.316 328.31 161.38 337.25 153.919 339.31C136.705 323.65 137.354 306.87 142.512 284.2L141.117 283.93C135.462 308.78 136.078 326.58 156.914 343.71C170.614 354.97 223.38 376.42 244.335 385.89L245.838 385.12C224.959 375.66 171.609 354 157.866 342.68Z" fill="black"/>
<path opacity="0.35" d="M240.302 299.54C237.361 312.72 229.067 319.63 229.067 319.63C246.984 329.38 287.553 350.39 297.934 357.2L309.514 351L239.361 315.62C243.2 306.13 240.302 299.54 240.302 299.54Z" fill="black"/>
<path d="M138.262 70C137.754 54.47 170.333 37.24 201.181 56C232.03 74.76 221.044 93 218.968 98.54L220.05 178.35L119.913 175.81C119.913 175.81 122.076 108.81 121.708 97.81C121.34 86.81 125.341 74 138.262 70Z" fill="#263238"/>
<path d="M240.302 251.88L260.089 243.54L268.318 238.74C264.252 223.23 253.18 198.96 245.146 182.81C238.658 169.75 232.938 165.7 211.237 161.24L213.649 195L240.302 251.88Z" fill="#455A64"/>
<path d="M117.859 304.89C118.335 286.27 124.92 267.35 124.779 263.28C124.141 245.62 118.551 222.51 116.637 212.28C112.474 190.02 115.285 172.38 120.8 167.86C120.8 167.86 139.041 161.77 145.994 160.08C150.167 159.08 146.902 160.08 153.281 159.08C163.932 157.477 174.743 156.974 185.514 157.58C188.142 157.77 200.598 159.49 200.598 159.49C204.382 160.22 211.27 161.23 211.281 161.24C211.292 161.25 220.017 167.54 228.376 180.64C234.755 190.64 234.993 209.64 235.317 230.54C235.75 258.19 237.339 265.38 242.605 283.89C228.376 312.46 150.156 321.43 117.859 304.89Z" fill="#37474F"/>
<path d="M120.757 167.86C111.804 170.33 104.386 174.1 102.375 190.26C100.364 206.42 115.934 243.85 118.594 250.13C121.254 256.41 127.828 265.62 134.045 267.41C140.263 269.2 145.139 223.53 145.139 223.53C145.139 223.53 139.603 199.81 137.333 192.65C135.062 185.49 127.98 171.93 120.757 167.86Z" fill="#455A64"/>
<path d="M206.123 76.2499C194.359 68.1799 173.566 68.7999 156.265 81.1599C161.964 90.8199 153.281 97.8399 153.162 103.77C156.028 112.05 151.346 115.98 148.459 113.05C144.004 104.67 134.51 105.05 130.661 110.58C127.179 115.58 128.023 122.93 135.181 129.72C142.155 136.35 149.053 132.14 149.118 130.72C149.118 130.72 151.129 149 151.378 152.66C151.627 156.32 151.183 157.88 145.972 159.79C167.381 165.49 183.665 165.9 190.607 156.62C187.309 155.85 187.428 153.55 187.038 150.51L186.195 144.43C194.11 144.51 198.154 143.71 202.501 141.22C208.988 137.5 213.865 127.74 213.086 108.22C212.481 93.7899 208.448 81.2999 206.123 76.2499Z" fill="#FFBDA7"/>
<path d="M186.162 144.47C171.933 144.09 158.049 140.71 154.449 134.97C154.449 134.97 154.903 141.48 160.871 144.21C169.251 148.03 186.822 149.07 186.822 149.07L186.162 144.47Z" fill="#B16668"/>
<path d="M195.397 82.5698L203.69 85.6498C203.492 86.1532 203.187 86.6148 202.793 87.0071C202.399 87.3994 201.923 87.7145 201.395 87.9336C200.866 88.1528 200.296 88.2716 199.717 88.283C199.138 88.2943 198.562 88.1981 198.024 87.9998C196.923 87.5726 196.038 86.7736 195.55 85.7651C195.062 84.7567 195.007 83.6143 195.397 82.5698Z" fill="#263238"/>
<path d="M194.337 79.2798C194.251 79.1882 194.134 79.1257 194.004 79.1022C193.875 79.0786 193.741 79.0954 193.624 79.1498C192.947 79.6291 192.408 80.2543 192.054 80.9708C191.7 81.6873 191.541 82.4733 191.591 83.2598C191.62 83.5446 191.693 83.8241 191.807 84.0898C191.919 84.4169 192.134 84.7058 192.423 84.9198C192.459 84.9493 192.505 84.9657 192.553 84.9657C192.601 84.9657 192.647 84.9493 192.683 84.9198C192.953 84.7098 192.845 84.2598 192.845 83.9198C192.845 83.5798 192.845 83.4598 192.845 83.2198C192.849 82.793 192.918 82.3688 193.051 81.9598C193.319 81.1621 193.812 80.4444 194.478 79.8798C194.629 79.7298 194.489 79.4198 194.337 79.2798ZM181.362 84.4798C181.199 84.2407 180.994 84.0278 180.757 83.8498C180.492 83.6094 180.158 83.446 179.794 83.3798C179.747 83.371 179.698 83.3771 179.655 83.397C179.612 83.4169 179.577 83.4496 179.556 83.4898C179.427 83.7998 179.751 84.1498 179.913 84.4198C180.075 84.6898 180.173 84.8198 180.292 85.0198C180.504 85.3989 180.66 85.8025 180.757 86.2198C180.924 87.0463 180.849 87.899 180.54 88.6898C180.465 88.9198 180.746 89.1398 180.962 89.1898C181.084 89.2311 181.217 89.2348 181.342 89.2006C181.467 89.1664 181.576 89.096 181.654 88.9998C182.157 88.0318 182.276 86.9307 181.989 85.8898C181.86 85.386 181.633 84.9081 181.319 84.4798H181.362Z" fill="#F0997A"/>
<path d="M168.841 90.6699L177.199 87.4699C177.003 86.9546 176.696 86.4818 176.295 86.0807C175.894 85.6795 175.409 85.3585 174.869 85.1374C174.329 84.9163 173.746 84.7998 173.155 84.7951C172.565 84.7903 171.98 84.8975 171.436 85.1099C170.316 85.5532 169.422 86.3769 168.939 87.4113C168.457 88.4458 168.421 89.6121 168.841 90.6699Z" fill="#263238"/>
<path d="M169.9 101.9C170.311 103.74 172.733 104.85 175.307 104.36C177.88 103.87 179.632 101.99 179.232 100.15C178.831 98.3098 177.523 101.4 174.906 101.89C172.29 102.38 169.478 100.06 169.9 101.9Z" fill="#263238"/>
<path d="M196.997 99.4198C196.77 101.29 198.695 103.04 201.322 103.33C203.95 103.62 206.242 102.33 206.469 100.47C206.696 98.6098 204.436 101.17 201.82 100.88C199.203 100.59 197.224 97.5498 196.997 99.4198Z" fill="#263238"/>
<path d="M192.38 123.83C192.192 123.678 191.985 123.548 191.764 123.44C191.475 123.353 191.178 123.289 190.877 123.25L189.396 122.99C188.315 122.82 187.233 122.66 186.206 122.53C185.179 122.4 183.979 122.25 182.854 122.15C181.742 121.99 180.615 121.94 179.491 122C179.026 122 179.102 122.62 179.491 122.77C180.602 123.103 181.754 123.301 182.919 123.36C184 123.5 185.082 123.63 186.163 123.78L189.299 124.19C190.356 124.454 191.464 124.499 192.542 124.32C192.737 124.25 192.467 123.9 192.38 123.83Z" fill="#B16668"/>
<path d="M157.768 94L136.24 106.82C137.428 106.537 138.664 106.474 139.878 106.635C141.092 106.797 142.259 107.179 143.312 107.76L158.785 98.69L157.768 94Z" fill="#455A64"/>
<path d="M216.027 89.0497C210.394 88.7897 202.803 89.0497 198.273 90.7197C193.202 92.5897 191.461 94.3897 188.617 94.6197C185.557 94.8497 183.535 93.3397 177.967 92.2797C173.523 91.4497 165.737 92.3697 160.19 93.3397C158.277 93.4997 156.557 94.1597 156.665 96.5197C157.022 98.7197 158.601 98.9697 159.12 100.74C160.428 106.89 162.688 114.52 171.468 114.32C189.601 114.15 182.713 98.2497 189.406 98.6397C191.828 98.9797 191.764 103.28 193.44 106.23C194.071 107.408 194.907 108.482 195.916 109.41C202.198 114.79 213.162 110.87 214.481 105.04C215.789 102.11 215.216 97.5597 216.644 95.0397C217.941 93.7797 218.839 89.5097 216.027 89.0497ZM182.616 104C182.33 105.74 181.563 107.383 180.389 108.77C179.487 109.742 178.374 110.528 177.122 111.075C175.87 111.623 174.507 111.921 173.122 111.95C169.219 112.18 165.197 110.75 163.942 107.31C163.791 106.99 163.651 106.68 163.521 106.38C162.569 103.83 161.153 98.3797 162.537 96.6997C165.078 93.8697 178.053 93.2497 182.129 97.0497C183.254 98.3297 183.092 101.35 182.616 104ZM213.357 100.66C213.043 102.48 212.351 106.43 208.75 108.41C203.982 111.02 196.943 109.1 195.602 104.73C192.001 95.6097 195.764 93.2097 205.712 91.6597C213.951 91.0897 214.546 92.9997 213.357 100.61V100.66Z" fill="#455A64"/>
<path d="M200.663 112.18L189.32 118.18L186.076 101.57C186.26 100.748 186.683 99.9874 187.298 99.3701L200.663 112.18Z" fill="#F0997A"/>
<path d="M151.184 150.46C147.94 151.15 148.156 152.02 147.94 155.55C147.724 159.08 143.755 159.26 143.453 160.73C143.15 162.2 155.682 173.56 177.459 169.78C199.084 166.04 196.824 157.62 196.824 157.62C196.046 156.44 194.37 156.35 191.721 155.51C189.071 154.67 189.017 154.06 188.974 152.24C188.931 150.42 188.455 149.98 186.985 150.55V151.98C186.985 151.98 186.985 155.54 172.982 156.3C157.682 157.13 151.357 152.7 151.357 152.7L151.184 150.46Z" fill="#455A64"/>
<path d="M167.597 139.92C169.005 142.113 169.447 144.724 168.83 147.21C168.43 148.69 167.046 149.52 166.321 150.85C165.175 152.94 164.635 155.28 163.078 157.2C162.208 158.404 160.88 159.261 159.358 159.6C158.871 158.498 158.74 157.289 158.98 156.12C159.694 152.004 159.994 147.837 159.877 143.67C159.753 141.787 159.39 139.924 158.796 138.12C158.515 137.24 157.714 134.84 158.99 134.27C159.317 134.151 159.675 134.127 160.018 134.2C163.261 134.59 165.175 136.25 166.884 138.76C167.165 139.14 167.414 139.53 167.597 139.92Z" fill="#FFBDA7"/>
<path d="M163.143 157.2C162.277 158.456 160.922 159.355 159.358 159.71C158.385 157.99 158.936 156 159.109 154.18C159.747 148.79 160.342 143.24 158.482 138C156.936 133.24 159.715 133.17 163.553 135.08C167.446 137.74 170.16 142.75 168.873 147.21C169.814 143.58 167.889 139.97 165.456 137.21C164.236 135.817 162.525 134.865 160.623 134.52C159.747 134.36 158.763 134.2 158.634 135.26C158.634 137.92 160.191 140.52 160.191 143.26C160.372 146.939 160.144 150.625 159.51 154.26C159.282 156.05 158.709 157.91 159.51 159.59L159.401 159.54C160.917 159.231 162.252 158.406 163.143 157.23V157.2Z" fill="#B16668"/>
<path d="M154.893 177C157.401 165.5 156.742 160.16 160.796 154.57C163.154 151.31 170.528 143.99 172.982 141.93C175.437 139.87 180.205 137.08 184.033 134.28C187.861 131.48 188.974 130.7 193.526 130.86C199.776 131.09 204.707 131.13 206.923 132.25C209.14 133.37 208.74 134.8 206.253 136.34C203.766 137.88 199.322 137.5 197.895 137.62C196.467 137.74 193.256 138.35 193.256 138.35L185.979 144.83C185.979 144.83 195.094 148.29 196.738 149.58C198.381 150.87 198.965 155.58 197.592 157.93C197.592 157.93 200.576 160.78 198.5 163.68C198.5 163.68 200.047 166.68 198.111 168.47C195.996 170.279 193.663 171.856 191.158 173.17C189.785 173.87 185.168 173.22 185.168 173.22C184.489 175.924 183.545 178.565 182.346 181.11C179.762 185.92 177.015 186.22 175.858 190.45L154.893 177Z" fill="#FFBDA7"/>
<path d="M197.441 158.11C196.29 156.74 194.952 155.514 193.462 154.46C192.067 153.46 189.072 151.78 189.072 151.78C191.287 152.396 193.393 153.309 195.322 154.49C196.305 155.081 197.231 155.751 198.09 156.49C197.989 156.98 197.806 157.452 197.549 157.89L197.441 158.11Z" fill="#F0997A"/>
<path d="M197.073 161.12C197.762 161.555 198.417 162.037 199.03 162.56C198.86 163.032 198.628 163.482 198.338 163.9C197.473 162.03 193.159 159.31 193.159 159.31C194.533 159.774 195.847 160.381 197.073 161.12Z" fill="#F0997A"/>
<path d="M185.125 173.22C186.39 171.22 188.127 169.511 190.207 168.22C191.915 167.03 194.532 167.76 194.932 168.71C195.332 169.66 192.283 168.96 191.31 169.15C190.337 169.34 187.223 171.22 185.125 173.22Z" fill="#F0997A"/>
<path d="M183.395 144.1C183.395 144.1 185.644 142.17 189.569 139.17C193.494 136.17 193.181 136.66 196.327 136.69C199.257 136.69 205.388 136.9 207.324 135.52C206.981 135.798 206.62 136.055 206.242 136.29C203.82 137.78 199.311 137.45 197.884 137.57C196.457 137.69 193.245 138.3 193.245 138.3L185.677 145.02L183.395 144.1Z" fill="#F0997A"/>
<path d="M154.893 177C155.747 173.21 156.363 169.37 157.001 165.54C157.639 161.71 158.515 157.85 160.904 154.65C163.423 151.561 166.146 148.619 169.057 145.84C170.506 144.44 171.944 143.03 173.49 141.74C175.037 140.45 176.788 139.38 178.497 138.26C180.205 137.14 181.924 136.02 183.59 134.84C185.144 133.566 186.866 132.477 188.715 131.6C190.618 130.88 192.748 131.06 194.835 131.13C196.922 131.2 199.019 131.26 201.106 131.41C203.193 131.56 205.345 131.68 207.064 132.62C207.482 132.825 207.819 133.147 208.026 133.54C208.097 133.733 208.114 133.94 208.077 134.141C208.039 134.342 207.947 134.53 207.81 134.69C207.198 135.427 206.41 136.023 205.507 136.43C203.581 137.1 201.529 137.406 199.473 137.33C198.944 137.33 198.392 137.33 197.884 137.33L196.316 137.58L193.202 138.08H193.126H193.072L185.774 144.62L185.525 144.85L185.849 144.98C189.093 146.26 192.456 147.52 195.581 149.09C197.278 149.73 197.743 151.47 198.014 153.09C198.306 154.693 198.088 156.34 197.387 157.83L197.322 157.94L197.419 158.04C198.162 158.791 198.68 159.708 198.922 160.7C199.136 161.698 198.914 162.733 198.306 163.58L198.252 163.66V163.74C198.643 164.399 198.849 165.138 198.849 165.89C198.849 166.642 198.643 167.381 198.252 168.04C197.108 169.169 195.832 170.175 194.446 171.04C193.764 171.49 193.061 171.93 192.359 172.34C191.726 172.816 190.987 173.157 190.196 173.34C188.529 173.457 186.852 173.393 185.201 173.15H185.082V173.25C184.381 176.436 183.202 179.516 181.578 182.4C180.642 183.783 179.555 185.073 178.335 186.25C177.131 187.452 176.279 188.918 175.858 190.51C176.299 188.929 177.166 187.477 178.378 186.29C179.598 185.12 180.685 183.836 181.622 182.46C183.291 179.578 184.518 176.495 185.266 173.3L185.125 173.39C186.795 173.664 188.495 173.738 190.185 173.61C191.034 173.45 191.831 173.107 192.51 172.61C193.234 172.2 193.927 171.77 194.619 171.32C196.034 170.459 197.34 169.453 198.511 168.32C198.954 167.621 199.198 166.829 199.219 166.019C199.24 165.209 199.037 164.408 198.63 163.69V163.85C199.289 162.932 199.53 161.811 199.3 160.73C199.048 159.668 198.5 158.686 197.711 157.88V158.09C198.463 156.521 198.704 154.784 198.403 153.09C198.296 152.251 198.064 151.43 197.711 150.65C197.323 149.851 196.636 149.208 195.775 148.84C192.612 147.295 189.364 145.903 186.044 144.67L186.12 145.03L193.44 138.51L193.321 138.57L196.392 138.09L197.938 137.85C198.435 137.85 198.965 137.85 199.484 137.85C201.623 137.938 203.759 137.614 205.756 136.9C206.745 136.453 207.604 135.795 208.264 134.98C208.45 134.755 208.571 134.491 208.616 134.211C208.661 133.931 208.63 133.645 208.524 133.38C208.271 132.895 207.864 132.493 207.356 132.23C205.41 131.23 203.225 131.16 201.149 130.97C199.073 130.78 196.954 130.78 194.856 130.71C192.759 130.64 190.596 130.47 188.563 131.24C186.682 132.141 184.928 133.253 183.341 134.55C181.697 135.74 179.989 136.86 178.28 137.99C176.572 139.12 174.853 140.22 173.263 141.51C171.674 142.8 170.268 144.24 168.83 145.65C165.911 148.443 163.188 151.406 160.677 154.52C158.266 157.79 157.434 161.73 156.861 165.52C156.287 169.31 155.704 173.15 154.893 177Z" fill="#B16668"/>
<path d="M154.893 177C152.73 187.18 125.439 225.78 123.038 235.27C120.638 244.76 127.482 262.84 132.575 266.65C137.668 270.46 149.67 266.19 155.844 255.65C162.018 245.11 172.139 205 175.826 190.45L154.893 177Z" fill="#FFBDA7"/>
<path d="M119.643 256C120.638 257.55 122.779 259 123.071 260.62C123.784 264.74 133.235 266.83 136.814 269.74C146.923 275.64 172.052 275.26 191.115 272.19C222.158 267.19 257.073 255.95 265.107 247.61C269.951 242.61 268.859 238.85 267.193 236.44C264.144 232 260.522 230.36 258.468 229.17C249.817 224.17 238.626 225.17 235.199 226.1C221.795 233.655 207.602 239.94 192.834 244.86C187.674 246.358 182.322 247.216 176.918 247.41C173.566 247.32 171.576 247.31 169.619 245.47C166.485 242.537 162.827 240.125 158.807 238.34C155.563 236.86 153.746 235.55 149.724 232.59C148.891 231.96 147.475 232.44 146.707 233.15C146.345 233.535 146.089 233.995 145.961 234.491C145.833 234.988 145.837 235.505 145.972 236C146.772 241.06 151.259 244.52 154.287 248.53C155.252 249.57 155.751 250.911 155.682 252.28C155.51 252.944 155.158 253.556 154.658 254.059C154.159 254.561 153.528 254.937 152.827 255.15C148.827 256.58 128.326 256.91 118.702 250.43C118.702 250.47 118.281 253.87 119.643 256Z" fill="#FFBDA7"/>
<path d="M169.619 245.51C167.002 242.936 163.98 240.741 160.655 239C158.979 238.13 157.282 237.4 155.725 236.41C154.168 235.42 152.697 234.34 151.216 233.24L150.135 232.41C149.913 232.224 149.65 232.085 149.364 232.003C149.079 231.92 148.777 231.895 148.48 231.93C147.929 231.987 147.4 232.164 146.937 232.448C146.475 232.731 146.092 233.112 145.82 233.56C145.389 234.459 145.298 235.467 145.561 236.42C145.725 237.32 146.001 238.199 146.383 239.04C147.929 242.43 150.708 245.04 152.957 247.75C154.038 249.11 155.314 250.57 155.195 252.08C155.076 253.59 153.411 254.72 151.692 255C147.98 255.563 144.213 255.751 140.457 255.56C136.678 255.44 132.919 255.009 129.223 254.27C125.494 253.622 121.929 252.333 118.713 250.47C121.856 252.488 125.381 253.943 129.104 254.76C132.814 255.604 136.6 256.136 140.414 256.35C144.25 256.633 148.11 256.485 151.908 255.91C152.964 255.79 153.952 255.363 154.729 254.691C155.506 254.019 156.033 253.136 156.233 252.17C156.363 250.04 154.903 248.53 153.833 247.17C151.486 244.37 148.751 241.87 147.345 238.72C146.98 237.945 146.715 237.133 146.556 236.3C146.33 235.539 146.383 234.73 146.707 234C146.91 233.683 147.187 233.412 147.518 233.208C147.85 233.004 148.226 232.871 148.621 232.82C148.796 232.786 148.978 232.793 149.15 232.84C149.321 232.887 149.478 232.973 149.605 233.09L150.74 233.89C152.254 234.96 153.768 236.04 155.39 236.99C157.012 237.94 158.774 238.68 160.45 239.48C163.813 241.059 166.903 243.091 169.619 245.51Z" fill="#F0997A"/>
<path d="M80.0791 369.87V391.35L227.467 470.13V448.65L80.0791 369.87Z" fill="#37474F"/>
<path d="M227.467 448.65L484.605 311.34V332.82L227.467 470.13V448.65Z" fill="#455A64"/>
<path d="M227.467 440.52L74.1646 358.6L336.222 218.66L489.514 300.59L227.467 440.52Z" fill="#FF725E"/>
<path opacity="0.8" d="M227.467 440.52L74.1646 358.6L336.222 218.66L489.514 300.59L227.467 440.52Z" fill="white"/>
<path d="M74.1646 358.6V369.99L227.467 451.91V440.52L74.1646 358.6Z" fill="#FF725E"/>
<path opacity="0.5" d="M74.1646 358.6V369.99L227.467 451.91V440.52L74.1646 358.6Z" fill="white"/>
<path d="M227.467 451.91L489.524 311.98L489.514 300.59L227.467 440.52V451.91Z" fill="#FF725E"/>
<path opacity="0.65" d="M227.467 440.52L489.514 300.59L489.524 311.98L227.467 451.91V440.52Z" fill="white"/>
<path d="M67.039 350.12C63.4059 347.52 59.6971 345.02 56.0424 342.44C54.3989 341.267 52.7481 340.107 51.0902 338.96C50.1819 338.34 49.2737 337.71 48.3438 337.11C47.9103 336.756 47.3851 336.511 46.8192 336.4C46.5597 336.4 45.9433 336.47 45.8028 336.72L45.673 336.94C45.5769 337.094 45.5317 337.271 45.5433 337.449C45.5548 337.627 45.6225 337.797 45.7379 337.94C47.3021 339.393 48.9869 340.73 50.7766 341.94C52.312 343.08 53.8691 344.18 55.4153 345.29C58.605 347.56 61.7623 349.88 65.017 352.07C65.2166 352.23 65.4588 352.337 65.7185 352.382C65.9782 352.426 66.246 352.405 66.4942 352.322C66.7423 352.238 66.9617 352.095 67.1298 351.906C67.2978 351.718 67.4083 351.491 67.4498 351.25C67.4949 351.045 67.4806 350.832 67.4084 350.634C67.3363 350.435 67.2088 350.258 67.039 350.12Z" fill="#E0E0E0"/>
<path d="M64.2061 355.67C59.7729 354.56 55.3072 353.55 50.874 352.46C48.8736 351.97 46.8625 351.46 44.8513 351C43.77 350.74 42.6888 350.49 41.5534 350.26C41.0092 350.081 40.4232 350.039 39.8558 350.14C39.6071 350.22 39.0773 350.51 39.0449 350.8V351.05C39.0217 351.226 39.0542 351.405 39.1387 351.565C39.2231 351.725 39.3558 351.859 39.5206 351.95C41.5655 352.731 43.6731 353.363 45.8245 353.84C47.7059 354.35 49.5981 354.84 51.4903 355.3C55.3829 356.3 59.2538 357.3 63.168 358.17C63.4185 358.246 63.6863 358.259 63.9439 358.207C64.2015 358.156 64.4396 358.041 64.6335 357.876C64.8275 357.711 64.9703 357.501 65.0472 357.268C65.1241 357.035 65.1324 356.787 65.0711 356.55C65.0262 356.345 64.9221 356.155 64.7698 356C64.6175 355.845 64.4227 355.731 64.2061 355.67Z" fill="#E0E0E0"/>
<path d="M61.892 361.13C57.5669 362.44 53.1878 363.85 48.8302 365.13C46.8623 365.73 44.8836 366.33 42.9265 366.95C41.8452 367.29 40.764 367.63 39.6827 368.01C39.1221 368.133 38.6071 368.392 38.1905 368.76C38.0283 368.96 37.758 369.47 37.8986 369.76L38.0283 369.99C38.1126 370.15 38.2455 370.283 38.4108 370.374C38.576 370.464 38.7663 370.508 38.9582 370.5C41.1288 370.116 43.265 369.581 45.3485 368.9C47.23 368.37 49.0898 367.81 50.9604 367.25C54.7881 366.1 58.6374 365 62.4326 363.75C62.6878 363.687 62.9202 363.563 63.1059 363.39C63.2915 363.216 63.4237 363 63.4888 362.763C63.5538 362.527 63.5494 362.278 63.4758 362.044C63.4023 361.81 63.2624 361.598 63.0706 361.43C62.917 361.293 62.7286 361.193 62.5227 361.141C62.3168 361.089 62.0999 361.085 61.892 361.13Z" fill="#E0E0E0"/>
<path d="M498.802 307C503.127 307.79 507.452 308.47 511.777 309.23C513.734 309.57 515.68 309.92 517.627 310.23C518.708 310.41 519.789 310.58 520.87 310.73C521.405 310.865 521.969 310.865 522.503 310.73C522.73 310.64 523.217 310.33 523.228 310.05V309.82C523.24 309.65 523.197 309.48 523.105 309.332C523.012 309.184 522.874 309.065 522.709 308.99C520.7 308.375 518.643 307.903 516.556 307.58C514.729 307.21 512.88 306.88 511.042 306.58C507.268 305.89 503.473 305.16 499.699 304.58C499.454 304.524 499.196 304.528 498.954 304.594C498.711 304.66 498.492 304.784 498.318 304.954C498.144 305.124 498.022 305.333 497.965 305.561C497.907 305.789 497.916 306.027 497.991 306.25C498.05 306.426 498.155 306.587 498.296 306.718C498.437 306.848 498.611 306.945 498.802 307Z" fill="#E0E0E0"/>
<path d="M498.672 301.1C502.997 300.3 507.257 299.39 511.561 298.57C513.507 298.2 515.442 297.83 517.378 297.44C518.459 297.23 519.541 297.01 520.546 296.76C521.094 296.702 521.614 296.504 522.049 296.19C522.233 296.03 522.557 295.57 522.449 295.31L522.352 295.09C522.29 294.929 522.18 294.788 522.035 294.683C521.889 294.579 521.714 294.515 521.53 294.5C519.422 294.644 517.329 294.938 515.269 295.38C513.421 295.69 511.582 296.04 509.744 296.38C505.971 297.08 502.175 297.74 498.434 298.54C498.184 298.573 497.947 298.667 497.749 298.812C497.552 298.958 497.4 299.15 497.309 299.368C497.219 299.587 497.193 299.824 497.235 300.054C497.277 300.285 497.385 300.501 497.547 300.68C497.679 300.834 497.852 300.954 498.049 301.028C498.247 301.102 498.461 301.127 498.672 301.1Z" fill="#E0E0E0"/>
<path d="M498.12 295.52C501.256 292.67 504.305 289.75 507.43 286.89C508.836 285.59 510.242 284.3 511.626 283C512.393 282.28 513.15 281.57 513.885 280.83C514.304 280.498 514.621 280.071 514.804 279.59C514.859 279.36 514.859 278.82 514.61 278.65L514.404 278.51C514.255 278.395 514.07 278.327 513.876 278.314C513.682 278.302 513.489 278.346 513.323 278.44C511.643 279.627 510.063 280.931 508.598 282.34C507.236 283.53 505.906 284.75 504.565 285.97C501.818 288.46 499.04 290.97 496.369 293.5C496.179 293.654 496.037 293.853 495.958 294.075C495.878 294.298 495.865 294.536 495.919 294.764C495.974 294.993 496.093 295.204 496.265 295.376C496.437 295.547 496.656 295.673 496.899 295.74C497.105 295.809 497.327 295.825 497.542 295.786C497.758 295.747 497.957 295.655 498.12 295.52Z" fill="#E0E0E0"/>
<path d="M302.897 292.41L386.793 337.21L446.717 305.21L362.821 260.41L302.897 292.41Z" fill="#FAFAFA"/>
<path opacity="0.3" d="M449.279 299.39L442.554 302.98L362.821 260.41L309.633 288.81L305.459 286.59L365.394 254.59L449.279 299.39Z" fill="#FF725E"/>
<path d="M442.554 302.98L389.356 331.39L309.633 288.81L362.821 260.41L442.554 302.98Z" fill="#E0E0E0"/>
<path d="M306.67 283.17L390.566 327.97L450.49 295.97L366.595 251.17L306.67 283.17Z" fill="#FAFAFA"/>
<path opacity="0.1" d="M211.064 409.85L352.04 334.57L260.403 285.63L119.426 360.92L211.064 409.85Z" fill="black"/>
<path d="M210.945 403.81L343.736 332.9L258.899 287.6L126.108 358.51L210.945 403.81Z" fill="#FF725E"/>
<path opacity="0.15" d="M210.945 403.81L343.736 332.9L258.899 287.6L126.108 358.51L210.945 403.81Z" fill="black"/>
<path d="M275.583 367.41V365.22C275.583 362.52 280.795 354.8 287.304 351.32L340.06 323.16V333L275.583 367.41Z" fill="#F5F5F5"/>
<path d="M340.038 323.16L287.283 351.32C280.795 354.79 275.53 362.52 275.562 365.22V367.41L194.413 324.08V321.88C194.413 319.18 199.614 311.46 206.134 307.98L258.856 279.83L340.038 323.16Z" fill="#FAFAFA"/>
<path d="M340.038 323.16L287.283 351.32C280.795 354.79 275.53 362.52 275.562 365.22V367.41L194.413 324.08V321.88C194.413 319.18 199.614 311.46 206.134 307.98L258.889 279.81L340.038 323.16Z" fill="#FAFAFA"/>
<path d="M275.562 365.38L270.512 362.67L263.83 359.11C267.56 358.71 270.199 359.23 272.026 360.2C273.038 360.72 273.892 361.466 274.51 362.372C275.128 363.277 275.49 364.311 275.562 365.38Z" fill="#F0F0F0"/>
<path d="M275.562 365.38L270.512 362.67L263.83 359.11C267.56 358.71 270.199 359.23 272.026 360.2C273.038 360.72 273.892 361.466 274.51 362.372C275.128 363.277 275.49 364.311 275.562 365.38Z" fill="#E0E0E0"/>
<path d="M210.967 405.85L210.945 403.81L126.108 358.51V360.54L210.967 405.85Z" fill="#FF725E"/>
<path opacity="0.3" d="M210.967 405.85L210.945 403.81L126.108 358.51V360.54L210.967 405.85Z" fill="black"/>
<path d="M210.967 405.85L343.758 334.95L343.736 332.9L210.945 403.81L210.967 405.85Z" fill="#FF725E"/>
<path d="M275.562 365.38C275.562 362.67 270.156 360.38 263.668 363.88L210.935 391.82V401.93L275.584 367.41C275.584 367.41 275.584 368.08 275.562 365.38Z" fill="#F5F5F5"/>
<path d="M210.934 401.93V391.82L129.785 348.49V358.6L210.934 401.93Z" fill="#EBEBEB"/>
<path d="M263.679 363.88L261.311 365.13L210.934 391.82L139.257 353.55L129.752 348.49L182.497 320.55C187.276 318.01 189.947 318.21 191.828 319.2L274.091 363.12C271.15 361.57 267.69 361.9 263.679 363.88Z" fill="#FAFAFA"/>
<path d="M207.247 384.2L252.152 360.24L254.52 358.99L256.25 359.91L253.882 361.16L208.977 385.13L207.247 384.2Z" fill="#E0E0E0"/>
<path d="M203.106 381.99L248.011 358.03L250.368 356.78L252.098 357.7L249.741 358.95L204.825 382.91L203.106 381.99Z" fill="#E0E0E0"/>
<path d="M198.954 379.78L243.859 355.81L246.227 354.56L247.957 355.49L245.589 356.74L200.684 380.7L198.954 379.78Z" fill="#E0E0E0"/>
<path d="M194.802 377.56L239.718 353.6L242.075 352.35L243.805 353.27L241.448 354.52L196.532 378.49L194.802 377.56Z" fill="#E0E0E0"/>
<path d="M190.661 375.35L235.566 351.38L237.934 350.13L239.664 351.06L237.296 352.31L192.391 376.27L190.661 375.35Z" fill="#E0E0E0"/>
<path d="M186.508 373.13L231.424 349.17L233.782 347.92L235.512 348.84L233.154 350.09L188.238 374.06L186.508 373.13Z" fill="#E0E0E0"/>
<path d="M182.367 370.92L227.272 346.95L229.64 345.7L231.36 346.63L229.002 347.88L184.097 371.84L182.367 370.92Z" fill="#E0E0E0"/>
<path d="M178.215 368.7L223.131 344.74L225.488 343.49L227.218 344.41L224.85 345.66L179.945 369.63L178.215 368.7Z" fill="#E0E0E0"/>
<path d="M174.074 366.49L218.979 342.53L221.347 341.28L223.077 342.2L220.709 343.45L175.804 367.41L174.074 366.49Z" fill="#E0E0E0"/>
<path d="M169.922 364.28L214.838 340.31L217.195 339.06L218.925 339.99L216.557 341.23L171.652 365.2L169.922 364.28Z" fill="#E0E0E0"/>
<path d="M165.78 362.06L210.686 338.1L213.053 336.85L214.773 337.77L212.416 339.02L167.51 362.98L165.78 362.06Z" fill="#E0E0E0"/>
<path d="M161.628 359.85L206.534 335.88L208.902 334.63L210.632 335.56L208.264 336.81L163.358 360.77L161.628 359.85Z" fill="#E0E0E0"/>
<path d="M157.487 357.63L202.392 333.67L204.76 332.42L206.479 333.34L204.122 334.59L159.206 358.56L157.487 357.63Z" fill="#E0E0E0"/>
<path d="M153.335 355.42L198.24 331.45L200.608 330.2L202.338 331.13L199.97 332.38L155.065 356.34L153.335 355.42Z" fill="#E0E0E0"/>
<path d="M149.194 353.2L194.099 329.24L196.456 327.99L198.186 328.91L195.829 330.16L150.913 354.13L149.194 353.2Z" fill="#E0E0E0"/>
<path d="M145.042 350.99L189.947 327.02L192.315 325.78L194.045 326.7L191.677 327.95L146.772 351.91L145.042 350.99Z" fill="#E0E0E0"/>
<path d="M140.9 348.77L185.806 324.81L188.163 323.56L189.893 324.49L187.536 325.73L142.62 349.7L140.9 348.77Z" fill="#E0E0E0"/>
<path opacity="0.1" d="M264.176 361.26C263.203 361.35 261.138 361.96 260.002 362.2C255.202 363.2 246.746 366.77 238.647 370.52C227.835 375.52 217.627 380.88 217.627 380.88L143.376 341.29L182.529 320.55C184.027 319.704 185.658 319.076 187.363 318.69C188.549 318.869 189.694 319.234 190.747 319.77L191.266 318.93C191.47 319.008 191.669 319.098 191.861 319.2L274.124 363.12C269.507 360.66 267.355 361 264.176 361.26Z" fill="black"/>
<path d="M210.88 394.02L218.936 390.25L210.934 394.75L202.9 390.46L210.88 394.02Z" fill="#E6E6E6"/>
<path d="M210.945 399.08L225.705 391.2L210.945 398.55L194.348 390.22L210.945 399.08Z" fill="#E6E6E6"/>
<path d="M129.785 350.72L142.198 357.64L129.785 351.78V350.72Z" fill="#E6E6E6"/>
<path d="M129.806 354.67L148.231 365.09L129.785 355.61L129.806 354.67Z" fill="#E6E6E6"/>
<path d="M263.83 359.11C262.765 359.221 261.707 359.388 260.662 359.61C255.872 360.61 247.416 364.18 239.307 367.93C228.494 372.93 218.287 378.29 218.287 378.29L137.116 335C137.116 335 168.008 318.55 180.129 316.38C185.816 315.38 189.309 316.07 191.428 317.19L272.037 360.19C270.22 359.23 267.582 358.71 263.83 359.11Z" fill="#F5F5F5"/>
<path d="M262.836 355.28C261.008 354.28 258.359 353.79 254.639 354.18C253.574 354.294 252.516 354.464 251.471 354.69C246.907 355.88 242.47 357.453 238.215 359.39C235.577 360.52 232.809 361.75 230.116 363.01C223.629 366.01 217.314 369.16 213.346 371.18L215.184 372.18C219.163 370.18 225.445 367.02 231.965 364C234.668 362.75 237.372 361.51 240.053 360.39C244.309 358.452 248.746 356.876 253.31 355.68C254.354 355.458 255.412 355.291 256.478 355.18C260.208 354.78 262.846 355.3 264.674 356.28L262.836 355.28Z" fill="#E0E0E0"/>
<path d="M258.672 353.06C256.856 352.06 254.207 351.57 250.476 351.97C249.415 352.081 248.36 352.248 247.319 352.47C242.753 353.66 238.315 355.236 234.063 357.18C231.424 358.3 228.656 359.53 225.964 360.79C219.476 363.79 213.162 366.94 209.183 368.97L211.032 369.97C215.011 367.97 221.293 364.81 227.802 361.8C230.516 360.54 233.208 359.31 235.901 358.18C240.156 356.242 244.593 354.666 249.157 353.47C250.202 353.248 251.26 353.081 252.325 352.97C256.056 352.58 258.694 353.09 260.521 354.07L258.672 353.06Z" fill="#E0E0E0"/>
<path d="M254.521 350.85C252.693 349.85 250.055 349.35 246.325 349.75C245.259 349.861 244.201 350.028 243.156 350.25C238.593 351.453 234.158 353.043 229.911 355C227.262 356.12 224.504 357.36 221.812 358.61C215.324 361.61 209.01 364.77 205.031 366.79L206.88 367.79C210.848 365.79 217.141 362.63 223.65 359.62C226.364 358.36 229.057 357.13 231.749 356C236.005 354.062 240.442 352.486 245.005 351.29C246.051 351.073 247.109 350.906 248.174 350.79C251.904 350.4 254.542 350.92 256.37 351.89L254.521 350.85Z" fill="#E0E0E0"/>
<path d="M250.368 348.63C248.541 347.63 245.903 347.13 242.172 347.53C241.107 347.641 240.049 347.808 239.004 348.03C234.44 349.226 230.003 350.802 225.748 352.74C223.109 353.87 220.341 355.1 217.649 356.35C211.161 359.35 204.857 362.51 200.878 364.53L202.727 365.53C206.696 363.53 212.978 360.38 219.498 357.36C222.212 356.1 224.958 354.87 227.597 353.74C231.851 351.803 236.289 350.23 240.853 349.04C241.897 348.812 242.955 348.645 244.021 348.54C247.741 348.14 250.39 348.66 252.217 349.63L250.368 348.63Z" fill="#E0E0E0"/>
<path d="M246.216 346.41C244.389 345.41 241.751 344.92 238.02 345.31C236.956 345.426 235.898 345.593 234.852 345.81C230.288 347.006 225.851 348.582 221.596 350.52C218.958 351.65 216.189 352.88 213.497 354.14C207.009 357.14 200.695 360.29 196.727 362.31L198.565 363.31C202.544 361.31 208.826 358.15 215.346 355.13C218.049 353.87 220.806 352.64 223.445 351.52C227.698 349.576 232.135 348 236.701 346.81C237.742 346.587 238.797 346.42 239.859 346.31C243.589 345.91 246.238 346.43 248.055 347.4L246.216 346.41Z" fill="#E0E0E0"/>
<path d="M242.064 344.19C240.237 343.19 237.588 342.7 233.868 343.09C232.802 343.204 231.744 343.374 230.7 343.6C226.136 344.79 221.698 346.363 217.443 348.3C214.805 349.43 212.037 350.66 209.345 351.92C202.857 354.92 196.542 358.07 192.574 360.09L194.412 361.09C198.391 359.09 204.674 355.93 211.194 352.91C213.897 351.66 216.6 350.42 219.292 349.3C223.542 347.357 227.976 345.78 232.538 344.59C233.583 344.368 234.641 344.201 235.706 344.09C239.437 343.69 242.075 344.21 243.902 345.19L242.064 344.19Z" fill="#E0E0E0"/>
<path d="M237.879 342C236.063 341 233.414 340.51 229.683 340.91C228.622 341.021 227.567 341.188 226.526 341.41C221.959 342.598 217.522 344.175 213.27 346.12C210.631 347.24 207.863 348.47 205.171 349.73C198.683 352.73 192.369 355.88 188.39 357.9L190.239 358.9C194.218 356.9 200.5 353.74 207.009 350.72C209.723 349.47 212.47 348.24 215.108 347.11C219.363 345.172 223.8 343.596 228.364 342.4C229.409 342.178 230.467 342.011 231.532 341.9C235.263 341.51 237.901 342.02 239.728 343L237.879 342Z" fill="#E0E0E0"/>
<path d="M233.749 339.76C231.922 338.76 229.283 338.26 225.553 338.66C224.488 338.771 223.43 338.938 222.385 339.16C217.822 340.35 213.389 341.927 209.139 343.87C206.49 344.99 203.733 346.23 201.041 347.48C194.553 350.48 188.238 353.64 184.259 355.66L186.108 356.66C190.077 354.66 196.37 351.5 202.879 348.49C205.593 347.23 208.339 346 210.978 344.87C215.233 342.932 219.67 341.356 224.234 340.16C225.28 339.943 226.337 339.776 227.402 339.66C231.132 339.27 233.771 339.79 235.598 340.76L233.749 339.76Z" fill="#E0E0E0"/>
<path d="M223.25 337.42C222.184 337.534 221.127 337.704 220.082 337.93C215.281 338.93 206.826 342.49 198.727 346.25C192.239 349.25 185.925 352.4 181.956 354.42L180.107 353.42C184.087 351.42 190.369 348.26 196.878 345.24C204.977 341.49 213.443 337.92 218.233 336.92C219.278 336.698 220.336 336.531 221.401 336.42C225.132 336.02 227.77 336.54 229.597 337.52L231.435 338.52C229.619 337.55 226.97 337 223.25 337.42Z" fill="#E0E0E0"/>
<path d="M219.087 335.21C218.025 335.321 216.971 335.488 215.93 335.71C211.129 336.71 202.673 340.28 194.575 344.03C188.087 347.03 181.772 350.18 177.793 352.2L175.955 351.2C179.923 349.2 186.216 346.04 192.726 343.02C200.824 339.27 209.291 335.7 214.081 334.7C215.126 334.478 216.183 334.311 217.249 334.2C220.979 333.81 223.618 334.33 225.445 335.3L227.283 336.3C225.467 335.33 222.817 334.81 219.087 335.21Z" fill="#E0E0E0"/>
<path d="M214.935 333C213.87 333.111 212.812 333.278 211.767 333.5C206.977 334.5 198.521 338.07 190.423 341.82C183.935 344.82 177.62 347.98 173.641 350L171.803 349C175.771 347 182.054 343.84 188.574 340.83C196.672 337.07 205.128 333.5 209.929 332.5C210.975 332.282 212.032 332.115 213.097 332C216.817 331.61 219.466 332.13 221.293 333.1L223.131 334.1C221.304 333.11 218.666 332.59 214.935 333Z" fill="#E0E0E0"/>
<path d="M210.783 330.77C209.717 330.881 208.66 331.048 207.615 331.27C202.825 332.27 194.358 335.84 186.26 339.59C179.772 342.59 173.468 345.75 169.489 347.77L167.64 346.77C171.619 344.77 177.901 341.62 184.421 338.6C192.52 334.85 200.976 331.27 205.777 330.28C206.818 330.055 207.872 329.884 208.934 329.77C212.664 329.38 215.313 329.9 217.13 330.87L218.979 331.87C217.152 330.89 214.513 330.37 210.783 330.77Z" fill="#E0E0E0"/>
<path d="M206.631 328.55C205.566 328.661 204.508 328.828 203.463 329.05C198.662 330.05 190.207 333.62 182.108 337.38C175.62 340.38 169.306 343.53 165.337 345.55L163.488 344.55C167.467 342.55 173.75 339.39 180.27 336.37C188.368 332.62 196.824 329.05 201.614 328.05C202.659 327.828 203.717 327.661 204.782 327.55C208.512 327.15 211.151 327.67 212.978 328.64L214.827 329.64C213.011 328.68 210.361 328.16 206.631 328.55Z" fill="#E0E0E0"/>
<path d="M202.479 326.33C201.414 326.445 200.356 326.612 199.311 326.83C194.51 327.83 186.054 331.4 177.955 335.16C171.468 338.16 165.153 341.31 161.185 343.33L159.336 342.33C163.315 340.33 169.597 337.17 176.106 334.15C184.205 330.4 192.672 326.83 197.462 325.83C198.506 325.608 199.564 325.441 200.63 325.33C204.36 324.93 206.998 325.45 208.826 326.43L210.664 327.43C208.847 326.46 206.198 325.94 202.479 326.33Z" fill="#E0E0E0"/>
<path d="M198.316 324.11C197.254 324.225 196.2 324.395 195.159 324.62C190.358 325.62 181.902 329.19 173.804 332.94C167.316 335.94 161.001 339.09 157.022 341.11L155.184 340.11C159.152 338.11 165.445 334.95 171.955 331.93C180.053 328.18 188.509 324.61 193.31 323.61C194.355 323.388 195.412 323.221 196.478 323.11C200.208 322.71 202.847 323.23 204.674 324.21L206.512 325.21C204.696 324.24 202.046 323.72 198.316 324.11Z" fill="#E0E0E0"/>
<path d="M194.164 321.9C193.098 322.011 192.04 322.178 190.996 322.4C186.206 323.4 177.75 326.97 169.651 330.72C163.164 333.72 156.849 336.87 152.87 338.9L151.032 337.9C155 335.9 161.282 332.74 167.802 329.73C175.901 325.97 184.357 322.4 189.157 321.4C190.202 321.177 191.26 321.01 192.326 320.9C196.045 320.51 198.694 321.03 200.522 322L202.36 323C200.532 322 197.872 321.5 194.164 321.9Z" fill="#E0E0E0"/>
<path d="M190.012 319.68C188.946 319.791 187.889 319.958 186.844 320.18C182.054 321.18 173.587 324.75 165.489 328.5C159.001 331.5 152.697 334.66 148.718 336.68L146.869 335.68C150.848 333.68 157.13 330.52 163.65 327.51C171.749 323.75 180.205 320.18 185.006 319.18C186.048 318.963 187.102 318.796 188.163 318.68C191.893 318.29 194.542 318.81 196.359 319.78L198.208 320.78C196.381 319.8 193.742 319.28 190.012 319.68Z" fill="#E0E0E0"/>
<path d="M279.693 347.27C277.211 348.659 274.994 350.415 273.129 352.47L271.432 351.56C273.303 349.511 275.524 347.758 278.006 346.37L325.29 321.18L326.977 322.08L279.693 347.27Z" fill="#E0E0E0"/>
<path d="M279.693 347.27C277.211 348.659 274.994 350.415 273.129 352.47L271.432 351.56C273.303 349.511 275.524 347.758 278.006 346.37L325.29 321.18L326.977 322.08L279.693 347.27Z" fill="#E0E0E0"/>
<path d="M275.54 345.05C273.061 346.441 270.844 348.198 268.977 350.25L267.29 349.35C269.154 347.295 271.372 345.538 273.853 344.15L321.137 319L322.824 319.9L275.54 345.05Z" fill="#E0E0E0"/>
<path d="M271.399 342.84C268.915 344.225 266.694 345.978 264.825 348.03L263.138 347.13C265.005 345.078 267.222 343.321 269.701 341.93L316.986 316.75L318.672 317.65L271.399 342.84Z" fill="#E0E0E0"/>
<path d="M267.247 340.62C264.76 342.006 262.538 343.763 260.673 345.82L258.986 344.92C260.852 342.863 263.073 341.106 265.56 339.72L312.833 314.53L314.52 315.43L267.247 340.62Z" fill="#E0E0E0"/>
<path d="M263.095 338.41C260.614 339.795 258.396 341.549 256.532 343.6L254.834 342.7C256.705 340.648 258.926 338.892 261.408 337.5L308.692 312.32L310.379 313.22L263.095 338.41Z" fill="#E0E0E0"/>
<path d="M258.943 336.19C256.461 337.578 254.244 339.335 252.38 341.39L250.693 340.49C252.557 338.435 254.775 336.678 257.256 335.29L304.54 310.1L306.227 311L258.943 336.19Z" fill="#E0E0E0"/>
<path d="M254.801 334C252.317 335.389 250.096 337.146 248.227 339.2L246.541 338.3C248.408 336.248 250.625 334.492 253.104 333.1L300.388 307.91L302.075 308.82L254.801 334Z" fill="#E0E0E0"/>
<path d="M250.65 331.76C248.163 333.145 245.941 334.903 244.075 336.96L242.389 336.06C244.254 334.003 246.476 332.245 248.963 330.86L296.268 305.67L297.955 306.57L250.65 331.76Z" fill="#E0E0E0"/>
<path d="M246.53 329.54C244.049 330.929 241.831 332.686 239.967 334.74L238.269 333.84C240.138 331.786 242.359 330.029 244.843 328.64L292.116 303.45L293.814 304.35L246.53 329.54Z" fill="#E0E0E0"/>
<path d="M242.345 327.33C239.864 328.719 237.646 330.475 235.782 332.53L234.095 331.62C235.96 329.568 238.177 327.815 240.659 326.43L287.943 301.24L289.629 302.14L242.345 327.33Z" fill="#E0E0E0"/>
<path d="M238.204 325.11C235.719 326.499 233.498 328.255 231.63 330.31L229.943 329.41C231.807 327.355 234.025 325.598 236.506 324.21L283.79 299L285.477 299.9L238.204 325.11Z" fill="#E0E0E0"/>
<path d="M234.052 322.9C231.565 324.282 229.344 326.036 227.478 328.09L225.791 327.19C227.66 325.135 229.881 323.379 232.365 321.99L279.638 296.81L281.325 297.71L234.052 322.9Z" fill="#E0E0E0"/>
<path d="M229.9 320.68C227.416 322.066 225.198 323.823 223.337 325.88L221.661 325C223.526 322.943 225.748 321.185 228.235 319.8L275.508 294.61L277.206 295.51L229.9 320.68Z" fill="#E0E0E0"/>
<path d="M225.748 318.46C223.268 319.851 221.052 321.608 219.184 323.66L217.498 322.76C219.365 320.708 221.582 318.951 224.061 317.56L271.399 292.38L273.086 293.28L225.748 318.46Z" fill="#E0E0E0"/>
<path d="M221.66 316.25C219.173 317.636 216.952 319.393 215.086 321.45L213.399 320.55C215.264 318.495 217.481 316.739 219.963 315.35L267.247 290.16L268.934 291.06L221.66 316.25Z" fill="#E0E0E0"/>
<path d="M217.454 314C214.97 315.389 212.749 317.146 210.88 319.2L209.193 318.3C211.062 316.246 213.283 314.489 215.767 313.1L263.041 287.91L264.727 288.82L217.454 314Z" fill="#E0E0E0"/>
<path d="M213.302 311.82C210.818 313.208 208.597 314.965 206.728 317.02L205.042 316.11C206.91 314.058 209.131 312.305 211.616 310.92L258.889 285.73L260.586 286.63L213.302 311.82Z" fill="#E0E0E0"/>
<path d="M328.966 331.76L340.027 326.36L340.038 325.52L328.966 331.76Z" fill="#E6E6E6"/>
<path d="M340.038 329.37L321.592 338.9L340.038 328.75V329.37Z" fill="#E6E6E6"/>
<path opacity="0.02" d="M149.777 328.56C159.736 323.69 173.09 317.63 180.129 316.37C185.816 315.37 189.309 316.06 191.428 317.18L272.037 360.18C270.209 359.18 267.571 358.69 263.841 359.09C263.841 359.09 223.942 336.58 198.175 328.89C182.435 324.34 165.588 324.225 149.777 328.56Z" fill="black"/>
<path d="M369.687 200.21C365.992 200.198 362.343 199.454 358.986 198.027C355.629 196.601 352.641 194.525 350.224 191.94C345.849 194.157 340.94 195.316 335.951 195.31C321.895 195.31 309.309 185.89 305.233 172.31C294.052 169.46 286.278 159.42 286.278 147.78C286.278 134.15 297.166 122.89 310.628 122.47C315.234 107.97 328.404 98.2704 343.542 98.2704C351.131 98.2871 358.473 100.764 364.292 105.27C366.785 102.274 370.015 99.8694 373.713 98.2566C377.412 96.6438 381.472 95.8688 385.559 95.9959C389.645 96.1229 393.64 97.1483 397.213 98.9872C400.786 100.826 403.834 103.426 406.104 106.57C409.329 105.494 412.732 104.942 416.16 104.94C429.6 104.94 441.678 113.46 446.306 126.16C457.638 128.77 465.834 139.1 465.834 150.87C465.834 163.87 455.854 174.87 443.03 176.08C437.807 188.26 425.978 196.08 412.754 196.08C405.005 196.04 397.548 193.339 391.832 188.5C389.502 192.016 386.252 194.932 382.381 196.979C378.511 199.026 374.145 200.137 369.687 200.21ZM350.386 190.65C350.475 190.651 350.562 190.669 350.642 190.704C350.723 190.738 350.794 190.788 350.851 190.85C353.154 193.407 356.032 195.468 359.286 196.887C362.54 198.307 366.09 199.052 369.687 199.07C378.337 199.07 386.425 194.7 391.248 187.37C391.296 187.3 391.361 187.239 391.438 187.195C391.515 187.15 391.601 187.121 391.691 187.11C391.783 187.097 391.876 187.104 391.964 187.13C392.053 187.156 392.133 187.2 392.199 187.26C397.756 192.181 405.137 194.95 412.83 195C425.621 195 437.094 187.29 442.024 175.36C442.068 175.261 442.141 175.175 442.234 175.111C442.328 175.047 442.438 175.009 442.554 175C454.924 174 464.623 163.45 464.623 150.89C464.623 139.53 456.665 129.57 445.701 127.21C445.597 127.192 445.501 127.148 445.423 127.083C445.344 127.018 445.287 126.934 445.257 126.84C440.878 114.43 429.19 106.1 416.171 106.1C412.731 106.098 409.319 106.678 406.104 107.81C405.975 107.853 405.835 107.856 405.704 107.818C405.573 107.78 405.459 107.704 405.38 107.6C403.227 104.492 400.288 101.916 396.816 100.095C393.344 98.2739 389.445 97.263 385.456 97.1497C381.466 97.0364 377.507 97.8242 373.921 99.4448C370.335 101.065 367.23 103.47 364.875 106.45C364.826 106.513 364.763 106.565 364.69 106.603C364.618 106.641 364.537 106.664 364.454 106.67C364.371 106.68 364.287 106.673 364.207 106.65C364.127 106.628 364.052 106.591 363.989 106.54C358.321 101.98 351.065 99.4624 343.553 99.4504C328.837 99.4504 316.034 109 311.699 123.22C311.661 123.338 311.585 123.441 311.48 123.514C311.375 123.588 311.247 123.629 311.115 123.63C298.139 123.81 287.521 134.63 287.521 147.82C287.521 159.07 295.09 168.74 305.903 171.34C306.009 171.364 306.106 171.414 306.184 171.484C306.262 171.554 306.318 171.643 306.346 171.74C310.174 184.95 322.36 194.18 335.973 194.18C340.904 194.173 345.747 192.98 350.03 190.72C350.138 190.663 350.262 190.639 350.386 190.65Z" fill="#FF725E"/>
<path d="M291.738 112.29C290.501 112.276 289.294 111.929 288.267 111.29C287.816 111.474 287.35 111.625 286.873 111.74C285.039 112.175 283.109 112.105 281.317 111.54C279.526 110.976 277.952 109.94 276.787 108.56C275.622 107.181 274.918 105.517 274.76 103.773C274.602 102.029 274.997 100.28 275.898 98.7402C274.932 97.8244 274.298 96.6531 274.085 95.3891C273.872 94.1251 274.089 92.8311 274.707 91.6866C275.326 90.5422 276.314 89.6041 277.534 89.0026C278.755 88.4012 280.148 88.1662 281.52 88.3302C282.154 86.5745 283.26 84.9964 284.734 83.7441C286.208 82.4918 288.002 81.6062 289.947 81.1705C291.893 80.7347 293.926 80.763 295.856 81.2527C297.786 81.7424 299.55 82.6775 300.983 83.9702C301.155 83.9049 301.332 83.8514 301.513 83.8102C302.284 83.6217 303.088 83.5757 303.878 83.6748C304.668 83.7739 305.43 84.0161 306.119 84.3876C306.808 84.7592 307.411 85.2527 307.893 85.84C308.376 86.4273 308.728 87.0968 308.93 87.8102C309.185 88.7152 309.185 89.6652 308.93 90.5702C310.381 90.7079 311.736 91.3031 312.767 92.2558C313.799 93.2085 314.445 94.4606 314.595 95.8017C314.746 97.1428 314.394 98.4911 313.596 99.6199C312.799 100.749 311.606 101.589 310.217 102C310.059 103.361 309.567 104.67 308.779 105.828C307.991 106.986 306.928 107.962 305.671 108.684C304.414 109.405 302.995 109.851 301.524 109.989C300.052 110.127 298.565 109.953 297.177 109.48C296.327 110.777 294.967 111.72 293.382 112.11C292.845 112.239 292.292 112.3 291.738 112.29ZM288.332 110.14C288.461 110.142 288.585 110.18 288.689 110.25C289.297 110.664 289.996 110.949 290.736 111.086C291.476 111.223 292.24 111.208 292.973 111.042C293.706 110.876 294.391 110.563 294.979 110.126C295.567 109.688 296.044 109.137 296.377 108.51C296.445 108.384 296.562 108.287 296.705 108.239C296.848 108.191 297.005 108.195 297.145 108.25C298.399 108.756 299.767 108.974 301.132 108.887C302.497 108.8 303.819 108.41 304.986 107.749C306.153 107.089 307.131 106.178 307.837 105.093C308.542 104.009 308.954 102.783 309.039 101.52C309.044 101.403 309.09 101.289 309.169 101.198C309.249 101.106 309.359 101.04 309.482 101.01L309.741 101.53L309.59 100.99C310.91 100.664 312.037 99.8675 312.724 98.775C313.411 97.6824 313.602 96.3827 313.256 95.1602C312.948 94.1332 312.282 93.2291 311.36 92.5889C310.439 91.9486 309.315 91.608 308.163 91.6202C308.063 91.6326 307.962 91.6162 307.873 91.5732C307.784 91.5302 307.711 91.4628 307.665 91.3802C307.609 91.3074 307.572 91.2228 307.559 91.1339C307.546 91.045 307.556 90.9545 307.59 90.8702C307.973 89.9826 308.038 89.0043 307.774 88.0802C307.609 87.5075 307.324 86.9705 306.935 86.4997C306.546 86.0289 306.06 85.6336 305.506 85.3364C304.952 85.0392 304.34 84.846 303.705 84.7677C303.069 84.6894 302.424 84.7277 301.805 84.8802C301.554 84.9437 301.308 85.024 301.07 85.1202C300.958 85.1678 300.834 85.1818 300.713 85.1603C300.593 85.1388 300.483 85.0828 300.399 85.0002C299.105 83.7488 297.476 82.8358 295.678 82.3536C293.879 81.8714 291.975 81.8371 290.158 82.2543C288.341 82.6714 286.675 83.5251 285.329 84.729C283.983 85.933 283.005 87.4443 282.493 89.1102C282.453 89.2462 282.357 89.3625 282.226 89.4351C282.095 89.5077 281.939 89.531 281.791 89.5002C280.607 89.2606 279.372 89.3915 278.278 89.8723C277.184 90.3531 276.294 91.1566 275.748 92.1563C275.202 93.156 275.031 94.2952 275.262 95.3948C275.492 96.4943 276.112 97.4918 277.022 98.2302C277.13 98.314 277.201 98.431 277.223 98.5597C277.245 98.6883 277.216 98.8199 277.141 98.9302C276.235 100.269 275.785 101.83 275.85 103.408C275.916 104.987 276.494 106.511 277.509 107.782C278.523 109.053 279.928 110.012 281.541 110.534C283.153 111.056 284.898 111.118 286.548 110.71C287.065 110.584 287.568 110.413 288.051 110.2C288.138 110.158 288.235 110.138 288.332 110.14Z" fill="#FF725E"/>
<path d="M259.754 89.5501C258.692 89.5512 257.648 89.3021 256.719 88.8261C255.79 88.3502 255.007 87.6633 254.445 86.8301C253.43 86.5708 252.514 86.0509 251.805 85.3305C251.095 84.61 250.621 83.7186 250.437 82.7592C250.252 81.7999 250.365 80.8118 250.763 79.9095C251.16 79.0071 251.826 78.2272 252.683 77.6601C252.625 76.7459 252.831 75.8339 253.28 75.0177C253.729 74.2016 254.405 73.5106 255.238 73.0159C256.072 72.5211 257.032 72.2404 258.022 72.2025C259.011 72.1646 259.993 72.3708 260.868 72.8001C261.226 72.4822 261.626 72.2067 262.057 71.9801C263.05 71.4781 264.184 71.2686 265.308 71.3796C266.433 71.4905 267.494 71.9168 268.349 72.6011C269.204 73.2854 269.813 74.1952 270.093 75.2084C270.374 76.2216 270.313 77.2899 269.918 78.2701C270.033 78.4174 270.138 78.571 270.232 78.7301C270.697 79.5155 270.934 80.3994 270.918 81.2949C270.902 82.1904 270.634 83.0667 270.141 83.8375C269.648 84.6083 268.946 85.2472 268.105 85.6912C267.264 86.1353 266.313 86.3693 265.344 86.3701C264.828 87.3243 264.034 88.127 263.053 88.6885C262.071 89.25 260.941 89.5483 259.787 89.5501H259.754ZM258.251 73.3001C257.631 73.3056 257.02 73.4322 256.456 73.6717C255.893 73.9111 255.391 74.2579 254.982 74.6893C254.574 75.1208 254.269 75.6272 254.087 76.1754C253.905 76.7235 253.85 77.3011 253.926 77.8701C253.944 77.9759 253.926 78.084 253.876 78.1804C253.826 78.2768 253.745 78.3569 253.645 78.4101C252.904 78.8327 252.315 79.4501 251.955 80.1835C251.595 80.9169 251.48 81.7329 251.624 82.5273C251.768 83.3216 252.164 84.0583 252.763 84.6431C253.362 85.2278 254.136 85.6341 254.986 85.8101C255.068 85.8266 255.145 85.8592 255.212 85.9058C255.28 85.9524 255.335 86.0119 255.375 86.0801C256.03 87.1452 257.111 87.9298 258.385 88.2646C259.659 88.5995 261.025 88.4578 262.187 87.8701C263.166 87.3581 263.928 86.5544 264.35 85.5901C264.401 85.4827 264.486 85.3925 264.594 85.3316C264.703 85.2708 264.829 85.2423 264.955 85.2501C265.811 85.3098 266.667 85.1396 267.421 84.7601C268.434 84.2392 269.185 83.3692 269.509 82.3392C269.833 81.3093 269.704 80.2027 269.151 79.2601C269.026 79.0626 268.889 78.8723 268.74 78.6901C268.67 78.6113 268.626 78.516 268.613 78.4152C268.6 78.3144 268.617 78.2121 268.664 78.1201C268.94 77.5528 269.069 76.9338 269.041 76.3124C269.012 75.6909 268.828 75.0841 268.502 74.5401C268.167 73.9679 267.686 73.4799 267.101 73.1185C266.515 72.7571 265.844 72.5332 265.144 72.4662C264.444 72.3992 263.737 72.4911 263.084 72.734C262.431 72.977 261.853 73.3635 261.398 73.8601C261.305 73.9634 261.173 74.0309 261.029 74.0494C260.885 74.0679 260.739 74.0361 260.619 73.9601C259.912 73.5403 259.092 73.3117 258.251 73.3001Z" fill="#FF725E"/>
<path d="M236.107 85.5101H235.836C235.003 85.447 234.228 85.0887 233.674 84.5101C233.386 84.1981 233.17 83.8348 233.04 83.4426C232.91 83.0505 232.868 82.6378 232.917 82.2301L232.787 82.1001C232.508 81.7989 232.297 81.4496 232.165 81.0723C232.032 80.6951 231.983 80.2973 232.018 79.9021C232.053 79.5069 232.173 79.122 232.37 78.7698C232.567 78.4176 232.837 78.105 233.166 77.8501C233.54 77.5528 233.984 77.3405 234.463 77.2301C234.665 76.6382 235.039 76.1089 235.544 75.7001C236.235 75.1576 237.121 74.8751 238.026 74.9084C238.931 74.9418 239.79 75.2886 240.432 75.8801C241.265 75.9432 242.04 76.3015 242.594 76.8801C243.097 77.4235 243.373 78.115 243.373 78.8301C243.373 79.5452 243.097 80.2367 242.594 80.7801C242.721 81.3147 242.688 81.8713 242.497 82.3895C242.306 82.9078 241.966 83.3679 241.513 83.7201C241.126 84.0254 240.668 84.2424 240.174 84.3536C239.68 84.4647 239.164 84.467 238.669 84.3601C238.532 84.5246 238.376 84.6754 238.204 84.8101C237.617 85.2654 236.873 85.5134 236.107 85.5101ZM237.88 76.0001C237.309 75.9982 236.756 76.1863 236.323 76.5301C235.904 76.8556 235.618 77.3037 235.512 77.8001C235.491 77.9149 235.43 78.0201 235.338 78.0996C235.247 78.1792 235.129 78.2285 235.004 78.2401C234.606 78.2911 234.232 78.4435 233.923 78.6801C233.507 79.0093 233.25 79.4774 233.208 79.9817C233.165 80.486 233.34 80.9853 233.695 81.3701C233.766 81.4538 233.846 81.5309 233.933 81.6001C234.017 81.6647 234.08 81.7489 234.116 81.844C234.152 81.939 234.16 82.0413 234.139 82.1401C234.067 82.4257 234.068 82.7229 234.144 83.0078C234.219 83.2927 234.365 83.5572 234.571 83.7801C234.924 84.162 235.425 84.3995 235.966 84.4408C236.507 84.482 237.043 84.3236 237.458 84.0001C237.645 83.8494 237.802 83.6701 237.923 83.4701C237.99 83.3517 238.104 83.2611 238.24 83.2166C238.376 83.1721 238.526 83.1769 238.659 83.2301C239.007 83.3544 239.386 83.3903 239.754 83.3341C240.123 83.2778 240.469 83.1314 240.756 82.9101C241.074 82.6612 241.302 82.3294 241.412 81.9582C241.522 81.5871 241.508 81.1939 241.373 80.8301C241.336 80.7293 241.332 80.6208 241.361 80.5179C241.39 80.4149 241.45 80.3219 241.535 80.2501C241.83 79.9895 242.034 79.6539 242.123 79.2858C242.212 78.9177 242.181 78.5335 242.034 78.1816C241.887 77.8297 241.631 77.526 241.298 77.3086C240.965 77.0912 240.569 76.9699 240.161 76.9601C239.993 76.9516 239.834 76.8836 239.718 76.7701C239.491 76.526 239.208 76.3307 238.891 76.1978C238.573 76.0648 238.228 75.9973 237.88 76.0001Z" fill="#FF725E"/>
</g>
</svg>
