<svg width="350" height="356" viewBox="0 0 350 356" fill="none" xmlns="http://www.w3.org/2000/svg">
<g opacity="0.1">
<path opacity="0.41" d="M136.205 231.344C133.358 231.332 130.508 231.216 127.655 230.979C96.3844 228.378 60.1587 213.228 44.5886 185.644C30.9764 161.53 25.6319 130.309 31.8297 103.415C37.6558 78.134 55.7186 57.6551 81.0117 49.8787C109.457 41.1336 140.895 51.7594 168.885 39.8161C209.625 22.4332 260.829 36.238 289.381 69.3114C314.695 98.6342 320.822 145.917 312.876 182.552C308.86 201.068 298.295 218.9 281.479 228.221C268.099 235.638 251.926 237.101 236.626 235.167C224.324 233.613 212.998 229.542 201.164 226.192C191.678 223.507 183.895 224.905 174.186 226.854C161.691 229.363 148.986 231.398 136.205 231.344Z" fill="#AFAFAF"/>
<path d="M143.186 213.652C140.882 213.642 138.576 213.548 136.267 213.356C110.963 211.252 81.6508 198.993 69.0522 176.673C58.0377 157.16 53.7124 131.897 58.7279 110.135C63.4424 89.6778 78.0584 73.1066 98.525 66.8146C121.542 59.7386 146.982 68.3366 169.63 58.6725C202.595 44.607 244.029 55.7776 267.133 82.5392C287.616 106.267 292.574 144.526 286.144 174.171C282.895 189.153 274.345 203.582 260.738 211.126C249.911 217.127 236.825 218.31 224.444 216.746C214.489 215.489 205.325 212.195 195.749 209.484C188.073 207.31 181.775 208.442 173.919 210.019C163.808 212.049 153.527 213.695 143.186 213.652Z" stroke="white" stroke-width="1.9456" stroke-miterlimit="10" stroke-dasharray="3.85 3.85"/>
<path opacity="0.87" d="M291.004 312.6C297.805 312.6 303.318 312.175 303.318 311.651C303.318 311.126 297.805 310.701 291.004 310.701C284.203 310.701 278.69 311.126 278.69 311.651C278.69 312.175 284.203 312.6 291.004 312.6Z" fill="#515159"/>
<path d="M292.567 275.726C292.567 275.726 282.024 268.458 288.796 257.894C295.569 247.33 293.875 243.659 291.505 240.685C297.261 247.33 296 254.902 292.567 259.705C289.134 264.508 288.59 271.044 292.567 275.726Z" fill="#AFAFAF"/>
<path d="M301.169 284.743H280.839L282.823 310.858H299.185L301.169 284.743Z" fill="#FEFEFE"/>
<path d="M303.318 283.407H278.69V286.47H303.318V283.407Z" fill="#8B8B8C"/>
<path d="M298.482 280.653H283.527C282.042 280.653 280.839 281.874 280.839 283.381V283.408H301.17V283.381C301.169 281.874 299.966 280.653 298.482 280.653Z" fill="#5A5A63"/>
<path d="M300.039 299.622L300.52 293.296H281.488L281.969 299.622H300.039Z" fill="#EDB62B"/>
<path d="M301.169 283.408V283.381C301.169 281.874 299.966 280.653 298.481 280.653H291.075C292.559 280.653 293.763 281.874 293.763 283.381V283.408H295.911V286.471H293.631L291.778 310.858H299.185L301.038 286.471H303.318V283.408H301.169Z" fill="#AFAFAF"/>
<path d="M192.019 121.016C192.019 121.016 196.28 107.458 190.055 103.521C186.098 101.458 183.935 104.028 183.935 104.028C183.935 104.028 182.075 94.4421 169.253 97.6091C160.947 99.6602 158.328 95.3164 158.328 95.3164C158.328 95.3164 158.25 107.333 163.97 110.906C168.111 114.509 166.523 124.249 166.523 124.249L192.019 121.016Z" fill="#2F2F35"/>
<path opacity="0.87" d="M229.792 298.186C229.792 298.186 252.876 298.889 259.318 304.923C266.093 311.269 273.201 321.178 244.035 320.987C214.868 320.796 189.013 312.651 164.55 315.236C140.088 317.821 120.014 322.277 114.166 321.289C108.319 320.3 150 300.041 150 300.041L227.386 302.922L229.792 298.186Z" fill="#515159"/>
<path d="M208.201 245.504L179.101 242.538L150 245.504C150 245.504 148.272 259.455 142.652 266.898C179.101 280.179 179.101 280.179 179.101 280.179C179.101 280.179 179.101 280.179 215.549 266.898C209.93 259.455 208.201 245.504 208.201 245.504Z" fill="#A87D1D"/>
<path d="M177.951 279.76C179.099 280.178 179.101 280.179 179.101 280.179C179.101 280.179 179.102 280.178 180.249 279.761C186.955 264.108 185.35 246.547 184.953 243.135L179.101 242.538L171.612 243.302C171.462 247.052 171.212 264.207 177.951 279.76Z" fill="#A87D1D"/>
<path d="M149.835 246.643C149.836 246.643 180.456 260.346 210.029 254.39C208.7 249.52 208.202 245.504 208.202 245.504L179.101 242.538L155.725 244.921L149.835 246.643Z" fill="#895436"/>
<path d="M163.969 110.905C168.111 114.508 166.522 124.248 166.522 124.248L171.94 123.561C177.503 118.537 183.784 112.177 182.871 109.781C181.273 105.583 176.658 101.391 168.146 100.912C159.635 100.433 158.327 95.3154 158.327 95.3154C158.327 95.3154 158.25 107.332 163.969 110.905Z" fill="#515159"/>
<path d="M178.044 144.927L153.987 153.825L150 245.504C150 245.504 158.504 249.549 179.101 249.549C179.101 154.26 179.101 146.351 179.101 146.351L178.044 144.927Z" fill="white"/>
<path d="M180.157 144.927L204.214 153.825L208.201 245.504C208.201 245.504 199.697 249.549 179.101 249.549C179.101 154.26 179.101 146.351 179.101 146.351L180.157 144.927Z" fill="white"/>
<path d="M153.987 153.825L153.875 153.866C146.848 156.412 141.233 161.892 138.452 168.918L112.628 232.334L134.587 234.989L153.176 188.763L153.987 153.825Z" fill="#FF7E6E"/>
<path d="M204.214 153.825L204.326 153.866C211.354 156.412 216.969 161.892 219.75 168.918L245.574 232.334L223.615 234.989L205.026 188.763L204.214 153.825Z" fill="#FF7E6E"/>
<path d="M229.778 193.541L219.75 168.917C216.969 161.891 211.354 156.412 204.326 153.865L204.214 153.824L205.026 188.761L210.292 201.857C217.322 195.883 224.375 193.943 229.778 193.541Z" fill="#E8E8E8"/>
<path d="M128.423 193.541L138.451 168.917C141.232 161.891 146.847 156.412 153.875 153.865L153.987 153.824L153.175 188.761L147.909 201.857C140.879 195.883 133.826 193.943 128.423 193.541Z" fill="#E8E8E8"/>
<path d="M205.787 189.97C205.787 189.97 205.135 189.044 204.215 187.309L205.026 188.762C205.026 188.762 195.873 240.308 171.405 249.344C173.757 249.472 176.315 249.548 179.101 249.548C199.697 249.548 208.202 245.503 208.202 245.503L205.787 189.97Z" fill="#D3D3D3"/>
<path opacity="0.52" d="M142.652 183.216C148.858 165.555 149.203 165.69 162.757 162.454C176.31 159.218 173.645 146.555 173.645 146.555L161.009 151.228L159.055 151.951L153.987 153.825L153.875 153.866C146.847 156.412 141.232 161.892 138.451 168.917L113.697 229.705C124.151 221.898 137.367 198.258 142.652 183.216Z" fill="#FFF6E7"/>
<path opacity="0.28" d="M215.549 183.216C209.343 165.555 208.998 165.69 195.444 162.454C181.891 159.218 184.556 146.555 184.556 146.555L197.192 151.228L199.146 151.951L204.214 153.825L204.326 153.866C211.353 156.412 216.968 161.892 219.75 168.917L244.503 229.705C234.05 221.898 220.835 198.258 215.549 183.216Z" fill="#4C2A29"/>
<path d="M179.166 156.237H179.035C175.479 156.237 172.596 153.312 172.596 149.703V134.104H185.604V149.703C185.605 153.312 182.722 156.237 179.166 156.237Z" fill="#FF7E6E"/>
<path d="M185.501 146.136C185.538 146.136 185.569 146.132 185.605 146.131V134.104H179.532L172.596 136.648C172.596 136.648 175.178 146.136 185.501 146.136Z" fill="#4C2A29"/>
<path d="M194.232 124.734C194.232 127.075 192.362 128.972 190.055 128.972C187.748 128.972 185.878 127.075 185.878 124.734C185.878 122.393 187.748 120.496 190.055 120.496C192.361 120.496 194.232 122.393 194.232 124.734Z" fill="#C64F4F"/>
<path d="M190.868 128.889C191.471 126.432 191.825 123.289 192.018 121.015C191.43 120.695 190.768 120.496 190.054 120.496C187.748 120.496 185.877 122.394 185.877 124.734C185.877 127.075 187.748 128.972 190.054 128.972C190.333 128.972 190.604 128.941 190.868 128.889Z" fill="#803D3D"/>
<path d="M163.969 124.734C163.969 127.075 165.84 128.972 168.146 128.972C170.453 128.972 172.323 127.075 172.323 124.734C172.323 122.393 170.453 120.496 168.146 120.496C165.84 120.496 163.969 122.393 163.969 124.734Z" fill="#C64F4F"/>
<path d="M167.334 128.889C166.729 126.432 166.376 123.289 166.183 121.015C166.771 120.695 167.433 120.496 168.147 120.496C170.454 120.496 172.324 122.394 172.324 124.734C172.324 127.075 170.454 128.972 168.147 128.972C167.868 128.972 167.597 128.941 167.334 128.889Z" fill="#803D3D"/>
<path d="M186.452 109.911H179.101H171.749L168.111 117.977L168.722 125.96C169.049 130.22 171.762 137.576 175.578 139.384C176.712 139.921 177.913 140.279 179.101 140.279C180.288 140.279 181.489 139.921 182.623 139.384C186.439 137.576 189.152 130.221 189.479 125.96L190.091 117.977L186.452 109.911Z" fill="#FF7E6E"/>
<path d="M182.871 120.037C182.871 120.037 185.338 120.739 188.129 120.037" stroke="#2F2F35" stroke-width="1.3362" stroke-miterlimit="10" stroke-linecap="round"/>
<path d="M182.075 115.45C182.075 115.45 185.678 114.842 187.844 116.108" stroke="#2F2F35" stroke-width="2.6723" stroke-miterlimit="10" stroke-linecap="round"/>
<path d="M175.33 120.037C175.33 120.037 172.863 120.739 170.071 120.037" stroke="#2F2F35" stroke-width="1.3362" stroke-miterlimit="10" stroke-linecap="round"/>
<path d="M176.126 115.45C176.126 115.45 172.523 114.842 170.358 116.108" stroke="#2F2F35" stroke-width="2.6723" stroke-miterlimit="10" stroke-linecap="round"/>
<path opacity="0.52" d="M173.242 126.993C172.762 118.927 171.749 109.911 171.749 109.911L168.111 117.977L168.305 120.511C168.251 120.509 168.201 120.495 168.147 120.495C165.84 120.495 163.97 122.393 163.97 124.733C163.97 127.074 165.84 128.971 168.147 128.971C168.512 128.971 168.861 128.908 169.198 128.819C170.182 132.942 172.525 137.938 175.579 139.384C176.713 139.921 177.914 140.279 179.101 140.279C179.101 140.279 173.722 135.06 173.242 126.993Z" fill="#FFF6E7"/>
<path d="M204.214 281.366L121.077 255.774C110.038 252.375 98.4282 258.969 95.5106 270.292L95.4007 270.72C92.3949 282.387 99.8513 294.173 111.559 296.249C142.298 301.701 198.013 310.972 227.336 312.106L239.697 320.467C241.563 321.729 244.041 321.521 245.677 319.965L245.741 319.904C247.686 318.055 247.785 314.956 245.963 312.982L244.035 310.893C244.035 310.893 242.317 302.399 233.83 298.758C225.343 295.118 224.546 286.22 222.553 281.366C220.559 276.512 207.803 274.086 204.214 281.366Z" fill="#8C4242"/>
<path d="M95.5108 270.292C98.4284 258.968 110.039 252.375 121.077 255.774L149.271 264.453C145.024 269.828 139.422 280.74 139.253 300.992C128.96 299.295 119.436 297.646 111.558 296.249C99.8508 294.173 92.3944 282.386 95.4002 270.72L95.5108 270.292Z" fill="#EDB62B"/>
<path opacity="0.67" d="M121.737 288.083C121.737 291.523 120.924 294.769 119.49 297.641C116.706 297.157 114.043 296.689 111.559 296.249C99.8515 294.173 92.3951 282.386 95.4009 270.72L95.5108 270.292C95.7726 269.275 96.1072 268.298 96.5027 267.361C97.9069 267.058 99.3622 266.896 100.855 266.896C112.388 266.897 121.737 276.382 121.737 288.083Z" fill="#A87D1D"/>
<path d="M208.201 293.096C208.201 293.096 207.005 300.165 195.445 297.641" stroke="#7B3C38" stroke-width="1.139" stroke-miterlimit="10"/>
<path opacity="0.28" d="M215.549 289.86C215.549 289.86 197.836 289.051 160.364 282.269C130.006 276.775 121.101 261.008 118.813 255.22C119.568 255.36 120.324 255.541 121.076 255.773L204.214 281.366C207.802 274.085 220.558 276.512 222.551 281.366C224.544 286.219 225.341 295.117 233.828 298.758C242.315 302.398 244.033 310.892 244.033 310.892C244.033 310.892 235.307 305.229 229.79 304.016C224.274 302.803 215.549 289.86 215.549 289.86Z" fill="#4C2A29"/>
<path d="M219.385 311.651C219.385 311.651 234.651 326.472 247.666 320.373C249.832 319.359 250.51 316.552 249.096 314.604C238.133 299.497 224.31 283.039 219.041 276.853C217.722 275.305 215.634 274.679 213.697 275.25L198.704 279.669L219.385 311.651Z" fill="#2F2F35"/>
<path d="M198.704 279.67L184.344 275.249L195.222 309.213L219.385 311.651L198.704 279.67Z" fill="#A5A5A5"/>
<path d="M153.987 281.366L237.125 255.774C248.164 252.375 259.773 258.969 262.691 270.292L262.801 270.72C265.807 282.387 258.35 294.173 246.643 296.249C215.904 301.701 160.189 310.972 130.866 312.106L118.505 320.467C116.639 321.729 114.161 321.521 112.524 319.965L112.461 319.904C110.516 318.055 110.417 314.956 112.239 312.982L114.166 310.893C114.166 310.893 115.885 302.399 124.372 298.758C132.859 295.118 133.656 286.22 135.649 281.366C137.642 276.512 150.398 274.086 153.987 281.366Z" fill="#FF7E6E"/>
<path d="M262.69 270.292C259.773 258.968 248.163 252.375 237.124 255.774L208.93 264.453C213.177 269.828 218.779 280.74 218.947 300.992C229.241 299.295 238.764 297.646 246.642 296.249C258.35 294.173 265.806 282.386 262.8 270.72L262.69 270.292Z" fill="#EDB62B"/>
<path opacity="0.67" d="M236.464 288.083C236.464 291.523 237.278 294.769 238.711 297.641C241.495 297.157 244.159 296.689 246.642 296.249C258.35 294.173 265.806 282.386 262.8 270.72L262.69 270.292C262.429 269.275 262.094 268.298 261.698 267.361C260.294 267.058 258.839 266.896 257.346 266.896C245.813 266.897 236.464 276.382 236.464 288.083Z" fill="#A87D1D"/>
<path opacity="0.28" d="M142.652 289.86C142.652 289.86 160.365 289.051 197.837 282.269C228.195 276.775 237.1 261.008 239.388 255.22C238.633 255.36 237.877 255.541 237.125 255.773L153.987 281.366C150.399 274.086 137.642 276.513 135.649 281.366C133.657 286.22 132.859 295.118 124.372 298.758C115.886 302.398 114.167 310.893 114.167 310.893C114.167 310.893 122.893 305.23 128.41 304.017C133.926 302.803 142.652 289.86 142.652 289.86Z" fill="#4C2A29"/>
<path opacity="0.57" d="M124.372 298.758L111.909 296.414C100.629 294.587 92.9901 283.768 94.9144 272.344L94.99 271.897C97.0879 259.441 109.548 251.737 121.42 255.556L144.952 263.123" stroke="white" stroke-width="1.1139" stroke-miterlimit="10"/>
<path d="M174.826 126.861C174.378 126.861 174.115 127.388 174.39 127.747C175.638 129.373 177.29 130.366 179.107 130.366C180.923 130.366 182.575 129.373 183.823 127.747C184.099 127.388 183.835 126.861 183.387 126.861H174.826Z" fill="white"/>
<path d="M180.335 119.859V124.247C180.335 124.247 179.34 123.677 177.956 124.247" stroke="#2F2F35" stroke-width="0.8212" stroke-miterlimit="10" stroke-linecap="round"/>
<path d="M183.936 104.027H182.871V110.892H183.936V104.027Z" fill="#FF7E6E"/>
<path d="M245.574 232.333L245.618 232.457C248.11 239.457 245.125 247.249 238.628 250.705L194.232 274.317L194.013 273.742C190.101 263.49 194.193 251.877 203.623 246.464L223.616 234.988L245.574 232.333Z" fill="#FF7E6E"/>
<path opacity="0.28" d="M236.2 246.796C236.2 248.458 236.609 250.022 237.324 251.397L238.628 250.704C243.752 247.978 246.678 242.554 246.469 236.951C246.289 236.941 246.112 236.923 245.93 236.923C240.556 236.923 236.2 241.343 236.2 246.796Z" fill="#4C2A29"/>
<path d="M223.615 234.988L236.2 227.747" stroke="#4C2A29" stroke-width="1.3362" stroke-miterlimit="10" stroke-linecap="round"/>
<path d="M112.757 232.333L112.713 232.457C110.221 239.457 113.206 247.249 119.703 250.705L164.1 274.317L164.319 273.742C168.231 263.49 164.139 251.877 154.709 246.464L134.716 234.988L112.757 232.333Z" fill="#FF7E6E"/>
<path opacity="0.28" d="M122.132 246.796C122.132 248.458 121.722 250.022 121.007 251.397L119.703 250.704C114.579 247.978 111.654 242.554 111.863 236.951C112.042 236.941 112.219 236.923 112.401 236.923C117.775 236.923 122.132 241.343 122.132 246.796Z" fill="#4C2A29"/>
<path d="M134.716 234.988L122.132 227.747" stroke="#4C2A29" stroke-width="1.3362" stroke-miterlimit="10" stroke-linecap="round"/>
<path d="M159.173 271.696C159.173 271.696 161.414 259.222 154.117 255.22" stroke="#4C2A29" stroke-width="1.3362" stroke-miterlimit="10" stroke-linecap="round"/>
<path d="M199.028 271.696C199.028 271.696 196.787 259.222 204.084 255.22" stroke="#4C2A29" stroke-width="1.3362" stroke-miterlimit="10" stroke-linecap="round"/>
<path d="M138.816 311.651C138.816 311.651 123.55 326.472 110.535 320.373C108.37 319.359 107.691 316.552 109.105 314.604C120.068 299.497 133.89 283.039 139.16 276.853C140.479 275.305 142.567 274.679 144.504 275.25L159.497 279.669L138.816 311.651Z" fill="#2F2F35"/>
<path d="M159.498 279.67L173.858 275.249L162.98 309.213L138.816 311.651L159.498 279.67Z" fill="#ECECEC"/>
<path opacity="0.28" d="M153.525 288.906C157.785 288.445 163.318 287.769 170.162 286.789L173.858 275.25L159.498 279.67L153.525 288.906Z" fill="#4C2A29"/>
<path d="M143.391 301.337L135.061 314.219C134.542 315.021 133.615 315.45 132.678 315.321L132.623 315.313C130.818 315.064 129.9 312.978 130.921 311.448L139.441 298.686C139.987 297.869 140.972 297.479 141.917 297.705L141.966 297.716C143.552 298.094 144.285 299.955 143.391 301.337Z" fill="#FFF6E7"/>
<path d="M177.956 226.882H126.974L139.544 272.309H177.956H216.369L228.938 226.882H177.956Z" fill="#AFAFAF"/>
<path d="M216.369 272.309H139.544V278.925H216.369V272.309Z" fill="#8B8B8C"/>
<path d="M178.044 259.653C184.928 259.653 190.509 256.753 190.509 253.176C190.509 249.598 184.928 246.698 178.044 246.698C171.159 246.698 165.578 249.598 165.578 253.176C165.578 256.753 171.159 259.653 178.044 259.653Z" fill="#5A5A63"/>
<path d="M228.938 223.868H126.974V226.882H228.938V223.868Z" fill="#5A5A63"/>
<path d="M151.493 274.209H143.799V276.869H151.493V274.209Z" fill="#5A5A63"/>
<path d="M162.597 274.209H154.903V276.869H162.597V274.209Z" fill="#5A5A63"/>
<path d="M216.369 275.617H169.613" stroke="#0F1201" stroke-miterlimit="10"/>
<path opacity="0.54" d="M126.974 226.882L139.544 272.31H166.906C183.153 253.197 193.024 226.882 193.024 226.882L192.991 223.868H126.974V226.882Z" fill="white"/>
<path opacity="0.57" d="M126.974 226.882H228.938" stroke="#0F1201" stroke-miterlimit="10"/>
<path opacity="0.87" d="M74.0054 312.6C84.2163 312.6 92.4938 312.175 92.4938 311.651C92.4938 311.126 84.2163 310.701 74.0054 310.701C63.7945 310.701 55.517 311.126 55.517 311.651C55.517 312.175 63.7945 312.6 74.0054 312.6Z" fill="#515159"/>
<path d="M76.7088 302.31L77.9205 300.971L77.315 301.64L77.9261 300.976C77.777 300.831 63.1862 285.823 80.8108 218.191L79.0776 217.726C61.0841 286.773 76.0627 301.708 76.7088 302.31Z" fill="#5A5A63"/>
<path d="M71.2733 219.355C77.9485 225.51 76.7788 232.787 76.7788 232.787C76.7788 232.787 70.0938 229.894 68.5433 220.879C68.271 219.298 70.1029 218.275 71.2733 219.355Z" fill="#5A5A63"/>
<path d="M87.9746 223.699C79.2036 225.835 76.7781 232.786 76.7781 232.786C76.7781 232.786 84.0098 233.514 89.6455 226.368C90.6339 225.115 89.5125 223.325 87.9746 223.699Z" fill="#5A5A63"/>
<path d="M66.6995 237.042C73.9508 242.485 73.5077 249.844 73.5077 249.844C73.5077 249.844 66.57 247.648 64.134 238.837C63.707 237.291 65.4276 236.087 66.6995 237.042Z" fill="#5A5A63"/>
<path d="M83.7473 239.661C75.2325 242.681 73.5077 249.844 73.5077 249.844C73.5077 249.844 80.7751 249.83 85.6737 242.146C86.5326 240.8 85.2397 239.132 83.7473 239.661Z" fill="#5A5A63"/>
<path d="M63.8008 252.553C71.4294 257.437 71.5239 264.81 71.5239 264.81C71.5239 264.81 64.4455 263.141 61.3732 254.536C60.8349 253.027 62.4638 251.697 63.8008 252.553Z" fill="#5A5A63"/>
<path d="M80.9928 253.886C72.7216 257.537 71.5239 264.809 71.5239 264.809C71.5239 264.809 78.7703 264.25 83.0956 256.219C83.8537 254.811 82.4432 253.245 80.9928 253.886Z" fill="#5A5A63"/>
<path d="M85.5729 205.803C85.7241 214.953 79.6964 219.072 79.6964 219.072C79.6964 219.072 77.196 212.148 82.6084 204.827C83.5569 203.544 85.5463 204.198 85.5729 205.803Z" fill="#5A5A63"/>
<path d="M82.9948 272.324H63.6125V311.228H82.9948V272.324Z" fill="#EDB62B"/>
<path opacity="0.67" d="M82.9948 272.324H75.2514V311.228H82.9948V272.324Z" fill="#A87D1D"/>
<path d="M91.5061 86.7736L84.532 88.5335C83.5205 88.7892 82.4957 88.1635 82.2444 87.1372L81.5731 84.3986L92.2117 81.7139L92.883 84.4525C93.1343 85.4795 92.5183 86.5186 91.5061 86.7736Z" fill="#A87D1D"/>
<path d="M117.421 78.3358L57.1739 93.5384C56.1288 93.8019 55.0704 93.1563 54.81 92.0952L44.8742 51.5593C44.6145 50.4989 45.2508 49.4251 46.2966 49.1609L106.544 33.9583C107.589 33.6948 108.648 34.3404 108.907 35.4015L118.843 75.9374C119.104 76.9985 118.467 78.0716 117.421 78.3358Z" fill="#A87D1D"/>
<path d="M115.636 71.3297L113.956 76.2275L60.5017 89.7156L55.755 86.44L45.9095 46.2762L105.791 31.166L115.636 71.3297Z" fill="#EDB62B"/>
<path d="M75.0784 38.9173L45.906 46.2773L55.7489 86.4397L84.9213 79.0797L75.0784 38.9173Z" fill="white"/>
<path d="M73.2755 42.3531L49.3064 48.4004L49.6507 49.805L73.6197 43.7577L73.2755 42.3531Z" fill="#AFAFAF"/>
<path d="M74.382 46.8398L50.4129 52.8896L50.7573 54.2943L74.7263 48.2445L74.382 46.8398Z" fill="#AFAFAF"/>
<path d="M75.478 51.3414L51.5089 57.3887L51.8532 58.7933L75.8222 52.746L75.478 51.3414Z" fill="#AFAFAF"/>
<path d="M76.5794 55.8345L52.6104 61.8818L52.9546 63.2864L76.9237 57.2392L76.5794 55.8345Z" fill="#AFAFAF"/>
<path d="M77.6865 60.3213L53.7174 66.3711L54.0618 67.7757L78.0309 61.7259L77.6865 60.3213Z" fill="#AFAFAF"/>
<path d="M78.7818 64.8228L54.8128 70.8701L55.157 72.2747L79.1261 66.2274L78.7818 64.8228Z" fill="#AFAFAF"/>
<path d="M79.8834 69.316L55.9143 75.3633L56.2585 76.7679L80.2276 70.7206L79.8834 69.316Z" fill="#AFAFAF"/>
<path d="M80.9917 73.8027L57.0226 79.8525L57.367 81.2572L81.3361 75.2074L80.9917 73.8027Z" fill="#AFAFAF"/>
<path d="M105.788 31.1593L76.6155 38.5225L86.4625 78.6849L115.635 71.3217L105.788 31.1593Z" fill="white"/>
<path d="M103.765 34.6523L79.7958 40.7021L80.1402 42.1068L104.109 36.057L103.765 34.6523Z" fill="#AFAFAF"/>
<path d="M104.863 39.1558L80.8936 45.2031L81.2379 46.6077L105.207 40.5604L104.863 39.1558Z" fill="#AFAFAF"/>
<path d="M105.964 43.6509L81.9946 49.6982L82.3388 51.1029L106.308 45.0556L105.964 43.6509Z" fill="#AFAFAF"/>
<path d="M107.07 48.1338L83.101 54.1836L83.4454 55.5882L107.414 49.5384L107.07 48.1338Z" fill="#AFAFAF"/>
<path d="M108.167 52.6373L84.1975 58.6846L84.5417 60.0892L108.511 54.0419L108.167 52.6373Z" fill="#AFAFAF"/>
<path d="M109.268 57.1314L85.2985 63.1787L85.6427 64.5833L109.612 58.536L109.268 57.1314Z" fill="#AFAFAF"/>
<path d="M110.375 61.6143L86.4062 67.6641L86.7506 69.0687L110.72 63.0189L110.375 61.6143Z" fill="#AFAFAF"/>
<path d="M111.47 66.1187L87.5007 72.166L87.845 73.5706L111.814 67.5233L111.47 66.1187Z" fill="#AFAFAF"/>
<path d="M89.6791 84.4268L85.0633 85.5916C84.0518 85.8466 83.0284 85.2215 82.7764 84.196L82.355 82.4765L90.6332 80.3877L91.0546 82.1072C91.3059 83.1328 90.6899 84.1718 89.6791 84.4268Z" fill="#EDB62B"/>
<path d="M192.126 26.6741C189.732 24.3645 186.707 22.7892 183.593 21.7366C183.572 21.7295 183.525 21.716 183.453 21.6968C180.632 20.9305 177.659 20.9305 174.838 21.6968C174.767 21.716 174.719 21.7295 174.698 21.7366C171.583 22.7892 168.559 24.3652 166.165 26.6741C159.039 33.5485 160.196 46.0259 167.136 52.6098C169.083 54.4564 169.938 56.8406 170.533 59.4692C170.713 60.2611 171.746 68.5176 171.385 68.5176C174.868 68.5176 179.145 68.5176 179.145 68.5176C179.145 68.5176 183.422 68.5176 186.904 68.5176C186.544 68.5176 187.577 60.2604 187.756 59.4692C188.352 56.8413 189.207 54.4571 191.154 52.6098C198.094 46.0266 199.251 33.5492 192.126 26.6741Z" fill="#EDB62B"/>
<path opacity="0.52" d="M176.354 59.4696C175.759 56.8417 174.903 54.4575 172.957 52.6102C166.018 46.0263 164.86 33.5489 171.986 26.6745C174.38 24.3649 177.405 22.7896 180.519 21.737C180.54 21.7299 180.587 21.7164 180.659 21.6972C181.121 21.5715 181.587 21.4742 182.056 21.3897C179.662 20.9586 177.197 21.0559 174.838 21.6972C174.767 21.7164 174.719 21.7299 174.698 21.737C171.583 22.7896 168.558 24.3656 166.165 26.6745C159.039 33.5489 160.196 46.0263 167.136 52.6102C169.083 54.4568 169.938 56.841 170.533 59.4696C170.713 60.2615 171.746 68.518 171.385 68.518C173.385 68.518 175.643 68.518 177.206 68.518C177.567 68.518 176.534 60.2608 176.354 59.4696Z" fill="#FFF6E7"/>
<path d="M179.145 68.5177V49.2619L182.486 47.308C183.59 46.6624 183.369 44.9841 182.137 44.6546L176.058 43.0267C175.022 42.749 174.904 41.3044 175.882 40.8577L179.145 39.3683V32.832" stroke="#FEFEFE" stroke-width="2.2387" stroke-miterlimit="10" stroke-linecap="round"/>
<path d="M188.449 71.1671C188.449 71.7523 187.981 72.2268 187.405 72.2268H170.341C169.765 72.2268 169.297 71.7523 169.297 71.1671C169.297 70.5819 169.765 70.1074 170.341 70.1074H187.405C187.981 70.1074 188.449 70.5819 188.449 71.1671Z" fill="#2F2F35"/>
<path d="M188.449 74.3468C188.449 74.932 187.981 75.4072 187.405 75.4072H170.341C169.765 75.4072 169.297 74.9327 169.297 74.3468C169.297 73.7615 169.765 73.2871 170.341 73.2871H187.405C187.981 73.2871 188.449 73.7615 188.449 74.3468Z" fill="#2F2F35"/>
<path d="M188.449 77.5272C188.449 78.1124 187.981 78.5868 187.405 78.5868H170.341C169.765 78.5868 169.297 78.1124 169.297 77.5272C169.297 76.9419 169.765 76.4668 170.341 76.4668H187.405C187.981 76.4675 188.449 76.9419 188.449 77.5272Z" fill="#2F2F35"/>
<path d="M178.872 86.0065C182.238 86.0065 184.967 83.238 184.967 79.8232H172.779C172.779 83.2388 175.507 86.0065 178.872 86.0065Z" fill="#2F2F35"/>
<path d="M251.065 90.0716V85.0936H248.898C248.487 82.7292 247.535 80.5602 246.174 78.7129L247.894 76.9678L244.425 73.4479L242.64 75.2583C240.814 73.9927 238.691 73.1446 236.404 72.8101V70.21H231.498V72.9074C229.305 73.3272 227.289 74.2377 225.55 75.5182L223.814 73.7562L220.345 77.2761L222.104 79.0609C220.818 80.9153 219.943 83.0758 219.589 85.4139H217.153V90.3913H219.642C220.044 92.6725 220.95 94.7706 222.241 96.5731L220.324 98.5178L223.793 102.038L225.735 100.069C227.514 101.337 229.58 102.212 231.815 102.59V105.276H236.72V102.59C238.948 102.214 241.006 101.344 242.782 100.083L244.405 101.729L247.874 98.2095L246.28 96.5916C247.638 94.7017 248.567 92.4829 248.94 90.0716H251.065ZM234.268 96.191C229.659 96.191 225.922 92.3998 225.922 87.7236C225.922 83.0467 229.659 79.2562 234.268 79.2562C238.877 79.2562 242.613 83.0474 242.613 87.7236C242.613 92.4005 238.877 96.191 234.268 96.191Z" fill="#666666"/>
<path d="M270.629 108.951V106.08H269.378C269.142 104.715 268.592 103.465 267.807 102.398L268.8 101.391L266.799 99.3608L265.77 100.405C264.716 99.6747 263.491 99.1854 262.172 98.9922V97.4922H259.342V99.0483C258.077 99.2905 256.913 99.8161 255.91 100.555L254.909 99.5384L252.907 101.569L253.922 102.599C253.181 103.668 252.676 104.915 252.471 106.264H251.066V109.135H252.503C252.734 110.451 253.257 111.661 254.001 112.701L252.895 113.823L254.897 115.854L256.016 114.718C257.043 115.45 258.234 115.955 259.523 116.172V117.722H262.353V116.172C263.638 115.955 264.826 115.454 265.85 114.726L266.786 115.676L268.787 113.645L267.868 112.712C268.651 111.622 269.188 110.342 269.402 108.95L270.629 108.951ZM260.938 112.481C258.28 112.481 256.124 110.294 256.124 107.596C256.124 104.899 258.279 102.711 260.938 102.711C263.598 102.711 265.753 104.898 265.753 107.596C265.753 110.294 263.598 112.481 260.938 112.481Z" fill="#9E9E9E"/>
<path d="M315.219 71.7609V61.5385H310.766C309.924 56.6826 307.968 52.2287 305.173 48.4339L308.706 44.8494L301.582 37.6213L297.919 41.3387C294.168 38.74 289.808 36.9985 285.111 36.3102V30.9707H275.036V36.5105C270.533 37.372 266.392 39.2428 262.821 41.8728L259.255 38.2549L252.132 45.4829L255.744 49.1484C253.105 52.9567 251.308 57.3935 250.58 62.1954H245.578V72.4178H250.69C251.516 77.1025 253.376 81.4108 256.026 85.1126L252.09 89.1069L259.214 96.335L263.199 92.2916C266.854 94.8974 271.095 96.6929 275.685 97.4678V102.986H285.76V97.4678C290.334 96.6958 294.563 94.9109 298.209 92.32L301.542 95.7014L308.666 88.4734L305.392 85.1516C308.181 81.2702 310.09 76.7147 310.855 71.7616L315.219 71.7609ZM280.722 84.3292C271.257 84.3292 263.584 76.5436 263.584 66.9405C263.584 57.3367 271.257 49.5511 280.722 49.5511C290.188 49.5511 297.861 57.3367 297.861 66.9405C297.861 76.5436 290.188 84.3292 280.722 84.3292Z" fill="#8B8B8C"/>
<path d="M280.398 77.1832C285.953 77.1832 290.455 72.6148 290.455 66.9793C290.455 61.3438 285.953 56.7754 280.398 56.7754C274.844 56.7754 270.341 61.3438 270.341 66.9793C270.341 72.6148 274.844 77.1832 280.398 77.1832Z" fill="#666666"/>
<path d="M84.5005 119.178C62.8915 120.508 46.0943 133.647 46.984 148.525C47.8737 163.403 66.1122 174.386 87.7212 173.056C87.7373 173.055 87.7534 173.054 87.7695 173.053C89.8961 172.92 91.3836 170.836 90.8579 168.741C90.6024 167.722 90.4582 166.655 90.4414 165.553C90.3315 158.461 95.7383 152.368 102.7 151.729C107.753 151.266 112.369 153.676 115.033 157.598C116.348 159.533 119.142 159.67 120.564 157.814C123.812 153.571 125.539 148.741 125.238 143.71C124.349 128.831 106.11 117.848 84.5005 119.178Z" fill="#5A5A63"/>
<path d="M84.357 116.77C62.748 118.1 45.9508 131.239 46.8405 146.117C47.7302 160.995 65.9687 171.978 87.5784 170.648C87.5945 170.647 87.6106 170.646 87.6267 170.645C89.7533 170.512 91.2408 168.428 90.7151 166.333C90.4596 165.314 90.3154 164.247 90.2986 163.144C90.1887 156.053 95.5955 149.96 102.558 149.321C107.61 148.858 112.226 151.268 114.89 155.19C116.205 157.125 118.999 157.262 120.421 155.406C123.67 151.163 125.396 146.332 125.095 141.302C124.204 126.423 105.966 115.44 84.357 116.77Z" fill="#8B8B8C"/>
<path d="M76.7249 158.946C76.8831 161.589 74.8993 163.862 72.2946 164.022C69.6899 164.183 67.4499 162.17 67.2917 159.527C67.1335 156.885 69.1173 154.612 71.722 154.451C74.3267 154.291 76.5667 156.304 76.7249 158.946Z" fill="#EDB62B"/>
<path d="M63.8519 149.873C64.0101 152.516 62.0263 154.789 59.4216 154.949C56.8169 155.11 54.5769 153.097 54.4187 150.454C54.2605 147.811 56.2443 145.539 58.849 145.378C61.4544 145.218 63.6937 147.23 63.8519 149.873Z" fill="#EDB62B"/>
<path d="M67.6368 134.002C67.795 136.645 65.8112 138.918 63.2065 139.078C60.6018 139.239 58.3618 137.226 58.2036 134.583C58.0454 131.94 60.0292 129.668 62.6339 129.507C65.2393 129.347 67.4793 131.359 67.6368 134.002Z" fill="#EDB62B"/>
<path d="M83.5905 125.425C83.7487 128.068 81.7649 130.34 79.1602 130.501C76.5555 130.661 74.3155 128.649 74.1573 126.006C73.9991 123.363 75.9829 121.09 78.5876 120.93C81.1923 120.769 83.4323 122.782 83.5905 125.425Z" fill="#EDB62B"/>
<path d="M101.56 125.659C101.718 128.302 99.7346 130.575 97.1299 130.735C94.5252 130.896 92.2852 128.883 92.127 126.24C91.9688 123.598 93.9526 121.325 96.5573 121.164C99.162 121.004 101.402 123.017 101.56 125.659Z" fill="#EDB62B"/>
<path d="M116.727 134.331C116.885 136.974 114.901 139.247 112.297 139.407C109.692 139.568 107.452 137.555 107.294 134.912C107.136 132.269 109.119 129.997 111.724 129.836C114.33 129.676 116.57 131.688 116.727 134.331Z" fill="#EDB62B"/>
<path opacity="0.68" d="M105.388 119.61L100.939 129.054C100.353 129.025 99.7857 129.363 99.5519 129.946L99.5393 129.978C99.2425 130.717 99.5925 131.56 100.321 131.861L100.738 132.034C100.656 132.006 100.232 131.956 99.3377 133.277C99.337 133.278 99.337 133.278 99.337 133.279C99.2831 133.358 99.2271 133.444 99.1697 133.534C99.1641 133.544 99.1585 133.552 99.1522 133.561C99.099 133.646 99.0437 133.735 98.987 133.829C98.9758 133.848 98.9646 133.867 98.9527 133.886C98.8995 133.975 98.8456 134.068 98.7903 134.165C98.7742 134.194 98.7574 134.223 98.7406 134.253C98.6881 134.346 98.6349 134.442 98.5803 134.543C98.5586 134.583 98.5369 134.624 98.5145 134.665C98.4627 134.762 98.4095 134.863 98.3556 134.968C98.329 135.019 98.3024 135.071 98.2751 135.125C98.2233 135.226 98.1708 135.33 98.1169 135.439C98.0854 135.503 98.0532 135.569 98.0203 135.635C97.9685 135.741 97.9167 135.848 97.8642 135.96C97.8278 136.037 97.7907 136.116 97.7529 136.196C97.7011 136.308 97.6486 136.42 97.5954 136.537C97.5548 136.625 97.5135 136.718 97.4722 136.81C97.4197 136.927 97.3672 137.044 97.3133 137.167C97.2678 137.271 97.2209 137.38 97.174 137.489C97.1222 137.609 97.0704 137.728 97.0172 137.853C96.9661 137.974 96.9136 138.101 96.8611 138.226C96.8093 138.351 96.7575 138.474 96.7043 138.604C96.6483 138.74 96.5909 138.884 96.5335 139.025C96.4817 139.154 96.4306 139.28 96.3774 139.413C96.3158 139.569 96.2514 139.733 96.1884 139.896C96.1373 140.027 96.0869 140.155 96.0344 140.292C95.9637 140.475 95.8909 140.668 95.8181 140.86C95.7712 140.984 95.725 141.103 95.6774 141.231C95.5913 141.461 95.5031 141.703 95.4142 141.944C95.3771 142.045 95.3407 142.142 95.3029 142.246C95.1755 142.596 95.0453 142.958 94.9123 143.334C94.556 144.34 94.1395 145.525 93.6803 146.839C93.6271 146.991 93.5753 147.14 93.52 147.296C93.4507 147.495 93.3779 147.703 93.3065 147.908C93.247 148.079 93.1889 148.246 93.128 148.42C93.0342 148.689 92.9376 148.968 92.841 149.246C92.7976 149.371 92.7556 149.493 92.7115 149.619C92.6156 149.895 92.5176 150.177 92.4196 150.461C92.3699 150.605 92.3202 150.746 92.2698 150.893C92.1774 151.158 92.0836 151.431 91.9891 151.703C91.931 151.871 91.8736 152.036 91.8148 152.207C91.7063 152.521 91.5957 152.841 91.4844 153.163C91.4424 153.284 91.4018 153.403 91.3598 153.525C91.2471 153.853 91.1323 154.186 91.0168 154.52C90.9678 154.663 90.9188 154.805 90.8698 154.948C90.7627 155.259 90.6542 155.575 90.5457 155.891C90.4904 156.052 90.4358 156.212 90.3798 156.374C90.2643 156.709 90.1481 157.049 90.0319 157.389C89.9815 157.535 89.9318 157.68 89.8821 157.827C89.7673 158.162 89.6518 158.5 89.5363 158.839C89.4782 159.008 89.4208 159.175 89.3634 159.345C89.2598 159.649 89.1555 159.954 89.0512 160.261C88.977 160.477 88.9035 160.694 88.8293 160.912C88.7397 161.175 88.6494 161.44 88.5598 161.704C88.4744 161.955 88.389 162.206 88.3029 162.458C88.207 162.741 88.1104 163.024 88.0145 163.307C87.9641 163.456 87.9137 163.603 87.8633 163.752C87.0786 166.065 86.2876 168.413 85.5092 170.738C86.1952 170.72 86.8854 170.691 87.5791 170.648C87.5952 170.648 87.6113 170.646 87.6274 170.646C89.754 170.513 91.2415 168.428 90.7158 166.334C90.4603 165.315 90.3161 164.247 90.2993 163.145C90.2034 156.938 94.332 151.497 100.031 149.807C100.661 148.423 101.224 147.182 101.695 146.134C106.709 134.995 105.463 133.996 105.305 133.919L105.722 134.091C106.45 134.392 107.281 134.037 107.578 133.298L107.591 133.266C107.868 132.575 107.575 131.799 106.94 131.454L110.274 121.731C108.732 120.94 107.101 120.23 105.388 119.61Z" fill="#2F2F35"/>
<path opacity="0.42" d="M66.8192 133.268C66.885 134.374 66.0555 135.325 64.9663 135.391C63.8771 135.458 62.9398 134.616 62.874 133.511C62.8082 132.406 63.6377 131.455 64.7269 131.388C65.8161 131.322 66.7527 132.163 66.8192 133.268Z" fill="white"/>
<path opacity="0.42" d="M82.7827 124.863C82.8485 125.968 82.019 126.919 80.9298 126.986C79.8406 127.053 78.9033 126.211 78.8375 125.106C78.7717 124.001 79.6012 123.05 80.6904 122.983C81.7796 122.916 82.7162 123.757 82.7827 124.863Z" fill="white"/>
<path opacity="0.42" d="M99.6856 124.434C99.7514 125.539 98.9219 126.49 97.8327 126.556C96.7435 126.623 95.8062 125.782 95.7404 124.676C95.6746 123.571 96.5041 122.62 97.5933 122.554C98.6825 122.487 99.6191 123.328 99.6856 124.434Z" fill="white"/>
<path opacity="0.42" d="M61.8597 148.458C61.9255 149.563 61.096 150.514 60.0068 150.581C58.9176 150.648 57.9803 149.806 57.9145 148.701C57.8487 147.596 58.6782 146.645 59.7674 146.578C60.8566 146.511 61.7932 147.353 61.8597 148.458Z" fill="white"/>
<path opacity="0.42" d="M75.8674 157.556C75.9332 158.661 75.1037 159.612 74.0145 159.678C72.9253 159.745 71.988 158.904 71.9222 157.798C71.8564 156.693 72.6859 155.742 73.7751 155.676C74.8643 155.609 75.8009 156.45 75.8674 157.556Z" fill="white"/>
<path d="M122.665 116.758C122.665 116.758 129.112 113.182 129.525 107.657C129.499 104.391 128.101 101.711 128.101 101.711L127.219 105.076C127.219 105.076 126.734 99.7901 123.013 97.2361C119.293 94.6821 120.208 95.3994 120.208 95.3994C120.208 95.3994 123.332 99.6062 119.864 106.582C116.397 113.558 120.773 115.976 120.773 115.976L122.665 116.758Z" fill="#EDB62B"/>
<path d="M122.267 114.493C122.267 114.493 121.101 108.426 123.766 105.166C120.301 109.622 119.586 113.202 120.456 116.095C122.267 114.493 122.267 114.493 122.267 114.493Z" fill="#A87D1D"/>
<path d="M119.153 115.691C119.72 114.525 121.079 114.002 122.267 114.492L122.288 114.501L122.309 114.509C123.496 115 124.109 116.338 123.712 117.575L119.472 130.789L116.28 129.47L113.088 128.151L119.153 115.691Z" fill="white"/>
<path d="M112.595 131.105L117.995 133.336C118.723 133.637 119.554 133.282 119.851 132.543L119.864 132.511C120.161 131.772 119.811 130.929 119.082 130.628L113.681 128.397C112.953 128.096 112.122 128.451 111.826 129.191L111.813 129.223C111.517 129.961 111.867 130.804 112.595 131.105Z" fill="#CCCCCC"/>
<path d="M113.028 131.284L115.296 132.22L117.563 133.156C117.563 133.156 119.283 133.569 113.968 145.378C110.018 154.155 99.8578 176.168 94.003 187.93C93.4556 189.03 91.8134 188.352 92.1788 187.176C96.0862 174.61 103.97 151.657 107.186 142.576C111.513 130.36 113.028 131.284 113.028 131.284Z" fill="#2F2F35"/>
<path d="M100.936 173.552C98.4053 178.906 95.9623 183.994 94.0023 187.93C93.4549 189.031 91.8127 188.352 92.1781 187.177C93.4864 182.97 95.2406 177.599 97.1152 171.974L100.936 173.552Z" fill="white"/>
<path opacity="0.75" d="M100.136 162.996C108.466 152.535 111.598 132.608 111.612 132.521C110.687 133.888 109.261 136.72 107.186 142.578C105.615 147.015 102.929 154.765 100.136 162.996Z" fill="white"/>
<path d="M261.411 138.463L262.886 141.497L266.186 141.984L263.799 144.345L264.362 147.68L261.411 146.106L258.459 147.68L259.023 144.345L256.635 141.984L259.935 141.497L261.411 138.463Z" fill="#9E9E9E"/>
<path d="M303.899 134.225L305.959 138.461L310.568 139.141L307.233 142.438L308.02 147.095L303.899 144.897L299.778 147.095L300.565 142.438L297.23 139.141L301.839 138.461L303.899 134.225Z" fill="#666666"/>
<path d="M291.004 197.715L292.154 200.079L294.727 200.458L292.865 202.299L293.305 204.898L291.004 203.671L288.704 204.898L289.143 202.299L287.281 200.458L289.854 200.079L291.004 197.715Z" fill="#9E9E9E"/>
<path d="M249.966 181.695L252.027 185.932L256.635 186.611L253.301 189.908L254.088 194.565L249.966 192.367L245.845 194.565L246.632 189.908L243.298 186.611L247.906 185.932L249.966 181.695Z" fill="#666666"/>
<path d="M289.481 191.707C301.261 186.914 306.981 173.339 302.258 161.386C297.534 149.433 284.154 143.629 272.374 148.422C260.594 153.215 254.873 166.79 259.597 178.743C264.321 190.695 277.7 196.499 289.481 191.707Z" fill="#EDB62B"/>
<g opacity="0.67">
<path d="M274.737 192.519C282.855 194.817 291.167 192.389 296.838 186.869C292.998 187.913 288.841 187.964 284.734 186.801C272.509 183.34 265.364 170.48 268.775 158.076C269.921 153.91 272.117 150.328 274.985 147.535C267.395 149.599 261.043 155.558 258.778 163.795C255.368 176.197 262.513 189.058 274.737 192.519Z" fill="#A87D1D"/>
</g>
<path opacity="0.52" d="M287.09 147.603C285.945 147.279 284.796 147.049 283.651 146.907C283.052 149.088 282.725 151.382 282.725 153.757C282.725 165.894 291.1 176.04 302.304 178.588C302.587 177.855 302.836 177.101 303.049 176.327C306.459 163.924 299.314 151.063 287.09 147.603Z" fill="#FFF6E7"/>
<path d="M258.012 168.142C249.097 164.617 243.552 161.429 244.018 159.735C244.793 156.917 261.906 159.3 282.242 165.057C302.578 170.814 318.434 177.766 317.659 180.584C317.195 182.273 310.864 182.094 301.489 180.441" stroke="#666666" stroke-width="2" stroke-miterlimit="10"/>
</g>
</svg>
