<svg width="330" height="200" viewBox="0 0 330 200" fill="none" xmlns="http://www.w3.org/2000/svg">
<g opacity="0.1">
<path d="M96.7483 48.9057L47.3784 78.9277L96.0052 145.014L145.375 114.992L96.7483 48.9057Z" fill="#F5F5F5"/>
<path d="M119.865 111.863L119.304 115.016L94.7619 111.802L95.322 108.649L119.865 111.863Z" fill="#E0E0E0"/>
<path d="M107.505 100.618L111.026 101.08L107.122 123.047L103.6 122.586L107.505 100.618Z" fill="#E0E0E0"/>
<path d="M84.8989 72.6978C84.9341 72.7458 79.9863 75.8102 73.8496 79.5418C67.7107 83.2746 62.707 86.261 62.6718 86.213C62.6366 86.1654 67.5831 83.1014 73.7224 79.3686C79.8591 75.637 84.8637 72.6502 84.8989 72.6978Z" fill="#E0E0E0"/>
<path d="M103.055 68.555C103.09 68.603 94.8627 73.6618 84.6811 79.8526C74.4955 86.0458 66.213 91.0262 66.1778 90.9782C66.1426 90.9306 74.3684 85.8726 84.5535 79.6794C94.7351 73.4886 103.02 68.5074 103.055 68.555Z" fill="#E0E0E0"/>
<path d="M106.694 73.5013C106.729 73.5493 98.5019 78.6081 88.3203 84.7989C78.1348 90.9921 69.8522 95.9725 69.817 95.9245C69.7818 95.8765 78.0076 90.8189 88.1927 84.6257C98.3748 78.4349 106.659 73.4537 106.694 73.5013Z" fill="#E0E0E0"/>
<path d="M110.334 78.4476C110.369 78.4956 102.141 83.5544 91.9595 89.7452C81.774 95.9384 73.4914 100.919 73.4562 100.871C73.421 100.823 81.6468 95.7652 91.8319 89.572C102.014 83.3808 110.298 78.3996 110.334 78.4476Z" fill="#E0E0E0"/>
<path d="M113.973 83.3949C114.008 83.4429 105.781 88.5013 95.5992 94.6925C85.4137 100.886 77.1311 105.866 77.0959 105.818C77.0607 105.77 85.2865 100.712 95.4716 94.5193C105.653 88.3285 113.938 83.3473 113.973 83.3949Z" fill="#E0E0E0"/>
<path d="M261.835 93.1901L220.372 118.403L261.211 173.905L302.673 148.692L261.835 93.1901Z" fill="#F5F5F5"/>
<path d="M281.248 146.073L280.777 148.72L260.165 146.02L260.636 143.373L281.248 146.073Z" fill="#E0E0E0"/>
<path d="M270.867 136.628L273.825 137.016L270.546 155.464L267.588 155.077L270.867 136.628Z" fill="#E0E0E0"/>
<path d="M251.882 113.179C251.918 113.227 247.767 115.807 242.613 118.941C237.457 122.076 233.251 124.578 233.215 124.53C233.18 124.482 237.33 121.903 242.486 118.768C247.639 115.634 251.847 113.132 251.882 113.179Z" fill="#E0E0E0"/>
<path d="M267.13 109.7C267.165 109.748 260.26 114.002 251.709 119.202C243.155 124.403 236.195 128.579 236.16 128.531C236.125 128.483 243.028 124.23 251.582 119.028C260.133 113.829 267.095 109.652 267.13 109.7Z" fill="#E0E0E0"/>
<path d="M270.187 113.854C270.222 113.902 263.317 118.157 254.766 123.356C246.212 128.557 239.252 132.734 239.217 132.686C239.181 132.638 246.085 128.384 254.639 123.183C263.19 117.983 270.152 113.806 270.187 113.854Z" fill="#E0E0E0"/>
<path d="M273.243 118.008C273.278 118.056 266.373 122.311 257.822 127.51C249.268 132.711 242.308 136.888 242.273 136.84C242.238 136.792 249.141 132.538 257.695 127.337C266.246 122.138 273.208 117.961 273.243 118.008Z" fill="#E0E0E0"/>
<path d="M276.3 122.163C276.335 122.211 269.43 126.465 260.879 131.665C252.325 136.866 245.365 141.042 245.329 140.994C245.294 140.947 252.198 136.693 260.752 131.491C269.302 126.292 276.265 122.115 276.3 122.163Z" fill="#E0E0E0"/>
<path d="M196.235 51.3314L150.996 29.3359L115.369 89.8941L160.609 111.889L196.235 51.3314Z" fill="#F5F5F5"/>
<path d="M152.866 92.9473L149.996 93.8409L142.71 75.5313L145.581 74.6377L152.866 92.9473Z" fill="#E0E0E0"/>
<path d="M157.266 79.8115L158.312 82.4391L138.31 88.6667L137.264 86.0391L157.266 79.8115Z" fill="#E0E0E0"/>
<path d="M171.479 52.7976C171.443 52.858 166.855 50.6896 161.231 47.9556C155.606 45.2204 151.075 42.9552 151.111 42.8948C151.147 42.8348 155.734 45.0024 161.359 47.7372C166.983 50.4716 171.514 52.7376 171.479 52.7976Z" fill="#E0E0E0"/>
<path d="M182.335 63.6911C182.299 63.7515 174.705 60.1219 165.375 55.5859C156.042 51.0479 148.507 47.3219 148.543 47.2615C148.578 47.2015 156.171 50.8299 165.504 55.3679C174.834 59.9039 182.37 63.6307 182.335 63.6911Z" fill="#E0E0E0"/>
<path d="M179.668 68.2237C179.633 68.2841 172.039 64.6545 162.709 60.1181C153.376 55.5801 145.841 51.8541 145.876 51.7937C145.912 51.7337 153.504 55.3621 162.837 59.9001C172.167 64.4361 179.703 68.1633 179.668 68.2237Z" fill="#E0E0E0"/>
<path d="M177.001 72.7559C176.966 72.8163 169.372 69.1867 160.042 64.6503C150.709 60.1127 143.174 56.3863 143.209 56.3259C143.245 56.2655 150.837 59.8943 160.171 64.4323C169.5 68.9687 177.037 72.6959 177.001 72.7559Z" fill="#E0E0E0"/>
<path d="M174.335 77.2891C174.299 77.3495 166.706 73.7199 157.376 69.1835C148.042 64.6459 140.507 60.9195 140.543 60.8591C140.579 60.7991 148.171 64.4275 157.504 68.9655C166.834 73.5019 174.37 77.2291 174.335 77.2891Z" fill="#E0E0E0"/>
<path opacity="0.2" d="M174.572 0H173.436V17.5932H174.572V0Z" fill="black"/>
<path d="M147.503 38.8752H200.505C200.505 38.8752 195.612 17.582 173.602 17.582C154.025 17.5816 147.503 38.8752 147.503 38.8752Z" fill="#E8505B"/>
<path d="M174.572 0H173.436V17.5932H174.572V0Z" fill="#E8505B"/>
<path d="M292.013 175.931C292.013 175.989 235.143 176.035 165.006 176.035C94.8451 176.035 37.987 175.988 37.987 175.931C37.987 175.874 94.8451 175.827 165.006 175.827C235.143 175.827 292.013 175.874 292.013 175.931Z" fill="#263238"/>
<path d="M52.0458 150.881C53.5335 150.928 54.93 151.662 55.9112 152.68C56.8924 153.698 57.4939 154.978 57.8789 156.285C58.6234 158.814 58.1658 161.8 57.3725 164.316C54.3602 163.338 52.503 160.418 51.663 158.882C50.3351 156.456 49.5568 151.337 52.0458 150.881Z" fill="#E8505B"/>
<path d="M61.7065 167.382C60.7561 166.141 60.7336 164.416 61.4852 163.067C62.2362 161.719 63.6799 160.746 65.2696 160.302C66.0048 160.097 66.8576 160.011 67.4969 160.399C68.0948 160.762 68.3531 161.474 68.2757 162.124C68.1987 162.773 67.8366 163.368 67.4093 163.894C65.9446 165.697 64.163 167.197 61.7065 167.382Z" fill="#E8505B"/>
<path d="M62.0378 175.834C62.0233 175.836 61.9775 175.648 61.9032 175.308C61.8226 174.933 61.7184 174.448 61.5934 173.866C61.3558 172.654 60.9787 170.931 61.2638 169.025C61.538 167.128 62.3687 165.506 63.2394 164.538C63.668 164.048 64.0785 163.701 64.3821 163.488C64.5291 163.376 64.6584 163.307 64.7407 163.254C64.8248 163.204 64.871 163.18 64.8754 163.185C64.9084 163.219 64.1714 163.632 63.3569 164.62C62.5319 165.591 61.7412 167.185 61.4711 169.05C61.1904 170.917 61.538 172.625 61.739 173.844C61.8468 174.456 61.9335 174.952 61.9837 175.296C62.0334 175.64 62.0519 175.832 62.0378 175.834Z" fill="#263238"/>
<path d="M53.0174 154.731C53.024 154.728 53.0658 154.799 53.1388 154.938C53.2189 155.095 53.3218 155.297 53.449 155.547C53.7152 156.078 54.0892 156.851 54.5428 157.809C55.4506 159.724 56.6632 162.387 57.9295 165.354C59.1954 168.323 60.2743 171.033 61.0245 173.004C61.4002 173.989 61.6964 174.789 61.8935 175.344C61.985 175.607 62.0589 175.819 62.1161 175.985C62.165 176.132 62.187 176.21 62.1804 176.212C62.1733 176.214 62.1381 176.14 62.0765 175.997C62.0096 175.835 61.9234 175.626 61.8169 175.368C61.5881 174.798 61.2722 174.011 60.8854 173.049C60.0996 171.09 58.9996 168.389 57.7346 165.423C56.4692 162.457 55.2785 159.789 54.4064 157.861C53.9779 156.913 53.6276 156.138 53.3738 155.577C53.2611 155.321 53.17 155.114 53.0992 154.953C53.0394 154.81 53.0108 154.733 53.0174 154.731Z" fill="#263238"/>
<path d="M58.4624 170.242C56.6861 167.494 53.3694 165.621 49.8727 165.39C48.9821 165.331 47.9112 165.468 47.5143 166.194C47.1165 166.922 47.6485 167.785 48.2552 168.382C50.7791 170.867 55.0488 171.733 58.4958 170.46" fill="#E8505B"/>
<path d="M51.2288 167.557C51.2296 167.544 51.4276 167.552 51.7862 167.576C51.9658 167.587 52.1853 167.602 52.4366 167.644C52.6874 167.687 52.9791 167.712 53.2897 167.79C53.6026 167.86 53.9475 167.93 54.3048 168.047C54.6691 168.145 55.0431 168.286 55.436 168.438C56.2122 168.758 57.0354 169.177 57.8195 169.722C58.5979 170.274 59.2552 170.89 59.7898 171.495C60.0468 171.805 60.2923 172.098 60.4837 172.397C60.6953 172.684 60.8524 172.972 60.9998 173.232C61.1578 173.488 61.2511 173.74 61.3545 173.953C61.4588 174.165 61.5239 174.356 61.5758 174.513C61.6827 174.826 61.7346 174.999 61.721 175.003C61.6765 175.017 61.4623 174.318 60.8692 173.294C60.7152 173.04 60.5528 172.76 60.3381 172.482C60.1436 172.191 59.8963 171.906 59.6398 171.604C59.1056 171.016 58.4566 170.414 57.6924 169.873C56.9224 169.338 56.1167 168.921 55.3568 168.597C54.9723 168.444 54.6062 168.299 54.2494 168.196C53.9 168.074 53.5612 167.998 53.2545 167.921C52.0203 167.637 51.2239 167.598 51.2288 167.557Z" fill="#263238"/>
<path d="M250.959 42.1908C249.665 42.4616 249.035 43.8148 248.912 45.0168C248.79 46.2184 248.958 47.4876 248.403 48.584C247.778 49.818 246.286 50.7276 246.236 52.0856C246.206 52.9132 246.747 53.6915 246.721 54.5195C246.678 55.8791 245.153 56.9067 245.073 58.2652C245.015 59.2431 245.732 60.1819 245.56 61.1487C245.425 61.9011 244.781 62.494 244.509 63.2148C243.966 64.652 245.052 66.2339 246.466 67.0427C248.043 67.9443 250.062 68.1767 251.835 67.6615C253.609 67.1463 255.106 65.8923 255.815 64.3271C256.598 62.5995 256.427 60.6543 256.257 58.7927C255.727 52.9903 255.332 47.178 255.075 41.3604" fill="#263238"/>
<path d="M247.203 62.6662C247.175 62.6434 247.556 62.5402 247.794 62.027C247.909 61.7762 247.968 61.4386 247.944 61.0506C247.929 60.6602 247.783 60.235 247.624 59.7554C247.476 59.2802 247.284 58.7286 247.394 58.1154C247.505 57.4926 247.995 56.981 248.443 56.4786C248.668 56.2238 248.894 55.959 249.037 55.6578C249.187 55.3598 249.219 55.0186 249.105 54.6986C248.878 54.045 248.174 53.5642 247.85 52.8098C247.69 52.4318 247.688 52.0166 247.779 51.6426C247.867 51.265 248.035 50.9222 248.204 50.5958C248.549 49.9446 248.928 49.3474 249.078 48.7134C249.387 47.4446 249.243 46.2334 249.453 45.2386C249.644 44.2418 250.107 43.4926 250.566 43.1074C250.789 42.9082 251.006 42.8022 251.147 42.7306C251.298 42.6718 251.377 42.6446 251.38 42.6514C251.395 42.6738 251.054 42.769 250.629 43.1646C250.205 43.5546 249.779 44.2874 249.613 45.263C249.525 45.7482 249.513 46.2938 249.491 46.8794C249.468 47.4646 249.447 48.1002 249.284 48.757C249.131 49.4226 248.741 50.0434 248.407 50.683C248.076 51.3114 247.772 52.0482 248.065 52.737C248.344 53.4178 249.053 53.9014 249.319 54.637C249.449 55.003 249.407 55.4086 249.237 55.7366C249.075 56.0702 248.835 56.343 248.606 56.599C248.146 57.1046 247.686 57.5854 247.581 58.1454C247.471 58.7022 247.64 59.2394 247.779 59.715C247.926 60.1906 248.068 60.6386 248.072 61.0454C248.084 61.4486 248.009 61.7998 247.875 62.0594C247.742 62.3206 247.561 62.4822 247.424 62.5642C247.289 62.6486 247.203 62.6662 247.203 62.6662Z" fill="#455A64"/>
<path d="M243.738 72.1465L239.767 82.5553L223.204 83.3625L220.442 88.9497L237.734 90.5401C241.182 91.8361 245.122 90.2477 246.38 87.0545L250.995 75.3445L243.738 72.1465Z" fill="#B78876"/>
<path d="M277.998 170.279C277.998 170.279 265.86 135.232 265.603 134.094C265.37 133.066 270.008 107.845 270.592 101.317L254.192 101.873C254.192 101.873 254.191 101.913 254.19 101.982L247.219 102.334L253.463 174.011H261.01L260.262 150.231C264.916 161.589 271.585 173.165 271.585 173.165L277.998 170.279Z" fill="#B78876"/>
<path d="M260.569 158.754C260.576 158.536 260.478 150.786 260.478 150.786C260.384 151.25 257.584 144.057 257.652 143.62C257.687 143.393 260.569 158.754 260.569 158.754Z" fill="#A36957"/>
<path d="M257.333 140.214C257.315 140.213 257.299 140.368 257.284 140.648C257.268 140.928 257.264 141.335 257.294 141.837C257.305 142.088 257.334 142.362 257.37 142.656C257.411 142.949 257.455 143.264 257.53 143.59C257.667 144.244 257.878 144.952 258.147 145.678C258.695 147.127 259.299 148.396 259.729 149.316C259.933 149.736 260.107 150.097 260.254 150.4C260.383 150.654 260.462 150.792 260.478 150.786C260.494 150.78 260.446 150.631 260.345 150.367C260.244 150.102 260.09 149.723 259.893 149.256C259.506 148.32 258.928 147.042 258.385 145.605C258.118 144.886 257.904 144.191 257.757 143.549C257.677 143.229 257.626 142.92 257.576 142.632C257.532 142.343 257.494 142.073 257.472 141.825C257.42 141.33 257.396 140.927 257.383 140.648C257.367 140.369 257.35 140.214 257.333 140.214Z" fill="#A36957"/>
<path d="M253.321 174.365L253.318 173.72L261.048 173.414L261.069 176.072L260.592 176.101C258.47 176.214 249.794 176.54 248.374 176.152C246.79 175.721 253.321 174.365 253.321 174.365Z" fill="#455A64"/>
<path d="M261.177 175.911C261.177 175.914 261.132 175.919 261.045 175.925C260.931 175.932 260.806 175.939 260.665 175.947C260.286 175.963 259.819 175.983 259.267 176.006C258.087 176.048 256.455 176.088 254.652 176.095C252.849 176.102 251.216 176.076 250.036 176.043C249.484 176.024 249.018 176.008 248.637 175.994C248.497 175.987 248.372 175.981 248.258 175.975C248.171 175.97 248.125 175.966 248.126 175.963C248.126 175.96 248.171 175.958 248.259 175.958C248.373 175.959 248.498 175.96 248.639 175.961C249.019 175.967 249.486 175.974 250.037 175.982C251.218 176 252.85 176.017 254.652 176.01C256.454 176.002 258.085 175.973 259.266 175.946C259.817 175.933 260.284 175.922 260.664 175.913C260.805 175.911 260.93 175.909 261.045 175.907C261.131 175.907 261.177 175.908 261.177 175.911Z" fill="#263238"/>
<path d="M250.816 176.138C250.787 176.141 250.764 175.838 250.552 175.532C250.346 175.223 250.058 175.069 250.074 175.047C250.079 175.026 250.41 175.157 250.632 175.488C250.858 175.816 250.839 176.143 250.816 176.138Z" fill="#263238"/>
<path d="M253.081 175.084C253.06 175.096 252.951 174.976 252.838 174.816C252.725 174.656 252.652 174.516 252.673 174.503C252.695 174.49 252.804 174.61 252.917 174.77C253.029 174.931 253.103 175.071 253.081 175.084Z" fill="#263238"/>
<path d="M253.703 174.782C253.685 174.799 253.564 174.726 253.431 174.618C253.298 174.51 253.204 174.409 253.221 174.391C253.238 174.374 253.359 174.447 253.493 174.555C253.626 174.663 253.72 174.764 253.703 174.782Z" fill="#263238"/>
<path d="M254.094 174.121C254.094 174.145 253.915 174.166 253.693 174.169C253.471 174.172 253.29 174.155 253.29 174.132C253.29 174.109 253.469 174.087 253.691 174.084C253.913 174.081 254.093 174.098 254.094 174.121Z" fill="#263238"/>
<path d="M254.227 173.655C254.236 173.676 254.041 173.757 253.78 173.775C253.519 173.795 253.312 173.743 253.317 173.721C253.322 173.697 253.525 173.71 253.773 173.691C254.02 173.674 254.219 173.632 254.227 173.655Z" fill="#263238"/>
<path d="M252.818 174.474C252.819 174.484 252.629 174.505 252.324 174.473C252.171 174.457 251.991 174.425 251.797 174.369C251.701 174.339 251.6 174.315 251.496 174.257C251.447 174.228 251.392 174.186 251.373 174.118C251.352 174.051 251.391 173.975 251.447 173.938C251.919 173.714 252.393 173.954 252.569 174.175C252.666 174.288 252.711 174.399 252.732 174.475C252.752 174.551 252.75 174.595 252.745 174.596C252.727 174.602 252.71 174.419 252.518 174.213C252.423 174.113 252.28 174.015 252.095 173.965C251.92 173.919 251.672 173.907 251.506 174.004C251.427 174.057 251.458 174.141 251.546 174.188C251.627 174.235 251.733 174.264 251.824 174.295C252.011 174.353 252.186 174.39 252.333 174.413C252.629 174.461 252.818 174.461 252.818 174.474Z" fill="#263238"/>
<path d="M252.69 174.497C252.683 174.502 252.609 174.387 252.632 174.185C252.643 174.086 252.683 173.968 252.765 173.857C252.852 173.757 252.964 173.619 253.176 173.626C253.291 173.639 253.347 173.757 253.329 173.833C253.32 173.912 253.282 173.979 253.246 174.034C253.173 174.147 253.09 174.238 253.014 174.307C252.859 174.445 252.737 174.498 252.732 174.49C252.723 174.479 252.83 174.409 252.965 174.266C253.033 174.195 253.106 174.105 253.171 173.996C253.238 173.901 253.284 173.73 253.16 173.71C253.037 173.699 252.911 173.812 252.835 173.902C252.758 173.999 252.715 174.104 252.697 174.195C252.66 174.377 252.707 174.494 252.69 174.497Z" fill="#263238"/>
<path d="M261.012 173.999C261.011 174.015 260.792 173.981 260.445 174.019C260.101 174.055 259.622 174.185 259.207 174.488C258.792 174.792 258.549 175.188 258.436 175.486C258.32 175.786 258.309 175.988 258.291 175.986C258.286 175.985 258.283 175.935 258.291 175.845C258.298 175.754 258.321 175.623 258.373 175.467C258.472 175.157 258.715 174.739 259.148 174.422C259.581 174.107 260.083 173.981 260.438 173.96C260.617 173.948 260.762 173.956 260.861 173.969C260.96 173.981 261.013 173.994 261.012 173.999Z" fill="#263238"/>
<path d="M257.31 175.354C257.313 175.376 256.812 175.449 256.187 175.452C255.562 175.456 255.06 175.388 255.062 175.366C255.065 175.341 255.567 175.371 256.186 175.367C256.806 175.364 257.307 175.33 257.31 175.354Z" fill="#263238"/>
<path d="M258.817 175.34C258.836 175.357 258.776 175.436 258.726 175.542C258.673 175.646 258.647 175.74 258.621 175.738C258.595 175.738 258.58 175.628 258.64 175.507C258.7 175.386 258.801 175.323 258.817 175.34Z" fill="#263238"/>
<path d="M259.383 174.695C259.401 174.711 259.352 174.784 259.273 174.858C259.193 174.931 259.114 174.978 259.096 174.961C259.077 174.945 259.127 174.872 259.206 174.798C259.285 174.725 259.364 174.678 259.383 174.695Z" fill="#263238"/>
<path d="M260.194 174.399C260.189 174.422 260.087 174.422 259.974 174.459C259.86 174.493 259.78 174.55 259.76 174.534C259.739 174.522 259.803 174.422 259.944 174.379C260.084 174.334 260.202 174.377 260.194 174.399Z" fill="#263238"/>
<path d="M260.773 174.258C260.782 174.28 260.738 174.316 260.674 174.338C260.61 174.361 260.551 174.362 260.542 174.34C260.532 174.318 260.576 174.282 260.64 174.259C260.704 174.237 260.763 174.236 260.773 174.258Z" fill="#263238"/>
<path d="M271.433 173.745L271.139 173.158L278.054 170L279.271 172.417L278.849 172.621C276.964 173.514 269.196 177.042 267.726 177.218C266.086 177.414 271.433 173.745 271.433 173.745Z" fill="#455A64"/>
<path d="M279.297 172.23C279.298 172.233 279.259 172.253 279.183 172.291C279.082 172.34 278.971 172.393 278.846 172.453C278.507 172.609 278.09 172.801 277.598 173.028C276.54 173.506 275.069 174.149 273.427 174.827C271.785 175.505 270.285 176.089 269.192 176.499C268.681 176.687 268.248 176.846 267.895 176.976C267.764 177.022 267.647 177.063 267.54 177.1C267.459 177.127 267.415 177.141 267.414 177.138C267.413 177.135 267.454 177.117 267.533 177.084C267.638 177.043 267.752 176.997 267.882 176.945C268.231 176.809 268.66 176.642 269.167 176.444C270.252 176.021 271.748 175.428 273.389 174.751C275.029 174.073 276.504 173.439 277.569 172.974C278.066 172.757 278.487 172.573 278.83 172.424C278.958 172.369 279.071 172.321 279.174 172.277C279.253 172.243 279.295 172.227 279.297 172.23Z" fill="#263238"/>
<path d="M269.947 176.295C269.923 176.308 269.765 176.04 269.434 175.84C269.106 175.635 268.774 175.602 268.778 175.576C268.774 175.555 269.134 175.551 269.486 175.77C269.84 175.985 269.97 176.291 269.947 176.295Z" fill="#263238"/>
<path d="M271.539 174.49C271.524 174.51 271.371 174.441 271.196 174.337C271.021 174.232 270.89 174.132 270.904 174.113C270.918 174.093 271.072 174.162 271.247 174.266C271.422 174.37 271.553 174.47 271.539 174.49Z" fill="#263238"/>
<path d="M271.97 173.983C271.962 174.006 271.818 173.984 271.648 173.936C271.478 173.887 271.347 173.829 271.355 173.807C271.363 173.784 271.506 173.806 271.676 173.855C271.846 173.904 271.977 173.961 271.97 173.983Z" fill="#263238"/>
<path d="M272.029 173.234C272.04 173.255 271.885 173.342 271.685 173.427C271.484 173.513 271.311 173.565 271.301 173.543C271.29 173.522 271.444 173.436 271.645 173.351C271.846 173.265 272.018 173.213 272.029 173.234Z" fill="#263238"/>
<path d="M271.94 172.76C271.957 172.775 271.816 172.922 271.586 173.036C271.357 173.151 271.145 173.18 271.139 173.158C271.132 173.135 271.324 173.071 271.541 172.961C271.76 172.854 271.922 172.742 271.94 172.76Z" fill="#263238"/>
<path d="M271.024 174.032C271.029 174.04 270.865 174.131 270.572 174.215C270.426 174.257 270.247 174.294 270.045 174.316C269.943 174.324 269.841 174.341 269.72 174.327C269.661 174.318 269.593 174.3 269.545 174.245C269.496 174.192 269.497 174.108 269.532 174.054C269.861 173.674 270.402 173.716 270.662 173.853C270.802 173.919 270.892 174.003 270.945 174.065C270.998 174.127 271.016 174.168 271.012 174.171C270.999 174.183 270.901 174.022 270.633 173.906C270.501 173.849 270.325 173.813 270.135 173.837C269.955 173.86 269.723 173.942 269.615 174.092C269.567 174.169 269.633 174.234 269.734 174.245C269.83 174.257 269.939 174.245 270.036 174.239C270.233 174.222 270.409 174.191 270.554 174.157C270.846 174.089 271.018 174.019 271.024 174.032Z" fill="#263238"/>
<path d="M270.917 174.101C270.913 174.108 270.794 174.031 270.724 173.838C270.689 173.743 270.673 173.621 270.697 173.488C270.732 173.365 270.771 173.198 270.968 173.125C271.078 173.094 271.336 173.296 271.354 173.372C271.381 173.447 271.223 173.408 271.215 173.472C271.199 173.602 271.165 173.715 271.126 173.807C271.047 173.99 270.96 174.084 270.951 174.079C270.938 174.072 271.004 173.968 271.064 173.788C271.093 173.697 271.119 173.588 271.13 173.464C271.148 173.352 271.113 173.18 270.991 173.208C270.874 173.244 270.809 173.394 270.781 173.504C270.755 173.621 270.763 173.733 270.787 173.822C270.836 174.003 270.931 174.092 270.917 174.101Z" fill="#263238"/>
<path d="M278.285 170.546C278.291 170.561 278.076 170.611 277.776 170.776C277.478 170.937 277.1 171.233 276.858 171.664C276.616 172.095 276.573 172.548 276.604 172.861C276.633 173.179 276.715 173.366 276.698 173.371C276.693 173.373 276.667 173.328 276.634 173.243C276.6 173.157 276.562 173.029 276.539 172.868C276.489 172.547 276.522 172.075 276.775 171.626C277.028 171.177 277.429 170.876 277.743 170.724C277.901 170.646 278.037 170.599 278.133 170.574C278.229 170.549 278.283 170.541 278.285 170.546Z" fill="#263238"/>
<path d="M275.518 173.162C275.531 173.18 275.106 173.434 274.538 173.668C273.969 173.905 273.48 174.03 273.473 174.009C273.464 173.986 273.936 173.826 274.499 173.592C275.062 173.359 275.505 173.14 275.518 173.162Z" fill="#263238"/>
<path d="M276.886 172.588C276.911 172.596 276.893 172.691 276.894 172.806C276.893 172.921 276.911 173.016 276.886 173.024C276.863 173.034 276.8 172.939 276.8 172.806C276.8 172.673 276.863 172.578 276.886 172.588Z" fill="#263238"/>
<path d="M277.112 171.789C277.136 171.797 277.123 171.881 277.084 171.978C277.045 172.075 276.994 172.147 276.97 172.139C276.946 172.131 276.958 172.046 276.997 171.949C277.036 171.853 277.088 171.781 277.112 171.789Z" fill="#263238"/>
<path d="M277.719 171.216C277.724 171.239 277.631 171.277 277.545 171.352C277.456 171.426 277.409 171.508 277.383 171.501C277.358 171.497 277.372 171.382 277.481 171.29C277.589 171.198 277.716 171.193 277.719 171.216Z" fill="#263238"/>
<path d="M278.183 170.873C278.201 170.889 278.177 170.938 278.13 170.983C278.082 171.027 278.028 171.05 278.01 171.033C277.991 171.017 278.015 170.968 278.063 170.923C278.111 170.879 278.164 170.856 278.183 170.873Z" fill="#263238"/>
<path d="M269.528 89.4543L268.241 75.1755L274.853 75.2827C274.853 75.2827 275.159 73.1775 274.185 68.5591C273.588 65.7271 271.513 63.9903 269.186 62.9583L269.187 62.9203L268.985 62.8723C266.026 61.6131 262.928 61.4355 262.928 61.4355L254.811 61.5207C254.811 61.5207 248.611 60.8175 245.179 64.8359C243.857 66.3839 239.766 76.9779 239.766 76.9779L249.509 81.2431L248.581 75.3683C248.581 75.3683 248.765 79.6279 249.363 80.9775C249.696 81.7295 250.661 84.0639 250.661 84.0639L250.535 91.1099L269.528 89.4543Z" fill="#E8505B"/>
<path d="M265.05 73.1031L263.846 77.7695H275.211L274.464 69.9463L265.05 73.1031Z" fill="#E8505B"/>
<path d="M275.211 77.7692C275.213 77.7384 274.638 77.6836 273.707 77.634C272.775 77.5844 271.487 77.5424 270.062 77.5484C268.637 77.5548 267.348 77.6108 266.417 77.678C265.487 77.7448 264.914 77.8164 264.917 77.8464C264.92 77.8792 265.496 77.8644 266.427 77.8388C267.358 77.8128 268.643 77.7824 270.064 77.776C271.484 77.7704 272.77 77.7864 273.701 77.7948C274.632 77.8036 275.209 77.8012 275.211 77.7692Z" fill="#263238"/>
<path d="M264.56 69.9072C264.525 69.9084 264.513 70.362 264.522 71.094C264.531 71.8264 264.56 72.8368 264.608 73.9528C264.655 75.0688 264.712 76.0788 264.766 76.8096C264.82 77.54 264.871 77.9912 264.906 77.99C264.94 77.9888 264.952 77.5352 264.943 76.8032C264.935 76.0712 264.906 75.06 264.858 73.944C264.81 72.828 264.753 71.8184 264.699 71.0876C264.645 70.3576 264.595 69.906 264.56 69.9072Z" fill="#263238"/>
<g opacity="0.3">
<path d="M254.218 73.9492C254.218 73.9492 256.744 90.9764 263.846 90.5256C263.846 90.5256 267.043 90.4912 268.071 88.5592V87.7988L254.218 73.9492Z" fill="black"/>
</g>
<g opacity="0.3">
<path d="M264.56 70.9111L263.201 79.2583L264.081 80.7231L265.53 77.8591L264.917 77.8459L264.56 70.9111Z" fill="black"/>
</g>
<path d="M250.662 84.0652C250.647 84.07 250.579 83.9276 250.47 83.6664C250.36 83.4056 250.213 83.024 250.043 82.5488C249.704 81.5988 249.285 80.2684 248.956 78.7708C248.63 77.272 248.47 75.8936 248.418 74.8944C248.391 74.3948 248.383 73.99 248.391 73.7104C248.398 73.4308 248.408 73.2764 248.424 73.2764C248.461 73.276 248.485 73.8928 248.579 74.8844C248.673 75.876 248.857 77.2412 249.181 78.7304C249.507 80.2188 249.9 81.548 250.199 82.5064C250.338 82.9508 250.457 83.3296 250.555 83.6416C250.638 83.9096 250.677 84.0604 250.662 84.0652Z" fill="#263238"/>
<path d="M253.533 88.9576C253.473 88.9744 253.297 88.6068 253.141 88.1372C252.985 87.6672 252.907 87.2732 252.967 87.2564C253.028 87.2396 253.204 87.6072 253.36 88.0768C253.516 88.5464 253.594 88.9408 253.533 88.9576Z" fill="#263238"/>
<path d="M254.515 88.8927C254.456 88.9063 254.265 88.3551 254.255 87.6479C254.242 86.9407 254.416 86.3847 254.474 86.3967C254.54 86.4075 254.471 86.9623 254.484 87.6447C254.493 88.3271 254.58 88.8803 254.515 88.8927Z" fill="#263238"/>
<path d="M249.707 81.4392C249.679 81.4908 247.412 80.5128 244.644 79.2552C241.875 77.9972 239.653 76.9364 239.682 76.8848C239.71 76.8332 241.977 77.8112 244.746 79.0688C247.514 80.3264 249.735 81.3876 249.707 81.4392Z" fill="#263238"/>
<path d="M253.702 62.9018C253.753 60.8782 253.766 58.747 253.766 58.747C253.766 58.747 250.91 58.247 250.413 54.8318C249.938 51.575 251.265 43.933 251.265 43.933C255.436 42.4998 259.77 43.799 262.627 46.871L261.918 63.3006C261.836 65.2078 259.966 66.6626 257.72 66.567C255.452 66.4702 253.654 64.8298 253.702 62.9018Z" fill="#B78876"/>
<path d="M251.049 50.0407C251.033 50.2707 251.235 50.4723 251.499 50.4915C251.762 50.5107 251.989 50.3399 252.004 50.1099C252.02 49.8799 251.818 49.6779 251.555 49.6587C251.291 49.6395 251.064 49.8107 251.049 50.0407Z" fill="#263238"/>
<path d="M250.87 49.4673C250.928 49.5257 251.299 49.2897 251.815 49.3029C252.331 49.3093 252.703 49.5597 252.76 49.5037C252.788 49.4789 252.731 49.3749 252.569 49.2617C252.41 49.1493 252.135 49.0369 251.814 49.0305C251.492 49.0245 251.218 49.1257 251.06 49.2325C250.898 49.3397 250.841 49.4413 250.87 49.4673Z" fill="#263238"/>
<path d="M256.287 50.3372C256.272 50.5672 256.473 50.7692 256.737 50.7884C257.001 50.8076 257.227 50.6368 257.243 50.4068C257.258 50.1768 257.057 49.9748 256.793 49.9556C256.529 49.936 256.303 50.1072 256.287 50.3372Z" fill="#263238"/>
<path d="M256.252 49.7642C256.31 49.8226 256.681 49.5866 257.197 49.5998C257.712 49.6066 258.085 49.857 258.142 49.8006C258.17 49.7758 258.113 49.6718 257.951 49.5586C257.792 49.4462 257.517 49.3338 257.196 49.3274C256.874 49.3214 256.6 49.4226 256.442 49.5294C256.281 49.6366 256.224 49.7382 256.252 49.7642Z" fill="#263238"/>
<path d="M254.28 53.2014C254.283 53.1746 253.963 53.117 253.445 53.0442C253.313 53.0286 253.189 53.0022 253.169 52.9198C253.141 52.8326 253.2 52.7046 253.267 52.5666C253.399 52.2794 253.538 51.9786 253.683 51.663C254.261 50.3762 254.684 49.317 254.627 49.2962C254.569 49.2754 254.054 50.3014 253.476 51.5882C253.337 51.9054 253.203 52.2082 253.077 52.4974C253.023 52.6326 252.933 52.785 252.995 52.9662C253.028 53.0566 253.123 53.1238 253.206 53.1466C253.29 53.1722 253.364 53.175 253.429 53.1802C253.952 53.2186 254.277 53.2282 254.28 53.2014Z" fill="#263238"/>
<path d="M253.765 58.747C253.765 58.747 256.278 58.9534 258.81 57.6494C258.81 57.6494 257.528 59.9574 253.792 59.551L253.765 58.747Z" fill="#A36957"/>
<path d="M257.905 48.4102C257.799 48.557 257.406 48.4918 256.966 48.4198C256.528 48.3394 256.136 48.2686 256.097 48.0966C256.054 47.9318 256.508 47.7034 257.095 47.8058C257.682 47.9074 258.012 48.2714 257.905 48.4102Z" fill="#263238"/>
<path d="M252.771 47.7215C252.731 47.8927 252.311 47.9551 251.826 47.9775C251.341 47.9955 250.916 47.9683 250.859 47.8015C250.801 47.6399 251.211 47.3767 251.794 47.3535C252.377 47.3279 252.813 47.5555 252.771 47.7215Z" fill="#263238"/>
<path d="M254.288 54.3248C254.179 54.2972 254.057 54.3536 254.002 54.4436C253.937 54.5504 253.967 54.6976 254.07 54.7764C254.173 54.8552 254.337 54.8572 254.442 54.7808C254.547 54.7048 254.582 54.5584 254.52 54.45C254.459 54.3416 254.308 54.2824 254.178 54.316" fill="#A36957"/>
<path d="M254.409 54.3709C254.432 54.3521 254.326 54.237 254.101 54.2818C253.997 54.3026 253.86 54.3878 253.819 54.5334C253.777 54.6702 253.815 54.8474 253.974 54.9586C254.139 55.0642 254.338 55.0425 254.469 54.9613C254.61 54.8773 254.65 54.7237 254.628 54.6277C254.582 54.4169 254.411 54.3833 254.406 54.4125C254.386 54.4389 254.466 54.5122 254.45 54.637C254.443 54.6982 254.411 54.7549 254.346 54.7837C254.282 54.8153 254.18 54.8154 254.122 54.775C254.062 54.7358 254.031 54.6485 254.043 54.5813C254.052 54.5141 254.102 54.4642 254.162 54.4334C254.284 54.3702 254.393 54.3997 254.409 54.3709Z" fill="#263238"/>
<path d="M260.898 50.8836C260.453 51.8212 259.367 52.5436 259.517 53.5556C259.615 54.2088 260.076 54.8179 259.986 55.4724C259.873 56.294 258.934 56.8636 258.801 57.6828C258.639 58.6875 259.714 59.4684 260.143 60.406C260.768 61.7712 259.968 63.3068 259.949 64.7856C259.921 67.0508 262.039 69.1668 264.523 69.3528C265.527 69.428 266.659 69.1524 267.179 68.368C267.609 67.7208 267.523 66.8984 267.781 66.1796C268.165 65.1092 269.287 64.3256 269.524 63.2204C269.955 61.2056 267.277 59.5384 267.453 57.492C267.528 56.6176 268.122 55.8548 268.374 55.0084C268.705 53.8996 268.402 52.6508 267.588 51.7716C266.927 51.0568 265.968 50.5868 265.405 49.806C264.767 48.9204 264.745 47.7976 264.504 46.7616C263.918 44.2372 261.832 42.0444 259.169 41.1516C256.506 40.2588 253.354 40.6956 251.105 42.2688C251.105 42.2688 250.465 44.9052 253.442 45.346C256.418 45.7868 257.798 45.278 258.134 46.3628C258.134 46.3628 257.795 47.6296 259.025 48.84C260.256 50.0512 261.413 49.798 260.898 50.8836Z" fill="#263238"/>
<path d="M265.648 69.1684C265.647 69.1756 265.554 69.1664 265.377 69.1428C265.2 69.1176 264.94 69.0644 264.619 68.9572C263.984 68.746 263.083 68.286 262.316 67.4072C261.935 66.9716 261.578 66.4436 261.337 65.8228C261.091 65.2056 260.95 64.506 260.937 63.7692C260.918 63.032 261.033 62.2588 261.254 61.4852C261.365 61.098 261.509 60.7116 261.675 60.328C261.84 59.9428 262.042 59.5716 262.159 59.1788C262.284 58.7872 262.267 58.3872 262.154 58.0056C262.039 57.624 261.844 57.2652 261.654 56.9104C261.462 56.556 261.267 56.2024 261.141 55.8264C261.013 55.4536 260.965 55.0516 261.049 54.6768C261.224 53.9232 261.728 53.3656 262.025 52.7932C262.339 52.2264 262.438 51.6272 262.423 51.0896C262.37 50 261.859 49.1944 261.442 48.73C261.007 48.2652 260.678 48.088 260.694 48.0684C260.694 48.0684 261.043 48.2184 261.51 48.6772C261.957 49.1356 262.508 49.9524 262.585 51.0832C262.611 51.6404 262.517 52.2716 262.196 52.8688C261.892 53.462 261.407 54.0236 261.257 54.7132C261.102 55.408 261.464 56.1236 261.856 56.82C262.048 57.1752 262.251 57.5424 262.375 57.9508C262.498 58.3564 262.516 58.8148 262.381 59.2324C262.256 59.652 262.049 60.028 261.888 60.404C261.724 60.78 261.582 61.158 261.473 61.5368C261.253 62.2936 261.137 63.0476 261.15 63.7656C261.155 65.2076 261.699 66.468 262.445 67.3152C263.176 68.1824 264.04 68.6504 264.654 68.8812C265.275 69.1104 265.653 69.1448 265.648 69.1684Z" fill="#455A64"/>
<path d="M265.21 48.9844C265.211 48.9976 264.979 49.0356 264.554 49.0732C264.131 49.1048 263.506 49.1496 262.742 49.03C261.996 48.906 261.053 48.5732 260.455 47.7688C260.162 47.3652 260.046 46.8768 259.855 46.426C259.675 45.97 259.328 45.5752 258.852 45.3016C257.89 44.7468 256.757 44.6788 255.767 44.5692C254.771 44.4672 253.836 44.2752 253.202 43.8432C252.563 43.43 252.236 42.894 252.152 42.5076C252.104 42.314 252.108 42.1588 252.118 42.0564C252.134 41.9536 252.146 41.9012 252.154 41.9024C252.182 41.9028 252.124 42.1224 252.239 42.4876C252.345 42.8492 252.676 43.3436 253.295 43.7224C253.905 44.1156 254.8 44.2872 255.791 44.3788C256.773 44.4796 257.946 44.5352 258.977 45.1268C259.486 45.4156 259.88 45.8684 260.064 46.3528C260.26 46.8288 260.37 47.2972 260.633 47.6652C261.169 48.4096 262.056 48.75 262.773 48.886C263.508 49.0208 264.127 49 264.549 48.9932C264.973 48.9796 265.208 48.9692 265.21 48.9844Z" fill="#455A64"/>
<path d="M264.118 45.7262C264.12 45.7362 263.94 45.7874 263.602 45.795C263.267 45.8034 262.765 45.7494 262.213 45.5106C261.938 45.3918 261.656 45.2214 261.396 44.9938C261.132 44.7674 260.916 44.4746 260.713 44.1658C260.316 43.5574 259.934 42.807 259.112 42.497C258.306 42.1826 257.418 42.2526 256.646 42.3002C255.867 42.3698 255.137 42.3906 254.542 42.2842C253.943 42.1894 253.493 41.9638 253.244 41.755C253.118 41.6518 253.032 41.5594 252.985 41.491C252.936 41.4238 252.913 41.387 252.92 41.3826C252.938 41.3698 253.043 41.511 253.3 41.6922C253.557 41.8726 253.99 42.0658 254.569 42.139C255.148 42.223 255.846 42.1898 256.628 42.109C257.403 42.0534 258.318 41.9646 259.204 42.3066C259.643 42.4758 260 42.7754 260.255 43.0998C260.514 43.4242 260.7 43.763 260.895 44.069C261.089 44.3754 261.289 44.655 261.529 44.871C261.767 45.0898 262.029 45.2578 262.286 45.379C262.801 45.6226 263.279 45.6978 263.604 45.7138C263.932 45.7314 264.115 45.7082 264.118 45.7262Z" fill="#455A64"/>
<path d="M266.961 68.3053C266.939 68.2961 267.079 68.0385 267.241 67.5461C267.402 67.0553 267.562 66.3177 267.535 65.4021C267.5 64.4929 267.26 63.3929 266.596 62.3477C266.274 61.8237 265.785 61.3573 265.387 60.7817C265.189 60.4945 265.019 60.1725 264.944 59.8161C264.87 59.4593 264.915 59.0805 265.041 58.7365C265.288 58.0461 265.73 57.4645 265.825 56.8297C265.943 56.1929 265.589 55.6121 265.254 55.0953C265.085 54.8321 264.915 54.5721 264.783 54.3001C264.651 54.0281 264.567 53.7417 264.534 53.4649C264.467 52.9089 264.539 52.3981 264.584 51.9397C264.711 51.0261 264.618 50.2753 264.375 49.8141C264.141 49.3473 263.833 49.2073 263.856 49.1881C263.858 49.1853 263.876 49.1929 263.909 49.2113C263.941 49.2305 263.993 49.2557 264.049 49.3025C264.167 49.3893 264.323 49.5433 264.455 49.7789C264.734 50.2457 264.853 51.0309 264.745 51.9525C264.709 52.4129 264.65 52.9173 264.722 53.4441C264.781 53.9757 265.082 54.4773 265.435 54.9977C265.606 55.2609 265.787 55.5357 265.914 55.8477C266.044 56.1569 266.104 56.5105 266.046 56.8577C265.939 57.5573 265.486 58.1493 265.259 58.7997C265.14 59.1245 265.103 59.4581 265.167 59.7789C265.234 60.0997 265.389 60.3985 265.577 60.6745C265.954 61.2273 266.446 61.7033 266.778 62.2521C267.454 63.3381 267.681 64.4697 267.696 65.3989C267.703 66.3345 267.515 67.0813 267.325 67.5709C267.226 67.8153 267.144 68.0025 267.072 68.1233C267.006 68.2457 266.968 68.3085 266.961 68.3053Z" fill="#455A64"/>
<path d="M249.038 142.836C249.038 142.836 246.075 117.299 245.905 107.863C245.734 98.4269 250.571 89.1165 250.571 89.1165L269.528 88.3877C269.528 88.3877 273.275 97.9621 273.342 101.984C273.472 109.799 271.058 117.517 271.336 123.717L271.969 142.836" fill="#263238"/>
<path d="M272.604 111.442C272.608 111.448 272.501 111.522 272.295 111.655C272.242 111.689 272.184 111.726 272.122 111.766C272.063 111.811 272.005 111.869 271.938 111.927C271.806 112.043 271.65 112.175 271.516 112.357C270.904 113.039 270.457 114.256 270.033 115.775C269.799 116.529 269.562 117.376 269.073 118.205C268.942 118.407 268.825 118.621 268.652 118.809C268.57 118.905 268.495 119.008 268.404 119.101L268.113 119.366C267.717 119.72 267.215 119.987 266.687 120.197C265.626 120.62 264.428 120.821 263.334 121.32C262.233 121.807 261.407 122.753 260.901 123.841C260.367 124.925 260.043 126.063 259.598 127.125C259.16 128.179 258.565 129.205 257.619 129.853C256.681 130.525 255.521 130.679 254.517 130.737C253.496 130.791 252.551 130.765 251.704 130.881C250.859 130.988 250.111 131.231 249.582 131.609C249.051 131.989 248.741 132.464 248.596 132.871C248.445 133.283 248.472 133.631 248.522 133.852C248.571 134.077 248.64 134.184 248.625 134.19C248.625 134.19 248.542 134.089 248.477 133.862C248.411 133.639 248.368 133.279 248.51 132.848C248.648 132.422 248.956 131.923 249.502 131.519C250.049 131.113 250.818 130.855 251.68 130.736C252.543 130.608 253.499 130.626 254.504 130.565C255.499 130.499 256.609 130.341 257.491 129.701C258.384 129.083 258.959 128.096 259.388 127.053C259.826 126.003 260.148 124.863 260.692 123.756C261.203 122.648 262.078 121.643 263.233 121.138C264.37 120.625 265.569 120.43 266.603 120.021C267.119 119.819 267.597 119.567 267.976 119.232L268.256 118.981C268.343 118.893 268.416 118.795 268.495 118.703C268.662 118.525 268.778 118.317 268.906 118.123C269.389 117.323 269.634 116.486 269.877 115.736C270.32 114.225 270.798 112.988 271.446 112.307C271.589 112.126 271.752 111.995 271.893 111.881C271.963 111.825 272.024 111.769 272.087 111.725C272.152 111.687 272.213 111.653 272.268 111.621C272.486 111.497 272.601 111.435 272.604 111.442Z" fill="#FAFAFA"/>
<path d="M272.721 99.624C272.729 99.6236 272.738 99.7408 272.746 99.966C272.749 100.191 272.72 100.524 272.614 100.943C272.394 101.776 271.725 102.919 270.473 103.954C269.854 104.473 269.107 104.975 268.253 105.428C267.403 105.886 266.466 106.322 265.506 106.815C264.55 107.31 263.563 107.869 262.696 108.611C261.818 109.345 261.16 110.309 260.568 111.33C259.97 112.35 259.44 113.387 258.722 114.286C258.366 114.734 257.964 115.144 257.519 115.495C257.072 115.844 256.584 116.126 256.088 116.362C255.094 116.831 254.081 117.121 253.143 117.388C252.202 117.652 251.325 117.886 250.558 118.179C249.789 118.467 249.124 118.793 248.586 119.139C248.048 119.485 247.639 119.848 247.348 120.176C246.762 120.836 246.639 121.314 246.605 121.298C246.598 121.296 246.64 121.185 246.728 120.974C246.829 120.77 246.987 120.466 247.278 120.126C247.562 119.784 247.971 119.406 248.511 119.044C249.051 118.684 249.721 118.344 250.494 118.043C251.267 117.738 252.149 117.495 253.085 117.224C254.019 116.95 255.02 116.655 255.989 116.192C256.472 115.96 256.945 115.683 257.376 115.345C257.804 115.004 258.192 114.606 258.539 114.167C259.237 113.288 259.763 112.258 260.365 111.232C260.959 110.207 261.636 109.215 262.541 108.463C263.432 107.704 264.436 107.141 265.401 106.648C266.37 106.157 267.308 105.727 268.155 105.279C269.005 104.837 269.745 104.35 270.362 103.845C271.609 102.84 272.283 101.734 272.527 100.922C272.765 100.104 272.686 99.6216 272.721 99.624Z" fill="#FAFAFA"/>
<path d="M246 109.215C245.997 109.216 245.984 109.19 245.962 109.138C245.943 109.084 245.903 109.007 245.877 108.9C245.823 108.686 245.79 108.348 245.921 107.941C246.165 107.126 247.139 106.113 248.707 105.605C249.487 105.362 250.373 105.214 251.295 104.995C252.207 104.772 253.201 104.459 253.942 103.766C254.311 103.424 254.622 103.016 254.881 102.569C255.134 102.117 255.342 101.632 255.538 101.132C255.933 100.134 256.264 99.0504 256.934 98.0648C257.599 97.0716 258.682 96.3816 259.804 96.036C260.922 95.6624 262.05 95.4968 263.097 95.2772C264.147 95.0696 265.128 94.8008 265.961 94.3908C266.782 93.9668 267.436 93.4024 267.899 92.804C268.848 91.6044 269.097 90.3756 269.131 89.5636C269.152 88.7384 269.007 88.2892 269.037 88.2852C269.037 88.2852 269.213 88.7268 269.22 89.5652C269.213 90.3896 268.987 91.648 268.031 92.8892C267.564 93.508 266.899 94.0964 266.054 94.5416C265.2 94.9708 264.198 95.2504 263.145 95.4644C262.093 95.69 260.971 95.86 259.882 96.2272C258.787 96.57 257.769 97.2232 257.128 98.1756C256.482 99.1248 256.149 100.197 255.75 101.201C255.551 101.705 255.338 102.198 255.076 102.661C254.807 103.122 254.48 103.546 254.092 103.902C253.304 104.629 252.266 104.944 251.344 105.162C250.408 105.377 249.528 105.515 248.759 105.745C247.233 106.219 246.265 107.19 246.007 107.965C245.868 108.354 245.885 108.68 245.923 108.892C245.971 109.102 246.011 109.212 246 109.215Z" fill="#FAFAFA"/>
<path d="M271.091 130.809C271.099 130.808 271.109 130.894 271.121 131.06C271.132 131.225 271.117 131.473 271.04 131.782C270.885 132.398 270.361 133.241 269.377 133.943C268.893 134.298 268.306 134.624 267.633 134.885C266.961 135.147 266.218 135.354 265.442 135.574C264.667 135.794 263.853 136.024 263.063 136.364C262.266 136.695 261.531 137.181 260.897 137.8C260.255 138.411 259.701 139.079 259.087 139.668C258.475 140.261 257.78 140.75 257.059 141.111C255.611 141.838 254.11 142.087 252.875 142.1C251.63 142.112 250.642 141.875 249.994 141.665C249.667 141.561 249.425 141.457 249.263 141.38C249.101 141.306 249.018 141.264 249.021 141.258C249.025 141.251 249.115 141.281 249.282 141.341C249.448 141.406 249.695 141.497 250.022 141.588C250.672 141.772 251.65 141.983 252.871 141.952C254.083 141.921 255.549 141.661 256.955 140.943C257.657 140.585 258.325 140.111 258.922 139.528C259.524 138.947 260.076 138.279 260.73 137.655C261.375 137.024 262.15 136.514 262.966 136.179C263.778 135.833 264.602 135.605 265.379 135.39C266.157 135.175 266.896 134.975 267.558 134.726C268.219 134.478 268.797 134.167 269.276 133.827C270.25 133.156 270.776 132.354 270.954 131.761C271.128 131.162 271.059 130.808 271.091 130.809Z" fill="#FAFAFA"/>
<path d="M268.93 77.7862L265.265 77.865C265.024 78.9874 264.436 79.7554 264.436 79.7554C261.371 74.9186 258.994 68.4386 258.404 65.8342C258.49 65.5742 258.592 65.2862 258.719 64.9646C258.866 64.5934 258.74 63.8902 258.671 63.5002C258.568 62.9202 258.39 62.1402 258.336 61.779C258.173 60.6786 257.978 60.5058 257.555 60.6302C256.981 60.7994 257.791 63.7206 257.32 63.7842C257.067 63.8182 256.758 62.8174 256.668 61.9962C256.578 61.175 256.17 58.649 255.871 58.4806C255.433 58.2338 255.052 58.6242 255.162 59.4418C255.274 60.2694 255.415 62.7378 254.938 62.771C254.467 62.8038 254.073 58.6162 254.073 58.6162C254.073 58.6162 254.147 57.705 253.594 57.727C252.597 57.7662 253.377 62.1814 253.462 62.5998C253.522 62.8906 253.004 62.9442 252.958 62.6282C252.911 62.303 252.671 58.4402 251.656 58.471C250.877 58.495 252.259 62.1094 251.822 62.9474C251.384 63.785 251.08 60.1018 250.337 60.1526C250.06 60.1718 249.855 60.221 250.364 62.3054C250.637 63.4258 251.441 65.4854 252.142 67.191C253.321 72.971 258.495 91.4614 266.605 88.0766C271.144 86.1826 272.985 77.7886 272.985 77.7886L268.93 77.7862Z" fill="#B78876"/>
<path d="M253.289 62.8822C253.289 62.8822 253.326 62.8882 253.395 62.869C253.457 62.8518 253.579 62.7814 253.56 62.6378C253.55 62.3898 253.507 62.0278 253.444 61.5602C253.396 61.0894 253.242 60.5246 253.241 59.8562C253.235 59.5214 253.245 59.1614 253.266 58.7798C253.279 58.589 253.283 58.391 253.33 58.2038C253.364 58.0226 253.498 57.8154 253.651 57.8402L253.668 57.843L253.675 57.8426C253.832 57.8362 253.954 57.947 254.005 58.1166C254.06 58.2786 254.073 58.4698 254.062 58.6522L254.062 58.6598L254.062 58.665C254.165 59.6882 254.276 60.8086 254.533 62.0046C254.568 62.1542 254.605 62.3046 254.656 62.4562C254.681 62.5318 254.711 62.6082 254.747 62.6854C254.771 62.725 254.786 62.7626 254.822 62.8038C254.853 62.8386 254.893 62.8994 255.006 62.9086C255.189 62.8962 255.241 62.7706 255.283 62.6986C255.322 62.6158 255.347 62.5338 255.365 62.4526C255.403 62.2898 255.422 62.1274 255.436 61.9642C255.484 61.3118 255.459 60.6462 255.406 59.9634C255.389 59.6182 255.296 59.2742 255.361 58.9614C255.391 58.8074 255.461 58.6522 255.577 58.5882C255.633 58.557 255.697 58.5506 255.766 58.5666C255.801 58.5758 255.836 58.5886 255.871 58.6078C255.9 58.633 255.893 58.6218 255.919 58.6666C256.067 58.953 256.142 59.3258 256.225 59.6722C256.303 60.0262 256.37 60.387 256.432 60.7518C256.494 61.1166 256.551 61.4858 256.599 61.8578C256.638 62.2294 256.698 62.6198 256.802 62.9954C256.855 63.1846 256.913 63.3734 257 63.5606C257.045 63.6546 257.092 63.7474 257.182 63.8434C257.214 63.8842 257.317 63.9606 257.445 63.9306C257.569 63.893 257.605 63.8034 257.625 63.751C257.696 63.521 257.675 63.3298 257.671 63.1286C257.662 62.9302 257.644 62.7338 257.626 62.5378C257.594 62.201 257.559 61.8678 257.547 61.5394C257.541 61.3758 257.54 61.2122 257.56 61.0582C257.571 60.983 257.585 60.9054 257.613 60.8498C257.627 60.8214 257.643 60.8006 257.656 60.7902C257.663 60.7838 257.667 60.7866 257.673 60.7802L257.73 60.7654C258.022 60.6558 258.119 61.025 258.196 61.3226C258.264 61.633 258.307 61.9534 258.375 62.269C258.491 62.899 258.639 63.525 258.716 64.127C258.748 64.425 258.772 64.735 258.678 64.9878C258.573 65.277 258.471 65.563 258.369 65.8458L258.36 65.8714L258.366 65.8982C258.903 68.049 259.645 69.9734 260.335 71.6818C261.031 73.3886 261.728 74.8638 262.343 76.0698C262.955 77.2774 263.505 78.2074 263.885 78.8422C264.078 79.143 264.23 79.3806 264.343 79.5574C264.449 79.7186 264.507 79.8006 264.513 79.7978C264.519 79.7946 264.473 79.7066 264.378 79.5398C264.273 79.3594 264.132 79.1162 263.954 78.809C263.596 78.165 263.068 77.2278 262.475 76.0154C261.881 74.8042 261.203 73.3266 260.522 71.6194C259.849 69.913 259.119 67.9834 258.597 65.855L258.595 65.9074C258.696 65.6282 258.799 65.3462 258.903 65.061C259.021 64.7346 258.987 64.4158 258.957 64.1038C258.878 63.4782 258.735 62.8702 258.62 62.2374C258.552 61.9246 258.51 61.6034 258.439 61.2754C258.397 61.1118 258.359 60.947 258.26 60.7802C258.212 60.6994 258.138 60.6074 258.017 60.5578C257.894 60.5094 257.768 60.523 257.67 60.545L257.596 60.5642C257.563 60.5778 257.521 60.5938 257.496 60.6158C257.44 60.6602 257.407 60.711 257.385 60.7582C257.338 60.8542 257.325 60.9426 257.312 61.0314C257.29 61.207 257.291 61.3778 257.296 61.5474C257.309 61.8866 257.345 62.2222 257.376 62.5578C257.394 62.753 257.412 62.9474 257.422 63.139C257.429 63.3258 257.437 63.5322 257.389 63.6766C257.378 63.7186 257.356 63.7106 257.382 63.731L257.382 63.733C257.38 63.7194 257.386 63.7534 257.385 63.7478L257.384 63.7438C257.383 63.7386 257.384 63.7338 257.385 63.7298C257.388 63.7262 257.397 63.7122 257.392 63.7114C257.389 63.7102 257.378 63.705 257.365 63.6894C257.317 63.6386 257.268 63.5554 257.231 63.4726C257.152 63.305 257.095 63.123 257.044 62.9418C256.943 62.575 256.886 62.211 256.846 61.833C256.796 61.4566 256.739 61.0858 256.675 60.7186C256.612 60.3514 256.543 59.9882 256.463 59.6298C256.372 59.269 256.314 58.9222 256.128 58.5618C256.117 58.5254 256.039 58.4446 255.99 58.421C255.941 58.3942 255.886 58.3734 255.827 58.3582C255.708 58.3286 255.563 58.3422 255.454 58.405C255.236 58.5362 255.169 58.7446 255.129 58.9254C255.094 59.1118 255.099 59.2958 255.122 59.4734C255.144 59.6442 255.162 59.8114 255.177 59.9806C255.232 60.6542 255.26 61.317 255.217 61.9506C255.204 62.1086 255.186 62.265 255.153 62.4126C255.137 62.4866 255.115 62.5582 255.086 62.6198C255.072 62.6502 255.054 62.6786 255.038 62.6946C255.022 62.7278 255.008 62.687 255.009 62.741C255.032 62.6998 255.01 62.7226 254.993 62.6882C254.974 62.6694 254.958 62.6334 254.941 62.6054C254.91 62.5402 254.882 62.4714 254.858 62.4002C254.809 62.2582 254.771 62.111 254.736 61.9658C254.475 60.791 254.352 59.6678 254.239 58.6518V58.6646C254.249 58.459 254.234 58.2626 254.167 58.0698C254.134 57.975 254.085 57.8782 253.995 57.8034C253.908 57.7262 253.782 57.6918 253.669 57.695L253.693 57.6974C253.517 57.669 253.388 57.7662 253.314 57.8626C253.238 57.9618 253.205 58.0694 253.179 58.1734C253.131 58.3834 253.132 58.583 253.12 58.7746C253.105 59.1594 253.101 59.5214 253.114 59.8598C253.128 60.5422 253.297 61.107 253.356 61.5722C253.433 62.037 253.49 62.3978 253.515 62.641C253.543 62.7566 253.44 62.831 253.386 62.8506C253.324 62.8738 253.288 62.8774 253.289 62.8822Z" fill="#A36957"/>
<path d="M224.634 83.2933C224.634 83.2933 223.417 83.2405 222.085 83.5589C219.813 84.1025 215.89 86.2633 215.728 88.9333H218.577C218.577 88.9333 216.982 92.0209 217.451 91.7349C218.667 90.9933 221.089 88.7561 221.089 88.7561L224.634 83.2933Z" fill="#B78876"/>
<path d="M263.497 36.818C263.435 36.8232 263.176 34.6816 262.92 32.0356C262.664 29.3884 262.507 27.2392 262.57 27.2344C262.633 27.2292 262.892 29.3704 263.148 32.0176C263.404 34.6632 263.56 36.8128 263.497 36.818Z" fill="#263238"/>
<path d="M275.997 27.3646C276.048 27.3978 274.123 29.9378 271.698 33.0366C269.272 36.1366 267.264 38.6218 267.212 38.5886C267.16 38.5554 269.085 36.0158 271.511 32.9158C273.936 29.817 275.945 27.3314 275.997 27.3646Z" fill="#263238"/>
<path d="M281.19 38.8756C281.203 38.932 278.956 39.3992 276.173 39.9192C273.389 40.4392 271.122 40.8152 271.11 40.7588C271.097 40.7024 273.343 40.2352 276.127 39.7152C278.91 39.1956 281.177 38.8196 281.19 38.8756Z" fill="#263238"/>
<path d="M131.542 93.8172L115.983 166.537L113.946 176.056L217.814 175.59C222.475 175.57 226.606 171.807 228.106 166.216L246.524 97.5616C247.662 93.3176 245.164 88.9036 241.626 88.9072L136.499 89.0076C134.178 89.0104 132.149 90.9792 131.542 93.8172Z" fill="#E8505B"/>
<g opacity="0.5">
<path d="M131.542 93.8172L115.983 166.537L113.946 176.056L217.814 175.59C222.475 175.57 226.606 171.807 228.106 166.216L246.524 97.5616C247.662 93.3176 245.164 88.9036 241.626 88.9072L136.499 89.0076C134.178 89.0104 132.149 90.9792 131.542 93.8172Z" fill="black"/>
</g>
<path d="M207.85 161.61L196.853 81.0472C196.402 77.746 193.51 75.2836 190.095 75.294L165.98 75.3656C164.195 75.3708 162.484 76.0608 161.216 77.286L149.765 88.352L82.6976 88.67C78.599 88.6896 75.4503 92.2148 75.9937 96.176L86.2044 170.637C86.6562 173.934 89.5435 176.393 92.954 176.386L209.839 176.176C222.857 176.422 224.099 172.926 224.099 172.926C209.18 175.932 207.852 161.62 207.85 161.61Z" fill="#E8505B"/>
<g opacity="0.5">
<path d="M157.45 145.487L153.509 149.336L123.147 124.506L127.09 120.657L157.45 145.487Z" fill="white"/>
<path d="M151.856 119.804L156.213 123.367L128.742 150.189L124.385 146.626L151.856 119.804Z" fill="white"/>
</g>
<path d="M224.541 41.514C224.26 41.4044 224.058 41.156 224.043 40.8596L223.868 37.146C223.856 36.9124 223.966 36.6876 224.164 36.5388C224.362 36.3896 224.626 36.334 224.876 36.3876C225.533 36.5284 226.257 36.3984 226.863 36.0308C227.421 35.6924 227.795 35.194 227.89 34.6632C227.985 34.1344 227.805 33.5492 227.396 33.0572C226.958 32.5304 226.311 32.1756 225.662 32.108C224.337 31.9692 222.907 32.892 222.538 34.1232C222.42 34.5208 221.969 34.756 221.531 34.6476C221.086 34.5364 220.835 34.1292 220.954 33.7316C221.532 31.7964 223.729 30.4028 225.85 30.6248C226.95 30.74 227.993 31.2984 228.705 32.1568C229.384 32.9728 229.677 33.9736 229.51 34.9032C229.342 35.8412 228.709 36.7044 227.774 37.272C227.098 37.682 226.323 37.9084 225.547 37.9328L225.684 40.7952C225.703 41.2072 225.352 41.5552 224.899 41.5728C224.772 41.578 224.65 41.5564 224.541 41.514Z" fill="#E8505B"/>
<path d="M225.744 43.031C225.77 43.3674 225.49 43.659 225.12 43.6818C224.75 43.705 224.429 43.451 224.404 43.1146C224.378 42.7782 224.658 42.4866 225.028 42.4634C225.398 42.4402 225.719 42.6946 225.744 43.031Z" fill="#E8505B"/>
<path d="M210.402 36.2772C210.407 36.2772 210.421 36.1948 210.441 36.0336C210.462 35.8596 210.491 35.6228 210.528 35.3184C210.547 35.002 210.636 34.6196 210.741 34.1688C210.799 33.9448 210.829 33.6956 210.919 33.4436C211.005 33.19 211.096 32.9208 211.192 32.636C211.618 31.5128 212.274 30.1656 213.38 28.8256C214.477 27.4884 216.02 26.1672 218.001 25.1664C218.976 24.6376 220.092 24.2692 221.261 23.944C222.449 23.6884 223.707 23.4692 225.023 23.4976C225.68 23.4656 226.343 23.5532 227.019 23.6048C227.357 23.634 227.689 23.716 228.028 23.7696C228.367 23.8264 228.708 23.8868 229.041 23.9916C230.399 24.3084 231.719 24.8908 232.976 25.6128C235.5 27.0564 237.626 29.4052 238.792 32.2524C239.377 33.6768 239.657 35.2384 239.654 36.8156C239.689 38.396 239.353 40.0012 238.734 41.5124L238.535 41.9692L238.509 42.0296L238.536 42.086C239.64 44.3968 240.722 46.6632 241.771 48.8592L241.956 48.668C239.684 47.8744 237.48 47.1048 235.367 46.3664L235.285 46.338L235.221 46.3944C233.393 48.0048 231.209 49.0932 228.999 49.6604C226.781 50.2288 224.548 50.258 222.516 49.9296C220.48 49.602 218.647 48.894 217.119 47.984C215.586 47.074 214.357 45.9676 213.409 44.8432C212.468 43.7064 211.849 42.5408 211.38 41.4996C210.969 40.4356 210.716 39.4912 210.594 38.7096C210.542 38.3192 210.496 37.972 210.456 37.6692C210.447 37.37 210.44 37.1156 210.434 36.9048C210.426 36.7084 210.421 36.5532 210.416 36.4364C210.411 36.3312 210.406 36.2772 210.402 36.2772C210.398 36.2772 210.394 36.3304 210.391 36.436C210.39 36.5532 210.387 36.708 210.385 36.9056C210.384 37.1172 210.383 37.3736 210.383 37.6744C210.417 37.9796 210.456 38.3296 210.5 38.7232C210.608 39.5124 210.848 40.4684 211.252 41.548C211.711 42.6044 212.327 43.7896 213.269 44.948C214.219 46.094 215.457 47.2236 217.006 48.1556C218.551 49.0876 220.408 49.816 222.475 50.1576C224.536 50.4992 226.807 50.478 229.066 49.906C231.318 49.3356 233.546 48.232 235.413 46.5936L235.268 46.6216C237.38 47.3628 239.582 48.1356 241.853 48.9324L242.186 49.0488L242.039 48.7412C240.992 46.5444 239.911 44.2776 238.809 41.9664L238.81 42.0828L239.012 41.616C239.645 40.0716 239.988 38.4296 239.952 36.8144C239.954 35.2024 239.665 33.606 239.066 32.1512C237.871 29.2428 235.696 26.8528 233.121 25.388C231.839 24.6552 230.493 24.0672 229.11 23.748C228.771 23.6428 228.424 23.5824 228.079 23.5256C227.734 23.472 227.396 23.39 227.053 23.3612C226.366 23.3112 225.691 23.2252 225.023 23.26C223.687 23.2368 222.408 23.464 221.204 23.73C220.018 24.0656 218.889 24.446 217.902 24.9876C215.9 26.0144 214.346 27.3644 213.249 28.7272C212.142 30.0924 211.494 31.4616 211.082 32.6C210.99 32.8884 210.902 33.1616 210.82 33.418C210.734 33.6732 210.708 33.9248 210.654 34.1512C210.558 34.6072 210.478 34.9928 210.468 35.3116C210.444 35.6176 210.425 35.8568 210.411 36.0316C210.4 36.194 210.397 36.2768 210.402 36.2772Z" fill="#263238"/>
</g>
</svg>
