<svg width="261" height="236" viewBox="0 0 261 236" fill="none" xmlns="http://www.w3.org/2000/svg">
<g opacity="0.3">
<path d="M70.0836 176.33C64.8368 176.333 59.6478 175.339 54.8532 173.412C50.0587 171.485 45.7657 168.668 42.2529 165.144C38.74 161.62 36.0856 157.468 34.4621 152.956C32.8385 148.445 32.2819 143.675 32.8285 138.957C19.4601 134.581 10.4973 122.361 10.4973 108.461C10.4973 99.4646 14.3497 90.8412 21.0783 84.7571C17.3343 79.4907 15.3597 73.3555 15.3937 67.0949C15.3937 50.2586 30.4116 40.257 45.3408 39.0109C45.8463 35.1494 47.2052 31.4192 49.3368 28.0421C51.4683 24.6649 54.329 21.7097 57.7488 19.3521C64.9956 14.2575 74.0198 11.6768 83.1885 12.0767C92.3572 12.4767 101.065 15.831 107.735 21.5327C114.01 12.4703 124.356 7.08008 135.49 7.08008C144.74 7.08008 153.343 10.7098 159.742 17.3083C165.231 14.5228 171.42 13.06 177.715 13.0603C194.163 13.0603 209.092 23.2366 214.923 38.4067C223.325 38.5831 231.316 41.7257 237.188 47.1621C243.06 52.5986 246.346 59.8971 246.342 67.4961C246.342 76.129 240.976 86.0032 233.814 90.6571C240.725 97.1613 244.056 105.355 243.21 113.785C241.268 132.887 225.655 142.865 214.923 142.865C213.785 150.261 209.04 157.176 201.534 162.354C194.314 167.338 185.179 170.199 176.478 170.199C166.211 170.139 156.347 166.577 148.859 160.225C142.276 169.76 131.419 175.438 119.726 175.438C111.102 175.438 102.818 172.323 96.3611 166.668C89.3553 172.898 79.9097 176.371 70.0836 176.33ZM81.4319 12.678C65.7719 12.678 48.0239 22.0189 46.0038 39.3318L45.9724 39.5914L45.6906 39.615C30.9806 40.729 16.0932 50.5277 16.0932 67.0949C16.063 73.3226 18.0599 79.4208 21.8352 84.6297L21.9918 84.8468L21.7882 85.0262C15.0648 90.997 11.2125 99.5402 11.2125 108.461C11.2125 122.187 20.0865 134.237 33.34 138.447L33.5958 138.532V138.778C33.4456 140 33.369 141.229 33.3661 142.459C33.3798 149.02 35.5402 155.431 39.5753 160.883C43.6104 166.336 49.3398 170.587 56.0418 173.102C62.7438 175.616 70.1187 176.281 77.2378 175.012C84.3568 173.744 90.9016 170.599 96.0479 165.974L96.2932 165.757L96.5386 165.974C102.897 171.638 111.108 174.782 119.658 174.782C131.236 174.782 141.989 169.085 148.42 159.541L148.645 159.21L148.953 159.475C156.6 165.969 166.361 169.542 176.436 169.542C192.842 169.542 211.932 158.686 214.244 142.483L214.281 142.2H214.594C225.034 142.421 240.584 132.613 242.505 113.695C243.356 105.346 239.989 97.2132 233.026 90.8034L232.739 90.5344L233.078 90.322C240.12 85.9513 245.648 75.9118 245.648 67.4961C245.613 60.0359 242.352 52.8841 236.563 47.5685C230.774 42.2529 222.916 39.1952 214.667 39.0486H214.427L214.349 38.841C208.664 23.7842 193.944 13.6881 177.715 13.6881C171.445 13.6837 165.282 15.1593 159.836 17.9691L159.586 18.0918L159.403 17.8983C153.139 11.3186 144.625 7.69368 135.49 7.69368C124.466 7.69368 114.229 13.117 108.106 22.203L107.882 22.5334L107.574 22.269C100.533 16.1726 91.1801 12.7413 81.4319 12.678Z" fill="#E0E0E0"/>
<path d="M110.288 228.179L25.4424 183.854L159.732 113.729L244.578 158.054L110.288 228.179Z" fill="#E0E0E0"/>
<path d="M168.502 221.212C167.575 221.224 166.66 221.021 165.845 220.622L163.845 219.579C163.426 219.43 163.067 219.17 162.813 218.833C162.56 218.496 162.425 218.098 162.425 217.691C162.425 217.284 162.56 216.886 162.813 216.549C163.067 216.212 163.426 215.952 163.845 215.803L190.18 202.016C187.831 199.656 186.793 197.008 187.158 194.294C187.628 190.834 190.426 187.601 195.045 185.189C200.041 182.579 206.67 181.144 213.712 181.144C220.754 181.144 227.383 182.56 232.384 185.189C237.515 187.865 240.339 191.471 240.339 195.337C240.339 199.203 237.515 202.804 232.384 205.48C227.383 208.091 220.754 209.525 213.717 209.525C206.931 209.525 200.521 208.19 195.594 205.749L171.477 220.447C170.587 220.956 169.554 221.221 168.502 221.212Z" fill="#E0E0E0"/>
<path d="M81.7191 223.124L75.5804 216.818L39.813 198.08L38.5132 197.4L36.3886 196.291L36.2425 196.215H36.2947L34.2537 195.158L25.9017 190.811C24.2887 189.815 21.8718 191.835 20.9322 193.874C20.7874 194.178 20.6772 194.494 20.6034 194.818C20.4207 195.663 20.6034 196.428 21.2715 196.857L28.0575 200.402L29.9054 201.346L31.4296 202.139L31.5758 202.21L33.3402 203.13C33.3591 203.151 33.3821 203.169 33.408 203.182L34.8905 203.942L71.4305 223.091L80.388 224.691L82.8258 225.13C82.8805 225.139 82.9368 225.137 82.9903 225.123C83.0438 225.109 83.093 225.084 83.1337 225.05C83.1981 224.991 83.2342 224.911 83.2342 224.828C83.2342 224.745 83.1981 224.665 83.1337 224.606L81.7191 223.124Z" fill="#E0E0E0"/>
<path d="M236.351 189.239C236.351 186.157 234.101 183.07 229.591 180.719C220.576 175.999 205.966 175.999 196.951 180.719C192.446 183.079 190.191 186.157 190.191 189.239V194.903C190.191 197.99 192.446 201.072 196.951 203.422C205.966 208.142 220.576 208.142 229.591 203.422C234.101 201.062 236.351 197.99 236.351 194.903V189.239ZM198.068 182.466C202.092 180.365 207.49 179.209 213.274 179.209C219.057 179.209 224.45 180.365 228.474 182.466C232.128 184.354 234.122 186.77 234.122 189.239C234.122 191.707 232.118 194.11 228.474 196.012C224.45 198.112 219.052 199.269 213.274 199.269C207.495 199.269 202.092 198.112 198.068 196.012C194.414 194.124 192.425 191.707 192.425 189.239C192.425 186.77 194.429 184.368 198.068 182.466Z" fill="#FF725E"/>
<path opacity="0.3" d="M196.95 197.768C205.965 202.488 220.576 202.488 229.591 197.768C238.606 193.048 238.606 185.434 229.591 180.729C220.576 176.023 205.965 176.009 196.95 180.729C187.935 185.449 187.92 193.048 196.95 197.768ZM192.419 189.248C192.419 186.78 194.424 184.377 198.068 182.475C202.092 180.375 207.49 179.218 213.268 179.218C219.047 179.218 224.449 180.375 228.474 182.475C232.128 184.363 234.117 186.78 234.117 189.248C234.117 191.717 232.112 194.119 228.474 196.021C224.449 198.122 219.047 199.278 213.268 199.278C207.49 199.278 202.092 198.122 198.068 196.021C194.424 194.11 192.419 191.707 192.419 189.239V189.248Z" fill="white"/>
<path d="M192.419 189.239C192.435 190.239 192.747 191.217 193.322 192.071C194.236 190.655 195.849 189.296 198.067 188.139C202.092 186.034 207.49 184.878 213.273 184.878C219.057 184.878 224.449 186.034 228.474 188.139C230.692 189.296 232.305 190.636 233.224 192.071C233.796 191.216 234.106 190.238 234.122 189.239C234.122 186.77 232.118 184.368 228.474 182.466C224.449 180.365 219.047 179.209 213.273 179.209C207.5 179.209 202.092 180.365 198.067 182.466C194.424 184.368 192.419 186.77 192.419 189.239Z" fill="#FF725E"/>
<path opacity="0.1" d="M192.419 189.239C192.435 190.239 192.747 191.217 193.322 192.071C194.236 190.655 195.849 189.296 198.067 188.139C202.092 186.034 207.49 184.878 213.273 184.878C219.057 184.878 224.449 186.034 228.474 188.139C230.692 189.296 232.305 190.636 233.224 192.071C233.796 191.216 234.106 190.238 234.122 189.239C234.122 186.77 232.118 184.368 228.474 182.466C224.449 180.365 219.047 179.209 213.273 179.209C207.5 179.209 202.092 180.365 198.067 182.466C194.424 184.368 192.419 186.77 192.419 189.239Z" fill="black"/>
<path opacity="0.6" d="M198.068 185.024C202.092 182.923 207.49 181.767 213.268 181.767C219.047 181.767 224.449 182.923 228.474 185.024C231.476 186.591 233.365 188.503 233.934 190.509C233.365 192.515 231.476 194.426 228.474 195.998C224.449 198.098 219.047 199.255 213.268 199.255C207.49 199.255 202.092 198.098 198.068 195.998C195.061 194.426 193.176 192.515 192.607 190.509C193.176 188.517 195.061 186.605 198.068 185.024Z" fill="white"/>
<path opacity="0.1" d="M207.834 200.954V206.618C204.015 206.192 200.321 205.111 196.95 203.432C192.446 201.072 190.19 197.995 190.19 194.912V189.248C190.192 188.62 190.285 187.995 190.467 187.389C189.371 191.056 191.511 194.941 196.945 197.773C200.319 199.448 204.014 200.528 207.834 200.954Z" fill="black"/>
<path d="M197.64 201.374C197.61 200.866 197.449 200.372 197.17 199.931C196.891 199.49 196.501 199.114 196.032 198.834C195.869 198.728 195.678 198.662 195.479 198.643C195.279 198.624 195.078 198.653 194.894 198.726L187.127 202.733C186.963 202.839 186.833 202.982 186.75 203.148C186.667 203.313 186.633 203.496 186.652 203.677C186.681 204.184 186.841 204.678 187.121 205.118C187.4 205.558 187.79 205.933 188.259 206.212C188.422 206.32 188.614 206.387 188.815 206.406C189.015 206.425 189.218 206.396 189.402 206.32L197.17 202.313C197.332 202.207 197.461 202.065 197.543 201.9C197.626 201.735 197.659 201.554 197.64 201.374Z" fill="#37474F"/>
<path d="M197.154 202.323C197.32 202.218 197.453 202.076 197.538 201.91C197.623 201.744 197.658 201.561 197.64 201.379C197.629 201.001 197.535 200.628 197.363 200.284L187.346 205.476C187.584 205.782 187.89 206.04 188.244 206.236C188.406 206.344 188.598 206.411 188.799 206.43C189 206.449 189.203 206.419 189.387 206.344L197.154 202.337V202.323Z" fill="#263238"/>
<path d="M189.554 206.202C189.517 205.542 189.309 204.899 188.946 204.325C188.583 203.751 188.076 203.262 187.466 202.898C187.257 202.762 187.012 202.677 186.756 202.651C186.5 202.626 186.241 202.66 186.004 202.752L165.818 212.32L169.66 218.456L188.974 207.42C189.181 207.281 189.343 207.095 189.444 206.881C189.546 206.668 189.584 206.434 189.554 206.202Z" fill="#FF725E"/>
<path opacity="0.1" d="M169.65 218.47L188.964 207.434C189.181 207.299 189.354 207.113 189.464 206.896C189.575 206.679 189.618 206.44 189.59 206.202C189.562 205.489 189.32 204.796 188.891 204.196L167.692 215.302L169.65 218.47Z" fill="black"/>
<path d="M167.692 218.285C166.892 217.808 166.226 217.167 165.75 216.415C165.274 215.662 165.001 214.818 164.952 213.953C164.952 212.357 166.199 211.72 167.718 212.537C168.519 213.014 169.184 213.655 169.66 214.407C170.137 215.16 170.41 216.003 170.459 216.869C170.454 218.446 169.211 219.088 167.692 218.285Z" fill="#FF725E"/>
<g opacity="0.2">
<path d="M167.692 218.285C166.892 217.808 166.226 217.167 165.75 216.415C165.274 215.662 165.001 214.818 164.952 213.953C164.952 212.357 166.199 211.72 167.718 212.537C168.519 213.014 169.184 213.655 169.66 214.407C170.137 215.16 170.41 216.003 170.459 216.869C170.454 218.446 169.211 219.088 167.692 218.285Z" fill="black"/>
</g>
<path d="M28.7622 197.726L29.5974 198.16L30.6049 198.712L72.6363 220.712C72.3231 220.075 72.5684 218.824 73.2836 217.587C74.1188 216.171 75.3977 215.048 76.3268 215.005L34.5668 193.147L32.6302 192.104C33.8413 192.831 29.9837 198.424 28.7622 197.726Z" fill="#455A64"/>
<path d="M34.452 193.072L32.5833 192.128C32.0613 191.831 31.0173 192.694 30.1612 193.837C28.9815 195.352 28.0262 197.358 28.7309 197.749L30.109 198.462L30.631 198.712C29.9263 198.316 30.8816 196.31 32.0613 194.795C32.9069 193.704 33.8778 192.864 34.4155 193.067L34.452 193.072Z" fill="#EBEBEB"/>
<path d="M34.0031 192.836C32.7712 192.147 28.924 197.763 30.1559 198.457L32.0247 199.43C30.7928 198.736 34.6347 193.119 35.8718 193.808L34.0031 192.836Z" fill="#FF725E"/>
<path d="M37.6518 194.733L35.8091 193.789C34.6033 193.1 30.8293 198.509 31.8524 199.354L31.915 199.396L33.7786 200.34C32.5727 199.628 36.4251 194.034 37.6518 194.733Z" fill="#EBEBEB"/>
<path d="M32.6302 192.104C32.1082 191.797 31.0955 192.666 30.2081 193.813C29.044 195.3 28.1201 197.263 28.7517 197.697L20.9322 193.657C20.3058 193.27 20.1648 192.581 20.3266 191.821C20.7599 189.768 23.4169 187.158 25.1029 188.196L32.6302 192.104Z" fill="#F28F8F"/>
<path d="M81.2963 220.948C80.6543 221.736 80.7169 222.123 80.7169 222.123L72.6364 220.707C71.8325 219.598 72.3597 217.8 73.4716 216.516L73.8265 216.7L81.2963 220.948Z" fill="#F28F8F"/>
<path d="M82.9144 222.515L80.7167 222.124C80.7167 222.124 80.6176 221.741 81.2962 220.948L83.2171 222.043C83.2748 222.097 83.3071 222.169 83.3071 222.244C83.3071 222.319 83.2748 222.391 83.2171 222.444C83.1774 222.478 83.1288 222.503 83.0758 222.515C83.0229 222.528 82.9673 222.528 82.9144 222.515Z" fill="#37474F"/>
<path d="M76.3163 214.982L81.8599 220.67C81.6383 220.702 81.4357 220.802 81.2857 220.953L73.8159 216.705L73.4609 216.521C74.2283 215.624 75.2566 214.991 76.3163 214.982Z" fill="#FFA8A7"/>
<path d="M81.2961 220.948C81.3626 220.865 81.4486 220.797 81.5479 220.748C81.6473 220.699 81.7574 220.671 81.8703 220.665L83.2171 222.043L81.2961 220.948Z" fill="#455A64"/>
<path opacity="0.2" d="M73.4715 216.497L21.1149 190.107C20.7398 190.631 20.4727 191.211 20.3266 191.821C20.1596 192.585 20.3267 193.265 20.9374 193.657L28.7674 197.726L29.6026 198.16L30.6048 198.712L72.6363 220.712C71.6497 219.31 72.7302 217.28 73.4715 216.497Z" fill="black"/>
<path d="M39.8389 84.96C38.5025 87.792 37.5838 91.2282 37.1767 95.547C36.4145 103.661 39.4526 129.942 41.2744 141.694C43.9157 161.33 47.1521 161.363 51.8553 164.653C59.9515 170.316 83.2275 181.39 90.9114 184.122C104.844 189.083 116.234 181.437 124.727 177.642C132.505 174.076 140.014 170.049 147.204 165.587C149.318 164.171 150.419 162.755 150.398 161.287C150.398 160.702 150.398 158.29 150.398 157.667C150.398 155.779 148.551 153.74 144.656 151.455C137.458 147.231 111.452 133.519 101.372 128.469C101.369 128.451 101.36 128.433 101.346 128.42C101.332 128.406 101.314 128.397 101.294 128.393C93.537 124.145 88.8703 95.2071 83.499 79.8152C83.3893 79.4848 83.2745 79.1686 83.1544 78.8712C83.0344 78.5739 82.9665 78.3992 82.8725 78.1538C82.5332 77.3136 82.1887 76.549 81.8285 75.8457" fill="#FF725E"/>
<path d="M150.42 157.648C150.42 155.76 148.572 153.721 144.678 151.437C137.484 147.212 111.478 133.501 101.399 128.45C101.396 128.432 101.387 128.415 101.373 128.401C101.359 128.388 101.34 128.378 101.32 128.375C93.5633 124.127 88.8966 95.1884 83.5253 79.7965C83.2071 78.8351 82.8325 77.8898 82.403 76.9645C82.3716 76.8937 82.3351 76.8276 82.3038 76.7568C82.2098 76.5539 82.1054 76.3462 81.9958 76.1338C81.9488 76.0299 81.8966 75.9214 81.8444 75.8175C80.9727 74.1608 79.7564 72.3436 78.2583 71.1353C77.7329 70.6931 77.1427 70.3182 76.5044 70.0214C75.6326 69.5494 73.8004 68.6526 73.341 68.4119C68.0741 65.5799 61.168 68.983 52.555 73.2451C47.2045 75.8978 42.637 79.0555 39.8547 84.9319C38.5184 87.7639 37.5997 91.2 37.1925 95.5188C36.4304 103.633 39.4685 129.913 41.2902 141.666C43.9316 161.301 47.168 161.335 51.8712 164.624C59.9674 170.288 83.2434 181.361 90.9272 184.094C104.859 189.055 116.249 181.409 124.742 177.614C133.235 173.819 143.66 167.919 147.23 165.573C149.349 164.157 150.451 162.741 150.43 161.273C150.404 160.702 150.42 158.29 150.42 157.648Z" fill="#FF725E"/>
<path opacity="0.25" d="M150.42 157.648C150.42 155.76 148.572 153.721 144.678 151.437C137.484 147.212 111.478 133.501 101.399 128.45C101.396 128.432 101.387 128.415 101.373 128.401C101.359 128.388 101.34 128.378 101.32 128.375C93.5633 124.127 88.8966 95.1884 83.5253 79.7965C83.2071 78.8351 82.8325 77.8898 82.403 76.9645C82.3716 76.8937 82.3351 76.8276 82.3038 76.7568C82.2098 76.5539 82.1054 76.3462 81.9958 76.1338C81.9488 76.0299 81.8966 75.9214 81.8444 75.8175C80.9727 74.1608 79.7564 72.3436 78.2583 71.1353C77.7329 70.6931 77.1427 70.3182 76.5044 70.0214C75.6326 69.5494 73.8004 68.6526 73.341 68.4119C68.0741 65.5799 61.168 68.983 52.555 73.2451C47.2045 75.8978 42.637 79.0555 39.8547 84.9319C38.5184 87.7639 37.5997 91.2 37.1925 95.5188C36.4304 103.633 39.4685 129.913 41.2902 141.666C43.9316 161.301 47.168 161.335 51.8712 164.624C59.9674 170.288 83.2434 181.361 90.9272 184.094C104.859 189.055 116.249 181.409 124.742 177.614C133.235 173.819 143.66 167.919 147.23 165.573C149.349 164.157 150.451 162.741 150.43 161.273C150.404 160.702 150.42 158.29 150.42 157.648Z" fill="white"/>
<path d="M124.716 173.979C132.498 170.417 140.011 166.391 147.204 161.929C152.032 158.762 151.589 155.515 144.667 151.455C135.052 145.815 95.8547 125.703 95.8547 125.703C95.8547 125.703 46.3012 152.135 48.431 157.03C50.5608 161.924 81.2335 177.019 90.9009 180.455C104.838 185.411 116.228 177.769 124.716 173.979Z" fill="#FF725E"/>
<path opacity="0.6" d="M124.716 173.979C132.498 170.417 140.011 166.391 147.204 161.929C152.032 158.762 151.589 155.515 144.667 151.455C135.052 145.815 95.8547 125.703 95.8547 125.703C95.8547 125.703 46.3012 152.135 48.431 157.03C50.5608 161.924 81.2335 177.019 90.9009 180.455C104.838 185.411 116.228 177.769 124.716 173.979Z" fill="white"/>
<path d="M76.4885 70.0451C71.2685 67.5671 64.4825 70.9324 56.1305 75.086C50.7591 77.7481 46.1812 80.9058 43.3989 86.8058L39.8389 84.9603C42.6159 79.0839 47.1886 75.9262 52.5391 73.2736C61.1521 69.0256 68.0582 65.5894 73.3252 68.4403C73.7845 68.6763 75.6167 69.5967 76.4885 70.0451Z" fill="#FF725E"/>
<path opacity="0.5" d="M76.4885 70.0451C71.2685 67.5671 64.4825 70.9324 56.1305 75.086C50.7591 77.7481 46.1812 80.9058 43.3989 86.8058L39.8389 84.9603C42.6159 79.0839 47.1886 75.9262 52.5391 73.2736C61.1521 69.0256 68.0582 65.5894 73.3252 68.4403C73.7845 68.6763 75.6167 69.5967 76.4885 70.0451Z" fill="white"/>
<path d="M83.5198 79.8153C83.4102 79.4849 81.6145 73.8398 78.2476 71.1589C76.6852 69.8901 74.6579 69.1904 72.5578 69.1953C68.0008 69.1953 62.5354 71.9188 56.1201 75.0859C55.5876 75.3534 55.0656 75.6271 54.5541 75.9072C54.3505 76.011 54.1521 76.1196 53.959 76.2281C53.7659 76.3367 53.484 76.4925 53.2491 76.6293C53.0142 76.7662 52.9046 76.8276 52.7271 76.9361C51.5977 77.609 50.5199 78.3502 49.5011 79.1545C49.3341 79.282 49.1775 79.4141 49.0157 79.5557C48.3697 80.0968 47.758 80.6704 47.1834 81.2738L46.8755 81.5995C46.7554 81.7364 46.6249 81.8733 46.5153 82.0101C46.4057 82.147 46.2804 82.2886 46.1603 82.4349C46.0403 82.5813 45.9306 82.7134 45.821 82.8645C45.3569 83.4618 44.9283 84.0809 44.5369 84.7194C44.4847 84.7997 44.4325 84.8799 44.3855 84.9649C44.2811 85.1348 44.1819 85.3094 44.0827 85.4888C43.9418 85.7484 43.8061 86.008 43.6704 86.2676C42.2088 89.1798 41.1961 92.7812 40.768 97.3643C39.5205 110.694 44.5734 154.755 49.642 158.554C49.642 158.554 48.8643 154.245 59.038 148.439C65.9702 144.498 70.8352 141.185 78.232 137.904C96.2566 129.88 101.315 128.394 101.315 128.394C93.5527 124.136 88.886 95.2073 83.5198 79.8153Z" fill="#FF725E"/>
<path opacity="0.4" d="M83.5198 79.8153C83.4102 79.4849 81.6145 73.8398 78.2476 71.1589C76.6852 69.8901 74.6579 69.1904 72.5578 69.1953C68.0008 69.1953 62.5354 71.9188 56.1201 75.0859C55.5876 75.3534 55.0656 75.6271 54.5541 75.9072C54.3505 76.011 54.1521 76.1196 53.959 76.2281C53.7659 76.3367 53.484 76.4925 53.2491 76.6293C53.0142 76.7662 52.9046 76.8276 52.7271 76.9361C51.5977 77.609 50.5199 78.3502 49.5011 79.1545C49.3341 79.282 49.1775 79.4141 49.0157 79.5557C48.3697 80.0968 47.758 80.6704 47.1834 81.2738L46.8755 81.5995C46.7554 81.7364 46.6249 81.8733 46.5153 82.0101C46.4057 82.147 46.2804 82.2886 46.1603 82.4349C46.0403 82.5813 45.9306 82.7134 45.821 82.8645C45.3569 83.4618 44.9283 84.0809 44.5369 84.7194C44.4847 84.7997 44.4325 84.8799 44.3855 84.9649C44.2811 85.1348 44.1819 85.3094 44.0827 85.4888C43.9418 85.7484 43.8061 86.008 43.6704 86.2676C42.2088 89.1798 41.1961 92.7812 40.768 97.3643C39.5205 110.694 44.5734 154.755 49.642 158.554C49.642 158.554 48.8643 154.245 59.038 148.439C65.9702 144.498 70.8352 141.185 78.232 137.904C96.2566 129.88 101.315 128.394 101.315 128.394C93.5527 124.136 88.886 95.2073 83.5198 79.8153Z" fill="white"/>
<path d="M59.941 131.117C56.7673 139.953 56.8978 148.68 58.4638 153.461C60.0298 158.243 61.7106 164.836 75.909 171.289C92.091 178.647 111.055 185.732 111.055 185.732L167.233 156.364L114.641 132.896L59.941 131.117Z" fill="#FF725E"/>
<path opacity="0.15" d="M59.941 131.117C56.7673 139.953 56.8978 148.68 58.4638 153.461C60.0298 158.243 61.7106 164.836 75.909 171.289C92.091 178.647 111.055 185.732 111.055 185.732L167.233 156.364L114.641 132.896L59.941 131.117Z" fill="black"/>
<path opacity="0.35" d="M76.2117 161.745C75.7472 161.372 75.2982 160.999 74.865 160.621C78.6442 159.347 80.4556 154.783 79.4377 149.907C78.8583 147.108 78.1953 143.936 78.2893 140.868H77.6003C77.5063 144.002 78.1744 147.212 78.7643 150.039C79.8083 154.962 77.9082 159.182 74.3064 160.154C65.9962 152.762 66.3094 144.842 68.7993 134.142L68.1259 134.015C65.3959 145.744 65.6934 154.145 75.7524 162.231C82.3661 167.546 107.84 177.67 117.956 182.14L118.682 181.776C108.602 177.311 82.8464 167.088 76.2117 161.745Z" fill="black"/>
<path opacity="0.35" d="M116.009 141.383C114.589 147.604 110.585 150.865 110.585 150.865C119.235 155.467 138.82 165.384 143.832 168.598L149.422 165.672L115.555 148.973C117.408 144.493 116.009 141.383 116.009 141.383Z" fill="black"/>
<path d="M66.748 33.04C66.5026 25.7098 82.2305 17.5772 97.1232 26.432C112.016 35.2867 106.712 43.896 105.71 46.5108L106.232 84.1812L57.8896 82.9823C57.8896 82.9823 58.9336 51.3583 58.7562 46.1663C58.5787 40.9743 60.5101 34.9279 66.748 33.04Z" fill="#263238"/>
<path d="M116.009 118.888L125.562 114.951L129.534 112.685C127.571 105.365 122.226 93.9093 118.348 86.2865C115.216 80.1222 112.454 78.2106 101.978 76.1055L103.142 92.0402L116.009 118.888Z" fill="#455A64"/>
<path d="M56.8979 143.908C57.1276 135.119 60.3065 126.189 60.2387 124.268C59.9307 115.932 57.232 105.024 56.308 100.196C54.2983 89.6892 55.6555 81.3631 58.3177 79.2297C58.3177 79.2297 67.1239 76.3552 70.4803 75.5575C72.4952 75.0855 70.9188 75.5575 73.9986 75.0855C79.1405 74.329 84.3595 74.0915 89.5594 74.3775C90.8279 74.4672 96.8413 75.2791 96.8413 75.2791C98.6683 75.6236 101.993 76.1003 101.999 76.1051C102.004 76.1098 106.216 79.0787 110.251 85.2619C113.331 89.9819 113.446 98.9499 113.603 108.815C113.812 121.865 114.579 125.259 117.121 133.996C110.251 147.481 72.49 151.715 56.8979 143.908Z" fill="#37474F"/>
<path d="M58.2967 79.23C53.9745 80.3958 50.3936 82.1753 49.4227 89.8028C48.4518 97.4303 55.9686 115.097 57.2527 118.061C58.5368 121.026 61.7106 125.373 64.7121 126.218C67.7136 127.062 70.0678 105.506 70.0678 105.506C70.0678 105.506 67.3952 94.3104 66.299 90.9309C65.2028 87.5513 61.7837 81.151 58.2967 79.23Z" fill="#455A64"/>
<path d="M99.5086 35.9899C93.8292 32.1808 83.7912 32.4735 75.4392 38.3074C78.1901 42.8669 73.9984 46.1803 73.941 48.9793C75.3243 52.8875 73.0641 54.7424 71.6703 53.3595C69.5197 49.4041 64.9365 49.5835 63.0782 52.1936C61.3974 54.5536 61.8045 58.0228 65.2602 61.2277C68.6271 64.3571 71.9574 62.3699 71.9887 61.6997C71.9887 61.6997 72.9597 70.3279 73.0797 72.0554C73.1998 73.7829 72.9858 74.5192 70.4697 75.4207C80.8053 78.1111 88.6666 78.3047 92.0179 73.9245C90.4258 73.5611 90.4832 72.4755 90.2953 71.0406L89.8881 68.1708C93.7092 68.2086 95.6614 67.831 97.7599 66.6557C100.892 64.8999 103.246 60.2931 102.87 51.0797C102.578 44.2687 100.631 38.3735 99.5086 35.9899Z" fill="#FFBDA7"/>
<path d="M89.8725 68.1896C83.003 68.0102 76.3005 66.4148 74.5623 63.7056C74.5623 63.7056 74.7815 66.7783 77.6629 68.0668C81.7084 69.8699 90.1909 70.3608 90.1909 70.3608L89.8725 68.1896Z" fill="#B16668"/>
<path d="M94.3304 38.9727L98.3341 40.4264C98.2387 40.664 98.0914 40.8819 97.9011 41.067C97.7107 41.2522 97.4812 41.4009 97.2261 41.5044C96.971 41.6078 96.6955 41.6639 96.416 41.6693C96.1365 41.6746 95.8586 41.6292 95.5989 41.5356C95.067 41.3339 94.64 40.9568 94.4044 40.4808C94.1688 40.0049 94.1424 39.4656 94.3304 38.9727Z" fill="#263238"/>
<path d="M93.8189 37.4198C93.7771 37.3765 93.7206 37.3471 93.6582 37.3359C93.5959 37.3248 93.5312 37.3328 93.4744 37.3584C93.1479 37.5846 92.8877 37.8798 92.7166 38.218C92.5456 38.5561 92.4688 38.9271 92.493 39.2984C92.507 39.4328 92.5421 39.5647 92.5974 39.6901C92.6514 39.8445 92.755 39.9809 92.895 40.0819C92.9122 40.0958 92.9345 40.1035 92.9576 40.1035C92.9807 40.1035 93.003 40.0958 93.0202 40.0819C93.1507 39.9828 93.0985 39.7704 93.0985 39.6099C93.0985 39.4494 93.0985 39.3928 93.0985 39.2795C93.1004 39.078 93.1338 38.8778 93.1977 38.6848C93.3275 38.3082 93.5652 37.9695 93.8868 37.703C93.9598 37.6322 93.892 37.4859 93.8189 37.4198ZM87.5549 39.8742C87.4761 39.7613 87.3773 39.6609 87.2626 39.5768C87.1351 39.4634 86.9735 39.3862 86.798 39.355C86.7752 39.3509 86.7515 39.3537 86.7307 39.3631C86.7099 39.3725 86.6932 39.3879 86.6831 39.4069C86.6205 39.5532 86.7771 39.7184 86.8554 39.8459C86.9337 39.9733 86.9807 40.0347 87.0381 40.1291C87.1405 40.308 87.216 40.4985 87.2626 40.6955C87.3432 41.0856 87.3072 41.4881 87.1582 41.8613C87.1216 41.9699 87.2574 42.0737 87.3618 42.0973C87.4207 42.1168 87.485 42.1186 87.5452 42.1024C87.6054 42.0863 87.6582 42.053 87.6958 42.0076C87.9389 41.5507 87.9962 41.031 87.8576 40.5397C87.7955 40.3019 87.6858 40.0764 87.534 39.8742H87.5549Z" fill="#F0997A"/>
<path d="M81.51 42.7959L85.5451 41.2855C85.4507 41.0423 85.3022 40.8192 85.1087 40.6298C84.9153 40.4405 84.681 40.289 84.4203 40.1846C84.1597 40.0802 83.8781 40.0253 83.5931 40.023C83.308 40.0208 83.0255 40.0714 82.7628 40.1716C82.2221 40.3808 81.7908 40.7696 81.5577 41.2579C81.3246 41.7461 81.3076 42.2966 81.51 42.7959Z" fill="#263238"/>
<path d="M82.0216 48.0969C82.22 48.9653 83.3893 49.4893 84.6316 49.258C85.874 49.0267 86.7196 48.1393 86.5265 47.2709C86.3333 46.4024 85.7017 47.8609 84.4385 48.0921C83.1752 48.3234 81.818 47.2284 82.0216 48.0969Z" fill="#263238"/>
<path d="M95.103 46.9259C94.9934 47.8085 95.9226 48.6345 97.191 48.7714C98.4595 48.9083 99.5661 48.2994 99.6757 47.4215C99.7854 46.5436 98.6944 47.7519 97.4311 47.615C96.1679 47.4781 95.2126 46.0432 95.103 46.9259Z" fill="#263238"/>
<path d="M92.874 58.4475C92.783 58.376 92.6832 58.3142 92.5765 58.2634C92.4369 58.2224 92.2937 58.1924 92.1484 58.1737L91.4333 58.051C90.9113 57.9708 90.3893 57.8953 89.8934 57.8339C89.3975 57.7725 88.8181 57.7017 88.2752 57.6545C87.7383 57.5793 87.1942 57.5556 86.6518 57.5837C86.4273 57.5837 86.4639 57.8764 86.6518 57.9472C87.1878 58.1042 87.744 58.1978 88.3065 58.2257C88.8285 58.2917 89.3505 58.3531 89.8725 58.4239L91.3863 58.6174C91.8969 58.7422 92.4317 58.7632 92.9523 58.6788C93.0463 58.6457 92.9158 58.4806 92.874 58.4475Z" fill="#B16668"/>
<path d="M76.1648 44.3677L65.7717 50.4187C66.345 50.285 66.9418 50.2553 67.5278 50.3315C68.1138 50.4077 68.6772 50.5881 69.1856 50.8624L76.6554 46.5814L76.1648 44.3677Z" fill="#455A64"/>
<path d="M104.29 42.0317C101.57 41.909 97.906 42.0317 95.7188 42.8199C93.2706 43.7026 92.4302 44.5522 91.0573 44.6607C89.5801 44.7693 88.6039 44.0566 85.9156 43.5562C83.7702 43.1645 80.0118 43.5987 77.3339 44.0566C76.41 44.1321 75.58 44.4436 75.6322 45.5575C75.8045 46.5959 76.5666 46.7139 76.8172 47.5494C77.4488 50.4522 78.5398 54.0535 82.7784 53.9591C91.5323 53.8789 88.2072 46.3741 91.4384 46.5582C92.6077 46.7186 92.5763 48.7482 93.3854 50.1406C93.6903 50.6968 94.0941 51.2039 94.5808 51.6416C97.6136 54.181 102.907 52.3307 103.544 49.579C104.175 48.196 103.899 46.0484 104.588 44.859C105.214 44.2642 105.647 42.2488 104.29 42.0317ZM88.1602 49.0881C88.022 49.9097 87.6517 50.6852 87.0849 51.3395C86.6496 51.7984 86.1122 52.1693 85.5078 52.4279C84.9034 52.6865 84.2455 52.8271 83.5771 52.8405C81.6926 52.949 79.7508 52.2741 79.1453 50.6504C79.0722 50.4994 79.0043 50.353 78.9417 50.2114C78.4823 49.0078 77.7985 46.4354 78.4667 45.6425C79.6934 44.3067 85.9574 44.0141 87.9253 45.8077C88.4682 46.4118 88.3899 47.8373 88.1602 49.0881ZM103.001 47.5116C102.849 48.3706 102.515 50.235 100.777 51.1696C98.4749 52.4015 95.0767 51.4953 94.4294 49.4326C92.6912 45.128 94.5077 43.9952 99.3101 43.2636C103.288 42.9946 103.575 43.8961 103.001 47.488V47.5116Z" fill="#455A64"/>
<path d="M96.8726 52.9487L91.3968 55.7807L89.8308 47.9407C89.9197 47.5526 90.1236 47.1937 90.4207 46.9023L96.8726 52.9487Z" fill="#F0997A"/>
<path d="M72.9859 71.017C71.4199 71.3426 71.5243 71.7533 71.4199 73.4194C71.3155 75.0856 69.3997 75.1706 69.2536 75.8644C69.1074 76.5582 75.1574 81.9202 85.6705 80.136C96.1105 78.3707 95.0195 74.3965 95.0195 74.3965C94.6436 73.8395 93.8345 73.797 92.5556 73.4006C91.2767 73.0041 91.2506 72.7162 91.2298 71.8571C91.2089 70.9981 90.9792 70.7904 90.2693 71.0594V71.7344C90.2693 71.7344 90.2693 73.4147 83.5094 73.7734C76.1231 74.1652 73.0694 72.0742 73.0694 72.0742L72.9859 71.017Z" fill="#455A64"/>
<path d="M80.91 66.0425C81.5897 67.0778 81.8028 68.3099 81.505 69.4834C81.3119 70.182 80.6437 70.5737 80.294 71.2015C79.7407 72.188 79.4797 73.2925 78.728 74.1987C78.3082 74.7669 77.6671 75.1714 76.9323 75.3315C76.6972 74.8114 76.6337 74.2409 76.7496 73.6889C77.0945 71.7464 77.2395 69.7792 77.1829 67.8125C77.123 66.9239 76.9478 66.0446 76.6609 65.1929C76.5252 64.7776 76.1389 63.6448 76.7548 63.3757C76.9127 63.3198 77.0855 63.3082 77.2507 63.3427C78.8167 63.5268 79.7407 64.3103 80.5654 65.495C80.7012 65.6744 80.8212 65.8585 80.91 66.0425Z" fill="#FFBDA7"/>
<path d="M78.7593 74.1984C78.3415 74.7911 77.6872 75.2154 76.9323 75.3832C76.4625 74.5713 76.7288 73.632 76.8123 72.773C77.1203 70.2289 77.4074 67.6093 76.5095 65.136C75.7631 62.8893 77.1046 62.8563 78.9577 63.7578C80.8369 65.0133 82.1471 67.378 81.5259 69.4832C81.9801 67.7698 81.0509 66.0659 79.8764 64.7632C79.2872 64.1058 78.4614 63.6564 77.5431 63.4935C77.1203 63.418 76.6452 63.3424 76.5826 63.8428C76.5826 65.0983 77.3343 66.3255 77.3343 67.6188C77.4217 69.355 77.3115 71.0948 77.0054 72.8108C76.8958 73.6556 76.6191 74.5336 77.0054 75.3265L76.9532 75.3029C77.6851 75.1569 78.3296 74.7678 78.7593 74.2126V74.1984Z" fill="#B16668"/>
<path d="M74.7764 83.5443C75.9874 78.1163 75.669 75.5958 77.6265 72.9573C78.7645 71.4186 82.3245 67.9635 83.5094 66.9912C84.6944 66.0189 86.9964 64.702 88.8443 63.3804C90.6921 62.0588 91.2298 61.6907 93.4274 61.7662C96.4446 61.8747 98.8249 61.8936 99.895 62.4223C100.965 62.9509 100.772 63.6259 99.5714 64.3527C98.3708 65.0796 96.2253 64.9003 95.5363 64.9569C94.8473 65.0135 93.2969 65.3015 93.2969 65.3015L89.7839 68.36C89.7839 68.36 94.1843 69.9931 94.9778 70.602C95.7712 71.2109 96.0531 73.434 95.3901 74.5432C95.3901 74.5432 96.8309 75.8884 95.8286 77.2572C95.8286 77.2572 96.5751 78.6732 95.6407 79.5181C94.6198 80.3717 93.4936 81.116 92.2842 81.7365C91.6213 82.0669 89.3924 81.7601 89.3924 81.7601C89.0646 83.0364 88.6086 84.2829 88.0299 85.4842C86.7824 87.7545 85.4565 87.8961 84.8979 89.8927L74.7764 83.5443Z" fill="#FFBDA7"/>
<path d="M95.3171 74.6279C94.7614 73.9813 94.1158 73.4023 93.3962 72.9051C92.7228 72.4331 91.2769 71.6401 91.2769 71.6401C92.3463 71.9308 93.3629 72.3618 94.294 72.9193C94.7689 73.1983 95.216 73.5141 95.6303 73.8633C95.5816 74.0944 95.4935 74.3173 95.3693 74.5241L95.3171 74.6279Z" fill="#F0997A"/>
<path d="M95.1396 76.0487C95.4725 76.2541 95.7883 76.4812 96.0845 76.7283C96.0025 76.9509 95.8903 77.1633 95.7504 77.3608C95.3328 76.4782 93.25 75.1943 93.25 75.1943C93.9137 75.4133 94.5477 75.7 95.1396 76.0487Z" fill="#F0997A"/>
<path d="M89.3716 81.7598C89.9821 80.8159 90.8208 80.0091 91.825 79.3998C92.6497 78.8381 93.913 79.1827 94.1061 79.6311C94.2993 80.0795 92.8272 79.7491 92.3574 79.8388C91.8876 79.9285 90.3843 80.8158 89.3716 81.7598Z" fill="#F0997A"/>
<path d="M88.5364 68.0156C88.5364 68.0156 89.6221 67.1046 91.517 65.6886C93.4119 64.2726 93.2605 64.5039 94.7795 64.5181C96.1941 64.5181 99.1539 64.6172 100.088 63.9658C99.9231 64.097 99.7487 64.2184 99.5662 64.3293C98.397 65.0325 96.2202 64.8768 95.5312 64.9334C94.8421 64.9901 93.2918 65.278 93.2918 65.278L89.6378 68.4498L88.5364 68.0156Z" fill="#F0997A"/>
<path d="M74.7764 83.5441C75.1887 81.7553 75.4863 79.9428 75.7943 78.135C76.1022 76.3273 76.5251 74.5053 77.6787 72.9949C78.8948 71.5369 80.2092 70.1482 81.6146 68.8366C82.3141 68.1758 83.0083 67.5103 83.7548 66.9014C84.5012 66.2925 85.3469 65.7875 86.1716 65.2589C86.9964 64.7302 87.8264 64.2016 88.6302 63.6446C89.3808 63.043 90.2121 62.5292 91.1045 62.1153C92.0232 61.7755 93.0516 61.8605 94.059 61.8935C95.0665 61.9265 96.0792 61.9549 97.0867 62.0257C98.0941 62.0965 99.1329 62.1531 99.9629 62.5968C100.165 62.6935 100.327 62.8455 100.427 63.031C100.462 63.1222 100.47 63.2196 100.452 63.3144C100.433 63.4093 100.389 63.4984 100.323 63.5738C100.028 63.9217 99.6471 64.2029 99.2112 64.3951C98.2814 64.7114 97.291 64.8558 96.2984 64.8199C96.0426 64.8199 95.7764 64.8199 95.5311 64.8199L94.7742 64.9379L93.2708 65.1739H93.2343H93.2082L89.6847 68.2608L89.5646 68.3693L89.7212 68.4307C91.2872 69.0349 92.9107 69.6296 94.4192 70.3706C95.2388 70.6727 95.4632 71.494 95.5937 72.2586C95.7346 73.0151 95.6294 73.7924 95.291 74.4959L95.2597 74.5478L95.3066 74.595C95.6653 74.9492 95.9154 75.382 96.0322 75.8505C96.1355 76.3214 96.0285 76.8101 95.7347 77.2099L95.7086 77.2477V77.2854C95.8977 77.5963 95.9969 77.9454 95.9969 78.3002C95.9969 78.6551 95.8977 79.0041 95.7086 79.315C95.1567 79.8478 94.5404 80.3228 93.8711 80.731C93.5423 80.9434 93.203 81.1511 92.8637 81.3446C92.5581 81.5692 92.2017 81.7303 91.8197 81.8166C91.0147 81.8716 90.2053 81.8415 89.408 81.7269H89.3506V81.7741C89.0122 83.278 88.4429 84.7316 87.6593 86.0929C87.2073 86.7454 86.6826 87.3543 86.0933 87.9101C85.5122 88.4775 85.1008 89.1696 84.8979 89.9209C85.1107 89.1746 85.5291 88.4894 86.1142 87.929C86.7035 87.3767 87.2283 86.7709 87.6802 86.1213C88.4862 84.7611 89.0783 83.3059 89.4393 81.7977L89.3715 81.8402C90.1775 81.9693 90.9986 82.0042 91.8144 81.9441C92.2243 81.8685 92.6087 81.7068 92.9367 81.4721C93.2865 81.2785 93.6206 81.0756 93.9547 80.8632C94.6382 80.4569 95.2687 79.9819 95.8338 79.4472C96.0479 79.1173 96.1655 78.7436 96.1756 78.3612C96.1856 77.9789 96.0878 77.6005 95.8913 77.2618V77.3373C96.2096 76.9042 96.3259 76.375 96.2149 75.8647C96.0931 75.3635 95.8286 74.8998 95.4476 74.5195V74.6186C95.8108 73.8782 95.9269 73.0579 95.7817 72.2586C95.7302 71.8625 95.6178 71.4749 95.4476 71.1069C95.2604 70.7295 94.9285 70.4261 94.5132 70.2526C92.986 69.5234 91.4178 68.8664 89.8152 68.2844L89.8517 68.4543L93.3857 65.3769L93.3282 65.4052L94.8107 65.1786L95.5572 65.0653C95.7973 65.0653 96.0531 65.0653 96.3036 65.0653C97.3363 65.1066 98.3671 64.9539 99.3312 64.6169C99.8087 64.4059 100.224 64.0953 100.542 63.7107C100.632 63.6045 100.69 63.4797 100.712 63.3476C100.734 63.2156 100.719 63.0807 100.668 62.9555C100.546 62.7265 100.349 62.537 100.104 62.4127C99.1642 61.9407 98.1098 61.9077 97.1075 61.818C96.1053 61.7283 95.0822 61.7283 94.0695 61.6953C93.0568 61.6622 92.0128 61.582 91.0314 61.9454C90.1233 62.3707 89.2765 62.8954 88.5102 63.5077C87.7167 64.0694 86.892 64.5981 86.0672 65.1314C85.2425 65.6648 84.4125 66.184 83.6452 66.7929C82.8778 67.4017 82.1992 68.0814 81.5049 68.7469C80.0958 70.0653 78.7811 71.4637 77.5691 72.9336C76.405 74.477 76.0031 76.3367 75.7264 78.1256C75.4498 79.9145 75.1679 81.7269 74.7764 83.5441Z" fill="#B16668"/>
<path d="M74.7764 83.5439C73.7324 88.3489 60.5571 106.568 59.3983 111.047C58.2395 115.527 61.5437 124.06 64.0023 125.859C66.461 127.657 72.2552 125.642 75.2358 120.667C78.2164 115.692 83.1023 96.7599 84.8823 89.8923L74.7764 83.5439Z" fill="#FFBDA7"/>
<path d="M57.759 120.832C58.2393 121.564 59.2728 122.248 59.4138 123.013C59.7583 124.957 64.3206 125.944 66.0484 127.317C70.9291 130.102 83.0604 129.923 92.2632 128.474C107.25 126.114 124.105 120.808 127.984 116.872C130.322 114.512 129.795 112.737 128.991 111.6C127.519 109.504 125.77 108.73 124.779 108.168C120.603 105.808 115.2 106.28 113.545 106.719C107.075 110.285 100.223 113.252 93.0932 115.574C90.6022 116.281 88.0183 116.686 85.4094 116.777C83.7912 116.735 82.8307 116.73 81.8859 115.862C80.3725 114.477 78.6067 113.339 76.6659 112.496C75.0999 111.798 74.2229 111.18 72.2811 109.782C71.8791 109.485 71.1953 109.712 70.8247 110.047C70.6498 110.228 70.5262 110.446 70.4644 110.68C70.4026 110.914 70.4044 111.158 70.4697 111.392C70.856 113.78 73.0223 115.413 74.4839 117.306C74.9499 117.797 75.1908 118.43 75.1573 119.076C75.0745 119.389 74.9044 119.678 74.6632 119.916C74.422 120.153 74.1177 120.33 73.7792 120.431C71.8478 121.106 61.9507 121.261 57.3049 118.203C57.3049 118.222 57.1013 119.827 57.759 120.832Z" fill="#FFBDA7"/>
<path d="M81.8858 115.881C80.6222 114.666 79.1634 113.63 77.5584 112.808C76.7493 112.398 75.9298 112.053 75.1781 111.586C74.4264 111.118 73.7165 110.609 73.0014 110.089L72.4794 109.698C72.3722 109.61 72.2453 109.545 72.1075 109.505C71.9696 109.466 71.824 109.455 71.6807 109.471C71.4145 109.498 71.1591 109.582 70.9358 109.715C70.7125 109.849 70.5277 110.029 70.3966 110.241C70.1884 110.665 70.1442 111.14 70.2713 111.59C70.3508 112.015 70.4839 112.43 70.668 112.827C71.4145 114.427 72.756 115.659 73.8418 116.938C74.3638 117.58 74.9798 118.269 74.9223 118.982C74.8649 119.695 74.061 120.228 73.2311 120.36C71.4392 120.626 69.6206 120.715 67.8075 120.625C65.9832 120.568 64.1681 120.364 62.3839 120.016C60.5836 119.71 58.8626 119.101 57.3101 118.222C58.8276 119.174 60.5291 119.861 62.3265 120.247C64.1178 120.645 65.9453 120.897 67.7866 120.997C69.6387 121.131 71.5019 121.061 73.3355 120.79C73.8453 120.733 74.3221 120.532 74.6973 120.214C75.0725 119.897 75.3268 119.481 75.4235 119.024C75.4861 118.019 74.7814 117.306 74.2646 116.664C73.1319 115.343 71.8112 114.163 71.1326 112.676C70.9563 112.31 70.8284 111.927 70.7516 111.534C70.6425 111.175 70.6682 110.793 70.8246 110.448C70.9224 110.299 71.0563 110.171 71.2163 110.074C71.3762 109.978 71.5582 109.915 71.7486 109.891C71.8332 109.875 71.921 109.878 72.0039 109.901C72.0868 109.923 72.1623 109.964 72.2236 110.019L72.7717 110.396C73.5025 110.901 74.2333 111.411 75.0163 111.859C75.7993 112.308 76.6502 112.657 77.4593 113.035C79.0826 113.78 80.5745 114.739 81.8858 115.881Z" fill="#F0997A"/>
<path d="M38.6592 174.579V184.717L109.813 221.901V211.763L38.6592 174.579Z" fill="#37474F"/>
<path d="M109.813 211.763L233.95 146.953V157.091L109.813 221.902V211.763Z" fill="#455A64"/>
<path d="M109.813 207.925L35.804 169.259L162.316 103.208L236.32 141.878L109.813 207.925Z" fill="#FF725E"/>
<path opacity="0.8" d="M109.813 207.925L35.804 169.259L162.316 103.208L236.32 141.878L109.813 207.925Z" fill="white"/>
<path d="M35.804 169.259V174.635L109.813 213.302V207.926L35.804 169.259Z" fill="#FF725E"/>
<path opacity="0.5" d="M35.804 169.259V174.635L109.813 213.302V207.926L35.804 169.259Z" fill="white"/>
<path d="M109.813 213.301L236.325 147.255L236.32 141.878L109.813 207.925V213.301Z" fill="#FF725E"/>
<path opacity="0.65" d="M109.813 207.925L236.32 141.878L236.325 147.255L109.813 213.301V207.925Z" fill="white"/>
<path d="M32.364 165.257C30.6101 164.029 28.8197 162.849 27.0553 161.632C26.2619 161.078 25.4649 160.53 24.6645 159.989C24.2261 159.696 23.7876 159.399 23.3387 159.116C23.1294 158.949 22.8759 158.833 22.6026 158.781C22.4774 158.781 22.1798 158.814 22.112 158.932L22.0493 159.036C22.0029 159.108 21.9811 159.192 21.9867 159.276C21.9923 159.36 22.0249 159.44 22.0806 159.508C22.8358 160.193 23.6491 160.825 24.5132 161.396C25.2544 161.934 26.0061 162.453 26.7525 162.977C28.2924 164.048 29.8167 165.143 31.3879 166.177C31.4843 166.252 31.6012 166.303 31.7266 166.324C31.852 166.345 31.9813 166.335 32.101 166.296C32.2208 166.256 32.3268 166.189 32.4079 166.1C32.489 166.011 32.5424 165.904 32.5624 165.79C32.5841 165.693 32.5773 165.593 32.5424 165.499C32.5076 165.406 32.4461 165.322 32.364 165.257Z" fill="#E0E0E0"/>
<path d="M30.9964 167.876C28.8562 167.352 26.7003 166.876 24.5601 166.361C23.5944 166.13 22.6235 165.889 21.6526 165.672C21.1306 165.549 20.6086 165.431 20.0605 165.323C19.7978 165.238 19.5148 165.219 19.241 165.266C19.1209 165.304 18.8651 165.441 18.8495 165.578V165.696C18.8383 165.779 18.854 165.863 18.8947 165.939C18.9355 166.014 18.9996 166.077 19.0791 166.12C20.0663 166.489 21.0838 166.787 22.1224 167.012C23.0307 167.253 23.9442 167.484 24.8577 167.702C26.7369 168.174 28.6056 168.646 30.4953 169.056C30.6162 169.092 30.7455 169.098 30.8698 169.074C30.9942 169.049 31.1091 168.996 31.2028 168.918C31.2964 168.84 31.3653 168.741 31.4025 168.631C31.4396 168.52 31.4436 168.403 31.414 168.292C31.3923 168.195 31.3421 168.105 31.2685 168.032C31.195 167.959 31.101 167.905 30.9964 167.876Z" fill="#E0E0E0"/>
<path d="M29.8792 170.453C27.7912 171.072 25.6771 171.737 23.5734 172.341C22.6234 172.624 21.6681 172.908 20.7233 173.2C20.2013 173.361 19.6793 173.521 19.1573 173.701C18.8867 173.759 18.6381 173.881 18.437 174.055C18.3587 174.149 18.2282 174.39 18.296 174.527L18.3587 174.635C18.3993 174.711 18.4635 174.774 18.5433 174.816C18.6231 174.859 18.7149 174.88 18.8076 174.876C19.8555 174.695 20.8867 174.442 21.8926 174.121C22.8009 173.871 23.6987 173.606 24.6018 173.342C26.4497 172.799 28.308 172.28 30.1402 171.69C30.2634 171.66 30.3756 171.602 30.4652 171.52C30.5549 171.438 30.6187 171.336 30.6501 171.224C30.6815 171.113 30.6793 170.995 30.6438 170.885C30.6083 170.774 30.5408 170.674 30.4482 170.595C30.374 170.53 30.2831 170.483 30.1837 170.458C30.0843 170.434 29.9796 170.432 29.8792 170.453Z" fill="#E0E0E0"/>
<path d="M240.804 144.904C242.892 145.277 244.98 145.598 247.068 145.956C248.013 146.117 248.952 146.282 249.892 146.428C250.414 146.513 250.936 146.594 251.458 146.664C251.716 146.728 251.988 146.728 252.246 146.664C252.356 146.622 252.59 146.476 252.596 146.343V146.235C252.602 146.154 252.581 146.074 252.536 146.004C252.492 145.935 252.425 145.879 252.345 145.843C251.375 145.553 250.382 145.33 249.375 145.178C248.493 145.003 247.6 144.847 246.713 144.706C244.891 144.38 243.059 144.035 241.237 143.762C241.118 143.735 240.994 143.737 240.877 143.768C240.76 143.799 240.654 143.858 240.57 143.938C240.486 144.018 240.427 144.117 240.4 144.225C240.372 144.332 240.376 144.444 240.412 144.55C240.441 144.633 240.491 144.709 240.56 144.771C240.628 144.832 240.712 144.878 240.804 144.904Z" fill="#E0E0E0"/>
<path d="M240.741 142.119C242.829 141.742 244.886 141.312 246.963 140.925C247.903 140.75 248.837 140.576 249.772 140.392C250.294 140.292 250.816 140.189 251.301 140.071C251.566 140.043 251.817 139.95 252.027 139.802C252.115 139.726 252.272 139.509 252.22 139.386L252.173 139.282C252.143 139.206 252.09 139.14 252.02 139.09C251.949 139.041 251.865 139.011 251.776 139.004C250.758 139.072 249.748 139.211 248.754 139.419C247.861 139.566 246.974 139.731 246.086 139.891C244.265 140.222 242.432 140.533 240.626 140.911C240.505 140.926 240.391 140.971 240.296 141.039C240.2 141.108 240.127 141.199 240.083 141.302C240.039 141.405 240.027 141.517 240.047 141.626C240.068 141.734 240.12 141.836 240.198 141.921C240.262 141.994 240.345 142.05 240.44 142.085C240.536 142.12 240.639 142.132 240.741 142.119Z" fill="#E0E0E0"/>
<path d="M240.475 139.485C241.989 138.14 243.461 136.762 244.969 135.412C245.648 134.798 246.326 134.19 246.995 133.576C247.365 133.236 247.731 132.901 248.086 132.552C248.288 132.395 248.441 132.193 248.529 131.966C248.555 131.858 248.555 131.603 248.435 131.523L248.336 131.457C248.264 131.403 248.175 131.37 248.081 131.364C247.987 131.358 247.894 131.379 247.814 131.424C247.003 131.984 246.241 132.599 245.533 133.264C244.875 133.826 244.233 134.402 243.586 134.978C242.26 136.153 240.919 137.338 239.629 138.532C239.537 138.605 239.469 138.699 239.431 138.804C239.393 138.909 239.386 139.021 239.412 139.129C239.438 139.237 239.496 139.336 239.579 139.417C239.662 139.498 239.768 139.558 239.885 139.589C239.985 139.622 240.092 139.629 240.196 139.611C240.3 139.593 240.396 139.549 240.475 139.485Z" fill="#E0E0E0"/>
<path d="M146.228 138.018L186.73 159.163L215.659 144.059L175.157 122.914L146.228 138.018Z" fill="#FAFAFA"/>
<path opacity="0.3" d="M216.896 141.312L213.649 143.007L175.157 122.914L149.48 136.318L147.465 135.271L176.399 120.167L216.896 141.312Z" fill="#FF725E"/>
<path d="M213.649 143.007L187.967 156.416L149.48 136.318L175.157 122.914L213.649 143.007Z" fill="#E0E0E0"/>
<path d="M148.05 133.656L188.552 154.802L217.481 139.698L176.979 118.552L148.05 133.656Z" fill="#FAFAFA"/>
<path opacity="0.1" d="M101.894 193.449L169.953 157.917L125.713 134.817L57.6548 170.354L101.894 193.449Z" fill="black"/>
<path d="M101.837 190.598L165.944 157.129L124.988 135.747L60.8809 169.217L101.837 190.598Z" fill="#FF725E"/>
<path opacity="0.15" d="M101.837 190.598L165.944 157.129L124.988 135.747L60.8809 169.217L101.837 190.598Z" fill="black"/>
<path d="M133.042 173.418V172.384C133.042 171.11 135.558 167.466 138.7 165.823L164.169 152.532V157.176L133.042 173.418Z" fill="#F5F5F5"/>
<path d="M164.158 152.531L138.69 165.823C135.558 167.461 133.016 171.109 133.032 172.384V173.417L93.8555 152.966V151.927C93.8555 150.653 96.3663 147.009 99.5139 145.366L124.967 132.08L164.158 152.531Z" fill="#FAFAFA"/>
<path d="M164.158 152.532L138.69 165.823C135.558 167.461 133.016 171.109 133.032 172.384V173.418L93.8555 152.966V151.927C93.8555 150.653 96.3663 147.009 99.5139 145.367L124.982 132.07L164.158 152.532Z" fill="#FAFAFA"/>
<path d="M133.032 172.46L130.594 171.18L127.368 169.5C129.169 169.311 130.443 169.557 131.325 170.015C131.813 170.26 132.226 170.612 132.524 171.04C132.822 171.467 132.997 171.955 133.032 172.46Z" fill="#F0F0F0"/>
<path d="M133.032 172.46L130.594 171.18L127.368 169.5C129.169 169.311 130.443 169.557 131.325 170.015C131.813 170.26 132.226 170.612 132.524 171.04C132.822 171.467 132.997 171.955 133.032 172.46Z" fill="#E0E0E0"/>
<path d="M101.847 191.561L101.837 190.598L60.8809 169.217V170.175L101.847 191.561Z" fill="#FF725E"/>
<path opacity="0.3" d="M101.847 191.561L101.837 190.598L60.8809 169.217V170.175L101.847 191.561Z" fill="black"/>
<path d="M101.847 191.561L165.954 158.097L165.944 157.129L101.837 190.598L101.847 191.561Z" fill="#FF725E"/>
<path d="M133.031 172.46C133.031 171.18 130.421 170.1 127.289 171.752L101.832 184.939V189.711L133.042 173.418C133.042 173.418 133.042 173.734 133.031 172.46Z" fill="#F5F5F5"/>
<path d="M101.832 189.711V184.939L62.6555 164.487V169.259L101.832 189.711Z" fill="#EBEBEB"/>
<path d="M127.295 171.751L126.152 172.341L101.832 184.939L67.2283 166.875L62.6399 164.487L88.1031 151.299C90.4103 150.101 91.6996 150.195 92.6079 150.662L132.322 171.392C130.902 170.661 129.231 170.817 127.295 171.751Z" fill="#FAFAFA"/>
<path d="M100.052 181.342L121.73 170.033L122.873 169.443L123.709 169.878L122.565 170.468L100.887 181.781L100.052 181.342Z" fill="#E0E0E0"/>
<path d="M98.0522 180.3L119.731 168.99L120.869 168.4L121.704 168.835L120.566 169.425L98.8822 180.734L98.0522 180.3Z" fill="#E0E0E0"/>
<path d="M96.0479 179.256L117.727 167.943L118.87 167.353L119.705 167.791L118.562 168.381L96.8831 179.691L96.0479 179.256Z" fill="#E0E0E0"/>
<path d="M94.0435 178.208L115.727 166.899L116.865 166.309L117.7 166.743L116.563 167.333L94.8787 178.647L94.0435 178.208Z" fill="#E0E0E0"/>
<path d="M92.0442 177.165L113.723 165.851L114.866 165.261L115.701 165.7L114.558 166.29L92.8794 177.599L92.0442 177.165Z" fill="#E0E0E0"/>
<path d="M90.0396 176.117L111.723 164.808L112.861 164.218L113.697 164.652L112.559 165.242L90.8747 176.556L90.0396 176.117Z" fill="#E0E0E0"/>
<path d="M88.0405 175.074L109.719 163.76L110.862 163.17L111.692 163.609L110.554 164.199L88.8757 175.508L88.0405 175.074Z" fill="#E0E0E0"/>
<path d="M86.0359 174.027L107.72 162.717L108.858 162.127L109.693 162.562L108.55 163.152L86.8711 174.466L86.0359 174.027Z" fill="#E0E0E0"/>
<path d="M84.0366 172.983L105.715 161.674L106.858 161.084L107.694 161.518L106.55 162.108L84.8718 173.417L84.0366 172.983Z" fill="#E0E0E0"/>
<path d="M82.0322 171.94L103.716 160.626L104.854 160.036L105.689 160.475L104.546 161.06L82.8674 172.374L82.0322 171.94Z" fill="#E0E0E0"/>
<path d="M80.033 170.892L101.712 159.583L102.855 158.993L103.685 159.427L102.547 160.017L80.8682 171.327L80.033 170.892Z" fill="#E0E0E0"/>
<path d="M78.0286 169.849L99.7072 158.535L100.85 157.945L101.686 158.384L100.542 158.974L78.8638 170.283L78.0286 169.849Z" fill="#E0E0E0"/>
<path d="M76.0293 168.801L97.708 157.492L98.8511 156.902L99.6811 157.337L98.5432 157.927L76.8593 169.24L76.0293 168.801Z" fill="#E0E0E0"/>
<path d="M74.0247 167.758L95.7033 156.444L96.8465 155.854L97.6817 156.293L96.5385 156.883L74.8599 168.193L74.0247 167.758Z" fill="#E0E0E0"/>
<path d="M72.0254 166.71L93.704 155.401L94.842 154.811L95.6772 155.245L94.5393 155.835L72.8554 167.149L72.0254 166.71Z" fill="#E0E0E0"/>
<path d="M70.021 165.667L91.6997 154.353L92.8428 153.768L93.678 154.202L92.5349 154.792L70.8562 166.101L70.021 165.667Z" fill="#E0E0E0"/>
<path d="M68.0217 164.619L89.7004 153.31L90.8384 152.72L91.6735 153.159L90.5356 153.744L68.8517 165.058L68.0217 164.619Z" fill="#E0E0E0"/>
<path opacity="0.1" d="M127.535 170.515C127.065 170.557 126.068 170.845 125.52 170.959C123.202 171.431 119.12 173.116 115.21 174.886C109.99 177.246 105.063 179.776 105.063 179.776L69.217 161.089L88.1187 151.3C88.8419 150.9 89.6289 150.604 90.452 150.422C91.0247 150.507 91.5773 150.679 92.0859 150.932L92.3364 150.535C92.4351 150.572 92.531 150.614 92.6235 150.663L132.337 171.393C130.108 170.232 129.07 170.392 127.535 170.515Z" fill="black"/>
<path d="M101.805 185.978L105.694 184.198L101.832 186.322L97.9531 184.297L101.805 185.978Z" fill="#E6E6E6"/>
<path d="M101.837 188.366L108.962 184.647L101.837 188.116L93.8242 184.184L101.837 188.366Z" fill="#E6E6E6"/>
<path d="M62.6555 165.54L68.6481 168.806L62.6555 166.04V165.54Z" fill="#E6E6E6"/>
<path d="M62.666 167.404L71.5608 172.323L62.6555 167.848L62.666 167.404Z" fill="#E6E6E6"/>
<path d="M127.368 169.5C126.854 169.552 126.343 169.631 125.839 169.736C123.526 170.208 119.444 171.893 115.529 173.663C110.309 176.023 105.381 178.553 105.381 178.553L66.1948 158.12C66.1948 158.12 81.1084 150.355 86.96 149.331C89.7057 148.859 91.3918 149.185 92.4149 149.714L131.33 170.01C130.453 169.556 129.179 169.311 127.368 169.5Z" fill="#F5F5F5"/>
<path d="M126.888 167.692C126.005 167.22 124.726 166.989 122.931 167.173C122.416 167.227 121.906 167.307 121.401 167.414C119.198 167.975 117.056 168.718 115.002 169.632C113.728 170.166 112.392 170.746 111.092 171.341C107.96 172.757 104.911 174.244 102.996 175.197L103.883 175.669C105.804 174.725 108.837 173.234 111.984 171.808C113.289 171.218 114.594 170.633 115.889 170.104C117.943 169.19 120.085 168.446 122.289 167.881C122.793 167.776 123.304 167.697 123.818 167.645C125.619 167.456 126.893 167.702 127.775 168.164L126.888 167.692Z" fill="#E0E0E0"/>
<path d="M124.878 166.644C124.001 166.172 122.722 165.941 120.921 166.13C120.409 166.182 119.9 166.261 119.397 166.366C117.193 166.927 115.05 167.671 112.997 168.589C111.724 169.118 110.387 169.698 109.088 170.293C105.956 171.709 102.907 173.196 100.986 174.154L101.879 174.626C103.8 173.682 106.832 172.19 109.975 170.77C111.285 170.175 112.585 169.594 113.885 169.061C115.939 168.146 118.081 167.402 120.284 166.838C120.789 166.733 121.3 166.654 121.814 166.602C123.615 166.418 124.888 166.658 125.771 167.121L124.878 166.644Z" fill="#E0E0E0"/>
<path d="M122.873 165.601C121.991 165.129 120.718 164.893 118.917 165.082C118.402 165.134 117.892 165.213 117.387 165.318C115.184 165.885 113.043 166.636 110.993 167.56C109.714 168.088 108.383 168.674 107.083 169.264C103.951 170.68 100.902 172.171 98.9814 173.125L99.8741 173.597C101.79 172.653 104.828 171.161 107.97 169.74C109.281 169.146 110.58 168.565 111.88 168.032C113.935 167.117 116.077 166.373 118.28 165.809C118.785 165.706 119.295 165.627 119.809 165.573C121.61 165.389 122.884 165.634 123.766 166.092L122.873 165.601Z" fill="#E0E0E0"/>
<path d="M120.869 164.553C119.987 164.081 118.713 163.845 116.912 164.034C116.398 164.086 115.887 164.165 115.383 164.27C113.18 164.834 111.038 165.578 108.983 166.493C107.709 167.026 106.373 167.607 105.073 168.197C101.941 169.613 98.898 171.104 96.9771 172.058L97.8697 172.53C99.7854 171.586 102.818 170.099 105.966 168.674C107.276 168.079 108.602 167.498 109.876 166.965C111.93 166.051 114.072 165.308 116.275 164.747C116.779 164.639 117.29 164.56 117.805 164.511C119.601 164.322 120.879 164.567 121.762 165.025L120.869 164.553Z" fill="#E0E0E0"/>
<path d="M118.865 163.505C117.982 163.033 116.709 162.802 114.908 162.986C114.394 163.041 113.883 163.119 113.378 163.222C111.175 163.786 109.033 164.531 106.979 165.445C105.705 165.979 104.369 166.559 103.069 167.154C99.9369 168.57 96.8884 170.057 94.9727 171.01L95.8601 171.482C97.781 170.538 100.814 169.047 103.961 167.621C105.266 167.026 106.598 166.446 107.871 165.917C109.924 165 112.067 164.256 114.271 163.694C114.774 163.589 115.283 163.51 115.795 163.458C117.596 163.269 118.875 163.515 119.752 163.973L118.865 163.505Z" fill="#E0E0E0"/>
<path d="M116.86 162.457C115.978 161.985 114.699 161.754 112.903 161.938C112.389 161.992 111.878 162.072 111.374 162.179C109.17 162.741 107.028 163.483 104.974 164.397C103.7 164.931 102.364 165.511 101.064 166.106C97.9322 167.522 94.8838 169.009 92.968 169.962L93.8554 170.434C95.7764 169.49 98.8092 167.999 101.957 166.573C103.262 165.983 104.567 165.398 105.867 164.869C107.918 163.952 110.059 163.208 112.261 162.646C112.766 162.541 113.276 162.463 113.791 162.41C115.591 162.221 116.865 162.467 117.747 162.929L116.86 162.457Z" fill="#E0E0E0"/>
<path d="M114.84 161.424C113.963 160.952 112.684 160.721 110.883 160.91C110.371 160.962 109.862 161.041 109.359 161.146C107.154 161.706 105.012 162.45 102.959 163.369C101.686 163.897 100.349 164.478 99.0494 165.073C95.9174 166.489 92.869 167.975 90.948 168.929L91.8406 169.401C93.7616 168.457 96.7944 166.965 99.9368 165.54C101.247 164.95 102.573 164.369 103.847 163.836C105.901 162.921 108.043 162.177 110.246 161.613C110.751 161.508 111.261 161.429 111.776 161.377C113.577 161.193 114.85 161.434 115.733 161.896L114.84 161.424Z" fill="#E0E0E0"/>
<path d="M112.846 160.367C111.964 159.895 110.69 159.659 108.889 159.847C108.375 159.9 107.864 159.979 107.36 160.083C105.157 160.645 103.016 161.389 100.965 162.307C99.6862 162.835 98.3551 163.42 97.0553 164.01C93.9233 165.426 90.8748 166.918 88.9539 167.871L89.8465 168.343C91.7622 167.399 94.8003 165.908 97.9427 164.487C99.2529 163.892 100.579 163.312 101.852 162.779C103.907 161.864 106.049 161.12 108.252 160.555C108.757 160.453 109.268 160.374 109.782 160.319C111.583 160.135 112.856 160.381 113.738 160.839L112.846 160.367Z" fill="#E0E0E0"/>
<path d="M107.777 159.262C107.263 159.316 106.752 159.396 106.248 159.503C103.93 159.975 99.8481 161.655 95.9383 163.43C92.8063 164.846 89.7578 166.333 87.8421 167.286L86.9495 166.814C88.8704 165.87 91.9032 164.379 95.0457 162.953C98.9555 161.183 103.043 159.498 105.355 159.026C105.86 158.921 106.37 158.842 106.885 158.79C108.686 158.601 109.959 158.847 110.841 159.309L111.729 159.781C110.852 159.323 109.573 159.064 107.777 159.262Z" fill="#E0E0E0"/>
<path d="M105.767 158.219C105.255 158.271 104.746 158.35 104.243 158.455C101.925 158.927 97.8434 160.612 93.9337 162.382C90.8017 163.798 87.7532 165.285 85.8322 166.238L84.9448 165.766C86.8606 164.822 89.8986 163.331 93.041 161.905C96.9508 160.135 101.038 158.45 103.351 157.978C103.855 157.873 104.366 157.794 104.88 157.742C106.681 157.558 107.955 157.804 108.837 158.261L109.724 158.733C108.847 158.276 107.568 158.03 105.767 158.219Z" fill="#E0E0E0"/>
<path d="M103.763 157.176C103.249 157.228 102.738 157.307 102.234 157.412C99.9211 157.884 95.8391 159.569 91.9293 161.339C88.7973 162.755 85.7488 164.247 83.8278 165.2L82.9404 164.728C84.8562 163.784 87.889 162.293 91.0366 160.872C94.9464 159.097 99.0285 157.412 101.346 156.94C101.851 156.837 102.362 156.758 102.876 156.704C104.671 156.52 105.95 156.765 106.832 157.223L107.72 157.695C106.838 157.228 105.564 156.983 103.763 157.176Z" fill="#E0E0E0"/>
<path d="M101.758 156.123C101.244 156.176 100.733 156.254 100.229 156.359C97.9165 156.831 93.8293 158.516 89.9195 160.286C86.7875 161.702 83.7442 163.194 81.8233 164.147L80.9307 163.675C82.8516 162.731 85.8844 161.245 89.0321 159.819C92.9419 158.049 97.0239 156.359 99.3416 155.892C99.8442 155.786 100.353 155.705 100.866 155.651C102.667 155.467 103.946 155.713 104.823 156.171L105.715 156.643C104.833 156.18 103.559 155.935 101.758 156.123Z" fill="#E0E0E0"/>
<path d="M99.7541 155.076C99.2397 155.128 98.7291 155.207 98.2246 155.312C95.9069 155.784 91.8249 157.469 87.9151 159.243C84.7831 160.659 81.7346 162.146 79.8189 163.1L78.9263 162.628C80.8472 161.684 83.8801 160.192 87.0277 158.767C90.9375 156.997 95.0195 155.312 97.332 154.84C97.8364 154.735 98.3471 154.656 98.8615 154.604C100.662 154.415 101.936 154.66 102.818 155.118L103.711 155.59C102.834 155.137 101.555 154.892 99.7541 155.076Z" fill="#E0E0E0"/>
<path d="M97.7497 154.028C97.2356 154.082 96.7251 154.161 96.2202 154.264C93.9025 154.736 89.8205 156.421 85.9107 158.195C82.7787 159.611 79.7302 161.098 77.8145 162.052L76.9219 161.58C78.8428 160.636 81.8757 159.144 85.0181 157.719C88.9279 155.949 93.0151 154.264 95.3276 153.792C95.832 153.687 96.3427 153.608 96.8571 153.556C98.658 153.367 99.9316 153.612 100.814 154.075L101.701 154.547C100.824 154.089 99.5454 153.844 97.7497 154.028Z" fill="#E0E0E0"/>
<path d="M95.7398 152.98C95.2271 153.034 94.7182 153.114 94.2156 153.221C91.8979 153.693 87.8159 155.378 83.9061 157.148C80.7741 158.564 77.7256 160.05 75.8046 161.004L74.9172 160.532C76.833 159.588 79.871 158.096 83.0135 156.671C86.9232 154.901 91.0053 153.216 93.323 152.744C93.8274 152.639 94.3381 152.56 94.8524 152.508C96.6533 152.319 97.927 152.564 98.8092 153.027L99.6966 153.499C98.8196 153.041 97.5407 152.796 95.7398 152.98Z" fill="#E0E0E0"/>
<path d="M93.7354 151.937C93.2211 151.989 92.7104 152.068 92.206 152.173C89.8935 152.645 85.8115 154.33 81.9017 156.1C78.7697 157.516 75.7212 159.003 73.8002 159.961L72.9128 159.489C74.8286 158.545 77.8614 157.053 81.0091 155.633C84.9188 153.858 89.0009 152.173 91.3186 151.701C91.8229 151.596 92.3336 151.517 92.848 151.465C94.6437 151.281 95.9226 151.526 96.8048 151.984L97.6922 152.456C96.81 151.984 95.5259 151.748 93.7354 151.937Z" fill="#E0E0E0"/>
<path d="M91.7309 150.889C91.2165 150.941 90.7059 151.02 90.2014 151.125C87.889 151.597 83.8017 153.282 79.8919 155.052C76.7599 156.468 73.7167 157.96 71.7957 158.913L70.9031 158.441C72.824 157.497 75.8569 156.005 79.0045 154.585C82.9143 152.81 86.9963 151.125 89.314 150.653C89.8172 150.55 90.326 150.472 90.8383 150.417C92.6392 150.233 93.9181 150.478 94.795 150.936L95.6876 151.408C94.8055 150.946 93.5318 150.7 91.7309 150.889Z" fill="#E0E0E0"/>
<path d="M135.026 163.912C133.828 164.567 132.757 165.396 131.857 166.366L131.038 165.937C131.941 164.969 133.013 164.142 134.211 163.487L157.038 151.597L157.853 152.022L135.026 163.912Z" fill="#E0E0E0"/>
<path d="M135.026 163.912C133.828 164.567 132.757 165.396 131.857 166.366L131.038 165.937C131.941 164.969 133.013 164.142 134.211 163.487L157.038 151.597L157.853 152.022L135.026 163.912Z" fill="#E0E0E0"/>
<path d="M133.021 162.863C131.824 163.52 130.754 164.349 129.853 165.318L129.038 164.893C129.938 163.923 131.009 163.094 132.207 162.439L155.034 150.568L155.848 150.993L133.021 162.863Z" fill="#E0E0E0"/>
<path d="M131.022 161.82C129.822 162.474 128.75 163.302 127.848 164.27L127.034 163.845C127.935 162.877 129.005 162.048 130.202 161.391L153.029 149.506L153.844 149.931L131.022 161.82Z" fill="#E0E0E0"/>
<path d="M129.017 160.772C127.817 161.426 126.744 162.256 125.844 163.227L125.029 162.802C125.93 161.831 127.002 161.002 128.203 160.348L151.025 148.458L151.839 148.883L129.017 160.772Z" fill="#E0E0E0"/>
<path d="M127.013 159.73C125.815 160.383 124.745 161.211 123.844 162.179L123.025 161.754C123.928 160.786 125 159.957 126.199 159.3L149.026 147.415L149.84 147.84L127.013 159.73Z" fill="#E0E0E0"/>
<path d="M125.008 158.682C123.81 159.337 122.74 160.166 121.84 161.136L121.026 160.711C121.926 159.741 122.996 158.912 124.194 158.257L147.021 146.367L147.836 146.792L125.008 158.682Z" fill="#E0E0E0"/>
<path d="M123.009 157.648C121.81 158.303 120.737 159.133 119.835 160.102L119.021 159.678C119.922 158.709 120.993 157.88 122.19 157.223L145.017 145.333L145.831 145.763L123.009 157.648Z" fill="#E0E0E0"/>
<path d="M121.005 156.591C119.804 157.245 118.732 158.074 117.831 159.045L117.017 158.62C117.917 157.649 118.99 156.82 120.19 156.166L143.028 144.276L143.842 144.701L121.005 156.591Z" fill="#E0E0E0"/>
<path d="M119.016 155.543C117.818 156.199 116.748 157.028 115.847 157.997L115.028 157.573C115.93 156.603 117.002 155.774 118.202 155.118L141.023 143.229L141.843 143.653L119.016 155.543Z" fill="#E0E0E0"/>
<path d="M116.996 154.5C115.798 155.155 114.727 155.984 113.827 156.954L113.013 156.524C113.913 155.556 114.984 154.728 116.181 154.075L139.009 142.185L139.823 142.61L116.996 154.5Z" fill="#E0E0E0"/>
<path d="M114.996 153.452C113.797 154.107 112.725 154.936 111.823 155.906L111.008 155.481C111.908 154.512 112.979 153.682 114.177 153.027L137.004 141.128L137.818 141.553L114.996 153.452Z" fill="#E0E0E0"/>
<path d="M112.992 152.409C111.792 153.061 110.719 153.889 109.818 154.858L109.004 154.434C109.906 153.464 110.978 152.635 112.178 151.979L135 140.094L135.814 140.519L112.992 152.409Z" fill="#E0E0E0"/>
<path d="M110.987 151.361C109.788 152.015 108.718 152.845 107.819 153.816L107.01 153.4C107.91 152.429 108.983 151.6 110.184 150.946L133.005 139.056L133.825 139.481L110.987 151.361Z" fill="#E0E0E0"/>
<path d="M108.983 150.313C107.786 150.97 106.716 151.799 105.815 152.768L105 152.343C105.902 151.374 106.972 150.545 108.169 149.888L131.022 138.003L131.836 138.428L108.983 150.313Z" fill="#E0E0E0"/>
<path d="M107.01 149.27C105.809 149.924 104.737 150.753 103.836 151.724L103.022 151.3C103.922 150.33 104.992 149.501 106.19 148.845L129.017 136.956L129.832 137.38L107.01 149.27Z" fill="#E0E0E0"/>
<path d="M104.979 148.208C103.78 148.863 102.708 149.693 101.806 150.662L100.991 150.238C101.893 149.268 102.966 148.439 104.165 147.783L126.987 135.894L127.801 136.323L104.979 148.208Z" fill="#E0E0E0"/>
<path d="M102.975 147.179C101.775 147.834 100.703 148.664 99.8011 149.634L98.9868 149.204C99.8891 148.236 100.961 147.408 102.161 146.754L124.982 134.865L125.802 135.29L102.975 147.179Z" fill="#E0E0E0"/>
<path d="M158.813 156.591L164.153 154.042L164.159 153.646L158.813 156.591Z" fill="#E6E6E6"/>
<path d="M164.158 155.463L155.253 159.961L164.158 155.17V155.463Z" fill="#E6E6E6"/>
<path opacity="0.02" d="M72.3074 155.08C77.115 152.782 83.5617 149.922 86.9599 149.327C89.7056 148.855 91.3917 149.18 92.4148 149.709L131.33 170.005C130.448 169.533 129.174 169.302 127.373 169.491C127.373 169.491 108.111 158.866 95.6721 155.236C88.0736 153.089 79.9401 153.034 72.3074 155.08Z" fill="black"/>
<path d="M178.472 94.4988C176.688 94.4931 174.927 94.1417 173.306 93.4683C171.685 92.795 170.243 91.8153 169.076 90.5954C166.964 91.6417 164.594 92.1888 162.186 92.186C155.4 92.186 149.323 87.7398 147.355 81.33C141.958 79.9848 138.205 75.2459 138.205 69.7519C138.205 63.3185 143.461 58.0038 149.96 57.8055C152.184 50.9615 158.542 46.3831 165.85 46.3831C169.514 46.391 173.058 47.5602 175.867 49.6871C177.071 48.2727 178.63 47.1379 180.416 46.3766C182.201 45.6154 184.161 45.2496 186.134 45.3096C188.107 45.3695 190.036 45.8535 191.76 46.7215C193.485 47.5894 194.957 48.8164 196.053 50.3007C197.61 49.7925 199.252 49.5322 200.907 49.5314C207.396 49.5314 213.227 53.5528 215.461 59.5472C220.931 60.7791 224.888 65.6549 224.888 71.2103C224.888 77.3463 220.07 82.5383 213.879 83.1095C211.358 88.8584 205.647 92.5495 199.263 92.5495C195.522 92.5306 191.922 91.2555 189.162 88.9717C188.038 90.6312 186.469 92.0076 184.6 92.9736C182.732 93.9397 180.624 94.4642 178.472 94.4988ZM169.154 89.9865C169.197 89.9867 169.239 89.9953 169.278 90.0116C169.317 90.0279 169.351 90.0515 169.379 90.0809C170.49 91.2877 171.88 92.2602 173.451 92.9304C175.021 93.6006 176.735 93.9523 178.472 93.9607C182.648 93.9607 186.552 91.8981 188.881 88.4383C188.904 88.4049 188.935 88.3766 188.972 88.3553C189.009 88.3341 189.051 88.3206 189.095 88.3156C189.139 88.3093 189.184 88.3125 189.227 88.3247C189.269 88.337 189.308 88.3582 189.34 88.3864C192.022 90.7091 195.586 92.0161 199.3 92.0397C205.475 92.0397 211.013 88.4006 213.394 82.7696C213.415 82.7227 213.45 82.6819 213.495 82.6519C213.54 82.6219 213.594 82.6038 213.649 82.5997C219.621 82.1277 224.304 77.1481 224.304 71.2198C224.304 65.8579 220.462 61.1567 215.169 60.0428C215.119 60.0343 215.072 60.0135 215.034 59.9827C214.997 59.9519 214.969 59.9123 214.954 59.8682C212.84 54.0107 207.198 50.0789 200.913 50.0789C199.252 50.0778 197.605 50.3514 196.053 50.886C195.991 50.9063 195.923 50.9076 195.86 50.8897C195.796 50.8718 195.741 50.8357 195.703 50.7869C194.664 49.3198 193.245 48.1038 191.569 47.2443C189.893 46.3848 188.01 45.9076 186.084 45.8542C184.158 45.8007 182.247 46.1725 180.516 46.9375C178.785 47.7024 177.286 48.8374 176.149 50.2441C176.125 50.2736 176.095 50.2981 176.06 50.316C176.025 50.3339 175.986 50.3448 175.945 50.3479C175.905 50.3523 175.865 50.3491 175.826 50.3385C175.787 50.3279 175.752 50.3103 175.721 50.2866C172.985 48.134 169.482 46.9458 165.855 46.9401C158.751 46.9401 152.57 51.4477 150.477 58.1595C150.459 58.2148 150.422 58.2635 150.371 58.2983C150.321 58.3331 150.259 58.3523 150.195 58.3531C143.931 58.438 138.805 63.5451 138.805 69.7707C138.805 75.0807 142.459 79.645 147.679 80.8722C147.73 80.8833 147.777 80.9067 147.815 80.94C147.853 80.9732 147.88 81.015 147.893 81.061C149.741 87.2961 155.624 91.6527 162.196 91.6527C164.576 91.649 166.915 91.0862 168.982 90.0195C169.034 89.9925 169.094 89.9809 169.154 89.9865Z" fill="#FF725E"/>
<path d="M140.841 53.0005C140.243 52.994 139.661 52.83 139.165 52.5285C138.947 52.6154 138.722 52.6864 138.492 52.7409C137.607 52.9459 136.675 52.9132 135.81 52.6466C134.945 52.38 134.185 51.8912 133.623 51.2401C133.061 50.5889 132.72 49.8036 132.644 48.9803C132.568 48.1571 132.759 47.3316 133.194 46.6049C132.727 46.1726 132.421 45.6198 132.318 45.0232C132.216 44.4266 132.321 43.8158 132.619 43.2756C132.917 42.7354 133.394 42.2927 133.984 42.0088C134.573 41.7249 135.246 41.6139 135.908 41.6914C136.214 40.8627 136.748 40.1178 137.46 39.5268C138.171 38.9357 139.037 38.5177 139.976 38.312C140.915 38.1063 141.897 38.1196 142.829 38.3508C143.761 38.5819 144.612 39.0233 145.304 39.6335C145.387 39.6026 145.473 39.5774 145.56 39.5579C145.932 39.469 146.32 39.4473 146.701 39.494C147.083 39.5408 147.451 39.6551 147.783 39.8305C148.116 40.0058 148.407 40.2388 148.64 40.516C148.873 40.7932 149.043 41.1092 149.141 41.4459C149.263 41.8731 149.263 42.3215 149.141 42.7487C149.841 42.8136 150.495 43.0946 150.993 43.5442C151.491 43.9939 151.803 44.5849 151.875 45.2179C151.948 45.8509 151.778 46.4873 151.393 47.0201C151.008 47.5529 150.432 47.9496 149.762 48.1436C149.685 48.7857 149.448 49.4035 149.067 49.9502C148.687 50.4968 148.174 50.9578 147.567 51.2982C146.96 51.6386 146.275 51.8494 145.565 51.9145C144.854 51.9797 144.137 51.8975 143.466 51.6742C143.056 52.2865 142.399 52.7314 141.634 52.9155C141.375 52.9765 141.108 53.005 140.841 53.0005ZM139.197 51.9857C139.259 51.9864 139.319 52.0045 139.369 52.0376C139.662 52.233 140 52.3677 140.357 52.4323C140.714 52.4968 141.083 52.4897 141.437 52.4114C141.791 52.3331 142.121 52.1855 142.405 51.979C142.689 51.7725 142.92 51.5121 143.08 51.2163C143.113 51.1569 143.17 51.1111 143.238 51.0883C143.307 51.0654 143.383 51.0674 143.451 51.0936C144.056 51.3323 144.717 51.4354 145.376 51.3943C146.035 51.3531 146.673 51.1688 147.236 50.8571C147.8 50.5454 148.272 50.1154 148.613 49.6036C148.953 49.0918 149.152 48.5132 149.193 47.9171C149.195 47.8615 149.217 47.8081 149.256 47.7648C149.294 47.7215 149.347 47.6905 149.407 47.6763L149.532 47.9218L149.459 47.6669C150.096 47.5129 150.64 47.137 150.972 46.6213C151.304 46.1056 151.396 45.4922 151.229 44.9151C151.08 44.4304 150.758 44.0037 150.314 43.7015C149.869 43.3992 149.326 43.2385 148.77 43.2443C148.722 43.2501 148.673 43.2423 148.63 43.2221C148.587 43.2018 148.552 43.17 148.53 43.131C148.503 43.0966 148.485 43.0567 148.479 43.0147C148.472 42.9728 148.477 42.93 148.493 42.8903C148.679 42.4713 148.71 42.0096 148.582 41.5734C148.503 41.3031 148.365 41.0496 148.177 40.8274C147.989 40.6051 147.755 40.4186 147.488 40.2783C147.22 40.138 146.924 40.0468 146.618 40.0099C146.311 39.9729 146 39.991 145.701 40.063C145.579 40.093 145.461 40.1308 145.346 40.1763C145.292 40.1987 145.232 40.2053 145.174 40.1952C145.116 40.185 145.063 40.1586 145.022 40.1196C144.397 39.529 143.611 39.098 142.743 38.8704C141.875 38.6428 140.955 38.6266 140.078 38.8235C139.201 39.0204 138.396 39.4234 137.747 39.9916C137.097 40.5599 136.625 41.2733 136.378 42.0595C136.358 42.1237 136.312 42.1786 136.249 42.2129C136.186 42.2471 136.11 42.2581 136.038 42.2436C135.467 42.1305 134.871 42.1923 134.343 42.4192C133.815 42.6462 133.385 43.0254 133.121 43.4973C132.858 43.9692 132.775 44.5069 132.887 45.0259C132.998 45.5448 133.297 46.0156 133.736 46.3642C133.788 46.4037 133.823 46.459 133.833 46.5197C133.844 46.5804 133.83 46.6425 133.794 46.6946C133.356 47.3266 133.139 48.0631 133.171 48.8083C133.202 49.5534 133.481 50.2727 133.971 50.8725C134.461 51.4724 135.139 51.925 135.918 52.1715C136.696 52.418 137.538 52.447 138.335 52.2547C138.585 52.195 138.828 52.1144 139.061 52.014C139.103 51.9943 139.149 51.9845 139.197 51.9857Z" fill="#FF725E"/>
<path d="M125.4 42.2674C124.887 42.2679 124.383 42.1503 123.935 41.9257C123.486 41.7011 123.109 41.3768 122.837 40.9836C122.347 40.8612 121.905 40.6158 121.562 40.2758C121.22 39.9357 120.991 39.5149 120.902 39.0621C120.813 38.6093 120.868 38.143 121.059 37.717C121.251 37.2911 121.573 36.923 121.986 36.6553C121.958 36.2238 122.058 35.7934 122.275 35.4081C122.491 35.0229 122.818 34.6968 123.22 34.4633C123.622 34.2298 124.086 34.0972 124.564 34.0793C125.041 34.0614 125.516 34.1588 125.938 34.3614C126.111 34.2114 126.304 34.0813 126.512 33.9744C126.991 33.7374 127.539 33.6385 128.081 33.6909C128.624 33.7433 129.137 33.9445 129.549 34.2675C129.962 34.5905 130.256 35.0199 130.391 35.4981C130.527 35.9764 130.497 36.4806 130.307 36.9433C130.362 37.0128 130.413 37.0853 130.458 37.1604C130.683 37.5311 130.797 37.9483 130.789 38.371C130.782 38.7937 130.653 39.2072 130.414 39.5711C130.176 39.9349 129.838 40.2364 129.432 40.446C129.026 40.6556 128.566 40.7661 128.099 40.7665C127.849 41.2169 127.466 41.5957 126.993 41.8607C126.519 42.1258 125.973 42.2666 125.416 42.2674H125.4ZM124.675 34.5974C124.375 34.6 124.08 34.6598 123.808 34.7728C123.536 34.8858 123.293 35.0495 123.096 35.2531C122.899 35.4568 122.752 35.6958 122.664 35.9545C122.576 36.2133 122.55 36.4859 122.587 36.7545C122.595 36.8044 122.587 36.8554 122.562 36.9009C122.538 36.9464 122.499 36.9842 122.451 37.0093C122.093 37.2088 121.809 37.5002 121.635 37.8464C121.461 38.1925 121.405 38.5777 121.475 38.9526C121.544 39.3276 121.736 39.6753 122.025 39.9513C122.314 40.2273 122.688 40.4191 123.098 40.5021C123.138 40.5099 123.175 40.5253 123.207 40.5473C123.24 40.5693 123.267 40.5974 123.286 40.6296C123.602 41.1323 124.124 41.5026 124.739 41.6607C125.354 41.8187 126.013 41.7518 126.575 41.4745C127.047 41.2328 127.415 40.8534 127.619 40.3983C127.643 40.3476 127.684 40.305 127.737 40.2763C127.789 40.2476 127.85 40.2341 127.911 40.2378C128.324 40.266 128.737 40.1857 129.101 40.0065C129.591 39.7607 129.953 39.35 130.109 38.8639C130.266 38.3778 130.203 37.8555 129.936 37.4105C129.876 37.3173 129.81 37.2275 129.738 37.1415C129.704 37.1043 129.683 37.0593 129.677 37.0117C129.67 36.9642 129.679 36.9159 129.701 36.8725C129.835 36.6047 129.897 36.3125 129.883 36.0192C129.87 35.7259 129.781 35.4395 129.623 35.1827C129.461 34.9126 129.229 34.6823 128.947 34.5117C128.664 34.3411 128.34 34.2354 128.002 34.2038C127.664 34.1722 127.323 34.2156 127.008 34.3302C126.693 34.4449 126.413 34.6273 126.194 34.8617C126.149 34.9105 126.085 34.9424 126.016 34.9511C125.946 34.9598 125.876 34.9448 125.818 34.9089C125.476 34.7108 125.08 34.6029 124.675 34.5974Z" fill="#FF725E"/>
<path d="M113.984 40.3607H113.853C113.451 40.3309 113.077 40.1618 112.809 39.8887C112.67 39.7415 112.566 39.57 112.503 39.3849C112.441 39.1998 112.42 39.005 112.444 38.8126L112.381 38.7512C112.247 38.609 112.145 38.4442 112.081 38.2661C112.017 38.088 111.993 37.9003 112.01 37.7137C112.027 37.5272 112.085 37.3455 112.18 37.1793C112.275 37.013 112.405 36.8655 112.564 36.7452C112.745 36.6049 112.959 36.5047 113.19 36.4526C113.288 36.1732 113.469 35.9234 113.712 35.7304C114.046 35.4744 114.473 35.341 114.911 35.3567C115.348 35.3725 115.762 35.5362 116.072 35.8154C116.474 35.8452 116.848 36.0142 117.116 36.2874C117.359 36.5438 117.492 36.8702 117.492 37.2078C117.492 37.5453 117.359 37.8717 117.116 38.1282C117.177 38.3805 117.161 38.6432 117.069 38.8878C116.977 39.1324 116.813 39.3496 116.594 39.5158C116.407 39.6599 116.186 39.7624 115.947 39.8148C115.709 39.8673 115.46 39.8684 115.221 39.8179C115.155 39.8956 115.079 39.9667 114.997 40.0303C114.713 40.2452 114.354 40.3623 113.984 40.3607ZM114.84 35.872C114.564 35.8711 114.298 35.9599 114.088 36.1222C113.886 36.2758 113.748 36.4873 113.697 36.7216C113.687 36.7758 113.657 36.8254 113.613 36.863C113.569 36.9005 113.512 36.9238 113.451 36.9293C113.26 36.9534 113.079 37.0253 112.929 37.137C112.729 37.2923 112.605 37.5133 112.584 37.7513C112.564 37.9893 112.648 38.225 112.82 38.4066C112.854 38.4462 112.893 38.4825 112.935 38.5152C112.975 38.5457 113.006 38.5854 113.023 38.6303C113.04 38.6752 113.044 38.7234 113.034 38.7701C112.999 38.9049 113 39.0452 113.036 39.1796C113.072 39.3141 113.143 39.439 113.243 39.5442C113.413 39.7244 113.655 39.8365 113.916 39.856C114.177 39.8754 114.436 39.8007 114.636 39.648C114.727 39.5769 114.802 39.4922 114.861 39.3978C114.893 39.3419 114.948 39.2992 115.014 39.2782C115.08 39.2572 115.152 39.2595 115.216 39.2846C115.384 39.3432 115.567 39.3602 115.745 39.3336C115.923 39.3071 116.09 39.238 116.229 39.1335C116.382 39.016 116.492 38.8594 116.545 38.6842C116.598 38.5091 116.592 38.3235 116.526 38.1518C116.508 38.1042 116.506 38.053 116.52 38.0044C116.534 37.9558 116.563 37.9119 116.604 37.878C116.747 37.755 116.846 37.5966 116.888 37.4229C116.931 37.2491 116.916 37.0678 116.846 36.9017C116.775 36.7356 116.651 36.5922 116.49 36.4896C116.329 36.387 116.138 36.3298 115.941 36.3251C115.86 36.3211 115.783 36.289 115.727 36.2354C115.618 36.1202 115.481 36.0281 115.328 35.9653C115.175 35.9025 115.008 35.8707 114.84 35.872Z" fill="#FF725E"/>
</g>
</svg>
