<svg width="350" height="368" viewBox="0 0 350 368" fill="none" xmlns="http://www.w3.org/2000/svg">
<g opacity="0.15">
<path opacity="0.41" d="M136.205 239.605C133.358 239.592 130.508 239.472 127.655 239.227C96.3844 236.533 60.1587 220.842 44.5886 192.273C30.9764 167.298 25.6319 134.962 31.8297 107.108C37.6558 80.9242 55.7186 59.7141 81.0117 51.6601C109.457 42.6027 140.895 53.608 168.885 41.2382C209.625 23.2346 260.829 37.5323 289.381 71.7867C314.695 102.156 320.822 151.127 312.876 189.07C308.86 208.247 298.295 226.716 281.479 236.37C268.099 244.052 251.926 245.567 236.626 243.565C224.324 241.955 212.998 237.739 201.164 234.269C191.678 231.488 183.895 232.935 174.186 234.954C161.691 237.553 148.986 239.661 136.205 239.605Z" fill="#AFAFAF"/>
<path d="M143.186 221.281C140.882 221.271 138.576 221.174 136.267 220.975C110.963 218.796 81.6508 206.099 69.0522 182.982C58.0377 162.772 53.7124 136.607 58.7279 114.068C63.4424 92.8806 78.0584 75.7177 98.525 69.2011C121.542 61.8724 146.982 70.7775 169.63 60.7682C202.595 46.2005 244.029 57.77 267.133 85.4871C287.616 110.062 292.574 149.687 286.144 180.39C282.895 195.908 274.345 210.852 260.738 218.665C249.911 224.881 236.825 226.106 224.444 224.486C214.489 223.184 205.325 219.773 195.749 216.964C188.073 214.713 181.775 215.885 173.919 217.519C163.808 219.621 153.527 221.326 143.186 221.281Z" stroke="white" stroke-width="1.9456" stroke-miterlimit="10" stroke-dasharray="3.85 3.85"/>
<path opacity="0.87" d="M291.004 323.763C297.805 323.763 303.318 323.322 303.318 322.779C303.318 322.236 297.805 321.796 291.004 321.796C284.203 321.796 278.69 322.236 278.69 322.779C278.69 323.322 284.203 323.763 291.004 323.763Z" fill="#515159"/>
<path d="M292.567 285.571C292.567 285.571 282.024 278.044 288.796 267.103C295.569 256.162 293.875 252.359 291.505 249.279C297.261 256.162 296 264.004 292.567 268.979C289.134 273.953 288.59 280.722 292.567 285.571Z" fill="#AFAFAF"/>
<path d="M301.169 294.911H280.839L282.823 321.958H299.185L301.169 294.911Z" fill="#FEFEFE"/>
<path d="M303.318 293.528H278.69V296.699H303.318V293.528Z" fill="#8B8B8C"/>
<path d="M298.482 290.675H283.527C282.042 290.675 280.839 291.94 280.839 293.5V293.528H301.17V293.5C301.169 291.94 299.966 290.675 298.482 290.675Z" fill="#5A5A63"/>
<path d="M300.039 310.32L300.52 303.769H281.488L281.969 310.32H300.039Z" fill="#EDB62B"/>
<path d="M301.169 293.528V293.499C301.169 291.939 299.966 290.674 298.481 290.674H291.075C292.559 290.674 293.763 291.939 293.763 293.499V293.528H295.911V296.7H293.631L291.778 321.958H299.185L301.038 296.7H303.318V293.528H301.169Z" fill="#AFAFAF"/>
<path d="M192.019 125.336C192.019 125.336 196.28 111.295 190.055 107.217C186.098 105.08 183.935 107.743 183.935 107.743C183.935 107.743 182.075 97.8142 169.253 101.094C160.947 103.219 158.328 98.7197 158.328 98.7197C158.328 98.7197 158.25 111.165 163.97 114.866C168.111 118.598 166.523 128.685 166.523 128.685L192.019 125.336Z" fill="#2F2F35"/>
<path opacity="0.87" d="M229.792 308.833C229.792 308.833 252.876 309.562 259.318 315.811C266.093 322.383 273.201 332.646 244.035 332.448C214.868 332.251 189.013 323.815 164.55 326.492C140.088 329.169 120.014 333.785 114.166 332.761C108.319 331.737 150 310.754 150 310.754L227.386 313.739L229.792 308.833Z" fill="#515159"/>
<path d="M208.201 254.27L179.101 251.198L150 254.27C150 254.27 148.272 268.719 142.652 276.427C179.101 290.183 179.101 290.183 179.101 290.183C179.101 290.183 179.101 290.183 215.549 276.427C209.93 268.719 208.201 254.27 208.201 254.27Z" fill="#A87D1D"/>
<path d="M177.951 289.749C179.099 290.182 179.101 290.183 179.101 290.183C179.101 290.183 179.102 290.182 180.249 289.75C186.955 273.538 185.35 255.35 184.953 251.816L179.101 251.198L171.612 251.989C171.462 255.873 171.212 273.641 177.951 289.749Z" fill="#A87D1D"/>
<path d="M149.835 255.449C149.836 255.45 180.456 269.642 210.029 263.474C208.7 258.429 208.202 254.27 208.202 254.27L179.101 251.198L155.725 253.666L149.835 255.449Z" fill="#895436"/>
<path d="M163.969 114.865C168.111 118.597 166.522 128.684 166.522 128.684L171.94 127.973C177.503 122.77 183.784 116.183 182.871 113.702C181.273 109.353 176.658 105.012 168.146 104.515C159.635 104.019 158.327 98.719 158.327 98.719C158.327 98.719 158.25 111.164 163.969 114.865Z" fill="#515159"/>
<path d="M178.044 150.102L153.987 159.318L150 254.27C150 254.27 158.504 258.46 179.101 258.46C179.101 159.768 179.101 151.576 179.101 151.576L178.044 150.102Z" fill="white"/>
<path d="M180.157 150.102L204.214 159.318L208.201 254.27C208.201 254.27 199.697 258.46 179.101 258.46C179.101 159.768 179.101 151.576 179.101 151.576L180.157 150.102Z" fill="white"/>
<path d="M153.987 159.318L153.875 159.36C146.848 161.997 141.233 167.673 138.452 174.949L112.628 240.63L134.587 243.379L153.176 195.503L153.987 159.318Z" fill="#FF7E6E"/>
<path d="M204.214 159.318L204.326 159.36C211.354 161.997 216.969 167.673 219.75 174.949L245.574 240.63L223.615 243.379L205.026 195.503L204.214 159.318Z" fill="#FF7E6E"/>
<path d="M229.778 200.452L219.75 174.948C216.969 167.672 211.354 161.997 204.326 159.359L204.214 159.317L205.026 195.502L210.292 209.065C217.322 202.878 224.375 200.869 229.778 200.452Z" fill="#E8E8E8"/>
<path d="M128.423 200.452L138.451 174.948C141.232 167.672 146.847 161.997 153.875 159.359L153.987 159.317L153.175 195.502L147.909 209.065C140.879 202.878 133.826 200.869 128.423 200.452Z" fill="#E8E8E8"/>
<path d="M205.787 196.753C205.787 196.753 205.135 195.794 204.215 193.997L205.026 195.502C205.026 195.502 195.873 248.888 171.405 258.247C173.757 258.379 176.315 258.458 179.101 258.458C199.697 258.458 208.202 254.269 208.202 254.269L205.787 196.753Z" fill="#D3D3D3"/>
<path opacity="0.52" d="M142.652 189.758C148.858 171.466 149.203 171.606 162.757 168.255C176.31 164.903 173.645 151.788 173.645 151.788L161.009 156.628L159.055 157.377L153.987 159.318L153.875 159.36C146.847 161.997 141.232 167.673 138.451 174.948L113.697 237.907C124.151 229.821 137.367 205.337 142.652 189.758Z" fill="#FFF6E7"/>
<path opacity="0.28" d="M215.549 189.758C209.343 171.466 208.998 171.606 195.444 168.255C181.891 164.903 184.556 151.788 184.556 151.788L197.192 156.628L199.146 157.377L204.214 159.318L204.326 159.36C211.353 161.997 216.968 167.673 219.75 174.948L244.503 237.907C234.05 229.821 220.835 205.337 215.549 189.758Z" fill="#4C2A29"/>
<path d="M179.166 161.816H179.035C175.479 161.816 172.596 158.787 172.596 155.049V138.893H185.604V155.049C185.605 158.787 182.722 161.816 179.166 161.816Z" fill="#FF7E6E"/>
<path d="M185.501 151.354C185.538 151.354 185.569 151.35 185.605 151.349V138.893H179.532L172.596 141.527C172.596 141.527 175.178 151.354 185.501 151.354Z" fill="#4C2A29"/>
<path d="M194.232 129.188C194.232 131.613 192.362 133.577 190.055 133.577C187.748 133.577 185.878 131.613 185.878 129.188C185.878 126.764 187.748 124.799 190.055 124.799C192.361 124.799 194.232 126.764 194.232 129.188Z" fill="#C64F4F"/>
<path d="M190.868 133.491C191.471 130.947 191.825 127.692 192.018 125.337C191.43 125.005 190.768 124.799 190.054 124.799C187.748 124.799 185.877 126.764 185.877 129.188C185.877 131.613 187.748 133.577 190.054 133.577C190.334 133.577 190.604 133.546 190.868 133.491Z" fill="#803D3D"/>
<path d="M163.969 129.188C163.969 131.613 165.84 133.577 168.146 133.577C170.453 133.577 172.323 131.613 172.323 129.188C172.323 126.764 170.453 124.799 168.146 124.799C165.84 124.799 163.969 126.764 163.969 129.188Z" fill="#C64F4F"/>
<path d="M167.334 133.491C166.729 130.947 166.376 127.692 166.183 125.337C166.771 125.005 167.433 124.799 168.147 124.799C170.454 124.799 172.324 126.764 172.324 129.188C172.324 131.613 170.453 133.577 168.147 133.577C167.868 133.577 167.597 133.546 167.334 133.491Z" fill="#803D3D"/>
<path d="M186.452 113.836H179.101H171.749L168.111 122.19L168.722 130.458C169.049 134.87 171.762 142.489 175.578 144.361C176.712 144.917 177.913 145.288 179.101 145.288C180.288 145.288 181.489 144.917 182.623 144.361C186.439 142.489 189.152 134.871 189.479 130.458L190.091 122.19L186.452 113.836Z" fill="#FF7E6E"/>
<path d="M182.871 124.323C182.871 124.323 185.338 125.05 188.129 124.323" stroke="#2F2F35" stroke-width="1.3362" stroke-miterlimit="10" stroke-linecap="round"/>
<path d="M182.075 119.572C182.075 119.572 185.678 118.943 187.844 120.254" stroke="#2F2F35" stroke-width="2.6723" stroke-miterlimit="10" stroke-linecap="round"/>
<path d="M175.33 124.323C175.33 124.323 172.863 125.05 170.071 124.323" stroke="#2F2F35" stroke-width="1.3362" stroke-miterlimit="10" stroke-linecap="round"/>
<path d="M176.126 119.572C176.126 119.572 172.523 118.943 170.358 120.254" stroke="#2F2F35" stroke-width="2.6723" stroke-miterlimit="10" stroke-linecap="round"/>
<path opacity="0.52" d="M173.242 131.528C172.762 123.174 171.749 113.836 171.749 113.836L168.111 122.19L168.305 124.815C168.251 124.813 168.201 124.798 168.147 124.798C165.84 124.798 163.97 126.763 163.97 129.187C163.97 131.612 165.84 133.577 168.147 133.577C168.512 133.577 168.861 133.512 169.198 133.419C170.182 137.689 172.525 142.863 175.579 144.361C176.713 144.917 177.914 145.288 179.101 145.288C179.101 145.288 173.722 139.883 173.242 131.528Z" fill="#FFF6E7"/>
<path d="M204.215 291.413L121.077 264.906C110.038 261.387 98.4285 268.216 95.5109 279.943L95.401 280.386C92.3952 292.47 99.8516 304.677 111.559 306.827C142.298 312.473 198.013 322.076 227.336 323.25L239.697 331.909C241.563 333.217 244.041 333.002 245.678 331.389L245.741 331.327C247.686 329.411 247.785 326.202 245.963 324.157L244.036 321.994C244.036 321.994 242.317 313.197 233.83 309.426C225.343 305.656 224.546 296.44 222.553 291.413C220.559 286.386 207.803 283.873 204.215 291.413Z" fill="#8C4242"/>
<path d="M95.5108 279.943C98.4284 268.215 110.039 261.387 121.077 264.906L149.271 273.895C145.024 279.463 139.422 290.765 139.253 311.739C128.96 309.981 119.436 308.274 111.558 306.827C99.8508 304.677 92.3944 292.469 95.4002 280.386L95.5108 279.943Z" fill="#EDB62B"/>
<path opacity="0.67" d="M121.737 298.37C121.737 301.932 120.924 305.294 119.49 308.269C116.706 307.767 114.043 307.283 111.559 306.827C99.8515 304.677 92.3951 292.469 95.4009 280.386L95.5108 279.943C95.7726 278.89 96.1072 277.878 96.5027 276.908C97.9069 276.594 99.3622 276.427 100.855 276.427C112.388 276.427 121.737 286.251 121.737 298.37Z" fill="#A87D1D"/>
<path d="M208.201 303.561C208.201 303.561 207.005 310.882 195.445 308.269" stroke="#7B3C38" stroke-width="1.139" stroke-miterlimit="10"/>
<path opacity="0.28" d="M215.549 300.21C215.549 300.21 197.836 299.372 160.364 292.348C130.006 286.657 121.101 270.328 118.813 264.333C119.568 264.478 120.324 264.666 121.076 264.906L204.214 291.412C207.802 283.872 220.558 286.385 222.551 291.412C224.544 296.439 225.341 305.655 233.828 309.425C242.315 313.195 244.033 321.993 244.033 321.993C244.033 321.993 235.307 316.128 229.79 314.872C224.274 313.615 215.549 300.21 215.549 300.21Z" fill="#4C2A29"/>
<path d="M219.385 322.779C219.385 322.779 234.651 338.129 247.666 331.812C249.832 330.762 250.51 327.856 249.096 325.838C238.133 310.191 224.31 293.145 219.041 286.739C217.722 285.135 215.634 284.487 213.697 285.079L198.704 289.656L219.385 322.779Z" fill="#2F2F35"/>
<path d="M198.704 289.656L184.344 285.077L195.222 320.254L219.385 322.779L198.704 289.656Z" fill="#A5A5A5"/>
<path d="M153.987 291.413L237.125 264.906C248.164 261.387 259.773 268.216 262.691 279.943L262.801 280.386C265.807 292.47 258.35 304.677 246.643 306.827C215.904 312.473 160.189 322.076 130.866 323.25L118.505 331.909C116.639 333.217 114.161 333.002 112.524 331.389L112.461 331.327C110.516 329.411 110.417 326.202 112.239 324.157L114.166 321.994C114.166 321.994 115.885 313.197 124.372 309.426C132.859 305.656 133.656 296.44 135.649 291.413C137.642 286.386 150.399 283.873 153.987 291.413Z" fill="#FF7E6E"/>
<path d="M262.69 279.943C259.773 268.215 248.163 261.387 237.124 264.906L208.93 273.895C213.177 279.463 218.779 290.765 218.947 311.739C229.241 309.981 238.764 308.274 246.642 306.827C258.35 304.677 265.806 292.469 262.8 280.386L262.69 279.943Z" fill="#EDB62B"/>
<path opacity="0.67" d="M236.464 298.37C236.464 301.932 237.278 305.294 238.711 308.269C241.495 307.767 244.159 307.283 246.642 306.827C258.35 304.677 265.806 292.469 262.8 280.386L262.69 279.943C262.429 278.89 262.094 277.878 261.698 276.908C260.294 276.594 258.839 276.427 257.346 276.427C245.813 276.427 236.464 286.251 236.464 298.37Z" fill="#A87D1D"/>
<path opacity="0.28" d="M142.652 300.21C142.652 300.21 160.365 299.372 197.837 292.348C228.195 286.657 237.1 270.328 239.388 264.333C238.633 264.478 237.877 264.666 237.125 264.906L153.987 291.413C150.399 283.872 137.642 286.386 135.649 291.413C133.657 296.44 132.859 305.655 124.372 309.426C115.886 313.196 114.167 321.994 114.167 321.994C114.167 321.994 122.893 316.129 128.41 314.872C133.926 313.615 142.652 300.21 142.652 300.21Z" fill="#4C2A29"/>
<path opacity="0.57" d="M124.372 309.426L111.909 306.998C100.629 305.106 92.9901 293.901 94.9144 282.069L94.99 281.605C97.0879 268.705 109.548 260.726 121.42 264.681L144.952 272.518" stroke="white" stroke-width="1.1139" stroke-miterlimit="10"/>
<path d="M174.826 131.391C174.378 131.391 174.115 131.937 174.39 132.308C175.638 133.992 177.29 135.021 179.107 135.021C180.923 135.021 182.575 133.992 183.824 132.308C184.099 131.937 183.835 131.391 183.387 131.391H174.826Z" fill="white"/>
<path d="M180.335 124.139V128.683C180.335 128.683 179.34 128.093 177.956 128.683" stroke="#2F2F35" stroke-width="0.8212" stroke-miterlimit="10" stroke-linecap="round"/>
<path d="M183.935 107.742H182.871V114.852H183.935V107.742Z" fill="#FF7E6E"/>
<path d="M245.574 240.629L245.618 240.757C248.11 248.007 245.125 256.077 238.628 259.656L194.232 284.112L194.013 283.516C190.101 272.898 194.193 260.871 203.623 255.264L223.616 243.379L245.574 240.629Z" fill="#FF7E6E"/>
<path opacity="0.28" d="M236.2 255.609C236.2 257.331 236.609 258.95 237.324 260.374L238.628 259.656C243.752 256.833 246.678 251.216 246.469 245.412C246.289 245.401 246.112 245.383 245.93 245.383C240.556 245.383 236.2 249.961 236.2 255.609Z" fill="#4C2A29"/>
<path d="M223.615 243.379L236.2 235.879" stroke="#4C2A29" stroke-width="1.3362" stroke-miterlimit="10" stroke-linecap="round"/>
<path d="M112.757 240.629L112.713 240.757C110.221 248.007 113.206 256.077 119.703 259.656L164.1 284.112L164.319 283.516C168.231 272.898 164.139 260.871 154.709 255.264L134.716 243.379L112.757 240.629Z" fill="#FF7E6E"/>
<path opacity="0.28" d="M122.132 255.609C122.132 257.331 121.722 258.95 121.007 260.374L119.704 259.656C114.58 256.833 111.654 251.216 111.863 245.412C112.042 245.401 112.219 245.383 112.401 245.383C117.775 245.383 122.132 249.961 122.132 255.609Z" fill="#4C2A29"/>
<path d="M134.716 243.379L122.132 235.879" stroke="#4C2A29" stroke-width="1.3362" stroke-miterlimit="10" stroke-linecap="round"/>
<path d="M159.173 281.398C159.173 281.398 161.414 268.478 154.117 264.333" stroke="#4C2A29" stroke-width="1.3362" stroke-miterlimit="10" stroke-linecap="round"/>
<path d="M199.028 281.398C199.028 281.398 196.788 268.478 204.084 264.333" stroke="#4C2A29" stroke-width="1.3362" stroke-miterlimit="10" stroke-linecap="round"/>
<path d="M138.816 322.779C138.816 322.779 123.55 338.129 110.535 331.812C108.37 330.762 107.691 327.856 109.105 325.838C120.068 310.191 133.89 293.145 139.16 286.739C140.479 285.135 142.567 284.487 144.504 285.079L159.497 289.656L138.816 322.779Z" fill="#2F2F35"/>
<path d="M159.498 289.656L173.858 285.077L162.98 320.254L138.816 322.779L159.498 289.656Z" fill="#ECECEC"/>
<path opacity="0.28" d="M153.525 299.221C157.785 298.744 163.318 298.044 170.162 297.029L173.858 285.078L159.498 289.656L153.525 299.221Z" fill="#4C2A29"/>
<path d="M143.391 312.096L135.061 325.438C134.542 326.269 133.615 326.713 132.678 326.579L132.623 326.571C130.818 326.314 129.9 324.153 130.921 322.569L139.441 309.351C139.987 308.505 140.972 308.101 141.917 308.334L141.966 308.346C143.552 308.737 144.285 310.665 143.391 312.096Z" fill="#FFF6E7"/>
<path d="M177.956 234.983H126.974L139.544 282.032H177.956H216.369L228.938 234.983H177.956Z" fill="#AFAFAF"/>
<path d="M216.369 282.032H139.544V288.885H216.369V282.032Z" fill="#8B8B8C"/>
<path d="M178.044 268.924C184.928 268.924 190.509 265.921 190.509 262.215C190.509 258.51 184.928 255.507 178.044 255.507C171.159 255.507 165.578 258.51 165.578 262.215C165.578 265.921 171.159 268.924 178.044 268.924Z" fill="#5A5A63"/>
<path d="M228.938 231.862H126.974V234.983H228.938V231.862Z" fill="#5A5A63"/>
<path d="M151.493 284H143.799V286.755H151.493V284Z" fill="#5A5A63"/>
<path d="M162.597 284H154.903V286.755H162.597V284Z" fill="#5A5A63"/>
<path d="M216.369 285.459H169.613" stroke="#0F1201" stroke-miterlimit="10"/>
<path opacity="0.54" d="M126.974 234.983L139.544 282.033H166.906C183.153 262.238 193.024 234.983 193.024 234.983L192.991 231.862H126.974V234.983Z" fill="white"/>
<path opacity="0.57" d="M126.974 234.983H228.938" stroke="#0F1201" stroke-miterlimit="10"/>
<path opacity="0.87" d="M74.0054 323.763C84.2163 323.763 92.4938 323.322 92.4938 322.779C92.4938 322.236 84.2163 321.796 74.0054 321.796C63.7945 321.796 55.517 322.236 55.517 322.779C55.517 323.322 63.7945 323.763 74.0054 323.763Z" fill="#515159"/>
<path d="M76.7088 313.104L77.9205 311.717L77.315 312.411L77.9261 311.722C77.777 311.573 63.1862 296.028 80.8108 225.982L79.0776 225.5C61.0841 297.013 76.0627 312.481 76.7088 313.104Z" fill="#5A5A63"/>
<path d="M71.2733 227.187C77.9485 233.562 76.7788 241.099 76.7788 241.099C76.7788 241.099 70.0938 238.103 68.5433 228.766C68.271 227.128 70.1029 226.069 71.2733 227.187Z" fill="#5A5A63"/>
<path d="M87.9746 231.687C79.2036 233.9 76.7781 241.099 76.7781 241.099C76.7781 241.099 84.0098 241.853 89.6455 234.451C90.6339 233.154 89.5125 231.299 87.9746 231.687Z" fill="#5A5A63"/>
<path d="M66.6995 245.506C73.9508 251.144 73.5077 258.766 73.5077 258.766C73.5077 258.766 66.57 256.492 64.134 247.365C63.707 245.765 65.4276 244.518 66.6995 245.506Z" fill="#5A5A63"/>
<path d="M83.7473 248.219C75.2325 251.347 73.5077 258.766 73.5077 258.766C73.5077 258.766 80.7751 258.752 85.6737 250.793C86.5326 249.398 85.2397 247.671 83.7473 248.219Z" fill="#5A5A63"/>
<path d="M63.8008 261.571C71.4294 266.629 71.5239 274.265 71.5239 274.265C71.5239 274.265 64.4455 272.537 61.3732 263.624C60.8349 262.062 62.4638 260.684 63.8008 261.571Z" fill="#5A5A63"/>
<path d="M80.9928 262.952C72.7216 266.734 71.5239 274.265 71.5239 274.265C71.5239 274.265 78.7703 273.686 83.0956 265.368C83.8537 263.91 82.4432 262.288 80.9928 262.952Z" fill="#5A5A63"/>
<path d="M85.5729 213.151C85.7241 222.629 79.6964 226.894 79.6964 226.894C79.6964 226.894 77.196 219.724 82.6084 212.141C83.5569 210.812 85.5463 211.49 85.5729 213.151Z" fill="#5A5A63"/>
<path d="M82.9948 282.048H63.6125V322.341H82.9948V282.048Z" fill="#EDB62B"/>
<path opacity="0.67" d="M82.9948 282.048H75.2514V322.341H82.9948V282.048Z" fill="#A87D1D"/>
<path d="M91.5061 89.872L84.532 91.6948C83.5205 91.9596 82.4957 91.3115 82.2444 90.2486L81.5731 87.4121L92.2117 84.6316L92.883 87.468C93.1343 88.5317 92.5183 89.6079 91.5061 89.872Z" fill="#A87D1D"/>
<path d="M117.421 81.1324L57.1739 96.8778C56.1288 97.1507 55.0704 96.482 54.81 95.3831L44.8742 53.3998C44.6145 52.3016 45.2508 51.1894 46.2966 50.9157L106.544 35.1704C107.589 34.8975 108.648 35.5661 108.907 36.6651L118.843 78.6483C119.104 79.7473 118.467 80.8588 117.421 81.1324Z" fill="#A87D1D"/>
<path d="M115.636 73.8766L113.956 78.9493L60.5017 92.9189L55.755 89.5263L45.9095 47.9286L105.791 32.2788L115.636 73.8766Z" fill="#EDB62B"/>
<path d="M75.0784 40.3063L45.906 47.9292L55.7489 89.5256L84.9213 81.9028L75.0784 40.3063Z" fill="white"/>
<path d="M73.2755 43.8654L49.3064 50.1287L49.6507 51.5834L73.6197 45.3202L73.2755 43.8654Z" fill="#AFAFAF"/>
<path d="M74.382 48.5125L50.4129 54.7783L50.7573 56.2331L74.7264 49.9673L74.382 48.5125Z" fill="#AFAFAF"/>
<path d="M75.478 53.1743L51.5089 59.4375L51.8532 60.8923L75.8222 54.629L75.478 53.1743Z" fill="#AFAFAF"/>
<path d="M76.5794 57.8281L52.6104 64.0913L52.9546 65.5461L76.9237 59.2829L76.5794 57.8281Z" fill="#AFAFAF"/>
<path d="M77.6865 62.4749L53.7174 68.7407L54.0618 70.1955L78.0309 63.9297L77.6865 62.4749Z" fill="#AFAFAF"/>
<path d="M78.7818 67.1369L54.8128 73.4001L55.157 74.8549L79.1261 68.5917L78.7818 67.1369Z" fill="#AFAFAF"/>
<path d="M79.8834 71.7907L55.9143 78.054L56.2585 79.5087L80.2276 73.2455L79.8834 71.7907Z" fill="#AFAFAF"/>
<path d="M80.9917 76.4373L57.0226 82.7031L57.367 84.1579L81.3361 77.8921L80.9917 76.4373Z" fill="#AFAFAF"/>
<path d="M105.788 32.2714L76.6155 39.8975L86.4624 81.4939L115.635 73.8679L105.788 32.2714Z" fill="white"/>
<path d="M103.765 35.8895L79.7958 42.1553L80.1402 43.61L104.109 37.3442L103.765 35.8895Z" fill="#AFAFAF"/>
<path d="M104.863 40.5542L80.8936 46.8174L81.2379 48.2721L105.207 42.0089L104.863 40.5542Z" fill="#AFAFAF"/>
<path d="M105.964 45.2087L81.9946 51.4719L82.3388 52.9267L106.308 46.6635L105.964 45.2087Z" fill="#AFAFAF"/>
<path d="M107.07 49.8519L83.101 56.1177L83.4454 57.5724L107.414 51.3066L107.07 49.8519Z" fill="#AFAFAF"/>
<path d="M108.167 54.5168L84.1975 60.78L84.5417 62.2348L108.511 55.9716L108.167 54.5168Z" fill="#AFAFAF"/>
<path d="M109.268 59.1714L85.2985 65.4346L85.6427 66.8893L109.612 60.6261L109.268 59.1714Z" fill="#AFAFAF"/>
<path d="M110.375 63.814L86.4062 70.0798L86.7506 71.5346L110.72 65.2688L110.375 63.814Z" fill="#AFAFAF"/>
<path d="M111.47 68.4795L87.5007 74.7427L87.845 76.1974L111.814 69.9342L111.47 68.4795Z" fill="#AFAFAF"/>
<path d="M89.6791 87.4409L85.0633 88.6473C84.0518 88.9113 83.0284 88.264 82.7764 87.2018L82.355 85.4209L90.6332 83.2576L91.0546 85.0384C91.3059 86.1006 90.6899 87.1768 89.6791 87.4409Z" fill="#EDB62B"/>
<path d="M192.126 27.6268C189.732 25.2346 186.707 23.6031 183.593 22.5129C183.572 22.5056 183.525 22.4916 183.453 22.4717C180.632 21.678 177.659 21.678 174.838 22.4717C174.767 22.4916 174.719 22.5056 174.698 22.5129C171.583 23.6031 168.559 25.2354 166.165 27.6268C159.039 34.7466 160.196 47.6695 167.136 54.4884C169.083 56.401 169.938 58.8704 170.533 61.5928C170.713 62.413 171.746 70.9643 171.385 70.9643C174.868 70.9643 179.145 70.9643 179.145 70.9643C179.145 70.9643 183.422 70.9643 186.904 70.9643C186.544 70.9643 187.577 62.4123 187.756 61.5928C188.352 58.8711 189.207 56.4017 191.154 54.4884C198.094 47.6702 199.251 34.7473 192.126 27.6268Z" fill="#EDB62B"/>
<path opacity="0.52" d="M176.354 61.5928C175.759 58.8711 174.903 56.4017 172.957 54.4884C166.018 47.6695 164.86 34.7466 171.986 27.6268C174.38 25.2346 177.404 23.6031 180.519 22.5129C180.54 22.5056 180.587 22.4916 180.659 22.4717C181.121 22.3415 181.587 22.2408 182.056 22.1532C179.662 21.7067 177.197 21.8075 174.838 22.4717C174.767 22.4916 174.719 22.5056 174.698 22.5129C171.583 23.6031 168.558 25.2354 166.165 27.6268C159.039 34.7466 160.196 47.6695 167.136 54.4884C169.083 56.401 169.938 58.8704 170.533 61.5928C170.713 62.413 171.746 70.9643 171.385 70.9643C173.385 70.9643 175.643 70.9643 177.206 70.9643C177.567 70.9643 176.534 62.4122 176.354 61.5928Z" fill="#FFF6E7"/>
<path d="M179.145 70.9643V51.0209L182.486 48.9973C183.59 48.3286 183.369 46.5904 182.137 46.2491L176.058 44.5631C175.022 44.2755 174.904 42.7793 175.882 42.3166L179.145 40.7741V34.0044" stroke="#FEFEFE" stroke-width="2.2387" stroke-miterlimit="10" stroke-linecap="round"/>
<path d="M188.449 73.7088C188.449 74.315 187.981 74.8063 187.405 74.8063H170.341C169.765 74.8063 169.297 74.315 169.297 73.7088C169.297 73.1027 169.765 72.6113 170.341 72.6113H187.405C187.981 72.6113 188.449 73.1027 188.449 73.7088Z" fill="#2F2F35"/>
<path d="M188.449 77.002C188.449 77.6082 187.981 78.1003 187.405 78.1003H170.341C169.765 78.1003 169.297 77.6089 169.297 77.002C169.297 76.3959 169.765 75.9045 170.341 75.9045H187.405C187.981 75.9045 188.449 76.3959 188.449 77.002Z" fill="#2F2F35"/>
<path d="M188.449 80.2953C188.449 80.9014 187.981 81.3928 187.405 81.3928H170.341C169.765 81.3928 169.297 80.9014 169.297 80.2953C169.297 79.6891 169.765 79.197 170.341 79.197H187.405C187.981 79.1978 188.449 79.6891 188.449 80.2953Z" fill="#2F2F35"/>
<path d="M178.872 89.0774C182.238 89.0774 184.967 86.2101 184.967 82.6733H172.779C172.779 86.2108 175.507 89.0774 178.872 89.0774Z" fill="#2F2F35"/>
<path d="M251.065 93.2881V88.1324H248.898C248.487 85.6836 247.535 83.4371 246.174 81.5238L247.894 79.7165L244.425 76.0709L242.64 77.9459C240.814 76.6351 238.691 75.7568 236.404 75.4103V72.7173H231.498V75.5111C229.305 75.9458 227.289 76.8888 225.55 78.2151L223.814 76.3901L220.345 80.0357L222.104 81.8842C220.818 83.8049 219.943 86.0426 219.589 88.4641H217.153V93.6192H219.642C220.044 95.9819 220.95 98.1548 222.241 100.022L220.324 102.036L223.793 105.681L225.735 103.642C227.514 104.956 229.58 105.862 231.815 106.253V109.036H236.72V106.253C238.948 105.864 241.006 104.963 242.782 103.657L244.405 105.362L247.874 101.717L246.28 100.041C247.638 98.0835 248.567 95.7855 248.94 93.2881H251.065ZM234.268 99.626C229.659 99.626 225.922 95.6994 225.922 90.8563C225.922 86.0124 229.659 82.0865 234.268 82.0865C238.877 82.0865 242.613 86.0131 242.613 90.8563C242.613 95.7002 238.877 99.626 234.268 99.626Z" fill="#666666"/>
<path d="M270.629 112.842V109.868H269.378C269.142 108.455 268.592 107.159 267.807 106.055L268.8 105.012L266.799 102.909L265.77 103.99C264.716 103.234 263.491 102.727 262.172 102.527V100.974H259.342V102.585C258.077 102.836 256.913 103.38 255.91 104.146L254.908 103.093L252.907 105.196L253.922 106.263C253.181 107.37 252.676 108.661 252.471 110.058H251.066V113.032H252.503C252.734 114.395 253.257 115.649 254.001 116.726L252.895 117.888L254.897 119.991L256.016 118.815C257.043 119.573 258.234 120.095 259.523 120.32V121.926H262.353V120.32C263.638 120.096 264.826 119.577 265.85 118.823L266.786 119.806L268.787 117.703L267.868 116.737C268.651 115.608 269.188 114.282 269.402 112.841L270.629 112.842ZM260.938 116.498C258.28 116.498 256.124 114.233 256.124 111.438C256.124 108.644 258.279 106.379 260.938 106.379C263.598 106.379 265.753 108.644 265.753 111.438C265.753 114.233 263.598 116.498 260.938 116.498Z" fill="#9E9E9E"/>
<path d="M315.219 74.3237V63.7364H310.766C309.924 58.7071 307.968 54.0942 305.173 50.1639L308.706 46.4514L301.582 38.9652L297.919 42.8153C294.168 40.1238 289.808 38.3201 285.111 37.6073V32.0771H275.036V37.8148C270.533 38.7071 266.392 40.6446 262.821 43.3685L259.255 39.6214L252.132 47.1075L255.744 50.9039C253.105 54.8482 251.308 59.4434 250.58 64.4168H245.578V75.0042H250.69C251.516 79.8561 253.376 84.3182 256.026 88.1522L252.09 92.2891L259.213 99.7753L263.199 95.5875C266.854 98.2864 271.095 100.146 275.685 100.949V106.663H285.76V100.949C290.334 100.149 294.563 98.3004 298.209 95.617L301.542 99.1191L308.666 91.633L305.392 88.1926C308.181 84.1726 310.09 79.4545 310.855 74.3245L315.219 74.3237ZM280.722 87.3408C271.257 87.3408 263.584 79.2772 263.584 69.3313C263.584 59.3846 271.257 51.321 280.722 51.321C290.188 51.321 297.861 59.3846 297.861 69.3313C297.861 79.2772 290.188 87.3408 280.722 87.3408Z" fill="#8B8B8C"/>
<path d="M280.398 79.9393C285.953 79.9393 290.455 75.2077 290.455 69.371C290.455 63.5343 285.953 58.8027 280.398 58.8027C274.844 58.8027 270.341 63.5343 270.341 69.371C270.341 75.2077 274.844 79.9393 280.398 79.9393Z" fill="#666666"/>
<path d="M84.5005 123.434C62.8915 124.811 46.0943 138.419 46.984 153.828C47.8737 169.238 66.1122 180.613 87.7212 179.235C87.7373 179.234 87.7534 179.233 87.7695 179.232C89.8961 179.094 91.3836 176.936 90.8579 174.766C90.6024 173.711 90.4582 172.605 90.4414 171.463C90.3315 164.119 95.7383 157.808 102.7 157.147C107.753 156.667 112.369 159.163 115.033 163.225C116.348 165.229 119.142 165.371 120.564 163.448C123.812 159.054 125.539 154.051 125.238 148.841C124.349 133.431 106.11 122.056 84.5005 123.434Z" fill="#5A5A63"/>
<path d="M84.357 120.94C62.748 122.317 45.9508 135.925 46.8405 151.335C47.7302 166.744 65.9687 178.119 87.5784 176.741C87.5945 176.741 87.6106 176.739 87.6267 176.738C89.7533 176.601 91.2408 174.442 90.7151 172.273C90.4596 171.217 90.3154 170.111 90.2986 168.97C90.1887 161.625 95.5955 155.314 102.558 154.653C107.61 154.173 112.226 156.669 114.89 160.731C116.205 162.736 118.999 162.878 120.421 160.955C123.67 156.56 125.396 151.558 125.095 146.347C124.204 130.937 105.966 119.562 84.357 120.94Z" fill="#8B8B8C"/>
<path d="M76.7249 164.622C76.8831 167.36 74.8993 169.713 72.2946 169.88C69.6899 170.046 67.4499 167.961 67.2917 165.224C67.1335 162.487 69.1173 160.133 71.722 159.967C74.3267 159.801 76.5667 161.885 76.7249 164.622Z" fill="#EDB62B"/>
<path d="M63.8519 155.224C64.0101 157.962 62.0263 160.315 59.4216 160.482C56.8169 160.648 54.5769 158.563 54.4187 155.826C54.2605 153.089 56.2443 150.735 58.849 150.569C61.4544 150.403 63.6937 152.487 63.8519 155.224Z" fill="#EDB62B"/>
<path d="M67.6368 138.787C67.795 141.524 65.8112 143.878 63.2065 144.044C60.6018 144.21 58.3618 142.126 58.2036 139.389C58.0454 136.652 60.0292 134.298 62.6339 134.131C65.2393 133.965 67.4793 136.05 67.6368 138.787Z" fill="#EDB62B"/>
<path d="M83.5905 129.903C83.7487 132.64 81.7649 134.994 79.1602 135.16C76.5555 135.327 74.3155 133.242 74.1573 130.505C73.9991 127.768 75.9829 125.414 78.5876 125.248C81.1923 125.081 83.4323 127.166 83.5905 129.903Z" fill="#EDB62B"/>
<path d="M101.56 130.146C101.718 132.883 99.7346 135.237 97.1299 135.403C94.5252 135.569 92.2852 133.485 92.127 130.748C91.9688 128.01 93.9526 125.656 96.5573 125.49C99.162 125.324 101.402 127.409 101.56 130.146Z" fill="#EDB62B"/>
<path d="M116.727 139.128C116.885 141.865 114.901 144.219 112.297 144.386C109.692 144.552 107.452 142.467 107.294 139.73C107.136 136.993 109.119 134.639 111.724 134.473C114.33 134.306 116.57 136.391 116.727 139.128Z" fill="#EDB62B"/>
<path opacity="0.68" d="M105.388 123.881L100.939 133.661C100.353 133.631 99.7857 133.981 99.5519 134.586L99.5393 134.619C99.2425 135.384 99.5925 136.257 100.321 136.569L100.738 136.748C100.656 136.719 100.232 136.667 99.3377 138.036C99.337 138.036 99.337 138.036 99.337 138.037C99.2831 138.12 99.2271 138.209 99.1697 138.302C99.1641 138.311 99.1585 138.32 99.1522 138.33C99.099 138.417 99.0437 138.51 98.987 138.607C98.9758 138.627 98.9646 138.646 98.9527 138.666C98.8995 138.758 98.8456 138.854 98.7903 138.955C98.7742 138.985 98.7574 139.015 98.7406 139.046C98.6881 139.142 98.6349 139.242 98.5803 139.346C98.5586 139.388 98.5369 139.43 98.5145 139.473C98.4627 139.574 98.4095 139.678 98.3556 139.786C98.329 139.839 98.3024 139.894 98.2751 139.949C98.2233 140.054 98.1708 140.162 98.1169 140.274C98.0854 140.34 98.0532 140.409 98.0203 140.478C97.9685 140.587 97.9167 140.698 97.8642 140.814C97.8278 140.893 97.7907 140.976 97.7529 141.059C97.7011 141.174 97.6486 141.291 97.5954 141.412C97.5548 141.503 97.5135 141.6 97.4722 141.694C97.4197 141.816 97.3672 141.937 97.3133 142.064C97.2678 142.172 97.2209 142.285 97.174 142.398C97.1222 142.522 97.0704 142.646 97.0172 142.775C96.9661 142.9 96.9136 143.031 96.8611 143.161C96.8093 143.291 96.7575 143.418 96.7043 143.553C96.6483 143.694 96.5909 143.842 96.5335 143.989C96.4817 144.122 96.4306 144.252 96.3774 144.39C96.3158 144.552 96.2514 144.722 96.1884 144.891C96.1373 145.027 96.0869 145.159 96.0344 145.3C95.9637 145.49 95.8909 145.69 95.8181 145.889C95.7712 146.018 95.725 146.141 95.6774 146.274C95.5913 146.512 95.5031 146.762 95.4142 147.011C95.3771 147.117 95.3407 147.217 95.3029 147.324C95.1755 147.687 95.0453 148.062 94.9123 148.451C94.556 149.493 94.1395 150.72 93.6803 152.081C93.6271 152.239 93.5753 152.393 93.52 152.555C93.4507 152.761 93.3779 152.976 93.3065 153.189C93.247 153.365 93.1889 153.538 93.128 153.719C93.0342 153.998 92.9376 154.286 92.841 154.575C92.7976 154.704 92.7556 154.83 92.7115 154.961C92.6156 155.246 92.5176 155.539 92.4196 155.833C92.3699 155.982 92.3202 156.128 92.2698 156.28C92.1774 156.555 92.0836 156.837 91.9891 157.119C91.931 157.293 91.8736 157.464 91.8148 157.641C91.7063 157.967 91.5957 158.298 91.4844 158.632C91.4424 158.757 91.4018 158.879 91.3598 159.006C91.2471 159.346 91.1323 159.691 91.0168 160.037C90.9678 160.185 90.9188 160.331 90.8698 160.48C90.7627 160.802 90.6542 161.13 90.5457 161.457C90.4904 161.624 90.4358 161.789 90.3798 161.957C90.2643 162.304 90.1481 162.656 90.0319 163.008C89.9815 163.16 89.9318 163.31 89.8821 163.462C89.7673 163.809 89.6518 164.159 89.5363 164.51C89.4782 164.685 89.4208 164.858 89.3634 165.034C89.2598 165.349 89.1555 165.665 89.0512 165.982C88.977 166.207 88.9035 166.431 88.8293 166.657C88.7397 166.929 88.6494 167.203 88.5598 167.477C88.4744 167.737 88.389 167.997 88.3029 168.258C88.207 168.551 88.1104 168.844 88.0145 169.138C87.9641 169.292 87.9137 169.444 87.8633 169.598C87.0786 171.994 86.2876 174.425 85.5092 176.834C86.1952 176.815 86.8854 176.785 87.5791 176.741C87.5952 176.74 87.6113 176.739 87.6274 176.738C89.754 176.601 91.2415 174.442 90.7158 172.272C90.4603 171.217 90.3161 170.111 90.2993 168.97C90.2034 162.541 94.332 156.906 100.031 155.155C100.661 153.722 101.224 152.436 101.695 151.351C106.709 139.814 105.463 138.78 105.305 138.7L105.722 138.879C106.45 139.19 107.281 138.822 107.578 138.057L107.591 138.024C107.868 137.308 107.575 136.504 106.94 136.147L110.274 126.077C108.732 125.258 107.101 124.523 105.388 123.881Z" fill="#2F2F35"/>
<path opacity="0.42" d="M66.8192 138.027C66.885 139.171 66.0555 140.156 64.9663 140.226C63.8771 140.295 62.9398 139.423 62.874 138.278C62.8082 137.134 63.6377 136.149 64.7269 136.08C65.8161 136.011 66.7527 136.882 66.8192 138.027Z" fill="white"/>
<path opacity="0.42" d="M82.7827 129.321C82.8485 130.466 82.019 131.451 80.9298 131.52C79.8406 131.589 78.9033 130.717 78.8375 129.573C78.7717 128.428 79.6012 127.443 80.6904 127.374C81.7796 127.304 82.7162 128.176 82.7827 129.321Z" fill="white"/>
<path opacity="0.42" d="M99.6856 128.877C99.7514 130.022 98.9219 131.007 97.8327 131.076C96.7435 131.145 95.8062 130.273 95.7404 129.129C95.6746 127.984 96.5041 126.999 97.5933 126.93C98.6825 126.861 99.6191 127.732 99.6856 128.877Z" fill="white"/>
<path opacity="0.42" d="M61.8597 153.759C61.9255 154.904 61.096 155.889 60.0068 155.958C58.9176 156.027 57.9803 155.155 57.9145 154.011C57.8487 152.866 58.6782 151.881 59.7674 151.812C60.8566 151.743 61.7932 152.614 61.8597 153.759Z" fill="white"/>
<path opacity="0.42" d="M75.8674 163.181C75.9332 164.326 75.1037 165.311 74.0145 165.38C72.9253 165.449 71.988 164.577 71.9222 163.433C71.8564 162.288 72.6859 161.303 73.7751 161.234C74.8643 161.165 75.8009 162.037 75.8674 163.181Z" fill="white"/>
<path d="M122.665 120.927C122.665 120.927 129.112 117.224 129.525 111.501C129.499 108.118 128.101 105.343 128.101 105.343L127.219 108.828C127.219 108.828 126.734 103.353 123.013 100.708C119.293 98.0629 120.208 98.8058 120.208 98.8058C120.208 98.8058 123.332 103.163 119.864 110.388C116.397 117.613 120.773 120.117 120.773 120.117L122.665 120.927Z" fill="#EDB62B"/>
<path d="M122.267 118.581C122.267 118.581 121.101 112.297 123.766 108.921C120.301 113.536 119.586 117.244 120.456 120.24C122.267 118.581 122.267 118.581 122.267 118.581Z" fill="#A87D1D"/>
<path d="M119.153 119.822C119.72 118.615 121.079 118.072 122.267 118.581L122.288 118.59L122.309 118.598C123.496 119.107 124.109 120.492 123.712 121.773L119.472 135.459L116.28 134.093L113.088 132.727L119.153 119.822Z" fill="white"/>
<path d="M112.595 135.786L117.995 138.097C118.723 138.409 119.554 138.041 119.851 137.275L119.864 137.242C120.161 136.476 119.811 135.604 119.082 135.292L113.681 132.982C112.953 132.67 112.122 133.038 111.826 133.803L111.813 133.836C111.517 134.601 111.867 135.475 112.595 135.786Z" fill="#CCCCCC"/>
<path d="M113.028 135.971L115.296 136.94L117.563 137.911C117.563 137.911 119.283 138.338 113.968 150.569C110.018 159.659 99.8578 182.458 94.003 194.64C93.4556 195.779 91.8134 195.076 92.1788 193.859C96.0862 180.844 103.97 157.071 107.186 147.667C111.513 135.014 113.028 135.971 113.028 135.971Z" fill="#2F2F35"/>
<path d="M100.936 179.749C98.4053 185.294 95.9623 190.563 94.0023 194.64C93.4549 195.78 91.8127 195.077 92.1781 193.86C93.4864 189.503 95.2406 183.94 97.1152 178.114L100.936 179.749Z" fill="white"/>
<path opacity="0.75" d="M100.136 168.816C108.466 157.981 111.598 137.343 111.612 137.253C110.687 138.668 109.261 141.602 107.186 147.668C105.615 152.264 102.929 160.29 100.136 168.816Z" fill="white"/>
<path d="M261.411 143.407L262.886 146.549L266.186 147.053L263.798 149.499L264.362 152.954L261.411 151.323L258.459 152.954L259.023 149.499L256.635 147.053L259.935 146.549L261.411 143.407Z" fill="#9E9E9E"/>
<path d="M303.899 139.017L305.959 143.405L310.568 144.109L307.233 147.524L308.02 152.347L303.899 150.07L299.778 152.347L300.565 147.524L297.23 144.109L301.839 143.405L303.899 139.017Z" fill="#666666"/>
<path d="M291.004 204.774L292.154 207.222L294.727 207.615L292.865 209.522L293.305 212.213L291.004 210.942L288.704 212.213L289.143 209.522L287.281 207.615L289.854 207.222L291.004 204.774Z" fill="#9E9E9E"/>
<path d="M249.966 188.182L252.027 192.57L256.635 193.273L253.301 196.689L254.088 201.511L249.966 199.235L245.845 201.511L246.632 196.689L243.298 193.273L247.906 192.57L249.966 188.182Z" fill="#666666"/>
<path d="M289.481 198.551C301.261 193.587 306.981 179.528 302.258 167.148C297.534 154.769 284.154 148.758 272.374 153.722C260.594 158.686 254.873 172.745 259.597 185.125C264.321 197.504 277.7 203.515 289.481 198.551Z" fill="#EDB62B"/>
<g opacity="0.67">
<path d="M274.737 199.392C282.855 201.773 291.167 199.258 296.838 193.541C292.998 194.622 288.841 194.675 284.734 193.471C272.509 189.886 265.364 176.567 268.775 163.72C269.921 159.405 272.117 155.695 274.985 152.803C267.395 154.94 261.043 161.112 258.778 169.643C255.368 182.488 262.513 195.808 274.737 199.392Z" fill="#A87D1D"/>
</g>
<path opacity="0.52" d="M287.09 152.872C285.945 152.537 284.796 152.299 283.651 152.152C283.052 154.411 282.725 156.787 282.725 159.246C282.725 171.817 291.1 182.325 302.304 184.964C302.587 184.205 302.836 183.425 303.049 182.623C306.459 169.776 299.314 156.456 287.09 152.872Z" fill="#FFF6E7"/>
<path d="M258.012 174.145C249.097 170.495 243.552 167.193 244.018 165.439C244.793 162.52 261.906 164.988 282.242 170.95C302.578 176.913 318.434 184.113 317.659 187.032C317.195 188.781 310.864 188.596 301.489 186.883" stroke="#666666" stroke-width="2" stroke-miterlimit="10"/>
</g>
</svg>
