<svg width="301" height="217" viewBox="0 0 301 217" fill="none" xmlns="http://www.w3.org/2000/svg">
<g clip-path="url(#clip0_19667_90216)">
<path d="M226.637 195.289C221.517 188.885 230.641 172.825 238.331 165.389C246.021 157.953 264.578 157.697 269.698 164.101C274.817 170.505 275.071 188.402 267.382 195.838C259.692 203.274 231.756 201.693 226.637 195.288V195.289Z" fill="#FFEEEE"/>
<path d="M13.3899 180.294C12.0013 175.386 13.9601 169.443 18.6298 167.146C24.9229 164.051 33.2121 168.225 39.349 164.847C44.6302 161.94 45.5563 154.358 42.568 149.22C39.5797 144.082 33.8288 141.053 28.0705 139.191C22.3123 137.329 16.2406 136.353 10.7028 133.938C7.17748 132.401 3.82085 130.198 1.78141 127.006C-0.256983 123.814 -0.730885 119.499 1.33545 116.322C3.47629 113.032 7.7176 111.664 11.6982 111.261C15.6798 110.86 19.7648 111.173 23.6306 110.164C28.8807 108.794 33.1283 105.159 37.3644 101.844C46.7286 94.515 56.9372 88.2842 67.1188 82.0704C70.5789 79.9582 74.2015 77.7914 78.2658 77.393C84.5683 76.7751 90.5211 80.5159 96.8515 80.7309C101.495 80.8891 105.951 79.1468 110.482 78.143C115.013 77.1404 120.231 77.0232 123.798 79.9195C127.877 83.2312 128.258 89.3619 126.522 94.2475C124.786 99.1332 121.387 103.263 118.799 107.778C116.211 112.292 114.413 117.736 116.226 122.594C118.441 128.534 125.055 131.484 130.537 134.874C136.019 138.263 141.346 144.408 138.923 150.27C137.943 152.642 135.781 154.562 135.459 157.099C134.936 161.214 139.341 164.187 143.271 165.793C149.357 168.281 155.781 169.987 162.322 170.854C167.234 171.504 172.825 171.993 175.858 175.807C177.975 178.469 178.217 182.24 177.086 185.421C175.955 188.602 173.615 191.256 170.985 193.443C161.711 201.156 148.91 203.573 136.71 203.659C124.51 203.746 112.356 201.798 100.157 202.049C89.1335 202.277 78.1986 204.301 67.1716 204.31C56.5936 204.32 45.0213 203.012 35.7471 197.737C27.7788 193.205 16.1206 189.951 13.3879 180.292L13.3899 180.294Z" fill="#FFEEEE"/>
<path d="M132.284 47.3703C132.284 58.8236 121.136 68.1078 107.384 68.1078C93.6313 68.1078 73.625 71.6608 73.625 60.2075C73.625 48.7542 93.6323 26.6328 107.384 26.6328C121.135 26.6328 132.284 35.917 132.284 47.3703Z" fill="#FFEEEE"/>
<path d="M51.2609 64.9875C54.7479 72.6044 42.2371 85.6157 33.0923 90.68C23.9474 95.7443 5.92984 90.8473 2.44284 83.2315C-1.04417 75.6146 2.8112 58.2252 11.9571 53.1609C21.103 48.0966 47.7739 57.3705 51.2609 64.9875Z" fill="#FFEEEE"/>
<path d="M231.396 66.8029C226.277 60.3991 235.401 44.339 243.091 36.903C250.781 29.467 269.337 29.2109 274.457 35.6147C279.577 42.0185 279.831 59.9154 272.142 67.3514C264.452 74.7874 236.516 73.2067 231.396 66.8018V66.8029Z" fill="#FFEEEE"/>
<path d="M188.455 189.698C184.577 186.918 182.292 181.206 184.001 176.475C186.303 170.099 194.308 167.879 196.338 161.391C198.083 155.807 194.126 149.533 189.051 147.613C183.975 145.694 178.341 147.135 173.405 149.456C168.469 151.776 163.859 154.961 158.737 156.725C155.475 157.847 151.924 158.363 148.65 157.288C145.377 156.213 142.461 153.287 141.915 149.577C141.35 145.732 143.334 141.973 145.728 139.104C148.123 136.235 151.018 133.835 152.969 130.587C155.62 126.175 156.243 120.715 157.05 115.501C158.835 103.974 161.841 92.7242 164.84 81.5065C165.859 77.694 166.952 73.7348 169.403 70.8145C173.204 66.2874 179.402 65.2483 183.724 61.3266C186.895 58.4496 188.795 54.2719 191.192 50.5982C193.588 46.9258 196.974 43.4718 201.082 43.3398C205.779 43.1884 209.728 47.5323 211.522 52.3099C213.316 57.0874 213.554 62.3714 214.562 67.4209C215.569 72.4704 217.659 77.7054 221.788 80.1738C226.835 83.1919 232.994 81.1366 238.667 80.1374C244.34 79.1394 251.573 80.3036 253.502 86.2556C254.282 88.6637 254.007 91.4951 255.323 93.6017C257.457 97.0204 262.166 96.4047 265.737 95.0732C271.268 93.011 276.551 90.1454 281.405 86.5742C285.049 83.893 289.046 80.653 293.355 81.5532C296.362 82.1814 298.794 84.8489 299.963 87.9604C301.131 91.0718 301.182 94.5679 300.757 97.9012C299.263 109.657 292.243 119.722 284.214 127.655C276.186 135.589 266.962 141.969 259.035 150.025C251.872 157.306 245.849 165.873 238.552 172.992C231.552 179.821 223.1 186.306 213.778 188.337C205.769 190.083 196.086 195.167 188.455 189.696V189.698Z" fill="#FFEEEE"/>
<path d="M257.898 207.081L1.74839 207.001C1.56214 207.001 1.41211 206.835 1.41211 206.632C1.41211 206.428 1.56318 206.262 1.74839 206.262L257.898 206.341C258.085 206.341 258.235 206.508 258.235 206.711C258.235 206.916 258.084 207.081 257.898 207.081Z" fill="#507CA8"/>
<path d="M207.874 210.675H187.457C187.272 210.675 187.121 210.509 187.121 210.305C187.121 210.102 187.272 209.936 187.457 209.936H207.874C208.06 209.936 208.211 210.102 208.211 210.305C208.211 210.509 208.06 210.675 207.874 210.675Z" fill="#FFA28D"/>
<path d="M154.156 210.675H129.758C129.572 210.675 129.422 210.509 129.422 210.305C129.422 210.102 129.573 209.936 129.758 209.936H154.156C154.342 209.936 154.492 210.102 154.492 210.305C154.492 210.509 154.341 210.675 154.156 210.675Z" fill="#FFA28D"/>
<path d="M93.5167 210.675H52.4125C52.2262 210.675 52.0762 210.509 52.0762 210.305C52.0762 210.102 52.2272 209.936 52.4125 209.936H93.5167C93.703 209.936 93.853 210.102 93.853 210.305C93.853 210.509 93.7019 210.675 93.5167 210.675Z" fill="#FFA28D"/>
<path d="M26.5033 210.675H3.3773C3.19105 210.675 3.04102 210.509 3.04102 210.305C3.04102 210.102 3.19208 209.936 3.3773 209.936H26.5033C26.6895 209.936 26.8396 210.102 26.8396 210.305C26.8396 210.509 26.6885 210.675 26.5033 210.675Z" fill="#FFA28D"/>
<path d="M259.143 216.013H248.887C248.701 216.013 248.551 215.847 248.551 215.643C248.551 215.44 248.702 215.273 248.887 215.273H259.143C259.328 215.273 259.479 215.44 259.479 215.643C259.479 215.847 259.328 216.013 259.143 216.013Z" fill="#FFA28D"/>
<path d="M229.258 216.013H219.051C218.865 216.013 218.715 215.847 218.715 215.643C218.715 215.44 218.866 215.273 219.051 215.273H229.258C229.443 215.273 229.594 215.44 229.594 215.643C229.594 215.847 229.443 216.013 229.258 216.013Z" fill="#FFA28D"/>
<path d="M200.6 216.013H170.461C170.276 216.013 170.125 215.847 170.125 215.643C170.125 215.44 170.276 215.273 170.461 215.273H200.6C200.785 215.273 200.936 215.44 200.936 215.643C200.936 215.847 200.785 216.013 200.6 216.013Z" fill="#FFA28D"/>
<path d="M148.46 216.013H126.686C126.5 216.013 126.35 215.847 126.35 215.643C126.35 215.44 126.501 215.273 126.686 215.273H148.46C148.645 215.273 148.796 215.44 148.796 215.643C148.796 215.847 148.645 216.013 148.46 216.013Z" fill="#FFA28D"/>
<path d="M98.5314 216.013H84.7914C84.6051 216.013 84.4551 215.847 84.4551 215.643C84.4551 215.44 84.6061 215.273 84.7914 215.273H98.5314C98.7177 215.273 98.8677 215.44 98.8677 215.643C98.8677 215.847 98.7166 216.013 98.5314 216.013Z" fill="#FFA28D"/>
<path d="M63.9852 216.013H54.6468C54.4606 216.013 54.3105 215.847 54.3105 215.643C54.3105 215.44 54.4616 215.273 54.6468 215.273H63.9852C64.1714 215.273 64.3215 215.44 64.3215 215.643C64.3215 215.847 64.1704 216.013 63.9852 216.013Z" fill="#FFA28D"/>
<path d="M272.745 208.826H247.828C247.643 208.826 247.492 208.66 247.492 208.456C247.492 208.252 247.643 208.086 247.828 208.086H272.745C272.93 208.086 273.081 208.252 273.081 208.456C273.081 208.66 272.93 208.826 272.745 208.826Z" fill="#FFA28D"/>
<path d="M279.901 207.134H269.645C269.46 207.134 269.309 206.968 269.309 206.764C269.309 206.561 269.46 206.395 269.645 206.395H279.901C280.086 206.395 280.237 206.561 280.237 206.764C280.237 206.968 280.086 207.134 279.901 207.134Z" fill="#FFA28D"/>
<path d="M228.199 208.826H217.993C217.807 208.826 217.656 208.66 217.656 208.456C217.656 208.252 217.807 208.086 217.993 208.086H228.199C228.384 208.086 228.535 208.252 228.535 208.456C228.535 208.66 228.384 208.826 228.199 208.826Z" fill="#FFA28D"/>
<path d="M199.541 208.826H169.403C169.217 208.826 169.066 208.66 169.066 208.456C169.066 208.252 169.217 208.086 169.403 208.086H199.541C199.726 208.086 199.877 208.252 199.877 208.456C199.877 208.66 199.726 208.826 199.541 208.826Z" fill="#FFA28D"/>
<path d="M147.403 208.826H125.629C125.443 208.826 125.293 208.66 125.293 208.456C125.293 208.252 125.444 208.086 125.629 208.086H147.403C147.588 208.086 147.739 208.252 147.739 208.456C147.739 208.66 147.588 208.826 147.403 208.826Z" fill="#FFA28D"/>
<path d="M97.4728 208.826H83.7328C83.5465 208.826 83.3965 208.66 83.3965 208.456C83.3965 208.252 83.5476 208.086 83.7328 208.086H97.4728C97.6591 208.086 97.8091 208.252 97.8091 208.456C97.8091 208.66 97.658 208.826 97.4728 208.826Z" fill="#FFA28D"/>
<path d="M62.9266 208.826H53.5882C53.402 208.826 53.252 208.66 53.252 208.456C53.252 208.252 53.403 208.086 53.5882 208.086H62.9266C63.1128 208.086 63.2629 208.252 63.2629 208.456C63.2629 208.66 63.1118 208.826 62.9266 208.826Z" fill="#FFA28D"/>
<path d="M83.4785 5.26172L84.5132 15.346L84.8226 18.3174L109.075 14.3024L110.268 14.1089L110.364 14.0896L110.104 13.9997L83.4785 5.26172Z" fill="#507CA8"/>
<path d="M83.4785 5.2612L110.268 14.1084L87.8161 0L83.4785 5.2612Z" fill="#FFA28D"/>
<path d="M74.2363 16.4935L110.268 14.1081L81.1979 8.0332L74.2363 16.4935Z" fill="#FFA28D"/>
<path d="M84.8632 9.50879C84.6966 9.47806 84.529 9.44847 84.3613 9.41888L84.4762 8.63477C84.6448 8.66435 84.8125 8.69508 84.9801 8.72467L84.8621 9.50765L84.8632 9.50879Z" fill="#FFA28D"/>
<path d="M69.787 144.62H69.6877L69.6897 143.826H69.788C70.0902 143.826 70.3965 143.822 70.6986 143.816L70.7141 144.61C70.4068 144.617 70.0953 144.621 69.787 144.621V144.62ZM68.6612 144.604C68.3218 144.595 67.9762 144.58 67.6337 144.562L67.6689 143.769C68.0062 143.787 68.3456 143.801 68.6788 143.811L68.6602 144.605L68.6612 144.604ZM71.7395 144.57L71.7054 143.777C72.0417 143.76 72.38 143.737 72.7121 143.711L72.7639 144.503C72.4255 144.53 72.081 144.553 71.7385 144.57H71.7395ZM66.6063 144.493C66.2638 144.465 65.9203 144.433 65.584 144.398L65.6523 143.607C65.9834 143.641 66.3217 143.673 66.658 143.699L66.6052 144.492L66.6063 144.493ZM73.7872 144.407L73.7169 143.616C74.0511 143.58 74.3884 143.539 74.7185 143.493L74.8085 144.281C74.4722 144.328 74.1287 144.37 73.7872 144.406V144.407ZM64.5648 144.28C64.2285 144.237 63.887 144.189 63.5476 144.138L63.647 143.351C63.9812 143.402 64.3185 143.449 64.6486 143.491L64.5648 144.28ZM62.5336 143.971C62.1963 143.912 61.8569 143.849 61.5227 143.783L61.651 143.001C61.98 143.066 62.3153 143.129 62.6474 143.187L62.5336 143.971ZM60.5159 143.571C60.1807 143.497 59.8444 143.418 59.5133 143.338L59.6695 142.563C59.9954 142.642 60.3276 142.72 60.6587 142.792L60.5159 143.571ZM58.5158 143.083C58.1837 142.994 57.8494 142.902 57.5225 142.807L57.7056 142.039C58.0284 142.132 58.3585 142.223 58.6855 142.311L58.5158 143.083ZM56.5343 142.511C56.2115 142.411 55.8804 142.304 55.5513 142.195L55.7603 141.435C56.0852 141.543 56.4122 141.648 56.7309 141.747L56.5353 142.511H56.5343ZM54.5735 141.86C54.2538 141.747 53.9258 141.628 53.6009 141.506L53.8337 140.755C54.1545 140.876 54.4773 140.993 54.7939 141.106L54.5725 141.861L54.5735 141.86ZM52.6355 141.133C52.3158 141.006 51.9929 140.875 51.6753 140.742L51.9319 140C52.2454 140.131 52.5641 140.26 52.8807 140.387L52.6355 141.133ZM50.7213 140.332C50.4036 140.192 50.0839 140.047 49.7703 139.904L50.0497 139.171C50.3591 139.313 50.6747 139.457 50.9892 139.594L50.7213 140.332ZM48.8267 139.458C48.5121 139.307 48.1976 139.151 47.8903 138.996L48.1914 138.274C48.4956 138.428 48.807 138.582 49.1174 138.732L48.8267 139.459V139.458ZM46.96 138.517C46.6517 138.354 46.3413 138.188 46.0381 138.022L46.3599 137.31C46.66 137.474 46.9663 137.639 47.2715 137.8L46.96 138.516V138.517ZM45.1234 137.511C44.8192 137.337 44.514 137.159 44.217 136.984L44.5595 136.285C44.8534 136.459 45.1555 136.634 45.4566 136.806L45.1245 137.511H45.1234ZM43.3178 136.441C43.0209 136.258 42.7208 136.071 42.4269 135.883L42.7891 135.196C43.0798 135.381 43.3758 135.567 43.6696 135.748L43.3168 136.441H43.3178ZM41.5443 135.311C41.2546 135.12 40.9607 134.922 40.67 134.724L41.0508 134.049C41.3384 134.246 41.6292 134.441 41.9158 134.63L41.5443 135.311ZM39.805 134.122C39.5173 133.918 39.2286 133.711 38.9482 133.505L39.3486 132.844C39.626 133.047 39.9115 133.252 40.1961 133.454L39.805 134.122ZM38.1008 132.874C37.8224 132.664 37.54 132.446 37.2627 132.229L37.6807 131.581C37.9549 131.797 38.2343 132.011 38.5105 132.22L38.1008 132.874ZM36.4328 131.571C36.1565 131.348 35.8813 131.122 35.6133 130.899L36.05 130.266C36.3148 130.487 36.588 130.711 36.8601 130.932L36.4328 131.571ZM34.8042 130.212C34.5362 129.981 34.2671 129.747 34.0043 129.513L34.4586 128.895C34.7183 129.126 34.9852 129.359 35.2501 129.587L34.8052 130.211L34.8042 130.212ZM33.2148 128.8C32.953 128.56 32.6913 128.315 32.4357 128.074L32.9065 127.472C33.159 127.711 33.4187 127.953 33.6773 128.19L33.2148 128.8ZM31.6679 127.334C31.4134 127.085 31.1578 126.831 30.9105 126.581L31.3989 125.996C31.6441 126.243 31.8956 126.493 32.148 126.74L31.6679 127.333V127.334ZM30.1645 125.815C29.9192 125.559 29.6719 125.297 29.4298 125.037L29.9348 124.47C30.1738 124.728 30.418 124.987 30.6611 125.24L30.1645 125.816V125.815ZM28.7076 124.245C28.4686 123.978 28.2295 123.707 27.9947 123.436L28.5172 122.888C28.749 123.155 28.9859 123.424 29.2218 123.686L28.7086 124.243L28.7076 124.245ZM27.2931 122.616C27.0613 122.339 26.8296 122.059 26.605 121.782L27.1441 121.254C27.3666 121.528 27.5953 121.805 27.8239 122.078L27.2931 122.616ZM25.9294 120.935C25.7069 120.651 25.4834 120.361 25.2682 120.075L25.8238 119.567C26.037 119.849 26.2574 120.135 26.4767 120.416L25.9294 120.934V120.935ZM24.6204 119.202C24.4094 118.912 24.1962 118.613 23.9872 118.316L24.5584 117.832C24.7643 118.125 24.9743 118.419 25.1833 118.706L24.6194 119.202H24.6204ZM23.3695 117.417C23.1656 117.116 22.9628 116.808 22.7673 116.506L23.355 116.045C23.5485 116.343 23.7492 116.646 23.9499 116.944L23.3705 117.417H23.3695ZM22.1795 115.582C21.9871 115.272 21.7946 114.957 21.6094 114.645L22.2137 114.209C22.3968 114.516 22.5862 114.827 22.7755 115.133L22.1795 115.582ZM21.0558 113.696C20.8748 113.378 20.6947 113.055 20.5199 112.734L21.1396 112.327C21.3114 112.643 21.4894 112.962 21.6674 113.274L21.0558 113.696ZM20.0035 111.761C19.8338 111.433 19.6662 111.101 19.5058 110.776L20.1411 110.398C20.2995 110.719 20.464 111.045 20.6316 111.369L20.0046 111.762L20.0035 111.761ZM19.0268 109.778C18.8715 109.444 18.7174 109.105 18.5684 108.768L19.2182 108.422C19.3641 108.753 19.5162 109.088 19.6683 109.416L19.0257 109.779L19.0268 109.778ZM18.1317 107.747C17.99 107.405 17.8503 107.058 17.7168 106.715L18.3811 106.403C18.5125 106.74 18.6491 107.082 18.7888 107.418L18.1317 107.748V107.747ZM17.3246 105.672C17.1974 105.321 17.0732 104.966 16.9563 104.618L17.633 104.342C17.7478 104.685 17.8699 105.033 17.9951 105.378L17.3246 105.672ZM16.6159 103.547C16.5103 103.191 16.4089 102.825 16.3147 102.461L17.009 102.245C17.1001 102.599 17.1984 102.954 17.3019 103.301L16.6159 103.548V103.547ZM16.053 101.363C15.9733 100.999 15.8978 100.627 15.8284 100.256L16.5362 100.097C16.6034 100.458 16.6769 100.821 16.7545 101.176L16.053 101.363ZM15.6411 99.1414C15.5853 98.7716 15.5346 98.3949 15.489 98.0205L16.2051 97.9169C16.2485 98.2822 16.2992 98.6509 16.353 99.0106L15.6411 99.1414ZM15.3721 96.8949C15.339 96.5228 15.3111 96.1438 15.2883 95.766L16.0085 95.7136C16.0302 96.0824 16.0581 96.4534 16.0913 96.8164L15.3732 96.8938L15.3721 96.8949ZM15.2355 94.6359C15.2231 94.2638 15.2169 93.8825 15.2148 93.5047L15.9371 93.5001C15.9391 93.87 15.9454 94.2433 15.9578 94.6075L15.2366 94.6359H15.2355ZM15.9454 92.3917L15.2231 92.3735C15.2314 92.0002 15.2438 91.6201 15.2614 91.2445L15.9826 91.2855C15.965 91.6542 15.9526 92.0275 15.9454 92.3928V92.3917ZM16.0478 90.1782L15.3276 90.1156C15.3545 89.7423 15.3856 89.3645 15.4218 88.9901L16.1399 89.0731C16.1047 89.4396 16.0737 89.8117 16.0478 90.177V90.1782ZM16.2589 87.9726L15.5428 87.8691C15.5873 87.4969 15.637 87.1214 15.6898 86.7515L16.4027 86.8744C16.351 87.2374 16.3023 87.6073 16.2589 87.9726ZM16.5724 85.7808L15.8626 85.6385C15.9236 85.2698 15.9898 84.8965 16.0592 84.53L16.7659 84.6916C16.6976 85.0524 16.6324 85.4189 16.5724 85.7808ZM16.9832 83.6071L16.2796 83.4273C16.3561 83.0631 16.4389 82.6944 16.5238 82.3313L17.2232 82.5294C17.1394 82.8867 17.0587 83.2497 16.9832 83.6071ZM17.4871 81.4573L16.7928 81.2411C16.8859 80.8792 16.9832 80.5139 17.0835 80.1554L17.7737 80.3887C17.6754 80.7415 17.5781 81.1011 17.4871 81.4573ZM18.0821 79.328L17.3971 79.0776C17.5047 78.7203 17.6175 78.3607 17.7323 78.009L18.4121 78.2765C18.2993 78.6236 18.1876 78.9775 18.0821 79.3292V79.328ZM58.7507 78.3493H58.6338L58.64 77.5549H58.7507C59.0435 77.5549 59.3405 77.5447 59.6312 77.5253L59.6768 78.3174C59.3705 78.3391 59.059 78.3493 58.7507 78.3493ZM57.5928 78.3004C57.2493 78.2719 56.9016 78.2287 56.5581 78.1752L56.6605 77.3888C56.9885 77.4411 57.3207 77.481 57.6477 77.5083L57.5928 78.3004ZM60.7146 78.2036L60.6173 77.4172C60.9174 77.3728 61.2195 77.3159 61.5165 77.2488L61.5941 77.2306L61.7431 78.0079L61.6613 78.0261C61.3489 78.0966 61.0312 78.1558 60.7146 78.2036ZM55.5327 77.9749C55.1975 77.8975 54.857 77.8064 54.5218 77.7052L54.7132 76.9393C55.034 77.036 55.3599 77.1236 55.6807 77.1976L55.5317 77.9749H55.5327ZM62.7581 77.7211L62.5481 76.9609C62.8699 76.8528 63.1793 76.7299 63.47 76.5956L63.7515 77.3273C63.439 77.473 63.1048 77.605 62.7592 77.7211H62.7581ZM53.5285 77.3683C53.2046 77.2465 52.8766 77.1122 52.5558 76.9688L52.8269 76.2325C53.1353 76.3702 53.4498 76.4988 53.7613 76.616L53.5285 77.3683ZM18.7629 77.2317L18.0893 76.9472C18.2114 76.5978 18.3387 76.2439 18.468 75.8968L19.1364 76.1984C19.0092 76.5398 18.884 76.888 18.7639 77.2317H18.7629ZM64.7024 76.8084L64.3402 76.121C64.6258 75.9389 64.8928 75.7375 65.1339 75.5247L65.5871 76.1426C65.317 76.3816 65.02 76.6058 64.7024 76.8084ZM51.6059 76.5113C51.2955 76.3509 50.9841 76.1779 50.6799 75.9981L51.0224 75.2993C51.3152 75.4734 51.6152 75.6396 51.9143 75.7944L51.607 76.5125L51.6059 76.5113ZM49.7807 75.4313C49.4879 75.2356 49.195 75.0285 48.9084 74.8157L49.314 74.1579C49.5893 74.3639 49.8728 74.563 50.1553 74.7519L49.7807 75.4313ZM66.3662 75.3198L65.8209 74.7997C65.8613 74.7485 65.9016 74.6962 65.9399 74.6427C66.0993 74.4242 66.2452 74.192 66.3714 73.9519L66.9953 74.3502C66.8505 74.6245 66.6839 74.8908 66.5018 75.14C66.4573 75.2015 66.4117 75.2606 66.3652 75.3198H66.3662ZM19.5307 75.1741L18.8684 74.8566C19.005 74.5118 19.1468 74.1658 19.2896 73.8267L19.9445 74.1601C19.8038 74.4936 19.6652 74.8339 19.5296 75.173L19.5307 75.1741ZM48.0662 74.1533C47.792 73.9268 47.5188 73.689 47.2549 73.4466L47.7164 72.8366C47.972 73.071 48.2359 73.2998 48.5007 73.5194L48.0662 74.1533ZM67.4506 73.2691L66.7708 73.0027C66.8753 72.6807 66.957 72.3381 67.0139 71.9853L67.7248 72.1242C67.6607 72.5202 67.5686 72.9049 67.4506 73.2691ZM20.3791 73.1587L19.7314 72.8081C19.8814 72.4713 20.0377 72.1321 20.1939 71.801L20.8344 72.1674C20.6802 72.4929 20.5271 72.8263 20.3791 73.1575V73.1587ZM46.4748 72.6966C46.2223 72.4417 45.9709 72.1754 45.7287 71.9068L46.2419 71.348C46.4758 71.6075 46.7179 71.8647 46.9632 72.1105L46.4748 72.6955V72.6966ZM21.3104 71.1898L20.6771 70.8074C20.8406 70.4797 21.0103 70.1485 21.181 69.8265L21.806 70.2248C21.6384 70.5423 21.4718 70.8678 21.3104 71.1898ZM45.0189 71.0794C44.7882 70.7972 44.5616 70.507 44.3453 70.2145L44.9051 69.7127C45.1141 69.9949 45.3324 70.276 45.5559 70.548L45.0189 71.0794ZM67.8335 70.9554L67.1122 70.9304C67.1143 70.8439 67.1164 70.7574 67.1164 70.6709C67.1164 70.408 67.105 70.136 67.0822 69.8617L67.8014 69.79C67.8262 70.0882 67.8386 70.3841 67.8386 70.672C67.8386 70.7676 67.8376 70.8621 67.8345 70.9565L67.8335 70.9554ZM43.711 69.3155C43.5072 69.0105 43.3075 68.6964 43.1181 68.3823L43.7203 67.9441C43.9024 68.248 44.0949 68.5507 44.2925 68.8455L43.711 69.3166V69.3155ZM22.3213 69.2722L21.7056 68.858C21.8826 68.5393 22.0668 68.2184 22.2509 67.9043L22.8573 68.3345C22.6762 68.6429 22.4962 68.9593 22.3213 69.2722ZM66.9415 68.7942C66.8794 68.4494 66.8008 68.0955 66.7077 67.7415L67.4009 67.5196C67.5003 67.8952 67.5841 68.273 67.6503 68.6406L66.9415 68.7942ZM42.5687 67.4195C42.3938 67.0974 42.221 66.7662 42.0565 66.4339L42.6908 66.0538C42.8501 66.3759 43.0178 66.698 43.1875 67.0109L42.5677 67.4195H42.5687ZM23.4129 67.4115L22.8159 66.9654C23.0063 66.657 23.2039 66.3463 23.4015 66.0424L23.9882 66.5045C23.7937 66.8027 23.6002 67.1088 23.4129 67.4115ZM66.3931 66.7105C66.2772 66.3759 66.1479 66.0379 66.0072 65.7056L66.6621 65.3699C66.8101 65.7192 66.9467 66.0754 67.0688 66.4271L66.3941 66.7093L66.3931 66.7105ZM24.5842 65.6134L24.0079 65.1343C24.2138 64.835 24.4249 64.5345 24.637 64.2421L25.202 64.7371C24.994 65.025 24.786 65.3198 24.5842 65.6134ZM41.5826 65.4256C41.4326 65.0899 41.2846 64.7451 41.1449 64.3991L41.804 64.0759C41.9406 64.4128 42.0834 64.7485 42.2303 65.0751L41.5826 65.4268V65.4256ZM65.556 64.7326C65.4898 64.6017 65.4226 64.4719 65.3532 64.3445C65.2539 64.1601 65.1504 63.9735 65.0449 63.7903L65.6554 63.3669C65.764 63.5558 65.8716 63.7493 65.9741 63.9405C66.0465 64.0748 66.1168 64.2102 66.1862 64.3479L65.555 64.7326H65.556ZM25.8404 63.8779L25.2878 63.3669C25.5082 63.079 25.7338 62.791 25.9594 62.5111L26.4995 63.038C26.2781 63.3123 26.0566 63.5945 25.8404 63.8767V63.8779ZM40.7424 63.3544C40.6162 63.0084 40.493 62.6522 40.3761 62.2949L41.0549 62.0251C41.1687 62.3734 41.2887 62.7205 41.4119 63.0574L40.7414 63.3532L40.7424 63.3544ZM64.4923 62.873C64.303 62.5748 64.1043 62.2766 63.9005 61.9853L64.4727 61.5016C64.6827 61.8021 64.8886 62.1105 65.0842 62.4189L64.4923 62.8741V62.873ZM27.1783 62.2197L26.6516 61.6758C26.8865 61.4003 27.1265 61.1272 27.3656 60.862L27.8777 61.422C27.6439 61.6814 27.408 61.95 27.1783 62.2186V62.2197ZM40.0429 61.2217C39.9395 60.8666 39.8381 60.5024 39.7439 60.1383L40.4382 59.9198C40.5303 60.276 40.6286 60.6322 40.73 60.9781L40.0429 61.2217ZM63.2714 61.1284C63.0572 60.8495 62.8337 60.5718 62.6081 60.3033L63.1379 59.7638C63.3707 60.0415 63.6014 60.3272 63.8229 60.6151L63.2714 61.1272V61.1284ZM28.5979 60.6481L28.1012 60.0722C28.3496 59.8128 28.6041 59.5544 28.8576 59.3063L29.3388 59.8981C29.0904 60.1417 28.8411 60.3943 28.5979 60.6481ZM61.9117 59.5123C61.6758 59.2563 61.4306 59.0013 61.1833 58.7555L61.6676 58.166C61.9221 58.4198 62.1756 58.6827 62.4188 58.9467L61.9117 59.5112V59.5123ZM30.0993 59.1732L29.6347 58.5655C29.8965 58.3231 30.1655 58.0829 30.4335 57.8519L30.8795 58.4767C30.6177 58.7032 30.3549 58.9376 30.0983 59.1743L30.0993 59.1732ZM39.477 59.0446C39.3942 58.6827 39.3145 58.3128 39.241 57.9441L39.9457 57.7734C40.0181 58.1341 40.0957 58.4972 40.1764 58.8511L39.4759 59.0446H39.477ZM60.4259 58.0351C60.1703 57.8018 59.9054 57.572 59.6405 57.3523L60.0762 56.7184C60.3504 56.946 60.6225 57.1827 60.8863 57.4229L60.4259 58.0351ZM31.6814 57.8075L31.254 57.1668C31.5303 56.9437 31.8138 56.723 32.0942 56.5124L32.5009 57.1679C32.2267 57.3739 31.9504 57.589 31.6803 57.8064L31.6814 57.8075ZM39.0341 56.8368C38.971 56.4715 38.911 56.097 38.8561 55.7238L39.569 55.5963C39.6228 55.9628 39.6818 56.3303 39.7439 56.6877L39.0351 56.8368H39.0341ZM58.8283 56.707C58.5541 56.4988 58.2726 56.2951 57.9912 56.1016L58.3751 55.429C58.6648 55.6293 58.9556 55.8387 59.238 56.0538L58.8283 56.7082V56.707ZM33.3421 56.5625L32.9561 55.8911C33.2469 55.6885 33.5439 55.4916 33.8367 55.3027L34.1999 55.9889C33.9133 56.1722 33.6246 56.3645 33.3411 56.5614L33.3421 56.5625ZM57.1313 55.5371C56.8416 55.3562 56.5447 55.1809 56.2498 55.0148L56.5778 54.308C56.883 54.4787 57.1883 54.6608 57.4873 54.8475L57.1313 55.5383V55.5371ZM35.0773 55.4518L34.7379 54.7507C35.0411 54.5732 35.3505 54.4002 35.6568 54.2363L35.9713 54.951C35.6733 55.1104 35.3722 55.2776 35.0773 55.4506V55.4518ZM38.7051 54.6062C38.6595 54.2386 38.6171 53.8619 38.5788 53.4852L38.6761 53.4738L38.5116 52.9435C38.8365 52.8217 39.1676 52.7057 39.4945 52.5998L39.6984 53.3612C39.568 53.4033 39.4366 53.4477 39.3062 53.4932C39.3414 53.8312 39.3797 54.1692 39.42 54.5004L38.7051 54.6073V54.6062ZM55.3475 54.5356C55.0443 54.3831 54.7349 54.2375 54.4276 54.1009L54.6977 53.3646C55.0153 53.5057 55.334 53.6559 55.6476 53.813L55.3475 54.5356ZM36.8798 54.4924L36.5911 53.764C36.9057 53.6127 37.2264 53.4682 37.5431 53.3327L37.8048 54.0725C37.4975 54.2045 37.1861 54.3456 36.8798 54.4924ZM53.4902 53.7117C53.1756 53.5899 52.8559 53.475 52.5382 53.3691L52.7472 52.6089C53.0742 52.717 53.4053 52.8365 53.7302 52.9617L53.4902 53.7106V53.7117ZM51.5739 53.0755C51.251 52.9856 50.923 52.9037 50.5981 52.8308L50.7419 52.0524C51.0782 52.1275 51.4166 52.2129 51.7508 52.3051L51.5739 53.0755ZM40.6648 53.0721L40.491 52.3017C40.8242 52.2106 41.1635 52.1264 41.5009 52.0513L41.6437 52.8297C41.3177 52.9025 40.9887 52.9833 40.6648 53.0721ZM49.6131 52.6385C49.283 52.5828 48.9488 52.5338 48.6197 52.494L48.6994 51.7042C49.0388 51.7451 49.3834 51.7952 49.7238 51.8533L49.6141 52.6385H49.6131ZM42.6318 52.6351L42.5201 51.851C42.8595 51.7929 43.203 51.7417 43.5434 51.7008L43.6231 52.4906C43.293 52.5304 42.9598 52.5793 42.6318 52.6362V52.6351ZM47.6223 52.3961C47.2891 52.3711 46.9528 52.3551 46.6217 52.346L46.6382 51.5517C46.9797 51.5608 47.3274 51.5779 47.6709 51.6029L47.6223 52.395V52.3961ZM44.6205 52.3927L44.5729 51.6006C44.9144 51.5756 45.2621 51.5596 45.6046 51.5517L45.6201 52.346C45.2879 52.354 44.9517 52.3699 44.6205 52.3938V52.3927ZM38.4774 52.3631C38.4484 51.9944 38.4215 51.6165 38.3988 51.2387L39.1189 51.1864C39.1407 51.5585 39.1676 51.9306 39.1965 52.2937L38.4774 52.3631ZM38.3429 50.112C38.3274 49.741 38.316 49.3621 38.3077 48.9854L39.03 48.966C39.0382 49.337 39.0496 49.7115 39.0651 50.0768L38.3439 50.112H38.3429ZM38.2922 47.8587C38.2922 47.7369 38.2922 47.6163 38.2922 47.4945C38.2922 47.2408 38.2932 46.9858 38.2963 46.732L39.0186 46.7411C39.0155 46.9915 39.0144 47.243 39.0144 47.4934C39.0144 47.6129 39.0144 47.7324 39.0144 47.853L38.2922 47.8576V47.8587ZM39.0382 45.6293L38.316 45.6065C38.3222 45.3709 38.3294 45.1354 38.3377 44.8998C38.3429 44.7609 38.3481 44.621 38.3532 44.4821L39.0744 44.5174C39.0693 44.6551 39.0631 44.7928 39.0589 44.9305C39.0506 45.1627 39.0434 45.396 39.0372 45.6293H39.0382ZM39.1293 43.4055L38.4081 43.3577C38.4288 42.981 38.4526 42.6032 38.4784 42.2345L39.1986 42.2959C39.1727 42.6612 39.15 43.0345 39.1293 43.4067V43.4055ZM39.2855 41.1863L38.5664 41.1112C38.5985 40.7345 38.6337 40.3578 38.6719 39.9914L39.389 40.0802C39.3517 40.4421 39.3176 40.8153 39.2855 41.1863ZM39.5111 38.9762L38.7951 38.8727C38.8396 38.5005 38.8872 38.125 38.9379 37.7574L39.6518 37.8758C39.6022 38.2388 39.5546 38.6098 39.5111 38.9762ZM39.8122 36.7787L39.1003 36.6444C39.1583 36.2745 39.2193 35.9012 39.2835 35.5348L39.9922 35.685C39.9291 36.0458 39.8681 36.4134 39.8112 36.7775L39.8122 36.7787ZM40.194 34.597L39.4883 34.4297C39.5608 34.061 39.6363 33.6912 39.7149 33.3293L40.4175 33.5136C40.3399 33.8687 40.2654 34.234 40.194 34.5959V34.597ZM40.6627 32.4382L39.9643 32.2356C40.0512 31.8714 40.1433 31.5061 40.2375 31.1476L40.9307 31.3684C40.8376 31.7201 40.7476 32.0797 40.6617 32.437L40.6627 32.4382ZM41.2246 30.3077L40.5365 30.0676C40.64 29.7091 40.7486 29.3484 40.8593 28.9956L41.5412 29.255C41.4326 29.601 41.325 29.9561 41.2236 30.3077H41.2246ZM41.8847 28.2137L41.2091 27.9338C41.3301 27.581 41.4564 27.227 41.5847 26.8822L42.2531 27.1827C42.1269 27.5218 42.0027 27.8678 41.8847 28.2137ZM42.6484 26.1641L41.9882 25.842C42.1269 25.4972 42.2717 25.1512 42.4187 24.8155L43.0695 25.1592C42.9257 25.4892 42.7839 25.8272 42.6473 26.1641H42.6484ZM43.5196 24.168L42.8781 23.8027C43.0364 23.4681 43.1999 23.1323 43.3654 22.8057L43.9956 23.1927C43.8331 23.5113 43.6727 23.8391 43.5186 24.1668L43.5196 24.168ZM44.5015 22.2367L43.8828 21.827C44.0608 21.5027 44.2449 21.1806 44.4302 20.8676L45.0344 21.3024C44.8534 21.6074 44.6733 21.9226 44.5005 22.2378L44.5015 22.2367ZM45.5994 20.3885L45.0096 19.9299C45.2083 19.6215 45.4131 19.3142 45.6201 19.0172L46.1933 19.4997C45.9915 19.7888 45.7918 20.0881 45.5984 20.3885H45.5994ZM46.8193 18.6382L46.2637 18.1306C46.483 17.8404 46.7096 17.5514 46.9383 17.2725L47.4753 17.804C47.2529 18.0749 47.0325 18.356 46.8193 18.6382ZM48.1603 17.0005L47.644 16.4452C47.883 16.1754 48.1313 15.908 48.3807 15.6497L48.8753 16.2278C48.6332 16.4782 48.3921 16.7388 48.1603 16.9994V17.0005ZM49.6193 15.4903L49.1464 14.8895C49.4051 14.6425 49.6731 14.399 49.9411 14.1645L50.3901 14.7859C50.1294 15.0135 49.8707 15.2502 49.6193 15.4892V15.4903ZM51.1879 14.1201L50.7626 13.4783C51.0389 13.2575 51.3235 13.039 51.609 12.8296L52.0095 13.4908C51.7322 13.6945 51.4549 13.9062 51.1879 14.1213V14.1201ZM52.8528 12.899L52.4772 12.2207C52.7679 12.0261 53.068 11.8338 53.367 11.6517L53.7178 12.3459C53.426 12.5235 53.1353 12.7101 52.8528 12.899ZM54.6035 11.8292L54.2776 11.1202C54.5808 10.9518 54.8932 10.7868 55.2057 10.6286L55.5068 11.3501C55.2026 11.5038 54.8984 11.6642 54.6035 11.8281V11.8292ZM56.4277 10.9097L56.1515 10.1757C56.465 10.0334 56.7878 9.89342 57.1106 9.76141L57.3631 10.5057C57.0475 10.6354 56.733 10.7709 56.4277 10.9097ZM58.3109 10.137L58.0823 9.38358C58.4051 9.26522 58.7352 9.15028 59.0652 9.04216L59.2711 9.80352C58.9493 9.90936 58.6265 10.0209 58.3109 10.137ZM60.2407 9.50421L60.0565 8.73603C60.3855 8.64043 60.7218 8.54939 61.056 8.46404L61.2185 9.23791C60.8905 9.32099 60.5614 9.41089 60.2396 9.50421H60.2407ZM83.3594 9.24474C83.0262 9.18897 82.691 9.13435 82.3557 9.08086L82.4582 8.29447C82.7955 8.34795 83.1318 8.40258 83.4681 8.45948L83.3594 9.24474ZM62.2056 9.00347L62.0628 8.22505C62.395 8.15107 62.7354 8.08165 63.0748 8.01678L63.1979 8.79976C62.8658 8.86349 62.5315 8.93177 62.2056 9.00461V9.00347ZM81.3521 8.92722C81.0178 8.87828 80.6826 8.83049 80.3463 8.78383L80.4353 7.9963C80.7737 8.04296 81.111 8.09076 81.4483 8.14083L81.3521 8.92836V8.92722ZM79.3395 8.65181C79.0043 8.60971 78.668 8.56987 78.3317 8.53232L78.4052 7.74251C78.7446 7.78007 79.0829 7.82104 79.4213 7.86315L79.3395 8.65181ZM64.1954 8.62336L64.0909 7.83811C64.4251 7.78462 64.7676 7.73341 65.1101 7.68789L65.197 8.47655C64.8607 8.52208 64.5234 8.57101 64.1954 8.6245V8.62336ZM77.3229 8.42534C76.9866 8.39234 76.6503 8.36047 76.313 8.33202L76.3689 7.53994C76.7082 7.56839 77.0487 7.60026 77.387 7.6344L77.3218 8.42534H77.3229ZM66.2027 8.35478L66.1324 7.56384C66.4697 7.52742 66.8142 7.49442 67.1567 7.46597L67.2116 8.25805C66.8743 8.2865 66.5349 8.31837 66.2038 8.35365L66.2027 8.35478ZM75.3031 8.2535C74.9658 8.2296 74.6253 8.20798 74.2922 8.18977L74.3284 7.39655C74.6647 7.41476 75.0082 7.43638 75.3496 7.46028L75.3031 8.25236V8.2535ZM68.2204 8.18635L68.1811 7.39313C68.5184 7.37265 68.863 7.35558 69.2065 7.34306L69.2314 8.13628C68.892 8.1488 68.5526 8.16587 68.2204 8.18635ZM73.2802 8.14311C72.9398 8.13059 72.5994 8.12035 72.2683 8.11352L72.2817 7.31916C72.617 7.32599 72.9615 7.33623 73.305 7.34875L73.2802 8.14197V8.14311ZM70.2443 8.10896L70.233 7.31461C70.532 7.30892 70.8383 7.30664 71.1425 7.30664H71.2594L71.2573 8.101H71.1425C70.8424 8.101 70.5403 8.10327 70.2443 8.10896Z" fill="#FFA28D"/>
<path d="M75.8254 144.127L75.7168 143.342C75.8834 143.313 76.0489 143.285 76.2145 143.254L76.3335 144.037C76.1648 144.068 75.9951 144.097 75.8254 144.126V144.127Z" fill="#FFA28D"/>
<path d="M172.505 15.2166L172.058 12.4261L173.624 11.3427C173.224 10.1967 172.662 9.13715 171.967 8.1994L170.337 9.14511L168.364 7.3231L168.928 5.39069C167.975 4.8046 166.93 4.37897 165.825 4.14453L165.127 6.028H162.551L161.853 4.14453C160.747 4.37783 159.703 4.8046 158.75 5.39069L159.314 7.3231L157.341 9.14511L155.71 8.1994C155.016 9.13715 154.454 10.1967 154.053 11.3427L155.619 12.4261L155.172 15.2166L153.365 15.6456C153.383 16.8975 153.584 18.1004 153.938 19.2248L155.77 18.9483L157.058 21.4019L155.928 23.0031C156.652 23.9204 157.505 24.7125 158.457 25.3418L159.697 23.8373L162.117 24.8058L162.187 26.8383C162.725 26.9328 163.277 26.9817 163.839 26.9817C164.401 26.9817 164.952 26.9328 165.49 26.8383L165.56 24.8058L167.981 23.8373L169.22 25.3418C170.172 24.7125 171.026 23.9204 171.749 23.0031L170.619 21.4019L171.907 18.9483L173.739 19.2248C174.094 18.1004 174.295 16.8975 174.312 15.6456L172.505 15.2166ZM163.838 20.4209C161.35 20.4209 159.326 18.1949 159.326 15.459C159.326 12.7231 161.35 10.4971 163.838 10.4971C166.325 10.4971 168.349 12.7231 168.349 15.459C168.349 18.1949 166.325 20.4209 163.838 20.4209Z" fill="#FFA28D"/>
<path d="M163.838 8.81641C160.509 8.81641 157.799 11.797 157.799 15.4592C157.799 19.1214 160.509 22.102 163.838 22.102C167.168 22.102 169.878 19.1214 169.878 15.4592C169.878 11.797 167.168 8.81641 163.838 8.81641ZM163.838 20.4211C161.351 20.4211 159.327 18.1951 159.327 15.4592C159.327 12.7233 161.351 10.4973 163.838 10.4973C166.326 10.4973 168.35 12.7233 168.35 15.4592C168.35 18.1951 166.326 20.4211 163.838 20.4211Z" fill="#507CA8"/>
<path d="M150.601 40.8051L150.025 37.2089L152.042 35.8125C151.525 34.3353 150.801 32.9697 149.906 31.7611L147.805 32.9799L145.262 30.6321L145.99 28.1409C144.761 27.3864 143.415 26.8367 141.99 26.5352L141.09 28.9615H137.771L136.871 26.5352C135.446 26.8367 134.1 27.3864 132.872 28.1409L133.599 30.6321L131.057 32.9799L128.955 31.7611C128.06 32.9697 127.336 34.3342 126.819 35.8125L128.836 37.2089L128.26 40.8051L125.932 41.3582C125.954 42.9708 126.213 44.522 126.67 45.9707L129.031 45.6145L130.69 48.7772L129.234 50.8405C130.167 52.0229 131.267 53.0426 132.494 53.8551L134.091 51.917L137.211 53.1655L137.302 55.7841C137.996 55.9059 138.706 55.9696 139.431 55.9696C140.155 55.9696 140.866 55.9059 141.559 55.7841L141.65 53.1655L144.77 51.917L146.367 53.8551C147.595 53.0437 148.694 52.0229 149.627 50.8405L148.171 48.7772L149.831 45.6145L152.191 45.9707C152.648 44.522 152.907 42.9708 152.93 41.3582L150.601 40.8051ZM139.43 47.5128C136.224 47.5128 133.615 44.6438 133.615 41.1181C133.615 37.5924 136.224 34.7234 139.43 34.7234C142.635 34.7234 145.244 37.5924 145.244 41.1181C145.244 44.6438 142.635 47.5128 139.43 47.5128Z" fill="#FFA28D"/>
<path d="M139.429 32.5586C135.137 32.5586 131.645 36.3995 131.645 41.1201C131.645 45.8408 135.137 49.6817 139.429 49.6817C143.721 49.6817 147.213 45.8408 147.213 41.1201C147.213 36.3995 143.721 32.5586 139.429 32.5586ZM139.429 47.5148C136.223 47.5148 133.615 44.6458 133.615 41.1201C133.615 37.5945 136.223 34.7254 139.429 34.7254C142.634 34.7254 145.243 37.5945 145.243 41.1201C145.243 44.6458 142.634 47.5148 139.429 47.5148Z" fill="#507CA8"/>
<path d="M47.3465 132.616C44.5062 128.057 45.2605 124.122 43.6381 121.888C42.4751 120.35 34.0018 125.582 33.4751 125.783C28.765 128.849 21.969 132.618 20.2358 137.457C20.031 138.193 19.9078 138.978 19.884 139.823C19.7764 143.598 21.3854 147.159 22.3756 150.824C22.8082 152.428 22.7564 154.308 23.4362 155.808C24.8031 154.904 25.8678 153.079 26.7939 151.72C27.603 150.532 28.3543 149.282 29.4076 148.316C30.9059 146.941 32.7746 146.642 34.872 147.06C36.8286 147.449 38.9187 148.809 38.3931 151.075C38.1024 152.33 37.1111 153.231 36.0567 153.907C33.8621 155.315 31.2846 156.009 28.8633 156.99C27.7272 157.45 26.0137 157.96 25.1942 158.89C24.1616 160.061 24.9604 161.677 25.2853 163.341C26.2496 168.284 26.7049 173.148 28.6843 177.933C29.3393 179.513 31.0114 183.773 32.4052 184.57C35.1399 181.711 36.87 177.935 38.1965 174.154C39.4475 170.588 39.7714 166.251 42.9955 163.965C44.409 162.963 46.6171 162.816 48.0367 164.12C48.7269 164.754 49.1232 165.628 49.2659 166.529C49.3467 167.037 49.3467 167.554 49.2742 168.041C49.0725 169.394 48.3968 170.574 47.7045 171.702C44.6759 176.633 41.1124 181.167 37.4805 185.624C36.9321 186.296 35.5052 187.403 35.7163 188.345C35.9108 189.214 38.2514 190.752 38.9415 191.313C41.2748 193.208 43.8078 194.835 46.4494 196.19C48.3999 197.192 50.4103 198.052 52.4591 198.749C53.9532 199.257 55.3967 200.011 56.9591 200.07C57.2033 200.079 57.4609 200.07 57.6523 199.937C57.8914 199.771 57.969 199.454 58.03 199.16C58.4987 196.879 58.774 194.538 58.8547 192.17C58.9199 190.271 58.4232 187.871 59.0316 186.103C59.5076 184.719 61.0524 183.831 62.5373 184.256C63.4902 184.528 64.3118 185.274 64.8323 186.149C65.3527 187.025 65.599 188.017 65.7087 188.993C65.9549 191.186 64.6377 192.896 64.1307 194.937C63.961 195.621 61.0617 201.078 60.6065 201.07C61.8067 201.09 65.9073 200.729 67.09 200.601C73.9523 199.862 80.3448 196.426 83.9342 190.765C85.5763 188.175 86.5676 185.126 86.8356 181.945C87.087 178.957 86.1578 176.409 85.8153 173.479C85.7605 173.013 85.8309 172.615 85.9944 172.266C104.278 165.586 105.25 143.93 91.5332 131.17C91.3697 132.876 91.9926 134.99 92.6083 136.856C97.993 151.555 86.0409 151.052 86.0233 143.458C88.1859 129.36 88.8667 128.653 84.642 126.591C81.1819 124.625 74.9249 122.487 71.172 121.345L72.0122 124.196C77.848 140.732 64.3284 144.108 65.6694 134.224C66.3181 129.513 67.9499 125.359 68.521 120.606C59.3979 118.659 53.5062 119.376 45.9621 120.707C47.2379 123.127 49.4584 125.221 50.8408 127.67C53.4648 132.22 51.7472 138.057 47.3486 132.616H47.3465ZM33.025 133.614C31.982 130.213 36.5513 129.662 37.3729 132.581C38.1106 135.771 33.9407 136.09 33.025 133.614ZM73.1297 190.801C73.6688 191.059 74.1572 191.645 74.3713 192.194C74.5948 192.767 74.5917 193.441 74.3631 193.962C73.8633 195.102 72.5192 195.431 71.3469 194.87C70.8078 194.612 70.3194 194.026 70.1052 193.477C69.8817 192.904 69.8848 192.23 70.1135 191.709C70.6132 190.568 71.9573 190.24 73.1297 190.801ZM76.0507 181.466C76.5898 181.725 77.0782 182.311 77.2924 182.859C77.5159 183.433 77.5128 184.107 77.2841 184.628C76.7843 185.768 75.4402 186.097 74.2679 185.536C73.7288 185.278 73.2404 184.692 73.0262 184.143C72.8027 183.569 72.8058 182.896 73.0345 182.374C73.5343 181.234 74.8784 180.905 76.0507 181.466Z" fill="#AEF0FF"/>
<path d="M85.9693 172.544C85.96 172.544 85.9507 172.544 85.9414 172.542C85.8989 172.536 81.6493 171.962 76.4043 169.691C71.5587 167.594 64.8424 163.578 60.3631 156.358C55.5196 148.552 46.1191 143.927 40.9466 141.865C33.7449 138.993 27.3483 137.998 26.1076 138.572C25.9897 138.627 25.8531 138.567 25.8034 138.436C25.7538 138.306 25.8086 138.156 25.9276 138.101C27.2676 137.48 33.6911 138.428 41.1059 141.384C45.1868 143.012 48.857 144.962 52.016 147.185C55.8062 149.852 58.7437 152.841 60.748 156.071C65.158 163.179 71.7833 167.14 76.5637 169.211C81.7549 171.46 85.9558 172.03 85.9972 172.035C86.1245 172.053 86.2156 172.179 86.2 172.32C86.1856 172.45 86.0852 172.545 85.9693 172.545V172.544Z" fill="#C388EA"/>
<path d="M35.9593 159.792C35.861 159.792 35.77 159.724 35.7379 159.615C35.6986 159.481 35.7648 159.337 35.8869 159.293C36.9671 158.906 37.9439 157.837 39.0759 156.599C40.7521 154.764 42.8381 152.48 46.3127 151.167C52.1382 148.963 56.0567 150.555 56.2212 150.624C56.3412 150.674 56.4012 150.822 56.3557 150.954C56.3102 151.086 56.1757 151.152 56.0557 151.102C56.0174 151.086 52.1196 149.511 46.4638 151.65C43.0906 152.926 41.047 155.163 39.4039 156.962C38.2295 158.246 37.2155 159.356 36.0307 159.78C36.0069 159.79 35.9821 159.793 35.9583 159.793L35.9593 159.792Z" fill="#C388EA"/>
<path d="M60.515 156.549C60.4457 156.549 60.3764 156.515 60.3308 156.449C60.1415 156.178 55.7191 149.755 57.086 143.726C58.6008 137.047 59.2516 129.257 57.563 127.293C57.475 127.19 57.4792 127.029 57.5723 126.931C57.6654 126.834 57.8123 126.839 57.9013 126.941C60.0732 129.469 58.6132 139.107 57.5371 143.85C56.2251 149.637 60.6547 156.073 60.6992 156.137C60.7778 156.248 60.7582 156.409 60.6568 156.495C60.6144 156.53 60.5647 156.548 60.515 156.548V156.549Z" fill="#C388EA"/>
<path d="M49.8593 185.39C49.7579 185.39 49.6648 185.316 49.6358 185.203C49.6007 185.068 49.6731 184.927 49.7962 184.888C51.5759 184.336 53.9651 181.081 56.495 177.634C58.0843 175.468 59.7285 173.229 61.3065 171.56C65.4039 167.227 73.1943 167.741 73.5244 167.765C73.6527 167.774 73.749 167.896 73.7407 168.037C73.7324 168.178 73.6217 168.283 73.4934 168.275C73.4147 168.269 65.5757 167.754 61.6282 171.929C60.072 173.575 58.4372 175.802 56.8572 177.956C54.2797 181.468 51.845 184.786 49.9225 185.381C49.9018 185.388 49.88 185.39 49.8593 185.39Z" fill="#C388EA"/>
<path d="M79.1246 170.748C79.0419 170.748 78.9622 170.699 78.9197 170.614C78.8928 170.56 76.2222 165.073 74.8978 157.795C74.1187 153.515 73.949 149.459 74.3949 145.739C74.9526 141.078 76.4809 136.938 78.9373 133.432C79.016 133.32 79.1619 133.299 79.2633 133.385C79.3647 133.472 79.3843 133.632 79.3057 133.744C73.8548 141.522 74.1466 151.054 75.351 157.681C76.661 164.887 79.3026 170.316 79.3285 170.371C79.3895 170.495 79.3471 170.649 79.2343 170.717C79.1991 170.737 79.1608 170.747 79.1236 170.747L79.1246 170.748Z" fill="#C388EA"/>
<path d="M46.2999 111.725C44.5233 110.949 42.817 109.441 41.0776 108.747C41.6095 115.065 42.2262 119.953 45.0872 127.091C47.9482 125.954 50.2432 124.041 53.0638 122.846C58.9845 120.357 59.3208 131.821 47.9565 129.419L46.0277 129.14C47.4174 132.029 49.879 136.81 51.7301 139.343C53.7778 142.484 54.0965 141.831 62.4963 138.078C67.2354 137.017 69.7063 146.657 59.5691 144.362C58.2943 144.126 56.8644 143.919 55.8296 144.294C66.2617 153.634 79.5889 149.777 80.4539 133.976C80.6412 133.794 80.8771 133.68 81.1772 133.659C83.0655 133.523 84.8215 133.917 86.6395 133.29C88.5744 132.622 90.2962 131.385 91.6144 129.684C94.4961 125.968 95.4842 120.286 94.7072 114.606C94.5737 113.628 94.0584 110.245 93.8297 109.272C93.9166 109.641 91.037 112.769 90.6418 113.004C89.4611 113.705 88.6323 115.017 87.221 115.128C86.5929 115.177 85.9286 115.117 85.2892 114.818C84.6497 114.519 84.0361 113.957 83.6946 113.221C83.1618 112.074 83.437 110.694 84.213 110.111C85.2064 109.367 86.7916 109.431 87.9639 109.109C89.426 108.708 90.8363 108.153 92.1731 107.449C92.3459 107.358 92.5291 107.25 92.5901 107.033C92.6388 106.859 92.5974 106.648 92.5477 106.451C92.229 105.19 91.4985 104.124 90.9118 102.981C90.1078 101.415 89.2076 99.9029 88.2319 98.4598C86.9095 96.5058 85.4382 94.677 83.8354 93.0496C83.3615 92.5682 81.9801 90.8839 81.4027 90.8486C80.7778 90.811 80.3453 92.1266 80.0245 92.6672C77.9013 96.2486 75.717 99.7868 73.1902 102.945C72.6118 103.668 71.9982 104.383 71.1911 104.738C70.9003 104.866 70.5785 104.939 70.2474 104.946C69.6597 104.957 69.043 104.759 68.5236 104.288C67.4537 103.318 67.1474 101.504 67.5168 100.214C68.3601 97.2706 71.0059 96.3932 73.0039 94.8727C75.122 93.2601 77.1635 91.3197 78.4528 88.6931C77.7047 87.6734 74.7464 86.9178 73.6423 86.6094C70.3023 85.6784 67.1878 85.9971 63.9305 85.9129C62.8347 85.8844 61.6831 85.4645 61.1388 86.4694C60.7073 87.2671 60.699 88.7307 60.6173 89.7196C60.4424 91.8262 60.4745 94.018 59.9934 96.0005C59.7626 96.9519 59.3787 97.8851 58.6493 98.2994C57.331 99.0471 56.1059 97.5414 55.5099 96.0062C54.8705 94.3606 54.7204 92.8003 55.3071 91.388C55.72 90.3956 56.3636 89.607 56.9575 88.7819C57.6383 87.8373 58.5841 86.7141 58.9007 85.4747C57.8432 85.1356 56.6791 85.4429 55.602 85.3188C53.1373 85.0332 50.626 84.2297 48.2927 84.8511C47.7712 84.9899 47.3025 85.2016 46.8814 85.4724C44.1777 87.5653 43.054 93.6209 41.9923 97.8817C41.9623 98.3381 40.2302 105.963 41.3984 106.69C43.084 107.693 45.4017 106.523 48.7563 108.186C52.9428 110.99 49.613 113.211 46.303 111.723L46.2999 111.725ZM46.9321 100.088C44.964 99.8335 44.4829 96.0426 46.7914 96.4091C48.5007 96.8028 49.0543 100.236 46.9321 100.088ZM89.7095 118.322C89.993 118.063 90.4131 117.965 90.8104 118.065C91.1912 118.162 91.6444 118.475 91.9031 118.876C92.4649 119.75 92.5022 120.889 91.8814 121.456C91.5978 121.716 91.1777 121.814 90.7804 121.714C90.3996 121.617 89.9464 121.304 89.6877 120.902C89.1259 120.028 89.0886 118.89 89.7095 118.322ZM84.4169 122.016C84.7004 121.757 85.1205 121.659 85.5178 121.759C85.8986 121.856 86.3518 122.169 86.6105 122.571C87.1723 123.445 87.2096 124.583 86.5888 125.15C86.3053 125.41 85.8852 125.508 85.4878 125.408C85.107 125.311 84.6538 124.998 84.3952 124.596C83.8333 123.722 83.7961 122.584 84.4169 122.016Z" fill="#F9CDE6"/>
<path d="M80.4636 134.197C80.3725 134.197 80.2866 134.136 80.2535 134.036C80.2421 134.003 79.1298 130.673 76.7924 126.776C74.6412 123.19 70.9803 118.375 65.7623 115.802C60.2151 113.067 55.7834 106.735 53.0424 101.905C50.0997 96.7201 48.0861 91.3497 48.2517 90.0125C48.2682 89.8782 48.381 89.7848 48.5031 89.8031C48.6252 89.8213 48.7111 89.9453 48.6946 90.0796C48.5631 91.138 50.3822 96.2911 53.4222 101.647C55.6396 105.554 60.2151 112.53 65.9464 115.356C71.2659 117.979 74.9878 122.874 77.1731 126.518C79.5375 130.461 80.6643 133.836 80.6746 133.869C80.7171 133.997 80.657 134.137 80.5412 134.184C80.5163 134.194 80.4905 134.198 80.4646 134.198L80.4636 134.197Z" fill="#C388EA"/>
<path d="M61.7198 112.995C61.6464 112.995 61.575 112.955 61.5325 112.882C61.4601 112.758 59.7549 109.79 60.0777 104.732C60.2702 101.712 61.3215 99.6863 62.1658 98.0601C62.7308 96.9721 63.2181 96.0321 63.2636 95.1114C63.2698 94.976 63.3743 94.8724 63.4985 94.8792C63.6216 94.8872 63.7158 95.0021 63.7086 95.1376C63.6579 96.1732 63.1457 97.1599 62.5528 98.3025C61.7312 99.8866 60.7089 101.858 60.5227 104.767C60.2102 109.662 61.8906 112.586 61.9071 112.616C61.9744 112.73 61.9444 112.881 61.8409 112.955C61.8036 112.981 61.7612 112.994 61.7198 112.994V112.995Z" fill="#C388EA"/>
<path d="M48.7231 118.024C48.0557 118.024 47.4876 117.9 47.0799 117.607C46.9765 117.533 46.9475 117.382 47.0148 117.268C47.082 117.154 47.2196 117.122 47.3231 117.196C48.8183 118.265 53.6401 116.595 57.4189 114.482C60.9628 112.501 65.7939 115.2 65.9977 115.316C66.1074 115.379 66.1498 115.527 66.0929 115.646C66.036 115.767 65.9015 115.814 65.7929 115.752C65.7453 115.725 60.9607 113.053 57.6217 114.919C55.4157 116.153 51.313 118.024 48.7231 118.024Z" fill="#C388EA"/>
<path d="M75.5532 124.678C75.458 124.678 75.37 124.611 75.34 124.505C75.2655 124.24 73.5344 117.966 75.5066 114.003C76.264 112.482 77.365 110.827 78.4297 109.227C80.1163 106.691 81.7097 104.297 81.7325 102.79C81.7346 102.656 81.8339 102.549 81.955 102.549H81.9591C82.0822 102.551 82.1805 102.663 82.1785 102.798C82.1536 104.461 80.5198 106.917 78.7898 109.517C77.7333 111.105 76.6407 112.746 75.8977 114.24C74.0166 118.019 75.7487 124.298 75.7663 124.361C75.8025 124.49 75.7363 124.627 75.6194 124.668C75.5977 124.676 75.5749 124.679 75.5532 124.679V124.678Z" fill="#C388EA"/>
<path d="M55.0954 134.11C55.0478 134.11 55.0003 134.093 54.9599 134.059C54.8626 133.976 54.844 133.822 54.9195 133.715C56.6703 131.21 58.9881 129.374 61.8066 128.256C64.0541 127.365 66.6212 126.929 69.4398 126.954C74.2264 127.001 78.1387 128.397 78.1769 128.412C78.2939 128.454 78.358 128.593 78.3187 128.722C78.2804 128.85 78.1542 128.921 78.0373 128.877C77.999 128.864 74.1426 127.488 69.4232 127.445C65.0919 127.408 59.1205 128.512 55.2724 134.015C55.2289 134.077 55.1627 134.11 55.0954 134.11Z" fill="#C388EA"/>
<path d="M257.648 116.472C261.286 115.596 263.534 117.262 265.382 116.659C266.667 116.208 265.759 108.349 265.781 107.895C265.178 103.483 264.717 97.2974 262.178 94.6401C261.776 94.2805 261.319 93.9686 260.799 93.7149C258.472 92.5825 255.799 92.8056 253.233 92.5324C252.111 92.4129 250.951 91.8496 249.825 91.9452C250.008 93.2301 250.851 94.5422 251.443 95.6211C251.959 96.5634 252.531 97.4795 252.841 98.5447C253.282 100.059 252.949 101.555 252.103 103.024C251.315 104.394 249.884 105.595 248.614 104.566C247.912 103.996 247.624 102.997 247.496 102.012C247.228 99.9616 247.512 97.8209 247.573 95.719C247.602 94.7323 247.762 93.2961 247.409 92.4175C246.965 91.3113 245.732 91.4638 244.604 91.2464C241.247 90.5977 238.083 89.5872 234.543 89.7499C233.373 89.8045 230.247 89.8808 229.361 90.7116C230.384 93.5749 232.261 95.9329 234.253 97.9882C236.132 99.9275 238.751 101.38 239.281 104.452C239.513 105.8 238.99 107.509 237.78 108.218C237.192 108.563 236.536 108.619 235.933 108.475C235.593 108.395 235.27 108.251 234.986 108.061C234.197 107.532 233.648 106.693 233.137 105.854C230.901 102.192 229.062 98.2363 227.29 94.2509C227.023 93.65 226.728 92.2627 226.081 92.1591C225.484 92.0636 223.871 93.4042 223.329 93.7695C221.495 95.0043 219.773 96.4655 218.19 98.0838C217.022 99.2788 215.924 100.558 214.918 101.912C214.185 102.9 213.312 103.781 212.84 104.944C212.766 105.126 212.7 105.323 212.729 105.504C212.766 105.73 212.942 105.878 213.11 106.006C214.404 106.995 215.789 107.855 217.246 108.577C218.413 109.155 220.05 109.448 220.986 110.4C221.718 111.144 221.842 112.559 221.163 113.562C220.727 114.207 220.032 114.619 219.341 114.769C218.65 114.918 217.961 114.828 217.32 114.639C215.882 114.215 215.18 112.743 214.047 111.79C213.668 111.472 211.067 107.761 211.198 107.419C210.851 108.321 209.934 111.52 209.685 112.448C208.235 117.839 208.6 123.626 211.137 127.915C212.297 129.877 213.925 131.475 215.837 132.564C217.634 133.588 219.484 133.595 221.409 134.152C221.716 134.241 221.945 134.405 222.117 134.625C221.196 150.3 234.451 157.069 246.242 150.259C245.221 149.66 243.728 149.542 242.39 149.487C231.709 149.461 235.353 140.571 240.101 142.673C248.304 148.234 248.556 148.945 251.021 146.328C253.212 144.261 256.291 140.13 258.05 137.612L256.035 137.452C244.081 137.255 245.74 126.099 251.539 129.867C254.301 131.67 256.44 134.06 259.25 135.816C263.008 129.466 264.201 124.814 265.472 118.743C263.605 119.033 261.679 120.128 259.764 120.489C256.191 121.204 253.024 118.28 257.648 116.472ZM261.014 105.374C263.429 105.533 262.5 109.139 260.448 108.946C258.25 108.615 259.213 105.376 261.014 105.374ZM214.124 119.744C213.812 120.08 213.311 120.286 212.908 120.294C212.488 120.303 212.068 120.113 211.806 119.796C211.233 119.1 211.402 117.993 212.079 117.263C212.391 116.928 212.892 116.722 213.295 116.714C213.715 116.705 214.135 116.895 214.397 117.212C214.97 117.907 214.801 119.015 214.124 119.744ZM219.14 124.551C218.829 124.887 218.327 125.093 217.924 125.101C217.504 125.11 217.084 124.92 216.822 124.603C216.249 123.907 216.419 122.801 217.096 122.07C217.407 121.735 217.909 121.529 218.311 121.521C218.731 121.512 219.152 121.702 219.413 122.019C219.987 122.715 219.817 123.822 219.14 124.551Z" fill="#F9CDE6"/>
<path d="M222.11 134.851C222.072 134.851 222.035 134.841 222 134.82C221.89 134.754 221.851 134.602 221.911 134.481C221.926 134.451 223.472 131.394 226.356 128.058C229.021 124.975 233.41 121.011 239.18 119.636C245.391 118.154 250.888 112.35 253.613 109.022C257.346 104.462 259.802 99.8301 259.789 98.7683C259.787 98.6306 259.887 98.5179 260.012 98.5156C260.013 98.5156 260.014 98.5156 260.015 98.5156C260.14 98.5156 260.24 98.6249 260.242 98.7614C260.259 100.113 257.571 104.931 253.95 109.356C250.578 113.475 245.293 118.688 239.277 120.124C233.623 121.472 229.313 125.364 226.693 128.393C223.847 131.683 222.323 134.694 222.307 134.724C222.266 134.806 222.188 134.852 222.109 134.852L222.11 134.851Z" fill="#C388EA"/>
<path d="M243.802 118.283C243.746 118.283 243.691 118.26 243.648 118.215C243.557 118.122 243.552 117.964 243.637 117.864C243.657 117.839 245.713 115.345 245.951 110.502C246.093 107.612 245.268 105.451 244.605 103.714C244.127 102.463 243.714 101.381 243.78 100.353C243.79 100.215 243.898 100.113 244.023 100.122C244.148 100.131 244.242 100.25 244.233 100.388C244.174 101.297 244.568 102.328 245.023 103.521C245.704 105.304 246.551 107.524 246.404 110.528C246.157 115.565 244.058 118.097 243.969 118.203C243.924 118.255 243.863 118.283 243.803 118.283H243.802Z" fill="#C388EA"/>
<path d="M257.448 126.231C254.887 126.231 250.144 123 247.76 121.089C244.529 118.5 239.304 120.049 239.251 120.065C239.13 120.103 239.006 120.024 238.973 119.891C238.94 119.758 239.01 119.621 239.131 119.585C239.354 119.517 244.623 117.958 248.028 120.687C251.674 123.609 256.445 126.331 258.107 125.618C258.224 125.568 258.355 125.631 258.401 125.759C258.446 125.887 258.389 126.032 258.273 126.082C258.036 126.183 257.758 126.231 257.45 126.231H257.448Z" fill="#C388EA"/>
<path d="M228.246 126.626C228.213 126.626 228.179 126.618 228.147 126.601C228.035 126.54 227.988 126.391 228.042 126.267C228.068 126.209 230.563 120.454 229.063 116.333C228.47 114.702 227.535 112.849 226.632 111.056C225.152 108.121 223.754 105.35 223.92 103.712C223.933 103.576 224.047 103.478 224.17 103.492C224.294 103.506 224.384 103.63 224.371 103.767C224.222 105.246 225.586 107.95 227.029 110.814C227.939 112.62 228.881 114.487 229.485 116.148C231.059 120.475 228.558 126.241 228.451 126.485C228.411 126.573 228.331 126.626 228.247 126.626H228.246Z" fill="#C388EA"/>
<path d="M248.189 140.458C248.112 140.458 248.035 140.414 247.994 140.335C244.662 134.067 238.639 131.638 234.172 130.705C229.315 129.691 225.204 130.174 225.164 130.178C225.04 130.193 224.927 130.095 224.913 129.957C224.9 129.821 224.989 129.698 225.114 129.682C225.156 129.677 229.334 129.186 234.257 130.215C237.153 130.82 239.74 131.824 241.944 133.2C244.708 134.925 246.874 137.24 248.385 140.083C248.448 140.201 248.412 140.355 248.303 140.424C248.267 140.447 248.228 140.458 248.189 140.458Z" fill="#C388EA"/>
<path d="M185.756 90.2008C185.875 90.1553 187.327 89.6272 189.307 88.3674C190.296 87.7358 191.397 86.9232 192.534 85.8899C193.654 84.8622 194.808 83.6104 195.845 82.1343C197.937 79.1754 199.194 75.9092 199.92 73.3918C200.645 70.8711 200.852 69.0934 200.872 68.9478L200.965 68.1238L200.321 68.4755C200.21 68.5335 198.824 69.3097 196.977 70.8005C195.13 72.2902 192.819 74.5003 190.804 77.4023C189.327 79.5396 188.199 81.7394 187.366 83.6684C186.523 85.5997 185.964 87.2646 185.63 88.3538C185.66 87.5036 185.666 86.6524 185.686 85.8011C185.724 85.8171 185.744 85.8262 185.744 85.8262C185.744 85.8262 185.729 85.7203 185.689 85.5246C185.721 81.7258 185.624 77.9281 185.427 74.1373L185.526 74.0872C185.622 74.0383 186.813 73.4419 188.398 72.2162C189.977 70.9985 191.939 69.1185 193.565 66.5966C195.191 64.0997 196.186 61.5812 196.81 59.7296C197.432 57.8734 197.677 56.6568 197.693 56.5521L197.804 55.9843L197.242 56.2119C197.143 56.2517 195.936 56.7433 194.332 57.8279C192.73 58.9147 190.739 60.6241 189.097 63.0595C187.931 64.7836 187.105 66.6091 186.508 68.2467C185.914 69.8855 185.541 71.324 185.326 72.313C185.087 68.1739 184.716 64.0496 184.497 59.9174L184.518 59.906C184.599 59.8673 185.605 59.3495 186.955 58.3673C188.309 57.3897 190.001 55.9433 191.515 54.1509C193.027 52.3539 194.07 50.607 194.781 49.362C195.483 48.1067 195.837 47.3157 195.862 47.2441C195.915 47.1177 195.962 46.9857 196.018 46.8662L195.523 46.9322C195.439 46.9516 194.374 47.0859 192.91 47.6515C191.447 48.2137 189.594 49.2538 188.001 51.0326C186.925 52.2378 186.127 53.6057 185.553 54.8781C184.976 56.1516 184.627 57.3294 184.412 58.1841C184.272 54.8405 184.247 51.4878 184.501 48.1556C184.703 47.8905 185.403 46.8822 186.184 45.4824C186.96 44.0723 187.83 42.3174 188.38 40.3407C188.681 39.2868 188.876 38.2614 189.005 37.277C189.153 36.3051 189.224 35.364 189.298 34.5434C189.326 34.1406 189.353 33.7525 189.377 33.3963C189.402 33.0492 189.411 32.7317 189.425 32.4699C189.456 31.9475 189.458 31.6107 189.457 31.5606V31.1816L189.135 31.3057C189.092 31.3228 188.806 31.4354 188.352 31.6744C188.126 31.795 187.871 31.9578 187.578 32.1535C187.282 32.347 186.971 32.5894 186.642 32.8739C185.973 33.4373 185.277 34.2032 184.627 35.15C183.998 36.1037 183.432 37.244 183.068 38.5209C182.397 40.9313 182.549 43.262 182.928 44.9634C183.299 46.6773 183.866 47.8074 184.018 48.1101C183.834 50.4909 183.796 52.8797 183.839 55.2605C183.276 53.4362 182.174 50.4556 180.367 47.3909C178.939 44.9953 177.331 42.9445 176.076 41.4571C175.441 40.7185 174.903 40.1256 174.514 39.7227C174.126 39.3198 173.89 39.1093 173.89 39.1093C173.89 39.1093 173.86 39.5326 173.851 40.2598C173.857 40.9791 173.892 41.9999 174.048 43.163C174.344 45.4994 175.161 48.3673 176.7 50.7606C177.954 52.7124 179.474 54.0723 180.802 55.0249C182.132 55.974 183.287 56.5146 183.875 56.7661C183.996 60.7026 184.313 64.6198 184.592 68.529C183.825 66.4338 182.241 63.0367 179.622 59.9356C177.586 57.524 175.307 55.6884 173.532 54.4206C172.646 53.7867 171.88 53.3087 171.343 52.9832C170.804 52.66 170.483 52.5007 170.483 52.5007C170.483 52.5007 170.5 52.6088 170.533 52.8171C170.568 53.0208 170.618 53.3258 170.7 53.6945C170.858 54.4388 171.117 55.4812 171.518 56.6546C172.315 59.0137 173.69 61.8646 175.769 64.2192C177.466 66.1493 179.358 67.5024 180.993 68.4641C182.626 69.4178 184.012 69.9925 184.711 70.2554C184.856 72.4757 184.975 74.696 185.066 76.9187C185.151 79.1413 185.198 81.3639 185.209 83.5865C185.025 82.9594 184.784 82.2288 184.487 81.4321C184.182 80.6355 183.813 79.7729 183.371 78.8818C182.476 77.0985 181.293 75.207 179.74 73.4886C178.546 72.1616 177.255 71.0645 175.992 70.1621C175.361 69.7114 174.738 69.3097 174.14 68.9546C173.54 68.5938 172.962 68.2638 172.421 67.9838C170.261 66.8458 168.711 66.3496 168.711 66.3496C168.711 66.3496 168.82 66.7957 169.058 67.5218C169.297 68.2581 169.666 69.2721 170.175 70.3783C171.199 72.6259 172.794 75.4767 175.125 78.0829C177.043 80.2213 179.154 81.8851 181.002 83.1347C182.843 84.3808 184.409 85.1968 185.201 85.5758C185.137 90.6401 184.834 95.7056 184.119 100.705C183.936 99.4065 183.589 97.6641 182.922 95.7841C182.754 95.3141 182.571 94.8361 182.37 94.3547C182.162 93.8722 181.932 93.3862 181.685 92.9014C181.198 91.9352 180.595 90.9667 179.921 90.046C177.802 87.1895 175.181 85.281 173.114 84.0815C172.084 83.4852 171.181 83.0584 170.542 82.783C169.903 82.5076 169.524 82.3801 169.524 82.3801C169.524 82.3801 169.604 82.7625 169.795 83.4169C169.975 84.0645 170.275 84.9908 170.686 86.072C171.521 88.2445 172.834 91.0475 174.847 93.8221C175.256 94.3888 175.684 94.9362 176.122 95.462C176.559 95.9878 176.991 96.4851 177.435 96.9642C178.325 97.9236 179.199 98.7851 180.025 99.543C180.437 99.922 180.838 100.275 181.218 100.599C181.592 100.921 181.944 101.216 182.27 101.478C182.92 102.004 183.457 102.404 183.818 102.662C183.107 107.009 182.07 111.295 180.656 115.425C180.674 114.862 180.698 114.21 180.658 113.48C180.613 112.748 180.553 111.955 180.414 111.115C180.136 109.436 179.625 107.603 178.737 105.856C178.39 105.175 178.018 104.546 177.616 103.959C177.207 103.37 176.783 102.83 176.353 102.336C175.928 101.844 175.49 101.394 175.057 100.984C174.626 100.575 174.206 100.212 173.809 99.8913C173.02 99.2517 172.313 98.7771 171.805 98.4608C171.299 98.1455 170.995 97.9885 170.995 97.9885C170.995 97.9885 171.018 98.3026 171.103 98.85C171.172 99.3883 171.313 100.172 171.525 101.096C171.961 102.944 172.674 105.407 173.957 108.041C174.217 108.578 174.501 109.106 174.785 109.615C175.064 110.121 175.355 110.614 175.652 111.09C176.252 112.046 176.844 112.921 177.413 113.705C178.56 115.278 179.563 116.456 180.085 117.029C178.877 120.281 177.454 123.442 175.734 126.399C174.022 129.36 172.053 132.142 169.829 134.655L170.177 135.03C171.753 133.245 173.204 131.33 174.527 129.314L175.019 128.554C175.184 128.303 175.346 128.048 175.497 127.784L176.418 126.218L177.283 124.614C177.569 124.079 177.826 123.524 178.099 122.981L178.208 122.996C178.314 123.006 179.624 123.194 181.559 122.956C182.532 122.838 183.676 122.616 184.881 122.194C185.486 121.984 186.12 121.729 186.761 121.417C187.391 121.102 188.034 120.731 188.682 120.296C191.252 118.554 193.244 116.114 194.516 114.093C195.164 113.084 195.624 112.179 195.957 111.515C196.281 110.851 196.44 110.426 196.468 110.362L196.754 109.632L196.141 109.771C196.03 109.791 194.726 110.114 192.843 110.888C191.895 111.273 190.824 111.77 189.675 112.386C188.513 112.999 187.323 113.739 186.096 114.605C185.665 114.914 185.256 115.229 184.859 115.546C184.454 115.86 184.067 116.179 183.7 116.497C182.976 117.136 182.282 117.758 181.677 118.356C181.082 118.959 180.512 119.512 180.048 120.023C179.587 120.537 179.174 120.98 178.855 121.35C179.327 120.339 179.732 119.293 180.154 118.256C180.545 117.204 180.943 116.156 181.288 115.084C181.998 112.952 182.622 110.782 183.133 108.581L183.337 108.555C183.46 108.535 184.999 108.356 187.155 107.515C187.695 107.305 188.279 107.053 188.887 106.749C189.487 106.444 190.116 106.089 190.761 105.676C191.084 105.469 191.41 105.247 191.739 105.01C192.064 104.774 192.385 104.522 192.711 104.255C193.356 103.72 194.025 103.118 194.645 102.447C197.174 99.7638 198.876 96.5033 199.887 93.9359C200.398 92.6499 200.747 91.5335 200.978 90.7198C201.199 89.9106 201.307 89.4019 201.322 89.3256L201.502 88.4516L200.825 88.7509C200.707 88.7999 199.251 89.4656 197.266 90.7903C195.259 92.1207 192.736 94.0952 190.35 96.7287C186.87 100.617 184.606 104.723 183.551 106.715C183.683 106.094 183.818 105.473 183.926 104.846C184.037 104.22 184.168 103.598 184.262 102.969C184.297 102.992 184.317 103.005 184.317 103.005C184.317 103.005 184.312 102.899 184.305 102.697C184.654 100.645 184.896 98.5746 185.114 96.5033C185.319 94.4298 185.459 92.3494 185.559 90.2668L185.755 90.1963L185.756 90.2008Z" fill="#AEF0FF"/>
<path d="M218.825 84.4489C218.951 84.4694 220.458 84.7482 222.744 84.6515C223.886 84.6014 225.205 84.4478 226.65 84.1177C228.076 83.7832 229.629 83.2699 231.173 82.4983C234.278 80.9562 236.777 78.7143 238.489 76.8616C240.201 75.0054 241.139 73.5407 241.219 73.4212L241.651 72.7407L240.932 72.7213C240.809 72.7156 239.255 72.6895 236.989 73.0605C234.723 73.4292 231.741 74.1951 228.727 75.7258C226.512 76.8559 224.581 78.2227 223.025 79.5007C221.46 80.7753 220.258 81.96 219.5 82.7521C219.888 82.0158 220.255 81.2658 220.633 80.5238C220.66 80.5579 220.674 80.5761 220.674 80.5761C220.674 80.5761 220.705 80.4749 220.753 80.2802C222.395 76.9389 223.922 73.5305 225.357 70.0777L225.467 70.0845C225.574 70.0902 226.88 70.1755 228.801 69.9047C230.714 69.6384 233.248 68.9851 235.757 67.591C238.256 66.2185 240.205 64.5035 241.543 63.1868C242.88 61.8655 243.614 60.9152 243.673 60.831L244.012 60.386L243.419 60.2984C243.314 60.2825 242.038 60.097 240.158 60.2313C238.281 60.3701 235.794 60.8572 233.308 62.1682C231.545 63.0946 230.04 64.2838 228.816 65.4253C227.595 66.569 226.653 67.6491 226.045 68.4138C227.59 64.6321 229.014 60.7935 230.576 57.0277H230.6C230.688 57.0368 231.798 57.0959 233.409 56.9207C235.021 56.7522 237.132 56.3425 239.231 55.5345C241.33 54.7231 242.995 53.7137 244.152 52.9785C245.307 52.2296 245.956 51.7118 246.007 51.6618C246.108 51.5764 246.205 51.4854 246.306 51.408L245.84 51.2122C245.758 51.1861 244.758 50.7581 243.224 50.5055C241.692 50.2517 239.611 50.2187 237.447 50.9732C235.983 51.4865 234.698 52.2854 233.649 53.1162C232.597 53.9458 231.789 54.8085 231.236 55.4537C232.531 52.4254 233.934 49.4483 235.573 46.6327C235.864 46.5007 236.912 45.9692 238.197 45.1339C239.482 44.2861 240.997 43.181 242.323 41.7152C243.037 40.9379 243.643 40.1311 244.177 39.3276C244.721 38.5446 245.184 37.7491 245.597 37.0606C245.792 36.718 245.98 36.3903 246.154 36.0864C246.323 35.7928 246.466 35.5163 246.589 35.2921C246.838 34.846 246.983 34.5489 247.004 34.5045L247.164 34.1688L246.827 34.1142C246.781 34.1074 246.481 34.0607 245.977 34.0379C245.727 34.0288 245.432 34.0414 245.09 34.0641C244.745 34.0835 244.367 34.137 243.956 34.22C243.125 34.3748 242.184 34.6946 241.207 35.1988C240.246 35.7188 239.261 36.4369 238.397 37.3781C236.781 39.1649 235.925 41.3032 235.537 43.0035C235.139 44.7094 235.159 46 235.164 46.3459C233.99 48.3569 232.942 50.4497 231.968 52.5767C232.246 50.6739 232.536 47.4726 232.241 43.8354C231.996 40.9846 231.446 38.3455 230.968 36.3846C230.719 35.4047 230.495 34.6047 230.323 34.0493C230.15 33.494 230.032 33.1855 230.032 33.1855C230.032 33.1855 229.825 33.5452 229.51 34.1836C229.209 34.8232 228.807 35.7427 228.45 36.8512C227.72 39.0693 227.224 42.0248 227.569 44.9313C227.849 47.3019 228.615 49.2844 229.385 50.8094C230.159 52.3332 230.95 53.403 231.362 53.9276C229.797 57.4704 228.414 61.0973 227.001 64.697C227.213 62.4505 227.254 58.6334 226.256 54.5456C225.479 51.367 224.244 48.5731 223.214 46.5405C222.699 45.5254 222.225 44.7094 221.889 44.1449C221.55 43.5816 221.333 43.2766 221.333 43.2766C221.333 43.2766 221.302 43.3813 221.242 43.5816C221.188 43.7796 221.101 44.0755 221.017 44.4431C220.841 45.1828 220.627 46.2378 220.483 47.4806C220.185 49.9763 220.191 53.2027 221.029 56.3528C221.711 58.9316 222.809 61.0996 223.846 62.7896C224.885 64.4716 225.867 65.6927 226.373 66.2834C225.558 68.3205 224.72 70.3451 223.856 72.3572C222.988 74.3658 222.086 76.3563 221.151 78.3262C221.256 77.6775 221.353 76.9082 221.428 76.0513C221.496 75.1898 221.535 74.2372 221.523 73.2232C221.489 71.1872 221.247 68.9066 220.603 66.5884C220.11 64.8005 219.435 63.1686 218.702 61.7221C218.336 60.9994 217.955 60.3246 217.576 59.7032C217.199 59.0761 216.827 58.4866 216.469 57.962C215.042 55.8464 213.882 54.6116 213.882 54.6116C213.882 54.6116 213.788 55.0611 213.691 55.8259C213.59 56.5986 213.485 57.6866 213.465 58.9259C213.417 61.4399 213.617 64.7789 214.571 68.2818C215.358 71.1577 216.519 73.7137 217.622 75.7679C218.721 77.8152 219.758 79.3414 220.298 80.0834C218.09 84.5286 215.671 88.852 212.915 92.9046C213.305 91.6619 213.738 89.9445 213.947 87.9393C213.998 87.4374 214.04 86.9208 214.066 86.3916C214.086 85.8578 214.089 85.3104 214.077 84.7551C214.057 83.65 213.934 82.4835 213.73 81.3238C213.07 77.7094 211.563 74.6754 210.244 72.5529C209.587 71.4968 208.97 70.6546 208.523 70.0833C208.075 69.5109 207.794 69.2036 207.794 69.2036C207.794 69.2036 207.703 69.5826 207.593 70.2597C207.478 70.9244 207.349 71.8985 207.254 73.065C207.07 75.4151 207.04 78.5675 207.641 82.0556C207.762 82.7669 207.908 83.4702 208.071 84.161C208.236 84.8507 208.406 85.513 208.595 86.164C208.975 87.4693 209.381 88.6802 209.789 89.775C209.993 90.3224 210.198 90.8402 210.395 91.3216C210.589 91.7996 210.776 92.24 210.952 92.6395C211.304 93.4384 211.608 94.0688 211.818 94.4819C209.343 97.9598 206.607 101.216 203.603 104.142C203.858 103.653 204.156 103.09 204.43 102.423C204.702 101.753 204.986 101.021 205.218 100.206C205.685 98.5801 206.011 96.6966 205.969 94.6948C205.95 93.9141 205.889 93.1675 205.783 92.4414C205.672 91.7119 205.525 91.0155 205.355 90.3588C205.188 89.7056 204.992 89.0819 204.783 88.497C204.576 87.9143 204.359 87.3771 204.144 86.89C203.717 85.9193 203.293 85.1363 202.98 84.5957C202.666 84.0574 202.464 83.7615 202.464 83.7615C202.464 83.7615 202.352 84.0517 202.194 84.5798C202.027 85.0908 201.819 85.8567 201.614 86.7831C201.214 88.6404 200.798 91.185 200.815 94.1724C200.817 94.7801 200.843 95.3935 200.879 95.9899C200.911 96.5805 200.959 97.1655 201.019 97.739C201.144 98.893 201.296 99.9708 201.466 100.956C201.812 102.937 202.198 104.492 202.417 105.268C199.969 107.523 197.367 109.587 194.59 111.318C191.819 113.057 188.896 114.506 185.863 115.586L186.011 116.096C188.162 115.328 190.259 114.38 192.285 113.277L193.042 112.857C193.296 112.719 193.547 112.577 193.791 112.421L195.271 111.509L196.716 110.536C197.198 110.211 197.659 109.852 198.132 109.511L198.222 109.579C198.312 109.643 199.39 110.482 201.202 111.266C202.111 111.661 203.219 112.053 204.462 112.298C205.087 112.424 205.756 112.525 206.455 112.578C207.146 112.622 207.873 112.626 208.63 112.573C211.642 112.353 214.44 111.219 216.423 110.086C217.424 109.526 218.216 108.962 218.792 108.547C219.361 108.126 219.682 107.832 219.733 107.79L220.296 107.291L219.694 107.099C219.588 107.06 218.297 106.676 216.303 106.394C215.301 106.247 214.143 106.137 212.866 106.091C211.579 106.037 210.212 106.08 208.76 106.215C208.247 106.266 207.752 106.336 207.265 106.412C206.774 106.483 206.297 106.565 205.838 106.657C204.925 106.849 204.048 107.044 203.26 107.262C202.478 107.49 201.739 107.686 201.112 107.9C200.486 108.116 199.932 108.297 199.494 108.461C200.34 107.808 201.143 107.092 201.956 106.392C202.749 105.662 203.547 104.941 204.306 104.17C205.84 102.649 207.312 101.052 208.7 99.3676L208.891 99.4495C209.008 99.4951 210.446 100.128 212.708 100.492C213.275 100.583 213.898 100.66 214.565 100.705C215.226 100.745 215.932 100.753 216.678 100.718C217.052 100.701 217.435 100.673 217.826 100.632C218.213 100.59 218.605 100.533 219.006 100.464C219.804 100.321 220.651 100.133 221.484 99.8592C224.86 98.7849 227.749 96.7763 229.733 95.0271C230.732 94.1531 231.514 93.3439 232.064 92.7441C232.604 92.1421 232.914 91.7472 232.96 91.6892L233.489 91.0086L232.763 90.9256C232.638 90.9085 231.067 90.7492 228.75 90.9017C226.411 91.0473 223.342 91.4968 220.114 92.5985C215.386 94.2498 211.639 96.7171 209.86 97.9359C210.241 97.4545 210.624 96.9754 210.986 96.477C211.35 95.9796 211.73 95.4971 212.08 94.9884C212.102 95.0271 212.113 95.0487 212.113 95.0487C212.113 95.0487 212.154 94.9531 212.234 94.7699C213.414 93.1345 214.507 91.4286 215.579 89.709C216.641 87.9803 217.649 86.2129 218.621 84.4227L218.824 84.4603L218.825 84.4489Z" fill="#AEF0FF"/>
<path d="M248.233 146.53L244.505 152.702L240.542 159.262L237.231 164.744L233.891 170.272L231.759 173.802L231.108 174.879L214.958 201.614C213.175 204.566 209.556 205.368 206.873 203.407L202.41 200.147L200.77 198.948L193.22 193.431L116.69 137.51C114.007 135.549 113.276 131.568 115.059 128.617L116.912 125.549L131.86 100.804L144.607 79.7037L148.335 73.5321C150.117 70.5811 153.737 69.7776 156.42 71.7385L246.604 137.638C249.287 139.599 250.018 143.58 248.235 146.531L248.233 146.53Z" fill="#FFA28D"/>
<path d="M211.988 185.914L129.163 125.392C127.817 124.407 127.45 122.41 128.344 120.928C129.239 119.448 131.055 119.045 132.403 120.028L215.228 180.551C216.574 181.535 216.94 183.532 216.046 185.014C215.151 186.495 213.335 186.897 211.988 185.914Z" fill="white"/>
<path d="M244.506 152.7L240.542 159.261L237.231 164.743L233.892 170.272L231.76 173.802L231.073 173.301L219.363 164.743L215.226 161.72L193.22 145.641L165.723 125.547L131.859 100.803L144.606 79.7012L216.702 132.385L217.251 132.784L244.506 152.7Z" fill="#254B62"/>
<g style="mix-blend-mode:multiply">
<path d="M193.221 131.962V193.43L116.69 137.508C114.007 135.547 113.276 131.566 115.059 128.615L116.912 125.547H187.388C190.609 125.547 193.22 128.419 193.22 131.961L193.221 131.962Z" fill="#7BCCD4"/>
</g>
<path d="M190.525 134.093V200.225C190.525 203.768 187.914 206.64 184.693 206.64H76.4187C73.1986 206.64 70.5859 203.769 70.5859 200.225V134.093C70.5859 130.55 73.1976 127.678 76.4187 127.678H184.692C187.913 127.678 190.524 130.55 190.524 134.093H190.525Z" fill="#507CA8"/>
<path d="M99.8329 146.146H80.7827C80.0872 146.146 79.5234 146.767 79.5234 147.531V161.198C79.5234 161.963 80.0872 162.583 80.7827 162.583H99.8329C100.528 162.583 101.092 161.963 101.092 161.198V147.531C101.092 146.767 100.528 146.146 99.8329 146.146Z" fill="#FFA28D"/>
<path d="M98.5823 147.227H82.0351C81.4311 147.227 80.9414 147.765 80.9414 148.429V160.3C80.9414 160.965 81.4311 161.503 82.0351 161.503H98.5823C99.1864 161.503 99.676 160.965 99.676 160.3V148.429C99.676 147.765 99.1864 147.227 98.5823 147.227Z" stroke="#AA7B27" stroke-width="1.95" stroke-miterlimit="10"/>
<path d="M92.3547 148.535H88.401C87.4547 148.535 86.6875 149.379 86.6875 150.42V158.31C86.6875 159.351 87.4547 160.194 88.401 160.194H92.3547C93.301 160.194 94.0682 159.351 94.0682 158.31V150.42C94.0682 149.379 93.301 148.535 92.3547 148.535Z" stroke="#AA7B27" stroke-width="1.95" stroke-miterlimit="10"/>
<path d="M94.0332 151.598H99.6693" stroke="#AA7B27" stroke-width="1.95" stroke-miterlimit="10"/>
<path d="M94.0664 153.664H99.7025" stroke="#AA7B27" stroke-width="1.95" stroke-miterlimit="10"/>
<path d="M94.1016 155.73H99.7377" stroke="#AA7B27" stroke-width="1.95" stroke-miterlimit="10"/>
<path d="M94.1348 157.797H99.7709" stroke="#AA7B27" stroke-width="1.95" stroke-miterlimit="10"/>
<path d="M80.8828 151.598H86.5189" stroke="#AA7B27" stroke-width="1.95" stroke-miterlimit="10"/>
<path d="M80.916 153.664H86.5521" stroke="#AA7B27" stroke-width="1.95" stroke-miterlimit="10"/>
<path d="M80.9492 155.73H86.5853" stroke="#AA7B27" stroke-width="1.95" stroke-miterlimit="10"/>
<path d="M80.9824 157.797H86.6185" stroke="#AA7B27" stroke-width="1.95" stroke-miterlimit="10"/>
<path d="M96.6709 180.375H82.605C80.9887 180.375 79.6777 178.933 79.6777 177.155C79.6777 175.377 80.9887 173.936 82.605 173.936H96.6709C98.2872 173.936 99.5982 175.377 99.5982 177.155C99.5982 178.933 98.2872 180.375 96.6709 180.375Z" fill="white"/>
<path d="M131.443 196.218H82.605C80.9887 196.218 79.6777 194.776 79.6777 192.999C79.6777 191.221 80.9887 189.779 82.605 189.779H131.443C133.059 189.779 134.37 191.221 134.37 192.999C134.37 194.776 133.059 196.218 131.443 196.218Z" fill="white"/>
<path d="M124.026 180.375H109.96C108.344 180.375 107.033 178.933 107.033 177.155C107.033 175.377 108.344 173.936 109.96 173.936H124.026C125.643 173.936 126.954 175.377 126.954 177.155C126.954 178.933 125.643 180.375 124.026 180.375Z" fill="white"/>
<path d="M173.627 141.232H147.226C145.609 141.232 144.299 142.674 144.299 144.452C144.299 146.23 145.609 147.671 147.226 147.671H173.627C175.244 147.671 176.554 146.23 176.554 144.452C176.554 142.674 175.244 141.232 173.627 141.232Z" fill="white"/>
<path d="M151.384 180.375H137.318C135.702 180.375 134.391 178.933 134.391 177.155C134.391 175.377 135.702 173.936 137.318 173.936H151.384C153 173.936 154.311 175.377 154.311 177.155C154.311 178.933 153 180.375 151.384 180.375Z" fill="white"/>
<path d="M178.739 180.375H164.673C163.057 180.375 161.746 178.933 161.746 177.155C161.746 175.377 163.057 173.936 164.673 173.936H178.739C180.356 173.936 181.667 175.377 181.667 177.155C181.667 178.933 180.356 180.375 178.739 180.375Z" fill="white"/>
<g style="mix-blend-mode:multiply">
<path d="M124.207 132.435C123.131 132.146 121.03 131.983 118.994 131.892C122.505 130.387 125.356 128.995 127.641 127.676H84.3173C86.4551 128.974 89.0232 130.299 92.056 131.658C89.8003 131.517 84.6246 131.25 82.6742 131.627C80.1474 132.113 78.8374 134.253 82.0192 137.267C85.201 140.282 96.0179 136.226 96.0179 136.226L95.9362 136.1L97.4924 135.606L100.497 135.025C100.557 135.137 100.619 135.244 100.683 135.344L102.53 134.924C102.818 134.95 103.103 134.97 103.384 134.983C105.083 135.204 106.976 135.214 109.002 134.962L109.291 135.059L109.159 135.321L110.677 135.927L110.587 136.048C110.587 136.048 121.103 140.883 124.481 138.107C127.859 135.333 126.696 133.102 124.208 132.434L124.207 132.435Z" fill="#7BCCD4"/>
</g>
<path d="M95.9891 116.517L93.334 115.829L93.3971 83.949L104.513 83.916L115.799 84.0719L116.767 115.917L113.581 116.472C115.275 120.19 95.2192 118.179 95.9891 116.517Z" fill="#65ABD6"/>
<path d="M96.1133 61.9274C96.1133 61.9274 96.1133 75.5954 98.5293 76.5536C101.944 77.9079 112.612 76.9531 112.612 76.9531C112.612 76.9531 115.179 74.7464 113.867 61.9274C113.867 61.9274 112.555 50.7211 97.8889 59.1256L96.1133 61.9274Z" fill="#254B62"/>
<path d="M110.509 84.4975L109.291 76.3047H102.171L100.819 84.4941C100.544 84.8526 100.391 85.2486 100.391 85.664C100.391 87.2994 102.751 88.6263 105.663 88.6263C108.574 88.6263 110.934 87.3005 110.934 85.664C110.934 85.2497 110.782 84.8548 110.509 84.4964V84.4975Z" fill="#E5897A"/>
<path d="M113.513 70.5839C113.513 73.2651 112.255 76.2775 110.742 78.9292C108.372 83.0842 102.858 83.0842 100.489 78.9292C98.977 76.2775 97.9019 73.2571 97.7177 70.5839C97.1931 62.9464 101.253 58.4238 105.615 58.4238C109.976 58.4238 113.512 63.8682 113.512 70.5839H113.513Z" fill="#F7AD9C"/>
<path d="M113.867 64.7283L111.938 61.502V71.3973C111.938 72.5433 111.092 73.4731 110.05 73.4731H100.779C99.7373 73.4731 98.8919 72.5444 98.8919 71.3973L99.0461 62.0118L96.9622 64.7283C96.9001 66.5162 96.8918 68.3166 96.777 70.1022C96.5866 73.0383 97.5054 76.2033 98.775 78.7605C99.2055 79.6254 99.6794 80.6439 100.41 81.2505C101.275 81.9698 102.391 82.3032 103.464 82.3032H107.883C108.935 82.3032 110.046 81.9914 110.898 81.2915C111.984 80.3981 112.237 78.8538 112.816 77.5917C113.271 76.5993 113.726 74.2481 113.866 73.1351C114.018 71.9367 113.866 72.0551 113.866 70.8522C113.866 68.8116 113.866 66.7711 113.866 64.7306L113.867 64.7283Z" fill="#254B62"/>
<path d="M112.377 62.5099L112.94 62.5577L111.55 57.7221L107.46 57.3193C108.169 56.7172 107.851 56.3884 105.646 56.6217C99.3983 57.2817 98.1245 56.1334 97.871 55.5621C97.8348 55.4813 97.7075 55.4825 97.6693 55.5621C95.545 60.0711 96.1896 62.5566 96.1896 62.5566C96.1896 62.5566 96.7659 62.3347 97.661 61.975C100.098 66.4521 113.12 63.327 113.12 63.327C113.12 63.327 112.83 63.0004 112.377 62.5088V62.5099Z" fill="#254B62"/>
<path d="M99.2803 71.1811C100.048 71.1811 100.67 70.4209 100.67 69.4831C100.67 68.5454 100.048 67.7852 99.2803 67.7852C98.5128 67.7852 97.8906 68.5454 97.8906 69.4831C97.8906 70.4209 98.5128 71.1811 99.2803 71.1811Z" fill="#F7AD9C"/>
<path d="M111.474 71.1811C112.241 71.1811 112.863 70.4209 112.863 69.4831C112.863 68.5454 112.241 67.7852 111.474 67.7852C110.706 67.7852 110.084 68.5454 110.084 69.4831C110.084 70.4209 110.706 71.1811 111.474 71.1811Z" fill="#F7AD9C"/>
<path d="M105.963 76.2629C105.251 76.2629 104.615 76.1445 104.579 76.1377C104.461 76.1149 104.381 75.992 104.402 75.8623C104.422 75.7325 104.534 75.6449 104.652 75.6677C104.663 75.6699 105.819 75.885 106.702 75.7291C106.821 75.7086 106.932 75.7974 106.95 75.9271C106.969 76.0569 106.888 76.1798 106.77 76.2003C106.509 76.2458 106.23 76.2629 105.963 76.2629Z" fill="#F7AD9C"/>
<path d="M95.7199 131.11C79.5275 124.487 74.178 118.723 76.2578 112.908C77.7064 108.857 92.1408 110.996 108.333 117.618C124.525 124.24 111.912 137.732 95.7199 131.111V131.11Z" fill="#254B62"/>
<path d="M134.963 113.481C137.076 119.334 133.613 123.844 116.325 130.892C99.0371 137.94 85.711 125.95 102.999 118.902C120.287 111.854 133.503 109.435 134.963 113.481Z" fill="#254B62"/>
<path d="M105.205 127.135L108.312 127.593L115.528 131.377C115.528 131.377 126.203 133.442 112.629 134.083L107.377 132.294L101.1 129.609L105.205 127.136V127.135Z" fill="#E5897A"/>
<path d="M113.239 134.836L117.054 135.115L117.004 130.333L112.419 129.474L111.325 128.93L109.156 133.208L113.239 134.836Z" fill="white"/>
<path d="M113.767 129.66L110.586 133.935C110.586 133.935 121.102 138.769 124.479 135.995C127.856 133.22 126.694 130.989 124.207 130.32C121.72 129.651 113.767 129.66 113.767 129.66Z" fill="#65ABD6"/>
<path d="M108.345 131.393L97.4904 133.491L97.1365 133.559L93.308 134.816L91.8667 135.29C78.3015 134.499 86.2937 130.453 86.2937 130.453L89.8562 130.05L94.4876 129.528L95.6155 129.065L106.14 124.748L108.344 131.393H108.345Z" fill="#F7AD9C"/>
<path d="M97.491 133.49L95.6172 129.064L94.4893 129.528L89.8579 130.05L89.4844 134.816H93.3087L97.491 133.49Z" fill="white"/>
<path d="M100.68 133.228L118.919 129.084L116.033 116.041L99.0684 126.703C99.0684 126.703 99.3591 131.16 100.68 133.227V133.228Z" fill="#254B62"/>
<path d="M93.1301 129.614L96.0149 134.11C96.0149 134.11 85.198 138.165 82.0173 135.151C78.8355 132.136 80.1454 129.996 82.6722 129.51C85.199 129.024 93.1312 129.614 93.1312 129.614H93.1301Z" fill="#65ABD6"/>
<path d="M111.719 83.916L107.191 98.524L106.574 100.512L105.351 104.461L104.127 100.512L103.641 98.9451L98.9824 83.916H111.719Z" fill="white"/>
<path d="M107.192 98.5229L106.575 100.511L105.352 104.459L104.128 100.511L103.643 98.9428L105.237 85.0257C105.257 84.8538 105.482 84.8538 105.503 85.0234L107.193 98.5218L107.192 98.5229Z" fill="#254B62"/>
<path d="M108.062 70.9366C109.066 70.9366 109.88 70.0414 109.88 68.9371C109.88 67.8327 109.066 66.9375 108.062 66.9375C107.058 66.9375 106.244 67.8327 106.244 68.9371C106.244 70.0414 107.058 70.9366 108.062 70.9366Z" stroke="white" stroke-width="1.47" stroke-miterlimit="10"/>
<path d="M102.552 70.9366C103.556 70.9366 104.37 70.0414 104.37 68.9371C104.37 67.8327 103.556 66.9375 102.552 66.9375C101.548 66.9375 100.734 67.8327 100.734 68.9371C100.734 70.0414 101.548 70.9366 102.552 70.9366Z" stroke="white" stroke-width="1.47" stroke-miterlimit="10"/>
<path d="M106.168 69.172H104.417C104.376 69.172 104.342 69.1345 104.342 69.0889C104.342 69.0434 104.376 69.0059 104.417 69.0059H106.168C106.209 69.0059 106.244 69.0434 106.244 69.0889C106.244 69.1345 106.209 69.172 106.168 69.172Z" fill="white"/>
<path d="M91.1391 108.669C90.1509 107.413 89.1421 106.184 88.1074 104.989C87.8518 104.686 87.589 104.393 87.3292 104.096C87.0675 103.801 86.8098 103.5 86.546 103.209C86.2066 102.829 85.8641 102.453 85.5206 102.079L85.7192 101.888C86.2842 101.352 86.8347 100.799 87.3913 100.254C87.948 99.7085 88.4923 99.1485 89.0438 98.5966C89.588 98.0367 90.1344 97.479 90.6724 96.9111C91.7527 95.7811 92.8112 94.6271 93.8542 93.4538C94.8931 92.2759 95.9195 91.0843 96.8921 89.8291L93.4548 83.9863C89.8033 84.198 89.4163 85.913 88.2905 86.9896C87.1678 88.0708 86.0628 89.1701 84.9784 90.2945C84.4341 90.8544 83.8981 91.4235 83.3601 91.9902C82.8293 92.5649 82.2902 93.1317 81.7656 93.7144C81.2399 94.2959 80.7081 94.8706 80.1907 95.4613L79.4095 96.3421L78.9863 96.8224C78.8352 96.9976 78.6883 97.1672 78.5476 97.3595C78.4069 97.5587 78.2692 97.751 78.142 97.9684C77.6256 98.8231 77.2449 99.8974 77.1424 101.041C77.0866 101.61 77.1083 102.192 77.189 102.754C77.2314 103.033 77.2925 103.307 77.3608 103.577C77.4384 103.837 77.5201 104.102 77.6205 104.347C78.0168 105.338 78.6024 106.133 79.2191 106.732C79.364 106.872 79.5699 107.06 79.6092 107.083L79.8379 107.262L80.2942 107.619C80.9057 108.092 81.5183 108.564 82.1391 109.026C82.4474 109.259 82.762 109.484 83.0724 109.714C83.3849 109.942 83.6943 110.174 84.0109 110.396C85.266 111.301 86.546 112.171 87.8476 113.015C88.4985 113.436 89.1576 113.846 89.8229 114.248C90.4903 114.649 91.1639 115.039 91.8593 115.402L93.998 112.581C93.549 111.894 93.0782 111.235 92.6001 110.585C92.121 109.936 91.6358 109.298 91.1412 108.669H91.1391Z" fill="#65ABD6"/>
<path d="M117.245 110.691C116.767 111.341 116.296 112 115.847 112.687L117.986 115.508C118.681 115.147 119.355 114.755 120.022 114.354C120.689 113.953 121.347 113.542 121.998 113.121C123.299 112.278 124.579 111.407 125.834 110.502C126.151 110.28 126.46 110.048 126.773 109.82C127.084 109.591 127.398 109.365 127.706 109.132C128.326 108.67 128.94 108.199 129.551 107.725L130.007 107.368L130.236 107.189C130.275 107.167 130.481 106.979 130.626 106.839C131.243 106.239 131.828 105.445 132.225 104.453C132.325 104.21 132.407 103.944 132.484 103.683C132.553 103.413 132.614 103.139 132.656 102.86C132.737 102.298 132.759 101.716 132.703 101.147C132.6 100.004 132.22 98.9293 131.703 98.0758C131.575 97.8584 131.438 97.6661 131.298 97.467C131.156 97.2758 131.01 97.1051 130.859 96.9298L130.436 96.4495L129.655 95.5687C129.136 94.978 128.605 94.4033 128.08 93.8218C127.554 93.2402 127.016 92.6735 126.485 92.0976C125.947 91.5309 125.411 90.9607 124.867 90.402C123.783 89.2776 122.676 88.1782 121.555 87.0971C120.429 86.0205 119.496 84.3054 115.844 84.0938L112.953 89.9365C113.925 91.1918 114.952 92.3833 115.991 93.5612C117.034 94.7345 118.093 95.8885 119.173 97.0186C119.711 97.5864 120.257 98.143 120.801 98.704C121.353 99.256 121.896 99.8159 122.454 100.361C123.011 100.906 123.562 101.458 124.126 101.995L124.325 102.186C123.981 102.561 123.639 102.936 123.299 103.317C123.035 103.608 122.777 103.907 122.516 104.203C122.256 104.5 121.993 104.794 121.738 105.096C120.703 106.291 119.694 107.52 118.706 108.777C118.213 109.405 117.726 110.045 117.247 110.692L117.245 110.691Z" fill="#65ABD6"/>
<path d="M123.42 96.6776L120.52 117.263C120.416 118 119.777 118.549 119.022 118.549H90.5676C90.1558 118.549 89.7781 118.385 89.5029 118.115C89.2742 117.892 89.118 117.597 89.0704 117.261L86.1711 96.6765C86.0438 95.7797 86.7506 94.9785 87.6683 94.9785H121.923C122.498 94.9785 122.991 95.2938 123.246 95.7501C123.398 96.0221 123.468 96.343 123.42 96.6765V96.6776Z" fill="#AEF0FF"/>
<path d="M123.246 95.7521L89.5029 118.117C89.2742 117.894 89.118 117.599 89.0704 117.263L86.1711 96.6784C86.0438 95.7817 86.7506 94.9805 87.6683 94.9805H121.923C122.498 94.9805 122.991 95.2957 123.246 95.7521Z" fill="#D4F9FF"/>
<path d="M104.985 109.776C106.471 109.776 107.675 108.687 107.675 107.345C107.675 106.002 106.471 104.914 104.985 104.914C103.499 104.914 102.295 106.002 102.295 107.345C102.295 108.687 103.499 109.776 104.985 109.776Z" fill="white"/>
</g>
<defs>
<clipPath id="clip0_19667_90216">
<rect width="301" height="216.012" fill="white"/>
</clipPath>
</defs>
</svg>
