<svg width="30" height="31" viewBox="0 0 30 31" fill="none" xmlns="http://www.w3.org/2000/svg">
<g id="fluent-mdl2:review-request-solid" clip-path="url(#clip0_10208_36503)">
<path id="Vector" d="M29.7227 28.4039C29.9083 28.5894 30.001 28.8092 30.001 29.0631C30.001 29.317 29.9083 29.5367 29.7227 29.7223C29.5372 29.9078 29.3174 30.0006 29.0635 30.0006C28.8096 30.0006 28.5899 29.9078 28.4044 29.7223L16.9053 18.2379C15.9776 19.0191 14.9522 19.6099 13.8292 20.0103C12.7061 20.4107 11.5342 20.6158 10.3135 20.6256C9.36627 20.6256 8.45318 20.5035 7.57427 20.2594C6.69537 20.0152 5.87506 19.6685 5.11334 19.2193C4.35162 18.7701 3.65338 18.233 3.01861 17.608C2.38384 16.983 1.84673 16.2896 1.40728 15.5279C0.967828 14.7662 0.621148 13.941 0.367242 13.0523C0.113336 12.1636 -0.00873481 11.2506 0.00103082 10.3131C0.00103082 9.36579 0.123101 8.4527 0.367242 7.57379C0.611382 6.69489 0.958062 5.87457 1.40728 5.11285C1.8565 4.35113 2.39361 3.65289 3.01861 3.01812C3.64361 2.38336 4.33697 1.84625 5.09869 1.40679C5.86041 0.967341 6.6856 0.620661 7.57427 0.366754C8.46295 0.112847 9.37603 -0.0092231 10.3135 0.000542535C11.2608 0.000542535 12.1739 0.122613 13.0528 0.366754C13.9317 0.610895 14.752 0.957575 15.5137 1.40679C16.2754 1.85601 16.9737 2.39312 17.6085 3.01812C18.2432 3.64313 18.7803 4.33649 19.2198 5.09821C19.6592 5.85993 20.0059 6.68512 20.2598 7.57379C20.5137 8.46247 20.6358 9.37556 20.626 10.3131C20.626 11.524 20.4258 12.691 20.0254 13.814C19.6251 14.9371 19.0294 15.9674 18.2383 16.9049L29.7227 28.4039ZM11.251 15.0006H9.37603V16.8756H11.251V15.0006ZM11.3682 13.1256C11.3682 12.8326 11.461 12.5689 11.6465 12.3345C11.8321 12.1002 12.0616 11.8707 12.335 11.6461C12.6085 11.4215 12.9112 11.1871 13.2432 10.9429C13.5753 10.6988 13.8731 10.4254 14.1368 10.1226C14.4004 9.81989 14.6348 9.47809 14.8399 9.09723C15.045 8.71637 15.1378 8.26715 15.1182 7.74958C15.1182 7.11481 14.9766 6.54352 14.6934 6.03571C14.4102 5.52789 14.044 5.09821 13.5948 4.74664C13.1456 4.39508 12.6329 4.12164 12.0567 3.92633C11.4805 3.73102 10.8995 3.63336 10.3135 3.63336C9.73736 3.63336 9.16607 3.71148 8.59967 3.86774C8.03326 4.02399 7.51568 4.26813 7.04693 4.60016C6.57818 4.93219 6.20709 5.33258 5.93365 5.80133C5.66021 6.27008 5.51861 6.83649 5.50884 7.50055H7.61822C7.61822 7.17829 7.70611 6.90485 7.88189 6.68024C8.05767 6.45563 8.28717 6.27496 8.57037 6.13825C8.85357 6.00153 9.14654 5.89899 9.44928 5.83063C9.75201 5.76227 10.0401 5.73297 10.3135 5.74274C10.5967 5.74274 10.8946 5.78668 11.2071 5.87457C11.5196 5.96246 11.8126 6.08942 12.086 6.25543C12.3594 6.42145 12.5792 6.62653 12.7452 6.87067C12.9112 7.11481 12.9991 7.40778 13.0088 7.74958C13.0088 8.04255 12.9161 8.30622 12.7305 8.54059C12.545 8.77497 12.3155 9.00446 12.042 9.22907C11.7686 9.45368 11.4659 9.68806 11.1338 9.9322C10.8018 10.1763 10.504 10.4498 10.2403 10.7525C9.97662 11.0552 9.74224 11.397 9.53717 11.7779C9.33209 12.1588 9.23931 12.608 9.25885 13.1256H11.3682Z" fill="#FFC700"/>
</g>
<defs>
<clipPath id="clip0_10208_36503">
<rect width="30" height="30" fill="white" transform="translate(0.000488281 0.00390625)"/>
</clipPath>
</defs>
</svg>
